mtllib model_14.mtl
o model_14
v -63.5620002746582 -1.0001599788665771 0.9998360276222229 
v -63.5620002746582 0.9998360276222229 0.9998360276222229 
v -1.0383939743041992 -1.0001599788665771 0.22818399965763092 
v -1.0383939743041992 0.9998360276222229 0.22818399965763092 
v -1.0383939743041992 -1.0001599788665771 -1.0001599788665771 
v -1.0383939743041992 0.9998360276222229 -1.0001599788665771 
v 0.9948940277099609 -1.0001599788665771 -1.0001599788665771 
v 0.9948940277099609 0.9998360276222229 -1.0001599788665771 
v 0.9948940277099609 -1.0001599788665771 -1.0001599788665771 
v 0.9948940277099609 0.9998360276222229 -1.0001599788665771 
v 0.9948940277099609 -1.0001599788665771 0.22818399965763092 
v 0.9948940277099609 0.9998360276222229 0.22818399965763092 
v 0.9948940277099609 0.9998360276222229 -1.0001599788665771 
v -1.0383939743041992 0.9998360276222229 -1.0001599788665771 
v 0.9948940277099609 0.9998360276222229 0.22818399965763092 
v -1.0383939743041992 0.9998360276222229 0.22818399965763092 
v -61.52871322631836 0.9998360276222229 0.9998360276222229 
v -63.5620002746582 0.9998360276222229 0.9998360276222229 
v -61.52871322631836 0.9998360276222229 0.9998360276222229 
v -61.52871322631836 -1.0001599788665771 0.9998360276222229 
v 0.9948940277099609 0.9998360276222229 0.22818399965763092 
v 0.9948940277099609 -1.0001599788665771 0.22818399965763092 
v -61.52871322631836 -1.0001599788665771 0.9998360276222229 
v -61.52871322631836 0.9998360276222229 0.9998360276222229 
v -63.5620002746582 -1.0001599788665771 0.9998360276222229 
v -63.5620002746582 0.9998360276222229 0.9998360276222229 
v -61.52871322631836 -1.0001599788665771 0.9998360276222229 
v -63.5620002746582 -1.0001599788665771 0.9998360276222229 
v 0.9948940277099609 -1.0001599788665771 0.22818399965763092 
v -1.0383939743041992 -1.0001599788665771 0.22818399965763092 
v 0.9948940277099609 -1.0001599788665771 -1.0001599788665771 
v -1.0383939743041992 -1.0001599788665771 -1.0001599788665771 
v -1.0383939743041992 0.9998360276222229 -1.0001599788665771 
v -1.0383939743041992 -1.0001599788665771 -1.0001599788665771 
v -1.0383939743041992 0.9998360276222229 0.22818399965763092 
v -1.0383939743041992 -1.0001599788665771 0.22818399965763092 
vn -0.013107799924910069 -2.7109958632902213e-15 -0.9999141097068787 
vn -0.013107799924910069 -2.7109958632902213e-15 -0.9999141097068787 
vn -0.013107799924910069 -2.7109958632902213e-15 -0.9999141097068787 
vn -0.013107799924910069 -2.7109958632902213e-15 -0.9999141097068787 
vn -2.0682311115474694e-13 0 -1 
vn -2.0682311115474694e-13 0 -1 
vn -2.0682311115474694e-13 0 -1 
vn -2.0682311115474694e-13 0 -1 
vn 0.999997615814209 0 0.002184694167226553 
vn 0.999997615814209 0 0.002184694167226553 
vn 0.999997615814209 0 0.002184694167226553 
vn 0.999997615814209 0 0.002184694167226553 
vn -1.0341130485562108e-13 0.999997615814209 0.002184694167226553 
vn -1.0341130485562108e-13 0.999997615814209 0.002184694167226553 
vn -1.0341130485562108e-13 0.999997615814209 0.002184694167226553 
vn -1.0341130485562108e-13 0.999997615814209 0.002184694167226553 
vn -1.0341130485562108e-13 0.999997615814209 0.002184694167226553 
vn -1.0341130485562108e-13 0.999997615814209 0.002184694167226553 
vn 0.013107799924910069 0 0.9999141097068787 
vn 0.013107799924910069 0 0.9999141097068787 
vn 0.013107799924910069 0 0.9999141097068787 
vn 0.013107799924910069 0 0.9999141097068787 
vn 0 0 1 
vn 0 0 1 
vn 0 0 1 
vn 0 0 1 
vn 3.097898456858039e-13 -0.999997615814209 0.002184694167226553 
vn 3.097898456858039e-13 -0.999997615814209 0.002184694167226553 
vn 3.097898456858039e-13 -0.999997615814209 0.002184694167226553 
vn 3.097898456858039e-13 -0.999997615814209 0.002184694167226553 
vn 3.097898456858039e-13 -0.999997615814209 0.002184694167226553 
vn 3.097898456858039e-13 -0.999997615814209 0.002184694167226553 
vn -0.999997615814209 -2.0682260971124217e-13 0.002184694167226553 
vn -0.999997615814209 -2.0682260971124217e-13 0.002184694167226553 
vn -0.999997615814209 -2.0682260971124217e-13 0.002184694167226553 
vn -0.999997615814209 -2.0682260971124217e-13 0.002184694167226553 
s on 
f 1//1 2//2 3//3 
f 2//2 4//4 3//3 
f 3//3 4//4 4//4 
f 4//4 5//5 4//4 
f 4//4 5//5 5//5 
f 5//5 6//6 5//5 
f 5//5 6//6 7//7 
f 6//6 8//8 7//7 
f 7//7 8//8 8//8 
f 8//8 9//9 8//8 
f 8//8 9//9 9//9 
f 9//9 10//10 9//9 
f 9//9 10//10 11//11 
f 10//10 12//12 11//11 
f 11//11 12//12 12//12 
f 12//12 13//13 12//12 
f 12//12 13//13 13//13 
f 13//13 14//14 13//13 
f 13//13 14//14 15//15 
f 14//14 16//16 15//15 
f 15//15 16//16 17//17 
f 16//16 18//18 17//17 
f 17//17 18//18 18//18 
f 18//18 19//19 18//18 
f 18//18 19//19 19//19 
f 19//19 20//20 19//19 
f 19//19 20//20 21//21 
f 20//20 22//22 21//21 
f 21//21 22//22 22//22 
f 22//22 23//23 22//22 
f 22//22 23//23 23//23 
f 23//23 24//24 23//23 
f 23//23 24//24 25//25 
f 24//24 26//26 25//25 
f 25//25 26//26 26//26 
f 26//26 27//27 26//26 
f 26//26 27//27 27//27 
f 27//27 28//28 27//27 
f 27//27 28//28 29//29 
f 28//28 30//30 29//29 
f 29//29 30//30 31//31 
f 30//30 32//32 31//31 
f 31//31 32//32 32//32 
f 32//32 33//33 32//32 
f 32//32 33//33 33//33 
f 33//33 34//34 33//33 
f 33//33 34//34 35//35 
f 34//34 36//36 35//35 

