mtllib model_3.mtl
o model_3
v -0.42287999391555786 6.321032524108887 -0.955930769443512 
v -0.42287999391555786 5.893027305603027 -0.955930769443512 
v -0.42287999391555786 6.321032524108887 0.11157047748565674 
v -0.42287999391555786 5.893027305603027 0.11157047748565674 
v -0.4220561683177948 6.322261333465576 0.11157047748565674 
v -0.42287999391555786 6.321032524108887 0.11157047748565674 
v -0.42126530408859253 6.322208404541016 0.11450327187776566 
v -0.4220561683177948 6.321032524108887 0.11463508009910583 
v 0.650750458240509 6.321032524108887 -0.9620599746704102 
v 0.650750458240509 5.893027305603027 -0.9620599746704102 
v -0.41675078868865967 6.321032524108887 -0.9620599746704102 
v -0.41675078868865967 5.893027305603027 -0.9620599746704102 
v -0.41675078868865967 5.890900135040283 0.11463508009910583 
v -0.41675078868865967 5.890570163726807 0.11157047748565674 
v 0.650750458240509 5.890900135040283 0.11463508009910583 
v 0.650750458240509 5.890570163726807 0.11157047748565674 
v -0.41675078868865967 5.893027305603027 0.11769967526197433 
v -0.41675078868865967 5.891798496246338 0.11687585711479187 
v 0.650750458240509 5.893027305603027 0.11769967526197433 
v 0.650750458240509 5.891798496246338 0.11687585711479187 
v -0.41675078868865967 5.890900135040283 -0.9589954018592834 
v -0.41675078868865967 5.891798496246338 -0.9612361788749695 
v 0.650750458240509 5.890900135040283 -0.9589954018592834 
v 0.650750458240509 5.891798496246338 -0.9612361788749695 
v -0.41675078868865967 5.891798496246338 -0.9612361788749695 
v -0.41675078868865967 5.893027305603027 -0.9620599746704102 
v 0.650750458240509 5.891798496246338 -0.9612361788749695 
v 0.650750458240509 5.893027305603027 -0.9620599746704102 
v 0.6568796634674072 5.893027305603027 0.11157047748565674 
v 0.6560558676719666 5.891798496246338 0.11157047748565674 
v 0.6568796634674072 5.893027305603027 -0.955930769443512 
v 0.6560558676719666 5.891798496246338 -0.955930769443512 
v 0.6560558676719666 5.891798496246338 0.11157047748565674 
v 0.6538150906562805 5.890900135040283 0.11157047748565674 
v 0.6560558676719666 5.891798496246338 -0.955930769443512 
v 0.6538150906562805 5.890900135040283 -0.955930769443512 
v 0.6538150906562805 5.890900135040283 0.11157047748565674 
v 0.650750458240509 5.890570163726807 0.11157047748565674 
v 0.6538150906562805 5.890900135040283 -0.955930769443512 
v 0.650750458240509 5.890570163726807 -0.955930769443512 
v 0.6568796634674072 6.321032524108887 0.11157047748565674 
v 0.6560558676719666 6.321032524108887 0.11463508009910583 
v 0.6568796634674072 5.893027305603027 0.11157047748565674 
v 0.6560558676719666 5.893027305603027 0.11463508009910583 
v 0.6560558676719666 6.321032524108887 0.11463508009910583 
v 0.6538150906562805 6.321032524108887 0.11687585711479187 
v 0.6560558676719666 5.893027305603027 0.11463508009910583 
v 0.6538150906562805 5.893027305603027 0.11687585711479187 
v 0.6538150906562805 6.321032524108887 0.11687585711479187 
v 0.650750458240509 6.321032524108887 0.11769967526197433 
v 0.6538150906562805 5.893027305603027 0.11687585711479187 
v 0.650750458240509 5.893027305603027 0.11769967526197433 
v 0.6568796634674072 5.893027305603027 -0.955930769443512 
v 0.6560558676719666 5.893027305603027 -0.9589954018592834 
v 0.6568796634674072 6.321032524108887 -0.955930769443512 
v 0.6560558676719666 6.321032524108887 -0.9589954018592834 
v 0.6560558676719666 5.893027305603027 -0.9589954018592834 
v 0.6538150906562805 5.893027305603027 -0.9612361788749695 
v 0.6560558676719666 6.321032524108887 -0.9589954018592834 
v 0.6538150906562805 6.321032524108887 -0.9612361788749695 
v 0.6538150906562805 5.893027305603027 -0.9612361788749695 
v 0.650750458240509 5.893027305603027 -0.9620599746704102 
v 0.6538150906562805 6.321032524108887 -0.9612361788749695 
v 0.650750458240509 6.321032524108887 -0.9620599746704102 
v 0.650750458240509 6.323489665985107 0.11157047748565674 
v 0.6538150906562805 6.323159694671631 0.11157047748565674 
v 0.650750458240509 6.323489665985107 -0.955930769443512 
v 0.6538150906562805 6.323159694671631 -0.955930769443512 
v 0.6538150906562805 6.323159694671631 0.11157047748565674 
v 0.6560558676719666 6.322261333465576 0.11157047748565674 
v 0.6538150906562805 6.323159694671631 -0.955930769443512 
v 0.6560558676719666 6.322261333465576 -0.955930769443512 
v 0.6560558676719666 6.322261333465576 0.11157047748565674 
v 0.6568796634674072 6.321032524108887 0.11157047748565674 
v 0.6560558676719666 6.322261333465576 -0.955930769443512 
v 0.6568796634674072 6.321032524108887 -0.955930769443512 
v -0.41675078868865967 6.323489665985107 0.11157047748565674 
v -0.41675078868865967 6.323159694671631 0.11463508009910583 
v 0.650750458240509 6.323489665985107 0.11157047748565674 
v 0.650750458240509 6.323159694671631 0.11463508009910583 
v -0.41675078868865967 6.323159694671631 0.11463508009910583 
v -0.41675078868865967 6.322261333465576 0.11687585711479187 
v 0.650750458240509 6.323159694671631 0.11463508009910583 
v 0.650750458240509 6.322261333465576 0.11687585711479187 
v -0.41675078868865967 6.322261333465576 0.11687585711479187 
v -0.41675078868865967 6.321032524108887 0.11769967526197433 
v 0.650750458240509 6.322261333465576 0.11687585711479187 
v 0.650750458240509 6.321032524108887 0.11769967526197433 
v 0.650750458240509 6.323489665985107 -0.955930769443512 
v 0.650750458240509 6.323159694671631 -0.9589954018592834 
v -0.41675078868865967 6.323489665985107 -0.955930769443512 
v -0.41675078868865967 6.323159694671631 -0.9589954018592834 
v 0.650750458240509 6.323159694671631 -0.9589954018592834 
v 0.650750458240509 6.322261333465576 -0.9612361788749695 
v -0.41675078868865967 6.323159694671631 -0.9589954018592834 
v -0.41675078868865967 6.322261333465576 -0.9612361788749695 
v 0.650750458240509 6.322261333465576 -0.9612361788749695 
v 0.650750458240509 6.321032524108887 -0.9620599746704102 
v -0.41675078868865967 6.322261333465576 -0.9612361788749695 
v -0.41675078868865967 6.321032524108887 -0.9620599746704102 
v -0.42287999391555786 6.321032524108887 0.11157047748565674 
v -0.4220561683177948 6.322261333465576 0.11157047748565674 
v -0.42287999391555786 6.321032524108887 -0.955930769443512 
v -0.4220561683177948 6.322261333465576 -0.955930769443512 
v -0.4220561683177948 6.322261333465576 0.11157047748565674 
v -0.41981539130210876 6.323159694671631 0.11157047748565674 
v -0.4220561683177948 6.322261333465576 -0.955930769443512 
v -0.41981539130210876 6.323159694671631 -0.955930769443512 
v -0.41981539130210876 6.323159694671631 0.11157047748565674 
v -0.41675078868865967 6.323489665985107 0.11157047748565674 
v -0.41981539130210876 6.323159694671631 -0.955930769443512 
v -0.41675078868865967 6.323489665985107 -0.955930769443512 
v -0.42287999391555786 5.893027305603027 0.11157047748565674 
v -0.4220561683177948 5.893027305603027 0.11463508009910583 
v -0.42287999391555786 6.321032524108887 0.11157047748565674 
v -0.4220561683177948 6.321032524108887 0.11463508009910583 
v -0.4220561683177948 5.893027305603027 0.11463508009910583 
v -0.41981539130210876 5.893027305603027 0.11687585711479187 
v -0.4220561683177948 6.321032524108887 0.11463508009910583 
v -0.41981539130210876 6.321032524108887 0.11687585711479187 
v -0.41675078868865967 6.321032524108887 0.11769967526197433 
v -0.41981539130210876 6.321032524108887 0.11687585711479187 
v -0.41675078868865967 5.893027305603027 0.11769967526197433 
v -0.41981539130210876 5.893027305603027 0.11687585711479187 
v -0.4220561683177948 5.891798496246338 0.11157047748565674 
v -0.42287999391555786 5.893027305603027 0.11157047748565674 
v -0.4220561683177948 5.891798496246338 -0.955930769443512 
v -0.42287999391555786 5.893027305603027 -0.955930769443512 
v -0.41981539130210876 5.890900135040283 0.11157047748565674 
v -0.4220561683177948 5.891798496246338 0.11157047748565674 
v -0.41981539130210876 5.890900135040283 -0.955930769443512 
v -0.4220561683177948 5.891798496246338 -0.955930769443512 
v -0.41675078868865967 5.890570163726807 0.11157047748565674 
v -0.41981539130210876 5.890900135040283 0.11157047748565674 
v -0.41675078868865967 5.890570163726807 -0.955930769443512 
v -0.41981539130210876 5.890900135040283 -0.955930769443512 
v -0.4220561683177948 5.893027305603027 -0.9589954018592834 
v -0.42287999391555786 5.893027305603027 -0.955930769443512 
v -0.4220561683177948 6.321032524108887 -0.9589954018592834 
v -0.42287999391555786 6.321032524108887 -0.955930769443512 
v -0.41981539130210876 5.893027305603027 -0.9612361788749695 
v -0.4220561683177948 5.893027305603027 -0.9589954018592834 
v -0.41981539130210876 6.321032524108887 -0.9612361788749695 
v -0.4220561683177948 6.321032524108887 -0.9589954018592834 
v -0.41675078868865967 5.893027305603027 -0.9620599746704102 
v -0.41981539130210876 5.893027305603027 -0.9612361788749695 
v -0.41675078868865967 6.321032524108887 -0.9620599746704102 
v -0.41981539130210876 6.321032524108887 -0.9612361788749695 
v 0.650750458240509 6.322261333465576 0.11687585711479187 
v 0.6536832451820374 6.322208404541016 0.116084985435009 
v 0.650750458240509 6.323159694671631 0.11463508009910583 
v 0.6536832451820374 6.322842597961426 0.11450327187776566 
v 0.650750458240509 6.323159694671631 0.11463508009910583 
v 0.6536832451820374 6.322842597961426 0.11450327187776566 
v 0.650750458240509 6.323489665985107 0.11157047748565674 
v 0.6538150906562805 6.323159694671631 0.11157047748565674 
v 0.6538150906562805 6.323159694671631 0.11157047748565674 
v 0.6536832451820374 6.322842597961426 0.11450327187776566 
v 0.6560558676719666 6.322261333465576 0.11157047748565674 
v 0.6552649736404419 6.322208404541016 0.11450327187776566 
v 0.6560558676719666 6.322261333465576 0.11157047748565674 
v 0.6552649736404419 6.322208404541016 0.11450327187776566 
v 0.6568796634674072 6.321032524108887 0.11157047748565674 
v 0.6560558676719666 6.321032524108887 0.11463508009910583 
v 0.6560558676719666 6.321032524108887 0.11463508009910583 
v 0.6552649736404419 6.322208404541016 0.11450327187776566 
v 0.6538150906562805 6.321032524108887 0.11687585711479187 
v 0.6536832451820374 6.322208404541016 0.116084985435009 
v 0.6538150906562805 6.321032524108887 0.11687585711479187 
v 0.6536832451820374 6.322208404541016 0.116084985435009 
v 0.650750458240509 6.321032524108887 0.11769967526197433 
v 0.650750458240509 6.322261333465576 0.11687585711479187 
v 0.6538150906562805 6.321032524108887 -0.9612361788749695 
v 0.6536832451820374 6.322208404541016 -0.9604452848434448 
v 0.6560558676719666 6.321032524108887 -0.9589954018592834 
v 0.6552649736404419 6.322208404541016 -0.9588636159896851 
v 0.6560558676719666 6.321032524108887 -0.9589954018592834 
v 0.6552649736404419 6.322208404541016 -0.9588636159896851 
v 0.6568796634674072 6.321032524108887 -0.955930769443512 
v 0.6560558676719666 6.322261333465576 -0.955930769443512 
v 0.6560558676719666 6.322261333465576 -0.955930769443512 
v 0.6552649736404419 6.322208404541016 -0.9588636159896851 
v 0.6538150906562805 6.323159694671631 -0.955930769443512 
v 0.6536832451820374 6.322842597961426 -0.9588636159896851 
v 0.6538150906562805 6.323159694671631 -0.955930769443512 
v 0.6536832451820374 6.322842597961426 -0.9588636159896851 
v 0.650750458240509 6.323489665985107 -0.955930769443512 
v 0.650750458240509 6.323159694671631 -0.9589954018592834 
v 0.650750458240509 6.323159694671631 -0.9589954018592834 
v 0.6536832451820374 6.322842597961426 -0.9588636159896851 
v 0.650750458240509 6.322261333465576 -0.9612361788749695 
v 0.6536832451820374 6.322208404541016 -0.9604452848434448 
v 0.650750458240509 6.322261333465576 -0.9612361788749695 
v 0.6536832451820374 6.322208404541016 -0.9604452848434448 
v 0.650750458240509 6.321032524108887 -0.9620599746704102 
v 0.6538150906562805 6.321032524108887 -0.9612361788749695 
v 0.6538150906562805 5.893027305603027 0.11687585711479187 
v 0.6536832451820374 5.891851425170898 0.116084985435009 
v 0.6560558676719666 5.893027305603027 0.11463508009910583 
v 0.6552649736404419 5.891851425170898 0.11450327187776566 
v 0.6560558676719666 5.893027305603027 0.11463508009910583 
v 0.6552649736404419 5.891851425170898 0.11450327187776566 
v 0.6568796634674072 5.893027305603027 0.11157047748565674 
v 0.6560558676719666 5.891798496246338 0.11157047748565674 
v 0.6560558676719666 5.891798496246338 0.11157047748565674 
v 0.6552649736404419 5.891851425170898 0.11450327187776566 
v 0.6538150906562805 5.890900135040283 0.11157047748565674 
v 0.6536832451820374 5.891217231750488 0.11450327187776566 
v 0.6538150906562805 5.890900135040283 0.11157047748565674 
v 0.6536832451820374 5.891217231750488 0.11450327187776566 
v 0.650750458240509 5.890570163726807 0.11157047748565674 
v 0.650750458240509 5.890900135040283 0.11463508009910583 
v 0.650750458240509 5.890900135040283 0.11463508009910583 
v 0.6536832451820374 5.891217231750488 0.11450327187776566 
v 0.650750458240509 5.891798496246338 0.11687585711479187 
v 0.6536832451820374 5.891851425170898 0.116084985435009 
v 0.650750458240509 5.891798496246338 0.11687585711479187 
v 0.6536832451820374 5.891851425170898 0.116084985435009 
v 0.650750458240509 5.893027305603027 0.11769967526197433 
v 0.6538150906562805 5.893027305603027 0.11687585711479187 
v 0.650750458240509 5.891798496246338 -0.9612361788749695 
v 0.6536832451820374 5.891851425170898 -0.9604452848434448 
v 0.650750458240509 5.890900135040283 -0.9589954018592834 
v 0.6536832451820374 5.891217231750488 -0.9588636159896851 
v 0.650750458240509 5.890900135040283 -0.9589954018592834 
v 0.6536832451820374 5.891217231750488 -0.9588636159896851 
v 0.650750458240509 5.890570163726807 -0.955930769443512 
v 0.6538150906562805 5.890900135040283 -0.955930769443512 
v 0.6538150906562805 5.890900135040283 -0.955930769443512 
v 0.6536832451820374 5.891217231750488 -0.9588636159896851 
v 0.6560558676719666 5.891798496246338 -0.955930769443512 
v 0.6552649736404419 5.891851425170898 -0.9588636159896851 
v 0.6560558676719666 5.891798496246338 -0.955930769443512 
v 0.6552649736404419 5.891851425170898 -0.9588636159896851 
v 0.6568796634674072 5.893027305603027 -0.955930769443512 
v 0.6560558676719666 5.893027305603027 -0.9589954018592834 
v 0.6560558676719666 5.893027305603027 -0.9589954018592834 
v 0.6552649736404419 5.891851425170898 -0.9588636159896851 
v 0.6538150906562805 5.893027305603027 -0.9612361788749695 
v 0.6536832451820374 5.891851425170898 -0.9604452848434448 
v 0.6538150906562805 5.893027305603027 -0.9612361788749695 
v 0.6536832451820374 5.891851425170898 -0.9604452848434448 
v 0.650750458240509 5.893027305603027 -0.9620599746704102 
v 0.650750458240509 5.891798496246338 -0.9612361788749695 
v -0.41981539130210876 6.321032524108887 0.11687585711479187 
v -0.4196836054325104 6.322208404541016 0.116084985435009 
v -0.4220561683177948 6.321032524108887 0.11463508009910583 
v -0.42126530408859253 6.322208404541016 0.11450327187776566 
v -0.4196836054325104 6.322842597961426 0.11450327187776566 
v -0.41981539130210876 6.323159694671631 0.11157047748565674 
v -0.42126530408859253 6.322208404541016 0.11450327187776566 
v -0.4220561683177948 6.322261333465576 0.11157047748565674 
v -0.41675078868865967 6.323159694671631 0.11463508009910583 
v -0.41675078868865967 6.323489665985107 0.11157047748565674 
v -0.4196836054325104 6.322842597961426 0.11450327187776566 
v -0.41981539130210876 6.323159694671631 0.11157047748565674 
v -0.4196836054325104 6.322208404541016 0.116084985435009 
v -0.41675078868865967 6.322261333465576 0.11687585711479187 
v -0.4196836054325104 6.322842597961426 0.11450327187776566 
v -0.41675078868865967 6.323159694671631 0.11463508009910583 
v -0.41981539130210876 6.321032524108887 0.11687585711479187 
v -0.41675078868865967 6.321032524108887 0.11769967526197433 
v -0.4196836054325104 6.322208404541016 0.116084985435009 
v -0.41675078868865967 6.322261333465576 0.11687585711479187 
v -0.4196836054325104 6.322842597961426 -0.9588636159896851 
v -0.41675078868865967 6.323159694671631 -0.9589954018592834 
v -0.4196836054325104 6.322208404541016 -0.9604452848434448 
v -0.41675078868865967 6.322261333465576 -0.9612361788749695 
v -0.41981539130210876 6.323159694671631 -0.955930769443512 
v -0.41675078868865967 6.323489665985107 -0.955930769443512 
v -0.4196836054325104 6.322842597961426 -0.9588636159896851 
v -0.41675078868865967 6.323159694671631 -0.9589954018592834 
v -0.42126530408859253 6.322208404541016 -0.9588636159896851 
v -0.4220561683177948 6.322261333465576 -0.955930769443512 
v -0.4196836054325104 6.322842597961426 -0.9588636159896851 
v -0.41981539130210876 6.323159694671631 -0.955930769443512 
v -0.4220561683177948 6.321032524108887 -0.9589954018592834 
v -0.42287999391555786 6.321032524108887 -0.955930769443512 
v -0.42126530408859253 6.322208404541016 -0.9588636159896851 
v -0.4220561683177948 6.322261333465576 -0.955930769443512 
v -0.4196836054325104 6.322208404541016 -0.9604452848434448 
v -0.41981539130210876 6.321032524108887 -0.9612361788749695 
v -0.42126530408859253 6.322208404541016 -0.9588636159896851 
v -0.4220561683177948 6.321032524108887 -0.9589954018592834 
v -0.41675078868865967 6.322261333465576 -0.9612361788749695 
v -0.41675078868865967 6.321032524108887 -0.9620599746704102 
v -0.4196836054325104 6.322208404541016 -0.9604452848434448 
v -0.41981539130210876 6.321032524108887 -0.9612361788749695 
v -0.42126530408859253 5.891851425170898 0.11450327187776566 
v -0.4220561683177948 5.891798496246338 0.11157047748565674 
v -0.4196836054325104 5.891217231750488 0.11450327187776566 
v -0.41981539130210876 5.890900135040283 0.11157047748565674 
v -0.4220561683177948 5.893027305603027 0.11463508009910583 
v -0.42287999391555786 5.893027305603027 0.11157047748565674 
v -0.42126530408859253 5.891851425170898 0.11450327187776566 
v -0.4220561683177948 5.891798496246338 0.11157047748565674 
v -0.4196836054325104 5.891851425170898 0.116084985435009 
v -0.41981539130210876 5.893027305603027 0.11687585711479187 
v -0.42126530408859253 5.891851425170898 0.11450327187776566 
v -0.4220561683177948 5.893027305603027 0.11463508009910583 
v -0.41675078868865967 5.891798496246338 0.11687585711479187 
v -0.41675078868865967 5.893027305603027 0.11769967526197433 
v -0.4196836054325104 5.891851425170898 0.116084985435009 
v -0.41981539130210876 5.893027305603027 0.11687585711479187 
v -0.4196836054325104 5.891217231750488 0.11450327187776566 
v -0.41675078868865967 5.890900135040283 0.11463508009910583 
v -0.4196836054325104 5.891851425170898 0.116084985435009 
v -0.41675078868865967 5.891798496246338 0.11687585711479187 
v 0.650750458240509 5.893027305603027 0.11769967526197433 
v 0.650750458240509 6.321032524108887 0.11769967526197433 
v -0.41675078868865967 5.893027305603027 0.11769967526197433 
v -0.41675078868865967 6.321032524108887 0.11769967526197433 
v -0.41981539130210876 5.893027305603027 -0.9612361788749695 
v -0.4196836054325104 5.891851425170898 -0.9604452848434448 
v -0.4220561683177948 5.893027305603027 -0.9589954018592834 
v -0.42126530408859253 5.891851425170898 -0.9588636159896851 
v -0.4220561683177948 5.893027305603027 -0.9589954018592834 
v -0.42126530408859253 5.891851425170898 -0.9588636159896851 
v -0.42287999391555786 5.893027305603027 -0.955930769443512 
v -0.4220561683177948 5.891798496246338 -0.955930769443512 
v -0.4220561683177948 5.891798496246338 -0.955930769443512 
v -0.42126530408859253 5.891851425170898 -0.9588636159896851 
v -0.41981539130210876 5.890900135040283 -0.955930769443512 
v -0.4196836054325104 5.891217231750488 -0.9588636159896851 
v -0.41981539130210876 5.890900135040283 -0.955930769443512 
v -0.4196836054325104 5.891217231750488 -0.9588636159896851 
v -0.41675078868865967 5.890570163726807 -0.955930769443512 
v -0.41675078868865967 5.890900135040283 -0.9589954018592834 
v -0.41675078868865967 5.890900135040283 -0.9589954018592834 
v -0.4196836054325104 5.891217231750488 -0.9588636159896851 
v -0.41675078868865967 5.891798496246338 -0.9612361788749695 
v -0.4196836054325104 5.891851425170898 -0.9604452848434448 
v -0.41675078868865967 5.891798496246338 -0.9612361788749695 
v -0.4196836054325104 5.891851425170898 -0.9604452848434448 
v -0.41675078868865967 5.893027305603027 -0.9620599746704102 
v -0.41981539130210876 5.893027305603027 -0.9612361788749695 
v -0.41675078868865967 6.323489665985107 0.11157047748565674 
v 0.650750458240509 6.323489665985107 0.11157047748565674 
v -0.41675078868865967 6.323489665985107 -0.955930769443512 
v 0.650750458240509 6.323489665985107 -0.955930769443512 
v -0.41981539130210876 5.890900135040283 0.11157047748565674 
v -0.41675078868865967 5.890570163726807 0.11157047748565674 
v -0.4196836054325104 5.891217231750488 0.11450327187776566 
v -0.41675078868865967 5.890900135040283 0.11463508009910583 
v 0.650750458240509 5.890900135040283 -0.9589954018592834 
v 0.650750458240509 5.890570163726807 -0.955930769443512 
v -0.41675078868865967 5.890900135040283 -0.9589954018592834 
v -0.41675078868865967 5.890570163726807 -0.955930769443512 
v 0.6568796634674072 6.321032524108887 0.11157047748565674 
v 0.6568796634674072 5.893027305603027 0.11157047748565674 
v 0.6568796634674072 6.321032524108887 -0.955930769443512 
v 0.6568796634674072 5.893027305603027 -0.955930769443512 
v 0.650750458240509 5.890570163726807 0.11157047748565674 
v -0.41675078868865967 5.890570163726807 0.11157047748565674 
v 0.650750458240509 5.890570163726807 -0.955930769443512 
v -0.41675078868865967 5.890570163726807 -0.955930769443512 
v -0.41675078868865967 5.891798496246338 0.11687585711479187 
v -0.41675078868865967 5.890900135040283 0.11463508009910583 
v 0.650750458240509 5.891798496246338 0.11687585711479187 
v 0.650750458240509 5.890900135040283 0.11463508009910583 
v -0.4196836054325104 5.891851425170898 -0.9604452848434448 
v -0.4196836054325104 5.891217231750488 -0.9588636159896851 
v -0.42126530408859253 5.891851425170898 -0.9588636159896851 
v -0.4196836054325104 5.891217231750488 0.11450327187776566 
v -0.4196836054325104 5.891851425170898 0.116084985435009 
v -0.42126530408859253 5.891851425170898 0.11450327187776566 
v -0.4196836054325104 6.322208404541016 -0.9604452848434448 
v -0.42126530408859253 6.322208404541016 -0.9588636159896851 
v -0.4196836054325104 6.322842597961426 -0.9588636159896851 
v -0.4196836054325104 6.322208404541016 0.116084985435009 
v -0.4196836054325104 6.322842597961426 0.11450327187776566 
v -0.42126530408859253 6.322208404541016 0.11450327187776566 
v 0.6536832451820374 5.891851425170898 -0.9604452848434448 
v 0.6552649736404419 5.891851425170898 -0.9588636159896851 
v 0.6536832451820374 5.891217231750488 -0.9588636159896851 
v 0.6536832451820374 5.891851425170898 0.116084985435009 
v 0.6536832451820374 5.891217231750488 0.11450327187776566 
v 0.6552649736404419 5.891851425170898 0.11450327187776566 
v 0.6536832451820374 6.322208404541016 -0.9604452848434448 
v 0.6536832451820374 6.322842597961426 -0.9588636159896851 
v 0.6552649736404419 6.322208404541016 -0.9588636159896851 
v 0.6536832451820374 6.322208404541016 0.116084985435009 
v 0.6552649736404419 6.322208404541016 0.11450327187776566 
v 0.6536832451820374 6.322842597961426 0.11450327187776566 
vn -1.8522590398788452 -9.5547723379108e-13 0.004046629182994366 
vn -1.8522590398788452 -9.5547723379108e-13 0.004046629182994366 
vn -1.8522590398788452 -9.5547723379108e-13 0.004046629182994366 
vn -1.8522590398788452 -9.5547723379108e-13 0.004046629182994366 
vn -1.7255117893218994 1.18773353099823 0.4761430025100708 
vn -1.7255117893218994 1.18773353099823 0.4761430025100708 
vn -1.7255117893218994 1.18773353099823 0.4761430025100708 
vn -1.7255117893218994 1.18773353099823 0.4761430025100708 
vn -3.8309088431880134e-13 0 -1.8522634506225586 
vn -3.8309088431880134e-13 0 -1.8522634506225586 
vn -3.8309088431880134e-13 0 -1.8522634506225586 
vn -3.8309088431880134e-13 0 -1.8522634506225586 
vn 0.0034928612876683474 -4.464536666870117 0.4761430025100708 
vn 0.0034928612876683474 -4.464536666870117 0.4761430025100708 
vn 0.0034928612876683474 -4.464536666870117 0.4761430025100708 
vn 0.0034928612876683474 -4.464536666870117 0.4761430025100708 
vn 0.003474922152236104 -1.1972832679748535 1.788974404335022 
vn 0.003474922152236104 -1.1972832679748535 1.788974404335022 
vn 0.003474922152236104 -1.1972832679748535 1.788974404335022 
vn 0.003474922152236104 -1.1972832679748535 1.788974404335022 
vn 0.003496759105473757 -3.270240545272827 -1.3083165884017944 
vn 0.003496759105473757 -3.270240545272827 -1.3083165884017944 
vn 0.003496759105473757 -3.270240545272827 -1.3083165884017944 
vn 0.003496759105473757 -3.270240545272827 -1.3083165884017944 
vn -0.003507246496155858 -1.1972827911376953 -1.788974404335022 
vn -0.003507246496155858 -1.1972827911376953 -1.788974404335022 
vn -0.003507246496155858 -1.1972827911376953 -1.788974404335022 
vn -0.003507246496155858 -1.1972827911376953 -1.788974404335022 
vn 1.7879323959350586 -1.2069164514541626 0.004046629182994366 
vn 1.7879323959350586 -1.2069164514541626 0.004046629182994366 
vn 1.7879323959350586 -1.2069164514541626 0.004046629182994366 
vn 1.7879323959350586 -1.2069164514541626 0.004046629182994366 
vn 1.309744954109192 -3.2666778564453125 0.004046629182994366 
vn 1.309744954109192 -3.2666778564453125 0.004046629182994366 
vn 1.309744954109192 -3.2666778564453125 0.004046629182994366 
vn 1.309744954109192 -3.2666778564453125 0.004046629182994366 
vn 0.4839022159576416 -4.459340572357178 0.004046629182994366 
vn 0.4839022159576416 -4.459340572357178 0.004046629182994366 
vn 0.4839022159576416 -4.459340572357178 0.004046629182994366 
vn 0.4839022159576416 -4.459340572357178 0.004046629182994366 
vn 1.790018916130066 0 0.4761430025100708 
vn 1.790018916130066 0 0.4761430025100708 
vn 1.790018916130066 0 0.4761430025100708 
vn 1.790018916130066 0 0.4761430025100708 
vn 1.3111779689788818 0 1.3083165884017944 
vn 1.3111779689788818 0 1.3083165884017944 
vn 1.3111779689788818 0 1.3083165884017944 
vn 1.3111779689788818 0 1.3083165884017944 
vn 0.48005250096321106 0 1.788974404335022 
vn 0.48005250096321106 0 1.788974404335022 
vn 0.48005250096321106 0 1.788974404335022 
vn 0.48005250096321106 0 1.788974404335022 
vn 1.790018916130066 0 -0.4761430025100708 
vn 1.790018916130066 0 -0.4761430025100708 
vn 1.790018916130066 0 -0.4761430025100708 
vn 1.790018916130066 0 -0.4761430025100708 
vn 1.3111779689788818 0 -1.3083165884017944 
vn 1.3111779689788818 0 -1.3083165884017944 
vn 1.3111779689788818 0 -1.3083165884017944 
vn 1.3111779689788818 0 -1.3083165884017944 
vn 0.48005250096321106 0 -1.788974404335022 
vn 0.48005250096321106 0 -1.788974404335022 
vn 0.48005250096321106 0 -1.788974404335022 
vn 0.48005250096321106 0 -1.788974404335022 
vn 0.4839022159576416 4.459340572357178 0.004046629182994366 
vn 0.4839022159576416 4.459340572357178 0.004046629182994366 
vn 0.4839022159576416 4.459340572357178 0.004046629182994366 
vn 0.4839022159576416 4.459340572357178 0.004046629182994366 
vn 1.309744954109192 3.2666778564453125 0.004046629182994366 
vn 1.309744954109192 3.2666778564453125 0.004046629182994366 
vn 1.309744954109192 3.2666778564453125 0.004046629182994366 
vn 1.309744954109192 3.2666778564453125 0.004046629182994366 
vn 1.7879323959350586 1.2069164514541626 0.004046629182994366 
vn 1.7879323959350586 1.2069164514541626 0.004046629182994366 
vn 1.7879323959350586 1.2069164514541626 0.004046629182994366 
vn 1.7879323959350586 1.2069164514541626 0.004046629182994366 
vn 0.0034928612876683474 4.464536666870117 0.4761430025100708 
vn 0.0034928612876683474 4.464536666870117 0.4761430025100708 
vn 0.0034928612876683474 4.464536666870117 0.4761430025100708 
vn 0.0034928612876683474 4.464536666870117 0.4761430025100708 
vn 0.006981640122830868 3.2702057361602783 1.3083165884017944 
vn 0.006981640122830868 3.2702057361602783 1.3083165884017944 
vn 0.006981640122830868 3.2702057361602783 1.3083165884017944 
vn 0.006981640122830868 3.2702057361602783 1.3083165884017944 
vn 0.003474922152236104 1.1972832679748535 1.788974404335022 
vn 0.003474922152236104 1.1972832679748535 1.788974404335022 
vn 0.003474922152236104 1.1972832679748535 1.788974404335022 
vn 0.003474922152236104 1.1972832679748535 1.788974404335022 
vn -1.8510864228157148e-13 4.464545249938965 -0.4761430025100708 
vn -1.8510864228157148e-13 4.464545249938965 -0.4761430025100708 
vn -1.8510864228157148e-13 4.464545249938965 -0.4761430025100708 
vn -1.8510864228157148e-13 4.464545249938965 -0.4761430025100708 
vn 0.003496759105473757 3.270240545272827 -1.3083165884017944 
vn 0.003496759105473757 3.270240545272827 -1.3083165884017944 
vn 0.003496759105473757 3.270240545272827 -1.3083165884017944 
vn 0.003496759105473757 3.270240545272827 -1.3083165884017944 
vn -0.003507246496155858 1.1972827911376953 -1.788974404335022 
vn -0.003507246496155858 1.1972827911376953 -1.788974404335022 
vn -0.003507246496155858 1.1972827911376953 -1.788974404335022 
vn -0.003507246496155858 1.1972827911376953 -1.788974404335022 
vn -1.7879323959350586 1.2069164514541626 0.004046629182994366 
vn -1.7879323959350586 1.2069164514541626 0.004046629182994366 
vn -1.7879323959350586 1.2069164514541626 0.004046629182994366 
vn -1.7879323959350586 1.2069164514541626 0.004046629182994366 
vn -1.309744954109192 3.2666778564453125 0.004046629182994366 
vn -1.309744954109192 3.2666778564453125 0.004046629182994366 
vn -1.309744954109192 3.2666778564453125 0.004046629182994366 
vn -1.309744954109192 3.2666778564453125 0.004046629182994366 
vn -0.4839022159576416 4.459340572357178 0.004046629182994366 
vn -0.4839022159576416 4.459340572357178 0.004046629182994366 
vn -0.4839022159576416 4.459340572357178 0.004046629182994366 
vn -0.4839022159576416 4.459340572357178 0.004046629182994366 
vn -1.7900053262710571 0.01742328703403473 0.4761430025100708 
vn -1.7900053262710571 0.01742328703403473 0.4761430025100708 
vn -1.7900053262710571 0.01742328703403473 0.4761430025100708 
vn -1.7900053262710571 0.01742328703403473 0.4761430025100708 
vn -1.3111779689788818 -6.763636959533637e-13 1.3083165884017944 
vn -1.3111779689788818 -6.763636959533637e-13 1.3083165884017944 
vn -1.3111779689788818 -6.763636959533637e-13 1.3083165884017944 
vn -1.3111779689788818 -6.763636959533637e-13 1.3083165884017944 
vn -0.48000219464302063 0.01733338087797165 1.788974404335022 
vn -0.48000219464302063 0.01733338087797165 1.788974404335022 
vn -0.48000219464302063 0.01733338087797165 1.788974404335022 
vn -0.48000219464302063 0.01733338087797165 1.788974404335022 
vn -1.7879323959350586 -1.2069164514541626 0.004046629182994366 
vn -1.7879323959350586 -1.2069164514541626 0.004046629182994366 
vn -1.7879323959350586 -1.2069164514541626 0.004046629182994366 
vn -1.7879323959350586 -1.2069164514541626 0.004046629182994366 
vn -1.309744954109192 -3.2666778564453125 0.004046629182994366 
vn -1.309744954109192 -3.2666778564453125 0.004046629182994366 
vn -1.309744954109192 -3.2666778564453125 0.004046629182994366 
vn -1.309744954109192 -3.2666778564453125 0.004046629182994366 
vn -0.4839022159576416 -4.459340572357178 0.004046629182994366 
vn -0.4839022159576416 -4.459340572357178 0.004046629182994366 
vn -0.4839022159576416 -4.459340572357178 0.004046629182994366 
vn -0.4839022159576416 -4.459340572357178 0.004046629182994366 
vn -1.790018916130066 -9.233710801179185e-13 -0.4761430025100708 
vn -1.790018916130066 -9.233710801179185e-13 -0.4761430025100708 
vn -1.790018916130066 -9.233710801179185e-13 -0.4761430025100708 
vn -1.790018916130066 -9.233710801179185e-13 -0.4761430025100708 
vn -1.311159372329712 0.017442701384425163 -1.3083165884017944 
vn -1.311159372329712 0.017442701384425163 -1.3083165884017944 
vn -1.311159372329712 0.017442701384425163 -1.3083165884017944 
vn -1.311159372329712 0.017442701384425163 -1.3083165884017944 
vn -0.4800012707710266 0.01749460957944393 -1.788974404335022 
vn -0.4800012707710266 0.01749460957944393 -1.788974404335022 
vn -0.4800012707710266 0.01749460957944393 -1.788974404335022 
vn -0.4800012707710266 0.01749460957944393 -1.788974404335022 
vn 0.4085983633995056 3.1815221309661865 1.279361367225647 
vn 0.4085983633995056 3.1815221309661865 1.279361367225647 
vn 0.4085983633995056 3.1815221309661865 1.279361367225647 
vn 0.4085983633995056 3.1815221309661865 1.279361367225647 
vn 0.47284308075904846 4.305964946746826 0.4761430025100708 
vn 0.47284308075904846 4.305964946746826 0.4761430025100708 
vn 0.47284308075904846 4.305964946746826 0.4761430025100708 
vn 0.47284308075904846 4.305964946746826 0.4761430025100708 
vn 1.282927393913269 3.1751270294189453 0.4054013788700104 
vn 1.282927393913269 3.1751270294189453 0.4054013788700104 
vn 1.282927393913269 3.1751270294189453 0.4054013788700104 
vn 1.282927393913269 3.1751270294189453 0.4054013788700104 
vn 1.7273571491241455 1.1709290742874146 0.4761430025100708 
vn 1.7273571491241455 1.1709290742874146 0.4761430025100708 
vn 1.7273571491241455 1.1709290742874146 0.4761430025100708 
vn 1.7273571491241455 1.1709290742874146 0.4761430025100708 
vn 1.2787566184997559 0.9942044019699097 1.279361367225647 
vn 1.2787566184997559 0.9942044019699097 1.279361367225647 
vn 1.2787566184997559 0.9942044019699097 1.279361367225647 
vn 1.2787566184997559 0.9942044019699097 1.279361367225647 
vn 0.47409844398498535 1.188610553741455 1.7259776592254639 
vn 0.47409844398498535 1.188610553741455 1.7259776592254639 
vn 0.47409844398498535 1.188610553741455 1.7259776592254639 
vn 0.47409844398498535 1.188610553741455 1.7259776592254639 
vn 1.2783552408218384 0.9974110722541809 -1.279361367225647 
vn 1.2783552408218384 0.9974110722541809 -1.279361367225647 
vn 1.2783552408218384 0.9974110722541809 -1.279361367225647 
vn 1.2783552408218384 0.9974110722541809 -1.279361367225647 
vn 1.72720205783844 1.1723510026931763 -0.4761430025100708 
vn 1.72720205783844 1.1723510026931763 -0.4761430025100708 
vn 1.72720205783844 1.1723510026931763 -0.4761430025100708 
vn 1.72720205783844 1.1723510026931763 -0.4761430025100708 
vn 1.282927393913269 3.1751270294189453 -0.4054013788700104 
vn 1.282927393913269 3.1751270294189453 -0.4054013788700104 
vn 1.282927393913269 3.1751270294189453 -0.4054013788700104 
vn 1.282927393913269 3.1751270294189453 -0.4054013788700104 
vn 0.4700435400009155 4.307871341705322 -0.4761430025100708 
vn 0.4700435400009155 4.307871341705322 -0.4761430025100708 
vn 0.4700435400009155 4.307871341705322 -0.4761430025100708 
vn 0.4700435400009155 4.307871341705322 -0.4761430025100708 
vn 0.40324273705482483 3.185770034790039 -1.279361367225647 
vn 0.40324273705482483 3.185770034790039 -1.279361367225647 
vn 0.40324273705482483 3.185770034790039 -1.279361367225647 
vn 0.40324273705482483 3.185770034790039 -1.279361367225647 
vn 0.4728533625602722 1.1916918754577637 -1.7259776592254639 
vn 0.4728533625602722 1.1916918754577637 -1.7259776592254639 
vn 0.4728533625602722 1.1916918754577637 -1.7259776592254639 
vn 0.4728533625602722 1.1916918754577637 -1.7259776592254639 
vn 1.2787566184997559 -0.9942044019699097 1.279361367225647 
vn 1.2787566184997559 -0.9942044019699097 1.279361367225647 
vn 1.2787566184997559 -0.9942044019699097 1.279361367225647 
vn 1.2787566184997559 -0.9942044019699097 1.279361367225647 
vn 1.7273571491241455 -1.1709290742874146 0.4761430025100708 
vn 1.7273571491241455 -1.1709290742874146 0.4761430025100708 
vn 1.7273571491241455 -1.1709290742874146 0.4761430025100708 
vn 1.7273571491241455 -1.1709290742874146 0.4761430025100708 
vn 1.282927393913269 -3.1751270294189453 0.4054013788700104 
vn 1.282927393913269 -3.1751270294189453 0.4054013788700104 
vn 1.282927393913269 -3.1751270294189453 0.4054013788700104 
vn 1.282927393913269 -3.1751270294189453 0.4054013788700104 
vn 0.47284308075904846 -4.305964946746826 0.4761430025100708 
vn 0.47284308075904846 -4.305964946746826 0.4761430025100708 
vn 0.47284308075904846 -4.305964946746826 0.4761430025100708 
vn 0.47284308075904846 -4.305964946746826 0.4761430025100708 
vn 0.4085983633995056 -3.1815221309661865 1.279361367225647 
vn 0.4085983633995056 -3.1815221309661865 1.279361367225647 
vn 0.4085983633995056 -3.1815221309661865 1.279361367225647 
vn 0.4085983633995056 -3.1815221309661865 1.279361367225647 
vn 0.47409844398498535 -1.188610553741455 1.7259776592254639 
vn 0.47409844398498535 -1.188610553741455 1.7259776592254639 
vn 0.47409844398498535 -1.188610553741455 1.7259776592254639 
vn 0.47409844398498535 -1.188610553741455 1.7259776592254639 
vn 0.40324273705482483 -3.185770034790039 -1.279361367225647 
vn 0.40324273705482483 -3.185770034790039 -1.279361367225647 
vn 0.40324273705482483 -3.185770034790039 -1.279361367225647 
vn 0.40324273705482483 -3.185770034790039 -1.279361367225647 
vn 0.4700435400009155 -4.307871341705322 -0.4761430025100708 
vn 0.4700435400009155 -4.307871341705322 -0.4761430025100708 
vn 0.4700435400009155 -4.307871341705322 -0.4761430025100708 
vn 0.4700435400009155 -4.307871341705322 -0.4761430025100708 
vn 1.282927393913269 -3.1751270294189453 -0.4054013788700104 
vn 1.282927393913269 -3.1751270294189453 -0.4054013788700104 
vn 1.282927393913269 -3.1751270294189453 -0.4054013788700104 
vn 1.282927393913269 -3.1751270294189453 -0.4054013788700104 
vn 1.72720205783844 -1.1723510026931763 -0.4761430025100708 
vn 1.72720205783844 -1.1723510026931763 -0.4761430025100708 
vn 1.72720205783844 -1.1723510026931763 -0.4761430025100708 
vn 1.72720205783844 -1.1723510026931763 -0.4761430025100708 
vn 1.2783552408218384 -0.9974110722541809 -1.279361367225647 
vn 1.2783552408218384 -0.9974110722541809 -1.279361367225647 
vn 1.2783552408218384 -0.9974110722541809 -1.279361367225647 
vn 1.2783552408218384 -0.9974110722541809 -1.279361367225647 
vn 0.4728533625602722 -1.1916918754577637 -1.7259776592254639 
vn 0.4728533625602722 -1.1916918754577637 -1.7259776592254639 
vn 0.4728533625602722 -1.1916918754577637 -1.7259776592254639 
vn 0.4728533625602722 -1.1916918754577637 -1.7259776592254639 
vn -1.2766625881195068 1.0108073949813843 1.279361367225647 
vn -1.2766625881195068 1.0108073949813843 1.279361367225647 
vn -1.2766625881195068 1.0108073949813843 1.279361367225647 
vn -1.2766625881195068 1.0108073949813843 1.279361367225647 
vn -1.273038387298584 3.199791431427002 0.4054013788700104 
vn -1.273038387298584 3.199791431427002 0.4054013788700104 
vn -1.273038387298584 3.199791431427002 0.4054013788700104 
vn -1.273038387298584 3.199791431427002 0.4054013788700104 
vn -0.47957709431648254 4.301329612731934 0.4761430025100708 
vn -0.47957709431648254 4.301329612731934 0.4761430025100708 
vn -0.47957709431648254 4.301329612731934 0.4761430025100708 
vn -0.47957709431648254 4.301329612731934 0.4761430025100708 
vn -0.4019470512866974 3.186788320541382 1.279361367225647 
vn -0.4019470512866974 3.186788320541382 1.279361367225647 
vn -0.4019470512866974 3.186788320541382 1.279361367225647 
vn -0.4019470512866974 3.186788320541382 1.279361367225647 
vn -0.47901397943496704 1.1762868165969849 1.7259776592254639 
vn -0.47901397943496704 1.1762868165969849 1.7259776592254639 
vn -0.47901397943496704 1.1762868165969849 1.7259776592254639 
vn -0.47901397943496704 1.1762868165969849 1.7259776592254639 
vn -0.3965604305267334 3.190983533859253 -1.279361367225647 
vn -0.3965604305267334 3.190983533859253 -1.279361367225647 
vn -0.3965604305267334 3.190983533859253 -1.279361367225647 
vn -0.3965604305267334 3.190983533859253 -1.279361367225647 
vn -0.4700435400009155 4.307871341705322 -0.4761430025100708 
vn -0.4700435400009155 4.307871341705322 -0.4761430025100708 
vn -0.4700435400009155 4.307871341705322 -0.4761430025100708 
vn -0.4700435400009155 4.307871341705322 -0.4761430025100708 
vn -1.273038387298584 3.199791431427002 -0.4054013788700104 
vn -1.273038387298584 3.199791431427002 -0.4054013788700104 
vn -1.273038387298584 3.199791431427002 -0.4054013788700104 
vn -1.273038387298584 3.199791431427002 -0.4054013788700104 
vn -1.72720205783844 1.1723510026931763 -0.4761430025100708 
vn -1.72720205783844 1.1723510026931763 -0.4761430025100708 
vn -1.72720205783844 1.1723510026931763 -0.4761430025100708 
vn -1.72720205783844 1.1723510026931763 -0.4761430025100708 
vn -1.276247262954712 1.0140639543533325 -1.279361367225647 
vn -1.276247262954712 1.0140639543533325 -1.279361367225647 
vn -1.276247262954712 1.0140639543533325 -1.279361367225647 
vn -1.276247262954712 1.0140639543533325 -1.279361367225647 
vn -0.4728533625602722 1.1916918754577637 -1.7259776592254639 
vn -0.4728533625602722 1.1916918754577637 -1.7259776592254639 
vn -0.4728533625602722 1.1916918754577637 -1.7259776592254639 
vn -0.4728533625602722 1.1916918754577637 -1.7259776592254639 
vn -1.273038387298584 -3.199791431427002 0.4054013788700104 
vn -1.273038387298584 -3.199791431427002 0.4054013788700104 
vn -1.273038387298584 -3.199791431427002 0.4054013788700104 
vn -1.273038387298584 -3.199791431427002 0.4054013788700104 
vn -1.7255117893218994 -1.18773353099823 0.4761430025100708 
vn -1.7255117893218994 -1.18773353099823 0.4761430025100708 
vn -1.7255117893218994 -1.18773353099823 0.4761430025100708 
vn -1.7255117893218994 -1.18773353099823 0.4761430025100708 
vn -1.2766625881195068 -1.0108073949813843 1.279361367225647 
vn -1.2766625881195068 -1.0108073949813843 1.279361367225647 
vn -1.2766625881195068 -1.0108073949813843 1.279361367225647 
vn -1.2766625881195068 -1.0108073949813843 1.279361367225647 
vn -0.47901397943496704 -1.1762868165969849 1.7259776592254639 
vn -0.47901397943496704 -1.1762868165969849 1.7259776592254639 
vn -0.47901397943496704 -1.1762868165969849 1.7259776592254639 
vn -0.47901397943496704 -1.1762868165969849 1.7259776592254639 
vn -0.4019470512866974 -3.186788320541382 1.279361367225647 
vn -0.4019470512866974 -3.186788320541382 1.279361367225647 
vn -0.4019470512866974 -3.186788320541382 1.279361367225647 
vn -0.4019470512866974 -3.186788320541382 1.279361367225647 
vn 0 0 1.8522634506225586 
vn 0 0 1.8522634506225586 
vn 0 0 1.8522634506225586 
vn 0 0 1.8522634506225586 
vn -1.276247262954712 -1.0140639543533325 -1.279361367225647 
vn -1.276247262954712 -1.0140639543533325 -1.279361367225647 
vn -1.276247262954712 -1.0140639543533325 -1.279361367225647 
vn -1.276247262954712 -1.0140639543533325 -1.279361367225647 
vn -1.72720205783844 -1.1723510026931763 -0.4761430025100708 
vn -1.72720205783844 -1.1723510026931763 -0.4761430025100708 
vn -1.72720205783844 -1.1723510026931763 -0.4761430025100708 
vn -1.72720205783844 -1.1723510026931763 -0.4761430025100708 
vn -1.273038387298584 -3.199791431427002 -0.4054013788700104 
vn -1.273038387298584 -3.199791431427002 -0.4054013788700104 
vn -1.273038387298584 -3.199791431427002 -0.4054013788700104 
vn -1.273038387298584 -3.199791431427002 -0.4054013788700104 
vn -0.4700435400009155 -4.307871341705322 -0.4761430025100708 
vn -0.4700435400009155 -4.307871341705322 -0.4761430025100708 
vn -0.4700435400009155 -4.307871341705322 -0.4761430025100708 
vn -0.4700435400009155 -4.307871341705322 -0.4761430025100708 
vn -0.3965604305267334 -3.190983533859253 -1.279361367225647 
vn -0.3965604305267334 -3.190983533859253 -1.279361367225647 
vn -0.3965604305267334 -3.190983533859253 -1.279361367225647 
vn -0.3965604305267334 -3.190983533859253 -1.279361367225647 
vn -0.4728533625602722 -1.1916918754577637 -1.7259776592254639 
vn -0.4728533625602722 -1.1916918754577637 -1.7259776592254639 
vn -0.4728533625602722 -1.1916918754577637 -1.7259776592254639 
vn -0.4728533625602722 -1.1916918754577637 -1.7259776592254639 
vn -1.9154498137347736e-13 4.61978006362915 0.004046629182994366 
vn -1.9154498137347736e-13 4.61978006362915 0.004046629182994366 
vn -1.9154498137347736e-13 4.61978006362915 0.004046629182994366 
vn -1.9154498137347736e-13 4.61978006362915 0.004046629182994366 
vn -0.47957709431648254 -4.301329612731934 0.4761430025100708 
vn -0.47957709431648254 -4.301329612731934 0.4761430025100708 
vn -0.47957709431648254 -4.301329612731934 0.4761430025100708 
vn -0.47957709431648254 -4.301329612731934 0.4761430025100708 
vn 5.561208503250537e-13 -4.464545249938965 -0.4761430025100708 
vn 5.561208503250537e-13 -4.464545249938965 -0.4761430025100708 
vn 5.561208503250537e-13 -4.464545249938965 -0.4761430025100708 
vn 5.561208503250537e-13 -4.464545249938965 -0.4761430025100708 
vn 1.8522590398788452 0 0.004046629182994366 
vn 1.8522590398788452 0 0.004046629182994366 
vn 1.8522590398788452 0 0.004046629182994366 
vn 1.8522590398788452 0 0.004046629182994366 
vn 5.738124276948031e-13 -4.61978006362915 0.004046629182994366 
vn 5.738124276948031e-13 -4.61978006362915 0.004046629182994366 
vn 5.738124276948031e-13 -4.61978006362915 0.004046629182994366 
vn 5.738124276948031e-13 -4.61978006362915 0.004046629182994366 
vn 0.006981640122830868 -3.2702057361602783 1.3083165884017944 
vn 0.006981640122830868 -3.2702057361602783 1.3083165884017944 
vn 0.006981640122830868 -3.2702057361602783 1.3083165884017944 
vn 0.006981640122830868 -3.2702057361602783 1.3083165884017944 
vn -1.0705983638763428 -2.6702146530151367 -1.0670136213302612 
vn -1.0705983638763428 -2.6702146530151367 -1.0670136213302612 
vn -1.0705983638763428 -2.6702146530151367 -1.0670136213302612 
vn -1.0668878555297852 -2.6794371604919434 1.0670136213302612 
vn -1.0668878555297852 -2.6794371604919434 1.0670136213302612 
vn -1.0668878555297852 -2.6794371604919434 1.0670136213302612 
vn -1.0705983638763428 2.6702146530151367 -1.0670136213302612 
vn -1.0705983638763428 2.6702146530151367 -1.0670136213302612 
vn -1.0705983638763428 2.6702146530151367 -1.0670136213302612 
vn -1.0668878555297852 2.6794371604919434 1.0670136213302612 
vn -1.0668878555297852 2.6794371604919434 1.0670136213302612 
vn -1.0668878555297852 2.6794371604919434 1.0670136213302612 
vn 1.0705983638763428 -2.6702146530151367 -1.0670136213302612 
vn 1.0705983638763428 -2.6702146530151367 -1.0670136213302612 
vn 1.0705983638763428 -2.6702146530151367 -1.0670136213302612 
vn 1.071832299232483 -2.667133331298828 1.0670136213302612 
vn 1.071832299232483 -2.667133331298828 1.0670136213302612 
vn 1.071832299232483 -2.667133331298828 1.0670136213302612 
vn 1.0705983638763428 2.6702146530151367 -1.0670136213302612 
vn 1.0705983638763428 2.6702146530151367 -1.0670136213302612 
vn 1.0705983638763428 2.6702146530151367 -1.0670136213302612 
vn 1.071832299232483 2.667133331298828 1.0670136213302612 
vn 1.071832299232483 2.667133331298828 1.0670136213302612 
vn 1.071832299232483 2.667133331298828 1.0670136213302612 
s on 
f 1//1 2//2 3//3 
f 2//2 4//4 3//3 
f 3//3 4//4 4//4 
f 4//4 5//5 4//4 
f 4//4 5//5 5//5 
f 5//5 6//6 5//5 
f 5//5 6//6 7//7 
f 6//6 8//8 7//7 
f 7//7 8//8 8//8 
f 8//8 9//9 8//8 
f 8//8 9//9 9//9 
f 9//9 10//10 9//9 
f 9//9 10//10 11//11 
f 10//10 12//12 11//11 
f 11//11 12//12 12//12 
f 12//12 13//13 12//12 
f 12//12 13//13 13//13 
f 13//13 14//14 13//13 
f 13//13 14//14 15//15 
f 14//14 16//16 15//15 
f 15//15 16//16 16//16 
f 16//16 17//17 16//16 
f 16//16 17//17 17//17 
f 17//17 18//18 17//17 
f 17//17 18//18 19//19 
f 18//18 20//20 19//19 
f 19//19 20//20 20//20 
f 20//20 21//21 20//20 
f 20//20 21//21 21//21 
f 21//21 22//22 21//21 
f 21//21 22//22 23//23 
f 22//22 24//24 23//23 
f 23//23 24//24 24//24 
f 24//24 25//25 24//24 
f 24//24 25//25 25//25 
f 25//25 26//26 25//25 
f 25//25 26//26 27//27 
f 26//26 28//28 27//27 
f 27//27 28//28 28//28 
f 28//28 29//29 28//28 
f 28//28 29//29 29//29 
f 29//29 30//30 29//29 
f 29//29 30//30 31//31 
f 30//30 32//32 31//31 
f 31//31 32//32 32//32 
f 32//32 33//33 32//32 
f 32//32 33//33 33//33 
f 33//33 34//34 33//33 
f 33//33 34//34 35//35 
f 34//34 36//36 35//35 
f 35//35 36//36 36//36 
f 36//36 37//37 36//36 
f 36//36 37//37 37//37 
f 37//37 38//38 37//37 
f 37//37 38//38 39//39 
f 38//38 40//40 39//39 
f 39//39 40//40 40//40 
f 40//40 41//41 40//40 
f 40//40 41//41 41//41 
f 41//41 42//42 41//41 
f 41//41 42//42 43//43 
f 42//42 44//44 43//43 
f 43//43 44//44 44//44 
f 44//44 45//45 44//44 
f 44//44 45//45 45//45 
f 45//45 46//46 45//45 
f 45//45 46//46 47//47 
f 46//46 48//48 47//47 
f 47//47 48//48 48//48 
f 48//48 49//49 48//48 
f 48//48 49//49 49//49 
f 49//49 50//50 49//49 
f 49//49 50//50 51//51 
f 50//50 52//52 51//51 
f 51//51 52//52 52//52 
f 52//52 53//53 52//52 
f 52//52 53//53 53//53 
f 53//53 54//54 53//53 
f 53//53 54//54 55//55 
f 54//54 56//56 55//55 
f 55//55 56//56 56//56 
f 56//56 57//57 56//56 
f 56//56 57//57 57//57 
f 57//57 58//58 57//57 
f 57//57 58//58 59//59 
f 58//58 60//60 59//59 
f 59//59 60//60 60//60 
f 60//60 61//61 60//60 
f 60//60 61//61 61//61 
f 61//61 62//62 61//61 
f 61//61 62//62 63//63 
f 62//62 64//64 63//63 
f 63//63 64//64 64//64 
f 64//64 65//65 64//64 
f 64//64 65//65 65//65 
f 65//65 66//66 65//65 
f 65//65 66//66 67//67 
f 66//66 68//68 67//67 
f 67//67 68//68 68//68 
f 68//68 69//69 68//68 
f 68//68 69//69 69//69 
f 69//69 70//70 69//69 
f 69//69 70//70 71//71 
f 70//70 72//72 71//71 
f 71//71 72//72 72//72 
f 72//72 73//73 72//72 
f 72//72 73//73 73//73 
f 73//73 74//74 73//73 
f 73//73 74//74 75//75 
f 74//74 76//76 75//75 
f 75//75 76//76 76//76 
f 76//76 77//77 76//76 
f 76//76 77//77 77//77 
f 77//77 78//78 77//77 
f 77//77 78//78 79//79 
f 78//78 80//80 79//79 
f 79//79 80//80 80//80 
f 80//80 81//81 80//80 
f 80//80 81//81 81//81 
f 81//81 82//82 81//81 
f 81//81 82//82 83//83 
f 82//82 84//84 83//83 
f 83//83 84//84 84//84 
f 84//84 85//85 84//84 
f 84//84 85//85 85//85 
f 85//85 86//86 85//85 
f 85//85 86//86 87//87 
f 86//86 88//88 87//87 
f 87//87 88//88 88//88 
f 88//88 89//89 88//88 
f 88//88 89//89 89//89 
f 89//89 90//90 89//89 
f 89//89 90//90 91//91 
f 90//90 92//92 91//91 
f 91//91 92//92 92//92 
f 92//92 93//93 92//92 
f 92//92 93//93 93//93 
f 93//93 94//94 93//93 
f 93//93 94//94 95//95 
f 94//94 96//96 95//95 
f 95//95 96//96 96//96 
f 96//96 97//97 96//96 
f 96//96 97//97 97//97 
f 97//97 98//98 97//97 
f 97//97 98//98 99//99 
f 98//98 100//100 99//99 
f 99//99 100//100 100//100 
f 100//100 101//101 100//100 
f 100//100 101//101 101//101 
f 101//101 102//102 101//101 
f 101//101 102//102 103//103 
f 102//102 104//104 103//103 
f 103//103 104//104 104//104 
f 104//104 105//105 104//104 
f 104//104 105//105 105//105 
f 105//105 106//106 105//105 
f 105//105 106//106 107//107 
f 106//106 108//108 107//107 
f 107//107 108//108 108//108 
f 108//108 109//109 108//108 
f 108//108 109//109 109//109 
f 109//109 110//110 109//109 
f 109//109 110//110 111//111 
f 110//110 112//112 111//111 
f 111//111 112//112 112//112 
f 112//112 113//113 112//112 
f 112//112 113//113 113//113 
f 113//113 114//114 113//113 
f 113//113 114//114 115//115 
f 114//114 116//116 115//115 
f 115//115 116//116 116//116 
f 116//116 117//117 116//116 
f 116//116 117//117 117//117 
f 117//117 118//118 117//117 
f 117//117 118//118 119//119 
f 118//118 120//120 119//119 
f 119//119 120//120 120//120 
f 120//120 121//121 120//120 
f 120//120 121//121 121//121 
f 121//121 122//122 121//121 
f 121//121 122//122 123//123 
f 122//122 124//124 123//123 
f 123//123 124//124 124//124 
f 124//124 125//125 124//124 
f 124//124 125//125 125//125 
f 125//125 126//126 125//125 
f 125//125 126//126 127//127 
f 126//126 128//128 127//127 
f 127//127 128//128 128//128 
f 128//128 129//129 128//128 
f 128//128 129//129 129//129 
f 129//129 130//130 129//129 
f 129//129 130//130 131//131 
f 130//130 132//132 131//131 
f 131//131 132//132 132//132 
f 132//132 133//133 132//132 
f 132//132 133//133 133//133 
f 133//133 134//134 133//133 
f 133//133 134//134 135//135 
f 134//134 136//136 135//135 
f 135//135 136//136 136//136 
f 136//136 137//137 136//136 
f 136//136 137//137 137//137 
f 137//137 138//138 137//137 
f 137//137 138//138 139//139 
f 138//138 140//140 139//139 
f 139//139 140//140 140//140 
f 140//140 141//141 140//140 
f 140//140 141//141 141//141 
f 141//141 142//142 141//141 
f 141//141 142//142 143//143 
f 142//142 144//144 143//143 
f 143//143 144//144 144//144 
f 144//144 145//145 144//144 
f 144//144 145//145 145//145 
f 145//145 146//146 145//145 
f 145//145 146//146 147//147 
f 146//146 148//148 147//147 
f 147//147 148//148 148//148 
f 148//148 149//149 148//148 
f 148//148 149//149 149//149 
f 149//149 150//150 149//149 
f 149//149 150//150 151//151 
f 150//150 152//152 151//151 
f 151//151 152//152 152//152 
f 152//152 153//153 152//152 
f 152//152 153//153 153//153 
f 153//153 154//154 153//153 
f 153//153 154//154 155//155 
f 154//154 156//156 155//155 
f 155//155 156//156 156//156 
f 156//156 157//157 156//156 
f 156//156 157//157 157//157 
f 157//157 158//158 157//157 
f 157//157 158//158 159//159 
f 158//158 160//160 159//159 
f 159//159 160//160 160//160 
f 160//160 161//161 160//160 
f 160//160 161//161 161//161 
f 161//161 162//162 161//161 
f 161//161 162//162 163//163 
f 162//162 164//164 163//163 
f 163//163 164//164 164//164 
f 164//164 165//165 164//164 
f 164//164 165//165 165//165 
f 165//165 166//166 165//165 
f 165//165 166//166 167//167 
f 166//166 168//168 167//167 
f 167//167 168//168 168//168 
f 168//168 169//169 168//168 
f 168//168 169//169 169//169 
f 169//169 170//170 169//169 
f 169//169 170//170 171//171 
f 170//170 172//172 171//171 
f 171//171 172//172 172//172 
f 172//172 173//173 172//172 
f 172//172 173//173 173//173 
f 173//173 174//174 173//173 
f 173//173 174//174 175//175 
f 174//174 176//176 175//175 
f 175//175 176//176 176//176 
f 176//176 177//177 176//176 
f 176//176 177//177 177//177 
f 177//177 178//178 177//177 
f 177//177 178//178 179//179 
f 178//178 180//180 179//179 
f 179//179 180//180 180//180 
f 180//180 181//181 180//180 
f 180//180 181//181 181//181 
f 181//181 182//182 181//181 
f 181//181 182//182 183//183 
f 182//182 184//184 183//183 
f 183//183 184//184 184//184 
f 184//184 185//185 184//184 
f 184//184 185//185 185//185 
f 185//185 186//186 185//185 
f 185//185 186//186 187//187 
f 186//186 188//188 187//187 
f 187//187 188//188 188//188 
f 188//188 189//189 188//188 
f 188//188 189//189 189//189 
f 189//189 190//190 189//189 
f 189//189 190//190 191//191 
f 190//190 192//192 191//191 
f 191//191 192//192 192//192 
f 192//192 193//193 192//192 
f 192//192 193//193 193//193 
f 193//193 194//194 193//193 
f 193//193 194//194 195//195 
f 194//194 196//196 195//195 
f 195//195 196//196 196//196 
f 196//196 197//197 196//196 
f 196//196 197//197 197//197 
f 197//197 198//198 197//197 
f 197//197 198//198 199//199 
f 198//198 200//200 199//199 
f 199//199 200//200 200//200 
f 200//200 201//201 200//200 
f 200//200 201//201 201//201 
f 201//201 202//202 201//201 
f 201//201 202//202 203//203 
f 202//202 204//204 203//203 
f 203//203 204//204 204//204 
f 204//204 205//205 204//204 
f 204//204 205//205 205//205 
f 205//205 206//206 205//205 
f 205//205 206//206 207//207 
f 206//206 208//208 207//207 
f 207//207 208//208 208//208 
f 208//208 209//209 208//208 
f 208//208 209//209 209//209 
f 209//209 210//210 209//209 
f 209//209 210//210 211//211 
f 210//210 212//212 211//211 
f 211//211 212//212 212//212 
f 212//212 213//213 212//212 
f 212//212 213//213 213//213 
f 213//213 214//214 213//213 
f 213//213 214//214 215//215 
f 214//214 216//216 215//215 
f 215//215 216//216 216//216 
f 216//216 217//217 216//216 
f 216//216 217//217 217//217 
f 217//217 218//218 217//217 
f 217//217 218//218 219//219 
f 218//218 220//220 219//219 
f 219//219 220//220 220//220 
f 220//220 221//221 220//220 
f 220//220 221//221 221//221 
f 221//221 222//222 221//221 
f 221//221 222//222 223//223 
f 222//222 224//224 223//223 
f 223//223 224//224 224//224 
f 224//224 225//225 224//224 
f 224//224 225//225 225//225 
f 225//225 226//226 225//225 
f 225//225 226//226 227//227 
f 226//226 228//228 227//227 
f 227//227 228//228 228//228 
f 228//228 229//229 228//228 
f 228//228 229//229 229//229 
f 229//229 230//230 229//229 
f 229//229 230//230 231//231 
f 230//230 232//232 231//231 
f 231//231 232//232 232//232 
f 232//232 233//233 232//232 
f 232//232 233//233 233//233 
f 233//233 234//234 233//233 
f 233//233 234//234 235//235 
f 234//234 236//236 235//235 
f 235//235 236//236 236//236 
f 236//236 237//237 236//236 
f 236//236 237//237 237//237 
f 237//237 238//238 237//237 
f 237//237 238//238 239//239 
f 238//238 240//240 239//239 
f 239//239 240//240 240//240 
f 240//240 241//241 240//240 
f 240//240 241//241 241//241 
f 241//241 242//242 241//241 
f 241//241 242//242 243//243 
f 242//242 244//244 243//243 
f 243//243 244//244 244//244 
f 244//244 245//245 244//244 
f 244//244 245//245 245//245 
f 245//245 246//246 245//245 
f 245//245 246//246 247//247 
f 246//246 248//248 247//247 
f 247//247 248//248 248//248 
f 248//248 249//249 248//248 
f 248//248 249//249 249//249 
f 249//249 250//250 249//249 
f 249//249 250//250 251//251 
f 250//250 252//252 251//251 
f 251//251 252//252 252//252 
f 252//252 253//253 252//252 
f 252//252 253//253 253//253 
f 253//253 254//254 253//253 
f 253//253 254//254 255//255 
f 254//254 256//256 255//255 
f 255//255 256//256 256//256 
f 256//256 257//257 256//256 
f 256//256 257//257 257//257 
f 257//257 258//258 257//257 
f 257//257 258//258 259//259 
f 258//258 260//260 259//259 
f 259//259 260//260 260//260 
f 260//260 261//261 260//260 
f 260//260 261//261 261//261 
f 261//261 262//262 261//261 
f 261//261 262//262 263//263 
f 262//262 264//264 263//263 
f 263//263 264//264 264//264 
f 264//264 265//265 264//264 
f 264//264 265//265 265//265 
f 265//265 266//266 265//265 
f 265//265 266//266 267//267 
f 266//266 268//268 267//267 
f 267//267 268//268 268//268 
f 268//268 269//269 268//268 
f 268//268 269//269 269//269 
f 269//269 270//270 269//269 
f 269//269 270//270 271//271 
f 270//270 272//272 271//271 
f 271//271 272//272 272//272 
f 272//272 273//273 272//272 
f 272//272 273//273 273//273 
f 273//273 274//274 273//273 
f 273//273 274//274 275//275 
f 274//274 276//276 275//275 
f 275//275 276//276 276//276 
f 276//276 277//277 276//276 
f 276//276 277//277 277//277 
f 277//277 278//278 277//277 
f 277//277 278//278 279//279 
f 278//278 280//280 279//279 
f 279//279 280//280 280//280 
f 280//280 281//281 280//280 
f 280//280 281//281 281//281 
f 281//281 282//282 281//281 
f 281//281 282//282 283//283 
f 282//282 284//284 283//283 
f 283//283 284//284 284//284 
f 284//284 285//285 284//284 
f 284//284 285//285 285//285 
f 285//285 286//286 285//285 
f 285//285 286//286 287//287 
f 286//286 288//288 287//287 
f 287//287 288//288 288//288 
f 288//288 289//289 288//288 
f 288//288 289//289 289//289 
f 289//289 290//290 289//289 
f 289//289 290//290 291//291 
f 290//290 292//292 291//291 
f 291//291 292//292 292//292 
f 292//292 293//293 292//292 
f 292//292 293//293 293//293 
f 293//293 294//294 293//293 
f 293//293 294//294 295//295 
f 294//294 296//296 295//295 
f 295//295 296//296 296//296 
f 296//296 297//297 296//296 
f 296//296 297//297 297//297 
f 297//297 298//298 297//297 
f 297//297 298//298 299//299 
f 298//298 300//300 299//299 
f 299//299 300//300 300//300 
f 300//300 301//301 300//300 
f 300//300 301//301 301//301 
f 301//301 302//302 301//301 
f 301//301 302//302 303//303 
f 302//302 304//304 303//303 
f 303//303 304//304 304//304 
f 304//304 305//305 304//304 
f 304//304 305//305 305//305 
f 305//305 306//306 305//305 
f 305//305 306//306 307//307 
f 306//306 308//308 307//307 
f 307//307 308//308 308//308 
f 308//308 309//309 308//308 
f 308//308 309//309 309//309 
f 309//309 310//310 309//309 
f 309//309 310//310 311//311 
f 310//310 312//312 311//311 
f 311//311 312//312 312//312 
f 312//312 313//313 312//312 
f 312//312 313//313 313//313 
f 313//313 314//314 313//313 
f 313//313 314//314 315//315 
f 314//314 316//316 315//315 
f 315//315 316//316 316//316 
f 316//316 317//317 316//316 
f 316//316 317//317 317//317 
f 317//317 318//318 317//317 
f 317//317 318//318 319//319 
f 318//318 320//320 319//319 
f 319//319 320//320 320//320 
f 320//320 321//321 320//320 
f 320//320 321//321 321//321 
f 321//321 322//322 321//321 
f 321//321 322//322 323//323 
f 322//322 324//324 323//323 
f 323//323 324//324 324//324 
f 324//324 325//325 324//324 
f 324//324 325//325 325//325 
f 325//325 326//326 325//325 
f 325//325 326//326 327//327 
f 326//326 328//328 327//327 
f 327//327 328//328 328//328 
f 328//328 329//329 328//328 
f 328//328 329//329 329//329 
f 329//329 330//330 329//329 
f 329//329 330//330 331//331 
f 330//330 332//332 331//331 
f 331//331 332//332 332//332 
f 332//332 333//333 332//332 
f 332//332 333//333 333//333 
f 333//333 334//334 333//333 
f 333//333 334//334 335//335 
f 334//334 336//336 335//335 
f 335//335 336//336 336//336 
f 336//336 337//337 336//336 
f 336//336 337//337 337//337 
f 337//337 338//338 337//337 
f 337//337 338//338 339//339 
f 338//338 340//340 339//339 
f 339//339 340//340 340//340 
f 340//340 341//341 340//340 
f 340//340 341//341 341//341 
f 341//341 342//342 341//341 
f 341//341 342//342 343//343 
f 342//342 344//344 343//343 
f 343//343 344//344 344//344 
f 344//344 345//345 344//344 
f 344//344 345//345 345//345 
f 345//345 346//346 345//345 
f 345//345 346//346 347//347 
f 346//346 348//348 347//347 
f 347//347 348//348 348//348 
f 348//348 349//349 348//348 
f 348//348 349//349 349//349 
f 349//349 350//350 349//349 
f 349//349 350//350 351//351 
f 350//350 352//352 351//351 
f 351//351 352//352 352//352 
f 352//352 353//353 352//352 
f 352//352 353//353 353//353 
f 353//353 354//354 353//353 
f 353//353 354//354 355//355 
f 354//354 356//356 355//355 
f 355//355 356//356 356//356 
f 356//356 357//357 356//356 
f 356//356 357//357 357//357 
f 357//357 358//358 357//357 
f 357//357 358//358 359//359 
f 358//358 360//360 359//359 
f 361//361 362//362 363//363 
f 364//364 365//365 366//366 
f 367//367 368//368 369//369 
f 370//370 371//371 372//372 
f 373//373 374//374 375//375 
f 376//376 377//377 378//378 
f 379//379 380//380 381//381 
f 382//382 383//383 384//384 

