mtllib model_6.mtl
o model_6
v -0.5639421939849854 2.055241107940674 -1.2228600978851318 
v -0.5913264751434326 2.0336103439331055 -1.2228600978851318 
v -0.5895608067512512 2.031644105911255 -1.2228600978851318 
v -0.5990732908248901 2.0272858142852783 -1.2228600978851318 
v -0.5967836976051331 2.0245182514190674 -1.2228600978851318 
v -0.6007948517799377 2.0258803367614746 -1.2237741947174072 
v -0.5985051989555359 2.0231127738952637 -1.2237741947174072 
v -0.6014276742935181 2.025196075439453 -1.2259962558746338 
v -0.5991380214691162 2.022428512573242 -1.2259962558746338 
v -0.5991380214691162 2.022428512573242 -1.251983880996704 
v -0.5805622935295105 2.005582571029663 -1.251983880996704 
v -0.5985051989555359 2.0231127738952637 -1.2542059421539307 
v -0.580157458782196 2.0062482357025146 -1.2542059421539307 
v -0.5967836976051331 2.0245182514190674 -1.255120038986206 
v -0.578697919845581 2.008054256439209 -1.255120038986206 
v -0.5895608067512512 2.031644105911255 -1.255120038986206 
v -0.572699785232544 2.0161356925964355 -1.255120038986206 
v -0.5639421939849854 2.055241107940674 -1.255120038986206 
v -0.5508065223693848 2.0432276725769043 -1.255120038986206 
v -0.5564573407173157 2.0619664192199707 -1.255120038986206 
v -0.5448083877563477 2.0513088703155518 -1.255120038986206 
v -0.5448083877563477 2.0513088703155518 -1.2228600978851318 
v -0.5312780141830444 2.0429139137268066 -1.2228600978851318 
v -0.5508065223693848 2.0432276725769043 -1.2228600978851318 
v -0.5355954766273499 2.033914089202881 -1.2228600978851318 
v -0.4881151616573334 1.994520664215088 -1.2228600978851318 
v -0.5188159942626953 2.0278923511505127 -1.2228600978851318 
v -0.501151978969574 2.02510666847229 -1.2228600978851318 
v -0.5005837082862854 2.0350677967071533 -1.2228600978851318 
v -0.4848214089870453 2.0359251499176025 -1.2228600978851318 
v -0.5005837082862854 2.0350677967071533 -1.255120038986206 
v -0.4848214089870453 2.0359251499176025 -1.255120038986206 
v -0.4833211600780487 2.025920867919922 -1.255120038986206 
v -0.46599042415618896 2.0300698280334473 -1.255120038986206 
v -0.4881151616573334 1.994520664215088 -1.255120038986206 
v -0.4498606324195862 2.037707567214966 -1.255120038986206 
v -0.4355646073818207 2.048150062561035 -1.255120038986206 
v -0.45492297410964966 2.04636812210083 -1.255120038986206 
v -0.4421375095844269 2.055633068084717 -1.255120038986206 
v -0.4421375095844269 2.055633068084717 -1.2228600978851318 
v -0.4313967227935791 2.067474603652954 -1.2228600978851318 
v -0.4355646073818207 2.048150062561035 -1.2228600978851318 
v -0.42333024740219116 2.0613787174224854 -1.2228600978851318 
v -0.19279709458351135 2.2317678928375244 -1.2228600978851318 
v -0.41424626111984253 2.076672077178955 -1.2228600978851318 
v -0.40803372859954834 2.0934200286865234 -1.2228600978851318 
v -0.417879581451416 2.095996379852295 -1.2228600978851318 
v -0.4154740869998932 2.1115918159484863 -1.2228600978851318 
v -0.417879581451416 2.095996379852295 -1.255120038986206 
v -0.4154740869998932 2.1115918159484863 -1.255120038986206 
v -0.4053424298763275 2.1111481189727783 -1.255120038986206 
v -0.40608730912208557 2.1288082599639893 -1.255120038986206 
v -0.19279709458351135 2.2317678928375244 -1.255120038986206 
v -0.4102513790130615 2.146191120147705 -1.255120038986206 
v -0.41799455881118774 2.1624393463134766 -1.255120038986206 
v -0.4198489487171173 2.14288067817688 -1.255120038986206 
v -0.4265272617340088 2.1573166847229004 -1.255120038986206 
v -0.4265272617340088 2.1573166847229004 -1.2228600978851318 
v -0.43604981899261475 2.1700453758239746 -1.2228600978851318 
v -0.41799455881118774 2.1624393463134766 -1.2228600978851318 
v -0.42856496572494507 2.1767706871032715 -1.2228600978851318 
v -0.3484753668308258 2.4056220054626465 -1.2228600978851318 
v -0.178511381149292 2.2310285568237305 -1.2228600978851318 
v -0.34777435660362244 2.419602155685425 -1.2228600978851318 
v -0.17558211088180542 2.2316882610321045 -1.2237741947174072 
v -0.34713470935821533 2.4230294227600098 -1.2237741947174072 
v -0.17445938289165497 2.231990337371826 -1.2259962558746338 
v -0.3470258414745331 2.4245150089263916 -1.2259962558746338 
v -0.3470258414745331 2.4245150089263916 -1.251983880996704 
v -0.5917057394981384 2.205089807510376 -1.251983880996704 
v -0.34713470935821533 2.4230294227600098 -1.2542059421539307 
v -0.5909708738327026 2.204516649246216 -1.2542059421539307 
v -0.34777435660362244 2.419602155685425 -1.255120038986206 
v -0.5894671082496643 2.202950954437256 -1.255120038986206 
v -0.3484753668308258 2.4056220054626465 -1.255120038986206 
v -0.5824553370475769 2.1957144737243652 -1.255120038986206 
v -0.598064661026001 2.1788365840911865 -1.255120038986206 
v -0.6061141490936279 2.184723138809204 -1.255120038986206 
v -0.6186479926109314 2.1638758182525635 -1.255120038986206 
v -0.620801568031311 2.1649668216705322 -1.2542059421539307 
v -0.6292392015457153 2.141709327697754 -1.2542059421539307 
v -0.6301679611206055 2.1418447494506836 -1.251983880996704 
v -0.633910596370697 2.1172807216644287 -1.251983880996704 
v -0.6301679611206055 2.1418447494506836 -1.2259962558746338 
v -0.633910596370697 2.1172807216644287 -1.2259962558746338 
v -0.6329818367958069 2.11714506149292 -1.2237741947174072 
v -0.6318866014480591 2.0923407077789307 -1.2237741947174072 
v -0.6296241283416748 2.0927352905273438 -1.2228600978851318 
v -0.6237930655479431 2.068948268890381 -1.2228600978851318 
v -0.6144404411315918 2.0724496841430664 -1.2228600978851318 
v -0.6049894094467163 2.0521206855773926 -1.2228600978851318 
v -0.6135221123695374 2.0469982624053955 -1.2228600978851318 
v -0.615488588809967 2.045783758163452 -1.2237741947174072 
v -0.6163663864135742 2.04529070854187 -1.2259962558746338 
v -0.6014276742935181 2.025196075439453 -1.251983880996704 
v -0.6007948517799377 2.0258803367614746 -1.2542059421539307 
v -0.5990732908248901 2.0272858142852783 -1.255120038986206 
v -0.5913264751434326 2.0336103439331055 -1.255120038986206 
v -0.6049894094467163 2.0521206855773926 -1.255120038986206 
v -0.5745126008987427 2.0695722103118896 -1.255120038986206 
v -0.582027792930603 2.08583927154541 -1.255120038986206 
v -0.5726581811904907 2.0891311168670654 -1.255120038986206 
v -0.57644122838974 2.1046459674835205 -1.255120038986206 
v -0.5726581811904907 2.0891311168670654 -1.2228600978851318 
v -0.57644122838974 2.1046459674835205 -1.2228600978851318 
v -0.5864198207855225 2.103203296661377 -1.2228600978851318 
v -0.5871817469596863 2.121073007583618 -1.2228600978851318 
v -0.6095778346061707 2.159548759460449 -1.2228600978851318 
v -0.5844734311103821 2.1385915279388428 -1.2228600978851318 
v -0.5782608389854431 2.1553397178649902 -1.2228600978851318 
v -0.5746445655822754 2.1362249851226807 -1.2228600978851318 
v -0.5691907405853271 2.151012659072876 -1.2228600978851318 
v -0.5691907405853271 2.151012659072876 -1.255120038986206 
v -0.5611103773117065 2.164536952972412 -1.255120038986206 
v -0.5782608389854431 2.1553397178649902 -1.255120038986206 
v -0.5689489245414734 2.17065167427063 -1.255120038986206 
v -0.6172907948493958 2.1386706829071045 -1.255120038986206 
v -0.5569425225257874 2.18386173248291 -1.255120038986206 
v -0.5426464676856995 2.1943039894104004 -1.255120038986206 
v -0.5265166759490967 2.201941967010498 -1.255120038986206 
v -0.5229989290237427 2.192523241043091 -1.255120038986206 
v -0.5076857209205627 2.1960866451263428 -1.255120038986206 
v -0.5229989290237427 2.192523241043091 -1.2228600978851318 
v -0.5076857209205627 2.1960866451263428 -1.2228600978851318 
v -0.5091859698295593 2.2060909271240234 -1.2228600978851318 
v -0.49135518074035645 2.2069051265716553 -1.2228600978851318 
v -0.47369110584259033 2.2041194438934326 -1.2228600978851318 
v -0.4569116532802582 2.1980977058410645 -1.2228600978851318 
v -0.47611698508262634 2.194429397583008 -1.2228600978851318 
v -0.4612291157245636 2.1890978813171387 -1.2228600978851318 
v -0.4612291157245636 2.1890978813171387 -1.255120038986206 
v -0.4476987421512604 2.1807026863098145 -1.255120038986206 
v -0.4569116532802582 2.1980977058410645 -1.255120038986206 
v -0.44170063734054565 2.188784122467041 -1.255120038986206 
v -0.42856496572494507 2.1767706871032715 -1.255120038986206 
v -0.572699785232544 2.0161356925964355 -1.2228600978851318 
v -0.578697919845581 2.008054256439209 -1.2228600978851318 
v -0.580157458782196 2.0062482357025146 -1.2237741947174072 
v -0.5805622935295105 2.005582571029663 -1.2259962558746338 
v -0.5593124628067017 1.992539882659912 -1.251983880996704 
v -0.5589246153831482 1.9934152364730835 -1.2542059421539307 
v -0.5579379796981812 1.9953938722610474 -1.255120038986206 
v -0.5536375045776367 2.004603147506714 -1.255120038986206 
v -0.5325849652290344 1.9968185424804688 -1.255120038986206 
v -0.535010814666748 1.987128496170044 -1.255120038986206 
v -0.511073112487793 1.9833753108978271 -1.255120038986206 
v -0.5111309885978699 1.9812610149383545 -1.2542059421539307 
v -0.48642781376838684 1.9822109937667847 -1.2542059421539307 
v -0.48613181710243225 1.981391191482544 -1.251983880996704 
v -0.4618368148803711 1.9873710870742798 -1.251983880996704 
v -0.48613181710243225 1.981391191482544 -1.2259962558746338 
v -0.4618368148803711 1.9873710870742798 -1.2259962558746338 
v -0.4623607397079468 1.9881724119186401 -1.2237741947174072 
v -0.43980762362480164 1.9986521005630493 -1.2237741947174072 
v -0.44088950753211975 2.00067400932312 -1.2228600978851318 
v -0.41208645701408386 2.02178692817688 -1.2228600978851318 
v -0.41844844818115234 2.0294978618621826 -1.2228600978851318 
v -0.4459518492221832 2.0093343257904053 -1.2228600978851318 
v -0.4662935435771942 1.9998779296875 -1.2228600978851318 
v -0.4866148829460144 1.9845163822174072 -1.2228600978851318 
v -0.4629867374897003 1.9902312755584717 -1.2228600978851318 
v -0.48642781376838684 1.9822109937667847 -1.2237741947174072 
v -0.5355245471000671 1.9849772453308105 -1.2542059421539307 
v -0.5359123945236206 1.9841018915176392 -1.251983880996704 
v -0.5593124628067017 1.992539882659912 -1.2259962558746338 
v -0.5589246153831482 1.9934152364730835 -1.2237741947174072 
v -0.5579379796981812 1.9953938722610474 -1.2228600978851318 
v -0.5536375045776367 2.004603147506714 -1.2228600978851318 
v -0.5325849652290344 1.9968185424804688 -1.2228600978851318 
v -0.5105218887329102 1.9935461282730103 -1.2228600978851318 
v -0.511073112487793 1.9833753108978271 -1.2228600978851318 
v -0.535010814666748 1.987128496170044 -1.2228600978851318 
v -0.5355245471000671 1.9849772453308105 -1.2237741947174072 
v -0.5111309885978699 1.9812610149383545 -1.2237741947174072 
v -0.5110459327697754 1.9802130460739136 -1.2259962558746338 
v -0.5359123945236206 1.9841018915176392 -1.2259962558746338 
v -0.5110459327697754 1.9802130460739136 -1.251983880996704 
v -0.6078288555145264 2.186060667037964 -1.2542059421539307 
v -0.6085637211799622 2.186634063720703 -1.251983880996704 
v -0.5917057394981384 2.205089807510376 -1.2259962558746338 
v -0.5909708738327026 2.204516649246216 -1.2237741947174072 
v -0.5894671082496643 2.202950954437256 -1.2228600978851318 
v -0.5824553370475769 2.1957144737243652 -1.2228600978851318 
v -0.5426464676856995 2.1943039894104004 -1.2228600978851318 
v -0.5569425225257874 2.18386173248291 -1.2228600978851318 
v -0.5503696203231812 2.1763787269592285 -1.2228600978851318 
v -0.5611103773117065 2.164536952972412 -1.2228600978851318 
v -0.5503696203231812 2.1763787269592285 -1.255120038986206 
v -0.6215193867683411 2.165330410003662 -1.251983880996704 
v -0.6085637211799622 2.186634063720703 -1.2259962558746338 
v -0.6078288555145264 2.186060667037964 -1.2237741947174072 
v -0.6061141490936279 2.184723138809204 -1.2228600978851318 
v -0.598064661026001 2.1788365840911865 -1.2228600978851318 
v -0.6215193867683411 2.165330410003662 -1.2259962558746338 
v -0.620801568031311 2.1649668216705322 -1.2237741947174072 
v -0.6186479926109314 2.1638758182525635 -1.2228600978851318 
v -0.6292392015457153 2.141709327697754 -1.2237741947174072 
v -0.6271196603775024 2.1410374641418457 -1.2228600978851318 
v -0.6172907948493958 2.1386706829071045 -1.2228600978851318 
v -0.6207646131515503 2.1164491176605225 -1.2228600978851318 
v -0.6196455359458923 2.0941781997680664 -1.2228600978851318 
v -0.6306683421134949 2.116910934448242 -1.2228600978851318 
v -0.4498606324195862 2.037707567214966 -1.2228600978851318 
v -0.46599042415618896 2.0300698280334473 -1.2228600978851318 
v -0.45492297410964966 2.04636812210083 -1.2228600978851318 
v -0.46929723024368286 2.0397164821624756 -1.2228600978851318 
v -0.46929723024368286 2.0397164821624756 -1.255120038986206 
v -0.5564573407173157 2.0619664192199707 -1.2228600978851318 
v -0.5745126008987427 2.0695722103118896 -1.2228600978851318 
v -0.5659798383712769 2.074694871902466 -1.2228600978851318 
v -0.582027792930603 2.08583927154541 -1.2228600978851318 
v -0.4833211600780487 2.025920867919922 -1.2228600978851318 
v -0.4170639216899872 2.0152649879455566 -1.2237741947174072 
v -0.4191392660140991 2.0125651359558105 -1.2259962558746338 
v -0.17445938289165497 2.231990337371826 -1.251983880996704 
v -0.17558211088180542 2.2316882610321045 -1.2542059421539307 
v -0.178511381149292 2.2310285568237305 -1.255120038986206 
v -0.43928369879722595 1.997850775718689 -1.2259962558746338 
v -0.4191392660140991 2.0125651359558105 -1.251983880996704 
v -0.4170639216899872 2.0152649879455566 -1.2542059421539307 
v -0.41208645701408386 2.02178692817688 -1.255120038986206 
v -0.41844844818115234 2.0294978618621826 -1.255120038986206 
v -0.4459518492221832 2.0093343257904053 -1.255120038986206 
v -0.4662935435771942 1.9998779296875 -1.255120038986206 
v -0.4629867374897003 1.9902312755584717 -1.255120038986206 
v -0.44088950753211975 2.00067400932312 -1.255120038986206 
v -0.43980762362480164 1.9986521005630493 -1.2542059421539307 
v -0.43928369879722595 1.997850775718689 -1.251983880996704 
v -0.4623607397079468 1.9881724119186401 -1.2542059421539307 
v -0.4866148829460144 1.9845163822174072 -1.255120038986206 
v -0.5105218887329102 1.9935461282730103 -1.255120038986206 
v -0.5355954766273499 2.033914089202881 -1.255120038986206 
v -0.5312780141830444 2.0429139137268066 -1.255120038986206 
v -0.5163901448249817 2.0375823974609375 -1.2228600978851318 
v -0.5163901448249817 2.0375823974609375 -1.255120038986206 
v -0.5188159942626953 2.0278923511505127 -1.255120038986206 
v -0.501151978969574 2.02510666847229 -1.255120038986206 
v -0.5689489245414734 2.17065167427063 -1.2228600978851318 
v -0.537584125995636 2.1856436729431152 -1.255120038986206 
v -0.537584125995636 2.1856436729431152 -1.2228600978851318 
v -0.5265166759490967 2.201941967010498 -1.2228600978851318 
v -0.42333024740219116 2.0613787174224854 -1.255120038986206 
v -0.41424626111984253 2.076672077178955 -1.255120038986206 
v -0.4313967227935791 2.067474603652954 -1.255120038986206 
v -0.42331641912460327 2.0809988975524902 -1.255120038986206 
v -0.42331641912460327 2.0809988975524902 -1.2228600978851318 
v -0.5659798383712769 2.074694871902466 -1.255120038986206 
v -0.6135221123695374 2.0469982624053955 -1.255120038986206 
v -0.6144404411315918 2.0724496841430664 -1.255120038986206 
v -0.6237930655479431 2.068948268890381 -1.255120038986206 
v -0.6196455359458923 2.0941781997680664 -1.255120038986206 
v -0.6296241283416748 2.0927352905273438 -1.255120038986206 
v -0.6207646131515503 2.1164491176605225 -1.255120038986206 
v -0.6306683421134949 2.116910934448242 -1.255120038986206 
v -0.6271196603775024 2.1410374641418457 -1.255120038986206 
v -0.6095778346061707 2.159548759460449 -1.255120038986206 
v -0.6329818367958069 2.11714506149292 -1.2542059421539307 
v -0.6327983736991882 2.092266798019409 -1.251983880996704 
v -0.6327983736991882 2.092266798019409 -1.2259962558746338 
v -0.6260384917259216 2.0683441162109375 -1.2237741947174072 
v -0.6269332766532898 2.0680606365203857 -1.2259962558746338 
v -0.6163663864135742 2.04529070854187 -1.251983880996704 
v -0.615488588809967 2.045783758163452 -1.2542059421539307 
v -0.6260384917259216 2.0683441162109375 -1.2542059421539307 
v -0.6318866014480591 2.0923407077789307 -1.2542059421539307 
v -0.6269332766532898 2.0680606365203857 -1.251983880996704 
v -0.5864198207855225 2.103203296661377 -1.255120038986206 
v -0.5770330429077148 2.120419979095459 -1.255120038986206 
v -0.5770330429077148 2.120419979095459 -1.2228600978851318 
v -0.5746445655822754 2.1362249851226807 -1.255120038986206 
v -0.5844734311103821 2.1385915279388428 -1.255120038986206 
v -0.5871817469596863 2.121073007583618 -1.255120038986206 
v -0.43604981899261475 2.1700453758239746 -1.255120038986206 
v -0.4476987421512604 2.1807026863098145 -1.2228600978851318 
v -0.44170063734054565 2.188784122467041 -1.2228600978851318 
v -0.40803372859954834 2.0934200286865234 -1.255120038986206 
v -0.4160829186439514 2.127575159072876 -1.255120038986206 
v -0.4160829186439514 2.127575159072876 -1.2228600978851318 
v -0.4198489487171173 2.14288067817688 -1.2228600978851318 
v -0.40608730912208557 2.1288082599639893 -1.2228600978851318 
v -0.4102513790130615 2.146191120147705 -1.2228600978851318 
v -0.4053424298763275 2.1111481189727783 -1.2228600978851318 
v -0.491923451423645 2.196943759918213 -1.2228600978851318 
v -0.491923451423645 2.196943759918213 -1.255120038986206 
v -0.47611698508262634 2.194429397583008 -1.255120038986206 
v -0.49135518074035645 2.2069051265716553 -1.255120038986206 
v -0.47369110584259033 2.2041194438934326 -1.255120038986206 
v -0.5091859698295593 2.2060909271240234 -1.255120038986206 
vn 0 0 1 
vn 0 0 1 
vn 0 0 1 
vn -0.15486390888690948 -0.1259925812482834 0.97986900806427 
vn -0.1396876722574234 -0.14263351261615753 0.97986900806427 
vn -0.5539042353630066 -0.45058149099349976 0.7001210451126099 
vn -0.50864577293396 -0.5011118054389954 0.7001210451126099 
vn -0.7624029517173767 -0.617588460445404 0.19321508705615997 
vn -0.6969538331031799 -0.690600574016571 0.19321508705615997 
vn -0.696361243724823 -0.6911979913711548 -0.19321508705615997 
vn -0.5881605744361877 -0.7853285670280457 -0.19321508705615997 
vn -0.5080574750900269 -0.5017082691192627 -0.7001210451126099 
vn -0.4319295585155487 -0.5723972320556641 -0.6969945430755615 
vn -0.1443926990032196 -0.13786843419075012 -0.97986900806427 
vn -0.120914027094841 -0.1642066389322281 -0.9789873361587524 
vn 2.0614597268792112e-13 1.6730022179894596e-14 -1 
vn 2.0614597268792112e-13 1.6730022179894596e-14 -1 
vn 2.0614597268792112e-13 1.6730022179894596e-14 -1 
vn 2.0614597268792112e-13 1.6730022179894596e-14 -1 
vn 0.5071201324462891 0.4571598768234253 -0.7306414246559143 
vn 0.4066733121871948 0.5484366416931152 -0.7306414246559143 
vn 0.4105122983455658 0.5455690026283264 0.7306414246559143 
vn 0.29470235109329224 0.6158866882324219 0.7306414246559143 
vn 0 0 1 
vn 0 0 1 
vn 0 0 1 
vn 0 0 1 
vn 0 0 1 
vn 0.040813934057950974 0.6815424561500549 0.7306414246559143 
vn -0.09456625580787659 0.676182746887207 0.7306414246559143 
vn 0.03532721847295761 0.68184894323349 -0.7306414246559143 
vn -0.10024179518222809 0.6753647327423096 -0.7306414246559143 
vn 2.0614597268792112e-13 1.6730022179894596e-14 -1 
vn 2.0614597268792112e-13 1.6730022179894596e-14 -1 
vn 2.0614597268792112e-13 1.6730022179894596e-14 -1 
vn 2.0614597268792112e-13 1.6730022179894596e-14 -1 
vn 2.0614597268792112e-13 1.6730022179894596e-14 -1 
vn -0.34781795740127563 0.5875275135040283 -0.7306414246559143 
vn -0.4571598768234253 0.5071201324462891 -0.7306414246559143 
vn -0.4579775631427765 0.5063817501068115 0.7306414246559143 
vn -0.5444337129592896 0.4120168387889862 0.7306414246559143 
vn 0 0 1 
vn 0 0 1 
vn 0 0 1 
vn 0 0 1 
vn 0 0 1 
vn -0.661487877368927 0.16911447048187256 0.7306414246559143 
vn -0.6818571090698242 0.03516814857721329 0.7306414246559143 
vn -0.6613891124725342 0.1695002317428589 -0.7306414246559143 
vn -0.68184894323349 0.03532721847295761 -0.7306414246559143 
vn 2.0614597268792112e-13 1.6730022179894596e-14 -1 
vn 2.0614597268792112e-13 1.6730022179894596e-14 -1 
vn 2.0614597268792112e-13 1.6730022179894596e-14 -1 
vn 2.0614597268792112e-13 1.6730022179894596e-14 -1 
vn 2.0614597268792112e-13 1.6730022179894596e-14 -1 
vn -0.6447182297706604 -0.2247317135334015 -0.7306414246559143 
vn -0.5875275135040283 -0.34781795740127563 -0.7306414246559143 
vn -0.5878045558929443 -0.3473495543003082 0.7306414246559143 
vn -0.5076441168785095 -0.456577867269516 0.7306414246559143 
vn 0 0 1 
vn 0 0 1 
vn 0 0 1 
vn 0.24499092996120453 -0.0967123955488205 0.9646899104118347 
vn -0.008332767523825169 0.1951809525489807 0.9807319641113281 
vn 0.7207965850830078 -0.08803748339414597 0.6875353455543518 
vn 0.018217861652374268 0.68252032995224 0.7306414246559143 
vn 0.9741917252540588 -0.034198399633169174 0.22312943637371063 
vn 0.05566270276904106 0.9659098386764526 0.25283506512641907 
vn 0.05566270276904106 0.9659098386764526 -0.25283506512641907 
vn -0.6911979913711548 0.696361243724823 -0.19321508705615997 
vn 0.020234650000929832 0.682463526725769 -0.7306414246559143 
vn -0.5043882727622986 0.5053969621658325 -0.7001210451126099 
vn -0.012023793533444405 0.19498838484287262 -0.9807319641113281 
vn -0.14057624340057373 0.1417578160762787 -0.97986900806427 
vn 2.0614597268792112e-13 1.6730022179894596e-14 -1 
vn 2.0614597268792112e-13 1.6730022179894596e-14 -1 
vn 2.0614597268792112e-13 1.6730022179894596e-14 -1 
vn -0.1653233766555786 0.1193825751543045 -0.9789873361587524 
vn -0.18453992903232574 0.08677003532648087 -0.9789873361587524 
vn -0.6468923091888428 0.30940601229667664 -0.6969945430755615 
vn -0.6955198645591736 0.1745101809501648 -0.6969945430755615 
vn -0.9506282806396484 0.24285727739334106 -0.19321508705615997 
vn -0.9795310497283936 0.05650406703352928 -0.19321508705615997 
vn -0.9507266283035278 0.24247202277183533 0.19321508705615997 
vn -0.9795405864715576 0.056337885558605194 0.19321508705615997 
vn -0.7159700393676758 0.039857812225818634 0.6969945430755615 
vn -0.7096546292304993 -0.10291752219200134 0.6969945430755615 
vn -0.20149368047714233 -0.031373899430036545 0.9789873361587524 
vn -0.1923711597919464 -0.06765621155500412 0.9789873361587524 
vn 0 0 1 
vn 0 0 1 
vn -0.17677384614944458 -0.10166136175394058 0.9789873361587524 
vn -0.6176904439926147 -0.3642255365848541 0.6969945430755615 
vn -0.8441998958587646 -0.5000002980232239 0.19321508705615997 
vn -0.7619487047195435 -0.6181488037109375 -0.19321508705615997 
vn -0.5534473657608032 -0.4511425495147705 -0.7001210451126099 
vn -0.15440599620342255 -0.12655335664749146 -0.97986900806427 
vn 2.0614597268792112e-13 1.6730022179894596e-14 -1 
vn 2.0614597268792112e-13 1.6730022179894596e-14 -1 
vn 2.0614597268792112e-13 1.6730022179894596e-14 -1 
vn 2.0614597268792112e-13 1.6730022179894596e-14 -1 
vn 0.6447182297706604 0.2247317135334015 -0.7306414246559143 
vn 0.6753647327423096 0.10024179518222809 -0.7306414246559143 
vn 0.6435695886611938 0.22800017893314362 0.7306414246559143 
vn 0.6759191155433655 0.09643258899450302 0.7306414246559143 
vn 0 0 1 
vn 0 0 1 
vn 0 0 1 
vn 0 0 1 
vn 0 0 1 
vn 0.6605440974235535 -0.1727641075849533 0.7306414246559143 
vn 0.6166979670524597 -0.2930009961128235 0.7306414246559143 
vn 0.6147939562797546 -0.296975314617157 -0.7306414246559143 
vn 0.5484366416931152 -0.4066733121871948 -0.7306414246559143 
vn 2.0614597268792112e-13 1.6730022179894596e-14 -1 
vn 2.0614597268792112e-13 1.6730022179894596e-14 -1 
vn 2.0614597268792112e-13 1.6730022179894596e-14 -1 
vn 2.0614597268792112e-13 1.6730022179894596e-14 -1 
vn 2.0614597268792112e-13 1.6730022179894596e-14 -1 
vn 2.0614597268792112e-13 1.6730022179894596e-14 -1 
vn 0.2247317135334015 -0.6447182297706604 -0.7306414246559143 
vn 0.10024179518222809 -0.6753647327423096 -0.7306414246559143 
vn 0.22977596521377563 -0.6429377198219299 0.7306414246559143 
vn 0.09829817712306976 -0.6756503582000732 0.7306414246559143 
vn 0 0 1 
vn 0 0 1 
vn 0 0 1 
vn 0 0 1 
vn -0.17093993723392487 -0.6610184907913208 0.7306414246559143 
vn -0.29809829592704773 -0.6142502427101135 0.7306414246559143 
vn -0.296975314617157 -0.6147939562797546 -0.7306414246559143 
vn -0.4066733121871948 -0.5484366416931152 -0.7306414246559143 
vn 2.0614597268792112e-13 1.6730022179894596e-14 -1 
vn 2.0614597268792112e-13 1.6730022179894596e-14 -1 
vn 2.0614597268792112e-13 1.6730022179894596e-14 -1 
vn 0 0 1 
vn -0.12255021929740906 -0.16298915445804596 0.9789873361587524 
vn -0.4275171756744385 -0.5757002830505371 0.6969945430755615 
vn -0.5889743566513062 -0.78471839427948 0.19321508705615997 
vn -0.4270532429218292 -0.8833455443382263 -0.19321508705615997 
vn -0.30940601229667664 -0.6468923091888428 -0.6969945430755615 
vn -0.08848149329423904 -0.18372546136379242 -0.9789873361587524 
vn 2.0614597268792112e-13 1.6730022179894596e-14 -1 
vn 2.0614597268792112e-13 1.6730022179894596e-14 -1 
vn -0.05300017073750496 -0.1969136893749237 -0.9789873361587524 
vn -0.008124484680593014 -0.20375970005989075 -0.9789873361587524 
vn -0.04018598422408104 -0.715951681137085 -0.6969945430755615 
vn 0.10306764394044876 -0.7096328735351562 -0.6969945430755615 
vn 0.1394188106060028 -0.9712034463882446 -0.19321508705615997 
vn 0.3226473331451416 -0.9265918135643005 -0.19321508705615997 
vn 0.1374780386686325 -0.9714800715446472 0.19321508705615997 
vn 0.32769882678985596 -0.9248173832893372 0.19321508705615997 
vn 0.23805463314056396 -0.6764109134674072 0.6969945430755615 
vn 0.3674655258655548 -0.6157684922218323 0.6969945430755615 
vn 0.10328087955713272 -0.17583253979682922 0.9789873361587524 
vn 0.18307028710842133 -0.21213698387145996 0.9599394202232361 
vn 0 0 1 
vn 0 0 1 
vn 0 0 1 
vn 0.025809960439801216 -0.202281653881073 0.9789873361587524 
vn 0.06942044198513031 -0.19174155592918396 0.9789873361587524 
vn 0.0991879478096962 -0.7101855278015137 0.6969945430755615 
vn -0.1745101809501648 -0.6955198645591736 -0.6969945430755615 
vn -0.24285727739334106 -0.9506282806396484 -0.19321508705615997 
vn -0.42137500643730164 -0.8860681653022766 0.19321508705615997 
vn -0.31166213750839233 -0.6458083391189575 0.6969945430755615 
vn -0.0907118171453476 -0.18263457715511322 0.9789873361587524 
vn 0 0 1 
vn 0 0 1 
vn 0 0 1 
vn -0.011578642763197422 -0.20359262824058533 0.9789873361587524 
vn -0.04857753962278366 -0.1980511099100113 0.9789873361587524 
vn -0.1774023473262787 -0.694787859916687 0.6969945430755615 
vn -0.03609592840075493 -0.716169536113739 0.6969945430755615 
vn -0.05068707838654518 -0.9798492193222046 0.19321508705615997 
vn -0.24429944157600403 -0.9502586722373962 0.19321508705615997 
vn -0.05650406703352928 -0.9795310497283936 -0.19321508705615997 
vn -0.5723972320556641 0.4319295585155487 -0.6969945430755615 
vn -0.7853285670280457 0.5881605744361877 -0.19321508705615997 
vn -0.6919392943382263 0.6956247687339783 0.19321508705615997 
vn -0.4997672140598297 0.5099669694900513 0.7001210451126099 
vn -0.1413133144378662 0.14102306962013245 0.97986900806427 
vn 0 0 1 
vn 0 0 1 
vn 0 0 1 
vn 0.4551747143268585 -0.5089026093482971 0.7306414246559143 
vn 0.5467001795768738 -0.4090046286582947 0.7306414246559143 
vn 0.4571598768234253 -0.5071201324462891 -0.7306414246559143 
vn -0.8833455443382263 0.4270532429218292 -0.19321508705615997 
vn -0.7858492732048035 0.5874646306037903 0.19321508705615997 
vn -0.5734463334083557 0.4305357336997986 0.6969945430755615 
vn -0.16185656189918518 0.12404224276542664 0.9789873361587524 
vn 0 0 1 
vn -0.8836230039596558 0.42647871375083923 0.19321508705615997 
vn -0.6474367380142212 0.3082651197910309 0.6969945430755615 
vn -0.18506473302841187 0.08564500510692596 0.9789873361587524 
vn -0.6938462257385254 0.18104994297027588 0.6969945430755615 
vn -0.19759653508663177 0.05039474368095398 0.9789873361587524 
vn 0 0 1 
vn 0 0 1 
vn 0 0 1 
vn -0.2034776657819748 0.013448319397866726 0.9789873361587524 
vn 0 0 1 
vn 0 0 1 
vn -0.3489709198474884 0.5868434309959412 0.7306414246559143 
vn -0.22622264921665192 0.6441965699195862 0.7306414246559143 
vn -0.2247317135334015 0.6447182297706604 -0.7306414246559143 
vn 0.5101572871208191 0.4537681043148041 0.7306414246559143 
vn 0 0 1 
vn 0.5858777761459351 0.3505896329879761 0.7306414246559143 
vn 0 0 1 
vn 0 0 1 
vn 0.48183318972587585 -0.5781663656234741 0.6584556698799133 
vn 0.6076804995536804 -0.7734394669532776 0.18033768236637115 
vn 0.9743124842643738 -0.03056384064257145 -0.22312943637371063 
vn 0.7212164402008057 -0.08452904224395752 -0.6875353455543518 
vn 0.24336877465248108 -0.10072478652000427 -0.9646899104118347 
vn 0.4983763098716736 -0.845159649848938 0.19321508705615997 
vn 0.6097167134284973 -0.7718352675437927 -0.18033768236637115 
vn 0.4780375063419342 -0.5813086628913879 -0.6584556698799133 
vn 0.18506672978401184 -0.21039755642414093 -0.9599394202232361 
vn 2.0614597268792112e-13 1.6730022179894596e-14 -1 
vn 2.0614597268792112e-13 1.6730022179894596e-14 -1 
vn 2.0614597268792112e-13 1.6730022179894596e-14 -1 
vn 0.06645242124795914 -0.19279029965400696 -0.9789873361587524 
vn 0.10093988478183746 -0.17718680202960968 -0.9789873361587524 
vn 0.36516159772872925 -0.6171375513076782 -0.6969945430755615 
vn 0.5004696846008301 -0.8439217209815979 -0.19321508705615997 
vn 0.23507118225097656 -0.6774535179138184 -0.6969945430755615 
vn 0.029675224795937538 -0.20175084471702576 -0.9789873361587524 
vn 2.0614597268792112e-13 1.6730022179894596e-14 -1 
vn 2.0614597268792112e-13 1.6730022179894596e-14 -1 
vn 0.296975314617157 0.6147939562797546 -0.7306414246559143 
vn 0.1672877073287964 0.6619521975517273 0.7306414246559143 
vn 0.1695002317428589 0.6613891124725342 -0.7306414246559143 
vn 2.0614597268792112e-13 1.6730022179894596e-14 -1 
vn 2.0614597268792112e-13 1.6730022179894596e-14 -1 
vn 0 0 1 
vn 0.34781795740127563 -0.5875275135040283 -0.7306414246559143 
vn 0.34572550654411316 -0.5887612104415894 0.7306414246559143 
vn 0 0 1 
vn 2.0614597268792112e-13 1.6730022179894596e-14 -1 
vn 2.0614597268792112e-13 1.6730022179894596e-14 -1 
vn -0.5484366416931152 0.4066733121871948 -0.7306414246559143 
vn -0.6147939562797546 0.296975314617157 -0.7306414246559143 
vn -0.6150708198547363 0.2964014410972595 0.7306414246559143 
vn 0.5875275135040283 0.34781795740127563 -0.7306414246559143 
vn -0.1762409657239914 -0.10258238762617111 -0.9789873361587524 
vn 2.0614597268792112e-13 1.6730022179894596e-14 -1 
vn -0.1921643167734146 -0.06824144721031189 -0.9789873361587524 
vn 2.0614597268792112e-13 1.6730022179894596e-14 -1 
vn -0.20146632194519043 -0.031549122184515 -0.9789873361587524 
vn 2.0614597268792112e-13 1.6730022179894596e-14 -1 
vn -0.20345397293567657 0.01380221825093031 -0.9789873361587524 
vn -0.19739779829978943 0.05116765946149826 -0.9789873361587524 
vn 2.0614597268792112e-13 1.6730022179894596e-14 -1 
vn -0.715951681137085 0.04018598422408104 -0.6969945430755615 
vn -0.9712034463882446 -0.1394188106060028 -0.19321508705615997 
vn -0.9712139368057251 -0.13934558629989624 0.19321508705615997 
vn -0.6776522397994995 -0.23449784517288208 0.6969945430755615 
vn -0.9266921877861023 -0.3223591446876526 0.19321508705615997 
vn -0.8439217209815979 -0.5004696846008301 -0.19321508705615997 
vn -0.6171375513076782 -0.36516159772872925 -0.6969945430755615 
vn -0.6774535179138184 -0.23507118225097656 -0.6969945430755615 
vn -0.7096328735351562 -0.10306764394044876 -0.6969945430755615 
vn -0.9265918135643005 -0.3226473331451416 -0.19321508705615997 
vn 2.0614597268792112e-13 1.6730022179894596e-14 -1 
vn 0.68184894323349 -0.03532721847295761 -0.7306414246559143 
vn 0.6816525459289551 -0.03893228992819786 0.7306414246559143 
vn 0.6613891124725342 -0.1695002317428589 -0.7306414246559143 
vn 2.0614597268792112e-13 1.6730022179894596e-14 -1 
vn 2.0614597268792112e-13 1.6730022179894596e-14 -1 
vn -0.5071201324462891 -0.4571598768234253 -0.7306414246559143 
vn -0.40749385952949524 -0.5478272438049316 0.7306414246559143 
vn 0 0 1 
vn 2.0614597268792112e-13 1.6730022179894596e-14 -1 
vn -0.6753647327423096 -0.10024179518222809 -0.7306414246559143 
vn -0.6753763556480408 -0.10016302019357681 0.7306414246559143 
vn -0.6448186635971069 -0.22444342076778412 0.7306414246559143 
vn 0 0 1 
vn 0 0 1 
vn 0 0 1 
vn -0.037050362676382065 -0.6817574501037598 0.7306414246559143 
vn -0.03532721847295761 -0.68184894323349 -0.7306414246559143 
vn -0.1695002317428589 -0.6613891124725342 -0.7306414246559143 
vn 2.0614597268792112e-13 1.6730022179894596e-14 -1 
vn 2.0614597268792112e-13 1.6730022179894596e-14 -1 
vn 2.0614597268792112e-13 1.6730022179894596e-14 -1 
s on 
f 1//1 2//2 3//3 
f 2//2 4//4 3//3 
f 3//3 4//4 5//5 
f 4//4 6//6 5//5 
f 5//5 6//6 7//7 
f 6//6 8//8 7//7 
f 7//7 8//8 9//9 
f 8//8 10//10 9//9 
f 9//9 10//10 11//11 
f 10//10 12//12 11//11 
f 11//11 12//12 13//13 
f 12//12 14//14 13//13 
f 13//13 14//14 15//15 
f 14//14 16//16 15//15 
f 15//15 16//16 17//17 
f 16//16 18//18 17//17 
f 17//17 18//18 19//19 
f 18//18 20//20 19//19 
f 19//19 20//20 21//21 
f 20//20 22//22 21//21 
f 21//21 22//22 23//23 
f 22//22 24//24 23//23 
f 23//23 24//24 25//25 
f 24//24 26//26 25//25 
f 25//25 26//26 27//27 
f 26//26 28//28 27//27 
f 27//27 28//28 29//29 
f 28//28 30//30 29//29 
f 29//29 30//30 31//31 
f 30//30 32//32 31//31 
f 31//31 32//32 33//33 
f 32//32 34//34 33//33 
f 33//33 34//34 35//35 
f 34//34 36//36 35//35 
f 35//35 36//36 37//37 
f 36//36 38//38 37//37 
f 37//37 38//38 39//39 
f 38//38 40//40 39//39 
f 39//39 40//40 41//41 
f 40//40 42//42 41//41 
f 41//41 42//42 43//43 
f 42//42 44//44 43//43 
f 43//43 44//44 45//45 
f 44//44 46//46 45//45 
f 45//45 46//46 47//47 
f 46//46 48//48 47//47 
f 47//47 48//48 49//49 
f 48//48 50//50 49//49 
f 49//49 50//50 51//51 
f 50//50 52//52 51//51 
f 51//51 52//52 53//53 
f 52//52 54//54 53//53 
f 53//53 54//54 55//55 
f 54//54 56//56 55//55 
f 55//55 56//56 57//57 
f 56//56 58//58 57//57 
f 57//57 58//58 59//59 
f 58//58 60//60 59//59 
f 59//59 60//60 61//61 
f 60//60 44//44 61//61 
f 61//61 44//44 62//62 
f 44//44 63//63 62//62 
f 62//62 63//63 64//64 
f 63//63 65//65 64//64 
f 64//64 65//65 66//66 
f 65//65 67//67 66//66 
f 66//66 67//67 68//68 
f 67//67 69//69 68//68 
f 68//68 69//69 70//70 
f 69//69 71//71 70//70 
f 70//70 71//71 72//72 
f 71//71 73//73 72//72 
f 72//72 73//73 74//74 
f 73//73 75//75 74//74 
f 74//74 75//75 76//76 
f 75//75 77//77 76//76 
f 76//76 77//77 78//78 
f 77//77 79//79 78//78 
f 78//78 79//79 80//80 
f 79//79 81//81 80//80 
f 80//80 81//81 82//82 
f 81//81 83//83 82//82 
f 82//82 83//83 84//84 
f 83//83 85//85 84//84 
f 84//84 85//85 86//86 
f 85//85 87//87 86//86 
f 86//86 87//87 88//88 
f 87//87 89//89 88//88 
f 88//88 89//89 90//90 
f 89//89 91//91 90//90 
f 90//90 91//91 2//2 
f 91//91 92//92 2//2 
f 2//2 92//92 4//4 
f 92//92 93//93 4//4 
f 4//4 93//93 6//6 
f 93//93 94//94 6//6 
f 6//6 94//94 8//8 
f 94//94 95//95 8//8 
f 8//8 95//95 10//10 
f 95//95 96//96 10//10 
f 10//10 96//96 12//12 
f 96//96 97//97 12//12 
f 12//12 97//97 14//14 
f 97//97 98//98 14//14 
f 14//14 98//98 16//16 
f 98//98 99//99 16//16 
f 16//16 99//99 100//100 
f 99//99 101//101 100//100 
f 100//100 101//101 102//102 
f 101//101 103//103 102//102 
f 102//102 103//103 104//104 
f 103//103 105//105 104//104 
f 104//104 105//105 106//106 
f 105//105 107//107 106//106 
f 106//106 107//107 108//108 
f 107//107 109//109 108//108 
f 108//108 109//109 110//110 
f 109//109 111//111 110//110 
f 110//110 111//111 112//112 
f 111//111 113//113 112//112 
f 112//112 113//113 114//114 
f 113//113 115//115 114//114 
f 114//114 115//115 116//116 
f 115//115 117//117 116//116 
f 116//116 117//117 118//118 
f 117//117 75//75 118//118 
f 118//118 75//75 119//119 
f 75//75 120//120 119//119 
f 119//119 120//120 121//121 
f 120//120 122//122 121//121 
f 121//121 122//122 123//123 
f 122//122 124//124 123//123 
f 123//123 124//124 125//125 
f 124//124 126//126 125//125 
f 125//125 126//126 62//62 
f 126//126 127//127 62//62 
f 62//62 127//127 128//128 
f 127//127 129//129 128//128 
f 128//128 129//129 130//130 
f 129//129 131//131 130//130 
f 130//130 131//131 132//132 
f 131//131 133//133 132//132 
f 132//132 133//133 134//134 
f 133//133 75//75 134//134 
f 134//134 75//75 135//135 
f 75//75 53//53 135//135 
f 135//135 53//53 55//55 
f 53//53 55//55 55//55 
f 55//55 55//55 1//1 
f 55//55 1//1 1//1 
f 1//1 1//1 1//1 
f 1//1 3//3 1//1 
f 1//1 3//3 136//136 
f 3//3 5//5 136//136 
f 136//136 5//5 137//137 
f 5//5 7//7 137//137 
f 137//137 7//7 138//138 
f 7//7 9//9 138//138 
f 138//138 9//9 139//139 
f 9//9 11//11 139//139 
f 139//139 11//11 140//140 
f 11//11 13//13 140//140 
f 140//140 13//13 141//141 
f 13//13 15//15 141//141 
f 141//141 15//15 142//142 
f 15//15 17//17 142//142 
f 142//142 17//17 143//143 
f 17//17 144//144 143//143 
f 143//143 144//144 145//145 
f 144//144 146//146 145//145 
f 145//145 146//146 147//147 
f 146//146 148//148 147//147 
f 147//147 148//148 149//149 
f 148//148 150//150 149//149 
f 149//149 150//150 151//151 
f 150//150 152//152 151//151 
f 151//151 152//152 153//153 
f 152//152 154//154 153//153 
f 153//153 154//154 155//155 
f 154//154 156//156 155//155 
f 155//155 156//156 157//157 
f 156//156 44//44 157//157 
f 157//157 44//44 158//158 
f 44//44 26//26 158//158 
f 158//158 26//26 159//159 
f 26//26 160//160 159//159 
f 159//159 160//160 161//161 
f 160//160 162//162 161//161 
f 161//161 162//162 153//153 
f 162//162 151//151 153//153 
f 153//153 151//151 151//151 
f 151//151 143//143 151//151 
f 151//151 143//143 143//143 
f 143//143 145//145 143//143 
f 143//143 145//145 142//142 
f 145//145 163//163 142//142 
f 142//142 163//163 141//141 
f 163//163 164//164 141//141 
f 141//141 164//164 140//140 
f 164//164 165//165 140//140 
f 140//140 165//165 139//139 
f 165//165 166//166 139//139 
f 139//139 166//166 138//138 
f 166//166 167//167 138//138 
f 138//138 167//167 137//137 
f 167//167 168//168 137//137 
f 137//137 168//168 136//136 
f 168//168 169//169 136//136 
f 136//136 169//169 26//26 
f 169//169 170//170 26//26 
f 26//26 170//170 171//171 
f 170//170 172//172 171//171 
f 171//171 172//172 173//173 
f 172//172 166//166 173//173 
f 173//173 166//166 165//165 
f 166//166 165//165 165//165 
f 165//165 165//165 26//26 
f 165//165 26//26 26//26 
f 26//26 26//26 26//26 
f 26//26 171//171 26//26 
f 26//26 171//171 160//160 
f 171//171 174//174 160//160 
f 160//160 174//174 162//162 
f 174//174 175//175 162//162 
f 162//162 175//175 151//151 
f 175//175 149//149 151//151 
f 151//151 149//149 149//149 
f 149//149 171//171 149//149 
f 149//149 171//171 171//171 
f 171//171 173//173 171//171 
f 171//171 173//173 174//174 
f 173//173 176//176 174//174 
f 174//174 176//176 175//175 
f 176//176 177//177 175//175 
f 175//175 177//177 149//149 
f 177//177 147//147 149//149 
f 149//149 147//147 147//147 
f 147//147 173//173 147//147 
f 147//147 173//173 173//173 
f 173//173 165//165 173//173 
f 173//173 165//165 176//176 
f 165//165 164//164 176//176 
f 176//176 164//164 177//177 
f 164//164 163//163 177//177 
f 177//177 163//163 147//147 
f 163//163 145//145 147//147 
f 147//147 145//145 145//145 
f 145//145 76//76 145//145 
f 145//145 76//76 76//76 
f 76//76 78//78 76//76 
f 76//76 78//78 74//74 
f 78//78 178//178 74//74 
f 74//74 178//178 72//72 
f 178//178 179//179 72//72 
f 72//72 179//179 70//70 
f 179//179 180//180 70//70 
f 70//70 180//180 68//68 
f 180//180 181//181 68//68 
f 68//68 181//181 66//66 
f 181//181 182//182 66//66 
f 66//66 182//182 64//64 
f 182//182 183//183 64//64 
f 64//64 183//183 62//62 
f 183//183 108//108 62//62 
f 62//62 108//108 184//184 
f 108//108 185//185 184//184 
f 184//184 185//185 186//186 
f 185//185 187//187 186//186 
f 186//186 187//187 188//188 
f 187//187 114//114 188//188 
f 188//188 114//114 116//116 
f 114//114 116//116 116//116 
f 116//116 116//116 78//78 
f 116//116 78//78 78//78 
f 78//78 78//78 78//78 
f 78//78 80//80 78//78 
f 78//78 80//80 178//178 
f 80//80 189//189 178//178 
f 178//178 189//189 179//179 
f 189//189 190//190 179//179 
f 179//179 190//190 180//180 
f 190//190 191//191 180//180 
f 180//180 191//191 181//181 
f 191//191 192//192 181//181 
f 181//181 192//192 182//182 
f 192//192 193//193 182//182 
f 182//182 193//193 183//183 
f 193//193 108//108 183//183 
f 183//183 108//108 108//108 
f 108//108 80//80 108//108 
f 108//108 80//80 80//80 
f 80//80 82//82 80//80 
f 80//80 82//82 189//189 
f 82//82 194//194 189//189 
f 189//189 194//194 190//190 
f 194//194 195//195 190//190 
f 190//190 195//195 191//191 
f 195//195 196//196 191//191 
f 191//191 196//196 192//192 
f 196//196 108//108 192//192 
f 192//192 108//108 193//193 
f 108//108 193//193 193//193 
f 193//193 193//193 82//82 
f 193//193 82//82 82//82 
f 82//82 82//82 82//82 
f 82//82 84//84 82//82 
f 82//82 84//84 194//194 
f 84//84 197//197 194//194 
f 194//194 197//197 195//195 
f 197//197 198//198 195//195 
f 195//195 198//198 196//196 
f 198//198 199//199 196//196 
f 196//196 199//199 108//108 
f 199//199 200//200 108//108 
f 108//108 200//200 90//90 
f 200//200 201//201 90//90 
f 90//90 201//201 88//88 
f 201//201 202//202 88//88 
f 88//88 202//202 86//86 
f 202//202 197//197 86//86 
f 86//86 197//197 84//84 
f 197//197 84//84 84//84 
f 84//84 84//84 197//197 
f 84//84 197//197 197//197 
f 197//197 197//197 197//197 
f 197//197 202//202 197//197 
f 197//197 202//202 198//198 
f 202//202 200//200 198//198 
f 198//198 200//200 199//199 
f 200//200 199//199 199//199 
f 199//199 199//199 44//44 
f 199//199 44//44 44//44 
f 44//44 44//44 44//44 
f 44//44 42//42 44//44 
f 44//44 42//42 26//26 
f 42//42 203//203 26//26 
f 26//26 203//203 204//204 
f 203//203 205//205 204//204 
f 204//204 205//205 206//206 
f 205//205 207//207 206//206 
f 206//206 207//207 32//32 
f 207//207 34//34 32//32 
f 32//32 34//34 34//34 
f 34//34 203//203 34//34 
f 34//34 203//203 203//203 
f 203//203 40//40 203//203 
f 203//203 40//40 205//205 
f 40//40 38//38 205//205 
f 205//205 38//38 207//207 
f 38//38 36//36 207//207 
f 207//207 36//36 34//34 
f 36//36 34//34 34//34 
f 34//34 34//34 159//159 
f 34//34 159//159 159//159 
f 159//159 159//159 159//159 
f 159//159 161//161 159//159 
f 159//159 161//161 158//158 
f 161//161 155//155 158//158 
f 158//158 155//155 157//157 
f 155//155 157//157 157//157 
f 157//157 157//157 26//26 
f 157//157 26//26 26//26 
f 26//26 26//26 26//26 
f 26//26 24//24 26//26 
f 26//26 24//24 136//136 
f 24//24 1//1 136//136 
f 136//136 1//1 1//1 
f 1//1 24//24 1//1 
f 1//1 24//24 24//24 
f 24//24 22//22 24//24 
f 24//24 22//22 1//1 
f 22//22 208//208 1//1 
f 1//1 208//208 209//209 
f 208//208 210//210 209//209 
f 209//209 210//210 211//211 
f 210//210 104//104 211//211 
f 211//211 104//104 106//106 
f 104//104 106//106 106//106 
f 106//106 106//106 106//106 
f 106//106 108//108 106//106 
f 106//106 108//108 211//211 
f 108//108 90//90 211//211 
f 211//211 90//90 209//209 
f 90//90 2//2 209//209 
f 209//209 2//2 1//1 
f 2//2 1//1 1//1 
f 1//1 1//1 32//32 
f 1//1 32//32 32//32 
f 32//32 32//32 32//32 
f 32//32 30//30 32//32 
f 32//32 30//30 206//206 
f 30//30 212//212 206//206 
f 206//206 212//212 204//204 
f 212//212 26//26 204//204 
f 204//204 26//26 26//26 
f 26//26 212//212 26//26 
f 26//26 212//212 28//28 
f 212//212 30//30 28//28 
f 28//28 30//30 30//30 
f 30//30 44//44 30//30 
f 30//30 44//44 44//44 
f 44//44 156//156 44//44 
f 44//44 156//156 63//63 
f 156//156 213//213 63//63 
f 63//63 213//213 65//65 
f 213//213 214//214 65//65 
f 65//65 214//214 67//67 
f 214//214 215//215 67//67 
f 67//67 215//215 69//69 
f 215//215 216//216 69//69 
f 69//69 216//216 71//71 
f 216//216 217//217 71//71 
f 71//71 217//217 73//73 
f 217//217 53//53 73//73 
f 73//73 53//53 75//75 
f 53//53 75//75 75//75 
f 75//75 75//75 156//156 
f 75//75 156//156 156//156 
f 156//156 156//156 156//156 
f 156//156 154//154 156//156 
f 156//156 154//154 213//213 
f 154//154 218//218 213//213 
f 213//213 218//218 214//214 
f 218//218 219//219 214//214 
f 214//214 219//219 215//215 
f 219//219 220//220 215//215 
f 215//215 220//220 216//216 
f 220//220 221//221 216//216 
f 216//216 221//221 217//217 
f 221//221 222//222 217//217 
f 217//217 222//222 53//53 
f 222//222 223//223 53//53 
f 53//53 223//223 35//35 
f 223//223 224//224 35//35 
f 35//35 224//224 225//225 
f 224//224 226//226 225//225 
f 225//225 226//226 227//227 
f 226//226 220//220 227//227 
f 227//227 220//220 219//219 
f 220//220 219//219 219//219 
f 219//219 219//219 219//219 
f 219//219 228//228 219//219 
f 219//219 228//228 227//227 
f 228//228 229//229 227//227 
f 227//227 229//229 225//225 
f 229//229 230//230 225//225 
f 225//225 230//230 35//35 
f 230//230 231//231 35//35 
f 35//35 231//231 144//144 
f 231//231 146//146 144//144 
f 144//144 146//146 146//146 
f 146//146 144//144 146//146 
f 146//146 144//144 144//144 
f 144//144 17//17 144//144 
f 144//144 17//17 35//35 
f 17//17 19//19 35//35 
f 35//35 19//19 232//232 
f 19//19 21//21 232//232 
f 232//232 21//21 233//233 
f 21//21 23//23 233//233 
f 233//233 23//23 234//234 
f 23//23 25//25 234//234 
f 234//234 25//25 27//27 
f 25//25 27//27 27//27 
f 27//27 27//27 27//27 
f 27//27 29//29 27//27 
f 27//27 29//29 234//234 
f 29//29 235//235 234//234 
f 234//234 235//235 233//233 
f 235//235 236//236 233//233 
f 233//233 236//236 232//232 
f 236//236 35//35 232//232 
f 232//232 35//35 35//35 
f 35//35 29//29 35//35 
f 35//35 29//29 29//29 
f 29//29 31//31 29//29 
f 29//29 31//31 235//235 
f 31//31 237//237 235//235 
f 235//235 237//237 236//236 
f 237//237 35//35 236//236 
f 236//236 35//35 35//35 
f 35//35 237//237 35//35 
f 35//35 237//237 33//33 
f 237//237 31//31 33//33 
f 33//33 31//31 31//31 
f 31//31 154//154 31//31 
f 31//31 154//154 154//154 
f 154//154 152//152 154//154 
f 154//154 152//152 218//218 
f 152//152 228//228 218//218 
f 218//218 228//228 219//219 
f 228//228 219//219 219//219 
f 219//219 219//219 152//152 
f 219//219 152//152 152//152 
f 152//152 152//152 152//152 
f 152//152 150//150 152//152 
f 152//152 150//150 228//228 
f 150//150 229//229 228//228 
f 228//228 229//229 229//229 
f 229//229 150//150 229//229 
f 229//229 150//150 150//150 
f 150//150 148//148 150//150 
f 150//150 148//148 229//229 
f 148//148 230//230 229//229 
f 229//229 230//230 230//230 
f 230//230 148//148 230//230 
f 230//230 148//148 148//148 
f 148//148 146//146 148//148 
f 148//148 146//146 230//230 
f 146//146 231//231 230//230 
f 230//230 231//231 231//231 
f 231//231 220//220 231//231 
f 231//231 220//220 220//220 
f 220//220 226//226 220//220 
f 220//220 226//226 221//221 
f 226//226 223//223 221//221 
f 221//221 223//223 222//222 
f 223//223 222//222 222//222 
f 222//222 222//222 114//114 
f 222//222 114//114 114//114 
f 114//114 114//114 114//114 
f 114//114 187//187 114//114 
f 114//114 187//187 112//112 
f 187//187 238//238 112//112 
f 112//112 238//238 110//110 
f 238//238 108//108 110//110 
f 110//110 108//108 108//108 
f 108//108 238//238 108//108 
f 108//108 238//238 185//185 
f 238//238 187//187 185//185 
f 185//185 187//187 187//187 
f 187//187 116//116 187//187 
f 187//187 116//116 116//116 
f 116//116 118//118 116//116 
f 116//116 118//118 188//188 
f 118//118 239//239 188//188 
f 188//188 239//239 186//186 
f 239//239 240//240 186//186 
f 186//186 240//240 184//184 
f 240//240 241//241 184//184 
f 184//184 241//241 62//62 
f 241//241 125//125 62//62 
f 62//62 125//125 125//125 
f 125//125 241//241 125//125 
f 125//125 241//241 123//123 
f 241//241 240//240 123//123 
f 123//123 240//240 121//121 
f 240//240 239//239 121//121 
f 121//121 239//239 119//119 
f 239//239 118//118 119//119 
f 119//119 118//118 118//118 
f 118//118 35//35 118//118 
f 118//118 35//35 35//35 
f 35//35 37//37 35//35 
f 35//35 37//37 53//53 
f 37//37 242//242 53//53 
f 53//53 242//242 243//243 
f 242//242 244//244 243//243 
f 243//243 244//244 245//245 
f 244//244 246//246 245//245 
f 245//245 246//246 47//47 
f 246//246 45//45 47//47 
f 47//47 45//45 45//45 
f 45//45 242//242 45//45 
f 45//45 242//242 242//242 
f 242//242 39//39 242//242 
f 242//242 39//39 244//244 
f 39//39 41//41 244//244 
f 244//244 41//41 246//246 
f 41//41 43//43 246//246 
f 246//246 43//43 45//45 
f 43//43 45//45 45//45 
f 45//45 45//45 104//104 
f 45//45 104//104 104//104 
f 104//104 104//104 104//104 
f 104//104 210//210 104//104 
f 104//104 210//210 102//102 
f 210//210 247//247 102//102 
f 102//102 247//247 100//100 
f 247//247 18//18 100//100 
f 100//100 18//18 16//16 
f 18//18 16//16 16//16 
f 16//16 16//16 18//18 
f 16//16 18//18 18//18 
f 18//18 18//18 18//18 
f 18//18 247//247 18//18 
f 18//18 247//247 20//20 
f 247//247 208//208 20//20 
f 20//20 208//208 22//22 
f 208//208 22//22 22//22 
f 22//22 22//22 170//170 
f 22//22 170//170 170//170 
f 170//170 170//170 170//170 
f 170//170 169//169 170//170 
f 170//170 169//169 172//172 
f 169//169 167//167 172//172 
f 172//172 167//167 166//166 
f 167//167 166//166 166//166 
f 166//166 166//166 98//98 
f 166//166 98//98 98//98 
f 98//98 98//98 98//98 
f 98//98 97//97 98//98 
f 98//98 97//97 99//99 
f 97//97 248//248 99//99 
f 99//99 248//248 249//249 
f 248//248 250//250 249//249 
f 249//249 250//250 251//251 
f 250//250 252//252 251//251 
f 251//251 252//252 253//253 
f 252//252 254//254 253//253 
f 253//253 254//254 117//117 
f 254//254 255//255 117//117 
f 117//117 255//255 256//256 
f 255//255 79//79 256//256 
f 256//256 79//79 77//77 
f 79//79 77//77 77//77 
f 77//77 77//77 79//79 
f 77//77 79//79 79//79 
f 79//79 79//79 79//79 
f 79//79 255//255 79//79 
f 79//79 255//255 81//81 
f 255//255 257//257 81//81 
f 81//81 257//257 83//83 
f 257//257 258//258 83//83 
f 83//83 258//258 85//85 
f 258//258 259//259 85//85 
f 85//85 259//259 87//87 
f 259//259 260//260 87//87 
f 87//87 260//260 89//89 
f 260//260 92//92 89//89 
f 89//89 92//92 91//91 
f 92//92 91//91 91//91 
f 91//91 91//91 92//92 
f 91//91 92//92 92//92 
f 92//92 92//92 92//92 
f 92//92 260//260 92//92 
f 92//92 260//260 93//93 
f 260//260 261//261 93//93 
f 93//93 261//261 94//94 
f 261//261 262//262 94//94 
f 94//94 262//262 95//95 
f 262//262 263//263 95//95 
f 95//95 263//263 96//96 
f 263//263 248//248 96//96 
f 96//96 248//248 97//97 
f 248//248 97//97 97//97 
f 97//97 97//97 248//248 
f 97//97 248//248 248//248 
f 248//248 248//248 248//248 
f 248//248 263//263 248//248 
f 248//248 263//263 250//250 
f 263//263 264//264 250//250 
f 250//250 264//264 252//252 
f 264//264 265//265 252//252 
f 252//252 265//265 254//254 
f 265//265 257//257 254//254 
f 254//254 257//257 255//255 
f 257//257 255//255 255//255 
f 255//255 255//255 257//257 
f 255//255 257//257 257//257 
f 257//257 257//257 257//257 
f 257//257 265//265 257//257 
f 257//257 265//265 258//258 
f 265//265 266//266 258//258 
f 258//258 266//266 259//259 
f 266//266 261//261 259//259 
f 259//259 261//261 260//260 
f 261//261 260//260 260//260 
f 260//260 260//260 261//261 
f 260//260 261//261 261//261 
f 261//261 261//261 261//261 
f 261//261 266//266 261//261 
f 261//261 266//266 262//262 
f 266//266 264//264 262//262 
f 262//262 264//264 263//263 
f 264//264 263//263 263//263 
f 263//263 263//263 249//249 
f 263//263 249//249 249//249 
f 249//249 249//249 249//249 
f 249//249 251//251 249//249 
f 249//249 251//251 99//99 
f 251//251 117//117 99//99 
f 99//99 117//117 101//101 
f 117//117 267//267 101//101 
f 101//101 267//267 103//103 
f 267//267 268//268 103//103 
f 103//103 268//268 105//105 
f 268//268 269//269 105//105 
f 105//105 269//269 107//107 
f 269//269 109//109 107//107 
f 107//107 109//109 109//109 
f 109//109 269//269 109//109 
f 109//109 269//269 111//111 
f 269//269 270//270 111//111 
f 111//111 270//270 113//113 
f 270//270 271//271 113//113 
f 113//113 271//271 115//115 
f 271//271 117//117 115//115 
f 115//115 117//117 117//117 
f 117//117 269//269 117//117 
f 117//117 269//269 269//269 
f 269//269 268//268 269//269 
f 269//269 268//268 270//270 
f 268//268 272//272 270//270 
f 270//270 272//272 271//271 
f 272//272 117//117 271//271 
f 271//271 117//117 117//117 
f 117//117 272//272 117//117 
f 117//117 272//272 267//267 
f 272//272 268//268 267//267 
f 267//267 268//268 268//268 
f 268//268 256//256 268//268 
f 268//268 256//256 256//256 
f 256//256 77//77 256//256 
f 256//256 77//77 117//117 
f 77//77 75//75 117//117 
f 117//117 75//75 75//75 
f 75//75 55//55 75//75 
f 75//75 55//55 55//55 
f 55//55 57//57 55//55 
f 55//55 57//57 135//135 
f 57//57 273//273 135//135 
f 135//135 273//273 134//134 
f 273//273 132//132 134//134 
f 134//134 132//132 132//132 
f 132//132 57//57 132//132 
f 132//132 57//57 57//57 
f 57//57 59//59 57//57 
f 57//57 59//59 273//273 
f 59//59 274//274 273//273 
f 273//273 274//274 132//132 
f 274//274 130//130 132//132 
f 132//132 130//130 130//130 
f 130//130 59//59 130//130 
f 130//130 59//59 59//59 
f 59//59 61//61 59//59 
f 59//59 61//61 274//274 
f 61//61 275//275 274//274 
f 274//274 275//275 130//130 
f 275//275 128//128 130//130 
f 130//130 128//128 128//128 
f 128//128 275//275 128//128 
f 128//128 275//275 62//62 
f 275//275 61//61 62//62 
f 62//62 61//61 61//61 
f 61//61 47//47 61//61 
f 61//61 47//47 47//47 
f 47//47 49//49 47//47 
f 47//47 49//49 245//245 
f 49//49 276//276 245//245 
f 245//245 276//276 243//243 
f 276//276 53//53 243//243 
f 243//243 53//53 53//53 
f 53//53 276//276 53//53 
f 53//53 276//276 51//51 
f 276//276 49//49 51//51 
f 51//51 49//49 49//49 
f 49//49 52//52 49//49 
f 49//49 52//52 52//52 
f 52//52 50//50 52//52 
f 52//52 50//50 277//277 
f 50//50 278//278 277//277 
f 277//277 278//278 279//279 
f 278//278 280//280 279//279 
f 279//279 280//280 281//281 
f 280//280 44//44 281//281 
f 281//281 44//44 60//60 
f 44//44 60//60 60//60 
f 60//60 60//60 281//281 
f 60//60 281//281 281//281 
f 281//281 281//281 281//281 
f 281//281 58//58 281//281 
f 281//281 58//58 279//279 
f 58//58 56//56 279//279 
f 279//279 56//56 277//277 
f 56//56 54//54 277//277 
f 277//277 54//54 52//52 
f 54//54 52//52 52//52 
f 52//52 52//52 50//50 
f 52//52 50//50 50//50 
f 50//50 50//50 50//50 
f 50//50 48//48 50//50 
f 50//50 48//48 278//278 
f 48//48 282//282 278//278 
f 278//278 282//282 280//280 
f 282//282 44//44 280//280 
f 280//280 44//44 44//44 
f 44//44 282//282 44//44 
f 44//44 282//282 46//46 
f 282//282 48//48 46//46 
f 46//46 48//48 48//48 
f 48//48 126//126 48//48 
f 48//48 126//126 126//126 
f 126//126 124//124 126//126 
f 126//126 124//124 283//283 
f 124//124 284//284 283//283 
f 283//283 284//284 285//285 
f 284//284 286//286 285//285 
f 285//285 286//286 287//287 
f 286//286 75//75 287//287 
f 287//287 75//75 133//133 
f 75//75 133//133 133//133 
f 133//133 133//133 287//287 
f 133//133 287//287 287//287 
f 287//287 287//287 287//287 
f 287//287 131//131 287//287 
f 287//287 131//131 285//285 
f 131//131 129//129 285//285 
f 285//285 129//129 283//283 
f 129//129 127//127 283//283 
f 283//283 127//127 126//126 
f 127//127 126//126 126//126 
f 126//126 126//126 124//124 
f 126//126 124//124 124//124 
f 124//124 124//124 124//124 
f 124//124 122//122 124//124 
f 124//124 122//122 284//284 
f 122//122 288//288 284//284 
f 284//284 288//288 286//286 
f 288//288 75//75 286//286 
f 286//286 75//75 75//75 
f 75//75 288//288 75//75 
f 75//75 288//288 120//120 
f 288//288 122//122 120//120 
f 251//251 253//253 117//117 
f 247//247 210//210 208//208 
f 155//155 161//161 153//153 
f 265//265 264//264 266//266 
f 242//242 37//37 39//39 
f 287//287 133//133 131//131 
f 281//281 60//60 58//58 
f 203//203 42//42 40//40 
f 169//169 168//168 167//167 
f 224//224 223//223 226//226 
f 201//201 200//200 202//202 

