mtllib model_15.mtl
o model_15
v 0.005603022873401642 0.028085799887776375 0.600814163684845 
v 0.00003327120066387579 0.02862919121980667 0.600814163684845 
v 0.010969002731144428 0.026455629616975784 0.600814163684845 
v -0.010970384813845158 0.026455629616975784 0.600814163684845 
v -0.026457011699676514 0.010969002731144428 0.600814163684845 
v -0.020275944843888283 0.020274562761187553 0.600814163684845 
v -0.023807981982827187 0.01592743955552578 0.600814163684845 
v -0.010970384813845158 -0.026457011699676514 0.600814163684845 
v 0.026455629616975784 -0.010970384813845158 0.600814163684845 
v 0.026455629616975784 0.010969002731144428 0.600814163684845 
v 0.02862919121980667 0.00003327120066387579 0.600814163684845 
v 0.028085799887776375 0.005603022873401642 0.600814163684845 
v 0.010969002731144428 -0.026457011699676514 0.600814163684845 
v 0.020274562761187553 -0.020275944843888283 0.600814163684845 
v 0.023806601762771606 -0.01592882163822651 0.600814163684845 
v 0.00003327120066387579 -0.0286305733025074 0.600814163684845 
v 0.005603022873401642 -0.028087181970477104 0.600814163684845 
v 0.01592743955552578 0.023806601762771606 0.600814163684845 
v 0.020274562761187553 0.020274562761187553 0.600814163684845 
v 0.023806601762771606 0.01592743955552578 0.600814163684845 
v -0.028087181970477104 0.005603022873401642 0.600814163684845 
v -0.0286305733025074 0.00003327120066387579 0.600814163684845 
v -0.026457011699676514 -0.010970384813845158 0.600814163684845 
v -0.020275944843888283 -0.020275944843888283 0.600814163684845 
v -0.01592882163822651 -0.023807981982827187 0.600814163684845 
v -0.01592882163822651 -0.023807981982827187 0.600814163684845 
v -0.019528783857822418 -0.0472416952252388 0.589073657989502 
v -0.010970384813845158 -0.026457011699676514 0.600814163684845 
v -0.00995152723044157 -0.050094492733478546 0.589073657989502 
v -0.005604404024779797 -0.028087181970477104 0.600814163684845 
v 0.00003327120066387579 -0.051113348454236984 0.589073657989502 
v 0.00003327120066387579 -0.0286305733025074 0.600814163684845 
v 0.009950146079063416 -0.050094492733478546 0.589073657989502 
v 0.005603022873401642 -0.028087181970477104 0.600814163684845 
v 0.01952740177512169 -0.0472416952252388 0.589073657989502 
v 0.010969002731144428 -0.026457011699676514 0.600814163684845 
v 0.028357496485114098 -0.04248702898621559 0.589073657989502 
v 0.01592743955552578 -0.023807981982827187 0.600814163684845 
v 0.036100808531045914 -0.03610219061374664 0.589073657989502 
v 0.020274562761187553 -0.020275944843888283 0.600814163684845 
v 0.04248564690351486 -0.028358876705169678 0.589073657989502 
v 0.023806601762771606 -0.01592882163822651 0.600814163684845 
v 0.04724031314253807 -0.019528783857822418 0.589073657989502 
v 0.026455629616975784 -0.010970384813845158 0.600814163684845 
v 0.05009311065077782 -0.00995152723044157 0.589073657989502 
v 0.028085799887776375 -0.005604404024779797 0.600814163684845 
v 0.05111197009682655 0.00003327120066387579 0.589073657989502 
v 0.02862919121980667 0.00003327120066387579 0.600814163684845 
v 0.05009311065077782 0.009950146079063416 0.589073657989502 
v 0.028085799887776375 0.005603022873401642 0.600814163684845 
v 0.04724031314253807 0.01952740177512169 0.589073657989502 
v 0.026455629616975784 0.010969002731144428 0.600814163684845 
v 0.04248564690351486 0.028357496485114098 0.589073657989502 
v 0.023806601762771606 0.01592743955552578 0.600814163684845 
v 0.036100808531045914 0.036100808531045914 0.589073657989502 
v 0.020274562761187553 0.020274562761187553 0.600814163684845 
v 0.028357496485114098 0.04248564690351486 0.589073657989502 
v 0.01592743955552578 0.023806601762771606 0.600814163684845 
v 0.01952740177512169 0.04724031314253807 0.589073657989502 
v 0.010969002731144428 0.026455629616975784 0.600814163684845 
v 0.009950146079063416 0.05009311065077782 0.589073657989502 
v 0.005603022873401642 0.028085799887776375 0.600814163684845 
v 0.00003327120066387579 0.05111197009682655 0.589073657989502 
v 0.00003327120066387579 0.02862919121980667 0.600814163684845 
v -0.00995152723044157 0.05009311065077782 0.589073657989502 
v -0.005604404024779797 0.028085799887776375 0.600814163684845 
v -0.019528783857822418 0.04724031314253807 0.589073657989502 
v -0.010970384813845158 0.026455629616975784 0.600814163684845 
v -0.028358876705169678 0.04248564690351486 0.589073657989502 
v -0.01592882163822651 0.023806601762771606 0.600814163684845 
v -0.03610219061374664 0.036100808531045914 0.589073657989502 
v -0.020275944843888283 0.020274562761187553 0.600814163684845 
v -0.04248702898621559 0.028357496485114098 0.589073657989502 
v -0.023807981982827187 0.01592743955552578 0.600814163684845 
v -0.0472416952252388 0.01952740177512169 0.589073657989502 
v -0.026457011699676514 0.010969002731144428 0.600814163684845 
v -0.050094492733478546 0.009950146079063416 0.589073657989502 
v -0.028087181970477104 0.005603022873401642 0.600814163684845 
v -0.051113348454236984 0.00003327120066387579 0.589073657989502 
v -0.0286305733025074 0.00003327120066387579 0.600814163684845 
v -0.050094492733478546 -0.00995152723044157 0.589073657989502 
v -0.028087181970477104 -0.005604404024779797 0.600814163684845 
v -0.0472416952252388 -0.019528783857822418 0.589073657989502 
v -0.026457011699676514 -0.010970384813845158 0.600814163684845 
v -0.04248702898621559 -0.028358876705169678 0.589073657989502 
v -0.023807981982827187 -0.01592882163822651 0.600814163684845 
v -0.03610219061374664 -0.03610219061374664 0.589073657989502 
v -0.020275944843888283 -0.020275944843888283 0.600814163684845 
v -0.028358876705169678 -0.04248702898621559 0.589073657989502 
v -0.032977696508169174 -0.04934732988476753 0.58261638879776 
v -0.022721201181411743 -0.054849158972501755 0.58261638879776 
v -0.011581698432564735 -0.058245349675416946 0.58261638879776 
v 0.00003327120066387579 -0.059400055557489395 0.58261638879776 
v 0.01158031728118658 -0.058245349675416946 0.58261638879776 
v 0.022719820961356163 -0.054849158972501755 0.58261638879776 
v 0.032976314425468445 -0.04934732988476753 0.58261638879776 
v 0.04201018065214157 -0.0420115627348423 0.58261638879776 
v 0.04941387474536896 -0.032977696508169174 0.58261638879776 
v 0.054847776889801025 -0.022721201181411743 0.58261638879776 
v 0.05824396759271622 -0.011581698432564735 0.58261638879776 
v 0.059398673474788666 0.00003327120066387579 0.58261638879776 
v 0.05824396759271622 0.01158031728118658 0.58261638879776 
v 0.054847776889801025 0.022719820961356163 0.58261638879776 
v 0.04941387474536896 0.032976314425468445 0.58261638879776 
v 0.04201018065214157 0.04201018065214157 0.58261638879776 
v 0.032976314425468445 0.04941387474536896 0.58261638879776 
v 0.022719820961356163 0.054847776889801025 0.58261638879776 
v 0.01158031728118658 0.05824396759271622 0.58261638879776 
v 0.00003327120066387579 0.059398673474788666 0.58261638879776 
v -0.011581698432564735 0.05824396759271622 0.58261638879776 
v -0.022721201181411743 0.054847776889801025 0.58261638879776 
v -0.032977696508169174 0.04941387474536896 0.58261638879776 
v -0.0420115627348423 0.04201018065214157 0.58261638879776 
v -0.04934732988476753 0.032976314425468445 0.58261638879776 
v -0.054849158972501755 0.022719820961356163 0.58261638879776 
v -0.058245349675416946 0.01158031728118658 0.58261638879776 
v -0.059400055557489395 0.00003327120066387579 0.58261638879776 
v -0.058245349675416946 -0.011581698432564735 0.58261638879776 
v -0.054849158972501755 -0.022721201181411743 0.58261638879776 
v -0.04934732988476753 -0.032977696508169174 0.58261638879776 
v -0.0420115627348423 -0.0420115627348423 0.58261638879776 
v -0.04656245559453964 -0.04656245559453964 0.5732240080833435 
v -0.036577656865119934 -0.05471331253647804 0.5732240080833435 
v -0.025166459381580353 -0.06075853109359741 0.5732240080833435 
v -0.012872250750660896 -0.06456226110458374 0.5732240080833435 
v 0.00003327120066387579 -0.06578489392995834 0.5732240080833435 
v 0.012870869599282742 -0.06456226110458374 0.5732240080833435 
v 0.025165077298879623 -0.06075853109359741 0.5732240080833435 
v 0.036576274782419205 -0.05471331253647804 0.5732240080833435 
v 0.04656107351183891 -0.04656245559453964 0.5732240080833435 
v 0.05471193045377731 -0.036577656865119934 0.5732240080833435 
v 0.06075714901089668 -0.025166459381580353 0.5732240080833435 
v 0.06456088274717331 -0.012872250750660896 0.5732240080833435 
v 0.06578350812196732 0.00003327120066387579 0.5732240080833435 
v 0.06456088274717331 0.012870869599282742 0.5732240080833435 
v 0.06075714901089668 0.025165077298879623 0.5732240080833435 
v 0.05471193045377731 0.036576274782419205 0.5732240080833435 
v 0.04656107351183891 0.04656107351183891 0.5732240080833435 
v 0.036576274782419205 0.05471193045377731 0.5732240080833435 
v 0.025165077298879623 0.06075714901089668 0.5732240080833435 
v 0.012870869599282742 0.06456088274717331 0.5732240080833435 
v 0.00003327120066387579 0.06578350812196732 0.5732240080833435 
v -0.012872250750660896 0.06456088274717331 0.5732240080833435 
v -0.025166459381580353 0.06075714901089668 0.5732240080833435 
v -0.036577656865119934 0.05471193045377731 0.5732240080833435 
v -0.04656245559453964 0.04656107351183891 0.5732240080833435 
v -0.05471331253647804 0.036576274782419205 0.5732240080833435 
v -0.06075853109359741 0.025165077298879623 0.5732240080833435 
v -0.06456226110458374 0.012870869599282742 0.5732240080833435 
v -0.06578489392995834 0.00003327120066387579 0.5732240080833435 
v -0.06456226110458374 -0.012872250750660896 0.5732240080833435 
v -0.06075853109359741 -0.025166459381580353 0.5732240080833435 
v -0.05471331253647804 -0.036577656865119934 0.5732240080833435 
v -0.0577019602060318 -0.03854744881391525 0.5626575350761414 
v -0.04907563701272011 -0.04907563701272011 0.5626575350761414 
v -0.03854744881391525 -0.0577019602060318 0.5626575350761414 
v -0.02652493491768837 -0.06408679485321045 0.5626575350761414 
v -0.013551488518714905 -0.06802637875080109 0.5626575350761414 
v 0.00003327120066387579 -0.0693848505616188 0.5626575350761414 
v 0.01355010736733675 -0.06802637875080109 0.5626575350761414 
v 0.02652355283498764 -0.06408679485321045 0.5626575350761414 
v 0.03854606673121452 -0.0577019602060318 0.5626575350761414 
v 0.04907425493001938 -0.04907563701272011 0.5626575350761414 
v 0.05770057812333107 -0.03854744881391525 0.5626575350761414 
v 0.06408541649580002 -0.02652493491768837 0.5626575350761414 
v 0.06802499294281006 -0.013551488518714905 0.5626575350761414 
v 0.06938347220420837 0.00003327120066387579 0.5626575350761414 
v 0.06802499294281006 0.01355010736733675 0.5626575350761414 
v 0.06408541649580002 0.02652355283498764 0.5626575350761414 
v 0.05770057812333107 0.03854606673121452 0.5626575350761414 
v 0.04907425493001938 0.04907425493001938 0.5626575350761414 
v 0.03854606673121452 0.05770057812333107 0.5626575350761414 
v 0.02652355283498764 0.06408541649580002 0.5626575350761414 
v 0.01355010736733675 0.06802499294281006 0.5626575350761414 
v 0.00003327120066387579 0.06938347220420837 0.5626575350761414 
v -0.013551488518714905 0.06802499294281006 0.5626575350761414 
v -0.02652493491768837 0.06408541649580002 0.5626575350761414 
v -0.03854744881391525 0.05770057812333107 0.5626575350761414 
v -0.04907563701272011 0.04907425493001938 0.5626575350761414 
v -0.0577019602060318 0.03854606673121452 0.5626575350761414 
v -0.06408679485321045 0.02652355283498764 0.5626575350761414 
v -0.06802637875080109 0.01355010736733675 0.5626575350761414 
v -0.0693848505616188 0.00003327120066387579 0.5626575350761414 
v -0.06802637875080109 -0.013551488518714905 0.5626575350761414 
v -0.06408679485321045 -0.02652493491768837 0.5626575350761414 
v -0.06422264128923416 -0.026592858135700226 0.552678108215332 
v -0.05783780664205551 -0.03861537203192711 0.552678108215332 
v -0.049143560230731964 -0.049143560230731964 0.552678108215332 
v -0.03861537203192711 -0.05783780664205551 0.552678108215332 
v -0.026592858135700226 -0.06422264128923416 0.552678108215332 
v -0.013551488518714905 -0.0681622251868248 0.552678108215332 
v 0.00003327120066387579 -0.06952069699764252 0.552678108215332 
v 0.01355010736733675 -0.0681622251868248 0.552678108215332 
v 0.026591477915644646 -0.06422264128923416 0.552678108215332 
v 0.03861398994922638 -0.05783780664205551 0.552678108215332 
v 0.049142178148031235 -0.049143560230731964 0.552678108215332 
v 0.05783642455935478 -0.03861537203192711 0.552678108215332 
v 0.06422126293182373 -0.026592858135700226 0.552678108215332 
v 0.06816083937883377 -0.013551488518714905 0.552678108215332 
v 0.06951931864023209 0.00003327120066387579 0.552678108215332 
v 0.06816083937883377 0.01355010736733675 0.552678108215332 
v 0.06422126293182373 0.026591477915644646 0.552678108215332 
v 0.05783642455935478 0.03861398994922638 0.552678108215332 
v 0.049142178148031235 0.049142178148031235 0.552678108215332 
v 0.03861398994922638 0.05783642455935478 0.552678108215332 
v 0.026591477915644646 0.06422126293182373 0.552678108215332 
v 0.01355010736733675 0.06816083937883377 0.552678108215332 
v 0.00003327120066387579 0.06951931864023209 0.552678108215332 
v -0.013551488518714905 0.06816083937883377 0.552678108215332 
v -0.026592858135700226 0.06422126293182373 0.552678108215332 
v -0.03861537203192711 0.05783642455935478 0.552678108215332 
v -0.049143560230731964 0.049142178148031235 0.552678108215332 
v -0.05783780664205551 0.03861398994922638 0.552678108215332 
v -0.06422264128923416 0.026591477915644646 0.552678108215332 
v -0.0681622251868248 0.01355010736733675 0.552678108215332 
v -0.06952069699764252 0.00003327120066387579 0.552678108215332 
v -0.0681622251868248 -0.013551488518714905 0.552678108215332 
v -0.026457011699676514 -0.010970384813845158 0.3002573847770691 
v -0.023807981982827187 -0.01592882163822651 0.3002573847770691 
v -0.020275944843888283 -0.020275944843888283 0.3002573847770691 
v -0.01592882163822651 -0.023807981982827187 0.3002573847770691 
v -0.010970384813845158 -0.026457011699676514 0.3002573847770691 
v -0.005604404024779797 -0.028087181970477104 0.3002573847770691 
v 0.00003327120066387579 -0.0286305733025074 0.3002573847770691 
v 0.005603022873401642 -0.028087181970477104 0.3002573847770691 
v 0.010969002731144428 -0.026457011699676514 0.3002573847770691 
v 0.01592743955552578 -0.023807981982827187 0.3002573847770691 
v 0.020274562761187553 -0.020275944843888283 0.3002573847770691 
v 0.023806601762771606 -0.01592882163822651 0.3002573847770691 
v 0.026455629616975784 -0.010970384813845158 0.3002573847770691 
v 0.028085799887776375 -0.005604404024779797 0.3002573847770691 
v 0.02862919121980667 0.00003327120066387579 0.3002573847770691 
v 0.028085799887776375 0.005603022873401642 0.3002573847770691 
v 0.026455629616975784 0.010969002731144428 0.3002573847770691 
v 0.023806601762771606 0.01592743955552578 0.3002573847770691 
v 0.020274562761187553 0.020274562761187553 0.3002573847770691 
v 0.01592743955552578 0.023806601762771606 0.3002573847770691 
v 0.010969002731144428 0.026455629616975784 0.3002573847770691 
v 0.005603022873401642 0.028085799887776375 0.3002573847770691 
v 0.00003327120066387579 0.02862919121980667 0.3002573847770691 
v -0.005604404024779797 0.028085799887776375 0.3002573847770691 
v -0.010970384813845158 0.026455629616975784 0.3002573847770691 
v -0.01592882163822651 0.023806601762771606 0.3002573847770691 
v -0.020275944843888283 0.020274562761187553 0.3002573847770691 
v -0.023807981982827187 0.01592743955552578 0.3002573847770691 
v -0.026457011699676514 0.010969002731144428 0.3002573847770691 
v -0.028087181970477104 0.005603022873401642 0.3002573847770691 
v -0.0286305733025074 0.00003327120066387579 0.3002573847770691 
v -0.028087181970477104 -0.005604404024779797 0.3002573847770691 
v -0.026457011699676514 -0.010970384813845158 0.2943871319293976 
v -0.023807981982827187 -0.01592882163822651 0.2943871319293976 
v -0.020275944843888283 -0.020275944843888283 0.2943871319293976 
v -0.01592882163822651 -0.023807981982827187 0.2943871319293976 
v -0.010970384813845158 -0.026457011699676514 0.2943871319293976 
v -0.005604404024779797 -0.028087181970477104 0.2943871319293976 
v 0.00003327120066387579 -0.0286305733025074 0.2943871319293976 
v 0.005603022873401642 -0.028087181970477104 0.2943871319293976 
v 0.010969002731144428 -0.026457011699676514 0.2943871319293976 
v 0.01592743955552578 -0.023807981982827187 0.2943871319293976 
v 0.020274562761187553 -0.020275944843888283 0.2943871319293976 
v 0.023806601762771606 -0.01592882163822651 0.2943871319293976 
v 0.026455629616975784 -0.010970384813845158 0.2943871319293976 
v 0.028085799887776375 -0.005604404024779797 0.2943871319293976 
v 0.02862919121980667 0.00003327120066387579 0.2943871319293976 
v 0.028085799887776375 0.005603022873401642 0.2943871319293976 
v 0.026455629616975784 0.010969002731144428 0.2943871319293976 
v 0.023806601762771606 0.01592743955552578 0.2943871319293976 
v 0.020274562761187553 0.020274562761187553 0.2943871319293976 
v 0.01592743955552578 0.023806601762771606 0.2943871319293976 
v 0.010969002731144428 0.026455629616975784 0.2943871319293976 
v 0.005603022873401642 0.028085799887776375 0.2943871319293976 
v 0.00003327120066387579 0.02862919121980667 0.2943871319293976 
v -0.005604404024779797 0.028085799887776375 0.2943871319293976 
v -0.010970384813845158 0.026455629616975784 0.2943871319293976 
v -0.01592882163822651 0.023806601762771606 0.2943871319293976 
v -0.020275944843888283 0.020274562761187553 0.2943871319293976 
v -0.023807981982827187 0.01592743955552578 0.2943871319293976 
v -0.026457011699676514 0.010969002731144428 0.2943871319293976 
v -0.028087181970477104 0.005603022873401642 0.2943871319293976 
v -0.0286305733025074 0.00003327120066387579 0.2943871319293976 
v -0.028087181970477104 -0.005604404024779797 0.2943871319293976 
v -0.026457011699676514 -0.010970384813845158 0.000287600007141009 
v -0.023807981982827187 -0.01592882163822651 0.000287600007141009 
v -0.020275944843888283 -0.020275944843888283 0.000287600007141009 
v -0.01592882163822651 -0.023807981982827187 0.000287600007141009 
v -0.010970384813845158 -0.026457011699676514 0.000287600007141009 
v -0.005604404024779797 -0.028087181970477104 0.000287600007141009 
v 0.00003327120066387579 -0.0286305733025074 0.000287600007141009 
v 0.005603022873401642 -0.028087181970477104 0.000287600007141009 
v 0.010969002731144428 -0.026457011699676514 0.000287600007141009 
v 0.01592743955552578 -0.023807981982827187 0.000287600007141009 
v 0.020274562761187553 -0.020275944843888283 0.000287600007141009 
v 0.023806601762771606 -0.01592882163822651 0.000287600007141009 
v 0.026455629616975784 -0.010970384813845158 0.000287600007141009 
v 0.028085799887776375 -0.005604404024779797 0.000287600007141009 
v 0.02862919121980667 0.00003327120066387579 0.000287600007141009 
v 0.028085799887776375 0.005603022873401642 0.000287600007141009 
v 0.026455629616975784 0.010969002731144428 0.000287600007141009 
v 0.023806601762771606 0.01592743955552578 0.000287600007141009 
v 0.020274562761187553 0.020274562761187553 0.000287600007141009 
v 0.01592743955552578 0.023806601762771606 0.000287600007141009 
v 0.010969002731144428 0.026455629616975784 0.000287600007141009 
v 0.005603022873401642 0.028085799887776375 0.000287600007141009 
v 0.00003327120066387579 0.02862919121980667 0.000287600007141009 
v -0.005604404024779797 0.028085799887776375 0.000287600007141009 
v -0.010970384813845158 0.026455629616975784 0.000287600007141009 
v -0.01592882163822651 0.023806601762771606 0.000287600007141009 
v -0.020275944843888283 0.020274562761187553 0.000287600007141009 
v -0.023807981982827187 0.01592743955552578 0.000287600007141009 
v -0.026457011699676514 0.010969002731144428 0.000287600007141009 
v -0.028087181970477104 0.005603022873401642 0.000287600007141009 
v -0.0286305733025074 0.00003327120066387579 0.000287600007141009 
v -0.028087181970477104 -0.005604404024779797 0.000287600007141009 
v -0.026457011699676514 -0.010970384813845158 -0.14999079704284668 
v -0.023807981982827187 -0.01592882163822651 -0.14999079704284668 
v -0.020275944843888283 -0.020275944843888283 -0.14999079704284668 
v -0.01592882163822651 -0.023807981982827187 -0.14999079704284668 
v -0.010970384813845158 -0.026457011699676514 -0.14999079704284668 
v -0.005604404024779797 -0.028087181970477104 -0.14999079704284668 
v 0.00003327120066387579 -0.0286305733025074 -0.14999079704284668 
v 0.005603022873401642 -0.028087181970477104 -0.14999079704284668 
v 0.010969002731144428 -0.026457011699676514 -0.14999079704284668 
v 0.01592743955552578 -0.023807981982827187 -0.14999079704284668 
v 0.020274562761187553 -0.020275944843888283 -0.14999079704284668 
v 0.023806601762771606 -0.01592882163822651 -0.14999079704284668 
v 0.026455629616975784 -0.010970384813845158 -0.14999079704284668 
v 0.028085799887776375 -0.005604404024779797 -0.14999079704284668 
v 0.02862919121980667 0.00003327120066387579 -0.14999079704284668 
v 0.028085799887776375 0.005603022873401642 -0.14999079704284668 
v 0.026455629616975784 0.010969002731144428 -0.14999079704284668 
v 0.023806601762771606 0.01592743955552578 -0.14999079704284668 
v 0.020274562761187553 0.020274562761187553 -0.14999079704284668 
v 0.01592743955552578 0.023806601762771606 -0.14999079704284668 
v 0.010969002731144428 0.026455629616975784 -0.14999079704284668 
v 0.005603022873401642 0.028085799887776375 -0.14999079704284668 
v 0.00003327120066387579 0.02862919121980667 -0.14999079704284668 
v -0.005604404024779797 0.028085799887776375 -0.14999079704284668 
v -0.010970384813845158 0.026455629616975784 -0.14999079704284668 
v -0.01592882163822651 0.023806601762771606 -0.14999079704284668 
v -0.020275944843888283 0.020274562761187553 -0.14999079704284668 
v -0.023807981982827187 0.01592743955552578 -0.14999079704284668 
v -0.026457011699676514 0.010969002731144428 -0.14999079704284668 
v -0.028087181970477104 0.005603022873401642 -0.14999079704284668 
v -0.0286305733025074 0.00003327120066387579 -0.14999079704284668 
v -0.028087181970477104 -0.005604404024779797 -0.14999079704284668 
v -0.026457011699676514 -0.010970384813845158 -0.5943686962127686 
v -0.023807981982827187 -0.01592882163822651 -0.5943686962127686 
v -0.020275944843888283 -0.020275944843888283 -0.5943686962127686 
v -0.01592882163822651 -0.023807981982827187 -0.5943686962127686 
v -0.010970384813845158 -0.026457011699676514 -0.5943686962127686 
v -0.005604404024779797 -0.028087181970477104 -0.5943686962127686 
v 0.00003327120066387579 -0.0286305733025074 -0.5943686962127686 
v 0.005603022873401642 -0.028087181970477104 -0.5943686962127686 
v 0.010969002731144428 -0.026457011699676514 -0.5943686962127686 
v 0.01592743955552578 -0.023807981982827187 -0.5943686962127686 
v 0.020274562761187553 -0.020275944843888283 -0.5943686962127686 
v 0.023806601762771606 -0.01592882163822651 -0.5943686962127686 
v 0.026455629616975784 -0.010970384813845158 -0.5943686962127686 
v 0.028085799887776375 -0.005604404024779797 -0.5943686962127686 
v 0.02862919121980667 0.00003327120066387579 -0.5943686962127686 
v 0.028085799887776375 0.005603022873401642 -0.5943686962127686 
v 0.026455629616975784 0.010969002731144428 -0.5943686962127686 
v 0.023806601762771606 0.01592743955552578 -0.5943686962127686 
v 0.020274562761187553 0.020274562761187553 -0.5943686962127686 
v 0.01592743955552578 0.023806601762771606 -0.5943686962127686 
v 0.010969002731144428 0.026455629616975784 -0.5943686962127686 
v 0.005603022873401642 0.028085799887776375 -0.5943686962127686 
v 0.00003327120066387579 0.02862919121980667 -0.5943686962127686 
v -0.005604404024779797 0.028085799887776375 -0.5943686962127686 
v -0.010970384813845158 0.026455629616975784 -0.5943686962127686 
v -0.01592882163822651 0.023806601762771606 -0.5943686962127686 
v -0.020275944843888283 0.020274562761187553 -0.5943686962127686 
v -0.023807981982827187 0.01592743955552578 -0.5943686962127686 
v -0.026457011699676514 0.010969002731144428 -0.5943686962127686 
v -0.028087181970477104 0.005603022873401642 -0.5943686962127686 
v -0.0286305733025074 0.00003327120066387579 -0.5943686962127686 
v -0.028087181970477104 -0.005604404024779797 -0.5943686962127686 
v -0.026457011699676514 -0.010970384813845158 -0.6008260250091553 
v -0.023807981982827187 -0.01592882163822651 -0.6008260250091553 
v -0.020275944843888283 -0.020275944843888283 -0.6008260250091553 
v -0.01592882163822651 -0.023807981982827187 -0.6008260250091553 
v -0.010970384813845158 -0.026457011699676514 -0.6008260250091553 
v -0.005604404024779797 -0.028087181970477104 -0.6008260250091553 
v 0.00003327120066387579 -0.0286305733025074 -0.6008260250091553 
v 0.005603022873401642 -0.028087181970477104 -0.6008260250091553 
v 0.010969002731144428 -0.026457011699676514 -0.6008260250091553 
v 0.01592743955552578 -0.023807981982827187 -0.6008260250091553 
v 0.020274562761187553 -0.020275944843888283 -0.6008260250091553 
v 0.023806601762771606 -0.01592882163822651 -0.6008260250091553 
v 0.026455629616975784 -0.010970384813845158 -0.6008260250091553 
v 0.028085799887776375 -0.005604404024779797 -0.6008260250091553 
v 0.02862919121980667 0.00003327120066387579 -0.6008260250091553 
v 0.028085799887776375 0.005603022873401642 -0.6008260250091553 
v 0.026455629616975784 0.010969002731144428 -0.6008260250091553 
v 0.023806601762771606 0.01592743955552578 -0.6008260250091553 
v 0.020274562761187553 0.020274562761187553 -0.6008260250091553 
v 0.01592743955552578 0.023806601762771606 -0.6008260250091553 
v 0.010969002731144428 0.026455629616975784 -0.6008260250091553 
v 0.005603022873401642 0.028085799887776375 -0.6008260250091553 
v 0.00003327120066387579 0.02862919121980667 -0.6008260250091553 
v -0.005604404024779797 0.028085799887776375 -0.6008260250091553 
v -0.010970384813845158 0.026455629616975784 -0.6008260250091553 
v -0.01592882163822651 0.023806601762771606 -0.6008260250091553 
v -0.020275944843888283 0.020274562761187553 -0.6008260250091553 
v -0.023807981982827187 0.01592743955552578 -0.6008260250091553 
v -0.026457011699676514 0.010969002731144428 -0.6008260250091553 
v -0.028087181970477104 0.005603022873401642 -0.6008260250091553 
v -0.0286305733025074 0.00003327120066387579 -0.6008260250091553 
v -0.028087181970477104 -0.005604404024779797 -0.6008260250091553 
v -0.005604404024779797 0.028085799887776375 0.600814163684845 
v -0.01592882163822651 0.023806601762771606 0.600814163684845 
v -0.028087181970477104 -0.005604404024779797 0.600814163684845 
v -0.023807981982827187 -0.01592882163822651 0.600814163684845 
v -0.005604404024779797 -0.028087181970477104 0.600814163684845 
v 0.01592743955552578 -0.023807981982827187 0.600814163684845 
v 0.028085799887776375 -0.005604404024779797 0.600814163684845 
vn 0 0 1 
vn 0 0 1 
vn 0 0 1 
vn 0 0 1 
vn 0 0 1 
vn 0 0 1 
vn 0 0 1 
vn 0 0 1 
vn 0 0 1 
vn 0 0 1 
vn 0 0 1 
vn 0 0 1 
vn 0 0 1 
vn 0 0 1 
vn 0 0 1 
vn 0 0 1 
vn 0 0 1 
vn 0 0 1 
vn 0 0 1 
vn 0 0 1 
vn 0 0 1 
vn 0 0 1 
vn 0 0 1 
vn 0 0 1 
vn 0 0 1 
vn -0.13811153173446655 -0.20416122674942017 0.9691457152366638 
vn -0.20553748309612274 -0.5011301040649414 0.8406086564064026 
vn -0.09171628206968307 -0.22878970205783844 0.9691457152366638 
vn -0.10474605113267899 -0.5314182043075562 0.8406086564064026 
vn -0.048548296093940735 -0.2416602224111557 0.9691457152366638 
vn 1.6827694565482026e-13 -0.5416429042816162 0.8406086564064026 
vn 0.0037589154671877623 -0.24645988643169403 0.9691457152366638 
vn 0.10474605113267899 -0.5314182043075562 0.8406086564064026 
vn 0.048548296093940735 -0.2416602224111557 0.9691457152366638 
vn 0.20553748309612274 -0.5011301040649414 0.8406086564064026 
vn 0.09171628206968307 -0.22878970205783844 0.9691457152366638 
vn 0.2985689640045166 -0.45192214846611023 0.8406086564064026 
vn 0.13811153173446655 -0.20416122674942017 0.9691457152366638 
vn 0.3856521248817444 -0.38032814860343933 0.8406086564064026 
vn 0.17295964062213898 -0.17561766505241394 0.9691457152366638 
vn 0.45192214846611023 -0.2985689640045166 0.8406086564064026 
vn 0.20624366402626038 -0.13498203456401825 0.9691457152366638 
vn 0.5011301040649414 -0.20553748309612274 0.8406086564064026 
vn 0.2273644357919693 -0.09519462287425995 0.9691457152366638 
vn 0.5314182043075562 -0.10474605113267899 0.8406086564064026 
vn 0.24237248301506042 -0.044857367873191833 0.9691457152366638 
vn 0.5416429042816162 0 0.8406086564064026 
vn 0.2464885413646698 0 0.9691457152366638 
vn 0.5314182043075562 0.10474605113267899 0.8406086564064026 
vn 0.24237248301506042 0.044857367873191833 0.9691457152366638 
vn 0.5011301040649414 0.20553748309612274 0.8406086564064026 
vn 0.2273644357919693 0.09519462287425995 0.9691457152366638 
vn 0.45192214846611023 0.2985689640045166 0.8406086564064026 
vn 0.20624366402626038 0.13498203456401825 0.9691457152366638 
vn 0.3856521248817444 0.38032814860343933 0.8406086564064026 
vn 0.17295964062213898 0.17561766505241394 0.9691457152366638 
vn 0.2985689640045166 0.45192214846611023 0.8406086564064026 
vn 0.13811153173446655 0.20416122674942017 0.9691457152366638 
vn 0.20553748309612274 0.5011301040649414 0.8406086564064026 
vn 0.09171628206968307 0.22878970205783844 0.9691457152366638 
vn 0.10474605113267899 0.5314182043075562 0.8406086564064026 
vn 0.048548296093940735 0.2416602224111557 0.9691457152366638 
vn -5.6012133950109066e-14 0.5416429042816162 0.8406086564064026 
vn 0.0037589154671877623 0.24645988643169403 0.9691457152366638 
vn -0.10474605113267899 0.5314182043075562 0.8406086564064026 
vn -0.048548296093940735 0.2416602224111557 0.9691457152366638 
vn -0.20553748309612274 0.5011301040649414 0.8406086564064026 
vn -0.09171628206968307 0.22878970205783844 0.9691457152366638 
vn -0.2985689640045166 0.45192214846611023 0.8406086564064026 
vn -0.13811153173446655 0.20416122674942017 0.9691457152366638 
vn -0.38032814860343933 0.3856521248817444 0.8406086564064026 
vn -0.17295964062213898 0.17561766505241394 0.9691457152366638 
vn -0.45192214846611023 0.2985689640045166 0.8406086564064026 
vn -0.20624366402626038 0.13498203456401825 0.9691457152366638 
vn -0.5011301040649414 0.20553748309612274 0.8406086564064026 
vn -0.2273644357919693 0.09519462287425995 0.9691457152366638 
vn -0.5314182043075562 0.10474605113267899 0.8406086564064026 
vn -0.24237248301506042 0.044857367873191833 0.9691457152366638 
vn -0.5416429042816162 -1.1202426790021813e-13 0.8406086564064026 
vn -0.2464885413646698 -5.097952835157911e-14 0.9691457152366638 
vn -0.5314182043075562 -0.10474605113267899 0.8406086564064026 
vn -0.24237248301506042 -0.044857367873191833 0.9691457152366638 
vn -0.5011301040649414 -0.20553748309612274 0.8406086564064026 
vn -0.2273644357919693 -0.09519462287425995 0.9691457152366638 
vn -0.45192214846611023 -0.2985689640045166 0.8406086564064026 
vn -0.20624366402626038 -0.13498203456401825 0.9691457152366638 
vn -0.38032814860343933 -0.3856521248817444 0.8406086564064026 
vn -0.17295964062213898 -0.17561766505241394 0.9691457152366638 
vn -0.2985689640045166 -0.45192214846611023 0.8406086564064026 
vn -0.4050929546356201 -0.6062644720077515 0.6843559741973877 
vn -0.2790328860282898 -0.6736449599266052 0.6843559741973877 
vn -0.14224973320960999 -0.7151376605033875 0.6843559741973877 
vn 2.2588319561166192e-13 -0.7291480898857117 0.6843559741973877 
vn 0.14224973320960999 -0.7151376605033875 0.6843559741973877 
vn 0.2790328860282898 -0.6736449599266052 0.6843559741973877 
vn 0.4050929546356201 -0.6062644720077515 0.6843559741973877 
vn 0.5155855417251587 -0.5155855417251587 0.6843559741973877 
vn 0.6062644720077515 -0.4050929546356201 0.6843559741973877 
vn 0.6736449599266052 -0.2790328860282898 0.6843559741973877 
vn 0.7151376605033875 -0.14224973320960999 0.6843559741973877 
vn 0.7291480898857117 0 0.6843559741973877 
vn 0.7151376605033875 0.14224973320960999 0.6843559741973877 
vn 0.6736449599266052 0.2790328860282898 0.6843559741973877 
vn 0.6062644720077515 0.4050929546356201 0.6843559741973877 
vn 0.5155855417251587 0.5155855417251587 0.6843559741973877 
vn 0.4050929546356201 0.6062644720077515 0.6843559741973877 
vn 0.2790328860282898 0.6736449599266052 0.6843559741973877 
vn 0.14224973320960999 0.7151376605033875 0.6843559741973877 
vn -7.540233086349157e-14 0.7291480898857117 0.6843559741973877 
vn -0.14224973320960999 0.7151376605033875 0.6843559741973877 
vn -0.2790328860282898 0.6736449599266052 0.6843559741973877 
vn -0.4050929546356201 0.6062644720077515 0.6843559741973877 
vn -0.5155855417251587 0.5155855417251587 0.6843559741973877 
vn -0.6062644720077515 0.4050929546356201 0.6843559741973877 
vn -0.6736449599266052 0.2790328860282898 0.6843559741973877 
vn -0.7151376605033875 0.14224973320960999 0.6843559741973877 
vn -0.7291480898857117 -1.5080466172698315e-13 0.6843559741973877 
vn -0.7151376605033875 -0.14224973320960999 0.6843559741973877 
vn -0.6736449599266052 -0.2790328860282898 0.6843559741973877 
vn -0.6062644720077515 -0.4050929546356201 0.6843559741973877 
vn -0.5155855417251587 -0.5155855417251587 0.6843559741973877 
vn -0.6346318125724792 -0.6319648623466492 0.44481781125068665 
vn -0.49483299255371094 -0.7465101480484009 0.44481781125068665 
vn -0.34186801314353943 -0.8278063535690308 0.44481781125068665 
vn -0.17611399292945862 -0.8781349658966064 0.44481781125068665 
vn 0.0037716731894761324 -0.8956131339073181 0.44481781125068665 
vn 0.17611399292945862 -0.8781349658966064 0.44481781125068665 
vn 0.34186801314353943 -0.8278063535690308 0.44481781125068665 
vn 0.49483299255371094 -0.7465101480484009 0.44481781125068665 
vn 0.6346318125724792 -0.6319648623466492 0.44481781125068665 
vn 0.7444196939468384 -0.4979723393917084 0.44481781125068665 
vn 0.8263593316078186 -0.34535107016563416 0.44481781125068665 
vn 0.878868818283081 -0.1724143922328949 0.44481781125068665 
vn 0.8956210613250732 0 0.44481781125068665 
vn 0.878868818283081 0.1724143922328949 0.44481781125068665 
vn 0.8263593316078186 0.34535107016563416 0.44481781125068665 
vn 0.7444196939468384 0.4979723393917084 0.44481781125068665 
vn 0.6346318125724792 0.6319648623466492 0.44481781125068665 
vn 0.49483299255371094 0.7465101480484009 0.44481781125068665 
vn 0.34186801314353943 0.8278063535690308 0.44481781125068665 
vn 0.17611399292945862 0.8781349658966064 0.44481781125068665 
vn 0.0037716731894761324 0.8956131339073181 0.44481781125068665 
vn -0.17611399292945862 0.8781349658966064 0.44481781125068665 
vn -0.34186801314353943 0.8278063535690308 0.44481781125068665 
vn -0.49483299255371094 0.7465101480484009 0.44481781125068665 
vn -0.6346318125724792 0.6319648623466492 0.44481781125068665 
vn -0.7444196939468384 0.4979723393917084 0.44481781125068665 
vn -0.8263593316078186 0.34535107016563416 0.44481781125068665 
vn -0.878868818283081 0.1724143922328949 0.44481781125068665 
vn -0.8956210613250732 -1.8483740200306992e-13 0.44481781125068665 
vn -0.878868818283081 -0.1724143922328949 0.44481781125068665 
vn -0.8263593316078186 -0.34535107016563416 0.44481781125068665 
vn -0.7444196939468384 -0.4979723393917084 0.44481781125068665 
vn -0.8216922879219055 -0.5447836518287659 0.16742929816246033 
vn -0.6977918744087219 -0.696458101272583 0.16742929816246033 
vn -0.5463547706604004 -0.8206484913825989 0.16742929816246033 
vn -0.38032907247543335 -0.9095697999000549 0.16742929816246033 
vn -0.19303014874458313 -0.9668023586273193 0.16742929816246033 
vn 0.001886263256892562 -0.9858822822570801 0.16742929816246033 
vn 0.18932923674583435 -0.9675338864326477 0.16742929816246033 
vn 0.3768458068370819 -0.9110184907913208 0.16742929816246033 
vn 0.5494909882545471 -0.8185518383979797 0.16742929816246033 
vn 0.6951217651367188 -0.6991231441497803 0.16742929816246033 
vn 0.8196016550064087 -0.5479238629341125 0.16742929816246033 
vn 0.9117377996444702 -0.37510207295417786 0.16742929816246033 
vn 0.9664312601089478 -0.19487954676151276 0.16742929816246033 
vn 0.9858840703964233 0 0.16742929816246033 
vn 0.9664312601089478 0.19487954676151276 0.16742929816246033 
vn 0.9117377996444702 0.37510207295417786 0.16742929816246033 
vn 0.8196016550064087 0.5479238629341125 0.16742929816246033 
vn 0.6951217651367188 0.6991231441497803 0.16742929816246033 
vn 0.5494909882545471 0.8185518383979797 0.16742929816246033 
vn 0.3768458068370819 0.9110184907913208 0.16742929816246033 
vn 0.18932923674583435 0.9675338864326477 0.16742929816246033 
vn 0.001886263256892562 0.9858822822570801 0.16742929816246033 
vn -0.19303014874458313 0.9668023586273193 0.16742929816246033 
vn -0.38032907247543335 0.9095697999000549 0.16742929816246033 
vn -0.5463547706604004 0.8206484913825989 0.16742929816246033 
vn -0.6977918744087219 0.696458101272583 0.16742929816246033 
vn -0.8216922879219055 0.5447836518287659 0.16742929816246033 
vn -0.9102957844734192 0.37858814001083374 0.16742929816246033 
vn -0.9671698808670044 0.1911800503730774 0.16742929816246033 
vn -0.9858768582344055 0.003772519761696458 0.16742929816246033 
vn -0.9671698808670044 -0.1911800503730774 0.16742929816246033 
vn -0.9102957844734192 -0.37858814001083374 0.16742929816246033 
vn -0.9211179614067078 -0.3825611174106598 -0.07203252613544464 
vn -0.8285223245620728 -0.5553035736083984 -0.07203252613544464 
vn -0.7039338946342468 -0.7066034078598022 -0.07203252613544464 
vn -0.5521636009216309 -0.8306182622909546 -0.07203252613544464 
vn -0.3790719211101532 -0.922559380531311 -0.07203252613544464 
vn -0.19134262204170227 -0.978876531124115 -0.07203252613544464 
vn 0.0037752098869532347 -0.9973951578140259 -0.07203252613544464 
vn 0.19134262204170227 -0.978876531124115 -0.07203252613544464 
vn 0.3790719211101532 -0.922559380531311 -0.07203252613544464 
vn 0.5521636009216309 -0.8306182622909546 -0.07203252613544464 
vn 0.7039338946342468 -0.7066034078598022 -0.07203252613544464 
vn 0.8285223245620728 -0.5553035736083984 -0.07203252613544464 
vn 0.9211179614067078 -0.3825611174106598 -0.07203252613544464 
vn 0.9781453013420105 -0.1950463503599167 -0.07203252613544464 
vn 0.9974023103713989 0 -0.07203252613544464 
vn 0.9781453013420105 0.1950463503599167 -0.07203252613544464 
vn 0.9211179614067078 0.3825611174106598 -0.07203252613544464 
vn 0.8285223245620728 0.5553035736083984 -0.07203252613544464 
vn 0.7039338946342468 0.7066034078598022 -0.07203252613544464 
vn 0.5521636009216309 0.8306182622909546 -0.07203252613544464 
vn 0.3790719211101532 0.922559380531311 -0.07203252613544464 
vn 0.19134262204170227 0.978876531124115 -0.07203252613544464 
vn 0.0037752098869532347 0.9973951578140259 -0.07203252613544464 
vn -0.19134262204170227 0.978876531124115 -0.07203252613544464 
vn -0.3790719211101532 0.922559380531311 -0.07203252613544464 
vn -0.5521636009216309 0.8306182622909546 -0.07203252613544464 
vn -0.7039338946342468 0.7066034078598022 -0.07203252613544464 
vn -0.8285223245620728 0.5553035736083984 -0.07203252613544464 
vn -0.9211179614067078 0.3825611174106598 -0.07203252613544464 
vn -0.9781453013420105 0.1950463503599167 -0.07203252613544464 
vn -0.9974023103713989 -2.0628583476817175e-13 -0.07203252613544464 
vn -0.9781453013420105 -0.1950463503599167 -0.07203252613544464 
vn -0.9217636585235596 -0.37925171852111816 -0.08074574917554855 
vn -0.8296716213226318 -0.5523813366889954 -0.08074574917554855 
vn -0.7054653167724609 -0.7041298151016235 -0.08074574917554855 
vn -0.5539523959159851 -0.8286234736442566 -0.08074574917554855 
vn -0.38099759817123413 -0.9210433959960938 -0.08074574917554855 
vn -0.1932954490184784 -0.9778123497962952 -0.08074574917554855 
vn 0.0018886204343289137 -0.9967329502105713 -0.08074574917554855 
vn 0.19699959456920624 -0.9770728349685669 -0.08074574917554855 
vn 0.38448527455329895 -0.9195929765701294 -0.08074574917554855 
vn 0.550808310508728 -0.8307167887687683 -0.08074574917554855 
vn 0.7027918696403503 -0.7067981958389282 -0.08074574917554855 
vn 0.8275723457336426 -0.5555214881896973 -0.08074574917554855 
vn 0.9203198552131653 -0.38274213671684265 -0.08074574917554855 
vn 0.9774443507194519 -0.19514787197113037 -0.08074574917554855 
vn 0.9967347383499146 0 -0.08074574917554855 
vn 0.9774443507194519 0.19514787197113037 -0.08074574917554855 
vn 0.9203198552131653 0.38274213671684265 -0.08074574917554855 
vn 0.8275723457336426 0.5555214881896973 -0.08074574917554855 
vn 0.7027918696403503 0.7067981958389282 -0.08074574917554855 
vn 0.550808310508728 0.8307167887687683 -0.08074574917554855 
vn 0.38448527455329895 0.9195929765701294 -0.08074574917554855 
vn 0.19699959456920624 0.9770728349685669 -0.08074574917554855 
vn 0.0018886204343289137 0.9967329502105713 -0.08074574917554855 
vn -0.1932954490184784 0.9778123497962952 -0.08074574917554855 
vn -0.38099759817123413 0.9210433959960938 -0.08074574917554855 
vn -0.5539523959159851 0.8286234736442566 -0.08074574917554855 
vn -0.7054653167724609 0.7041298151016235 -0.08074574917554855 
vn -0.8296716213226318 0.5523813366889954 -0.08074574917554855 
vn -0.9217636585235596 0.37925171852111816 -0.08074574917554855 
vn -0.9781768321990967 0.1914423406124115 -0.08074574917554855 
vn -0.9967275857925415 0.0037772341165691614 -0.08074574917554855 
vn -0.9781768321990967 -0.1914423406124115 -0.08074574917554855 
vn -0.9238772988319397 -0.38268253207206726 0.002184694167226553 
vn -0.8314676284790039 -0.5555689334869385 0.002184694167226553 
vn -0.7071051001548767 -0.7071051001548767 0.002184694167226553 
vn -0.5555689334869385 -0.8314676284790039 0.002184694167226553 
vn -0.38268253207206726 -0.9238772988319397 0.002184694167226553 
vn -0.19508986175060272 -0.9807829260826111 0.002184694167226553 
vn 3.097898456858039e-13 -0.999997615814209 0.002184694167226553 
vn 0.19508986175060272 -0.9807829260826111 0.002184694167226553 
vn 0.38268253207206726 -0.9238772988319397 0.002184694167226553 
vn 0.5555689334869385 -0.8314676284790039 0.002184694167226553 
vn 0.7071051001548767 -0.7071051001548767 0.002184694167226553 
vn 0.8314676284790039 -0.5555689334869385 0.002184694167226553 
vn 0.9238772988319397 -0.38268253207206726 0.002184694167226553 
vn 0.9807829260826111 -0.19508986175060272 0.002184694167226553 
vn 0.999997615814209 0 0.002184694167226553 
vn 0.9807829260826111 0.19508986175060272 0.002184694167226553 
vn 0.9238772988319397 0.38268253207206726 0.002184694167226553 
vn 0.8314676284790039 0.5555689334869385 0.002184694167226553 
vn 0.7071051001548767 0.7071051001548767 0.002184694167226553 
vn 0.5555689334869385 0.8314676284790039 0.002184694167226553 
vn 0.38268253207206726 0.9238772988319397 0.002184694167226553 
vn 0.19508986175060272 0.9807829260826111 0.002184694167226553 
vn -1.0341130485562108e-13 0.999997615814209 0.002184694167226553 
vn -0.19508986175060272 0.9807829260826111 0.002184694167226553 
vn -0.38268253207206726 0.9238772988319397 0.002184694167226553 
vn -0.5555689334869385 0.8314676284790039 0.002184694167226553 
vn -0.7071051001548767 0.7071051001548767 0.002184694167226553 
vn -0.8314676284790039 0.5555689334869385 0.002184694167226553 
vn -0.9238772988319397 0.38268253207206726 0.002184694167226553 
vn -0.9807829260826111 0.19508986175060272 0.002184694167226553 
vn -0.999997615814209 -2.0682260971124217e-13 0.002184694167226553 
vn -0.9807829260826111 -0.19508986175060272 0.002184694167226553 
vn -0.9238772988319397 -0.38268253207206726 0.002184694167226553 
vn -0.8314676284790039 -0.5555689334869385 0.002184694167226553 
vn -0.7071051001548767 -0.7071051001548767 0.002184694167226553 
vn -0.5555689334869385 -0.8314676284790039 0.002184694167226553 
vn -0.38268253207206726 -0.9238772988319397 0.002184694167226553 
vn -0.19508986175060272 -0.9807829260826111 0.002184694167226553 
vn 3.097898456858039e-13 -0.999997615814209 0.002184694167226553 
vn 0.19508986175060272 -0.9807829260826111 0.002184694167226553 
vn 0.38268253207206726 -0.9238772988319397 0.002184694167226553 
vn 0.5555689334869385 -0.8314676284790039 0.002184694167226553 
vn 0.7071051001548767 -0.7071051001548767 0.002184694167226553 
vn 0.8314676284790039 -0.5555689334869385 0.002184694167226553 
vn 0.9238772988319397 -0.38268253207206726 0.002184694167226553 
vn 0.9807829260826111 -0.19508986175060272 0.002184694167226553 
vn 0.999997615814209 0 0.002184694167226553 
vn 0.9807829260826111 0.19508986175060272 0.002184694167226553 
vn 0.9238772988319397 0.38268253207206726 0.002184694167226553 
vn 0.8314676284790039 0.5555689334869385 0.002184694167226553 
vn 0.7071051001548767 0.7071051001548767 0.002184694167226553 
vn 0.5555689334869385 0.8314676284790039 0.002184694167226553 
vn 0.38268253207206726 0.9238772988319397 0.002184694167226553 
vn 0.19508986175060272 0.9807829260826111 0.002184694167226553 
vn -1.0341130485562108e-13 0.999997615814209 0.002184694167226553 
vn -0.19508986175060272 0.9807829260826111 0.002184694167226553 
vn -0.38268253207206726 0.9238772988319397 0.002184694167226553 
vn -0.5555689334869385 0.8314676284790039 0.002184694167226553 
vn -0.7071051001548767 0.7071051001548767 0.002184694167226553 
vn -0.8314676284790039 0.5555689334869385 0.002184694167226553 
vn -0.9238772988319397 0.38268253207206726 0.002184694167226553 
vn -0.9807829260826111 0.19508986175060272 0.002184694167226553 
vn -0.999997615814209 -2.0682260971124217e-13 0.002184694167226553 
vn -0.9807829260826111 -0.19508986175060272 0.002184694167226553 
vn -0.9238772988319397 -0.38268253207206726 0.002184694167226553 
vn -0.8314676284790039 -0.5555689334869385 0.002184694167226553 
vn -0.7071051001548767 -0.7071051001548767 0.002184694167226553 
vn -0.5555689334869385 -0.8314676284790039 0.002184694167226553 
vn -0.38268253207206726 -0.9238772988319397 0.002184694167226553 
vn -0.19508986175060272 -0.9807829260826111 0.002184694167226553 
vn 3.097898456858039e-13 -0.999997615814209 0.002184694167226553 
vn 0.19508986175060272 -0.9807829260826111 0.002184694167226553 
vn 0.38268253207206726 -0.9238772988319397 0.002184694167226553 
vn 0.5555689334869385 -0.8314676284790039 0.002184694167226553 
vn 0.7071051001548767 -0.7071051001548767 0.002184694167226553 
vn 0.8314676284790039 -0.5555689334869385 0.002184694167226553 
vn 0.9238772988319397 -0.38268253207206726 0.002184694167226553 
vn 0.9807829260826111 -0.19508986175060272 0.002184694167226553 
vn 0.999997615814209 0 0.002184694167226553 
vn 0.9807829260826111 0.19508986175060272 0.002184694167226553 
vn 0.9238772988319397 0.38268253207206726 0.002184694167226553 
vn 0.8314676284790039 0.5555689334869385 0.002184694167226553 
vn 0.7071051001548767 0.7071051001548767 0.002184694167226553 
vn 0.5555689334869385 0.8314676284790039 0.002184694167226553 
vn 0.38268253207206726 0.9238772988319397 0.002184694167226553 
vn 0.19508986175060272 0.9807829260826111 0.002184694167226553 
vn -1.0341130485562108e-13 0.999997615814209 0.002184694167226553 
vn -0.19508986175060272 0.9807829260826111 0.002184694167226553 
vn -0.38268253207206726 0.9238772988319397 0.002184694167226553 
vn -0.5555689334869385 0.8314676284790039 0.002184694167226553 
vn -0.7071051001548767 0.7071051001548767 0.002184694167226553 
vn -0.8314676284790039 0.5555689334869385 0.002184694167226553 
vn -0.9238772988319397 0.38268253207206726 0.002184694167226553 
vn -0.9807829260826111 0.19508986175060272 0.002184694167226553 
vn -0.999997615814209 -2.0682260971124217e-13 0.002184694167226553 
vn -0.9807829260826111 -0.19508986175060272 0.002184694167226553 
vn -0.9238772988319397 -0.38268253207206726 0.002184694167226553 
vn -0.8314676284790039 -0.5555689334869385 0.002184694167226553 
vn -0.7071051001548767 -0.7071051001548767 0.002184694167226553 
vn -0.5555689334869385 -0.8314676284790039 0.002184694167226553 
vn -0.38268253207206726 -0.9238772988319397 0.002184694167226553 
vn -0.19508986175060272 -0.9807829260826111 0.002184694167226553 
vn 3.097898456858039e-13 -0.999997615814209 0.002184694167226553 
vn 0.19508986175060272 -0.9807829260826111 0.002184694167226553 
vn 0.38268253207206726 -0.9238772988319397 0.002184694167226553 
vn 0.5555689334869385 -0.8314676284790039 0.002184694167226553 
vn 0.7071051001548767 -0.7071051001548767 0.002184694167226553 
vn 0.8314676284790039 -0.5555689334869385 0.002184694167226553 
vn 0.9238772988319397 -0.38268253207206726 0.002184694167226553 
vn 0.9807829260826111 -0.19508986175060272 0.002184694167226553 
vn 0.999997615814209 0 0.002184694167226553 
vn 0.9807829260826111 0.19508986175060272 0.002184694167226553 
vn 0.9238772988319397 0.38268253207206726 0.002184694167226553 
vn 0.8314676284790039 0.5555689334869385 0.002184694167226553 
vn 0.7071051001548767 0.7071051001548767 0.002184694167226553 
vn 0.5555689334869385 0.8314676284790039 0.002184694167226553 
vn 0.38268253207206726 0.9238772988319397 0.002184694167226553 
vn 0.19508986175060272 0.9807829260826111 0.002184694167226553 
vn -1.0341130485562108e-13 0.999997615814209 0.002184694167226553 
vn -0.19508986175060272 0.9807829260826111 0.002184694167226553 
vn -0.38268253207206726 0.9238772988319397 0.002184694167226553 
vn -0.5555689334869385 0.8314676284790039 0.002184694167226553 
vn -0.7071051001548767 0.7071051001548767 0.002184694167226553 
vn -0.8314676284790039 0.5555689334869385 0.002184694167226553 
vn -0.9238772988319397 0.38268253207206726 0.002184694167226553 
vn -0.9807829260826111 0.19508986175060272 0.002184694167226553 
vn -0.999997615814209 -2.0682260971124217e-13 0.002184694167226553 
vn -0.9807829260826111 -0.19508986175060272 0.002184694167226553 
vn -0.6732827425003052 -0.2799057066440582 -0.6843559741973877 
vn -0.6054757833480835 -0.4062708020210266 -0.6843559741973877 
vn -0.5142473578453064 -0.516920268535614 -0.6843559741973877 
vn -0.40312647819519043 -0.6075738072395325 -0.6843559741973877 
vn -0.2764115631580353 -0.674724817276001 -0.6843559741973877 
vn -0.13900431990623474 -0.7157756090164185 -0.6843559741973877 
vn 0.0037799933925271034 -0.7291382551193237 -0.6843559741973877 
vn 0.13900431990623474 -0.7157756090164185 -0.6843559741973877 
vn 0.2764115631580353 -0.674724817276001 -0.6843559741973877 
vn 0.40312647819519043 -0.6075738072395325 -0.6843559741973877 
vn 0.5142473578453064 -0.516920268535614 -0.6843559741973877 
vn 0.6054757833480835 -0.4062708020210266 -0.6843559741973877 
vn 0.6732827425003052 -0.2799057066440582 -0.6843559741973877 
vn 0.7150453329086304 -0.14271312952041626 -0.6843559741973877 
vn 0.7291480898857117 0 -0.6843559741973877 
vn 0.7150453329086304 0.14271312952041626 -0.6843559741973877 
vn 0.6732827425003052 0.2799057066440582 -0.6843559741973877 
vn 0.6054757833480835 0.4062708020210266 -0.6843559741973877 
vn 0.5142473578453064 0.516920268535614 -0.6843559741973877 
vn 0.40312647819519043 0.6075738072395325 -0.6843559741973877 
vn 0.2764115631580353 0.674724817276001 -0.6843559741973877 
vn 0.13900431990623474 0.7157756090164185 -0.6843559741973877 
vn 0.0037799933925271034 0.7291382551193237 -0.6843559741973877 
vn -0.13900431990623474 0.7157756090164185 -0.6843559741973877 
vn -0.2764115631580353 0.674724817276001 -0.6843559741973877 
vn -0.40312647819519043 0.6075738072395325 -0.6843559741973877 
vn -0.5142473578453064 0.516920268535614 -0.6843559741973877 
vn -0.6054757833480835 0.4062708020210266 -0.6843559741973877 
vn -0.6732827425003052 0.2799057066440582 -0.6843559741973877 
vn -0.7150453329086304 0.14271312952041626 -0.6843559741973877 
vn -0.7291480898857117 -1.5080466172698315e-13 -0.6843559741973877 
vn -0.7150453329086304 -0.14271312952041626 -0.6843559741973877 
vn 0 0 1 
vn 0 0 1 
vn 0 0 1 
vn 0 0 1 
vn 0 0 1 
vn 0 0 1 
vn 0 0 1 
s on 
f 1//1 2//2 3//3 
f 2//2 4//4 3//3 
f 3//3 4//4 5//5 
f 4//4 6//6 5//5 
f 5//5 6//6 7//7 
f 6//6 7//7 7//7 
f 7//7 7//7 5//5 
f 7//7 5//5 5//5 
f 5//5 5//5 5//5 
f 5//5 8//8 5//5 
f 5//5 8//8 3//3 
f 8//8 9//9 3//3 
f 3//3 9//9 10//10 
f 9//9 11//11 10//10 
f 10//10 11//11 12//12 
f 11//11 12//12 12//12 
f 12//12 12//12 8//8 
f 12//12 8//8 8//8 
f 8//8 8//8 8//8 
f 8//8 13//13 8//8 
f 8//8 13//13 9//9 
f 13//13 14//14 9//9 
f 9//9 14//14 15//15 
f 14//14 15//15 15//15 
f 15//15 15//15 8//8 
f 15//15 8//8 8//8 
f 8//8 8//8 8//8 
f 8//8 16//16 8//8 
f 8//8 16//16 13//13 
f 16//16 17//17 13//13 
f 13//13 17//17 17//17 
f 17//17 18//18 17//17 
f 17//17 18//18 18//18 
f 18//18 3//3 18//18 
f 18//18 3//3 19//19 
f 3//3 10//10 19//19 
f 19//19 10//10 20//20 
f 10//10 20//20 20//20 
f 20//20 20//20 21//21 
f 20//20 21//21 21//21 
f 21//21 21//21 21//21 
f 21//21 22//22 21//21 
f 21//21 22//22 5//5 
f 22//22 23//23 5//5 
f 5//5 23//23 8//8 
f 23//23 24//24 8//8 
f 8//8 24//24 25//25 
f 24//24 25//25 25//25 
f 25//25 25//25 26//26 
f 25//25 26//26 26//26 
f 26//26 26//26 26//26 
f 26//26 27//27 26//26 
f 26//26 27//27 28//28 
f 27//27 29//29 28//28 
f 28//28 29//29 30//30 
f 29//29 31//31 30//30 
f 30//30 31//31 32//32 
f 31//31 33//33 32//32 
f 32//32 33//33 34//34 
f 33//33 35//35 34//34 
f 34//34 35//35 36//36 
f 35//35 37//37 36//36 
f 36//36 37//37 38//38 
f 37//37 39//39 38//38 
f 38//38 39//39 40//40 
f 39//39 41//41 40//40 
f 40//40 41//41 42//42 
f 41//41 43//43 42//42 
f 42//42 43//43 44//44 
f 43//43 45//45 44//44 
f 44//44 45//45 46//46 
f 45//45 47//47 46//46 
f 46//46 47//47 48//48 
f 47//47 49//49 48//48 
f 48//48 49//49 50//50 
f 49//49 51//51 50//50 
f 50//50 51//51 52//52 
f 51//51 53//53 52//52 
f 52//52 53//53 54//54 
f 53//53 55//55 54//54 
f 54//54 55//55 56//56 
f 55//55 57//57 56//56 
f 56//56 57//57 58//58 
f 57//57 59//59 58//58 
f 58//58 59//59 60//60 
f 59//59 61//61 60//60 
f 60//60 61//61 62//62 
f 61//61 63//63 62//62 
f 62//62 63//63 64//64 
f 63//63 65//65 64//64 
f 64//64 65//65 66//66 
f 65//65 67//67 66//66 
f 66//66 67//67 68//68 
f 67//67 69//69 68//68 
f 68//68 69//69 70//70 
f 69//69 71//71 70//70 
f 70//70 71//71 72//72 
f 71//71 73//73 72//72 
f 72//72 73//73 74//74 
f 73//73 75//75 74//74 
f 74//74 75//75 76//76 
f 75//75 77//77 76//76 
f 76//76 77//77 78//78 
f 77//77 79//79 78//78 
f 78//78 79//79 80//80 
f 79//79 81//81 80//80 
f 80//80 81//81 82//82 
f 81//81 83//83 82//82 
f 82//82 83//83 84//84 
f 83//83 85//85 84//84 
f 84//84 85//85 86//86 
f 85//85 87//87 86//86 
f 86//86 87//87 88//88 
f 87//87 89//89 88//88 
f 88//88 89//89 26//26 
f 89//89 27//27 26//26 
f 26//26 27//27 27//27 
f 27//27 89//89 27//27 
f 27//27 89//89 89//89 
f 89//89 90//90 89//89 
f 89//89 90//90 27//27 
f 90//90 91//91 27//27 
f 27//27 91//91 29//29 
f 91//91 92//92 29//29 
f 29//29 92//92 31//31 
f 92//92 93//93 31//31 
f 31//31 93//93 33//33 
f 93//93 94//94 33//33 
f 33//33 94//94 35//35 
f 94//94 95//95 35//35 
f 35//35 95//95 37//37 
f 95//95 96//96 37//37 
f 37//37 96//96 39//39 
f 96//96 97//97 39//39 
f 39//39 97//97 41//41 
f 97//97 98//98 41//41 
f 41//41 98//98 43//43 
f 98//98 99//99 43//43 
f 43//43 99//99 45//45 
f 99//99 100//100 45//45 
f 45//45 100//100 47//47 
f 100//100 101//101 47//47 
f 47//47 101//101 49//49 
f 101//101 102//102 49//49 
f 49//49 102//102 51//51 
f 102//102 103//103 51//51 
f 51//51 103//103 53//53 
f 103//103 104//104 53//53 
f 53//53 104//104 55//55 
f 104//104 105//105 55//55 
f 55//55 105//105 57//57 
f 105//105 106//106 57//57 
f 57//57 106//106 59//59 
f 106//106 107//107 59//59 
f 59//59 107//107 61//61 
f 107//107 108//108 61//61 
f 61//61 108//108 63//63 
f 108//108 109//109 63//63 
f 63//63 109//109 65//65 
f 109//109 110//110 65//65 
f 65//65 110//110 67//67 
f 110//110 111//111 67//67 
f 67//67 111//111 69//69 
f 111//111 112//112 69//69 
f 69//69 112//112 71//71 
f 112//112 113//113 71//71 
f 71//71 113//113 73//73 
f 113//113 114//114 73//73 
f 73//73 114//114 75//75 
f 114//114 115//115 75//75 
f 75//75 115//115 77//77 
f 115//115 116//116 77//77 
f 77//77 116//116 79//79 
f 116//116 117//117 79//79 
f 79//79 117//117 81//81 
f 117//117 118//118 81//81 
f 81//81 118//118 83//83 
f 118//118 119//119 83//83 
f 83//83 119//119 85//85 
f 119//119 120//120 85//85 
f 85//85 120//120 87//87 
f 120//120 121//121 87//87 
f 87//87 121//121 89//89 
f 121//121 90//90 89//89 
f 89//89 90//90 90//90 
f 90//90 121//121 90//90 
f 90//90 121//121 121//121 
f 121//121 122//122 121//121 
f 121//121 122//122 90//90 
f 122//122 123//123 90//90 
f 90//90 123//123 91//91 
f 123//123 124//124 91//91 
f 91//91 124//124 92//92 
f 124//124 125//125 92//92 
f 92//92 125//125 93//93 
f 125//125 126//126 93//93 
f 93//93 126//126 94//94 
f 126//126 127//127 94//94 
f 94//94 127//127 95//95 
f 127//127 128//128 95//95 
f 95//95 128//128 96//96 
f 128//128 129//129 96//96 
f 96//96 129//129 97//97 
f 129//129 130//130 97//97 
f 97//97 130//130 98//98 
f 130//130 131//131 98//98 
f 98//98 131//131 99//99 
f 131//131 132//132 99//99 
f 99//99 132//132 100//100 
f 132//132 133//133 100//100 
f 100//100 133//133 101//101 
f 133//133 134//134 101//101 
f 101//101 134//134 102//102 
f 134//134 135//135 102//102 
f 102//102 135//135 103//103 
f 135//135 136//136 103//103 
f 103//103 136//136 104//104 
f 136//136 137//137 104//104 
f 104//104 137//137 105//105 
f 137//137 138//138 105//105 
f 105//105 138//138 106//106 
f 138//138 139//139 106//106 
f 106//106 139//139 107//107 
f 139//139 140//140 107//107 
f 107//107 140//140 108//108 
f 140//140 141//141 108//108 
f 108//108 141//141 109//109 
f 141//141 142//142 109//109 
f 109//109 142//142 110//110 
f 142//142 143//143 110//110 
f 110//110 143//143 111//111 
f 143//143 144//144 111//111 
f 111//111 144//144 112//112 
f 144//144 145//145 112//112 
f 112//112 145//145 113//113 
f 145//145 146//146 113//113 
f 113//113 146//146 114//114 
f 146//146 147//147 114//114 
f 114//114 147//147 115//115 
f 147//147 148//148 115//115 
f 115//115 148//148 116//116 
f 148//148 149//149 116//116 
f 116//116 149//149 117//117 
f 149//149 150//150 117//117 
f 117//117 150//150 118//118 
f 150//150 151//151 118//118 
f 118//118 151//151 119//119 
f 151//151 152//152 119//119 
f 119//119 152//152 120//120 
f 152//152 153//153 120//120 
f 120//120 153//153 121//121 
f 153//153 122//122 121//121 
f 121//121 122//122 122//122 
f 122//122 153//153 122//122 
f 122//122 153//153 153//153 
f 153//153 154//154 153//153 
f 153//153 154//154 122//122 
f 154//154 155//155 122//122 
f 122//122 155//155 123//123 
f 155//155 156//156 123//123 
f 123//123 156//156 124//124 
f 156//156 157//157 124//124 
f 124//124 157//157 125//125 
f 157//157 158//158 125//125 
f 125//125 158//158 126//126 
f 158//158 159//159 126//126 
f 126//126 159//159 127//127 
f 159//159 160//160 127//127 
f 127//127 160//160 128//128 
f 160//160 161//161 128//128 
f 128//128 161//161 129//129 
f 161//161 162//162 129//129 
f 129//129 162//162 130//130 
f 162//162 163//163 130//130 
f 130//130 163//163 131//131 
f 163//163 164//164 131//131 
f 131//131 164//164 132//132 
f 164//164 165//165 132//132 
f 132//132 165//165 133//133 
f 165//165 166//166 133//133 
f 133//133 166//166 134//134 
f 166//166 167//167 134//134 
f 134//134 167//167 135//135 
f 167//167 168//168 135//135 
f 135//135 168//168 136//136 
f 168//168 169//169 136//136 
f 136//136 169//169 137//137 
f 169//169 170//170 137//137 
f 137//137 170//170 138//138 
f 170//170 171//171 138//138 
f 138//138 171//171 139//139 
f 171//171 172//172 139//139 
f 139//139 172//172 140//140 
f 172//172 173//173 140//140 
f 140//140 173//173 141//141 
f 173//173 174//174 141//141 
f 141//141 174//174 142//142 
f 174//174 175//175 142//142 
f 142//142 175//175 143//143 
f 175//175 176//176 143//143 
f 143//143 176//176 144//144 
f 176//176 177//177 144//144 
f 144//144 177//177 145//145 
f 177//177 178//178 145//145 
f 145//145 178//178 146//146 
f 178//178 179//179 146//146 
f 146//146 179//179 147//147 
f 179//179 180//180 147//147 
f 147//147 180//180 148//148 
f 180//180 181//181 148//148 
f 148//148 181//181 149//149 
f 181//181 182//182 149//149 
f 149//149 182//182 150//150 
f 182//182 183//183 150//150 
f 150//150 183//183 151//151 
f 183//183 184//184 151//151 
f 151//151 184//184 152//152 
f 184//184 185//185 152//152 
f 152//152 185//185 153//153 
f 185//185 154//154 153//153 
f 153//153 154//154 154//154 
f 154//154 185//185 154//154 
f 154//154 185//185 185//185 
f 185//185 186//186 185//185 
f 185//185 186//186 154//154 
f 186//186 187//187 154//154 
f 154//154 187//187 155//155 
f 187//187 188//188 155//155 
f 155//155 188//188 156//156 
f 188//188 189//189 156//156 
f 156//156 189//189 157//157 
f 189//189 190//190 157//157 
f 157//157 190//190 158//158 
f 190//190 191//191 158//158 
f 158//158 191//191 159//159 
f 191//191 192//192 159//159 
f 159//159 192//192 160//160 
f 192//192 193//193 160//160 
f 160//160 193//193 161//161 
f 193//193 194//194 161//161 
f 161//161 194//194 162//162 
f 194//194 195//195 162//162 
f 162//162 195//195 163//163 
f 195//195 196//196 163//163 
f 163//163 196//196 164//164 
f 196//196 197//197 164//164 
f 164//164 197//197 165//165 
f 197//197 198//198 165//165 
f 165//165 198//198 166//166 
f 198//198 199//199 166//166 
f 166//166 199//199 167//167 
f 199//199 200//200 167//167 
f 167//167 200//200 168//168 
f 200//200 201//201 168//168 
f 168//168 201//201 169//169 
f 201//201 202//202 169//169 
f 169//169 202//202 170//170 
f 202//202 203//203 170//170 
f 170//170 203//203 171//171 
f 203//203 204//204 171//171 
f 171//171 204//204 172//172 
f 204//204 205//205 172//172 
f 172//172 205//205 173//173 
f 205//205 206//206 173//173 
f 173//173 206//206 174//174 
f 206//206 207//207 174//174 
f 174//174 207//207 175//175 
f 207//207 208//208 175//175 
f 175//175 208//208 176//176 
f 208//208 209//209 176//176 
f 176//176 209//209 177//177 
f 209//209 210//210 177//177 
f 177//177 210//210 178//178 
f 210//210 211//211 178//178 
f 178//178 211//211 179//179 
f 211//211 212//212 179//179 
f 179//179 212//212 180//180 
f 212//212 213//213 180//180 
f 180//180 213//213 181//181 
f 213//213 214//214 181//181 
f 181//181 214//214 182//182 
f 214//214 215//215 182//182 
f 182//182 215//215 183//183 
f 215//215 216//216 183//183 
f 183//183 216//216 184//184 
f 216//216 217//217 184//184 
f 184//184 217//217 185//185 
f 217//217 186//186 185//185 
f 185//185 186//186 186//186 
f 186//186 217//217 186//186 
f 186//186 217//217 217//217 
f 217//217 218//218 217//217 
f 217//217 218//218 186//186 
f 218//218 219//219 186//186 
f 186//186 219//219 187//187 
f 219//219 220//220 187//187 
f 187//187 220//220 188//188 
f 220//220 221//221 188//188 
f 188//188 221//221 189//189 
f 221//221 222//222 189//189 
f 189//189 222//222 190//190 
f 222//222 223//223 190//190 
f 190//190 223//223 191//191 
f 223//223 224//224 191//191 
f 191//191 224//224 192//192 
f 224//224 225//225 192//192 
f 192//192 225//225 193//193 
f 225//225 226//226 193//193 
f 193//193 226//226 194//194 
f 226//226 227//227 194//194 
f 194//194 227//227 195//195 
f 227//227 228//228 195//195 
f 195//195 228//228 196//196 
f 228//228 229//229 196//196 
f 196//196 229//229 197//197 
f 229//229 230//230 197//197 
f 197//197 230//230 198//198 
f 230//230 231//231 198//198 
f 198//198 231//231 199//199 
f 231//231 232//232 199//199 
f 199//199 232//232 200//200 
f 232//232 233//233 200//200 
f 200//200 233//233 201//201 
f 233//233 234//234 201//201 
f 201//201 234//234 202//202 
f 234//234 235//235 202//202 
f 202//202 235//235 203//203 
f 235//235 236//236 203//203 
f 203//203 236//236 204//204 
f 236//236 237//237 204//204 
f 204//204 237//237 205//205 
f 237//237 238//238 205//205 
f 205//205 238//238 206//206 
f 238//238 239//239 206//206 
f 206//206 239//239 207//207 
f 239//239 240//240 207//207 
f 207//207 240//240 208//208 
f 240//240 241//241 208//208 
f 208//208 241//241 209//209 
f 241//241 242//242 209//209 
f 209//209 242//242 210//210 
f 242//242 243//243 210//210 
f 210//210 243//243 211//211 
f 243//243 244//244 211//211 
f 211//211 244//244 212//212 
f 244//244 245//245 212//212 
f 212//212 245//245 213//213 
f 245//245 246//246 213//213 
f 213//213 246//246 214//214 
f 246//246 247//247 214//214 
f 214//214 247//247 215//215 
f 247//247 248//248 215//215 
f 215//215 248//248 216//216 
f 248//248 249//249 216//216 
f 216//216 249//249 217//217 
f 249//249 218//218 217//217 
f 217//217 218//218 218//218 
f 218//218 249//249 218//218 
f 218//218 249//249 249//249 
f 249//249 250//250 249//249 
f 249//249 250//250 218//218 
f 250//250 251//251 218//218 
f 218//218 251//251 219//219 
f 251//251 252//252 219//219 
f 219//219 252//252 220//220 
f 252//252 253//253 220//220 
f 220//220 253//253 221//221 
f 253//253 254//254 221//221 
f 221//221 254//254 222//222 
f 254//254 255//255 222//222 
f 222//222 255//255 223//223 
f 255//255 256//256 223//223 
f 223//223 256//256 224//224 
f 256//256 257//257 224//224 
f 224//224 257//257 225//225 
f 257//257 258//258 225//225 
f 225//225 258//258 226//226 
f 258//258 259//259 226//226 
f 226//226 259//259 227//227 
f 259//259 260//260 227//227 
f 227//227 260//260 228//228 
f 260//260 261//261 228//228 
f 228//228 261//261 229//229 
f 261//261 262//262 229//229 
f 229//229 262//262 230//230 
f 262//262 263//263 230//230 
f 230//230 263//263 231//231 
f 263//263 264//264 231//231 
f 231//231 264//264 232//232 
f 264//264 265//265 232//232 
f 232//232 265//265 233//233 
f 265//265 266//266 233//233 
f 233//233 266//266 234//234 
f 266//266 267//267 234//234 
f 234//234 267//267 235//235 
f 267//267 268//268 235//235 
f 235//235 268//268 236//236 
f 268//268 269//269 236//236 
f 236//236 269//269 237//237 
f 269//269 270//270 237//237 
f 237//237 270//270 238//238 
f 270//270 271//271 238//238 
f 238//238 271//271 239//239 
f 271//271 272//272 239//239 
f 239//239 272//272 240//240 
f 272//272 273//273 240//240 
f 240//240 273//273 241//241 
f 273//273 274//274 241//241 
f 241//241 274//274 242//242 
f 274//274 275//275 242//242 
f 242//242 275//275 243//243 
f 275//275 276//276 243//243 
f 243//243 276//276 244//244 
f 276//276 277//277 244//244 
f 244//244 277//277 245//245 
f 277//277 278//278 245//245 
f 245//245 278//278 246//246 
f 278//278 279//279 246//246 
f 246//246 279//279 247//247 
f 279//279 280//280 247//247 
f 247//247 280//280 248//248 
f 280//280 281//281 248//248 
f 248//248 281//281 249//249 
f 281//281 250//250 249//249 
f 249//249 250//250 250//250 
f 250//250 281//281 250//250 
f 250//250 281//281 281//281 
f 281//281 282//282 281//281 
f 281//281 282//282 250//250 
f 282//282 283//283 250//250 
f 250//250 283//283 251//251 
f 283//283 284//284 251//251 
f 251//251 284//284 252//252 
f 284//284 285//285 252//252 
f 252//252 285//285 253//253 
f 285//285 286//286 253//253 
f 253//253 286//286 254//254 
f 286//286 287//287 254//254 
f 254//254 287//287 255//255 
f 287//287 288//288 255//255 
f 255//255 288//288 256//256 
f 288//288 289//289 256//256 
f 256//256 289//289 257//257 
f 289//289 290//290 257//257 
f 257//257 290//290 258//258 
f 290//290 291//291 258//258 
f 258//258 291//291 259//259 
f 291//291 292//292 259//259 
f 259//259 292//292 260//260 
f 292//292 293//293 260//260 
f 260//260 293//293 261//261 
f 293//293 294//294 261//261 
f 261//261 294//294 262//262 
f 294//294 295//295 262//262 
f 262//262 295//295 263//263 
f 295//295 296//296 263//263 
f 263//263 296//296 264//264 
f 296//296 297//297 264//264 
f 264//264 297//297 265//265 
f 297//297 298//298 265//265 
f 265//265 298//298 266//266 
f 298//298 299//299 266//266 
f 266//266 299//299 267//267 
f 299//299 300//300 267//267 
f 267//267 300//300 268//268 
f 300//300 301//301 268//268 
f 268//268 301//301 269//269 
f 301//301 302//302 269//269 
f 269//269 302//302 270//270 
f 302//302 303//303 270//270 
f 270//270 303//303 271//271 
f 303//303 304//304 271//271 
f 271//271 304//304 272//272 
f 304//304 305//305 272//272 
f 272//272 305//305 273//273 
f 305//305 306//306 273//273 
f 273//273 306//306 274//274 
f 306//306 307//307 274//274 
f 274//274 307//307 275//275 
f 307//307 308//308 275//275 
f 275//275 308//308 276//276 
f 308//308 309//309 276//276 
f 276//276 309//309 277//277 
f 309//309 310//310 277//277 
f 277//277 310//310 278//278 
f 310//310 311//311 278//278 
f 278//278 311//311 279//279 
f 311//311 312//312 279//279 
f 279//279 312//312 280//280 
f 312//312 313//313 280//280 
f 280//280 313//313 281//281 
f 313//313 282//282 281//281 
f 281//281 282//282 282//282 
f 282//282 313//313 282//282 
f 282//282 313//313 313//313 
f 313//313 314//314 313//313 
f 313//313 314//314 282//282 
f 314//314 315//315 282//282 
f 282//282 315//315 283//283 
f 315//315 316//316 283//283 
f 283//283 316//316 284//284 
f 316//316 317//317 284//284 
f 284//284 317//317 285//285 
f 317//317 318//318 285//285 
f 285//285 318//318 286//286 
f 318//318 319//319 286//286 
f 286//286 319//319 287//287 
f 319//319 320//320 287//287 
f 287//287 320//320 288//288 
f 320//320 321//321 288//288 
f 288//288 321//321 289//289 
f 321//321 322//322 289//289 
f 289//289 322//322 290//290 
f 322//322 323//323 290//290 
f 290//290 323//323 291//291 
f 323//323 324//324 291//291 
f 291//291 324//324 292//292 
f 324//324 325//325 292//292 
f 292//292 325//325 293//293 
f 325//325 326//326 293//293 
f 293//293 326//326 294//294 
f 326//326 327//327 294//294 
f 294//294 327//327 295//295 
f 327//327 328//328 295//295 
f 295//295 328//328 296//296 
f 328//328 329//329 296//296 
f 296//296 329//329 297//297 
f 329//329 330//330 297//297 
f 297//297 330//330 298//298 
f 330//330 331//331 298//298 
f 298//298 331//331 299//299 
f 331//331 332//332 299//299 
f 299//299 332//332 300//300 
f 332//332 333//333 300//300 
f 300//300 333//333 301//301 
f 333//333 334//334 301//301 
f 301//301 334//334 302//302 
f 334//334 335//335 302//302 
f 302//302 335//335 303//303 
f 335//335 336//336 303//303 
f 303//303 336//336 304//304 
f 336//336 337//337 304//304 
f 304//304 337//337 305//305 
f 337//337 338//338 305//305 
f 305//305 338//338 306//306 
f 338//338 339//339 306//306 
f 306//306 339//339 307//307 
f 339//339 340//340 307//307 
f 307//307 340//340 308//308 
f 340//340 341//341 308//308 
f 308//308 341//341 309//309 
f 341//341 342//342 309//309 
f 309//309 342//342 310//310 
f 342//342 343//343 310//310 
f 310//310 343//343 311//311 
f 343//343 344//344 311//311 
f 311//311 344//344 312//312 
f 344//344 345//345 312//312 
f 312//312 345//345 313//313 
f 345//345 314//314 313//313 
f 313//313 314//314 314//314 
f 314//314 345//345 314//314 
f 314//314 345//345 345//345 
f 345//345 346//346 345//345 
f 345//345 346//346 314//314 
f 346//346 347//347 314//314 
f 314//314 347//347 315//315 
f 347//347 348//348 315//315 
f 315//315 348//348 316//316 
f 348//348 349//349 316//316 
f 316//316 349//349 317//317 
f 349//349 350//350 317//317 
f 317//317 350//350 318//318 
f 350//350 351//351 318//318 
f 318//318 351//351 319//319 
f 351//351 352//352 319//319 
f 319//319 352//352 320//320 
f 352//352 353//353 320//320 
f 320//320 353//353 321//321 
f 353//353 354//354 321//321 
f 321//321 354//354 322//322 
f 354//354 355//355 322//322 
f 322//322 355//355 323//323 
f 355//355 356//356 323//323 
f 323//323 356//356 324//324 
f 356//356 357//357 324//324 
f 324//324 357//357 325//325 
f 357//357 358//358 325//325 
f 325//325 358//358 326//326 
f 358//358 359//359 326//326 
f 326//326 359//359 327//327 
f 359//359 360//360 327//327 
f 327//327 360//360 328//328 
f 360//360 361//361 328//328 
f 328//328 361//361 329//329 
f 361//361 362//362 329//329 
f 329//329 362//362 330//330 
f 362//362 363//363 330//330 
f 330//330 363//363 331//331 
f 363//363 364//364 331//331 
f 331//331 364//364 332//332 
f 364//364 365//365 332//332 
f 332//332 365//365 333//333 
f 365//365 366//366 333//333 
f 333//333 366//366 334//334 
f 366//366 367//367 334//334 
f 334//334 367//367 335//335 
f 367//367 368//368 335//335 
f 335//335 368//368 336//336 
f 368//368 369//369 336//336 
f 336//336 369//369 337//337 
f 369//369 370//370 337//337 
f 337//337 370//370 338//338 
f 370//370 371//371 338//338 
f 338//338 371//371 339//339 
f 371//371 372//372 339//339 
f 339//339 372//372 340//340 
f 372//372 373//373 340//340 
f 340//340 373//373 341//341 
f 373//373 374//374 341//341 
f 341//341 374//374 342//342 
f 374//374 375//375 342//342 
f 342//342 375//375 343//343 
f 375//375 376//376 343//343 
f 343//343 376//376 344//344 
f 376//376 377//377 344//344 
f 344//344 377//377 345//345 
f 377//377 346//346 345//345 
f 345//345 346//346 346//346 
f 346//346 377//377 346//346 
f 346//346 377//377 377//377 
f 377//377 378//378 377//377 
f 377//377 378//378 346//346 
f 378//378 379//379 346//346 
f 346//346 379//379 347//347 
f 379//379 380//380 347//347 
f 347//347 380//380 348//348 
f 380//380 381//381 348//348 
f 348//348 381//381 349//349 
f 381//381 382//382 349//349 
f 349//349 382//382 350//350 
f 382//382 383//383 350//350 
f 350//350 383//383 351//351 
f 383//383 384//384 351//351 
f 351//351 384//384 352//352 
f 384//384 385//385 352//352 
f 352//352 385//385 353//353 
f 385//385 386//386 353//353 
f 353//353 386//386 354//354 
f 386//386 387//387 354//354 
f 354//354 387//387 355//355 
f 387//387 388//388 355//355 
f 355//355 388//388 356//356 
f 388//388 389//389 356//356 
f 356//356 389//389 357//357 
f 389//389 390//390 357//357 
f 357//357 390//390 358//358 
f 390//390 391//391 358//358 
f 358//358 391//391 359//359 
f 391//391 392//392 359//359 
f 359//359 392//392 360//360 
f 392//392 393//393 360//360 
f 360//360 393//393 361//361 
f 393//393 394//394 361//361 
f 361//361 394//394 362//362 
f 394//394 395//395 362//362 
f 362//362 395//395 363//363 
f 395//395 396//396 363//363 
f 363//363 396//396 364//364 
f 396//396 397//397 364//364 
f 364//364 397//397 365//365 
f 397//397 398//398 365//365 
f 365//365 398//398 366//366 
f 398//398 399//399 366//366 
f 366//366 399//399 367//367 
f 399//399 400//400 367//367 
f 367//367 400//400 368//368 
f 400//400 401//401 368//368 
f 368//368 401//401 369//369 
f 401//401 402//402 369//369 
f 369//369 402//402 370//370 
f 402//402 403//403 370//370 
f 370//370 403//403 371//371 
f 403//403 404//404 371//371 
f 371//371 404//404 372//372 
f 404//404 405//405 372//372 
f 372//372 405//405 373//373 
f 405//405 406//406 373//373 
f 373//373 406//406 374//374 
f 406//406 407//407 374//374 
f 374//374 407//407 375//375 
f 407//407 408//408 375//375 
f 375//375 408//408 376//376 
f 408//408 409//409 376//376 
f 376//376 409//409 377//377 
f 409//409 378//378 377//377 
f 377//377 378//378 378//378 
f 378//378 396//396 378//378 
f 378//378 396//396 396//396 
f 396//396 395//395 396//396 
f 396//396 395//395 397//397 
f 395//395 393//393 397//397 
f 397//397 393//393 401//401 
f 393//393 385//385 401//401 
f 401//401 385//385 409//409 
f 385//385 381//381 409//409 
f 409//409 381//381 379//379 
f 381//381 380//380 379//379 
f 379//379 380//380 380//380 
f 380//380 409//409 380//380 
f 380//380 409//409 409//409 
f 409//409 405//405 409//409 
f 409//409 405//405 401//401 
f 405//405 403//403 401//401 
f 401//401 403//403 402//402 
f 403//403 402//402 402//402 
f 402//402 402//402 409//409 
f 402//402 409//409 409//409 
f 409//409 409//409 409//409 
f 409//409 407//407 409//409 
f 409//409 407//407 405//405 
f 407//407 406//406 405//405 
f 405//405 406//406 406//406 
f 406//406 390//390 406//406 
f 406//406 390//390 390//390 
f 390//390 389//389 390//390 
f 390//390 389//389 391//391 
f 389//389 393//393 391//391 
f 391//391 393//393 392//392 
f 393//393 392//392 392//392 
f 392//392 392//392 393//393 
f 392//392 393//393 393//393 
f 393//393 393//393 393//393 
f 393//393 389//389 393//393 
f 393//393 389//389 385//385 
f 389//389 387//387 385//385 
f 385//385 387//387 386//386 
f 387//387 386//386 386//386 
f 386//386 386//386 384//384 
f 386//386 384//384 384//384 
f 384//384 384//384 384//384 
f 384//384 383//383 384//384 
f 384//384 383//383 385//385 
f 383//383 381//381 385//385 
f 385//385 381//381 381//381 
f 381//381 398//398 381//381 
f 381//381 398//398 398//398 
f 398//398 397//397 398//398 
f 398//398 397//397 399//399 
f 397//397 401//401 399//399 
f 399//399 401//401 400//400 
f 2//2 410//410 4//4 
f 4//4 411//411 6//6 
f 22//22 412//412 23//23 
f 23//23 413//413 24//24 
f 8//8 414//414 16//16 
f 13//13 415//415 14//14 
f 9//9 416//416 11//11 
f 395//395 394//394 393//393 
f 389//389 388//388 387//387 
f 383//383 382//382 381//381 
f 379//379 378//378 409//409 
f 409//409 408//408 407//407 
f 405//405 404//404 403//403 

