mtllib model_3.mtl
o model_3
v 205.99000549316406 398.42401123046875 35.53269958496094 
v 219.3470001220703 398.42401123046875 35.53269958496094 
v 219.3470001220703 398.42401123046875 38.97639846801758 
v 205.99000549316406 398.42401123046875 38.97639846801758 
vn 0 -1 0 
vn 0 -1 0 
vn 0 -1 0 
vn 0 -1 0 
vt 0.019498499110341072 -0.009683850221335888 
vt 0.9813470244407654 -0.009683850221335888 
vt 0.9813470244407654 1.0006300210952759 
vt 0.01949859969317913 1.0006300210952759 
s on 
f 2/2/2 3/3/3 1/1/1 
f 3/3/3 4/4/4 1/1/1 

