mtllib model_1.mtl
o model_1
v 218.11000061035156 430.4859924316406 39.25 
v 219.63900756835938 398.4859924316406 39.25 
v 219.63900756835938 430.4859924316406 39.25 
v 218.11000061035156 429.4859924316406 39.25 
v 218.11000061035156 424.4859924316406 39.25 
v 215.18600463867188 418.9070129394531 39.25 
v 215.18600463867188 405.9070129394531 39.25 
v 203.18600463867188 405.9070129394531 39.25 
v 183.34100341796875 408.125 39.25 
v 171.34100341796875 408.125 39.25 
v 170.63900756835938 398.4859924316406 39.25 
v 170.63900756835938 430.4859924316406 39.25 
v 171.34100341796875 420.125 39.25 
v 172.11000061035156 430.4859924316406 39.25 
v 172.11000061035156 424.4859924316406 39.25 
v 183.34100341796875 420.125 39.25 
v 203.18600463867188 418.9070129394531 39.25 
v 172.11000061035156 429.4859924316406 39.25 
vn 0 0 1 
vn 0 0 1 
vn 0 0 1 
vn 0 0 1 
vn 0 0 1 
vn 0 0 1 
vn 0 0 1 
vn 0 0 1 
vn 0 0 1 
vn 0 0 1 
vn 0 0 1 
vn 0 0 1 
vn 0 0 1 
vn 0 0 1 
vn 0 0 1 
vn 0 0 1 
vn 0 0 1 
vn 0 0 1 
vt 105.93599700927734 17.852699279785156 
vt 109.3479995727539 0 
vt 109.3479995727539 17.852699279785156 
vt 105.93599700927734 17.2947998046875 
vt 105.93599700927734 14.50529956817627 
vt 99.41079711914062 11.3927001953125 
vt 99.41079711914062 4.14001989364624 
vt 72.63169860839844 4.14001989364624 
vt 28.34510040283203 5.377140045166016 
vt 1.566059947013855 5.377140045166016 
vt 0 0 
vt 0 17.852699279785156 
vt 1.566059947013855 12.071900367736816 
vt 3.2826099395751953 17.852699279785156 
vt 3.2826099395751953 14.50529956817627 
vt 28.34510040283203 12.071900367736816 
vt 72.63169860839844 11.3927001953125 
vt 3.2826099395751953 17.2947998046875 
s on 
f 14/14/14 15/15/15 18/18/18 
f 3/3/3 1/1/1 2/2/2 
f 1/1/1 4/4/4 2/2/2 
f 2/2/2 4/4/4 5/5/5 
f 4/4/4 5/5/5 5/5/5 
f 5/5/5 5/5/5 5/5/5 
f 5/5/5 5/5/5 5/5/5 
f 5/5/5 5/5/5 5/5/5 
f 5/5/5 6/6/6 5/5/5 
f 5/5/5 6/6/6 2/2/2 
f 6/6/6 7/7/7 2/2/2 
f 2/2/2 7/7/7 8/8/8 
f 7/7/7 8/8/8 8/8/8 
f 8/8/8 8/8/8 6/6/6 
f 8/8/8 6/6/6 6/6/6 
f 6/6/6 6/6/6 6/6/6 
f 6/6/6 5/5/5 6/6/6 
f 6/6/6 5/5/5 17/17/17 
f 5/5/5 16/16/16 17/17/17 
f 17/17/17 16/16/16 8/8/8 
f 16/16/16 9/9/9 8/8/8 
f 8/8/8 9/9/9 2/2/2 
f 9/9/9 10/10/10 2/2/2 
f 2/2/2 10/10/10 11/11/11 
f 10/10/10 12/12/12 11/11/11 
f 11/11/11 12/12/12 12/12/12 
f 12/12/12 10/10/10 12/12/12 
f 12/12/12 10/10/10 10/10/10 
f 10/10/10 13/13/13 10/10/10 
f 10/10/10 13/13/13 12/12/12 
f 13/13/13 14/14/14 12/12/12 
f 12/12/12 14/14/14 14/14/14 
f 14/14/14 14/14/14 14/14/14 
f 14/14/14 14/14/14 14/14/14 
f 14/14/14 13/13/13 14/14/14 
f 14/14/14 13/13/13 15/15/15 
f 13/13/13 16/16/16 15/15/15 
f 15/15/15 16/16/16 5/5/5 

