mtllib model_7.mtl
o model_7
v 170.63900756835938 428.4859924316406 41.25 
v 170.63900756835938 428.4859924316406 69.25 
v 170.63900756835938 417.5140075683594 69.25 
v 170.63900756835938 400.4859924316406 49.25 
v 170.63900756835938 400.4859924316406 41.25 
v 219.63900756835938 428.4859924316406 69.25 
v 219.63900756835938 417.5140075683594 69.25 
v 219.63900756835938 400.4859924316406 49.25 
v 219.63900756835938 400.4859924316406 41.25 
v 219.63900756835938 428.4859924316406 41.25 
vn 1 0 0 
vn 1 0 0 
vn 1 0 0 
vn 1 0 0 
vn 1 0 0 
vn 1 0 0 
vn 1 0 0 
vn 1 0 0 
vn 1 0 0 
vn 1 0 0 
vt 1.25 1.7083300352096558 
vt 1.25 2.875 
vt 0.792809009552002 2.875 
vt 0.08333329856395721 2.041670083999634 
vt 0.08333329856395721 1.7083300352096558 
vt 1.25 2.875 
vt 0.792809009552002 2.875 
vt 0.08333329856395721 2.041670083999634 
vt 0.08333329856395721 1.7083300352096558 
vt 1.25 1.7083300352096558 
s on 
f 2/2/2 3/3/3 1/1/1 
f 3/3/3 4/4/4 1/1/1 
f 1/1/1 4/4/4 5/5/5 
f 4/4/4 5/5/5 5/5/5 
f 5/5/5 5/5/5 10/10/10 
f 5/5/5 10/10/10 10/10/10 
f 10/10/10 10/10/10 10/10/10 
f 10/10/10 6/6/6 10/10/10 
f 10/10/10 6/6/6 9/9/9 
f 6/6/6 8/8/8 9/9/9 

