mtllib model_4.mtl
o model_4
v 171.34100341796875 420.125 40.25 
v 171.34100341796875 420.125 39.25 
v 171.34100341796875 408.125 39.25 
v 171.34100341796875 408.125 40.25 
v 210.77699279785156 422.1109924316406 70.7313003540039 
v 210.77699279785156 427.1730041503906 70.7313003540039 
v 179.33999633789062 427.1730041503906 70.7313003540039 
v 179.33999633789062 422.1109924316406 70.7313003540039 
v 197.51400756835938 405.4490051269531 61.76679992675781 
v 197.74899291992188 405.5830078125 62.2140007019043 
v 188.9409942626953 408.47900390625 65.96009826660156 
v 188.70599365234375 408.3450012207031 65.51280212402344 
v 197.9949951171875 405.83599853515625 62.59809875488281 
v 198.23800659179688 406.1929931640625 62.8927001953125 
v 189.42999267578125 409.0889892578125 66.63880157470703 
v 189.18699645996094 408.73199462890625 66.34410095214844 
v 198.23800659179688 406.1929931640625 62.8927001953125 
v 198.45899963378906 406.62701416015625 63.077999114990234 
v 189.6510009765625 409.52301025390625 66.8240966796875 
v 189.42999267578125 409.0889892578125 66.63880157470703 
v 198.45899963378906 406.62701416015625 63.077999114990234 
v 198.64500427246094 407.1109924316406 63.14120101928711 
v 189.83700561523438 410.0069885253906 66.88729858398438 
v 189.6510009765625 409.52301025390625 66.8240966796875 
v 198.64500427246094 407.1109924316406 63.14120101928711 
v 198.7830047607422 407.6109924316406 63.077999114990234 
v 189.97500610351562 410.5069885253906 66.8240966796875 
v 189.968994140625 410.4840087890625 66.82689666748047 
v 189.83700561523438 410.0069885253906 66.88729858398438 
v 198.7830047607422 407.6109924316406 63.077999114990234 
v 198.86199951171875 408.0929870605469 62.8927001953125 
v 190.0540008544922 410.989013671875 66.63880157470703 
v 189.97500610351562 410.5069885253906 66.8240966796875 
v 198.86199951171875 408.0929870605469 62.8927001953125 
v 198.87899780273438 408.52301025390625 62.59809875488281 
v 190.0709991455078 411.41900634765625 66.34410095214844 
v 190.0540008544922 410.989013671875 66.63880157470703 
v 198.87899780273438 408.52301025390625 62.59809875488281 
v 198.8300018310547 408.8739929199219 62.2140007019043 
v 190.02200317382812 411.7699890136719 65.96009826660156 
v 190.0709991455078 411.41900634765625 66.34410095214844 
v 198.8300018310547 408.8739929199219 62.2140007019043 
v 198.7209930419922 409.1199951171875 61.76679992675781 
v 189.91299438476562 412.0159912109375 65.51280212402344 
v 190.02200317382812 411.7699890136719 65.96009826660156 
v 198.7209930419922 409.1199951171875 61.76679992675781 
v 198.55799865722656 409.2449951171875 61.286800384521484 
v 189.75 412.1409912109375 65.03289794921875 
v 189.91299438476562 412.0159912109375 65.51280212402344 
v 198.55799865722656 409.2449951171875 61.286800384521484 
v 198.35299682617188 409.2409973144531 60.80690002441406 
v 189.5449981689453 412.1369934082031 64.55290222167969 
v 189.75 412.1409912109375 65.03289794921875 
v 198.35299682617188 409.2409973144531 60.80690002441406 
v 198.11900329589844 409.1080017089844 60.35960006713867 
v 189.31100463867188 412.0039978027344 64.10569763183594 
v 189.5449981689453 412.1369934082031 64.55290222167969 
v 198.11900329589844 409.1080017089844 60.35960006713867 
v 197.8719940185547 408.85400390625 59.97560119628906 
v 189.06399536132812 411.75 63.72159957885742 
v 189.31100463867188 412.0039978027344 64.10569763183594 
v 197.8719940185547 408.85400390625 59.97560119628906 
v 197.6300048828125 408.49798583984375 59.68090057373047 
v 188.82200622558594 411.3940124511719 63.426998138427734 
v 189.06399536132812 411.75 63.72159957885742 
v 197.6300048828125 408.49798583984375 59.68090057373047 
v 197.4080047607422 408.06298828125 59.495601654052734 
v 188.60000610351562 410.9590148925781 63.24169921875 
v 188.82200622558594 411.3940124511719 63.426998138427734 
v 197.4080047607422 408.06298828125 59.495601654052734 
v 197.2220001220703 407.5790100097656 59.43239974975586 
v 188.41400146484375 410.4750061035156 63.17850112915039 
v 188.60000610351562 410.9590148925781 63.24169921875 
v 197.2220001220703 407.5790100097656 59.43239974975586 
v 197.08399963378906 407.0799865722656 59.495601654052734 
v 188.2760009765625 409.9750061035156 63.24169921875 
v 188.28199768066406 409.9989929199219 63.23889923095703 
v 188.41400146484375 410.4750061035156 63.17850112915039 
v 197.08399963378906 407.0799865722656 59.495601654052734 
v 197.0050048828125 406.5979919433594 59.68090057373047 
v 188.19700622558594 409.4939880371094 63.426998138427734 
v 188.2760009765625 409.9750061035156 63.24169921875 
v 197.0050048828125 406.5979919433594 59.68090057373047 
v 196.98899841308594 406.1669921875 59.97560119628906 
v 188.18099975585938 409.06298828125 63.72159957885742 
v 188.19700622558594 409.4939880371094 63.426998138427734 
v 196.98899841308594 406.1669921875 59.97560119628906 
v 197.03700256347656 405.8169860839844 60.35960006713867 
v 188.22900390625 408.7130126953125 64.10569763183594 
v 188.18099975585938 409.06298828125 63.72159957885742 
v 197.03700256347656 405.8169860839844 60.35960006713867 
v 197.14599609375 405.5710144042969 60.80690002441406 
v 188.33799743652344 408.4670104980469 64.55290222167969 
v 188.22900390625 408.7130126953125 64.10569763183594 
v 197.14599609375 405.5710144042969 60.80690002441406 
v 197.3090057373047 405.44500732421875 61.286800384521484 
v 188.50100708007812 408.34100341796875 65.03289794921875 
v 188.33799743652344 408.4670104980469 64.55290222167969 
v 197.3090057373047 405.44500732421875 61.286800384521484 
v 197.51400756835938 405.4490051269531 61.76679992675781 
v 188.70599365234375 408.3450012207031 65.51280212402344 
v 188.50100708007812 408.34100341796875 65.03289794921875 
v 197.74899291992188 405.5830078125 62.2140007019043 
v 197.9949951171875 405.83599853515625 62.59809875488281 
v 189.18699645996094 408.73199462890625 66.34410095214844 
v 188.9409942626953 408.47900390625 65.96009826660156 
v 177.9239959716797 411.95599365234375 46.71549987792969 
v 184.8699951171875 409.6719970703125 63.13909912109375 
v 184.4080047607422 409.75201416015625 63.367401123046875 
v 177.45399475097656 412.03900146484375 46.92599868774414 
v 177.9239959716797 411.95599365234375 46.71549987792969 
v 178.40499877929688 412.00799560546875 46.5192985534668 
v 185.36000061035156 409.72100830078125 62.96310043334961 
v 184.87899780273438 409.66900634765625 63.1593017578125 
v 184.8699951171875 409.6719970703125 63.13909912109375 
v 177.45399475097656 412.03900146484375 46.92599868774414 
v 184.4080047607422 409.75201416015625 63.367401123046875 
v 184.3520050048828 409.7799987792969 63.39799880981445 
v 183.9810028076172 409.9639892578125 63.58039855957031 
v 177.0260009765625 412.2510070800781 47.136600494384766 
v 176.6699981689453 412.5780029296875 47.332698822021484 
v 177.0260009765625 412.2510070800781 47.136600494384766 
v 183.9810028076172 409.9639892578125 63.58039855957031 
v 183.625 410.2919921875 63.7765998840332 
v 176.41000366210938 412.9989929199219 47.50120162963867 
v 176.6699981689453 412.5780029296875 47.332698822021484 
v 183.625 410.2919921875 63.7765998840332 
v 183.36500549316406 410.7120056152344 63.94499969482422 
v 176.26300048828125 413.4830017089844 47.63050079345703 
v 176.41000366210938 412.9989929199219 47.50120162963867 
v 183.36500549316406 410.7120056152344 63.94499969482422 
v 183.21800231933594 411.1960144042969 64.07430267333984 
v 176.24000549316406 413.99798583984375 47.71179962158203 
v 176.26300048828125 413.4830017089844 47.63050079345703 
v 183.21800231933594 411.1960144042969 64.07430267333984 
v 183.19500732421875 411.71099853515625 64.15560150146484 
v 176.34300231933594 414.5090026855469 47.739498138427734 
v 176.24000549316406 413.99798583984375 47.71179962158203 
v 183.19500732421875 411.71099853515625 64.15560150146484 
v 183.29800415039062 412.22198486328125 64.18329620361328 
v 176.56399536132812 414.9809875488281 47.71179962158203 
v 176.34300231933594 414.5090026855469 47.739498138427734 
v 183.29800415039062 412.22198486328125 64.18329620361328 
v 183.5189971923828 412.69500732421875 64.15560150146484 
v 176.88800048828125 415.38299560546875 47.63050079345703 
v 176.56399536132812 414.9809875488281 47.71179962158203 
v 183.5189971923828 412.69500732421875 64.15560150146484 
v 183.84300231933594 413.09600830078125 64.07430267333984 
v 177.29299926757812 415.68499755859375 47.50120162963867 
v 176.88800048828125 415.38299560546875 47.63050079345703 
v 183.84300231933594 413.09600830078125 64.07430267333984 
v 184.2480010986328 413.39898681640625 63.94499969482422 
v 177.7519989013672 415.8689880371094 47.332698822021484 
v 177.29299926757812 415.68499755859375 47.50120162963867 
v 184.2480010986328 413.39898681640625 63.94499969482422 
v 184.70700073242188 413.5830078125 63.7765998840332 
v 178.23300170898438 415.9209899902344 47.136600494384766 
v 177.7519989013672 415.8689880371094 47.332698822021484 
v 184.70700073242188 413.5830078125 63.7765998840332 
v 185.18800354003906 413.635009765625 63.58039855957031 
v 178.7030029296875 415.8380126953125 46.92599868774414 
v 178.23300170898438 415.9209899902344 47.136600494384766 
v 185.18800354003906 413.635009765625 63.58039855957031 
v 185.6580047607422 413.552001953125 63.36980056762695 
v 185.6580047607422 413.552001953125 63.36980056762695 
v 185.71600341796875 413.52301025390625 63.34159851074219 
v 186.07899475097656 413.3420104980469 63.143699645996094 
v 179.13099670410156 415.6260070800781 46.71549987792969 
v 178.7030029296875 415.8380126953125 46.92599868774414 
v 179.48699951171875 415.29901123046875 46.5192985534668 
v 179.3090057373047 415.4620056152344 46.617401123046875 
v 179.13099670410156 415.6260070800781 46.71549987792969 
v 186.07899475097656 413.3420104980469 63.143699645996094 
v 186.08599853515625 413.3389892578125 63.1593017578125 
v 186.44200134277344 413.0119934082031 62.96310043334961 
v 186.42799377441406 413.0159912109375 62.93009948730469 
v 179.7480010986328 414.87799072265625 46.350799560546875 
v 179.48699951171875 415.29901123046875 46.5192985534668 
v 186.42799377441406 413.0159912109375 62.93009948730469 
v 186.44200134277344 413.0119934082031 62.96310043334961 
v 186.7030029296875 412.5920104980469 62.79460144042969 
v 179.8939971923828 414.3940124511719 46.221500396728516 
v 179.7480010986328 414.87799072265625 46.350799560546875 
v 186.7030029296875 412.5920104980469 62.79460144042969 
v 186.8489990234375 412.1080017089844 62.66529846191406 
v 178.40499877929688 412.00799560546875 46.5192985534668 
v 178.86399841308594 412.1919860839844 46.350799560546875 
v 185.81900024414062 409.9049987792969 62.79460144042969 
v 185.36000061035156 409.72100830078125 62.96310043334961 
v 178.86399841308594 412.1919860839844 46.350799560546875 
v 179.2689971923828 412.4939880371094 46.221500396728516 
v 186.2239990234375 410.2080078125 62.66529846191406 
v 185.81900024414062 409.9049987792969 62.79460144042969 
v 179.2689971923828 412.4939880371094 46.221500396728516 
v 179.59300231933594 412.89599609375 46.14030075073242 
v 186.54800415039062 410.6090087890625 62.58409881591797 
v 186.2239990234375 410.2080078125 62.66529846191406 
v 179.59300231933594 412.89599609375 46.14030075073242 
v 179.81399536132812 413.3680114746094 46.11249923706055 
v 186.7689971923828 411.08099365234375 62.556400299072266 
v 186.54800415039062 410.6090087890625 62.58409881591797 
v 179.81399536132812 413.3680114746094 46.11249923706055 
v 179.90499877929688 413.82000732421875 46.13719940185547 
v 179.91700744628906 413.8789978027344 46.14030075073242 
v 186.8719940185547 411.5920104980469 62.58409881591797 
v 186.7689971923828 411.08099365234375 62.556400299072266 
v 179.91700744628906 413.8789978027344 46.14030075073242 
v 179.8939971923828 414.3940124511719 46.221500396728516 
v 186.8489990234375 412.1080017089844 62.66529846191406 
v 186.8719940185547 411.5920104980469 62.58409881591797 
vn -1 0 0 
vn -1 0 0 
vn -1 0 0 
vn -1 0 0 
vn 0 0 1 
vn 0 0 1 
vn 0 0 1 
vn 0 0 1 
vn -0.20958800613880157 -0.9478849768638611 0.23997299373149872 
vn -0.09255710244178772 -0.8812010288238525 0.463591992855072 
vn -0.09255710244178772 -0.8812010288238525 0.463591992855072 
vn -0.20958800613880157 -0.9478849768638611 0.23997299373149872 
vn 0.03078100085258484 -0.7544649839401245 0.6556180119514465 
vn 0.15202100574970245 -0.5763130187988281 0.802964985370636 
vn 0.15202100574970245 -0.5763130187988281 0.802964985370636 
vn 0.03078100085258484 -0.7544649839401245 0.6556180119514465 
vn 0.15202100574970245 -0.5763130187988281 0.802964985370636 
vn 0.26290199160575867 -0.3588869869709015 0.8955910205841064 
vn 0.26290199160575867 -0.3588869869709015 0.8955910205841064 
vn 0.15202100574970245 -0.5763130187988281 0.802964985370636 
vn 0.26290199160575867 -0.3588869869709015 0.8955910205841064 
vn 0.3558630049228668 -0.11701100319623947 0.927183985710144 
vn 0.3558630049228668 -0.11701100319623947 0.927183985710144 
vn 0.26290199160575867 -0.3588869869709015 0.8955910205841064 
vn 0.3558630049228668 -0.11701100319623947 0.927183985710144 
vn 0.424576997756958 0.13284599781036377 0.895592987537384 
vn 0.424576997756958 0.13284599781036377 0.895592987537384 
vn 0.3935849964618683 0.007977140136063099 0.9192529916763306 
vn 0.3558630049228668 -0.11701100319623947 0.927183985710144 
vn 0.424576997756958 0.13284599781036377 0.895592987537384 
vn 0.464356005191803 0.37365901470184326 0.802964985370636 
vn 0.464356005191803 0.37365901470184326 0.802964985370636 
vn 0.424576997756958 0.13284599781036377 0.895592987537384 
vn 0.464356005191803 0.37365901470184326 0.802964985370636 
vn 0.47248899936676025 0.588998019695282 0.6556180119514465 
vn 0.47248899936676025 0.588998019695282 0.6556180119514465 
vn 0.464356005191803 0.37365901470184326 0.802964985370636 
vn 0.47248899936676025 0.588998019695282 0.6556180119514465 
vn 0.44842299818992615 0.7641990184783936 0.463591992855072 
vn 0.44842299818992615 0.7641990184783936 0.463591992855072 
vn 0.47248899936676025 0.588998019695282 0.6556180119514465 
vn 0.44842299818992615 0.7641990184783936 0.463591992855072 
vn 0.39379701018333435 0.8873199820518494 0.23997299373149872 
vn 0.39379701018333435 0.8873199820518494 0.23997299373149872 
vn 0.44842299818992615 0.7641990184783936 0.463591992855072 
vn 0.39379701018333435 0.8873199820518494 0.23997299373149872 
vn 0.3123350143432617 0.9499719738960266 -1.7739299841272485e-15 
vn 0.3123350143432617 0.9499719738960266 -1.7739299841272485e-15 
vn 0.39379701018333435 0.8873199820518494 0.23997299373149872 
vn 0.3123350143432617 0.9499719738960266 -1.7739299841272485e-15 
vn 0.20958800613880157 0.9478849768638611 -0.23997299373149872 
vn 0.20958800613880157 0.9478849768638611 -0.23997299373149872 
vn 0.3123350143432617 0.9499719738960266 -1.7739299841272485e-15 
vn 0.20958800613880157 0.9478849768638611 -0.23997299373149872 
vn 0.09255710244178772 0.8812010288238525 -0.463591992855072 
vn 0.09255710244178772 0.8812010288238525 -0.463591992855072 
vn 0.20958800613880157 0.9478849768638611 -0.23997299373149872 
vn 0.09255710244178772 0.8812010288238525 -0.463591992855072 
vn -0.03078100085258484 0.7544649839401245 -0.6556180119514465 
vn -0.03078100085258484 0.7544649839401245 -0.6556180119514465 
vn 0.09255710244178772 0.8812010288238525 -0.463591992855072 
vn -0.03078100085258484 0.7544649839401245 -0.6556180119514465 
vn -0.15202100574970245 0.5763130187988281 -0.802964985370636 
vn -0.15202100574970245 0.5763130187988281 -0.802964985370636 
vn -0.03078100085258484 0.7544649839401245 -0.6556180119514465 
vn -0.15202100574970245 0.5763130187988281 -0.802964985370636 
vn -0.26290199160575867 0.3588869869709015 -0.8955910205841064 
vn -0.26290199160575867 0.3588869869709015 -0.8955910205841064 
vn -0.15202100574970245 0.5763130187988281 -0.802964985370636 
vn -0.26290199160575867 0.3588869869709015 -0.8955910205841064 
vn -0.3558630049228668 0.11701100319623947 -0.927183985710144 
vn -0.3558630049228668 0.11701100319623947 -0.927183985710144 
vn -0.26290199160575867 0.3588869869709015 -0.8955910205841064 
vn -0.3558630049228668 0.11701100319623947 -0.927183985710144 
vn -0.4245760142803192 -0.13284699618816376 -0.895592987537384 
vn -0.4245760142803192 -0.13284699618816376 -0.895592987537384 
vn -0.3935840129852295 -0.00797772966325283 -0.9192540049552917 
vn -0.3558630049228668 0.11701100319623947 -0.927183985710144 
vn -0.4245760142803192 -0.13284699618816376 -0.895592987537384 
vn -0.464356005191803 -0.37365901470184326 -0.802964985370636 
vn -0.464356005191803 -0.37365901470184326 -0.802964985370636 
vn -0.4245760142803192 -0.13284699618816376 -0.895592987537384 
vn -0.464356005191803 -0.37365901470184326 -0.802964985370636 
vn -0.47248899936676025 -0.588998019695282 -0.6556180119514465 
vn -0.47248899936676025 -0.588998019695282 -0.6556180119514465 
vn -0.464356005191803 -0.37365901470184326 -0.802964985370636 
vn -0.47248899936676025 -0.588998019695282 -0.6556180119514465 
vn -0.44842299818992615 -0.7641990184783936 -0.463591992855072 
vn -0.44842299818992615 -0.7641990184783936 -0.463591992855072 
vn -0.47248899936676025 -0.588998019695282 -0.6556180119514465 
vn -0.44842299818992615 -0.7641990184783936 -0.463591992855072 
vn -0.39379701018333435 -0.8873199820518494 -0.23997299373149872 
vn -0.39379701018333435 -0.8873199820518494 -0.23997299373149872 
vn -0.44842299818992615 -0.7641990184783936 -0.463591992855072 
vn -0.39379701018333435 -0.8873199820518494 -0.23997299373149872 
vn -0.3123350143432617 -0.9499719738960266 -1.036149993387768e-15 
vn -0.3123350143432617 -0.9499719738960266 -1.036149993387768e-15 
vn -0.39379701018333435 -0.8873199820518494 -0.23997299373149872 
vn -0.3123350143432617 -0.9499719738960266 -1.036149993387768e-15 
vn -0.20958800613880157 -0.9478849768638611 0.23997299373149872 
vn -0.20958800613880157 -0.9478849768638611 0.23997299373149872 
vn -0.3123350143432617 -0.9499719738960266 -1.036149993387768e-15 
vn -0.09255710244178772 -0.8812010288238525 0.463591992855072 
vn 0.03078100085258484 -0.7544649839401245 0.6556180119514465 
vn 0.03078100085258484 -0.7544649839401245 0.6556180119514465 
vn -0.09255710244178772 -0.8812010288238525 0.463591992855072 
vn -0.07711149752140045 -0.9914510250091553 -0.1052509993314743 
vn 0.04164950177073479 -0.9862329959869385 -0.16003000736236572 
vn -0.3122830092906952 -0.9499890208244324 -0.000021703999664168805 
vn -0.3122830092906952 -0.9499890208244324 -0.000021703999664168805 
vn -0.07711149752140045 -0.9914510250091553 -0.1052509993314743 
vn 0.16334299743175507 -0.9653890132904053 -0.20333099365234375 
vn 0.16334299743175507 -0.9653890132904053 -0.20333099365234375 
vn 0.26229700446128845 -0.9319270253181458 -0.25042301416397095 
vn 0.04164950177073479 -0.9862329959869385 -0.16003000736236572 
vn -0.3122830092906952 -0.9499890208244324 -0.000021703999664168805 
vn -0.3122830092906952 -0.9499890208244324 -0.000021703999664168805 
vn -0.42294299602508545 -0.9046000242233276 0.05309149995446205 
vn -0.526308000087738 -0.8437520265579224 0.10527200251817703 
vn -0.526308000087738 -0.8437520265579224 0.10527200251817703 
vn -0.704410970211029 -0.6800339818000793 0.20336799323558807 
vn -0.526308000087738 -0.8437520265579224 0.10527200251817703 
vn -0.526308000087738 -0.8437520265579224 0.10527200251817703 
vn -0.704410970211029 -0.6800339818000793 0.20336799323558807 
vn -0.8345119953155518 -0.4699710011482239 0.28760600090026855 
vn -0.704410970211029 -0.6800339818000793 0.20336799323558807 
vn -0.704410970211029 -0.6800339818000793 0.20336799323558807 
vn -0.8345119953155518 -0.4699710011482239 0.28760600090026855 
vn -0.9077410101890564 -0.22788099944591522 0.35224398970603943 
vn -0.8345119953155518 -0.4699710011482239 0.28760600090026855 
vn -0.8345119953155518 -0.4699710011482239 0.28760600090026855 
vn -0.9077410101890564 -0.22788099944591522 0.35224398970603943 
vn -0.9191100001335144 0.02973880060017109 0.3928770124912262 
vn -0.9077410101890564 -0.22788099944591522 0.35224398970603943 
vn -0.9077410101890564 -0.22788099944591522 0.35224398970603943 
vn -0.9191100001335144 0.02973880060017109 0.3928770124912262 
vn -0.867842972278595 0.28533199429512024 0.40673699975013733 
vn -0.9191100001335144 0.02973880060017109 0.3928770124912262 
vn -0.9191100001335144 0.02973880060017109 0.3928770124912262 
vn -0.867842972278595 0.28533199429512024 0.40673699975013733 
vn -0.7574329972267151 0.5214809775352478 0.3928770124912262 
vn -0.867842972278595 0.28533199429512024 0.40673699975013733 
vn -0.867842972278595 0.28533199429512024 0.40673699975013733 
vn -0.7574329972267151 0.5214809775352478 0.3928770124912262 
vn -0.5954059958457947 0.722091019153595 0.35224398970603943 
vn -0.7574329972267151 0.5214809775352478 0.3928770124912262 
vn -0.7574329972267151 0.5214809775352478 0.3928770124912262 
vn -0.5954059958457947 0.722091019153595 0.35224398970603943 
vn -0.39280301332473755 0.8734920024871826 0.28760600090026855 
vn -0.5954059958457947 0.722091019153595 0.35224398970603943 
vn -0.5954059958457947 0.722091019153595 0.35224398970603943 
vn -0.39280301332473755 0.8734920024871826 0.28760600090026855 
vn -0.16343100368976593 0.965366005897522 0.20336799323558807 
vn -0.39280301332473755 0.8734920024871826 0.28760600090026855 
vn -0.39280301332473755 0.8734920024871826 0.28760600090026855 
vn -0.16343100368976593 0.965366005897522 0.20336799323558807 
vn 0.0770782008767128 0.9914519786834717 0.10527099668979645 
vn -0.16343100368976593 0.965366005897522 0.20336799323558807 
vn -0.16343100368976593 0.965366005897522 0.20336799323558807 
vn 0.0770782008767128 0.9914519786834717 0.10527099668979645 
vn 0.3123660087585449 0.9499620199203491 -0.000013637400115840137 
vn 0.0770782008767128 0.9914519786834717 0.10527099668979645 
vn 0.0770782008767128 0.9914519786834717 0.10527099668979645 
vn 0.3123660087585449 0.9499620199203491 -0.000013637400115840137 
vn 0.3123660087585449 0.9499620199203491 -0.000013637400115840137 
vn 0.42299699783325195 0.9045730233192444 -0.053116798400878906 
vn 0.6188240051269531 0.7690290212631226 -0.16016000509262085 
vn 0.526373028755188 0.8437079787254333 -0.10530000180006027 
vn 0.3123660087585449 0.9499620199203491 -0.000013637400115840137 
vn 0.7043780088424683 0.6800770163536072 -0.20333999395370483 
vn 0.6207410097122192 0.7684040069580078 -0.15568099915981293 
vn 0.526373028755188 0.8437079787254333 -0.10530000180006027 
vn 0.6188240051269531 0.7690290212631226 -0.16016000509262085 
vn 0.7642170190811157 0.5942569971084595 -0.25066399574279785 
vn 0.7043780088424683 0.6800770163536072 -0.20333999395370483 
vn 0.7043780088424683 0.6800770163536072 -0.20333999395370483 
vn 0.8344690203666687 0.4700680077075958 -0.2875710129737854 
vn 0.7043780088424683 0.6800770163536072 -0.20333999395370483 
vn 0.7043780088424683 0.6800770163536072 -0.20333999395370483 
vn 0.7043780088424683 0.6800770163536072 -0.20333999395370483 
vn 0.8344690203666687 0.4700680077075958 -0.2875710129737854 
vn 0.9077410101890564 0.22788099944591522 -0.35224398970603943 
vn 0.8344690203666687 0.4700680077075958 -0.2875710129737854 
vn 0.8344690203666687 0.4700680077075958 -0.2875710129737854 
vn 0.9077410101890564 0.22788099944591522 -0.35224398970603943 
vn 0.16334299743175507 -0.9653890132904053 -0.20333099365234375 
vn 0.39280301332473755 -0.8734920024871826 -0.28760600090026855 
vn 0.39280301332473755 -0.8734920024871826 -0.28760600090026855 
vn 0.16334299743175507 -0.9653890132904053 -0.20333099365234375 
vn 0.39280301332473755 -0.8734920024871826 -0.28760600090026855 
vn 0.5954059958457947 -0.722091019153595 -0.35224398970603943 
vn 0.5954059958457947 -0.722091019153595 -0.35224398970603943 
vn 0.39280301332473755 -0.8734920024871826 -0.28760600090026855 
vn 0.5954059958457947 -0.722091019153595 -0.35224398970603943 
vn 0.7574329972267151 -0.5214809775352478 -0.3928770124912262 
vn 0.7574329972267151 -0.5214809775352478 -0.3928770124912262 
vn 0.5954059958457947 -0.722091019153595 -0.35224398970603943 
vn 0.7574329972267151 -0.5214809775352478 -0.3928770124912262 
vn 0.8678600192070007 -0.28527700901031494 -0.4067389965057373 
vn 0.8678600192070007 -0.28527700901031494 -0.4067389965057373 
vn 0.7574329972267151 -0.5214809775352478 -0.3928770124912262 
vn 0.8678600192070007 -0.28527700901031494 -0.4067389965057373 
vn 0.9012069702148438 -0.1587820053100586 -0.40325498580932617 
vn 0.9191129803657532 -0.029681500047445297 -0.39287298917770386 
vn 0.9191129803657532 -0.029681500047445297 -0.39287298917770386 
vn 0.8678600192070007 -0.28527700901031494 -0.4067389965057373 
vn 0.9191129803657532 -0.029681500047445297 -0.39287298917770386 
vn 0.9077410101890564 0.22788099944591522 -0.35224398970603943 
vn 0.9077410101890564 0.22788099944591522 -0.35224398970603943 
vn 0.9191129803657532 -0.029681500047445297 -0.39287298917770386 
s on 
f 111//111 112//112 113//113 
f 116//116 117//117 118//118 
f 165//165 166//166 167//167 
f 205//205 206//206 202//202 
f 2//2 3//3 1//1 
f 3//3 4//4 1//1 
f 1//1 4//4 4//4 
f 4//4 8//8 4//4 
f 4//4 8//8 8//8 
f 8//8 5//5 8//8 
f 8//8 5//5 7//7 
f 5//5 6//6 7//7 
f 7//7 6//6 6//6 
f 6//6 31//31 6//6 
f 6//6 31//31 31//31 
f 31//31 32//32 31//31 
f 31//31 32//32 30//30 
f 32//32 33//33 30//30 
f 30//30 33//33 33//33 
f 33//33 63//63 33//33 
f 33//33 63//63 63//63 
f 63//63 64//64 63//63 
f 63//63 64//64 62//62 
f 64//64 65//65 62//62 
f 62//62 65//65 65//65 
f 65//65 124//124 65//65 
f 65//65 124//124 124//124 
f 124//124 121//121 124//124 
f 124//124 121//121 123//123 
f 121//121 122//122 123//123 
f 123//123 122//122 122//122 
f 122//122 204//204 122//122 
f 122//122 204//204 204//204 
f 204//204 205//205 204//204 
f 204//204 205//205 203//203 
f 205//205 202//202 203//203 
f 203//203 202//202 202//202 
f 202//202 126//126 202//202 
f 202//202 126//126 126//126 
f 126//126 127//127 126//126 
f 126//126 127//127 125//125 
f 127//127 128//128 125//125 
f 125//125 128//128 128//128 
f 128//128 201//201 128//128 
f 128//128 201//201 201//201 
f 201//201 198//198 201//201 
f 201//201 198//198 200//200 
f 198//198 199//199 200//200 
f 200//200 199//199 199//199 
f 199//199 197//197 199//199 
f 199//199 197//197 197//197 
f 197//197 194//194 197//197 
f 197//197 194//194 196//196 
f 194//194 195//195 196//196 
f 196//196 195//195 195//195 
f 195//195 193//193 195//195 
f 195//195 193//193 193//193 
f 193//193 190//190 193//193 
f 193//193 190//190 192//192 
f 190//190 191//191 192//192 
f 192//192 191//191 191//191 
f 191//191 187//187 191//191 
f 191//191 187//187 187//187 
f 187//187 188//188 187//187 
f 187//187 188//188 186//186 
f 188//188 189//189 186//186 
f 186//186 189//189 189//189 
f 189//189 185//185 189//189 
f 189//189 185//185 185//185 
f 185//185 182//182 185//185 
f 185//185 182//182 184//184 
f 182//182 183//183 184//184 
f 184//184 183//183 183//183 
f 183//183 178//178 183//183 
f 183//183 178//178 178//178 
f 178//178 179//179 178//178 
f 178//178 179//179 177//177 
f 179//179 180//180 177//177 
f 177//177 180//180 181//181 
f 180//180 181//181 181//181 
f 181//181 181//181 170//170 
f 181//181 170//170 170//170 
f 170//170 170//170 170//170 
f 170//170 171//171 170//170 
f 170//170 171//171 176//176 
f 171//171 172//172 176//176 
f 176//176 172//172 173//173 
f 172//172 173//173 173//173 
f 173//173 173//173 176//176 
f 173//173 176//176 176//176 
f 176//176 176//176 176//176 
f 176//176 173//173 176//176 
f 176//176 173//173 175//175 
f 173//173 174//174 175//175 
f 175//175 174//174 174//174 
f 174//174 130//130 174//174 
f 174//174 130//130 130//130 
f 130//130 131//131 130//130 
f 130//130 131//131 129//129 
f 131//131 132//132 129//129 
f 129//129 132//132 132//132 
f 132//132 169//169 132//132 
f 132//132 169//169 169//169 
f 169//169 165//165 169//169 
f 169//169 165//165 168//168 
f 165//165 167//167 168//168 
f 168//168 167//167 167//167 
f 167//167 164//164 167//167 
f 167//167 164//164 164//164 
f 164//164 161//161 164//164 
f 164//164 161//161 163//163 
f 161//161 162//162 163//163 
f 163//163 162//162 162//162 
f 162//162 156//156 162//162 
f 162//162 156//156 156//156 
f 156//156 153//153 156//156 
f 156//156 153//153 155//155 
f 153//153 154//154 155//155 
f 155//155 154//154 154//154 
f 154//154 148//148 154//154 
f 154//154 148//148 148//148 
f 148//148 145//145 148//148 
f 148//148 145//145 147//147 
f 145//145 146//146 147//147 
f 147//147 146//146 146//146 
f 146//146 142//142 146//146 
f 146//146 142//142 142//142 
f 142//142 143//143 142//142 
f 142//142 143//143 141//141 
f 143//143 144//144 141//141 
f 141//141 144//144 144//144 
f 144//144 140//140 144//144 
f 144//144 140//140 140//140 
f 140//140 137//137 140//140 
f 140//140 137//137 139//139 
f 137//137 138//138 139//139 
f 139//139 138//138 138//138 
f 138//138 136//136 138//138 
f 138//138 136//136 136//136 
f 136//136 133//133 136//136 
f 136//136 133//133 135//135 
f 133//133 134//134 135//135 
f 135//135 134//134 134//134 
f 134//134 67//67 134//134 
f 134//134 67//67 67//67 
f 67//67 68//68 67//67 
f 67//67 68//68 66//66 
f 68//68 69//69 66//66 
f 66//66 69//69 69//69 
f 69//69 158//158 69//69 
f 69//69 158//158 158//158 
f 158//158 159//159 158//158 
f 158//158 159//159 157//157 
f 159//159 160//160 157//157 
f 157//157 160//160 160//160 
f 160//160 150//150 160//160 
f 160//160 150//150 150//150 
f 150//150 151//151 150//150 
f 150//150 151//151 149//149 
f 151//151 152//152 149//149 
f 149//149 152//152 152//152 
f 152//152 61//61 152//152 
f 152//152 61//61 61//61 
f 61//61 58//58 61//61 
f 61//61 58//58 60//60 
f 58//58 59//59 60//60 
f 60//60 59//59 59//59 
f 59//59 208//208 59//59 
f 59//59 208//208 208//208 
f 208//208 209//209 208//208 
f 208//208 209//209 207//207 
f 209//209 210//210 207//207 
f 207//207 210//210 210//210 
f 210//210 120//120 210//210 
f 210//210 120//120 120//120 
f 120//120 116//116 120//120 
f 120//120 116//116 119//119 
f 116//116 118//118 119//119 
f 119//119 118//118 118//118 
f 118//118 106//106 118//118 
f 118//118 106//106 106//106 
f 106//106 103//103 106//106 
f 106//106 103//103 105//105 
f 103//103 104//104 105//105 
f 105//105 104//104 104//104 
f 104//104 102//102 104//104 
f 104//104 102//102 102//102 
f 102//102 99//99 102//102 
f 102//102 99//99 101//101 
f 99//99 100//100 101//101 
f 101//101 100//100 100//100 
f 100//100 96//96 100//100 
f 100//100 96//96 96//96 
f 96//96 97//97 96//96 
f 96//96 97//97 95//95 
f 97//97 98//98 95//95 
f 95//95 98//98 98//98 
f 98//98 94//94 98//98 
f 98//98 94//94 94//94 
f 94//94 91//91 94//94 
f 94//94 91//91 93//93 
f 91//91 92//92 93//93 
f 93//93 92//92 92//92 
f 92//92 88//88 92//92 
f 92//92 88//88 88//88 
f 88//88 89//89 88//88 
f 88//88 89//89 87//87 
f 89//89 90//90 87//87 
f 87//87 90//90 90//90 
f 90//90 84//84 90//90 
f 90//90 84//84 84//84 
f 84//84 85//85 84//84 
f 84//84 85//85 83//83 
f 85//85 86//86 83//83 
f 83//83 86//86 86//86 
f 86//86 82//82 86//86 
f 86//86 82//82 82//82 
f 82//82 79//79 82//82 
f 82//82 79//79 81//81 
f 79//79 80//80 81//81 
f 81//81 80//80 80//80 
f 80//80 37//37 80//80 
f 80//80 37//37 37//37 
f 37//37 34//34 37//37 
f 37//37 34//34 36//36 
f 34//34 35//35 36//36 
f 36//36 35//35 35//35 
f 35//35 73//73 35//35 
f 35//35 73//73 73//73 
f 73//73 70//70 73//73 
f 73//73 70//70 72//72 
f 70//70 71//71 72//72 
f 72//72 71//71 71//71 
f 71//71 75//75 71//71 
f 71//71 75//75 75//75 
f 75//75 76//76 75//75 
f 75//75 76//76 74//74 
f 76//76 77//77 74//74 
f 74//74 77//77 78//78 
f 77//77 78//78 78//78 
f 78//78 78//78 115//115 
f 78//78 115//115 115//115 
f 115//115 115//115 115//115 
f 115//115 111//111 115//115 
f 115//115 111//111 114//114 
f 111//111 113//113 114//114 
f 114//114 113//113 113//113 
f 113//113 110//110 113//113 
f 113//113 110//110 110//110 
f 110//110 107//107 110//110 
f 110//110 107//107 109//109 
f 107//107 108//108 109//109 
f 109//109 108//108 108//108 
f 108//108 51//51 108//108 
f 108//108 51//51 51//51 
f 51//51 52//52 51//51 
f 51//51 52//52 50//50 
f 52//52 53//53 50//50 
f 50//50 53//53 53//53 
f 53//53 47//47 53//53 
f 53//53 47//47 47//47 
f 47//47 48//48 47//47 
f 47//47 48//48 46//46 
f 48//48 49//49 46//46 
f 46//46 49//49 49//49 
f 49//49 43//43 49//49 
f 49//49 43//43 43//43 
f 43//43 44//44 43//43 
f 43//43 44//44 42//42 
f 44//44 45//45 42//42 
f 42//42 45//45 45//45 
f 45//45 39//39 45//45 
f 45//45 39//39 39//39 
f 39//39 40//40 39//39 
f 39//39 40//40 38//38 
f 40//40 41//41 38//38 
f 38//38 41//41 41//41 
f 41//41 57//57 41//41 
f 41//41 57//57 57//57 
f 57//57 54//54 57//57 
f 57//57 54//54 56//56 
f 54//54 55//55 56//56 
f 56//56 55//55 55//55 
f 55//55 14//14 55//55 
f 55//55 14//14 14//14 
f 14//14 15//15 14//14 
f 14//14 15//15 13//13 
f 15//15 16//16 13//13 
f 13//13 16//16 16//16 
f 16//16 26//26 16//16 
f 16//16 26//26 26//26 
f 26//26 27//27 26//26 
f 26//26 27//27 25//25 
f 27//27 28//28 25//25 
f 25//25 28//28 29//29 
f 28//28 29//29 29//29 
f 29//29 29//29 22//22 
f 29//29 22//22 22//22 
f 22//22 22//22 22//22 
f 22//22 23//23 22//22 
f 22//22 23//23 21//21 
f 23//23 24//24 21//21 
f 21//21 24//24 24//24 
f 24//24 18//18 24//24 
f 24//24 18//18 18//18 
f 18//18 19//19 18//18 
f 18//18 19//19 17//17 
f 19//19 20//20 17//17 
f 17//17 20//20 20//20 
f 20//20 10//10 20//20 
f 20//20 10//10 10//10 
f 10//10 11//11 10//10 
f 10//10 11//11 9//9 
f 11//11 12//12 9//9 

