mtllib model_7.mtl
o model_7
v 251.90762329101562 -117.40983581542969 7.567185878753662 
v 251.90762329101562 -112.92021179199219 6.901218414306641 
v 251.4613800048828 -117.40988159179688 7.56689453125 
v 251.4613800048828 -112.92024993896484 6.9009270668029785 
v 251.90762329101562 -112.92021179199219 6.901218414306641 
v 251.90762329101562 -117.40983581542969 7.567185878753662 
v 252.35386657714844 -112.92017364501953 6.901510238647461 
v 252.35386657714844 -117.40980529785156 7.567477226257324 
v 252.80010986328125 -108.43049621582031 6.235835075378418 
v 252.80010986328125 -112.92012786865234 6.901801586151123 
v 253.24635314941406 -108.43045043945312 6.23612642288208 
v 253.246337890625 -112.92008209228516 6.902092933654785 
v 251.90765380859375 -81.28450012207031 5.048304557800293 
v 251.88125610351562 -76.78269958496094 5.048438549041748 
v 251.46142578125 -81.28450012207031 5.048304557800293 
v 251.43167114257812 -76.84847259521484 5.048687934875488 
v 252.1885986328125 -72.17733764648438 5.048046112060547 
v 252.76028442382812 -76.68084716796875 5.048048973083496 
v 252.63128662109375 -72.12117767333984 5.047832012176514 
v 253.20245361328125 -76.62384033203125 5.047831058502197 
v 251.7458953857422 -72.23348999023438 5.048260688781738 
v 252.32733154296875 -76.73883056640625 5.048272132873535 
v 252.1885986328125 -72.17733764648438 5.048046112060547 
v 252.76028442382812 -76.68084716796875 5.048048973083496 
v 252.32733154296875 -76.73883056640625 5.048272132873535 
v 251.7458953857422 -72.23348999023438 5.048260688781738 
v 251.88125610351562 -76.78269958496094 5.048438549041748 
v 251.30319213867188 -72.2896499633789 5.0484747886657715 
v 250.86050415039062 -72.34580993652344 5.048688888549805 
v 251.43167114257812 -76.84847259521484 5.048687934875488 
v 251.30319213867188 -72.2896499633789 5.0484747886657715 
v 251.88125610351562 -76.78269958496094 5.048438549041748 
v 252.76028442382812 -76.68084716796875 5.048048973083496 
v 252.80014038085938 -81.28450012207031 5.048304557800293 
v 253.20245361328125 -76.62384033203125 5.047831058502197 
v 253.24639892578125 -81.28450012207031 5.048304557800293 
v 252.80014038085938 -81.28450012207031 5.048304557800293 
v 252.76028442382812 -76.68084716796875 5.048048973083496 
v 252.35389709472656 -81.28450012207031 5.048304557800293 
v 252.32733154296875 -76.73883056640625 5.048272132873535 
v 251.88125610351562 -76.78269958496094 5.048438549041748 
v 251.90765380859375 -81.28450012207031 5.048304557800293 
v 252.32733154296875 -76.73883056640625 5.048272132873535 
v 252.35389709472656 -81.28450012207031 5.048304557800293 
v 251.90765380859375 -99.4375 5.123917579650879 
v 251.90765380859375 -94.90074157714844 5.048304080963135 
v 251.46142578125 -99.4375 5.1239094734191895 
v 251.46141052246094 -94.90074157714844 5.048304080963135 
v 253.24639892578125 -85.82325744628906 5.048304557800293 
v 253.24639892578125 -81.28450012207031 5.048304557800293 
v 252.80015563964844 -85.82325744628906 5.048304557800293 
v 252.80014038085938 -81.28450012207031 5.048304557800293 
v 252.35391235351562 -85.82325744628906 5.048304557800293 
v 252.35389709472656 -81.28450012207031 5.048304557800293 
v 251.90765380859375 -85.82325744628906 5.048304557800293 
v 251.90765380859375 -81.28450012207031 5.048304557800293 
v 251.46142578125 -85.82325744628906 5.048304557800293 
v 251.46142578125 -81.28450012207031 5.048304557800293 
v 251.90762329101562 -108.43058776855469 6.2352519035339355 
v 251.90762329101562 -103.94096374511719 5.5692853927612305 
v 251.4613800048828 -108.43063354492188 6.234960556030273 
v 251.46139526367188 -103.94100189208984 5.56899356842041 
v 252.35389709472656 -99.4375 5.123926162719727 
v 252.3538818359375 -94.90074157714844 5.048304080963135 
v 251.90765380859375 -99.4375 5.123917579650879 
v 251.90765380859375 -94.90074157714844 5.048304080963135 
v 252.80015563964844 -85.82325744628906 5.048304557800293 
v 252.80014038085938 -90.36199951171875 5.048305034637451 
v 253.24639892578125 -85.82325744628906 5.048304557800293 
v 253.2463836669922 -90.36199951171875 5.048305034637451 
v 252.35391235351562 -85.82325744628906 5.048304557800293 
v 252.35389709472656 -90.36199951171875 5.048305034637451 
v 252.80015563964844 -85.82325744628906 5.048304557800293 
v 252.80014038085938 -90.36199951171875 5.048305034637451 
v 252.35389709472656 -90.36199951171875 5.048305034637451 
v 252.3538818359375 -94.90074157714844 5.048304080963135 
v 252.80014038085938 -90.36199951171875 5.048305034637451 
v 252.80014038085938 -94.90074157714844 5.048304080963135 
v 253.2463836669922 -90.36199951171875 5.048305034637451 
v 253.24636840820312 -94.90074157714844 5.048304080963135 
v 251.90765380859375 -90.36199951171875 5.048305034637451 
v 251.90765380859375 -94.90074157714844 5.048304080963135 
v 252.35389709472656 -90.36199951171875 5.048305034637451 
v 252.3538818359375 -94.90074157714844 5.048304080963135 
v 251.90765380859375 -94.90074157714844 5.048304080963135 
v 251.90765380859375 -90.36199951171875 5.048305034637451 
v 251.46141052246094 -94.90074157714844 5.048304080963135 
v 251.46141052246094 -90.36199951171875 5.048305034637451 
v 252.80014038085938 -94.90074157714844 5.048304080963135 
v 252.80014038085938 -99.43749237060547 5.123934745788574 
v 253.24636840820312 -94.90074157714844 5.048304080963135 
v 253.2463836669922 -99.43749237060547 5.123942852020264 
v 252.3538818359375 -94.90074157714844 5.048304080963135 
v 252.35389709472656 -99.4375 5.123926162719727 
v 252.80014038085938 -94.90074157714844 5.048304080963135 
v 252.80014038085938 -99.43749237060547 5.123934745788574 
v 251.90762329101562 -112.92021179199219 6.901218414306641 
v 251.90762329101562 -108.43058776855469 6.2352519035339355 
v 251.4613800048828 -112.92024993896484 6.9009270668029785 
v 251.4613800048828 -108.43063354492188 6.234960556030273 
v 252.35389709472656 -90.36199951171875 5.048305034637451 
v 252.35391235351562 -85.82325744628906 5.048304557800293 
v 251.90765380859375 -90.36199951171875 5.048305034637451 
v 251.90765380859375 -85.82325744628906 5.048304557800293 
v 252.35389709472656 -99.4375 5.123926162719727 
v 252.3538818359375 -103.94091796875 5.569576740264893 
v 252.80014038085938 -99.43749237060547 5.123934745788574 
v 252.80010986328125 -103.94088745117188 5.569868087768555 
v 251.90765380859375 -99.4375 5.123917579650879 
v 251.90762329101562 -103.94096374511719 5.5692853927612305 
v 252.35389709472656 -99.4375 5.123926162719727 
v 252.3538818359375 -103.94091796875 5.569576740264893 
v 251.46142578125 -99.4375 5.1239094734191895 
v 251.46139526367188 -103.94100189208984 5.56899356842041 
v 251.90765380859375 -99.4375 5.123917579650879 
v 251.90762329101562 -103.94096374511719 5.5692853927612305 
v 252.80010986328125 -103.94088745117188 5.569868087768555 
v 252.80010986328125 -108.43049621582031 6.235835075378418 
v 253.24636840820312 -103.94084167480469 5.570159912109375 
v 253.24635314941406 -108.43045043945312 6.23612642288208 
v 252.3538818359375 -103.94091796875 5.569576740264893 
v 252.35386657714844 -108.4305419921875 6.235543727874756 
v 252.80010986328125 -103.94088745117188 5.569868087768555 
v 252.80010986328125 -108.43049621582031 6.235835075378418 
v 251.90762329101562 -103.94096374511719 5.5692853927612305 
v 251.90762329101562 -108.43058776855469 6.2352519035339355 
v 252.3538818359375 -103.94091796875 5.569576740264893 
v 252.35386657714844 -108.4305419921875 6.235543727874756 
v 251.90765380859375 -90.36199951171875 5.048305034637451 
v 251.90765380859375 -85.82325744628906 5.048304557800293 
v 251.46141052246094 -90.36199951171875 5.048305034637451 
v 251.46142578125 -85.82325744628906 5.048304557800293 
v 253.246337890625 -117.40971374511719 7.568060398101807 
v 253.246337890625 -112.92008209228516 6.902092933654785 
v 252.80010986328125 -117.40975952148438 7.567768573760986 
v 252.80010986328125 -112.92012786865234 6.901801586151123 
v 251.90762329101562 -108.43058776855469 6.2352519035339355 
v 251.90762329101562 -112.92021179199219 6.901218414306641 
v 252.35386657714844 -108.4305419921875 6.235543727874756 
v 252.35386657714844 -112.92017364501953 6.901510238647461 
v 252.80010986328125 -117.40975952148438 7.567768573760986 
v 252.80010986328125 -112.92012786865234 6.901801586151123 
v 252.35386657714844 -117.40980529785156 7.567477226257324 
v 252.35386657714844 -112.92017364501953 6.901510238647461 
v 252.80010986328125 -112.92012786865234 6.901801586151123 
v 252.80010986328125 -108.43049621582031 6.235835075378418 
v 252.35386657714844 -112.92017364501953 6.901510238647461 
v 252.35386657714844 -108.4305419921875 6.235543727874756 
v 253.24636840820312 -103.94084167480469 5.570159912109375 
v 253.2463836669922 -99.43749237060547 5.123942852020264 
v 252.80010986328125 -103.94088745117188 5.569868087768555 
v 252.80014038085938 -99.43749237060547 5.123934745788574 
vn 0.0018599432660266757 0.1480017900466919 0.9889853596687317 
vn 0.0018599432660266757 0.1480017900466919 0.9889853596687317 
vn 0.0018599432660266757 0.1480017900466919 0.9889853596687317 
vn 0.0018599432660266757 0.1480017900466919 0.9889853596687317 
vn 0.0018599432660266757 0.1480017900466919 0.9889853596687317 
vn 0.0018599432660266757 0.1480017900466919 0.9889853596687317 
vn 0.0018599432660266757 0.1480017900466919 0.9889853596687317 
vn 0.0018599432660266757 0.1480017900466919 0.9889853596687317 
vn 0.0018599432660266757 0.1480017900466919 0.9889853596687317 
vn 0.0018599432660266757 0.1480017900466919 0.9889853596687317 
vn 0.0018599432660266757 0.1480017900466919 0.9889853596687317 
vn 0.0018599432660266757 0.1480017900466919 0.9889853596687317 
vn 0 0 1 
vn 0 0 1 
vn 0 0 1 
vn 0 0 1 
vn 0 0 1 
vn 0 0 1 
vn 0 0 1 
vn 0 0 1 
vn 0 0 1 
vn 0 0 1 
vn 0 0 1 
vn 0 0 1 
vn 0 0 1 
vn 0 0 1 
vn 0 0 1 
vn 0 0 1 
vn 0 0 1 
vn 0 0 1 
vn 0 0 1 
vn 0 0 1 
vn 0 0 1 
vn 0 0 1 
vn 0 0 1 
vn 0 0 1 
vn 0 0 1 
vn 0 0 1 
vn 0 0 1 
vn 0 0 1 
vn 0 0 1 
vn 0 0 1 
vn 0 0 1 
vn 0 0 1 
vn -1.8072902708757407e-15 0.017476677894592285 0.9998472929000854 
vn -1.8072902708757407e-15 0.017476677894592285 0.9998472929000854 
vn -1.8072902708757407e-15 0.017476677894592285 0.9998472929000854 
vn -1.8072902708757407e-15 0.017476677894592285 0.9998472929000854 
vn 0 0 1 
vn 0 0 1 
vn 0 0 1 
vn 0 0 1 
vn 0 0 1 
vn 0 0 1 
vn 0 0 1 
vn 0 0 1 
vn 0 0 1 
vn 0 0 1 
vn 0.0018599432660266757 0.1480017900466919 0.9889853596687317 
vn 0.0018599432660266757 0.1480017900466919 0.9889853596687317 
vn 0.0018599432660266757 0.1480017900466919 0.9889853596687317 
vn 0.0018599432660266757 0.1480017900466919 0.9889853596687317 
vn -1.8072902708757407e-15 0.017476677894592285 0.9998472929000854 
vn -1.8072902708757407e-15 0.017476677894592285 0.9998472929000854 
vn -1.8072902708757407e-15 0.017476677894592285 0.9998472929000854 
vn -1.8072902708757407e-15 0.017476677894592285 0.9998472929000854 
vn 0 0 1 
vn 0 0 1 
vn 0 0 1 
vn 0 0 1 
vn 0 0 1 
vn 0 0 1 
vn 0 0 1 
vn 0 0 1 
vn 0 0 1 
vn 0 0 1 
vn 0 0 1 
vn 0 0 1 
vn 0 0 1 
vn 0 0 1 
vn 0 0 1 
vn 0 0 1 
vn 0 0 1 
vn 0 0 1 
vn 0 0 1 
vn 0 0 1 
vn 0 0 1 
vn 0 0 1 
vn -1.8072902708757407e-15 0.017476677894592285 0.9998472929000854 
vn -1.8072902708757407e-15 0.017476677894592285 0.9998472929000854 
vn -1.8072902708757407e-15 0.017476677894592285 0.9998472929000854 
vn -1.8072902708757407e-15 0.017476677894592285 0.9998472929000854 
vn -1.8072902708757407e-15 0.017476677894592285 0.9998472929000854 
vn -1.8072902708757407e-15 0.017476677894592285 0.9998472929000854 
vn -1.8072902708757407e-15 0.017476677894592285 0.9998472929000854 
vn -1.8072902708757407e-15 0.017476677894592285 0.9998472929000854 
vn 0.0018599432660266757 0.1480017900466919 0.9889853596687317 
vn 0.0018599432660266757 0.1480017900466919 0.9889853596687317 
vn 0.0018599432660266757 0.1480017900466919 0.9889853596687317 
vn 0.0018599432660266757 0.1480017900466919 0.9889853596687317 
vn 0 0 1 
vn 0 0 1 
vn 0 0 1 
vn 0 0 1 
vn 0.0018539319280534983 0.10030980408191681 0.994954526424408 
vn 0.0018539319280534983 0.10030980408191681 0.994954526424408 
vn 0.0018539319280534983 0.10030980408191681 0.994954526424408 
vn 0.0018539319280534983 0.10030980408191681 0.994954526424408 
vn 0.0018539319280534983 0.10030980408191681 0.994954526424408 
vn 0.0018539319280534983 0.10030980408191681 0.994954526424408 
vn 0.0018539319280534983 0.10030980408191681 0.994954526424408 
vn 0.0018539319280534983 0.10030980408191681 0.994954526424408 
vn 0.0018539319280534983 0.10030980408191681 0.994954526424408 
vn 0.0018539319280534983 0.10030980408191681 0.994954526424408 
vn 0.0018539319280534983 0.10030980408191681 0.994954526424408 
vn 0.0018539319280534983 0.10030980408191681 0.994954526424408 
vn 0.0018599432660266757 0.1480017900466919 0.9889853596687317 
vn 0.0018599432660266757 0.1480017900466919 0.9889853596687317 
vn 0.0018599432660266757 0.1480017900466919 0.9889853596687317 
vn 0.0018599432660266757 0.1480017900466919 0.9889853596687317 
vn 0.0018599432660266757 0.1480017900466919 0.9889853596687317 
vn 0.0018599432660266757 0.1480017900466919 0.9889853596687317 
vn 0.0018599432660266757 0.1480017900466919 0.9889853596687317 
vn 0.0018599432660266757 0.1480017900466919 0.9889853596687317 
vn 0.0018599432660266757 0.1480017900466919 0.9889853596687317 
vn 0.0018599432660266757 0.1480017900466919 0.9889853596687317 
vn 0.0018599432660266757 0.1480017900466919 0.9889853596687317 
vn 0.0018599432660266757 0.1480017900466919 0.9889853596687317 
vn 0 0 1 
vn 0 0 1 
vn 0 0 1 
vn 0 0 1 
vn 0.0018599432660266757 0.1480017900466919 0.9889853596687317 
vn 0.0018599432660266757 0.1480017900466919 0.9889853596687317 
vn 0.0018599432660266757 0.1480017900466919 0.9889853596687317 
vn 0.0018599432660266757 0.1480017900466919 0.9889853596687317 
vn 0.0018599432660266757 0.1480017900466919 0.9889853596687317 
vn 0.0018599432660266757 0.1480017900466919 0.9889853596687317 
vn 0.0018599432660266757 0.1480017900466919 0.9889853596687317 
vn 0.0018599432660266757 0.1480017900466919 0.9889853596687317 
vn 0.0018599432660266757 0.1480017900466919 0.9889853596687317 
vn 0.0018599432660266757 0.1480017900466919 0.9889853596687317 
vn 0.0018599432660266757 0.1480017900466919 0.9889853596687317 
vn 0.0018599432660266757 0.1480017900466919 0.9889853596687317 
vn 0.0018599432660266757 0.1480017900466919 0.9889853596687317 
vn 0.0018599432660266757 0.1480017900466919 0.9889853596687317 
vn 0.0018599432660266757 0.1480017900466919 0.9889853596687317 
vn 0.0018599432660266757 0.1480017900466919 0.9889853596687317 
vn 0.0018539319280534983 0.10030980408191681 0.994954526424408 
vn 0.0018539319280534983 0.10030980408191681 0.994954526424408 
vn 0.0018539319280534983 0.10030980408191681 0.994954526424408 
vn 0.0018539319280534983 0.10030980408191681 0.994954526424408 
vt 10.918044090270996 41.235816955566406 
vt 8.922699928283691 41.235816955566406 
vt 10.918044090270996 40.97600173950195 
vt 8.922699928283691 40.97600173950195 
vt 8.922699928283691 41.235816955566406 
vt 10.918044090270996 41.235816955566406 
vt 8.922699928283691 41.49562454223633 
vt 10.918044090270996 41.49562454223633 
vt 6.9273552894592285 41.75544357299805 
vt 8.922699928283691 41.75544357299805 
vt 6.9273552894592285 42.0152587890625 
vt 8.922699928283691 42.0152587890625 
vt -5.044861793518066 41.235816955566406 
vt -7.040205955505371 41.235816955566406 
vt -5.044861793518066 40.97600173950195 
vt -7.040205955505371 40.97600173950195 
vt -9.035550117492676 41.75544357299805 
vt -7.040205955505371 41.75544357299805 
vt -9.035550117492676 42.0152587890625 
vt -7.040205955505371 42.0152587890625 
vt -9.035550117492676 41.49562454223633 
vt -7.040205955505371 41.49562454223633 
vt -9.035550117492676 41.75544357299805 
vt -7.040205955505371 41.75544357299805 
vt -7.040205955505371 41.49562454223633 
vt -9.035550117492676 41.49562454223633 
vt -7.040205955505371 41.235816955566406 
vt -9.035550117492676 41.235816955566406 
vt -9.035550117492676 40.97600173950195 
vt -7.040205955505371 40.97600173950195 
vt -9.035550117492676 41.235816955566406 
vt -7.040205955505371 41.235816955566406 
vt -7.040205955505371 41.75544357299805 
vt -5.044861793518066 41.75544357299805 
vt -7.040205955505371 42.0152587890625 
vt -5.044861793518066 42.0152587890625 
vt -5.044861793518066 41.75544357299805 
vt -7.040205955505371 41.75544357299805 
vt -5.044861793518066 41.49562454223633 
vt -7.040205955505371 41.49562454223633 
vt -7.040205955505371 41.235816955566406 
vt -5.044861793518066 41.235816955566406 
vt -7.040205955505371 41.49562454223633 
vt -5.044861793518066 41.49562454223633 
vt 2.9366672039031982 41.235816955566406 
vt 0.9413229823112488 41.235816955566406 
vt 2.9366672039031982 40.97600173950195 
vt 0.9413229823112488 40.97600173950195 
vt -3.0495176315307617 42.0152587890625 
vt -5.044861793518066 42.0152587890625 
vt -3.0495176315307617 41.75544357299805 
vt -5.044861793518066 41.75544357299805 
vt -3.0495176315307617 41.49562454223633 
vt -5.044861793518066 41.49562454223633 
vt -3.0495176315307617 41.235816955566406 
vt -5.044861793518066 41.235816955566406 
vt -3.0495176315307617 40.97600173950195 
vt -5.044861793518066 40.97600173950195 
vt 6.9273552894592285 41.235816955566406 
vt 4.932011127471924 41.235816955566406 
vt 6.9273552894592285 40.97600173950195 
vt 4.932011127471924 40.97600173950195 
vt 2.9366672039031982 41.49562454223633 
vt 0.9413229823112488 41.49562454223633 
vt 2.9366672039031982 41.235816955566406 
vt 0.9413229823112488 41.235816955566406 
vt -3.0495176315307617 41.75544357299805 
vt -1.054173469543457 41.75544357299805 
vt -3.0495176315307617 42.0152587890625 
vt -1.054173469543457 42.0152587890625 
vt -3.0495176315307617 41.49562454223633 
vt -1.054173469543457 41.49562454223633 
vt -3.0495176315307617 41.75544357299805 
vt -1.054173469543457 41.75544357299805 
vt -1.054173469543457 41.49562454223633 
vt 0.9413229823112488 41.49562454223633 
vt -1.054173469543457 41.75544357299805 
vt 0.9413229823112488 41.75544357299805 
vt -1.054173469543457 42.0152587890625 
vt 0.9413229823112488 42.0152587890625 
vt -1.054173469543457 41.235816955566406 
vt 0.9413229823112488 41.235816955566406 
vt -1.054173469543457 41.49562454223633 
vt 0.9413229823112488 41.49562454223633 
vt 0.9413229823112488 41.235816955566406 
vt -1.054173469543457 41.235816955566406 
vt 0.9413229823112488 40.97600173950195 
vt -1.054173469543457 40.97600173950195 
vt 0.9413229823112488 41.75544357299805 
vt 2.9366672039031982 41.75544357299805 
vt 0.9413229823112488 42.0152587890625 
vt 2.9366672039031982 42.0152587890625 
vt 0.9413229823112488 41.49562454223633 
vt 2.9366672039031982 41.49562454223633 
vt 0.9413229823112488 41.75544357299805 
vt 2.9366672039031982 41.75544357299805 
vt 8.922699928283691 41.235816955566406 
vt 6.9273552894592285 41.235816955566406 
vt 8.922699928283691 40.97600173950195 
vt 6.9273552894592285 40.97600173950195 
vt -1.054173469543457 41.49562454223633 
vt -3.0495176315307617 41.49562454223633 
vt -1.054173469543457 41.235816955566406 
vt -3.0495176315307617 41.235816955566406 
vt 2.9366672039031982 41.49562454223633 
vt 4.932011127471924 41.49562454223633 
vt 2.9366672039031982 41.75544357299805 
vt 4.932011127471924 41.75544357299805 
vt 2.9366672039031982 41.235816955566406 
vt 4.932011127471924 41.235816955566406 
vt 2.9366672039031982 41.49562454223633 
vt 4.932011127471924 41.49562454223633 
vt 2.9366672039031982 40.97600173950195 
vt 4.932011127471924 40.97600173950195 
vt 2.9366672039031982 41.235816955566406 
vt 4.932011127471924 41.235816955566406 
vt 4.932011127471924 41.75544357299805 
vt 6.9273552894592285 41.75544357299805 
vt 4.932011127471924 42.0152587890625 
vt 6.9273552894592285 42.0152587890625 
vt 4.932011127471924 41.49562454223633 
vt 6.9273552894592285 41.49562454223633 
vt 4.932011127471924 41.75544357299805 
vt 6.9273552894592285 41.75544357299805 
vt 4.932011127471924 41.235816955566406 
vt 6.9273552894592285 41.235816955566406 
vt 4.932011127471924 41.49562454223633 
vt 6.9273552894592285 41.49562454223633 
vt -1.054173469543457 41.235816955566406 
vt -3.0495176315307617 41.235816955566406 
vt -1.054173469543457 40.97600173950195 
vt -3.0495176315307617 40.97600173950195 
vt 10.918044090270996 42.0152587890625 
vt 8.922699928283691 42.0152587890625 
vt 10.918044090270996 41.75544357299805 
vt 8.922699928283691 41.75544357299805 
vt 6.9273552894592285 41.235816955566406 
vt 8.922699928283691 41.235816955566406 
vt 6.9273552894592285 41.49562454223633 
vt 8.922699928283691 41.49562454223633 
vt 10.918044090270996 41.75544357299805 
vt 8.922699928283691 41.75544357299805 
vt 10.918044090270996 41.49562454223633 
vt 8.922699928283691 41.49562454223633 
vt 8.922699928283691 41.75544357299805 
vt 6.9273552894592285 41.75544357299805 
vt 8.922699928283691 41.49562454223633 
vt 6.9273552894592285 41.49562454223633 
vt 4.932011127471924 42.0152587890625 
vt 2.9366672039031982 42.0152587890625 
vt 4.932011127471924 41.75544357299805 
vt 2.9366672039031982 41.75544357299805 
s on 
f 1/1/1 2/2/2 3/3/3 
f 2/2/2 4/4/4 3/3/3 
f 3/3/3 4/4/4 4/4/4 
f 4/4/4 5/5/5 4/4/4 
f 4/4/4 5/5/5 5/5/5 
f 5/5/5 6/6/6 5/5/5 
f 5/5/5 6/6/6 7/7/7 
f 6/6/6 8/8/8 7/7/7 
f 7/7/7 8/8/8 8/8/8 
f 8/8/8 9/9/9 8/8/8 
f 8/8/8 9/9/9 9/9/9 
f 9/9/9 10/10/10 9/9/9 
f 9/9/9 10/10/10 11/11/11 
f 10/10/10 12/12/12 11/11/11 
f 11/11/11 12/12/12 12/12/12 
f 12/12/12 13/13/13 12/12/12 
f 12/12/12 13/13/13 13/13/13 
f 13/13/13 14/14/14 13/13/13 
f 13/13/13 14/14/14 15/15/15 
f 14/14/14 16/16/16 15/15/15 
f 15/15/15 16/16/16 16/16/16 
f 16/16/16 17/17/17 16/16/16 
f 16/16/16 17/17/17 17/17/17 
f 17/17/17 18/18/18 17/17/17 
f 17/17/17 18/18/18 19/19/19 
f 18/18/18 20/20/20 19/19/19 
f 19/19/19 20/20/20 20/20/20 
f 20/20/20 21/21/21 20/20/20 
f 20/20/20 21/21/21 21/21/21 
f 21/21/21 22/22/22 21/21/21 
f 21/21/21 22/22/22 23/23/23 
f 22/22/22 24/24/24 23/23/23 
f 23/23/23 24/24/24 24/24/24 
f 24/24/24 25/25/25 24/24/24 
f 24/24/24 25/25/25 25/25/25 
f 25/25/25 26/26/26 25/25/25 
f 25/25/25 26/26/26 27/27/27 
f 26/26/26 28/28/28 27/27/27 
f 27/27/27 28/28/28 28/28/28 
f 28/28/28 29/29/29 28/28/28 
f 28/28/28 29/29/29 29/29/29 
f 29/29/29 30/30/30 29/29/29 
f 29/29/29 30/30/30 31/31/31 
f 30/30/30 32/32/32 31/31/31 
f 31/31/31 32/32/32 32/32/32 
f 32/32/32 33/33/33 32/32/32 
f 32/32/32 33/33/33 33/33/33 
f 33/33/33 34/34/34 33/33/33 
f 33/33/33 34/34/34 35/35/35 
f 34/34/34 36/36/36 35/35/35 
f 35/35/35 36/36/36 36/36/36 
f 36/36/36 37/37/37 36/36/36 
f 36/36/36 37/37/37 37/37/37 
f 37/37/37 38/38/38 37/37/37 
f 37/37/37 38/38/38 39/39/39 
f 38/38/38 40/40/40 39/39/39 
f 39/39/39 40/40/40 40/40/40 
f 40/40/40 41/41/41 40/40/40 
f 40/40/40 41/41/41 41/41/41 
f 41/41/41 42/42/42 41/41/41 
f 41/41/41 42/42/42 43/43/43 
f 42/42/42 44/44/44 43/43/43 
f 43/43/43 44/44/44 44/44/44 
f 44/44/44 45/45/45 44/44/44 
f 44/44/44 45/45/45 45/45/45 
f 45/45/45 46/46/46 45/45/45 
f 45/45/45 46/46/46 47/47/47 
f 46/46/46 48/48/48 47/47/47 
f 47/47/47 48/48/48 48/48/48 
f 48/48/48 49/49/49 48/48/48 
f 48/48/48 49/49/49 49/49/49 
f 49/49/49 50/50/50 49/49/49 
f 49/49/49 50/50/50 51/51/51 
f 50/50/50 52/52/52 51/51/51 
f 51/51/51 52/52/52 53/53/53 
f 52/52/52 54/54/54 53/53/53 
f 53/53/53 54/54/54 55/55/55 
f 54/54/54 56/56/56 55/55/55 
f 55/55/55 56/56/56 57/57/57 
f 56/56/56 58/58/58 57/57/57 
f 57/57/57 58/58/58 58/58/58 
f 58/58/58 59/59/59 58/58/58 
f 58/58/58 59/59/59 59/59/59 
f 59/59/59 60/60/60 59/59/59 
f 59/59/59 60/60/60 61/61/61 
f 60/60/60 62/62/62 61/61/61 
f 61/61/61 62/62/62 62/62/62 
f 62/62/62 63/63/63 62/62/62 
f 62/62/62 63/63/63 63/63/63 
f 63/63/63 64/64/64 63/63/63 
f 63/63/63 64/64/64 65/65/65 
f 64/64/64 66/66/66 65/65/65 
f 65/65/65 66/66/66 66/66/66 
f 66/66/66 67/67/67 66/66/66 
f 66/66/66 67/67/67 67/67/67 
f 67/67/67 68/68/68 67/67/67 
f 67/67/67 68/68/68 69/69/69 
f 68/68/68 70/70/70 69/69/69 
f 69/69/69 70/70/70 70/70/70 
f 70/70/70 71/71/71 70/70/70 
f 70/70/70 71/71/71 71/71/71 
f 71/71/71 72/72/72 71/71/71 
f 71/71/71 72/72/72 73/73/73 
f 72/72/72 74/74/74 73/73/73 
f 73/73/73 74/74/74 74/74/74 
f 74/74/74 75/75/75 74/74/74 
f 74/74/74 75/75/75 75/75/75 
f 75/75/75 76/76/76 75/75/75 
f 75/75/75 76/76/76 77/77/77 
f 76/76/76 78/78/78 77/77/77 
f 77/77/77 78/78/78 79/79/79 
f 78/78/78 80/80/80 79/79/79 
f 79/79/79 80/80/80 80/80/80 
f 80/80/80 81/81/81 80/80/80 
f 80/80/80 81/81/81 81/81/81 
f 81/81/81 82/82/82 81/81/81 
f 81/81/81 82/82/82 83/83/83 
f 82/82/82 84/84/84 83/83/83 
f 83/83/83 84/84/84 84/84/84 
f 84/84/84 85/85/85 84/84/84 
f 84/84/84 85/85/85 85/85/85 
f 85/85/85 86/86/86 85/85/85 
f 85/85/85 86/86/86 87/87/87 
f 86/86/86 88/88/88 87/87/87 
f 87/87/87 88/88/88 88/88/88 
f 88/88/88 89/89/89 88/88/88 
f 88/88/88 89/89/89 89/89/89 
f 89/89/89 90/90/90 89/89/89 
f 89/89/89 90/90/90 91/91/91 
f 90/90/90 92/92/92 91/91/91 
f 91/91/91 92/92/92 92/92/92 
f 92/92/92 93/93/93 92/92/92 
f 92/92/92 93/93/93 93/93/93 
f 93/93/93 94/94/94 93/93/93 
f 93/93/93 94/94/94 95/95/95 
f 94/94/94 96/96/96 95/95/95 
f 95/95/95 96/96/96 96/96/96 
f 96/96/96 97/97/97 96/96/96 
f 96/96/96 97/97/97 97/97/97 
f 97/97/97 98/98/98 97/97/97 
f 97/97/97 98/98/98 99/99/99 
f 98/98/98 100/100/100 99/99/99 
f 99/99/99 100/100/100 100/100/100 
f 100/100/100 101/101/101 100/100/100 
f 100/100/100 101/101/101 101/101/101 
f 101/101/101 102/102/102 101/101/101 
f 101/101/101 102/102/102 103/103/103 
f 102/102/102 104/104/104 103/103/103 
f 103/103/103 104/104/104 104/104/104 
f 104/104/104 105/105/105 104/104/104 
f 104/104/104 105/105/105 105/105/105 
f 105/105/105 106/106/106 105/105/105 
f 105/105/105 106/106/106 107/107/107 
f 106/106/106 108/108/108 107/107/107 
f 107/107/107 108/108/108 108/108/108 
f 108/108/108 109/109/109 108/108/108 
f 108/108/108 109/109/109 109/109/109 
f 109/109/109 110/110/110 109/109/109 
f 109/109/109 110/110/110 111/111/111 
f 110/110/110 112/112/112 111/111/111 
f 111/111/111 112/112/112 112/112/112 
f 112/112/112 113/113/113 112/112/112 
f 112/112/112 113/113/113 113/113/113 
f 113/113/113 114/114/114 113/113/113 
f 113/113/113 114/114/114 115/115/115 
f 114/114/114 116/116/116 115/115/115 
f 115/115/115 116/116/116 116/116/116 
f 116/116/116 117/117/117 116/116/116 
f 116/116/116 117/117/117 117/117/117 
f 117/117/117 118/118/118 117/117/117 
f 117/117/117 118/118/118 119/119/119 
f 118/118/118 120/120/120 119/119/119 
f 119/119/119 120/120/120 120/120/120 
f 120/120/120 121/121/121 120/120/120 
f 120/120/120 121/121/121 121/121/121 
f 121/121/121 122/122/122 121/121/121 
f 121/121/121 122/122/122 123/123/123 
f 122/122/122 124/124/124 123/123/123 
f 123/123/123 124/124/124 124/124/124 
f 124/124/124 125/125/125 124/124/124 
f 124/124/124 125/125/125 125/125/125 
f 125/125/125 126/126/126 125/125/125 
f 125/125/125 126/126/126 127/127/127 
f 126/126/126 128/128/128 127/127/127 
f 127/127/127 128/128/128 128/128/128 
f 128/128/128 129/129/129 128/128/128 
f 128/128/128 129/129/129 129/129/129 
f 129/129/129 130/130/130 129/129/129 
f 129/129/129 130/130/130 131/131/131 
f 130/130/130 132/132/132 131/131/131 
f 131/131/131 132/132/132 132/132/132 
f 132/132/132 133/133/133 132/132/132 
f 132/132/132 133/133/133 133/133/133 
f 133/133/133 134/134/134 133/133/133 
f 133/133/133 134/134/134 135/135/135 
f 134/134/134 136/136/136 135/135/135 
f 135/135/135 136/136/136 136/136/136 
f 136/136/136 137/137/137 136/136/136 
f 136/136/136 137/137/137 137/137/137 
f 137/137/137 138/138/138 137/137/137 
f 137/137/137 138/138/138 139/139/139 
f 138/138/138 140/140/140 139/139/139 
f 139/139/139 140/140/140 140/140/140 
f 140/140/140 141/141/141 140/140/140 
f 140/140/140 141/141/141 141/141/141 
f 141/141/141 142/142/142 141/141/141 
f 141/141/141 142/142/142 143/143/143 
f 142/142/142 144/144/144 143/143/143 
f 143/143/143 144/144/144 144/144/144 
f 144/144/144 145/145/145 144/144/144 
f 144/144/144 145/145/145 145/145/145 
f 145/145/145 146/146/146 145/145/145 
f 145/145/145 146/146/146 147/147/147 
f 146/146/146 148/148/148 147/147/147 
f 147/147/147 148/148/148 148/148/148 
f 148/148/148 149/149/149 148/148/148 
f 148/148/148 149/149/149 149/149/149 
f 149/149/149 150/150/150 149/149/149 
f 149/149/149 150/150/150 151/151/151 
f 150/150/150 152/152/152 151/151/151 

