mtllib model_5.mtl
o model_5
v 57.30670166015625 -162.74951171875 6.421150207519531 
v 52.779449462890625 -162.74951171875 6.098210334777832 
v 57.304779052734375 -163.1949462890625 6.4480671882629395 
v 52.77752685546875 -163.1949462890625 6.12512731552124 
v 52.779449462890625 -162.74951171875 6.098210334777832 
v 57.30670166015625 -162.74951171875 6.421150207519531 
v 52.7813720703125 -162.3040771484375 6.071293354034424 
v 57.308624267578125 -162.3040771484375 6.394233226776123 
v 48.25604248046875 -161.85867309570312 5.721437931060791 
v 52.783287048339844 -161.85867309570312 6.044376373291016 
v 48.257957458496094 -161.41323852539062 5.694520950317383 
v 52.78520202636719 -161.41323852539062 6.017459392547607 
v 38.89530944824219 -143.16934204101562 5.048314094543457 
v 38.89531707763672 -147.70809936523438 5.048313617706299 
v 39.34156036376953 -143.16934204101562 5.048314094543457 
v 39.34156036376953 -147.70809936523438 5.048313617706299 
v 39.700584411621094 -161.05194091796875 5.168760299682617 
v 38.002830505371094 -156.78558349609375 5.048312664031982 
v 39.32472229003906 -161.29244995117188 5.173023700714111 
v 37.55658721923828 -156.78558349609375 5.048312664031982 
v 37.55658721923828 -138.63058471679688 5.048314571380615 
v 37.55657958984375 -143.16934204101562 5.048314094543457 
v 38.00285339355469 -138.63058471679688 5.048314571380615 
v 38.002830505371094 -143.16934204101562 5.048314094543457 
v 38.44908905029297 -138.63058471679688 5.048314571380615 
v 38.449073791503906 -143.16934204101562 5.048314094543457 
v 37.55657958984375 -134.09185791015625 5.048314571380615 
v 37.55658721923828 -138.63058471679688 5.048314571380615 
v 38.00282287597656 -134.09185791015625 5.048314571380615 
v 38.00285339355469 -138.63058471679688 5.048314571380615 
v 38.449066162109375 -134.09185791015625 5.048314571380615 
v 38.44908905029297 -138.63058471679688 5.048314571380615 
v 38.895301818847656 -134.09185791015625 5.048314571380615 
v 38.89530944824219 -138.63059997558594 5.048314571380615 
v 39.341552734375 -134.09185791015625 5.048314571380615 
v 39.34156799316406 -138.63058471679688 5.048314571380615 
v 38.89530944824219 -143.16934204101562 5.048314094543457 
v 38.89530944824219 -138.63059997558594 5.048314571380615 
v 38.449073791503906 -143.16934204101562 5.048314094543457 
v 38.44908905029297 -138.63058471679688 5.048314571380615 
v 38.89530944824219 -138.63059997558594 5.048314571380615 
v 38.89530944824219 -143.16934204101562 5.048314094543457 
v 39.34156799316406 -138.63058471679688 5.048314571380615 
v 39.34156036376953 -143.16934204101562 5.048314094543457 
v 38.89531707763672 -147.70809936523438 5.048313617706299 
v 38.89530944824219 -143.16934204101562 5.048314094543457 
v 38.449073791503906 -147.70809936523438 5.048313617706299 
v 38.449073791503906 -143.16934204101562 5.048314094543457 
v 38.002838134765625 -147.70809936523438 5.048313617706299 
v 38.002830505371094 -143.16934204101562 5.048314094543457 
v 37.55658721923828 -147.70809936523438 5.048313617706299 
v 37.55657958984375 -143.16934204101562 5.048314094543457 
v 43.73070526123047 -161.41323852539062 5.371579647064209 
v 40.828163146972656 -160.33042907714844 5.155970096588135 
v 43.728782653808594 -161.85867309570312 5.398496627807617 
v 40.452308654785156 -160.57093811035156 5.160233497619629 
v 39.34156036376953 -152.24684143066406 5.048313617706299 
v 39.34156036376953 -147.70809936523438 5.048313617706299 
v 38.89531707763672 -152.24684143066406 5.048313617706299 
v 38.89531707763672 -147.70809936523438 5.048313617706299 
v 38.449073791503906 -152.24684143066406 5.048313617706299 
v 38.449073791503906 -147.70809936523438 5.048313617706299 
v 38.002838134765625 -147.70809936523438 5.048313617706299 
v 38.002830505371094 -152.24684143066406 5.048313140869141 
v 38.449073791503906 -147.70809936523438 5.048313617706299 
v 38.449073791503906 -152.24684143066406 5.048313617706299 
v 38.002830505371094 -152.24684143066406 5.048313140869141 
v 38.002838134765625 -147.70809936523438 5.048313617706299 
v 37.55658721923828 -152.246826171875 5.048313140869141 
v 37.55658721923828 -147.70809936523438 5.048313617706299 
v 39.34156036376953 -156.78558349609375 5.048313140869141 
v 39.34156036376953 -152.24684143066406 5.048313617706299 
v 38.89531707763672 -156.78558349609375 5.048312664031982 
v 38.89531707763672 -152.24684143066406 5.048313617706299 
v 38.002830505371094 -152.24684143066406 5.048313140869141 
v 38.002830505371094 -156.78558349609375 5.048312664031982 
v 38.449073791503906 -152.24684143066406 5.048313617706299 
v 38.449073791503906 -156.78558349609375 5.048312664031982 
v 38.002830505371094 -156.78558349609375 5.048312664031982 
v 38.002830505371094 -152.24684143066406 5.048313140869141 
v 37.55658721923828 -156.78558349609375 5.048312664031982 
v 37.55658721923828 -152.246826171875 5.048313140869141 
v 40.828163146972656 -160.33042907714844 5.155970096588135 
v 39.34156036376953 -156.78558349609375 5.048313140869141 
v 40.452308654785156 -160.57093811035156 5.160233497619629 
v 38.89531707763672 -156.78558349609375 5.048312664031982 
v 38.449073791503906 -156.78558349609375 5.048312664031982 
v 40.076438903808594 -160.81143188476562 5.164496898651123 
v 38.89531707763672 -156.78558349609375 5.048312664031982 
v 40.452308654785156 -160.57093811035156 5.160233497619629 
v 38.002830505371094 -156.78558349609375 5.048312664031982 
v 39.700584411621094 -161.05194091796875 5.168760299682617 
v 38.449073791503906 -156.78558349609375 5.048312664031982 
v 40.076438903808594 -160.81143188476562 5.164496898651123 
v 57.312469482421875 -161.41323852539062 6.340399265289307 
v 52.78520202636719 -161.41323852539062 6.017459392547607 
v 57.310546875 -161.85867309570312 6.367316246032715 
v 52.783287048339844 -161.85867309570312 6.044376373291016 
v 43.728782653808594 -161.85867309570312 5.398496627807617 
v 40.452308654785156 -160.57093811035156 5.160233497619629 
v 43.72686004638672 -162.3040771484375 5.425413608551025 
v 40.076438903808594 -160.81143188476562 5.164496898651123 
v 43.72686004638672 -162.3040771484375 5.425413608551025 
v 40.076438903808594 -160.81143188476562 5.164496898651123 
v 43.724945068359375 -162.74951171875 5.452330589294434 
v 39.700584411621094 -161.05194091796875 5.168760299682617 
v 43.724945068359375 -162.74951171875 5.452330589294434 
v 39.700584411621094 -161.05194091796875 5.168760299682617 
v 43.72303009033203 -163.1949462890625 5.479247570037842 
v 39.32472229003906 -161.29244995117188 5.173023700714111 
v 48.257957458496094 -161.41323852539062 5.694520950317383 
v 43.73070526123047 -161.41323852539062 5.371579647064209 
v 48.25604248046875 -161.85867309570312 5.721437931060791 
v 43.728782653808594 -161.85867309570312 5.398496627807617 
v 48.25604248046875 -161.85867309570312 5.721437931060791 
v 43.728782653808594 -161.85867309570312 5.398496627807617 
v 48.254119873046875 -162.3040771484375 5.748354911804199 
v 43.72686004638672 -162.3040771484375 5.425413608551025 
v 48.254119873046875 -162.3040771484375 5.748354911804199 
v 43.72686004638672 -162.3040771484375 5.425413608551025 
v 48.25220489501953 -162.74951171875 5.775271892547607 
v 43.724945068359375 -162.74951171875 5.452330589294434 
v 38.89531707763672 -156.78558349609375 5.048312664031982 
v 38.89531707763672 -152.24684143066406 5.048313617706299 
v 38.449073791503906 -156.78558349609375 5.048312664031982 
v 38.449073791503906 -152.24684143066406 5.048313617706299 
v 48.254119873046875 -162.3040771484375 5.748354911804199 
v 52.7813720703125 -162.3040771484375 6.071293354034424 
v 48.25604248046875 -161.85867309570312 5.721437931060791 
v 52.783287048339844 -161.85867309570312 6.044376373291016 
v 48.25220489501953 -162.74951171875 5.775271892547607 
v 52.779449462890625 -162.74951171875 6.098210334777832 
v 48.254119873046875 -162.3040771484375 5.748354911804199 
v 52.7813720703125 -162.3040771484375 6.071293354034424 
v 48.250282287597656 -163.1949462890625 5.802188873291016 
v 52.77752685546875 -163.1949462890625 6.12512731552124 
v 48.25220489501953 -162.74951171875 5.775271892547607 
v 52.779449462890625 -162.74951171875 6.098210334777832 
v 43.72303009033203 -163.1949462890625 5.479247570037842 
v 48.250282287597656 -163.1949462890625 5.802188873291016 
v 43.724945068359375 -162.74951171875 5.452330589294434 
v 48.25220489501953 -162.74951171875 5.775271892547607 
v 57.310546875 -161.85867309570312 6.367316246032715 
v 52.783287048339844 -161.85867309570312 6.044376373291016 
v 57.308624267578125 -162.3040771484375 6.394233226776123 
v 52.7813720703125 -162.3040771484375 6.071293354034424 
vn -0.06858493387699127 0.060760948807001114 0.9957932829856873 
vn -0.06858493387699127 0.060760948807001114 0.9957932829856873 
vn -0.06858493387699127 0.060760948807001114 0.9957932829856873 
vn -0.06858493387699127 0.060760948807001114 0.9957932829856873 
vn -0.06858493387699127 0.060760948807001114 0.9957932829856873 
vn -0.06858493387699127 0.060760948807001114 0.9957932829856873 
vn -0.06858493387699127 0.060760948807001114 0.9957932829856873 
vn -0.06858493387699127 0.060760948807001114 0.9957932829856873 
vn -0.06858493387699127 0.060760948807001114 0.9957932829856873 
vn -0.06858493387699127 0.060760948807001114 0.9957932829856873 
vn -0.06858493387699127 0.060760948807001114 0.9957932829856873 
vn -0.06858493387699127 0.060760948807001114 0.9957932829856873 
vn 0 0 1 
vn 0 0 1 
vn 0 0 1 
vn 0 0 1 
vn -0.0017888620495796204 0.026152238249778748 0.9996563792228699 
vn -0.0017888620495796204 0.026152238249778748 0.9996563792228699 
vn -0.0017888620495796204 0.026152238249778748 0.9996563792228699 
vn -0.0017888620495796204 0.026152238249778748 0.9996563792228699 
vn 0 0 1 
vn 0 0 1 
vn 0 0 1 
vn 0 0 1 
vn 0 0 1 
vn 0 0 1 
vn 0 0 1 
vn 0 0 1 
vn 0 0 1 
vn 0 0 1 
vn 0 0 1 
vn 0 0 1 
vn 0 0 1 
vn 0 0 1 
vn 0 0 1 
vn 0 0 1 
vn 0 0 1 
vn 0 0 1 
vn 0 0 1 
vn 0 0 1 
vn 0 0 1 
vn 0 0 1 
vn 0 0 1 
vn 0 0 1 
vn 0 0 1 
vn 0 0 1 
vn 0 0 1 
vn 0 0 1 
vn 0 0 1 
vn 0 0 1 
vn 0 0 1 
vn 0 0 1 
vn -0.04568209499120712 0.06920541077852249 0.9965559244155884 
vn -0.04568209499120712 0.06920541077852249 0.9965559244155884 
vn -0.04568209499120712 0.06920541077852249 0.9965559244155884 
vn -0.04568209499120712 0.06920541077852249 0.9965559244155884 
vn 0 0 1 
vn 0 0 1 
vn 0 0 1 
vn 0 0 1 
vn 0 0 1 
vn 0 0 1 
vn 0 0 1 
vn 0 0 1 
vn 0 0 1 
vn 0 0 1 
vn 0 0 1 
vn 0 0 1 
vn 0 0 1 
vn 0 0 1 
vn 0 0 1 
vn 0 0 1 
vn 0 0 1 
vn 0 0 1 
vn 0 0 1 
vn 0 0 1 
vn 0 0 1 
vn 0 0 1 
vn 0 0 1 
vn 0 0 1 
vn 0 0 1 
vn 0 0 1 
vn -0.0017781255301088095 0.030529234558343887 0.9995322823524475 
vn -0.0017781255301088095 0.030529234558343887 0.9995322823524475 
vn -0.0017781255301088095 0.030529234558343887 0.9995322823524475 
vn -0.0017781255301088095 0.030529234558343887 0.9995322823524475 
vn -0.0017888620495796204 0.026152238249778748 0.9996563792228699 
vn -0.0017888620495796204 0.026152238249778748 0.9996563792228699 
vn -0.0017888620495796204 0.026152238249778748 0.9996563792228699 
vn -0.0017888620495796204 0.026152238249778748 0.9996563792228699 
vn -0.0017888620495796204 0.026152238249778748 0.9996563792228699 
vn -0.0017888620495796204 0.026152238249778748 0.9996563792228699 
vn -0.0017888620495796204 0.026152238249778748 0.9996563792228699 
vn -0.0017888620495796204 0.026152238249778748 0.9996563792228699 
vn -0.06858493387699127 0.060760948807001114 0.9957932829856873 
vn -0.06858493387699127 0.060760948807001114 0.9957932829856873 
vn -0.06858493387699127 0.060760948807001114 0.9957932829856873 
vn -0.06858493387699127 0.060760948807001114 0.9957932829856873 
vn -0.04568209499120712 0.06920541077852249 0.9965559244155884 
vn -0.04568209499120712 0.06920541077852249 0.9965559244155884 
vn -0.04568209499120712 0.06920541077852249 0.9965559244155884 
vn -0.04568209499120712 0.06920541077852249 0.9965559244155884 
vn -0.04345840588212013 0.06545453518629074 0.9969087839126587 
vn -0.04345840588212013 0.06545453518629074 0.9969087839126587 
vn -0.04345840588212013 0.06545453518629074 0.9969087839126587 
vn -0.04345840588212013 0.06545453518629074 0.9969087839126587 
vn -0.04345840588212013 0.06545453518629074 0.9969087839126587 
vn -0.04345840588212013 0.06545453518629074 0.9969087839126587 
vn -0.04345840588212013 0.06545453518629074 0.9969087839126587 
vn -0.04345840588212013 0.06545453518629074 0.9969087839126587 
vn -0.06858493387699127 0.060760948807001114 0.9957932829856873 
vn -0.06858493387699127 0.060760948807001114 0.9957932829856873 
vn -0.06858493387699127 0.060760948807001114 0.9957932829856873 
vn -0.06858493387699127 0.060760948807001114 0.9957932829856873 
vn -0.06858493387699127 0.060760948807001114 0.9957932829856873 
vn -0.06858493387699127 0.060760948807001114 0.9957932829856873 
vn -0.06858493387699127 0.060760948807001114 0.9957932829856873 
vn -0.06858493387699127 0.060760948807001114 0.9957932829856873 
vn -0.06858493387699127 0.060760948807001114 0.9957932829856873 
vn -0.06858493387699127 0.060760948807001114 0.9957932829856873 
vn -0.06858493387699127 0.060760948807001114 0.9957932829856873 
vn -0.06858493387699127 0.060760948807001114 0.9957932829856873 
vn 0 0 1 
vn 0 0 1 
vn 0 0 1 
vn 0 0 1 
vn -0.06858493387699127 0.060760948807001114 0.9957932829856873 
vn -0.06858493387699127 0.060760948807001114 0.9957932829856873 
vn -0.06858493387699127 0.060760948807001114 0.9957932829856873 
vn -0.06858493387699127 0.060760948807001114 0.9957932829856873 
vn -0.06858493387699127 0.060760948807001114 0.9957932829856873 
vn -0.06858493387699127 0.060760948807001114 0.9957932829856873 
vn -0.06858493387699127 0.060760948807001114 0.9957932829856873 
vn -0.06858493387699127 0.060760948807001114 0.9957932829856873 
vn -0.06858493387699127 0.060760948807001114 0.9957932829856873 
vn -0.06858493387699127 0.060760948807001114 0.9957932829856873 
vn -0.06858493387699127 0.060760948807001114 0.9957932829856873 
vn -0.06858493387699127 0.060760948807001114 0.9957932829856873 
vn -0.06858493387699127 0.060760948807001114 0.9957932829856873 
vn -0.06858493387699127 0.060760948807001114 0.9957932829856873 
vn -0.06858493387699127 0.060760948807001114 0.9957932829856873 
vn -0.06858493387699127 0.060760948807001114 0.9957932829856873 
vn -0.06858493387699127 0.060760948807001114 0.9957932829856873 
vn -0.06858493387699127 0.060760948807001114 0.9957932829856873 
vn -0.06858493387699127 0.060760948807001114 0.9957932829856873 
vn -0.06858493387699127 0.060760948807001114 0.9957932829856873 
vt 10.918044090270996 41.235816955566406 
vt 8.922699928283691 41.235816955566406 
vt 10.918044090270996 40.97600173950195 
vt 8.922699928283691 40.97600173950195 
vt 8.922699928283691 41.235816955566406 
vt 10.918044090270996 41.235816955566406 
vt 8.922699928283691 41.49562454223633 
vt 10.918044090270996 41.49562454223633 
vt 6.9273552894592285 41.75544357299805 
vt 8.922699928283691 41.75544357299805 
vt 6.9273552894592285 42.0152587890625 
vt 8.922699928283691 42.0152587890625 
vt -5.044861793518066 41.75544357299805 
vt -3.0495176315307617 41.75544357299805 
vt -5.044861793518066 42.0152587890625 
vt -3.0495176315307617 42.0152587890625 
vt 2.9366672039031982 41.235816955566406 
vt 0.9413229823112488 41.235816955566406 
vt 2.9366672039031982 40.97600173950195 
vt 0.9413229823112488 40.97600173950195 
vt -7.040205955505371 40.97600173950195 
vt -5.044861793518066 40.97600173950195 
vt -7.040205955505371 41.235816955566406 
vt -5.044861793518066 41.235816955566406 
vt -7.040205955505371 41.49562454223633 
vt -5.044861793518066 41.49562454223633 
vt -9.035550117492676 40.97600173950195 
vt -7.040205955505371 40.97600173950195 
vt -9.035550117492676 41.235816955566406 
vt -7.040205955505371 41.235816955566406 
vt -9.035550117492676 41.49562454223633 
vt -7.040205955505371 41.49562454223633 
vt -9.035550117492676 41.75544357299805 
vt -7.040205955505371 41.75544357299805 
vt -9.035550117492676 42.0152587890625 
vt -7.040205955505371 42.0152587890625 
vt -5.044861793518066 41.75544357299805 
vt -7.040205955505371 41.75544357299805 
vt -5.044861793518066 41.49562454223633 
vt -7.040205955505371 41.49562454223633 
vt -7.040205955505371 41.75544357299805 
vt -5.044861793518066 41.75544357299805 
vt -7.040205955505371 42.0152587890625 
vt -5.044861793518066 42.0152587890625 
vt -3.0495176315307617 41.75544357299805 
vt -5.044861793518066 41.75544357299805 
vt -3.0495176315307617 41.49562454223633 
vt -5.044861793518066 41.49562454223633 
vt -3.0495176315307617 41.235816955566406 
vt -5.044861793518066 41.235816955566406 
vt -3.0495176315307617 40.97600173950195 
vt -5.044861793518066 40.97600173950195 
vt 4.932011127471924 42.0152587890625 
vt 2.9366672039031982 42.0152587890625 
vt 4.932011127471924 41.75544357299805 
vt 2.9366672039031982 41.75544357299805 
vt -1.054173469543457 42.0152587890625 
vt -3.0495176315307617 42.0152587890625 
vt -1.054173469543457 41.75544357299805 
vt -3.0495176315307617 41.75544357299805 
vt -1.054173469543457 41.49562454223633 
vt -3.0495176315307617 41.49562454223633 
vt -3.0495176315307617 41.235816955566406 
vt -1.054173469543457 41.235816955566406 
vt -3.0495176315307617 41.49562454223633 
vt -1.054173469543457 41.49562454223633 
vt -1.054173469543457 41.235816955566406 
vt -3.0495176315307617 41.235816955566406 
vt -1.054173469543457 40.97600173950195 
vt -3.0495176315307617 40.97600173950195 
vt 0.9413229823112488 42.0152587890625 
vt -1.054173469543457 42.0152587890625 
vt 0.9413229823112488 41.75544357299805 
vt -1.054173469543457 41.75544357299805 
vt -1.054173469543457 41.235816955566406 
vt 0.9413229823112488 41.235816955566406 
vt -1.054173469543457 41.49562454223633 
vt 0.9413229823112488 41.49562454223633 
vt 0.9413229823112488 41.235816955566406 
vt -1.054173469543457 41.235816955566406 
vt 0.9413229823112488 40.97600173950195 
vt -1.054173469543457 40.97600173950195 
vt 2.9366672039031982 42.0152587890625 
vt 0.9413229823112488 42.0152587890625 
vt 2.9366672039031982 41.75544357299805 
vt 0.9413229823112488 41.75544357299805 
vt 0.9413229823112488 41.49562454223633 
vt 2.9366672039031982 41.49562454223633 
vt 0.9413229823112488 41.75544357299805 
vt 2.9366672039031982 41.75544357299805 
vt 0.9413229823112488 41.235816955566406 
vt 2.9366672039031982 41.235816955566406 
vt 0.9413229823112488 41.49562454223633 
vt 2.9366672039031982 41.49562454223633 
vt 10.918044090270996 42.0152587890625 
vt 8.922699928283691 42.0152587890625 
vt 10.918044090270996 41.75544357299805 
vt 8.922699928283691 41.75544357299805 
vt 4.932011127471924 41.75544357299805 
vt 2.9366672039031982 41.75544357299805 
vt 4.932011127471924 41.49562454223633 
vt 2.9366672039031982 41.49562454223633 
vt 4.932011127471924 41.49562454223633 
vt 2.9366672039031982 41.49562454223633 
vt 4.932011127471924 41.235816955566406 
vt 2.9366672039031982 41.235816955566406 
vt 4.932011127471924 41.235816955566406 
vt 2.9366672039031982 41.235816955566406 
vt 4.932011127471924 40.97600173950195 
vt 2.9366672039031982 40.97600173950195 
vt 6.9273552894592285 42.0152587890625 
vt 4.932011127471924 42.0152587890625 
vt 6.9273552894592285 41.75544357299805 
vt 4.932011127471924 41.75544357299805 
vt 6.9273552894592285 41.75544357299805 
vt 4.932011127471924 41.75544357299805 
vt 6.9273552894592285 41.49562454223633 
vt 4.932011127471924 41.49562454223633 
vt 6.9273552894592285 41.49562454223633 
vt 4.932011127471924 41.49562454223633 
vt 6.9273552894592285 41.235816955566406 
vt 4.932011127471924 41.235816955566406 
vt 0.9413229823112488 41.75544357299805 
vt -1.054173469543457 41.75544357299805 
vt 0.9413229823112488 41.49562454223633 
vt -1.054173469543457 41.49562454223633 
vt 6.9273552894592285 41.49562454223633 
vt 8.922699928283691 41.49562454223633 
vt 6.9273552894592285 41.75544357299805 
vt 8.922699928283691 41.75544357299805 
vt 6.9273552894592285 41.235816955566406 
vt 8.922699928283691 41.235816955566406 
vt 6.9273552894592285 41.49562454223633 
vt 8.922699928283691 41.49562454223633 
vt 6.9273552894592285 40.97600173950195 
vt 8.922699928283691 40.97600173950195 
vt 6.9273552894592285 41.235816955566406 
vt 8.922699928283691 41.235816955566406 
vt 4.932011127471924 40.97600173950195 
vt 6.9273552894592285 40.97600173950195 
vt 4.932011127471924 41.235816955566406 
vt 6.9273552894592285 41.235816955566406 
vt 10.918044090270996 41.75544357299805 
vt 8.922699928283691 41.75544357299805 
vt 10.918044090270996 41.49562454223633 
vt 8.922699928283691 41.49562454223633 
s on 
f 1/1/1 2/2/2 3/3/3 
f 2/2/2 4/4/4 3/3/3 
f 3/3/3 4/4/4 4/4/4 
f 4/4/4 5/5/5 4/4/4 
f 4/4/4 5/5/5 5/5/5 
f 5/5/5 6/6/6 5/5/5 
f 5/5/5 6/6/6 7/7/7 
f 6/6/6 8/8/8 7/7/7 
f 7/7/7 8/8/8 8/8/8 
f 8/8/8 9/9/9 8/8/8 
f 8/8/8 9/9/9 9/9/9 
f 9/9/9 10/10/10 9/9/9 
f 9/9/9 10/10/10 11/11/11 
f 10/10/10 12/12/12 11/11/11 
f 11/11/11 12/12/12 12/12/12 
f 12/12/12 13/13/13 12/12/12 
f 12/12/12 13/13/13 13/13/13 
f 13/13/13 14/14/14 13/13/13 
f 13/13/13 14/14/14 15/15/15 
f 14/14/14 16/16/16 15/15/15 
f 15/15/15 16/16/16 16/16/16 
f 16/16/16 17/17/17 16/16/16 
f 16/16/16 17/17/17 17/17/17 
f 17/17/17 18/18/18 17/17/17 
f 17/17/17 18/18/18 19/19/19 
f 18/18/18 20/20/20 19/19/19 
f 19/19/19 20/20/20 20/20/20 
f 20/20/20 21/21/21 20/20/20 
f 20/20/20 21/21/21 21/21/21 
f 21/21/21 22/22/22 21/21/21 
f 21/21/21 22/22/22 23/23/23 
f 22/22/22 24/24/24 23/23/23 
f 23/23/23 24/24/24 25/25/25 
f 24/24/24 26/26/26 25/25/25 
f 25/25/25 26/26/26 26/26/26 
f 26/26/26 27/27/27 26/26/26 
f 26/26/26 27/27/27 27/27/27 
f 27/27/27 28/28/28 27/27/27 
f 27/27/27 28/28/28 29/29/29 
f 28/28/28 30/30/30 29/29/29 
f 29/29/29 30/30/30 31/31/31 
f 30/30/30 32/32/32 31/31/31 
f 31/31/31 32/32/32 33/33/33 
f 32/32/32 34/34/34 33/33/33 
f 33/33/33 34/34/34 35/35/35 
f 34/34/34 36/36/36 35/35/35 
f 35/35/35 36/36/36 36/36/36 
f 36/36/36 37/37/37 36/36/36 
f 36/36/36 37/37/37 37/37/37 
f 37/37/37 38/38/38 37/37/37 
f 37/37/37 38/38/38 39/39/39 
f 38/38/38 40/40/40 39/39/39 
f 39/39/39 40/40/40 40/40/40 
f 40/40/40 41/41/41 40/40/40 
f 40/40/40 41/41/41 41/41/41 
f 41/41/41 42/42/42 41/41/41 
f 41/41/41 42/42/42 43/43/43 
f 42/42/42 44/44/44 43/43/43 
f 43/43/43 44/44/44 44/44/44 
f 44/44/44 45/45/45 44/44/44 
f 44/44/44 45/45/45 45/45/45 
f 45/45/45 46/46/46 45/45/45 
f 45/45/45 46/46/46 47/47/47 
f 46/46/46 48/48/48 47/47/47 
f 47/47/47 48/48/48 49/49/49 
f 48/48/48 50/50/50 49/49/49 
f 49/49/49 50/50/50 51/51/51 
f 50/50/50 52/52/52 51/51/51 
f 51/51/51 52/52/52 52/52/52 
f 52/52/52 53/53/53 52/52/52 
f 52/52/52 53/53/53 53/53/53 
f 53/53/53 54/54/54 53/53/53 
f 53/53/53 54/54/54 55/55/55 
f 54/54/54 56/56/56 55/55/55 
f 55/55/55 56/56/56 56/56/56 
f 56/56/56 57/57/57 56/56/56 
f 56/56/56 57/57/57 57/57/57 
f 57/57/57 58/58/58 57/57/57 
f 57/57/57 58/58/58 59/59/59 
f 58/58/58 60/60/60 59/59/59 
f 59/59/59 60/60/60 61/61/61 
f 60/60/60 62/62/62 61/61/61 
f 61/61/61 62/62/62 62/62/62 
f 62/62/62 63/63/63 62/62/62 
f 62/62/62 63/63/63 63/63/63 
f 63/63/63 64/64/64 63/63/63 
f 63/63/63 64/64/64 65/65/65 
f 64/64/64 66/66/66 65/65/65 
f 65/65/65 66/66/66 66/66/66 
f 66/66/66 67/67/67 66/66/66 
f 66/66/66 67/67/67 67/67/67 
f 67/67/67 68/68/68 67/67/67 
f 67/67/67 68/68/68 69/69/69 
f 68/68/68 70/70/70 69/69/69 
f 69/69/69 70/70/70 70/70/70 
f 70/70/70 71/71/71 70/70/70 
f 70/70/70 71/71/71 71/71/71 
f 71/71/71 72/72/72 71/71/71 
f 71/71/71 72/72/72 73/73/73 
f 72/72/72 74/74/74 73/73/73 
f 73/73/73 74/74/74 74/74/74 
f 74/74/74 75/75/75 74/74/74 
f 74/74/74 75/75/75 75/75/75 
f 75/75/75 76/76/76 75/75/75 
f 75/75/75 76/76/76 77/77/77 
f 76/76/76 78/78/78 77/77/77 
f 77/77/77 78/78/78 78/78/78 
f 78/78/78 79/79/79 78/78/78 
f 78/78/78 79/79/79 79/79/79 
f 79/79/79 80/80/80 79/79/79 
f 79/79/79 80/80/80 81/81/81 
f 80/80/80 82/82/82 81/81/81 
f 81/81/81 82/82/82 82/82/82 
f 82/82/82 83/83/83 82/82/82 
f 82/82/82 83/83/83 83/83/83 
f 83/83/83 84/84/84 83/83/83 
f 83/83/83 84/84/84 85/85/85 
f 84/84/84 86/86/86 85/85/85 
f 85/85/85 86/86/86 86/86/86 
f 86/86/86 87/87/87 86/86/86 
f 86/86/86 87/87/87 87/87/87 
f 87/87/87 88/88/88 87/87/87 
f 87/87/87 88/88/88 89/89/89 
f 88/88/88 90/90/90 89/89/89 
f 89/89/89 90/90/90 90/90/90 
f 90/90/90 91/91/91 90/90/90 
f 90/90/90 91/91/91 91/91/91 
f 91/91/91 92/92/92 91/91/91 
f 91/91/91 92/92/92 93/93/93 
f 92/92/92 94/94/94 93/93/93 
f 93/93/93 94/94/94 94/94/94 
f 94/94/94 95/95/95 94/94/94 
f 94/94/94 95/95/95 95/95/95 
f 95/95/95 96/96/96 95/95/95 
f 95/95/95 96/96/96 97/97/97 
f 96/96/96 98/98/98 97/97/97 
f 97/97/97 98/98/98 98/98/98 
f 98/98/98 99/99/99 98/98/98 
f 98/98/98 99/99/99 99/99/99 
f 99/99/99 100/100/100 99/99/99 
f 99/99/99 100/100/100 101/101/101 
f 100/100/100 102/102/102 101/101/101 
f 101/101/101 102/102/102 102/102/102 
f 102/102/102 103/103/103 102/102/102 
f 102/102/102 103/103/103 103/103/103 
f 103/103/103 104/104/104 103/103/103 
f 103/103/103 104/104/104 105/105/105 
f 104/104/104 106/106/106 105/105/105 
f 105/105/105 106/106/106 106/106/106 
f 106/106/106 107/107/107 106/106/106 
f 106/106/106 107/107/107 107/107/107 
f 107/107/107 108/108/108 107/107/107 
f 107/107/107 108/108/108 109/109/109 
f 108/108/108 110/110/110 109/109/109 
f 109/109/109 110/110/110 110/110/110 
f 110/110/110 111/111/111 110/110/110 
f 110/110/110 111/111/111 111/111/111 
f 111/111/111 112/112/112 111/111/111 
f 111/111/111 112/112/112 113/113/113 
f 112/112/112 114/114/114 113/113/113 
f 113/113/113 114/114/114 114/114/114 
f 114/114/114 115/115/115 114/114/114 
f 114/114/114 115/115/115 115/115/115 
f 115/115/115 116/116/116 115/115/115 
f 115/115/115 116/116/116 117/117/117 
f 116/116/116 118/118/118 117/117/117 
f 117/117/117 118/118/118 118/118/118 
f 118/118/118 119/119/119 118/118/118 
f 118/118/118 119/119/119 119/119/119 
f 119/119/119 120/120/120 119/119/119 
f 119/119/119 120/120/120 121/121/121 
f 120/120/120 122/122/122 121/121/121 
f 121/121/121 122/122/122 122/122/122 
f 122/122/122 123/123/123 122/122/122 
f 122/122/122 123/123/123 123/123/123 
f 123/123/123 124/124/124 123/123/123 
f 123/123/123 124/124/124 125/125/125 
f 124/124/124 126/126/126 125/125/125 
f 125/125/125 126/126/126 126/126/126 
f 126/126/126 127/127/127 126/126/126 
f 126/126/126 127/127/127 127/127/127 
f 127/127/127 128/128/128 127/127/127 
f 127/127/127 128/128/128 129/129/129 
f 128/128/128 130/130/130 129/129/129 
f 129/129/129 130/130/130 130/130/130 
f 130/130/130 131/131/131 130/130/130 
f 130/130/130 131/131/131 131/131/131 
f 131/131/131 132/132/132 131/131/131 
f 131/131/131 132/132/132 133/133/133 
f 132/132/132 134/134/134 133/133/133 
f 133/133/133 134/134/134 134/134/134 
f 134/134/134 135/135/135 134/134/134 
f 134/134/134 135/135/135 135/135/135 
f 135/135/135 136/136/136 135/135/135 
f 135/135/135 136/136/136 137/137/137 
f 136/136/136 138/138/138 137/137/137 
f 137/137/137 138/138/138 138/138/138 
f 138/138/138 139/139/139 138/138/138 
f 138/138/138 139/139/139 139/139/139 
f 139/139/139 140/140/140 139/139/139 
f 139/139/139 140/140/140 141/141/141 
f 140/140/140 142/142/142 141/141/141 
f 141/141/141 142/142/142 142/142/142 
f 142/142/142 143/143/143 142/142/142 
f 142/142/142 143/143/143 143/143/143 
f 143/143/143 144/144/144 143/143/143 
f 143/143/143 144/144/144 145/145/145 
f 144/144/144 146/146/146 145/145/145 

