mtllib model_4.mtl
o model_4
v 0.7769036293029785 5.494565963745117 -3.8612828254699707 
v 0.7956185340881348 5.494565963745117 -3.861699104309082 
v 0.776792049407959 5.496622562408447 -3.8662421703338623 
v 0.79550701379776 5.496622562408447 -3.8666775226593018 
v 0.7766804695129395 5.494565963745117 -3.871220350265503 
v 0.7953954339027405 5.494565963745117 -3.8716368675231934 
v 0.7766339778900146 5.489601135253906 -3.873283624649048 
v 0.7953489422798157 5.489601135253906 -3.873699903488159 
v 0.7766804695129395 5.4846367835998535 -3.871220350265503 
v 0.7953954339027405 5.4846367835998535 -3.8716368675231934 
v 0.776792049407959 5.482580184936523 -3.8662421703338623 
v 0.79550701379776 5.482580184936523 -3.8666775226593018 
v 0.7769036293029785 5.4846367835998535 -3.8612828254699707 
v 0.7956185340881348 5.4846367835998535 -3.861699104309082 
v 0.7769501209259033 5.489601135253906 -3.859219551086426 
v 0.7956650257110596 5.489601135253906 -3.8596549034118652 
v 0.7769036293029785 5.494565963745117 -3.8612828254699707 
v 0.7956185340881348 5.494565963745117 -3.861699104309082 
v 0.7907283306121826 5.484849452972412 -3.862550973892212 
v 0.7905423641204834 5.484849452972412 -3.870917558670044 
v 0.7918811440467834 5.484849452972412 -3.862588882446289 
v 0.7916951775550842 5.484849452972412 -3.870936393737793 
v 0.7916951775550842 5.484849452972412 -3.870936393737793 
v 0.791750967502594 5.555169582366943 -3.868286371231079 
v 0.7918811440467834 5.484849452972412 -3.862588882446289 
v 0.7918253540992737 5.555169582366943 -3.865219831466675 
v 0.7918811440467834 5.484849452972412 -3.862588882446289 
v 0.7918253540992737 5.555169582366943 -3.865219831466675 
v 0.7907283306121826 5.484849452972412 -3.862550973892212 
v 0.7906632423400879 5.555169582366943 -3.865200996398926 
v 0.7918253540992737 5.555169582366943 -3.865219831466675 
v 0.791750967502594 5.555169582366943 -3.868286371231079 
v 0.7906632423400879 5.555169582366943 -3.865200996398926 
v 0.7905981540679932 5.555169582366943 -3.86826753616333 
v 0.7905423641204834 5.484849452972412 -3.870917558670044 
v 0.7905981540679932 5.555169582366943 -3.86826753616333 
v 0.7916951775550842 5.484849452972412 -3.870936393737793 
v 0.791750967502594 5.555169582366943 -3.868286371231079 
v 0.7953489422798157 5.489601135253906 -3.873699903488159 
v 0.7953954339027405 5.494565963745117 -3.8716368675231934 
v 0.79550701379776 5.489601135253906 -3.8666775226593018 
v 0.79550701379776 5.496622562408447 -3.8666775226593018 
v 0.7956185340881348 5.494565963745117 -3.861699104309082 
v 0.7956650257110596 5.489601135253906 -3.8596549034118652 
v 0.7956185340881348 5.4846367835998535 -3.861699104309082 
v 0.79550701379776 5.482580184936523 -3.8666775226593018 
v 0.7953954339027405 5.4846367835998535 -3.8716368675231934 
v 1.208394169807434 5.057136058807373 -5.052318096160889 
v 1.2246054410934448 5.057136058807373 -5.061686038970947 
v 1.2059192657470703 5.059192657470703 -5.0566301345825195 
v 1.2221193313598633 5.059192657470703 -5.065973281860352 
v 1.2034330368041992 5.057136058807373 -5.060917854309082 
v 1.2196444272994995 5.057136058807373 -5.070285797119141 
v 1.2023999691009521 5.052171230316162 -5.062702178955078 
v 1.2186113595962524 5.052171230316162 -5.072070121765137 
v 1.2034330368041992 5.047206878662109 -5.060917854309082 
v 1.2196444272994995 5.047206878662109 -5.070285797119141 
v 1.2059192657470703 5.045149803161621 -5.0566301345825195 
v 1.2221193313598633 5.045149803161621 -5.065973281860352 
v 1.208394169807434 5.047206878662109 -5.052318096160889 
v 1.2246054410934448 5.047206878662109 -5.061686038970947 
v 1.2094272375106812 5.052171230316162 -5.050533771514893 
v 1.225638508796692 5.052171230316162 -5.059901714324951 
v 1.208394169807434 5.057136058807373 -5.052318096160889 
v 1.2246054410934448 5.057136058807373 -5.061686038970947 
v 1.2199169397354126 5.047419548034668 -5.060074806213379 
v 1.2157278060913086 5.047419548034668 -5.067311763763428 
v 1.2209159135818481 5.047419548034668 -5.06064510345459 
v 1.2167268991470337 5.047419548034668 -5.0678815841674805 
v 1.2167268991470337 5.047419548034668 -5.0678815841674805 
v 1.2180551290512085 5.117739677429199 -5.065601825714111 
v 1.2209159135818481 5.047419548034668 -5.06064510345459 
v 1.2195876836776733 5.117739677429199 -5.0629496574401855 
v 1.2209159135818481 5.047419548034668 -5.06064510345459 
v 1.2195876836776733 5.117739677429199 -5.0629496574401855 
v 1.2199169397354126 5.047419548034668 -5.060074806213379 
v 1.2185887098312378 5.117739677429199 -5.062355041503906 
v 1.2195876836776733 5.117739677429199 -5.0629496574401855 
v 1.2180551290512085 5.117739677429199 -5.065601825714111 
v 1.2185887098312378 5.117739677429199 -5.062355041503906 
v 1.2170560359954834 5.117739677429199 -5.0650315284729 
v 1.2157278060913086 5.047419548034668 -5.067311763763428 
v 1.2170560359954834 5.117739677429199 -5.0650315284729 
v 1.2167268991470337 5.047419548034668 -5.0678815841674805 
v 1.2180551290512085 5.117739677429199 -5.065601825714111 
v 1.2186113595962524 5.052171230316162 -5.072070121765137 
v 1.2196444272994995 5.057136058807373 -5.070285797119141 
v 1.2221193313598633 5.052171230316162 -5.065973281860352 
v 1.2221193313598633 5.059192657470703 -5.065973281860352 
v 1.2246054410934448 5.057136058807373 -5.061686038970947 
v 1.225638508796692 5.052171230316162 -5.059901714324951 
v 1.2246054410934448 5.047206878662109 -5.061686038970947 
v 1.2221193313598633 5.045149803161621 -5.065973281860352 
v 1.2196444272994995 5.047206878662109 -5.070285797119141 
v 1.0187700986862183 5.0625529289245605 -5.358283519744873 
v 1.034977674484253 5.0625529289245605 -5.367640972137451 
v 1.01713228225708 5.06680154800415 -5.3611226081848145 
v 1.0333398580551147 5.06680154800415 -5.370479583740234 
v 1.0144708156585693 5.067493915557861 -5.365722179412842 
v 1.030678391456604 5.067493915557861 -5.375079154968262 
v 1.0123382806777954 5.064220905303955 -5.3694281578063965 
v 1.02854585647583 5.064220905303955 -5.378785610198975 
v 1.0119800567626953 5.058902263641357 -5.370032787322998 
v 1.0281875133514404 5.058902263641357 -5.379389762878418 
v 1.0136178731918335 5.054622173309326 -5.367194175720215 
v 1.0298253297805786 5.054622173309326 -5.376551151275635 
v 1.0162792205810547 5.053929805755615 -5.362567901611328 
v 1.0324867963790894 5.053929805755615 -5.371925354003906 
v 1.0184118747711182 5.0572028160095215 -5.358888149261475 
v 1.0346194505691528 5.0572028160095215 -5.368245601654053 
v 1.0187700986862183 5.0625529289245605 -5.358283519744873 
v 1.034977674484253 5.0625529289245605 -5.367640972137451 
v 1.0294671058654785 5.054590702056885 -5.371031761169434 
v 1.0258502960205078 5.058776378631592 -5.3772873878479 
v 1.0304737091064453 5.054590702056885 -5.371609687805176 
v 1.0268568992614746 5.058776378631592 -5.377865314483643 
v 1.0268568992614746 5.058776378631592 -5.377865314483643 
v 1.045572280883789 5.118349552154541 -5.345430850982666 
v 1.0304737091064453 5.054590702056885 -5.371609687805176 
v 1.0469030141830444 5.116807460784912 -5.343143939971924 
v 1.0304737091064453 5.054590702056885 -5.371609687805176 
v 1.0469030141830444 5.116807460784912 -5.343143939971924 
v 1.0294671058654785 5.054590702056885 -5.371031761169434 
v 1.0458965301513672 5.116807460784912 -5.342565536499023 
v 1.0469030141830444 5.116807460784912 -5.343143939971924 
v 1.045572280883789 5.118349552154541 -5.345430850982666 
v 1.0458965301513672 5.116807460784912 -5.342565536499023 
v 1.0445657968521118 5.118349552154541 -5.344852447509766 
v 1.0258502960205078 5.058776378631592 -5.3772873878479 
v 1.0445657968521118 5.118349552154541 -5.344852447509766 
v 1.0268568992614746 5.058776378631592 -5.377865314483643 
v 1.045572280883789 5.118349552154541 -5.345430850982666 
v 1.02854585647583 5.064220905303955 -5.378785610198975 
v 1.030678391456604 5.067493915557861 -5.375079154968262 
v 1.0315825939178467 5.060727596282959 -5.373502254486084 
v 1.0333398580551147 5.06680154800415 -5.370479583740234 
v 1.034977674484253 5.0625529289245605 -5.367640972137451 
v 1.0346194505691528 5.0572028160095215 -5.368245601654053 
v 1.0324867963790894 5.053929805755615 -5.371925354003906 
v 1.0298253297805786 5.054622173309326 -5.376551151275635 
v 1.0281875133514404 5.058902263641357 -5.379389762878418 
v 0.7686126232147217 5.50221586227417 -4.228606700897217 
v 0.7873274087905884 5.50221586227417 -4.229021072387695 
v 0.7685010433197021 5.5042724609375 -4.233580589294434 
v 0.7872158885002136 5.5042724609375 -4.233994960784912 
v 0.7683894634246826 5.50221586227417 -4.238533020019531 
v 0.7871043086051941 5.50221586227417 -4.238968372344971 
v 0.7683429718017578 5.497251033782959 -4.240605354309082 
v 0.7870578169822693 5.497251033782959 -4.241020202636719 
v 0.7683894634246826 5.492286682128906 -4.238533020019531 
v 0.7871043086051941 5.492286682128906 -4.238968372344971 
v 0.7685010433197021 5.490230083465576 -4.233580589294434 
v 0.7872158885002136 5.490230083465576 -4.233994960784912 
v 0.7686126232147217 5.492286682128906 -4.228606700897217 
v 0.7873274087905884 5.492286682128906 -4.229021072387695 
v 0.7686591148376465 5.497251033782959 -4.226534366607666 
v 0.7873739004135132 5.497251033782959 -4.2269697189331055 
v 0.7686126232147217 5.50221586227417 -4.228606700897217 
v 0.7873274087905884 5.50221586227417 -4.229021072387695 
v 0.7824372053146362 5.492499351501465 -4.229870796203613 
v 0.7822512984275818 5.492499351501465 -4.238222599029541 
v 0.7835900187492371 5.492499351501465 -4.229891777038574 
v 0.7834041118621826 5.492499351501465 -4.2382636070251465 
v 0.7834041118621826 5.492499351501465 -4.2382636070251465 
v 0.7834599018096924 5.56281852722168 -4.235611438751221 
v 0.7835900187492371 5.492499351501465 -4.229891777038574 
v 0.7835342884063721 5.56281852722168 -4.232544422149658 
v 0.7835900187492371 5.492499351501465 -4.229891777038574 
v 0.7835342884063721 5.56281852722168 -4.232544422149658 
v 0.7824372053146362 5.492499351501465 -4.229870796203613 
v 0.7823814153671265 5.56281852722168 -4.232523441314697 
v 0.7835342884063721 5.56281852722168 -4.232544422149658 
v 0.7834599018096924 5.56281852722168 -4.235611438751221 
v 0.7823814153671265 5.56281852722168 -4.232523441314697 
v 0.7823070883750916 5.56281852722168 -4.23559045791626 
v 0.7822512984275818 5.492499351501465 -4.238222599029541 
v 0.7823070883750916 5.56281852722168 -4.23559045791626 
v 0.7834041118621826 5.492499351501465 -4.2382636070251465 
v 0.7834599018096924 5.56281852722168 -4.235611438751221 
v 0.7870578169822693 5.497251033782959 -4.241020202636719 
v 0.7871043086051941 5.50221586227417 -4.238968372344971 
v 0.7872158885002136 5.497251033782959 -4.233994960784912 
v 0.7872158885002136 5.5042724609375 -4.233994960784912 
v 0.7873274087905884 5.50221586227417 -4.229021072387695 
v 0.7873739004135132 5.497251033782959 -4.2269697189331055 
v 0.7873274087905884 5.492286682128906 -4.229021072387695 
v 0.7872158885002136 5.490230083465576 -4.233994960784912 
v 0.7871043086051941 5.492286682128906 -4.238968372344971 
vn 0.018844101577997208 0.7076278924942017 0.7063339352607727 
vn 0.018844101577997208 0.7076278924942017 0.7063339352607727 
vn -1.0341130485562108e-13 0.999997615814209 0.002184694167226553 
vn -1.0341130485562108e-13 0.999997615814209 0.002184694167226553 
vn -0.013214060105383396 0.707755446434021 -0.7063339352607727 
vn -0.013214060105383396 0.707755446434021 -0.7063339352607727 
vn -0.021845221519470215 -4.518096610544014e-15 -0.9997613430023193 
vn -0.021845221519470215 -4.518096610544014e-15 -0.9997613430023193 
vn -0.013214060105383396 -0.707755446434021 -0.7063339352607727 
vn -0.013214060105383396 -0.707755446434021 -0.7063339352607727 
vn 3.097898456858039e-13 -0.999997615814209 0.002184694167226553 
vn 3.097898456858039e-13 -0.999997615814209 -0.002184694167226553 
vn 0.018844101577997208 -0.7076278924942017 0.7063339352607727 
vn 0.018844101577997208 -0.7076278924942017 0.7063339352607727 
vn 0.021845221519470215 0 0.9997613430023193 
vn 0.021845221519470215 0 0.9997613430023193 
vn 0.018844101577997208 0.7076278924942017 0.7063339352607727 
vn 0.018844101577997208 0.7076278924942017 0.7063339352607727 
vn 3.097898456858039e-13 -0.999997615814209 0.002184694167226553 
vn 3.097898456858039e-13 -0.999997615814209 0.002184694167226553 
vn 3.097898456858039e-13 -0.999997615814209 0.002184694167226553 
vn 3.097898456858039e-13 -0.999997615814209 0.002184694167226553 
vn 0.999711275100708 0 -0.024029340595006943 
vn 0.999711275100708 0 -0.024029340595006943 
vn 0.999711275100708 0 -0.024029340595006943 
vn 0.999711275100708 0 -0.024029340595006943 
vn 0.023890703916549683 0.03656744584441185 0.9990455508232117 
vn 0.023890703916549683 0.03656744584441185 0.9990455508232117 
vn 0.023890703916549683 0.03656744584441185 0.9990455508232117 
vn 0.023890703916549683 0.03656744584441185 0.9990455508232117 
vn -1.0341130485562108e-13 0.999997615814209 0.002184694167226553 
vn -1.0341130485562108e-13 0.999997615814209 0.002184694167226553 
vn -1.0341130485562108e-13 0.999997615814209 0.002184694167226553 
vn -1.0341130485562108e-13 0.999997615814209 0.002184694167226553 
vn -0.021840007975697517 0.037828002125024796 -0.9990455508232117 
vn -0.021840007975697517 0.037828002125024796 -0.9990455508232117 
vn -0.021840007975697517 0.037828002125024796 -0.9990455508232117 
vn -0.021840007975697517 0.037828002125024796 -0.9990455508232117 
vn 0.999711275100708 0 -0.024029340595006943 
vn 0.999711275100708 0 -0.024029340595006943 
vn 0.999711275100708 0 -0.024029340595006943 
vn 0.999711275100708 0 -0.024029340595006943 
vn 0.999711275100708 0 -0.024029340595006943 
vn 0.999711275100708 0 -0.024029340595006943 
vn 0.999711275100708 0 -0.024029340595006943 
vn 0.999711275100708 0 -0.024029340595006943 
vn 0.999711275100708 0 -0.024029340595006943 
vn 0.3547718822956085 0.7074987292289734 0.6112139225006104 
vn 0.3547718822956085 0.7074987292289734 0.6112139225006104 
vn -1.0341130485562108e-13 0.999997615814209 -0.002184694167226553 
vn -1.0341130485562108e-13 0.999997615814209 -0.002184694167226553 
vn -0.3535822033882141 0.70809406042099 -0.6112139225006104 
vn -0.3535822033882141 0.70809406042099 -0.6112139225006104 
vn -0.5006305575370789 -1.0354196476993274e-13 -0.865661084651947 
vn -0.5006305575370789 -1.0354196476993274e-13 -0.865661084651947 
vn -0.3535822033882141 -0.70809406042099 -0.6112139225006104 
vn -0.3535822033882141 -0.70809406042099 -0.6112139225006104 
vn 3.097898456858039e-13 -0.999997615814209 -0.002184694167226553 
vn 3.097898456858039e-13 -0.999997615814209 -0.002184694167226553 
vn 0.3547718822956085 -0.7074987292289734 0.6112139225006104 
vn 0.3547718822956085 -0.7074987292289734 0.6112139225006104 
vn 0.5006305575370789 0 0.865661084651947 
vn 0.5006305575370789 0 0.865661084651947 
vn 0.3547718822956085 0.7074987292289734 0.6112139225006104 
vn 0.3547718822956085 0.7074987292289734 0.6112139225006104 
vn 3.097898456858039e-13 -0.999997615814209 0.002184694167226553 
vn 3.097898456858039e-13 -0.999997615814209 0.002184694167226553 
vn 3.097898456858039e-13 -0.999997615814209 0.002184694167226553 
vn 3.097898456858039e-13 -0.999997615814209 0.002184694167226553 
vn 0.8667527437210083 0 -0.4987381398677826 
vn 0.8667527437210083 0 -0.4987381398677826 
vn 0.8667527437210083 0 -0.4987381398677826 
vn 0.8667527437210083 0 -0.4987381398677826 
vn 0.4992172420024872 0.037590835243463516 0.865661084651947 
vn 0.4992172420024872 0.037590835243463516 0.865661084651947 
vn 0.4992172420024872 0.037590835243463516 0.865661084651947 
vn 0.4992172420024872 0.037590835243463516 0.865661084651947 
vn -1.0341130485562108e-13 0.999997615814209 0.002184694167226553 
vn -1.0341130485562108e-13 0.999997615814209 0.002184694167226553 
vn -1.0341130485562108e-13 0.999997615814209 0.002184694167226553 
vn -1.0341130485562108e-13 0.999997615814209 0.002184694167226553 
vn -0.499203622341156 0.03777121752500534 -0.865661084651947 
vn -0.499203622341156 0.03777121752500534 -0.865661084651947 
vn -0.499203622341156 0.03777121752500534 -0.865661084651947 
vn -0.499203622341156 0.03777121752500534 -0.865661084651947 
vn 0.8667527437210083 0 -0.4987381398677826 
vn 0.8667527437210083 0 -0.4987381398677826 
vn 0.8667527437210083 0 -0.4987381398677826 
vn 0.8667527437210083 0 -0.4987381398677826 
vn 0.8667527437210083 0 -0.4987381398677826 
vn 0.8667527437210083 0 -0.4987381398677826 
vn 0.8667527437210083 0 -0.4987381398677826 
vn 0.8667527437210083 0 -0.4987381398677826 
vn 0.8667527437210083 0 -0.4987381398677826 
vn 0.48336780071258545 0.26023349165916443 0.8358433246612549 
vn 0.48336780071258545 0.26023349165916443 0.8358433246612549 
vn 0.25114962458610535 0.8656790852546692 0.43303996324539185 
vn 0.25114962458610535 0.8656790852546692 0.43303996324539185 
vn -0.12988682091236115 0.9660966396331787 -0.22312943637371063 
vn -0.12988682091236115 0.9660966396331787 -0.22312943637371063 
vn -0.4343448877334595 0.4970656931400299 -0.7511792182922363 
vn -0.4343448877334595 0.4970656931400299 -0.7511792182922363 
vn -0.48280298709869385 -0.2612799108028412 -0.8358433246612549 
vn -0.48280298709869385 -0.2612799108028412 -0.8358433246612549 
vn -0.2496621012687683 -0.8661092519760132 -0.43303996324539185 
vn -0.2496621012687683 -0.8661092519760132 -0.43303996324539185 
vn 0.12785863876342773 -0.9663671255111694 0.22312943637371063 
vn 0.12785863876342773 -0.9663671255111694 0.22312943637371063 
vn 0.43227246403694153 -0.49886903166770935 0.7511792182922363 
vn 0.43227246403694153 -0.49886903166770935 0.7511792182922363 
vn 0.48336780071258545 0.26023349165916443 0.8358433246612549 
vn 0.48336780071258545 0.26023349165916443 0.8358433246612549 
vn -0.2496621012687683 -0.8661092519760132 -0.43303996324539185 
vn -0.2496621012687683 -0.8661092519760132 -0.43303996324539185 
vn -0.2496621012687683 -0.8661092519760132 -0.43303996324539185 
vn -0.2496621012687683 -0.8661092519760132 -0.43303996324539185 
vn 0.8667527437210083 0 -0.4987381398677826 
vn 0.8667527437210083 0 -0.4987381398677826 
vn 0.8667527437210083 0 -0.4987381398677826 
vn 0.8667527437210083 0 -0.4987381398677826 
vn 0.44425272941589355 -0.4655875861644745 0.7654199600219727 
vn 0.44425272941589355 -0.4655875861644745 0.7654199600219727 
vn 0.44425272941589355 -0.4655875861644745 0.7654199600219727 
vn 0.44425272941589355 -0.4655875861644745 0.7654199600219727 
vn 0.25114962458610535 0.8656790852546692 0.43303996324539185 
vn 0.25114962458610535 0.8656790852546692 0.43303996324539185 
vn 0.25114962458610535 0.8656790852546692 0.43303996324539185 
vn 0.25114962458610535 0.8656790852546692 0.43303996324539185 
vn -0.42496511340141296 0.5302920937538147 -0.7336177229881287 
vn -0.42496511340141296 0.5302920937538147 -0.7336177229881287 
vn -0.42496511340141296 0.5302920937538147 -0.7336177229881287 
vn -0.42496511340141296 0.5302920937538147 -0.7336177229881287 
vn 0.8667527437210083 0 -0.4987381398677826 
vn 0.8667527437210083 0 -0.4987381398677826 
vn 0.8667527437210083 0 -0.4987381398677826 
vn 0.8667527437210083 0 -0.4987381398677826 
vn 0.8667527437210083 0 -0.4987381398677826 
vn 0.8667527437210083 0 -0.4987381398677826 
vn 0.8667527437210083 0 -0.4987381398677826 
vn 0.8667527437210083 0 -0.4987381398677826 
vn 0.8667527437210083 0 -0.4987381398677826 
vn 0.018844101577997208 0.7076278924942017 0.7063339352607727 
vn 0.018844101577997208 0.7076278924942017 0.7063339352607727 
vn -1.0341130485562108e-13 0.999997615814209 -0.002184694167226553 
vn -1.0341130485562108e-13 0.999997615814209 -0.002184694167226553 
vn -0.013214060105383396 0.707755446434021 -0.7063339352607727 
vn -0.013214060105383396 0.707755446434021 -0.7063339352607727 
vn -0.021845221519470215 -4.518096610544014e-15 -0.9997613430023193 
vn -0.021845221519470215 -4.518096610544014e-15 -0.9997613430023193 
vn -0.013214060105383396 -0.707755446434021 -0.7063339352607727 
vn -0.013214060105383396 -0.707755446434021 -0.7063339352607727 
vn 3.097898456858039e-13 -0.999997615814209 -0.002184694167226553 
vn 3.097898456858039e-13 -0.999997615814209 -0.002184694167226553 
vn 0.018844101577997208 -0.7076278924942017 0.7063339352607727 
vn 0.018844101577997208 -0.7076278924942017 0.7063339352607727 
vn 0.021845221519470215 0 0.9997613430023193 
vn 0.021845221519470215 0 0.9997613430023193 
vn 0.018844101577997208 0.7076278924942017 0.7063339352607727 
vn 0.018844101577997208 0.7076278924942017 0.7063339352607727 
vn 3.097898456858039e-13 -0.999997615814209 -0.002184694167226553 
vn 3.097898456858039e-13 -0.999997615814209 -0.002184694167226553 
vn 3.097898456858039e-13 -0.999997615814209 -0.002184694167226553 
vn 3.097898456858039e-13 -0.999997615814209 -0.002184694167226553 
vn 0.999711275100708 0 -0.024029340595006943 
vn 0.999711275100708 0 -0.024029340595006943 
vn 0.999711275100708 0 -0.024029340595006943 
vn 0.999711275100708 0 -0.024029340595006943 
vn 0.023890703916549683 0.03656744584441185 0.9990455508232117 
vn 0.023890703916549683 0.03656744584441185 0.9990455508232117 
vn 0.023890703916549683 0.03656744584441185 0.9990455508232117 
vn 0.023890703916549683 0.03656744584441185 0.9990455508232117 
vn -1.0341130485562108e-13 0.999997615814209 -0.002184694167226553 
vn -1.0341130485562108e-13 0.999997615814209 -0.002184694167226553 
vn -1.0341130485562108e-13 0.999997615814209 -0.002184694167226553 
vn -1.0341130485562108e-13 0.999997615814209 -0.002184694167226553 
vn -0.021840007975697517 0.037828002125024796 -0.9990455508232117 
vn -0.021840007975697517 0.037828002125024796 -0.9990455508232117 
vn -0.021840007975697517 0.037828002125024796 -0.9990455508232117 
vn -0.021840007975697517 0.037828002125024796 -0.9990455508232117 
vn 0.999711275100708 0 -0.024029340595006943 
vn 0.999711275100708 0 -0.024029340595006943 
vn 0.999711275100708 0 -0.024029340595006943 
vn 0.999711275100708 0 -0.024029340595006943 
vn 0.999711275100708 0 -0.024029340595006943 
vn 0.999711275100708 0 -0.024029340595006943 
vn 0.999711275100708 0 -0.024029340595006943 
vn 0.999711275100708 0 -0.024029340595006943 
vn 0.999711275100708 0 -0.024029340595006943 
s on 
f 1//1 2//2 3//3 
f 2//2 4//4 3//3 
f 3//3 4//4 5//5 
f 4//4 6//6 5//5 
f 5//5 6//6 7//7 
f 6//6 8//8 7//7 
f 7//7 8//8 9//9 
f 8//8 10//10 9//9 
f 9//9 10//10 11//11 
f 10//10 12//12 11//11 
f 11//11 12//12 13//13 
f 12//12 14//14 13//13 
f 13//13 14//14 15//15 
f 14//14 16//16 15//15 
f 15//15 16//16 17//17 
f 16//16 18//18 17//17 
f 17//17 18//18 18//18 
f 18//18 19//19 18//18 
f 18//18 19//19 19//19 
f 19//19 20//20 19//19 
f 19//19 20//20 21//21 
f 20//20 22//22 21//21 
f 21//21 22//22 22//22 
f 22//22 23//23 22//22 
f 22//22 23//23 23//23 
f 23//23 24//24 23//23 
f 23//23 24//24 25//25 
f 24//24 26//26 25//25 
f 25//25 26//26 26//26 
f 26//26 27//27 26//26 
f 26//26 27//27 27//27 
f 27//27 28//28 27//27 
f 27//27 28//28 29//29 
f 28//28 30//30 29//29 
f 29//29 30//30 30//30 
f 30//30 31//31 30//30 
f 30//30 31//31 31//31 
f 31//31 32//32 31//31 
f 31//31 32//32 33//33 
f 32//32 34//34 33//33 
f 33//33 34//34 34//34 
f 34//34 35//35 34//34 
f 34//34 35//35 35//35 
f 35//35 36//36 35//35 
f 35//35 36//36 37//37 
f 36//36 38//38 37//37 
f 37//37 38//38 38//38 
f 38//38 39//39 38//38 
f 38//38 39//39 39//39 
f 39//39 40//40 39//39 
f 39//39 40//40 41//41 
f 40//40 42//42 41//41 
f 41//41 42//42 43//43 
f 42//42 43//43 43//43 
f 43//43 43//43 43//43 
f 43//43 44//44 43//43 
f 43//43 44//44 41//41 
f 44//44 45//45 41//41 
f 41//41 45//45 46//46 
f 45//45 46//46 46//46 
f 46//46 46//46 46//46 
f 46//46 47//47 46//46 
f 46//46 47//47 41//41 
f 47//47 39//39 41//41 
f 41//41 39//39 39//39 
f 39//39 48//48 39//39 
f 39//39 48//48 48//48 
f 48//48 49//49 48//48 
f 48//48 49//49 50//50 
f 49//49 51//51 50//50 
f 50//50 51//51 52//52 
f 51//51 53//53 52//52 
f 52//52 53//53 54//54 
f 53//53 55//55 54//54 
f 54//54 55//55 56//56 
f 55//55 57//57 56//56 
f 56//56 57//57 58//58 
f 57//57 59//59 58//58 
f 58//58 59//59 60//60 
f 59//59 61//61 60//60 
f 60//60 61//61 62//62 
f 61//61 63//63 62//62 
f 62//62 63//63 64//64 
f 63//63 65//65 64//64 
f 64//64 65//65 65//65 
f 65//65 66//66 65//65 
f 65//65 66//66 66//66 
f 66//66 67//67 66//66 
f 66//66 67//67 68//68 
f 67//67 69//69 68//68 
f 68//68 69//69 69//69 
f 69//69 70//70 69//69 
f 69//69 70//70 70//70 
f 70//70 71//71 70//70 
f 70//70 71//71 72//72 
f 71//71 73//73 72//72 
f 72//72 73//73 73//73 
f 73//73 74//74 73//73 
f 73//73 74//74 74//74 
f 74//74 75//75 74//74 
f 74//74 75//75 76//76 
f 75//75 77//77 76//76 
f 76//76 77//77 77//77 
f 77//77 78//78 77//77 
f 77//77 78//78 78//78 
f 78//78 79//79 78//78 
f 78//78 79//79 80//80 
f 79//79 81//81 80//80 
f 80//80 81//81 81//81 
f 81//81 82//82 81//81 
f 81//81 82//82 82//82 
f 82//82 83//83 82//82 
f 82//82 83//83 84//84 
f 83//83 85//85 84//84 
f 84//84 85//85 85//85 
f 85//85 86//86 85//85 
f 85//85 86//86 86//86 
f 86//86 87//87 86//86 
f 86//86 87//87 88//88 
f 87//87 89//89 88//88 
f 88//88 89//89 90//90 
f 89//89 90//90 90//90 
f 90//90 90//90 90//90 
f 90//90 91//91 90//90 
f 90//90 91//91 88//88 
f 91//91 92//92 88//88 
f 88//88 92//92 93//93 
f 92//92 93//93 93//93 
f 93//93 93//93 93//93 
f 93//93 94//94 93//93 
f 93//93 94//94 88//88 
f 94//94 86//86 88//88 
f 88//88 86//86 86//86 
f 86//86 95//95 86//86 
f 86//86 95//95 95//95 
f 95//95 96//96 95//95 
f 95//95 96//96 97//97 
f 96//96 98//98 97//97 
f 97//97 98//98 99//99 
f 98//98 100//100 99//99 
f 99//99 100//100 101//101 
f 100//100 102//102 101//101 
f 101//101 102//102 103//103 
f 102//102 104//104 103//103 
f 103//103 104//104 105//105 
f 104//104 106//106 105//105 
f 105//105 106//106 107//107 
f 106//106 108//108 107//107 
f 107//107 108//108 109//109 
f 108//108 110//110 109//109 
f 109//109 110//110 111//111 
f 110//110 112//112 111//111 
f 111//111 112//112 112//112 
f 112//112 113//113 112//112 
f 112//112 113//113 113//113 
f 113//113 114//114 113//113 
f 113//113 114//114 115//115 
f 114//114 116//116 115//115 
f 115//115 116//116 116//116 
f 116//116 117//117 116//116 
f 116//116 117//117 117//117 
f 117//117 118//118 117//117 
f 117//117 118//118 119//119 
f 118//118 120//120 119//119 
f 119//119 120//120 120//120 
f 120//120 121//121 120//120 
f 120//120 121//121 121//121 
f 121//121 122//122 121//121 
f 121//121 122//122 123//123 
f 122//122 124//124 123//123 
f 123//123 124//124 124//124 
f 124//124 125//125 124//124 
f 124//124 125//125 125//125 
f 125//125 126//126 125//125 
f 125//125 126//126 127//127 
f 126//126 128//128 127//127 
f 127//127 128//128 128//128 
f 128//128 129//129 128//128 
f 128//128 129//129 129//129 
f 129//129 130//130 129//129 
f 129//129 130//130 131//131 
f 130//130 132//132 131//131 
f 131//131 132//132 132//132 
f 132//132 133//133 132//132 
f 132//132 133//133 133//133 
f 133//133 134//134 133//133 
f 133//133 134//134 135//135 
f 134//134 136//136 135//135 
f 135//135 136//136 137//137 
f 136//136 137//137 137//137 
f 137//137 137//137 137//137 
f 137//137 138//138 137//137 
f 137//137 138//138 135//135 
f 138//138 139//139 135//135 
f 135//135 139//139 140//140 
f 139//139 140//140 140//140 
f 140//140 140//140 140//140 
f 140//140 141//141 140//140 
f 140//140 141//141 135//135 
f 141//141 133//133 135//135 
f 135//135 133//133 133//133 
f 133//133 142//142 133//133 
f 133//133 142//142 142//142 
f 142//142 143//143 142//142 
f 142//142 143//143 144//144 
f 143//143 145//145 144//144 
f 144//144 145//145 146//146 
f 145//145 147//147 146//146 
f 146//146 147//147 148//148 
f 147//147 149//149 148//148 
f 148//148 149//149 150//150 
f 149//149 151//151 150//150 
f 150//150 151//151 152//152 
f 151//151 153//153 152//152 
f 152//152 153//153 154//154 
f 153//153 155//155 154//154 
f 154//154 155//155 156//156 
f 155//155 157//157 156//156 
f 156//156 157//157 158//158 
f 157//157 159//159 158//158 
f 158//158 159//159 159//159 
f 159//159 160//160 159//159 
f 159//159 160//160 160//160 
f 160//160 161//161 160//160 
f 160//160 161//161 162//162 
f 161//161 163//163 162//162 
f 162//162 163//163 163//163 
f 163//163 164//164 163//163 
f 163//163 164//164 164//164 
f 164//164 165//165 164//164 
f 164//164 165//165 166//166 
f 165//165 167//167 166//166 
f 166//166 167//167 167//167 
f 167//167 168//168 167//167 
f 167//167 168//168 168//168 
f 168//168 169//169 168//168 
f 168//168 169//169 170//170 
f 169//169 171//171 170//170 
f 170//170 171//171 171//171 
f 171//171 172//172 171//171 
f 171//171 172//172 172//172 
f 172//172 173//173 172//172 
f 172//172 173//173 174//174 
f 173//173 175//175 174//174 
f 174//174 175//175 175//175 
f 175//175 176//176 175//175 
f 175//175 176//176 176//176 
f 176//176 177//177 176//176 
f 176//176 177//177 178//178 
f 177//177 179//179 178//178 
f 178//178 179//179 179//179 
f 179//179 180//180 179//179 
f 179//179 180//180 180//180 
f 180//180 181//181 180//180 
f 180//180 181//181 182//182 
f 181//181 183//183 182//182 
f 182//182 183//183 184//184 
f 183//183 184//184 184//184 
f 184//184 184//184 184//184 
f 184//184 185//185 184//184 
f 184//184 185//185 182//182 
f 185//185 186//186 182//182 
f 182//182 186//186 187//187 
f 186//186 187//187 187//187 
f 187//187 187//187 187//187 
f 187//187 188//188 187//187 
f 187//187 188//188 182//182 
f 188//188 180//180 182//182 

