mtllib model_8.mtl
o model_8
v 0.7956143617630005 5.572120666503906 -3.9307286739349365 
v 0.7962408065795898 5.587012767791748 -3.900951623916626 
v 0.7969925999641418 5.487730979919434 -3.867866039276123 
v 0.7969925999641418 5.591977119445801 -3.867866039276123 
v 0.7977443337440491 5.587012767791748 -3.836434841156006 
v 0.7983707785606384 5.572120666503906 -3.8066577911376953 
v 0.7988719940185547 5.548954486846924 -3.7834978103637695 
v 0.7992478609085083 5.51917028427124 -3.7686092853546143 
v 0.7993731498718262 5.487730979919434 -3.763646364212036 
v 0.7992478609085083 5.454636573791504 -3.7686092853546143 
v 0.7988719940185547 5.42485237121582 -3.7834978103637695 
v 0.7983707785606384 5.401686191558838 -3.8066577911376953 
v 0.7977443337440491 5.386794090270996 -3.836434841156006 
v 0.7969925999641418 5.381830215454102 -3.867866039276123 
v 0.7962408065795898 5.386794090270996 -3.900951623916626 
v 0.7956143617630005 5.401686191558838 -3.9307286739349365 
v 0.7950505018234253 5.42485237121582 -3.9538886547088623 
v 0.7947372794151306 5.454636573791504 -3.9687771797180176 
v 0.7946119904518127 5.487730979919434 -3.9737401008605957 
v 0.7947372794151306 5.51917028427124 -3.9687771797180176 
v 0.7950505018234253 5.548954486846924 -3.9538886547088623 
v 1.1926710605621338 5.1346893310546875 -5.121391773223877 
v 1.2075632810592651 5.149581432342529 -5.095597743988037 
v 1.2241102457046509 5.050300121307373 -5.068370342254639 
v 1.2241102457046509 5.154545783996582 -5.068370342254639 
v 1.2398298978805542 5.149581432342529 -5.03971004486084 
v 1.2547221183776855 5.1346893310546875 -5.013916015625 
v 1.2663049697875977 5.111523628234863 -4.99385404586792 
v 1.273751139640808 5.08173942565918 -4.980956554412842 
v 1.276233196258545 5.050300121307373 -4.976657867431641 
v 1.273751139640808 5.017206192016602 -4.980956554412842 
v 1.2663049697875977 4.987421989440918 -4.99385404586792 
v 1.2547221183776855 4.964256286621094 -5.013916015625 
v 1.2398298978805542 4.949364185333252 -5.03971004486084 
v 1.2241102457046509 4.944399833679199 -5.068370342254639 
v 1.2075632810592651 4.949364185333252 -5.095597743988037 
v 1.1926710605621338 4.964256286621094 -5.121391773223877 
v 1.1810882091522217 4.987421989440918 -5.141453742980957 
v 1.1736420392990112 5.017206192016602 -5.154350757598877 
v 1.1711599826812744 5.050300121307373 -5.158649921417236 
v 1.1736420392990112 5.08173942565918 -5.154350757598877 
v 1.1810882091522217 5.111523628234863 -5.141453742980957 
v 1.0018219947814941 5.144820690155029 -5.428031921386719 
v 1.0167142152786255 5.159712791442871 -5.402237415313721 
v 1.0324338674545288 5.060431003570557 -5.3750104904174805 
v 1.0324338674545288 5.164676666259766 -5.3750104904174805 
v 1.0489808320999146 5.159712791442871 -5.346350193023682 
v 1.063873052597046 5.144820690155029 -5.320556163787842 
v 1.075455904006958 5.121654510498047 -5.3004937171936035 
v 1.0829020738601685 5.091870307922363 -5.287596702575684 
v 1.0853840112686157 5.060431003570557 -5.283297538757324 
v 1.0829020738601685 5.027336597442627 -5.287596702575684 
v 1.075455904006958 4.997552394866943 -5.3004937171936035 
v 1.063873052597046 4.974386215209961 -5.320556163787842 
v 1.0489808320999146 4.959494113922119 -5.346350193023682 
v 1.0324338674545288 4.954529762268066 -5.3750104904174805 
v 1.0167142152786255 4.959494113922119 -5.402237415313721 
v 1.0018219947814941 4.974386215209961 -5.428031921386719 
v 0.990239143371582 4.997552394866943 -5.448093891143799 
v 0.9827930331230164 5.027336597442627 -5.460990905761719 
v 0.9803109765052795 5.060431003570557 -5.465290069580078 
v 0.9827930331230164 5.091870307922363 -5.460990905761719 
v 0.990239143371582 5.121654510498047 -5.448093891143799 
v 0.787312924861908 5.579780578613281 -4.298048973083496 
v 0.7879328727722168 5.594672679901123 -4.2682719230651855 
v 0.7886767983436584 5.493736267089844 -4.235186576843262 
v 0.7886767983436584 5.599637031555176 -4.235186576843262 
v 0.7894207239151001 5.594672679901123 -4.2037553787231445 
v 0.7901026606559753 5.579780578613281 -4.173978805541992 
v 0.7905985713005066 5.556614875793457 -4.150818824768066 
v 0.7909705638885498 5.526830196380615 -4.13593053817749 
v 0.7910325527191162 5.495390892028809 -4.130967617034912 
v 0.7909705638885498 5.462296962738037 -4.13593053817749 
v 0.7905985713005066 5.432512283325195 -4.150818824768066 
v 0.7901026606559753 5.409346580505371 -4.173978805541992 
v 0.7894207239151001 5.394454002380371 -4.2037553787231445 
v 0.7886767983436584 5.389490127563477 -4.235186576843262 
v 0.7879328727722168 5.394454002380371 -4.2682719230651855 
v 0.787312924861908 5.409346580505371 -4.298048973083496 
v 0.7867549657821655 5.432512283325195 -4.321208953857422 
v 0.7864449620246887 5.462296962738037 -4.336097240447998 
v 0.7863209843635559 5.493736267089844 -4.341060161590576 
v 0.7864449620246887 5.526830196380615 -4.336097240447998 
v 0.7867549657821655 5.556614875793457 -4.321208953857422 
vn 0.999711275100708 0 -0.024029340595006943 
vn 0.999711275100708 0 -0.024029340595006943 
vn 0.999711275100708 0 -0.024029340595006943 
vn 0.999711275100708 0 -0.024029340595006943 
vn 0.999711275100708 0 -0.024029340595006943 
vn 0.999711275100708 0 -0.024029340595006943 
vn 0.999711275100708 0 -0.024029340595006943 
vn 0.999711275100708 0 -0.024029340595006943 
vn 0.999711275100708 0 -0.024029340595006943 
vn 0.999711275100708 0 -0.024029340595006943 
vn 0.999711275100708 0 -0.024029340595006943 
vn 0.999711275100708 0 -0.024029340595006943 
vn 0.999711275100708 0 -0.024029340595006943 
vn 0.999711275100708 0 -0.024029340595006943 
vn 0.999711275100708 0 -0.024029340595006943 
vn 0.999711275100708 0 -0.024029340595006943 
vn 0.999711275100708 0 -0.024029340595006943 
vn 0.999711275100708 0 -0.024029340595006943 
vn 0.999711275100708 0 -0.024029340595006943 
vn 0.999711275100708 0 -0.024029340595006943 
vn 0.999711275100708 0 -0.024029340595006943 
vn 0.8667527437210083 0 -0.4987381398677826 
vn 0.8667527437210083 0 -0.4987381398677826 
vn 0.8667527437210083 0 -0.4987381398677826 
vn 0.8667527437210083 0 -0.4987381398677826 
vn 0.8667527437210083 0 -0.4987381398677826 
vn 0.8667527437210083 0 -0.4987381398677826 
vn 0.8667527437210083 0 -0.4987381398677826 
vn 0.8667527437210083 0 -0.4987381398677826 
vn 0.8667527437210083 0 -0.4987381398677826 
vn 0.8667527437210083 0 -0.4987381398677826 
vn 0.8667527437210083 0 -0.4987381398677826 
vn 0.8667527437210083 0 -0.4987381398677826 
vn 0.8667527437210083 0 -0.4987381398677826 
vn 0.8667527437210083 0 -0.4987381398677826 
vn 0.8667527437210083 0 -0.4987381398677826 
vn 0.8667527437210083 0 -0.4987381398677826 
vn 0.8667527437210083 0 -0.4987381398677826 
vn 0.8667527437210083 0 -0.4987381398677826 
vn 0.8667527437210083 0 -0.4987381398677826 
vn 0.8667527437210083 0 -0.4987381398677826 
vn 0.8667527437210083 0 -0.4987381398677826 
vn 0.8667527437210083 0 -0.4987381398677826 
vn 0.8667527437210083 0 -0.4987381398677826 
vn 0.8667527437210083 0 -0.4987381398677826 
vn 0.8667527437210083 0 -0.4987381398677826 
vn 0.8667527437210083 0 -0.4987381398677826 
vn 0.8667527437210083 0 -0.4987381398677826 
vn 0.8667527437210083 0 -0.4987381398677826 
vn 0.8667527437210083 0 -0.4987381398677826 
vn 0.8667527437210083 0 -0.4987381398677826 
vn 0.8667527437210083 0 -0.4987381398677826 
vn 0.8667527437210083 0 -0.4987381398677826 
vn 0.8667527437210083 0 -0.4987381398677826 
vn 0.8667527437210083 0 -0.4987381398677826 
vn 0.8667527437210083 0 -0.4987381398677826 
vn 0.8667527437210083 0 -0.4987381398677826 
vn 0.8667527437210083 0 -0.4987381398677826 
vn 0.8667527437210083 0 -0.4987381398677826 
vn 0.8667527437210083 0 -0.4987381398677826 
vn 0.8667527437210083 0 -0.4987381398677826 
vn 0.8667527437210083 0 -0.4987381398677826 
vn 0.8667527437210083 0 -0.4987381398677826 
vn 0.999711275100708 0 -0.024029340595006943 
vn 0.999711275100708 0 -0.024029340595006943 
vn 0.999711275100708 0 -0.024029340595006943 
vn 0.999711275100708 0 -0.024029340595006943 
vn 0.999711275100708 0 -0.024029340595006943 
vn 0.999711275100708 0 -0.024029340595006943 
vn 0.999711275100708 0 -0.024029340595006943 
vn 0.999711275100708 0 -0.024029340595006943 
vn 0.999711275100708 0 -0.024029340595006943 
vn 0.999711275100708 0 -0.024029340595006943 
vn 0.999711275100708 0 -0.024029340595006943 
vn 0.999711275100708 0 -0.024029340595006943 
vn 0.999711275100708 0 -0.024029340595006943 
vn 0.999711275100708 0 -0.024029340595006943 
vn 0.999711275100708 0 -0.024029340595006943 
vn 0.999711275100708 0 -0.024029340595006943 
vn 0.999711275100708 0 -0.024029340595006943 
vn 0.999711275100708 0 -0.024029340595006943 
vn 0.999711275100708 0 -0.024029340595006943 
vn 0.999711275100708 0 -0.024029340595006943 
vn 0.999711275100708 0 -0.024029340595006943 
vt 0.5950438380241394 0.659939169883728 
vt 0.5791273713111877 0.6680370569229126 
vt 0.5614237785339355 0.6136417984962463 
vt 0.5614237785339355 0.6708294153213501 
vt 0.5437760353088379 0.6680370569229126 
vt 0.5278595685958862 0.659939169883728 
vt 0.5151821970939636 0.6472618579864502 
vt 0.5070843696594238 0.6313453912734985 
vt 0.5042920112609863 0.6136976480484009 
vt 0.5070843696594238 0.5959940552711487 
vt 0.5151821970939636 0.580077588558197 
vt 0.5278595685958862 0.5674002170562744 
vt 0.5437760353088379 0.5593023896217346 
vt 0.5614237785339355 0.5565099716186523 
vt 0.5791273713111877 0.5593023896217346 
vt 0.5950438380241394 0.5674002170562744 
vt 0.607721209526062 0.580077588558197 
vt 0.6158190369606018 0.5959940552711487 
vt 0.6186113953590393 0.6136417984962463 
vt 0.6158190369606018 0.6313453912734985 
vt 0.607721209526062 0.6472618579864502 
vt 0.5950438380241394 0.659939169883728 
vt 0.5791273713111877 0.6680370569229126 
vt 0.5614237785339355 0.6136417984962463 
vt 0.5614237785339355 0.6708294153213501 
vt 0.5437760353088379 0.6680370569229126 
vt 0.5278595685958862 0.659939169883728 
vt 0.5151821970939636 0.6472618579864502 
vt 0.5070843696594238 0.6313453912734985 
vt 0.5042920112609863 0.6136976480484009 
vt 0.5070843696594238 0.5959940552711487 
vt 0.5151821970939636 0.580077588558197 
vt 0.5278595685958862 0.5674002170562744 
vt 0.5437760353088379 0.5593023896217346 
vt 0.5614237785339355 0.5565099716186523 
vt 0.5791273713111877 0.5593023896217346 
vt 0.5950438380241394 0.5674002170562744 
vt 0.607721209526062 0.580077588558197 
vt 0.6158190369606018 0.5959940552711487 
vt 0.6186113953590393 0.6136417984962463 
vt 0.6158190369606018 0.6313453912734985 
vt 0.607721209526062 0.6472618579864502 
vt 0.5950438380241394 0.659939169883728 
vt 0.5791273713111877 0.6680370569229126 
vt 0.5614237785339355 0.6136417984962463 
vt 0.5614237785339355 0.6708294153213501 
vt 0.5437760353088379 0.6680370569229126 
vt 0.5278595685958862 0.659939169883728 
vt 0.5151821970939636 0.6472618579864502 
vt 0.5070843696594238 0.6313453912734985 
vt 0.5042920112609863 0.6136976480484009 
vt 0.5070843696594238 0.5959940552711487 
vt 0.5151821970939636 0.580077588558197 
vt 0.5278595685958862 0.5674002170562744 
vt 0.5437760353088379 0.5593023896217346 
vt 0.5614237785339355 0.5565099716186523 
vt 0.5791273713111877 0.5593023896217346 
vt 0.5950438380241394 0.5674002170562744 
vt 0.607721209526062 0.580077588558197 
vt 0.6158190369606018 0.5959940552711487 
vt 0.6186113953590393 0.6136417984962463 
vt 0.6158190369606018 0.6313453912734985 
vt 0.607721209526062 0.6472618579864502 
vt 0.5950438380241394 0.659939169883728 
vt 0.5791273713111877 0.6680370569229126 
vt 0.5614237785339355 0.6136417984962463 
vt 0.5614237785339355 0.6708294153213501 
vt 0.5437760353088379 0.6680370569229126 
vt 0.5278595685958862 0.659939169883728 
vt 0.5151821970939636 0.6472618579864502 
vt 0.5070843696594238 0.6313453912734985 
vt 0.5042920112609863 0.6136976480484009 
vt 0.5070843696594238 0.5959940552711487 
vt 0.5151821970939636 0.580077588558197 
vt 0.5278595685958862 0.5674002170562744 
vt 0.5437760353088379 0.5593023896217346 
vt 0.5614237785339355 0.5565099716186523 
vt 0.5791273713111877 0.5593023896217346 
vt 0.5950438380241394 0.5674002170562744 
vt 0.607721209526062 0.580077588558197 
vt 0.6158190369606018 0.5959940552711487 
vt 0.6186113953590393 0.6136417984962463 
vt 0.6158190369606018 0.6313453912734985 
vt 0.607721209526062 0.6472618579864502 
s on 
f 1/1/1 2/2/2 3/3/3 
f 2/2/2 4/4/4 3/3/3 
f 3/3/3 4/4/4 5/5/5 
f 4/4/4 5/5/5 5/5/5 
f 5/5/5 5/5/5 5/5/5 
f 5/5/5 6/6/6 5/5/5 
f 5/5/5 6/6/6 3/3/3 
f 6/6/6 7/7/7 3/3/3 
f 3/3/3 7/7/7 8/8/8 
f 7/7/7 8/8/8 8/8/8 
f 8/8/8 8/8/8 8/8/8 
f 8/8/8 9/9/9 8/8/8 
f 8/8/8 9/9/9 3/3/3 
f 9/9/9 10/10/10 3/3/3 
f 3/3/3 10/10/10 11/11/11 
f 10/10/10 11/11/11 11/11/11 
f 11/11/11 11/11/11 11/11/11 
f 11/11/11 12/12/12 11/11/11 
f 11/11/11 12/12/12 3/3/3 
f 12/12/12 13/13/13 3/3/3 
f 3/3/3 13/13/13 14/14/14 
f 13/13/13 14/14/14 14/14/14 
f 14/14/14 14/14/14 14/14/14 
f 14/14/14 15/15/15 14/14/14 
f 14/14/14 15/15/15 3/3/3 
f 15/15/15 16/16/16 3/3/3 
f 3/3/3 16/16/16 17/17/17 
f 16/16/16 17/17/17 17/17/17 
f 17/17/17 17/17/17 17/17/17 
f 17/17/17 18/18/18 17/17/17 
f 17/17/17 18/18/18 3/3/3 
f 18/18/18 19/19/19 3/3/3 
f 3/3/3 19/19/19 20/20/20 
f 19/19/19 20/20/20 20/20/20 
f 20/20/20 20/20/20 20/20/20 
f 20/20/20 21/21/21 20/20/20 
f 20/20/20 21/21/21 3/3/3 
f 21/21/21 1/1/1 3/3/3 
f 3/3/3 1/1/1 22/22/22 
f 1/1/1 23/23/23 22/22/22 
f 22/22/22 23/23/23 24/24/24 
f 23/23/23 25/25/25 24/24/24 
f 24/24/24 25/25/25 26/26/26 
f 25/25/25 26/26/26 26/26/26 
f 26/26/26 26/26/26 26/26/26 
f 26/26/26 27/27/27 26/26/26 
f 26/26/26 27/27/27 24/24/24 
f 27/27/27 28/28/28 24/24/24 
f 24/24/24 28/28/28 29/29/29 
f 28/28/28 29/29/29 29/29/29 
f 29/29/29 29/29/29 29/29/29 
f 29/29/29 30/30/30 29/29/29 
f 29/29/29 30/30/30 24/24/24 
f 30/30/30 31/31/31 24/24/24 
f 24/24/24 31/31/31 32/32/32 
f 31/31/31 32/32/32 32/32/32 
f 32/32/32 32/32/32 32/32/32 
f 32/32/32 33/33/33 32/32/32 
f 32/32/32 33/33/33 24/24/24 
f 33/33/33 34/34/34 24/24/24 
f 24/24/24 34/34/34 35/35/35 
f 34/34/34 35/35/35 35/35/35 
f 35/35/35 35/35/35 35/35/35 
f 35/35/35 36/36/36 35/35/35 
f 35/35/35 36/36/36 24/24/24 
f 36/36/36 37/37/37 24/24/24 
f 24/24/24 37/37/37 38/38/38 
f 37/37/37 38/38/38 38/38/38 
f 38/38/38 38/38/38 38/38/38 
f 38/38/38 39/39/39 38/38/38 
f 38/38/38 39/39/39 24/24/24 
f 39/39/39 40/40/40 24/24/24 
f 24/24/24 40/40/40 41/41/41 
f 40/40/40 41/41/41 41/41/41 
f 41/41/41 41/41/41 41/41/41 
f 41/41/41 42/42/42 41/41/41 
f 41/41/41 42/42/42 24/24/24 
f 42/42/42 22/22/22 24/24/24 
f 24/24/24 22/22/22 43/43/43 
f 22/22/22 44/44/44 43/43/43 
f 43/43/43 44/44/44 45/45/45 
f 44/44/44 46/46/46 45/45/45 
f 45/45/45 46/46/46 47/47/47 
f 46/46/46 47/47/47 47/47/47 
f 47/47/47 47/47/47 47/47/47 
f 47/47/47 48/48/48 47/47/47 
f 47/47/47 48/48/48 45/45/45 
f 48/48/48 49/49/49 45/45/45 
f 45/45/45 49/49/49 50/50/50 
f 49/49/49 50/50/50 50/50/50 
f 50/50/50 50/50/50 50/50/50 
f 50/50/50 51/51/51 50/50/50 
f 50/50/50 51/51/51 45/45/45 
f 51/51/51 52/52/52 45/45/45 
f 45/45/45 52/52/52 53/53/53 
f 52/52/52 53/53/53 53/53/53 
f 53/53/53 53/53/53 53/53/53 
f 53/53/53 54/54/54 53/53/53 
f 53/53/53 54/54/54 45/45/45 
f 54/54/54 55/55/55 45/45/45 
f 45/45/45 55/55/55 56/56/56 
f 55/55/55 56/56/56 56/56/56 
f 56/56/56 56/56/56 56/56/56 
f 56/56/56 57/57/57 56/56/56 
f 56/56/56 57/57/57 45/45/45 
f 57/57/57 58/58/58 45/45/45 
f 45/45/45 58/58/58 59/59/59 
f 58/58/58 59/59/59 59/59/59 
f 59/59/59 59/59/59 59/59/59 
f 59/59/59 60/60/60 59/59/59 
f 59/59/59 60/60/60 45/45/45 
f 60/60/60 61/61/61 45/45/45 
f 45/45/45 61/61/61 62/62/62 
f 61/61/61 62/62/62 62/62/62 
f 62/62/62 62/62/62 62/62/62 
f 62/62/62 63/63/63 62/62/62 
f 62/62/62 63/63/63 45/45/45 
f 63/63/63 43/43/43 45/45/45 
f 45/45/45 43/43/43 64/64/64 
f 43/43/43 65/65/65 64/64/64 
f 64/64/64 65/65/65 66/66/66 
f 65/65/65 67/67/67 66/66/66 
f 66/66/66 67/67/67 68/68/68 
f 67/67/67 68/68/68 68/68/68 
f 68/68/68 68/68/68 68/68/68 
f 68/68/68 69/69/69 68/68/68 
f 68/68/68 69/69/69 66/66/66 
f 69/69/69 70/70/70 66/66/66 
f 66/66/66 70/70/70 71/71/71 
f 70/70/70 71/71/71 71/71/71 
f 71/71/71 71/71/71 71/71/71 
f 71/71/71 72/72/72 71/71/71 
f 71/71/71 72/72/72 66/66/66 
f 72/72/72 73/73/73 66/66/66 
f 66/66/66 73/73/73 74/74/74 
f 73/73/73 74/74/74 74/74/74 
f 74/74/74 74/74/74 74/74/74 
f 74/74/74 75/75/75 74/74/74 
f 74/74/74 75/75/75 66/66/66 
f 75/75/75 76/76/76 66/66/66 
f 66/66/66 76/76/76 77/77/77 
f 76/76/76 77/77/77 77/77/77 
f 77/77/77 77/77/77 77/77/77 
f 77/77/77 78/78/78 77/77/77 
f 77/77/77 78/78/78 66/66/66 
f 78/78/78 79/79/79 66/66/66 
f 66/66/66 79/79/79 80/80/80 
f 79/79/79 80/80/80 80/80/80 
f 80/80/80 80/80/80 80/80/80 
f 80/80/80 81/81/81 80/80/80 
f 80/80/80 81/81/81 66/66/66 
f 81/81/81 82/82/82 66/66/66 
f 66/66/66 82/82/82 83/83/83 
f 82/82/82 83/83/83 83/83/83 
f 83/83/83 83/83/83 83/83/83 
f 83/83/83 84/84/84 83/83/83 
f 83/83/83 84/84/84 66/66/66 
f 84/84/84 64/64/64 66/66/66 

