mtllib model_7.mtl
o model_7
v -0.5879979729652405 0 -0.05649900063872337 
v -0.5909979939460754 0.02162100002169609 -0.052198998630046844 
v -0.5879979729652405 0.02162100002169609 -0.052198998630046844 
v -0.5909979939460754 0.03995100036263466 -0.03995100036263466 
v -0.5879979729652405 0.03995100036263466 -0.03995100036263466 
v -0.5909979939460754 0.052198998630046844 -0.02162100002169609 
v -0.5879979729652405 0.052198998630046844 -0.02162100002169609 
v -0.5909979939460754 0.05649900063872337 0 
v -0.5879979729652405 0.05649900063872337 0 
v -0.5909979939460754 0.052198998630046844 0.02162100002169609 
v -0.5879979729652405 0.052198998630046844 0.02162100002169609 
v -0.5909979939460754 0.03995100036263466 0.03995100036263466 
v -0.5879979729652405 0.03995100036263466 0.03995100036263466 
v -0.5909979939460754 0.02162100002169609 0.052198998630046844 
v -0.5879979729652405 0.02162100002169609 0.052198998630046844 
v -0.5909979939460754 0 0.05649900063872337 
v -0.5879979729652405 0 0.05649900063872337 
v -0.5909979939460754 -0.02162100002169609 0.052198998630046844 
v -0.5879979729652405 -0.02162100002169609 0.052198998630046844 
v -0.5909979939460754 -0.03995100036263466 0.03995100036263466 
v -0.5879979729652405 -0.03995100036263466 0.03995100036263466 
v -0.5909979939460754 -0.052198998630046844 0.02162100002169609 
v -0.5879979729652405 -0.052198998630046844 0.02162100002169609 
v -0.5909979939460754 -0.05649900063872337 0 
v -0.5879979729652405 -0.05649900063872337 0 
v -0.5909979939460754 0 -0.05649900063872337 
v -0.5189980268478394 -0.04800000041723251 0 
v -0.5189980268478394 -0.044346000999212265 0.01836800016462803 
v -0.5669980049133301 -0.04800000041723251 0 
v -0.5669980049133301 -0.044346000999212265 0.01836800016462803 
v -0.5189980268478394 -0.03394100069999695 0.03394100069999695 
v -0.5669980049133301 -0.03394100069999695 0.03394100069999695 
v -0.5189980268478394 -0.01836800016462803 0.044346000999212265 
v -0.5669980049133301 -0.01836800016462803 0.044346000999212265 
v -0.5189980268478394 0 0.04800000041723251 
v -0.5669980049133301 0 0.04800000041723251 
v -0.5189980268478394 0.01836800016462803 0.044346000999212265 
v -0.5669980049133301 0.01836800016462803 0.044346000999212265 
v -0.5189980268478394 0.03394100069999695 0.03394100069999695 
v -0.5669980049133301 0.03394100069999695 0.03394100069999695 
v -0.5189980268478394 0.044346000999212265 0.01836800016462803 
v -0.5669980049133301 0.044346000999212265 0.01836800016462803 
v -0.5189980268478394 0.04800000041723251 0 
v -0.5669980049133301 0.04800000041723251 0 
v -0.5189980268478394 0.044346000999212265 -0.01836800016462803 
v -0.5669980049133301 0.044346000999212265 -0.01836800016462803 
v -0.5189980268478394 0.03394100069999695 -0.03394100069999695 
v -0.5669980049133301 0.03394100069999695 -0.03394100069999695 
v -0.5189980268478394 0.01836800016462803 -0.044346000999212265 
v -0.5669980049133301 0.01836800016462803 -0.044346000999212265 
v -0.5189980268478394 0 -0.04800000041723251 
v -0.5669980049133301 0 -0.04800000041723251 
v -0.5669980049133301 0 -0.04800000041723251 
v -0.5669980049133301 0.01836800016462803 -0.044346000999212265 
v -0.5669980049133301 0 -0.04968399927020073 
v -0.5669980049133301 0.019013000652194023 -0.04590199887752533 
v -0.5669980049133301 0.03394100069999695 -0.03394100069999695 
v -0.5669980049133301 0.03513199836015701 -0.03513199836015701 
v -0.5669980049133301 0.044346000999212265 -0.01836800016462803 
v -0.5669980049133301 0.04590199887752533 -0.019013000652194023 
v -0.5669980049133301 0.04800000041723251 0 
v -0.5669980049133301 0.04968399927020073 0 
v -0.5669980049133301 0.044346000999212265 0.01836800016462803 
v -0.5669980049133301 0.04590199887752533 0.019013000652194023 
v -0.5669980049133301 0.03394100069999695 0.03394100069999695 
v -0.5669980049133301 0.03513199836015701 0.03513199836015701 
v -0.5669980049133301 0.01836800016462803 0.044346000999212265 
v -0.5669980049133301 0.019013000652194023 0.04590199887752533 
v -0.5669980049133301 0 0.04800000041723251 
v -0.5669980049133301 0 0.04968399927020073 
v -0.5669980049133301 -0.01836800016462803 0.044346000999212265 
v -0.5669980049133301 -0.019013000652194023 0.04590199887752533 
v -0.5669980049133301 -0.03394100069999695 0.03394100069999695 
v -0.5669980049133301 -0.03513199836015701 0.03513199836015701 
v -0.5669980049133301 -0.044346000999212265 0.01836800016462803 
v -0.5669980049133301 -0.04590199887752533 0.019013000652194023 
v -0.5669980049133301 -0.04800000041723251 0 
v -0.5669980049133301 -0.04968399927020073 0 
vn -2.0682311115474694e-13 0 -1 
vn 0.0037855375558137894 0.3831692636013031 -0.9236704111099243 
vn 0.0037855375558137894 0.3831692636013031 -0.9236704111099243 
vn 0.0018878303235396743 0.7078762650489807 -0.7063339352607727 
vn 0.0018878303235396743 0.7078762650489807 -0.7063339352607727 
vn 0.0018884376622736454 0.9245033860206604 -0.3811691105365753 
vn 0.0018884376622736454 0.9245033860206604 -0.3811691105365753 
vn -1.0341130485562108e-13 0.999997615814209 0.002184694167226553 
vn -1.0341130485562108e-13 0.999997615814209 0.002184694167226553 
vn 0.0037719623651355505 0.9244976043701172 0.3811691105365753 
vn 0.0037719623651355505 0.9244976043701172 0.3811691105365753 
vn 0.00376924779266119 0.707868754863739 0.7063339352607727 
vn 0.00376924779266119 0.707868754863739 0.7063339352607727 
vn -3.962606474504013e-14 0.3831879794597626 0.9236704111099243 
vn -3.962606474504013e-14 0.3831879794597626 0.9236704111099243 
vn 0 0 1 
vn 0 0 1 
vn 1.187080219278852e-13 -0.3831879794597626 0.9236704111099243 
vn 1.187080219278852e-13 -0.3831879794597626 0.9236704111099243 
vn 0.00376924779266119 -0.707868754863739 0.7063339352607727 
vn 0.00376924779266119 -0.707868754863739 0.7063339352607727 
vn 0.0037719623651355505 -0.9244976043701172 0.3811691105365753 
vn 0.0037719623651355505 -0.9244976043701172 0.3811691105365753 
vn 3.097898456858039e-13 -0.999997615814209 0.002184694167226553 
vn 3.097898456858039e-13 -0.999997615814209 0.002184694167226553 
vn -2.0682311115474694e-13 0 -1 
vn 3.097898456858039e-13 -0.999997615814209 0.002184694167226553 
vn 0.0037719623651355505 -0.9244976043701172 0.3811691105365753 
vn 3.097898456858039e-13 -0.999997615814209 0.002184694167226553 
vn 0.0037719623651355505 -0.9244976043701172 0.3811691105365753 
vn 0.00376924779266119 -0.707868754863739 0.7063339352607727 
vn 0.00376924779266119 -0.707868754863739 0.7063339352607727 
vn 1.187080219278852e-13 -0.3831879794597626 0.9236704111099243 
vn 1.187080219278852e-13 -0.3831879794597626 0.9236704111099243 
vn 0 0 1 
vn 0 0 1 
vn -3.962606474504013e-14 0.3831879794597626 0.9236704111099243 
vn -3.962606474504013e-14 0.3831879794597626 0.9236704111099243 
vn 0.00376924779266119 0.707868754863739 0.7063339352607727 
vn 0.00376924779266119 0.707868754863739 0.7063339352607727 
vn 0.0037719623651355505 0.9244976043701172 0.3811691105365753 
vn 0.0037719623651355505 0.9244976043701172 0.3811691105365753 
vn -1.0341130485562108e-13 0.999997615814209 0.002184694167226553 
vn -1.0341130485562108e-13 0.999997615814209 0.002184694167226553 
vn 0.0018884376622736454 0.9245033860206604 -0.3811691105365753 
vn 0.0018884376622736454 0.9245033860206604 -0.3811691105365753 
vn 0.0018878303235396743 0.7078762650489807 -0.7063339352607727 
vn 0.0018878303235396743 0.7078762650489807 -0.7063339352607727 
vn 0.0037855375558137894 0.3831692636013031 -0.9236704111099243 
vn 0.0037855375558137894 0.3831692636013031 -0.9236704111099243 
vn -2.0682311115474694e-13 0 -1 
vn -2.0682311115474694e-13 0 -1 
vn 0.999997615814209 0 0.002184694167226553 
vn 0.999997615814209 0 0.002184694167226553 
vn 0.999997615814209 0 0.002184694167226553 
vn 0.999997615814209 0 0.002184694167226553 
vn 0.999997615814209 0 0.002184694167226553 
vn 0.999997615814209 0 0.002184694167226553 
vn 0.999997615814209 0 0.002184694167226553 
vn 0.999997615814209 0 0.002184694167226553 
vn 0.999997615814209 0 0.002184694167226553 
vn 0.999997615814209 0 0.002184694167226553 
vn 0.999997615814209 0 0.002184694167226553 
vn 0.999997615814209 0 0.002184694167226553 
vn 0.999997615814209 0 0.002184694167226553 
vn 0.999997615814209 0 0.002184694167226553 
vn 0.999997615814209 0 0.002184694167226553 
vn 0.999997615814209 0 0.002184694167226553 
vn 0.999997615814209 0 0.002184694167226553 
vn 0.999997615814209 0 0.002184694167226553 
vn 0.999997615814209 0 0.002184694167226553 
vn 0.999997615814209 0 0.002184694167226553 
vn 0.999997615814209 0 0.002184694167226553 
vn 0.999997615814209 0 0.002184694167226553 
vn 0.999997615814209 0 0.002184694167226553 
vn 0.999997615814209 0 0.002184694167226553 
vn 0.999997615814209 0 0.002184694167226553 
vn 0.999997615814209 0 0.002184694167226553 
s on 
f 1//1 2//2 3//3 
f 2//2 4//4 3//3 
f 3//3 4//4 5//5 
f 4//4 6//6 5//5 
f 5//5 6//6 7//7 
f 6//6 8//8 7//7 
f 7//7 8//8 9//9 
f 8//8 10//10 9//9 
f 9//9 10//10 11//11 
f 10//10 12//12 11//11 
f 11//11 12//12 13//13 
f 12//12 14//14 13//13 
f 13//13 14//14 15//15 
f 14//14 16//16 15//15 
f 15//15 16//16 17//17 
f 16//16 18//18 17//17 
f 17//17 18//18 19//19 
f 18//18 20//20 19//19 
f 19//19 20//20 21//21 
f 20//20 22//22 21//21 
f 21//21 22//22 23//23 
f 22//22 24//24 23//23 
f 23//23 24//24 25//25 
f 24//24 25//25 25//25 
f 25//25 25//25 1//1 
f 25//25 1//1 1//1 
f 1//1 1//1 2//2 
f 1//1 26//26 2//2 
f 2//2 26//26 26//26 
f 26//26 27//27 26//26 
f 26//26 27//27 27//27 
f 27//27 28//28 27//27 
f 27//27 28//28 29//29 
f 28//28 28//28 29//29 
f 29//29 28//28 30//30 
f 28//28 31//31 30//30 
f 30//30 31//31 32//32 
f 31//31 33//33 32//32 
f 32//32 33//33 34//34 
f 33//33 35//35 34//34 
f 34//34 35//35 36//36 
f 35//35 37//37 36//36 
f 36//36 37//37 38//38 
f 37//37 39//39 38//38 
f 38//38 39//39 40//40 
f 39//39 41//41 40//40 
f 40//40 41//41 42//42 
f 41//41 43//43 42//42 
f 42//42 43//43 44//44 
f 43//43 45//45 44//44 
f 44//44 45//45 46//46 
f 45//45 47//47 46//46 
f 46//46 47//47 48//48 
f 47//47 49//49 48//48 
f 48//48 49//49 50//50 
f 49//49 51//51 50//50 
f 50//50 51//51 52//52 
f 51//51 52//52 52//52 
f 52//52 52//52 53//53 
f 52//52 53//53 53//53 
f 53//53 53//53 54//54 
f 53//53 55//55 54//54 
f 54//54 55//55 54//54 
f 55//55 56//56 54//54 
f 54//54 56//56 57//57 
f 56//56 58//58 57//57 
f 57//57 58//58 59//59 
f 58//58 60//60 59//59 
f 59//59 60//60 61//61 
f 60//60 62//62 61//61 
f 61//61 62//62 63//63 
f 62//62 64//64 63//63 
f 63//63 64//64 65//65 
f 64//64 66//66 65//65 
f 65//65 66//66 67//67 
f 66//66 68//68 67//67 
f 67//67 68//68 69//69 
f 68//68 70//70 69//69 
f 69//69 70//70 71//71 
f 70//70 72//72 71//71 
f 71//71 72//72 73//73 
f 72//72 74//74 73//73 
f 73//73 74//74 75//75 
f 74//74 76//76 75//75 
f 75//75 76//76 77//77 
f 76//76 78//78 77//77 

