mtllib model_3.mtl
o model_3
v -0.395999014377594 -0.09079691022634506 -0.0000016998400269585545 
v -0.395999014377594 -0.09111771732568741 0.001609021215699613 
v -0.395999014377594 -0.08799652755260468 -0.0000016998400269585545 
v -0.395999014377594 -0.08131971955299377 0.03358951956033707 
v -0.395999014377594 -0.09202667325735092 0.002972453134134412 
v -0.395999014377594 -0.09339010715484619 0.0038814079016447067 
v -0.395999014377594 -0.09500082582235336 0.00420221546664834 
v -0.395999014377594 -0.1028205081820488 0.03358951956033707 
v -0.395999014377594 -0.0966048613190651 0.0038814079016447067 
v -0.395999014377594 -0.09796829521656036 0.002972453134134412 
v -0.395999014377594 -0.1094973161816597 -0.0000016998400269585545 
v -0.395999014377594 -0.09887725114822388 0.001609021215699613 
v -0.395999014377594 -0.09919805824756622 -0.0000016998400269585545 
v -0.395999014377594 -0.08129967004060745 0.033676404505968094 
v -0.395999014377594 -0.06630191951990128 0.06306371092796326 
v -0.395999014377594 -0.06804630905389786 0.06306371092796326 
v -0.395999014377594 -0.06964366883039474 0.0637788474559784 
v -0.395999014377594 -0.10116300731897354 0.0419037826359272 
v -0.395999014377594 -0.07081327587366104 0.06507544219493866 
v -0.395999014377594 -0.07135464251041412 0.06673963367938995 
v -0.395999014377594 -0.07137469202280045 0.06717405468225479 
v -0.395999014377594 -0.07742992788553238 0.07742653042078018 
v -0.395999014377594 -0.07116749882698059 0.06847065687179565 
v -0.395999014377594 -0.07029864937067032 0.06998781114816666 
v -0.395999014377594 -0.06888175010681152 0.07101038098335266 
v -0.395999014377594 -0.06717745959758759 0.07137797027826309 
v -0.395999014377594 -0.04190049692988396 0.10116628557443619 
v -0.395999014377594 -0.0654664859175682 0.07101038098335266 
v -0.395999014377594 -0.06404958665370941 0.06998781114816666 
v -0.395999014377594 -0.004178881179541349 0.09456299990415573 
v -0.395999014377594 -0.004198931623250246 0.09499742835760117 
v -0.395999014377594 -0.003991743549704552 0.09630070626735687 
v -0.395999014377594 -0.00312288966961205 0.09781117737293243 
v -0.395999014377594 -0.0000016998400269585545 0.10950060188770294 
v -0.395999014377594 -0.0017059898236766458 0.09883374720811844 
v -0.395999014377594 -0.0000016998400269585545 0.09920134395360947 
v -0.395999014377594 0.001709273550659418 0.09883374720811844 
v -0.395999014377594 0.03358951956033707 0.1028171107172966 
v -0.395999014377594 0.0031194898765534163 0.09781117737293243 
v -0.395999014377594 0.003995027393102646 0.09630070626735687 
v -0.395999014377594 0.004175481386482716 0.09456299990415573 
v -0.395999014377594 0.03358951956033707 0.08131632208824158 
v -0.395999014377594 0.0036341187078505754 0.09289880841970444 
v -0.395999014377594 0.0024711915757507086 0.09160221368074417 
v -0.395999014377594 -0.0000016998400269585545 0.08799981325864792 
v -0.395999014377594 0.0008738373289816082 0.09089376777410507 
v -0.395999014377594 -0.0008705535437911749 0.09089376777410507 
v -0.395999014377594 -0.0024679077323526144 0.09160221368074417 
v -0.395999014377594 -0.03367312252521515 0.0813029557466507 
v -0.395999014377594 -0.0036375185009092093 0.09289880841970444 
v -0.395999014377594 -0.062224991619586945 0.06222827732563019 
v -0.395999014377594 -0.06470456719398499 0.0637788474559784 
v -0.395999014377594 -0.06353495270013809 0.06507544219493866 
v -0.395999014377594 -0.06300027668476105 0.06673963367938995 
v -0.395999014377594 -0.06318072974681854 0.06847065687179565 
v -0.395999014377594 0.033676404505968094 0.0813029557466507 
v -0.395999014377594 0.06297682970762253 0.06717405468225479 
v -0.395999014377594 0.06317733228206635 0.06847065687179565 
v -0.395999014377594 0.06299687922000885 0.06673963367938995 
v -0.395999014377594 0.06353823840618134 0.06507544219493866 
v -0.395999014377594 0.06222827732563019 0.06222827732563019 
v -0.395999014377594 0.06470785290002823 0.0637788474559784 
v -0.395999014377594 0.06629852205514908 0.06306371092796326 
v -0.395999014377594 0.0813029557466507 0.033676404505968094 
v -0.395999014377594 0.0680495947599411 0.06306371092796326 
v -0.395999014377594 0.06964026391506195 0.0637788474559784 
v -0.395999014377594 0.1028171107172966 0.03358951956033707 
v -0.395999014377594 0.10116628557443619 0.0419037826359272 
v -0.395999014377594 0.07080987840890884 0.06507544219493866 
v -0.395999014377594 0.07135123759508133 0.06673963367938995 
v -0.395999014377594 0.07117078453302383 0.06847065687179565 
v -0.395999014377594 0.07742653042078018 0.07742653042078018 
v -0.395999014377594 0.07029524445533752 0.06998781114816666 
v -0.395999014377594 0.06888502836227417 0.07101038098335266 
v -0.395999014377594 0.06717405468225479 0.07137797027826309 
v -0.395999014377594 0.0419037826359272 0.10116628557443619 
v -0.395999014377594 0.06546977162361145 0.07101038098335266 
v -0.395999014377594 0.06405286490917206 0.06998781114816666 
v -0.395999014377594 0.08131632208824158 0.03358951956033707 
v -0.395999014377594 0.09499742835760117 0.00420221546664834 
v -0.395999014377594 0.09329313784837723 0.0038346233777701855 
v -0.395999014377594 0.09187623858451843 0.002812049351632595 
v -0.395999014377594 0.09100738167762756 0.0012948971707373857 
v -0.395999014377594 0.08799981325864792 -0.0000016998400269585545 
v -0.395999014377594 0.09670840203762054 0.0038346233777701855 
v -0.395999014377594 0.0981186181306839 0.002812049351632595 
v -0.395999014377594 0.10950060188770294 -0.0000016998400269585545 
v -0.395999014377594 0.09899415075778961 0.0012948971707373857 
v -0.395999014377594 0.0991746112704277 -0.00043612669105641544 
v -0.395999014377594 0.09863992780447006 -0.0021003156434744596 
v -0.395999014377594 0.10116628557443619 -0.04190049692988396 
v -0.395999014377594 0.09747032076120377 -0.0033969127107411623 
v -0.395999014377594 0.09587296098470688 -0.0041053625755012035 
v -0.395999014377594 0.0941285714507103 -0.0041053625755012035 
v -0.395999014377594 0.07029524445533752 -0.06436371058225632 
v -0.395999014377594 0.07117078453302383 -0.06587417423725128 
v -0.395999014377594 0.07135123759508133 -0.06761188805103302 
v -0.395999014377594 0.07742653042078018 -0.07742992788553238 
v -0.395999014377594 0.07080987840890884 -0.06927607208490372 
v -0.395999014377594 0.06964026391506195 -0.07057267427444458 
v -0.395999014377594 0.0680495947599411 -0.07128112018108368 
v -0.395999014377594 0.0419037826359272 -0.10116300731897354 
v -0.395999014377594 0.06629852205514908 -0.07128112018108368 
v -0.395999014377594 0.06470785290002823 -0.07057267427444458 
v -0.395999014377594 0.06353823840618134 -0.06927607208490372 
v -0.395999014377594 0.033676404505968094 -0.08129967004060745 
v -0.395999014377594 0.06299687922000885 -0.06761188805103302 
v -0.395999014377594 0.06297682970762253 -0.06717745959758759 
v -0.395999014377594 0.06317733228206635 -0.06587417423725128 
v -0.395999014377594 0.06222827732563019 -0.062224991619586945 
v -0.395999014377594 0.06405286490917206 -0.06436371058225632 
v -0.395999014377594 0.06546977162361145 -0.06333445012569427 
v -0.395999014377594 0.0813029557466507 -0.03367312252521515 
v -0.395999014377594 0.06717405468225479 -0.06297354400157928 
v -0.395999014377594 0.06888502836227417 -0.06333445012569427 
v -0.395999014377594 0.092531219124794 -0.0033969127107411623 
v -0.395999014377594 0.09136161208152771 -0.0021003156434744596 
v -0.395999014377594 0.09082024544477463 -0.00043612669105641544 
v -0.395999014377594 0.0908001959323883 -0.0000016998400269585545 
v -0.395999014377594 0.03358951956033707 -0.08131971955299377 
v -0.395999014377594 0.03358951956033707 -0.1028205081820488 
v -0.395999014377594 0.00420221546664834 -0.09500082582235336 
v -0.395999014377594 0.0038814079016447067 -0.0966048613190651 
v -0.395999014377594 0.002972453134134412 -0.09796829521656036 
v -0.395999014377594 -0.0000016998400269585545 -0.1094973161816597 
v -0.395999014377594 0.001609021215699613 -0.09887725114822388 
v -0.395999014377594 -0.0000016998400269585545 -0.09919805824756622 
v -0.395999014377594 0.0038814079016447067 -0.09339010715484619 
v -0.395999014377594 0.002972453134134412 -0.09202667325735092 
v -0.395999014377594 0.001609021215699613 -0.09111771732568741 
v -0.395999014377594 -0.0000016998400269585545 -0.08799652755260468 
v -0.395999014377594 -0.0000016998400269585545 -0.09079691022634506 
v -0.3510000705718994 -0.002053531352430582 0.05372019112110138 
v -0.3510000705718994 -0.040543749928474426 0.04251198098063469 
v -0.3510000705718994 -0.0009440719150006771 0.05308526009321213 
v -0.3510000705718994 -0.03927388787269592 0.0426456481218338 
v -0.3510000705718994 0.0003191076684743166 0.052951592952013016 
v -0.3510000705718994 -0.038064174354076385 0.04225132241845131 
v -0.3510000705718994 -0.03711511939764023 0.04140252247452736 
v -0.3510000705718994 -0.036600492894649506 0.040232911705970764 
v -0.3510000705718994 0.0015355028444901109 0.05334591865539551 
v -0.3510000705718994 -0.03652697429060936 0.039597976952791214 
v -0.3510000705718994 -0.018561750650405884 0.044811099767684937 
v -0.3510000705718994 -0.036600492894649506 0.03896304592490196 
v -0.3510000705718994 -0.03429468721151352 0.034291286021471024 
v -0.3510000705718994 -0.03711511939764023 0.03779343515634537 
v -0.3510000705718994 -0.038064174354076385 0.03694463148713112 
v -0.3510000705718994 -0.043979063630104065 0.019801480695605278 
v -0.3510000705718994 -0.03927388787269592 0.03655030578374863 
v -0.3510000705718994 -0.040543749928474426 0.03668397665023804 
v -0.3510000705718994 -0.06106206402182579 0.019801480695605278 
v -0.3510000705718994 -0.041646525263786316 0.03731890767812729 
v -0.3510000705718994 -0.06005285680294037 0.02487424947321415 
v -0.3510000705718994 -0.0424017608165741 0.03834816440939903 
v -0.3510000705718994 -0.04266241565346718 0.039597976952791214 
v -0.3510000705718994 -0.045957375317811966 0.04596066102385521 
v -0.3510000705718994 -0.0424017608165741 0.040847789496183395 
v -0.3510000705718994 -0.041646525263786316 0.04187704995274544 
v -0.3510000705718994 -0.024870965629816055 0.06004945933818817 
v -0.3510000705718994 -0.0028020821046084166 0.05474945157766342 
v -0.3510000705718994 -0.00306273833848536 0.0559992641210556 
v -0.3510000705718994 -0.0028020821046084166 0.057249076664447784 
v -0.3510000705718994 -0.002053531352430582 0.05827833339571953 
v -0.3510000705718994 -0.0000016998400269585545 0.06500192731618881 
v -0.3510000705718994 -0.0009440719150006771 0.05891326442360878 
v -0.3510000705718994 0.0003191076684743166 0.05905361846089363 
v -0.3510000705718994 0.0015355028444901109 0.05865929275751114 
v -0.3510000705718994 0.019801480695605278 0.06105866655707359 
v -0.3510000705718994 0.0024845583830028772 0.05780380591750145 
v -0.3510000705718994 0.0029991872143000364 0.056634195148944855 
v -0.3510000705718994 0.0030660221818834543 0.0559992641210556 
v -0.3510000705718994 0.0029991872143000364 0.05536433309316635 
v -0.3510000705718994 0.0024845583830028772 0.054194722324609756 
v -0.3510000705718994 0.018558351323008537 0.044811099767684937 
v -0.3510000705718994 -0.0000016998400269585545 0.048500388860702515 
v -0.3510000705718994 -0.04480781778693199 0.018558351323008537 
v -0.3510000705718994 0.019801480695605278 0.04398234933614731 
v -0.3510000705718994 0.03679759427905083 0.040847789496183395 
v -0.3510000705718994 0.03754614666104317 0.04187704995274544 
v -0.3510000705718994 0.036530256271362305 0.039597976952791214 
v -0.3510000705718994 0.03679759427905083 0.03834816440939903 
v -0.3510000705718994 0.034291286021471024 0.034291286021471024 
v -0.3510000705718994 0.03754614666104317 0.03731890767812729 
v -0.3510000705718994 0.03864892199635506 0.03668397665023804 
v -0.3510000705718994 0.04398234933614731 0.019801480695605278 
v -0.3510000705718994 0.03991878777742386 0.03655030578374863 
v -0.3510000705718994 0.0411284975707531 0.03694463148713112 
v -0.3510000705718994 0.06105866655707359 0.019801480695605278 
v -0.3510000705718994 0.06004945933818817 0.02487424947321415 
v -0.3510000705718994 0.042077552527189255 0.03779343515634537 
v -0.3510000705718994 0.04259886592626572 0.03896304592490196 
v -0.3510000705718994 0.04266570135951042 0.039597976952791214 
v -0.3510000705718994 0.04259886592626572 0.040232911705970764 
v -0.3510000705718994 0.04596066102385521 0.04596066102385521 
v -0.3510000705718994 0.042077552527189255 0.04140252247452736 
v -0.3510000705718994 0.0411284975707531 0.04225132241845131 
v -0.3510000705718994 0.03991878777742386 0.0426456481218338 
v -0.3510000705718994 0.02487424947321415 0.06004945933818817 
v -0.3510000705718994 0.03864892199635506 0.04251198098063469 
v -0.3510000705718994 0.044811099767684937 0.018558351323008537 
v -0.3510000705718994 0.05505020543932915 0.0029189852066338062 
v -0.3510000705718994 0.05632007122039795 0.003052655141800642 
v -0.3510000705718994 0.05753646418452263 0.0026583292055875063 
v -0.3510000705718994 0.058478835970163345 0.0018028424819931388 
v -0.3510000705718994 0.05394743010401726 0.002277370309457183 
v -0.3510000705718994 0.053198881447315216 0.0012481127632781863 
v -0.3510000705718994 0.048500388860702515 -0.0000016998400269585545 
v -0.3510000705718994 0.052931539714336395 -0.0000016998400269585545 
v -0.3510000705718994 0.053198881447315216 -0.001244829036295414 
v -0.3510000705718994 0.044811099767684937 -0.018561750650405884 
v -0.3510000705718994 0.05394743010401726 -0.002280769869685173 
v -0.3510000705718994 0.03679759427905083 -0.03835156559944153 
v -0.3510000705718994 0.05505020543932915 -0.0029157015960663557 
v -0.3510000705718994 0.05632007122039795 -0.003049371298402548 
v -0.3510000705718994 0.05753646418452263 -0.002655045362189412 
v -0.3510000705718994 0.03754614666104317 -0.037315625697374344 
v -0.3510000705718994 0.03864892199635506 -0.03668069466948509 
v -0.3510000705718994 0.03991878777742386 -0.03654702380299568 
v -0.3510000705718994 0.0411284975707531 -0.036941349506378174 
v -0.3510000705718994 0.06500192731618881 -0.0000016998400269585545 
v -0.3510000705718994 0.058478835970163345 -0.0017995586385950446 
v -0.3510000705718994 0.05900014936923981 -0.0006366313900798559 
v -0.3510000705718994 0.05906698480248451 -0.0000016998400269585545 
v -0.3510000705718994 0.05900014936923981 0.0006399151752702892 
v -0.3510000705718994 0.034291286021471024 -0.03429468721151352 
v -0.3510000705718994 0.06004945933818817 -0.024870965629816055 
v -0.3510000705718994 0.042077552527189255 -0.03779683634638786 
v -0.3510000705718994 0.04259886592626572 -0.03895976394414902 
v -0.3510000705718994 0.04266570135951042 -0.03959469497203827 
v -0.3510000705718994 0.04259886592626572 -0.04023630917072296 
v -0.3510000705718994 0.04596066102385521 -0.045957375317811966 
v -0.3510000705718994 0.042077552527189255 -0.041399236768484116 
v -0.3510000705718994 0.0411284975707531 -0.042254723608493805 
v -0.3510000705718994 0.03991878777742386 -0.0426490493118763 
v -0.3510000705718994 0.02487424947321415 -0.06005285680294037 
v -0.3510000705718994 0.03864892199635506 -0.04251537844538689 
v -0.3510000705718994 0.03754614666104317 -0.041873764246702194 
v -0.3510000705718994 0.019801480695605278 -0.06106206402182579 
v -0.3510000705718994 0.03679759427905083 -0.04084450751543045 
v -0.3510000705718994 0.019801480695605278 -0.043979063630104065 
v -0.3510000705718994 0.036530256271362305 -0.03959469497203827 
v -0.3510000705718994 0.018558351323008537 -0.04480781778693199 
v -0.3510000705718994 0.0030660221818834543 -0.0560026615858078 
v -0.3510000705718994 0.0028321000281721354 -0.054826367646455765 
v -0.3510000705718994 0.0021704344544559717 -0.053830526769161224 
v -0.3510000705718994 0.001174594392068684 -0.05316886305809021 
v -0.3510000705718994 -0.0000016998400269585545 -0.04849710315465927 
v -0.3510000705718994 -0.0000016998400269585545 -0.05293494090437889 
v -0.3510000705718994 0.0028321000281721354 -0.057172272354364395 
v -0.3510000705718994 0.0021704344544559717 -0.058168113231658936 
v -0.3510000705718994 -0.0000016998400269585545 -0.06499864161014557 
v -0.3510000705718994 0.001174594392068684 -0.05882978066802025 
v -0.3510000705718994 -0.0000016998400269585545 -0.05906370282173157 
v -0.3510000705718994 -0.05293494090437889 -0.0000016998400269585545 
v -0.3510000705718994 -0.05316886305809021 0.001174594392068684 
v -0.3510000705718994 -0.04849710315465927 -0.0000016998400269585545 
v -0.3510000705718994 -0.053830526769161224 0.0021704344544559717 
v -0.3510000705718994 -0.054826367646455765 0.0028321000281721354 
v -0.3510000705718994 -0.0560026615858078 0.0030660221818834543 
v -0.3510000705718994 -0.057172272354364395 0.0028321000281721354 
v -0.3510000705718994 -0.058168113231658936 0.0021704344544559717 
v -0.3510000705718994 -0.06499864161014557 -0.0000016998400269585545 
v -0.3510000705718994 -0.05882978066802025 0.001174594392068684 
v -0.3510000705718994 -0.05906370282173157 -0.0000016998400269585545 
v -0.3859615623950958 -0.09079691022634506 -0.0000016998400269585545 
v -0.3859615623950958 -0.08500232547521591 -0.0000016998400269585545 
v -0.3859615623950958 -0.09111771732568741 0.001609021215699613 
v -0.3859615623950958 -0.08575756102800369 0.003827939974144101 
v -0.3859615623950958 -0.09202667325735092 0.002972453134134412 
v -0.3859615623950958 -0.08792969584465027 0.007069432642310858 
v -0.3859615623950958 -0.09339010715484619 0.0038814079016447067 
v -0.3859615623950958 -0.09117119014263153 0.009241566993296146 
v -0.3859615623950958 -0.09500082582235336 0.00420221546664834 
v -0.3859615623950958 -0.09500082582235336 0.009996801614761353 
v -0.3859615623950958 -0.09882378578186035 0.009241566993296146 
v -0.3859615623950958 -0.0966048613190651 0.0038814079016447067 
v -0.3859615623950958 -0.10207195580005646 0.007069432642310858 
v -0.3859615623950958 -0.09796829521656036 0.002972453134134412 
v -0.3859615623950958 -0.10423740744590759 0.003827939974144101 
v -0.3859615623950958 -0.09887725114822388 0.001609021215699613 
v -0.3859615623950958 -0.10499932616949081 -0.0000016998400269585545 
v -0.3859615623950958 -0.09919805824756622 -0.0000016998400269585545 
v -0.3859615623950958 -0.0000016998400269585545 -0.09079691022634506 
v -0.3859615623950958 -0.0000016998400269585545 -0.08500232547521591 
v -0.3859615623950958 0.001609021215699613 -0.09111771732568741 
v -0.3859615623950958 0.003827939974144101 -0.08575756102800369 
v -0.3859615623950958 0.002972453134134412 -0.09202667325735092 
v -0.3859615623950958 0.007069432642310858 -0.08792969584465027 
v -0.3859615623950958 0.0038814079016447067 -0.09339010715484619 
v -0.3859615623950958 0.009241566993296146 -0.09117119014263153 
v -0.3859615623950958 0.00420221546664834 -0.09500082582235336 
v -0.3859615623950958 0.009996801614761353 -0.09500082582235336 
v -0.3859615623950958 0.0038814079016447067 -0.0966048613190651 
v -0.3859615623950958 0.009241566993296146 -0.09882378578186035 
v -0.3859615623950958 0.007069432642310858 -0.10207195580005646 
v -0.3859615623950958 0.002972453134134412 -0.09796829521656036 
v -0.3859615623950958 0.003827939974144101 -0.10423740744590759 
v -0.3859615623950958 0.001609021215699613 -0.09887725114822388 
v -0.3859615623950958 -0.0000016998400269585545 -0.10499932616949081 
v -0.3859615623950958 -0.0000016998400269585545 -0.09919805824756622 
v -0.3859615623950958 0.05974201858043671 -0.06048060208559036 
v -0.3859615623950958 0.0576634518802166 -0.06408300250768661 
v -0.3859615623950958 0.06405286490917206 -0.06436371058225632 
v -0.3859615623950958 0.06317733228206635 -0.06587417423725128 
v -0.3859615623950958 0.06311049312353134 -0.058041125535964966 
v -0.3859615623950958 0.06546977162361145 -0.06333445012569427 
v -0.3859615623950958 0.06717405468225479 -0.057172272354364395 
v -0.3859615623950958 0.06717405468225479 -0.06297354400157928 
v -0.3859615623950958 0.06888502836227417 -0.06333445012569427 
v -0.3859615623950958 0.07124430686235428 -0.058041125535964966 
v -0.3859615623950958 0.07460609823465347 -0.06048060208559036 
v -0.3859615623950958 0.07029524445533752 -0.06436371058225632 
v -0.3859615623950958 0.07668466120958328 -0.06408300250768661 
v -0.3859615623950958 0.07117078453302383 -0.06587417423725128 
v -0.3859615623950958 0.07711908966302872 -0.06822007894515991 
v -0.3859615623950958 0.07135123759508133 -0.06761188805103302 
v -0.3859615623950958 0.07080987840890884 -0.06927607208490372 
v -0.3859615623950958 0.07583586126565933 -0.07217670977115631 
v -0.3859615623950958 0.06964026391506195 -0.07057267427444458 
v -0.3859615623950958 0.07305552810430527 -0.07526448369026184 
v -0.3859615623950958 0.0680495947599411 -0.07128112018108368 
v -0.3859615623950958 0.0692526251077652 -0.0769554004073143 
v -0.3859615623950958 0.06629852205514908 -0.07128112018108368 
v -0.3859615623950958 0.06509549170732498 -0.0769554004073143 
v -0.3859615623950958 0.06470785290002823 -0.07057267427444458 
v -0.3859615623950958 0.06129927188158035 -0.07526448369026184 
v -0.3859615623950958 0.06353823840618134 -0.06927607208490372 
v -0.3859615623950958 0.05851225554943085 -0.07217670977115631 
v -0.3859615623950958 0.057229023426771164 -0.06822007894515991 
v -0.3859615623950958 0.06299687922000885 -0.06761188805103302 
v -0.3859615623950958 0.08912263810634613 -0.008088722825050354 
v -0.3859615623950958 0.08634230494499207 -0.005000950302928686 
v -0.3859615623950958 0.092531219124794 -0.0033969127107411623 
v -0.3859615623950958 0.09136161208152771 -0.0021003156434744596 
v -0.3859615623950958 0.09291885793209076 -0.009779646061360836 
v -0.3859615623950958 0.0941285714507103 -0.0041053625755012035 
v -0.3859615623950958 0.09708267450332642 -0.009779646061360836 
v -0.3859615623950958 0.09587296098470688 -0.0041053625755012035 
v -0.3859615623950958 0.10087890177965164 -0.008088722825050354 
v -0.3859615623950958 0.09747032076120377 -0.0033969127107411623 
v -0.3859615623950958 0.10365922749042511 -0.005000950302928686 
v -0.3859615623950958 0.09863992780447006 -0.0021003156434744596 
v -0.3859615623950958 0.10494246333837509 -0.0010443242499604821 
v -0.3859615623950958 0.0991746112704277 -0.00043612669105641544 
v -0.3859615623950958 0.09899415075778961 0.0012948971707373857 
v -0.3859615623950958 0.10450803488492966 0.0030927560292184353 
v -0.3859615623950958 0.0981186181306839 0.002812049351632595 
v -0.3859615623950958 0.10242946445941925 0.006688473746180534 
v -0.3859615623950958 0.09670840203762054 0.0038346233777701855 
v -0.3859615623950958 0.09906767308712006 0.009134630672633648 
v -0.3859615623950958 0.09499742835760117 0.00420221546664834 
v -0.3859615623950958 0.09499742835760117 0.009996801614761353 
v -0.3859615623950958 0.09093386679887772 0.009134630672633648 
v -0.3859615623950958 0.09329313784837723 0.0038346233777701855 
v -0.3859615623950958 0.08756538480520248 0.006688473746180534 
v -0.3859615623950958 0.09187623858451843 0.002812049351632595 
v -0.3859615623950958 0.08548682183027267 0.0030927560292184353 
v -0.3859615623950958 0.09100738167762756 0.0012948971707373857 
v -0.3859615623950958 0.08505239337682724 -0.0010443242499604821 
v -0.3859615623950958 0.09082024544477463 -0.00043612669105641544 
v -0.3859615623950958 0.06129927188158035 0.059087034314870834 
v -0.3859615623950958 0.06509549170732498 0.057396113872528076 
v -0.3859615623950958 0.06470785290002823 0.0637788474559784 
v -0.3859615623950958 0.06629852205514908 0.06306371092796326 
v -0.3859615623950958 0.0692526251077652 0.057396113872528076 
v -0.3859615623950958 0.0680495947599411 0.06306371092796326 
v -0.3859615623950958 0.07305552810430527 0.059087034314870834 
v -0.3859615623950958 0.06964026391506195 0.0637788474559784 
v -0.3859615623950958 0.07583586126565933 0.062174808233976364 
v -0.3859615623950958 0.07080987840890884 0.06507544219493866 
v -0.3859615623950958 0.07711908966302872 0.06613143533468246 
v -0.3859615623950958 0.07135123759508133 0.06673963367938995 
v -0.3859615623950958 0.07117078453302383 0.06847065687179565 
v -0.3859615623950958 0.07668466120958328 0.07026851177215576 
v -0.3859615623950958 0.07029524445533752 0.06998781114816666 
v -0.3859615623950958 0.07460609823465347 0.07386422902345657 
v -0.3859615623950958 0.06888502836227417 0.07101038098335266 
v -0.3859615623950958 0.07124430686235428 0.07631038874387741 
v -0.3859615623950958 0.06717405468225479 0.07717256247997284 
v -0.3859615623950958 0.06717405468225479 0.07137797027826309 
v -0.3859615623950958 0.06546977162361145 0.07101038098335266 
v -0.3859615623950958 0.06311049312353134 0.07631038874387741 
v -0.3859615623950958 0.06405286490917206 0.06998781114816666 
v -0.3859615623950958 0.05974201858043671 0.07386422902345657 
v -0.3859615623950958 0.0576634518802166 0.07026851177215576 
v -0.3859615623950958 0.06317733228206635 0.06847065687179565 
v -0.3859615623950958 0.057229023426771164 0.06613143533468246 
v -0.3859615623950958 0.06299687922000885 0.06673963367938995 
v -0.3859615623950958 0.06353823840618134 0.06507544219493866 
v -0.3859615623950958 0.05851225554943085 0.062174808233976364 
v -0.3859615623950958 0.005879771430045366 0.08691040426492691 
v -0.3859615623950958 0.0036341187078505754 0.09289880841970444 
v -0.3859615623950958 0.00866010319441557 0.08999817818403244 
v -0.3859615623950958 0.009943333454430103 0.09395480155944824 
v -0.3859615623950958 0.004175481386482716 0.09456299990415573 
v -0.3859615623950958 0.003995027393102646 0.09630070626735687 
v -0.3859615623950958 0.009508906863629818 0.09809188544750214 
v -0.3859615623950958 0.0031194898765534163 0.09781117737293243 
v -0.3859615623950958 0.0074303410947322845 0.10169428586959839 
v -0.3859615623950958 0.001709273550659418 0.09883374720811844 
v -0.3859615623950958 0.0040685455314815044 0.10413375496864319 
v -0.3859615623950958 -0.0000016998400269585545 0.10500261187553406 
v -0.3859615623950958 -0.0000016998400269585545 0.09920134395360947 
v -0.3859615623950958 -0.0017059898236766458 0.09883374720811844 
v -0.3859615623950958 -0.00406526168808341 0.10413375496864319 
v -0.3859615623950958 -0.00312288966961205 0.09781117737293243 
v -0.3859615623950958 -0.007433740887790918 0.10169428586959839 
v -0.3859615623950958 -0.003991743549704552 0.09630070626735687 
v -0.3859615623950958 -0.009512306191027164 0.09809188544750214 
v -0.3859615623950958 -0.004178881179541349 0.09456299990415573 
v -0.3859615623950958 -0.00994673278182745 0.09395480155944824 
v -0.3859615623950958 -0.008656819351017475 0.08999817818403244 
v -0.3859615623950958 -0.0036375185009092093 0.09289880841970444 
v -0.3859615623950958 -0.005876487586647272 0.08691040426492691 
v -0.3859615623950958 -0.0024679077323526144 0.09160221368074417 
v -0.3859615623950958 -0.0008705535437911749 0.09089376777410507 
v -0.3859615623950958 -0.002080265199765563 0.08521948009729385 
v -0.3859615623950958 0.002076865639537573 0.08521948009729385 
v -0.3859615623950958 0.0008738373289816082 0.09089376777410507 
v -0.3859615623950958 0.0024711915757507086 0.09160221368074417 
v -0.3859615623950958 -0.06630191951990128 0.06306371092796326 
v -0.3859615623950958 -0.06129598617553711 0.059087034314870834 
v -0.3859615623950958 -0.06470456719398499 0.0637788474559784 
v -0.3859615623950958 -0.058515653014183044 0.062174808233976364 
v -0.3859615623950958 -0.06509220600128174 0.057396113872528076 
v -0.3859615623950958 -0.06804630905389786 0.06306371092796326 
v -0.3859615623950958 -0.0692560225725174 0.057396113872528076 
v -0.3859615623950958 -0.06964366883039474 0.0637788474559784 
v -0.3859615623950958 -0.07305224239826202 0.059087034314870834 
v -0.3859615623950958 -0.07081327587366104 0.06507544219493866 
v -0.3859615623950958 -0.07583257555961609 0.062174808233976364 
v -0.3859615623950958 -0.07712249457836151 0.06613143533468246 
v -0.3859615623950958 -0.07135464251041412 0.06673963367938995 
v -0.3859615623950958 -0.07116749882698059 0.06847065687179565 
v -0.3859615623950958 -0.07668138295412064 0.07026851177215576 
v -0.3859615623950958 -0.07029864937067032 0.06998781114816666 
v -0.3859615623950958 -0.07460281252861023 0.07386422902345657 
v -0.3859615623950958 -0.07124102115631104 0.07631038874387741 
v -0.3859615623950958 -0.06888175010681152 0.07101038098335266 
v -0.3859615623950958 -0.06717745959758759 0.07717256247997284 
v -0.3859615623950958 -0.06717745959758759 0.07137797027826309 
v -0.3859615623950958 -0.0654664859175682 0.07101038098335266 
v -0.3859615623950958 -0.0631072148680687 0.07631038874387741 
v -0.3859615623950958 -0.059745416045188904 0.07386422902345657 
v -0.3859615623950958 -0.06404958665370941 0.06998781114816666 
v -0.3859615623950958 -0.057666853070259094 0.07026851177215576 
v -0.3859615623950958 -0.06318072974681854 0.06847065687179565 
v -0.3859615623950958 -0.05722574144601822 0.06613143533468246 
v -0.3859615623950958 -0.06300027668476105 0.06673963367938995 
v -0.3859615623950958 -0.06353495270013809 0.06507544219493866 
vn -0.999997615814209 -2.0682260971124217e-13 0.002184694167226553 
vn -0.999997615814209 -2.0682260971124217e-13 0.002184694167226553 
vn -0.999997615814209 -2.0682260971124217e-13 0.002184694167226553 
vn -0.999997615814209 -2.0682260971124217e-13 0.002184694167226553 
vn -0.999997615814209 -2.0682260971124217e-13 0.002184694167226553 
vn -0.999997615814209 -2.0682260971124217e-13 0.002184694167226553 
vn -0.999997615814209 -2.0682260971124217e-13 0.002184694167226553 
vn -0.999997615814209 -2.0682260971124217e-13 0.002184694167226553 
vn -0.999997615814209 -2.0682260971124217e-13 0.002184694167226553 
vn -0.999997615814209 -2.0682260971124217e-13 0.002184694167226553 
vn -0.999997615814209 -2.0682260971124217e-13 0.002184694167226553 
vn -0.999997615814209 -2.0682260971124217e-13 0.002184694167226553 
vn -0.999997615814209 -2.0682260971124217e-13 0.002184694167226553 
vn -0.999997615814209 -2.0682260971124217e-13 0.002184694167226553 
vn -0.999997615814209 -2.0682260971124217e-13 0.002184694167226553 
vn -0.999997615814209 -2.0682260971124217e-13 0.002184694167226553 
vn -0.999997615814209 -2.0682260971124217e-13 0.002184694167226553 
vn -0.999997615814209 -2.0682260971124217e-13 0.002184694167226553 
vn -0.999997615814209 -2.0682260971124217e-13 0.002184694167226553 
vn -0.999997615814209 -2.0682260971124217e-13 0.002184694167226553 
vn -0.999997615814209 -2.0682260971124217e-13 0.002184694167226553 
vn -0.999997615814209 -2.0682260971124217e-13 0.002184694167226553 
vn -0.999997615814209 -2.0682260971124217e-13 0.002184694167226553 
vn -0.999997615814209 -2.0682260971124217e-13 0.002184694167226553 
vn -0.999997615814209 -2.0682260971124217e-13 0.002184694167226553 
vn -0.999997615814209 -2.0682260971124217e-13 0.002184694167226553 
vn -0.999997615814209 -2.0682260971124217e-13 0.002184694167226553 
vn -0.999997615814209 -2.0682260971124217e-13 0.002184694167226553 
vn -0.999997615814209 -2.0682260971124217e-13 0.002184694167226553 
vn -0.999997615814209 -2.0682260971124217e-13 0.002184694167226553 
vn -0.999997615814209 -2.0682260971124217e-13 0.002184694167226553 
vn -0.999997615814209 -2.0682260971124217e-13 0.002184694167226553 
vn -0.999997615814209 -2.0682260971124217e-13 0.002184694167226553 
vn -0.999997615814209 -2.0682260971124217e-13 0.002184694167226553 
vn -0.999997615814209 -2.0682260971124217e-13 0.002184694167226553 
vn -0.999997615814209 -2.0682260971124217e-13 0.002184694167226553 
vn -0.999997615814209 -2.0682260971124217e-13 0.002184694167226553 
vn -0.999997615814209 -2.0682260971124217e-13 0.002184694167226553 
vn -0.999997615814209 -2.0682260971124217e-13 0.002184694167226553 
vn -0.999997615814209 -2.0682260971124217e-13 0.002184694167226553 
vn -0.999997615814209 -2.0682260971124217e-13 0.002184694167226553 
vn -0.999997615814209 -2.0682260971124217e-13 0.002184694167226553 
vn -0.999997615814209 -2.0682260971124217e-13 0.002184694167226553 
vn -0.999997615814209 -2.0682260971124217e-13 0.002184694167226553 
vn -0.999997615814209 -2.0682260971124217e-13 0.002184694167226553 
vn -0.999997615814209 -2.0682260971124217e-13 0.002184694167226553 
vn -0.999997615814209 -2.0682260971124217e-13 0.002184694167226553 
vn -0.999997615814209 -2.0682260971124217e-13 0.002184694167226553 
vn -0.999997615814209 -2.0682260971124217e-13 0.002184694167226553 
vn -0.999997615814209 -2.0682260971124217e-13 0.002184694167226553 
vn -0.999997615814209 -2.0682260971124217e-13 0.002184694167226553 
vn -0.999997615814209 -2.0682260971124217e-13 0.002184694167226553 
vn -0.999997615814209 -2.0682260971124217e-13 0.002184694167226553 
vn -0.999997615814209 -2.0682260971124217e-13 0.002184694167226553 
vn -0.999997615814209 -2.0682260971124217e-13 0.002184694167226553 
vn -0.999997615814209 -2.0682260971124217e-13 0.002184694167226553 
vn -0.999997615814209 -2.0682260971124217e-13 0.002184694167226553 
vn -0.999997615814209 -2.0682260971124217e-13 0.002184694167226553 
vn -0.999997615814209 -2.0682260971124217e-13 0.002184694167226553 
vn -0.999997615814209 -2.0682260971124217e-13 0.002184694167226553 
vn -0.999997615814209 -2.0682260971124217e-13 0.002184694167226553 
vn -0.999997615814209 -2.0682260971124217e-13 0.002184694167226553 
vn -0.999997615814209 -2.0682260971124217e-13 0.002184694167226553 
vn -0.999997615814209 -2.0682260971124217e-13 0.002184694167226553 
vn -0.999997615814209 -2.0682260971124217e-13 0.002184694167226553 
vn -0.999997615814209 -2.0682260971124217e-13 0.002184694167226553 
vn -0.999997615814209 -2.0682260971124217e-13 0.002184694167226553 
vn -0.999997615814209 -2.0682260971124217e-13 0.002184694167226553 
vn -0.999997615814209 -2.0682260971124217e-13 0.002184694167226553 
vn -0.999997615814209 -2.0682260971124217e-13 0.002184694167226553 
vn -0.999997615814209 -2.0682260971124217e-13 0.002184694167226553 
vn -0.999997615814209 -2.0682260971124217e-13 0.002184694167226553 
vn -0.999997615814209 -2.0682260971124217e-13 0.002184694167226553 
vn -0.999997615814209 -2.0682260971124217e-13 0.002184694167226553 
vn -0.999997615814209 -2.0682260971124217e-13 0.002184694167226553 
vn -0.999997615814209 -2.0682260971124217e-13 0.002184694167226553 
vn -0.999997615814209 -2.0682260971124217e-13 0.002184694167226553 
vn -0.999997615814209 -2.0682260971124217e-13 0.002184694167226553 
vn -0.999997615814209 -2.0682260971124217e-13 0.002184694167226553 
vn -0.999997615814209 -2.0682260971124217e-13 0.002184694167226553 
vn -0.999997615814209 -2.0682260971124217e-13 0.002184694167226553 
vn -0.999997615814209 -2.0682260971124217e-13 0.002184694167226553 
vn -0.999997615814209 -2.0682260971124217e-13 0.002184694167226553 
vn -0.999997615814209 -2.0682260971124217e-13 0.002184694167226553 
vn -0.999997615814209 -2.0682260971124217e-13 0.002184694167226553 
vn -0.999997615814209 -2.0682260971124217e-13 0.002184694167226553 
vn -0.999997615814209 -2.0682260971124217e-13 0.002184694167226553 
vn -0.999997615814209 -2.0682260971124217e-13 0.002184694167226553 
vn -0.999997615814209 -2.0682260971124217e-13 0.002184694167226553 
vn -0.999997615814209 -2.0682260971124217e-13 0.002184694167226553 
vn -0.999997615814209 -2.0682260971124217e-13 0.002184694167226553 
vn -0.999997615814209 -2.0682260971124217e-13 0.002184694167226553 
vn -0.999997615814209 -2.0682260971124217e-13 0.002184694167226553 
vn -0.999997615814209 -2.0682260971124217e-13 0.002184694167226553 
vn -0.999997615814209 -2.0682260971124217e-13 0.002184694167226553 
vn -0.999997615814209 -2.0682260971124217e-13 0.002184694167226553 
vn -0.999997615814209 -2.0682260971124217e-13 0.002184694167226553 
vn -0.999997615814209 -2.0682260971124217e-13 0.002184694167226553 
vn -0.999997615814209 -2.0682260971124217e-13 0.002184694167226553 
vn -0.999997615814209 -2.0682260971124217e-13 0.002184694167226553 
vn -0.999997615814209 -2.0682260971124217e-13 0.002184694167226553 
vn -0.999997615814209 -2.0682260971124217e-13 0.002184694167226553 
vn -0.999997615814209 -2.0682260971124217e-13 0.002184694167226553 
vn -0.999997615814209 -2.0682260971124217e-13 0.002184694167226553 
vn -0.999997615814209 -2.0682260971124217e-13 0.002184694167226553 
vn -0.999997615814209 -2.0682260971124217e-13 0.002184694167226553 
vn -0.999997615814209 -2.0682260971124217e-13 0.002184694167226553 
vn -0.999997615814209 -2.0682260971124217e-13 0.002184694167226553 
vn -0.999997615814209 -2.0682260971124217e-13 0.002184694167226553 
vn -0.999997615814209 -2.0682260971124217e-13 0.002184694167226553 
vn -0.999997615814209 -2.0682260971124217e-13 0.002184694167226553 
vn -0.999997615814209 -2.0682260971124217e-13 0.002184694167226553 
vn -0.999997615814209 -2.0682260971124217e-13 0.002184694167226553 
vn -0.999997615814209 -2.0682260971124217e-13 0.002184694167226553 
vn -0.999997615814209 -2.0682260971124217e-13 0.002184694167226553 
vn -0.999997615814209 -2.0682260971124217e-13 0.002184694167226553 
vn -0.999997615814209 -2.0682260971124217e-13 0.002184694167226553 
vn -0.999997615814209 -2.0682260971124217e-13 0.002184694167226553 
vn -0.999997615814209 -2.0682260971124217e-13 0.002184694167226553 
vn -0.999997615814209 -2.0682260971124217e-13 0.002184694167226553 
vn -0.999997615814209 -2.0682260971124217e-13 0.002184694167226553 
vn -0.999997615814209 -2.0682260971124217e-13 0.002184694167226553 
vn -0.999997615814209 -2.0682260971124217e-13 0.002184694167226553 
vn -0.999997615814209 -2.0682260971124217e-13 0.002184694167226553 
vn -0.999997615814209 -2.0682260971124217e-13 0.002184694167226553 
vn -0.999997615814209 -2.0682260971124217e-13 0.002184694167226553 
vn -0.999997615814209 -2.0682260971124217e-13 0.002184694167226553 
vn -0.999997615814209 -2.0682260971124217e-13 0.002184694167226553 
vn -0.999997615814209 -2.0682260971124217e-13 0.002184694167226553 
vn -0.999997615814209 -2.0682260971124217e-13 0.002184694167226553 
vn -0.999997615814209 -2.0682260971124217e-13 0.002184694167226553 
vn -0.999997615814209 -2.0682260971124217e-13 0.002184694167226553 
vn 0.999997615814209 0 0.002184694167226553 
vn 0.999997615814209 0 0.002184694167226553 
vn 0.999997615814209 0 0.002184694167226553 
vn 0.999997615814209 0 0.002184694167226553 
vn 0.999997615814209 0 0.002184694167226553 
vn 0.999997615814209 0 0.002184694167226553 
vn 0.999997615814209 0 0.002184694167226553 
vn 0.999997615814209 0 0.002184694167226553 
vn 0.999997615814209 0 0.002184694167226553 
vn 0.999997615814209 0 0.002184694167226553 
vn 0.999997615814209 0 0.002184694167226553 
vn 0.999997615814209 0 0.002184694167226553 
vn 0.999997615814209 0 0.002184694167226553 
vn 0.999997615814209 0 0.002184694167226553 
vn 0.999997615814209 0 0.002184694167226553 
vn 0.999997615814209 0 0.002184694167226553 
vn 0.999997615814209 0 0.002184694167226553 
vn 0.999997615814209 0 0.002184694167226553 
vn 0.999997615814209 0 0.002184694167226553 
vn 0.999997615814209 0 0.002184694167226553 
vn 0.999997615814209 0 0.002184694167226553 
vn 0.999997615814209 0 0.002184694167226553 
vn 0.999997615814209 0 0.002184694167226553 
vn 0.999997615814209 0 0.002184694167226553 
vn 0.999997615814209 0 0.002184694167226553 
vn 0.999997615814209 0 0.002184694167226553 
vn 0.999997615814209 0 0.002184694167226553 
vn 0.999997615814209 0 0.002184694167226553 
vn 0.999997615814209 0 0.002184694167226553 
vn 0.999997615814209 0 0.002184694167226553 
vn 0.999997615814209 0 0.002184694167226553 
vn 0.999997615814209 0 0.002184694167226553 
vn 0.999997615814209 0 0.002184694167226553 
vn 0.999997615814209 0 0.002184694167226553 
vn 0.999997615814209 0 0.002184694167226553 
vn 0.999997615814209 0 0.002184694167226553 
vn 0.999997615814209 0 0.002184694167226553 
vn 0.999997615814209 0 0.002184694167226553 
vn 0.999997615814209 0 0.002184694167226553 
vn 0.999997615814209 0 0.002184694167226553 
vn 0.999997615814209 0 0.002184694167226553 
vn 0.999997615814209 0 0.002184694167226553 
vn 0.999997615814209 0 0.002184694167226553 
vn 0.999997615814209 0 0.002184694167226553 
vn 0.999997615814209 0 0.002184694167226553 
vn 0.999997615814209 0 0.002184694167226553 
vn 0.999997615814209 0 0.002184694167226553 
vn 0.999997615814209 0 0.002184694167226553 
vn 0.999997615814209 0 0.002184694167226553 
vn 0.999997615814209 0 0.002184694167226553 
vn 0.999997615814209 0 0.002184694167226553 
vn 0.999997615814209 0 0.002184694167226553 
vn 0.999997615814209 0 0.002184694167226553 
vn 0.999997615814209 0 0.002184694167226553 
vn 0.999997615814209 0 0.002184694167226553 
vn 0.999997615814209 0 0.002184694167226553 
vn 0.999997615814209 0 0.002184694167226553 
vn 0.999997615814209 0 0.002184694167226553 
vn 0.999997615814209 0 0.002184694167226553 
vn 0.999997615814209 0 0.002184694167226553 
vn 0.999997615814209 0 0.002184694167226553 
vn 0.999997615814209 0 0.002184694167226553 
vn 0.999997615814209 0 0.002184694167226553 
vn 0.999997615814209 0 0.002184694167226553 
vn 0.999997615814209 0 0.002184694167226553 
vn 0.999997615814209 0 0.002184694167226553 
vn 0.999997615814209 0 0.002184694167226553 
vn 0.999997615814209 0 0.002184694167226553 
vn 0.999997615814209 0 0.002184694167226553 
vn 0.999997615814209 0 0.002184694167226553 
vn 0.999997615814209 0 0.002184694167226553 
vn 0.999997615814209 0 0.002184694167226553 
vn 0.999997615814209 0 0.002184694167226553 
vn 0.999997615814209 0 0.002184694167226553 
vn 0.999997615814209 0 0.002184694167226553 
vn 0.999997615814209 0 0.002184694167226553 
vn 0.999997615814209 0 0.002184694167226553 
vn 0.999997615814209 0 0.002184694167226553 
vn 0.999997615814209 0 0.002184694167226553 
vn 0.999997615814209 0 0.002184694167226553 
vn 0.999997615814209 0 0.002184694167226553 
vn 0.999997615814209 0 0.002184694167226553 
vn 0.999997615814209 0 0.002184694167226553 
vn 0.999997615814209 0 0.002184694167226553 
vn 0.999997615814209 0 0.002184694167226553 
vn 0.999997615814209 0 0.002184694167226553 
vn 0.999997615814209 0 0.002184694167226553 
vn 0.999997615814209 0 0.002184694167226553 
vn 0.999997615814209 0 0.002184694167226553 
vn 0.999997615814209 0 0.002184694167226553 
vn 0.999997615814209 0 0.002184694167226553 
vn 0.999997615814209 0 0.002184694167226553 
vn 0.999997615814209 0 0.002184694167226553 
vn 0.999997615814209 0 0.002184694167226553 
vn 0.999997615814209 0 0.002184694167226553 
vn 0.999997615814209 0 0.002184694167226553 
vn 0.999997615814209 0 0.002184694167226553 
vn 0.999997615814209 0 0.002184694167226553 
vn 0.999997615814209 0 0.002184694167226553 
vn 0.999997615814209 0 0.002184694167226553 
vn 0.999997615814209 0 0.002184694167226553 
vn 0.999997615814209 0 0.002184694167226553 
vn 0.999997615814209 0 0.002184694167226553 
vn 0.999997615814209 0 0.002184694167226553 
vn 0.999997615814209 0 0.002184694167226553 
vn 0.999997615814209 0 0.002184694167226553 
vn 0.999997615814209 0 0.002184694167226553 
vn 0.999997615814209 0 0.002184694167226553 
vn 0.999997615814209 0 0.002184694167226553 
vn 0.999997615814209 0 0.002184694167226553 
vn 0.999997615814209 0 0.002184694167226553 
vn 0.999997615814209 0 0.002184694167226553 
vn 0.999997615814209 0 0.002184694167226553 
vn 0.999997615814209 0 0.002184694167226553 
vn 0.999997615814209 0 0.002184694167226553 
vn 0.999997615814209 0 0.002184694167226553 
vn 0.999997615814209 0 0.002184694167226553 
vn 0.999997615814209 0 0.002184694167226553 
vn 0.999997615814209 0 0.002184694167226553 
vn 0.999997615814209 0 0.002184694167226553 
vn 0.999997615814209 0 0.002184694167226553 
vn 0.999997615814209 0 0.002184694167226553 
vn 0.999997615814209 0 0.002184694167226553 
vn 0.999997615814209 0 0.002184694167226553 
vn 0.999997615814209 0 0.002184694167226553 
vn 0.999997615814209 0 0.002184694167226553 
vn 0.999997615814209 0 0.002184694167226553 
vn 0.999997615814209 0 0.002184694167226553 
vn 0.999997615814209 0 0.002184694167226553 
vn 0.999997615814209 0 0.002184694167226553 
vn 0.999997615814209 0 0.002184694167226553 
vn 0.999997615814209 0 0.002184694167226553 
vn 0.999997615814209 0 0.002184694167226553 
vn 0.999997615814209 0 0.002184694167226553 
vn 0.999997615814209 0 0.002184694167226553 
vn 0.999997615814209 0 0.002184694167226553 
vn 0.999997615814209 0 0.002184694167226553 
vn 0.999997615814209 0 0.002184694167226553 
vn 0.999997615814209 0 0.002184694167226553 
vn 0.999997615814209 0 0.002184694167226553 
vn 0.999997615814209 0 0.002184694167226553 
vn 0.999997615814209 0 0.002184694167226553 
vn 0.999997615814209 0 0.002184694167226553 
vn 0.999997615814209 0 0.002184694167226553 
vn 0.999997615814209 0 0.002184694167226553 
vn 0.999997615814209 0 0.002184694167226553 
vn 0.999997615814209 0 0.002184694167226553 
vn 0.999997615814209 0 0.002184694167226553 
vn 0.999997615814209 0 0.002184694167226553 
vn 0.999997615814209 0 0.002184694167226553 
vn 0.999997615814209 0 0.002184694167226553 
vn 0.999997615814209 0 0.002184694167226553 
vn 0.999997615814209 0 0.002184694167226553 
vn 0.999997615814209 0 0.002184694167226553 
vn 0.999997615814209 0 0.002184694167226553 
vn 0.999997615814209 0 0.002184694167226553 
vn 0.999997615814209 0 0.002184694167226553 
vn 0.999997615814209 0 0.002184694167226553 
vn 0.999997615814209 0 0.002184694167226553 
vn 0.999997615814209 0 0.002184694167226553 
vn 0.999997615814209 0 0.002184694167226553 
vn 0.999997615814209 0 0.002184694167226553 
vn 0.999997615814209 0 0.002184694167226553 
vn 0.999997615814209 0 0.002184694167226553 
vn 0.999997615814209 0 0.002184694167226553 
vn 0.999997615814209 0 0.002184694167226553 
vn 0.999997615814209 0 0.002184694167226553 
vn 0.999997615814209 0 0.002184694167226553 
vn 0.999997615814209 0 0.002184694167226553 
vn 0.999997615814209 0 0.002184694167226553 
vn 0.999997615814209 0 0.002184694167226553 
vn 0.999997615814209 0 0.002184694167226553 
vn 0.999997615814209 0 0.002184694167226553 
vn 0.999997615814209 0 0.002184694167226553 
vn 0.999997615814209 0 0.002184694167226553 
vn 0.999997615814209 0 0.002184694167226553 
vn 0.999997615814209 0 0.002184694167226553 
vn 0.999997615814209 0 0.002184694167226553 
vn 0.999997615814209 0 0.002184694167226553 
vn 0.999997615814209 0 0.002184694167226553 
vn 0.999997615814209 0 0.002184694167226553 
vn 0.999997615814209 0 0.002184694167226553 
vn 0.999997615814209 0 0.002184694167226553 
vn 0.999997615814209 0 0.002184694167226553 
vn 0.999997615814209 0 0.002184694167226553 
vn 0.999997615814209 0 0.002184694167226553 
vn 0.999997615814209 0 0.002184694167226553 
vn 0.999997615814209 0 0.002184694167226553 
vn 0.999997615814209 0 0.002184694167226553 
vn 0.999997615814209 0 0.002184694167226553 
vn 0.999997615814209 0 0.002184694167226553 
vn 0.999997615814209 0 0.002184694167226553 
vn 0.999997615814209 0 0.002184694167226553 
vn 0.999997615814209 0 0.002184694167226553 
vn 0.999997615814209 0 0.002184694167226553 
vn 0.999997615814209 0 0.002184694167226553 
vn 0.999997615814209 0 0.002184694167226553 
vn 0.999997615814209 0 0.002184694167226553 
vn 0.999997615814209 0 0.002184694167226553 
vn 0.999997615814209 0 0.002184694167226553 
vn 0.999997615814209 0 0.002184694167226553 
vn 0.999997615814209 0 0.002184694167226553 
vn 0.999997615814209 0 0.002184694167226553 
vn 0.999997615814209 0 0.002184694167226553 
vn 0.999997615814209 0 0.002184694167226553 
vn 0.999997615814209 0 0.002184694167226553 
vn 0.999997615814209 0 0.002184694167226553 
vn 0.999997615814209 0 0.002184694167226553 
vn 0.999997615814209 0 0.002184694167226553 
vn 0.999997615814209 0 0.002184694167226553 
vn 0.999997615814209 0 0.002184694167226553 
vn 0.999997615814209 0 0.002184694167226553 
vn 0.999997615814209 0 0.002184694167226553 
vn 0.999997615814209 0 0.002184694167226553 
vn 0.999997615814209 0 0.002184694167226553 
vn 0.999997615814209 0 0.002184694167226553 
vn 0.999997615814209 0 0.002184694167226553 
vn 0.999997615814209 0 0.002184694167226553 
vn 0.999997615814209 0 0.002184694167226553 
vn 0.999997615814209 0 0.002184694167226553 
vn 0.999997615814209 0 0.002184694167226553 
vn 0.999997615814209 0 0.002184694167226553 
vn 0.999997615814209 0 0.002184694167226553 
vn 0.999997615814209 0 0.002184694167226553 
vn 0.999997615814209 0 0.002184694167226553 
vn 0.999997615814209 0 0.002184694167226553 
vn 0.999997615814209 0 0.002184694167226553 
vn 0.999997615814209 0 0.002184694167226553 
vn 0.999997615814209 0 0.002184694167226553 
vn 0.999997615814209 0 0.002184694167226553 
vn 0.999997615814209 0 0.002184694167226553 
vn 0.999997615814209 0 0.002184694167226553 
vn 0.999997615814209 0 0.002184694167226553 
vn 0.999997615814209 0 0.002184694167226553 
vn 0.999997615814209 0 0.002184694167226553 
vn 0.999997615814209 0 0.002184694167226553 
vn 0.999997615814209 0 0.002184694167226553 
vn 0.999997615814209 0 0.002184694167226553 
vn 0.999997615814209 0 0.002184694167226553 
vn 0.999997615814209 0 0.002184694167226553 
vn 0.999997615814209 0 0.002184694167226553 
vn 0.999997615814209 0 0.002184694167226553 
vn 0.999997615814209 0 0.002184694167226553 
vn 0.999997615814209 0 0.002184694167226553 
vn 0.999997615814209 0 0.002184694167226553 
vn 0.999997615814209 0 0.002184694167226553 
vn 0.999997615814209 0 0.002184694167226553 
vn 0.999997615814209 0 0.002184694167226553 
vn 0.999997615814209 0 0.002184694167226553 
vn 0.999997615814209 0 0.002184694167226553 
vn 0.999997615814209 0 0.002184694167226553 
vn 0.999997615814209 0 0.002184694167226553 
vn 0.999997615814209 0 0.002184694167226553 
vn 0.999997615814209 0 0.002184694167226553 
vn 0.999997615814209 0 0.002184694167226553 
vn 0.999997615814209 0 0.002184694167226553 
vn 0.999997615814209 0 0.002184694167226553 
vn 0.999997615814209 0 0.002184694167226553 
vn 0.999997615814209 0 0.002184694167226553 
vn 0.999997615814209 0 0.002184694167226553 
vn 0.999997615814209 0 0.002184694167226553 
vn 0.999997615814209 0 0.002184694167226553 
vn 0.999997615814209 0 0.002184694167226553 
vn 0.999997615814209 0 0.002184694167226553 
vn 0.999997615814209 0 0.002184694167226553 
vn 0.999997615814209 0 0.002184694167226553 
vn 0.999997615814209 0 0.002184694167226553 
vn 0.999997615814209 0 0.002184694167226553 
vn 0.999997615814209 0 0.002184694167226553 
vn 0.999997615814209 0 0.002184694167226553 
vn 0.999997615814209 0 0.002184694167226553 
vn 0.999997615814209 0 0.002184694167226553 
vn 0.999997615814209 0 0.002184694167226553 
vn 0.999997615814209 0 0.002184694167226553 
vn 0.999997615814209 0 0.002184694167226553 
vn 0.999997615814209 0 0.002184694167226553 
vn 0.999997615814209 0 0.002184694167226553 
vn 0.999997615814209 0 0.002184694167226553 
vn 0.999997615814209 0 0.002184694167226553 
vn 0.999997615814209 0 0.002184694167226553 
vn 0.999997615814209 0 0.002184694167226553 
vn 0.999997615814209 0 0.002184694167226553 
vn 0.999997615814209 0 0.002184694167226553 
vn 0.999997615814209 0 0.002184694167226553 
vn 0.999997615814209 0 0.002184694167226553 
vn 0.999997615814209 0 0.002184694167226553 
vn 0.999997615814209 0 0.002184694167226553 
vn 0.999997615814209 0 0.002184694167226553 
vn 0.999997615814209 0 0.002184694167226553 
vn 0.999997615814209 0 0.002184694167226553 
vn 0.999997615814209 0 0.002184694167226553 
vn 0.999997615814209 0 0.002184694167226553 
vn 0.999997615814209 0 0.002184694167226553 
vn 0.999997615814209 0 0.002184694167226553 
vn 0.999997615814209 0 0.002184694167226553 
vn 0.999997615814209 0 0.002184694167226553 
vn 0.999997615814209 0 0.002184694167226553 
vn 0.999997615814209 0 0.002184694167226553 
vn 0.999997615814209 0 0.002184694167226553 
vn 0.999997615814209 0 0.002184694167226553 
vn 0.999997615814209 0 0.002184694167226553 
vn 0.999997615814209 0 0.002184694167226553 
vn 0.999997615814209 0 0.002184694167226553 
vn 0.999997615814209 0 0.002184694167226553 
vn 0.999997615814209 0 0.002184694167226553 
vn 0.999997615814209 0 0.002184694167226553 
vn 0.999997615814209 0 0.002184694167226553 
vn 0.999997615814209 0 0.002184694167226553 
vn 0.999997615814209 0 0.002184694167226553 
vn 0.999997615814209 0 0.002184694167226553 
vn 0.999997615814209 0 0.002184694167226553 
vn 0.999997615814209 0 0.002184694167226553 
vn 0.999997615814209 0 0.002184694167226553 
vn 0.999997615814209 0 0.002184694167226553 
vn 0.999997615814209 0 0.002184694167226553 
vn 0.999997615814209 0 0.002184694167226553 
vn 0.999997615814209 0 0.002184694167226553 
vn 0.999997615814209 0 0.002184694167226553 
vt 0.00004016000093542971 -0.30270272493362427 
vt -0.004852650221437216 -0.3037721812725067 
vt 0.00004016000093542971 -0.2933449149131775 
vt -0.1007838100194931 -0.2710644006729126 
vt -0.008943360298871994 -0.30680233240127563 
vt -0.011670500040054321 -0.3113475441932678 
vt -0.012633020058274269 -0.31669488549232483 
vt -0.1007838100194931 -0.3427185118198395 
vt -0.011670500040054321 -0.32204219698905945 
vt -0.008943360298871994 -0.32658740878105164 
vt 0.00004016000093542971 -0.364998996257782 
vt -0.004852650221437216 -0.32961755990982056 
vt 0.00004016000093542971 -0.330687016248703 
vt -0.10102444142103195 -0.2709752917289734 
vt -0.18917523324489594 -0.22097784280776978 
vt -0.18917523324489594 -0.2268598973751068 
vt -0.19134089350700378 -0.23211809992790222 
vt -0.12572911381721497 -0.33719292283058167 
vt -0.19519098103046417 -0.23603945970535278 
vt -0.20024420320987701 -0.23782190680503845 
vt -0.20152756571769714 -0.23791103065013885 
vt -0.232247993350029 -0.2580525875091553 
vt -0.205457866191864 -0.23719805479049683 
vt -0.20994961261749268 -0.2343461513519287 
vt -0.21299760043621063 -0.22962267696857452 
vt -0.2141205370426178 -0.2239188700914383 
vt -0.303474485874176 -0.1396985799074173 
vt -0.21299760043621063 -0.21821506321430206 
vt -0.20994961261749268 -0.21349160373210907 
vt -0.2836626172065735 -0.013947442173957825 
vt -0.2850261926651001 -0.014036564156413078 
vt -0.2888762652873993 -0.01332358829677105 
vt -0.29344823956489563 -0.010382561944425106 
vt -0.32850000262260437 0.00004471200008993037 
vt -0.2964962124824524 -0.005659095942974091 
vt -0.29761916399002075 0.00004471200008993037 
vt -0.2964962124824524 0.005659398157149553 
vt -0.3084475100040436 0.11198194324970245 
vt -0.29344823956489563 0.010382863692939281 
vt -0.2888762652873993 0.013323890045285225 
vt -0.2836626172065735 0.013947743922472 
vt -0.24395866692066193 0.11198194324970245 
vt -0.27868959307670593 0.012165304273366928 
vt -0.27483952045440674 0.008243936114013195 
vt -0.2640111744403839 0.00004471200008993037 
vt -0.2726738452911377 0.0028966160025447607 
vt -0.2726738452911377 -0.0028963140211999416 
vt -0.27483952045440674 -0.00824363436549902 
vt -0.24387845396995544 -0.11224900931119919 
vt -0.27868959307670593 -0.012165001593530178 
vt -0.18668872117996216 -0.20743130147457123 
vt -0.19134089350700378 -0.21571965515613556 
vt -0.19519098103046417 -0.2117982804775238 
vt -0.20024420320987701 -0.21001584827899933 
vt -0.205457866191864 -0.21063970029354095 
vt -0.24387845396995544 0.11224930733442307 
vt -0.20152756571769714 0.2099270224571228 
vt -0.205457866191864 0.21063999831676483 
vt -0.20024420320987701 0.2100161463022232 
vt -0.19519098103046417 0.21179857850074768 
vt -0.18668872117996216 0.2074315994977951 
vt -0.19134089350700378 0.21571995317935944 
vt -0.18917523324489594 0.22097815573215485 
vt -0.10102444142103195 0.27097558975219727 
vt -0.18917523324489594 0.2268601953983307 
vt -0.19134089350700378 0.2321183979511261 
vt -0.1007838100194931 0.34271880984306335 
vt -0.12572911381721497 0.33719325065612793 
vt -0.19519098103046417 0.23603977262973785 
vt -0.20024420320987701 0.23782220482826233 
vt -0.205457866191864 0.2371983528137207 
vt -0.232247993350029 0.25805291533470154 
vt -0.20994961261749268 0.2343464493751526 
vt -0.21299760043621063 0.2296229898929596 
vt -0.2141205370426178 0.22391918301582336 
vt -0.303474485874176 0.13969889283180237 
vt -0.21299760043621063 0.21821536123752594 
vt -0.20994961261749268 0.21349190175533295 
vt -0.1007838100194931 0.27106472849845886 
vt -0.012633020058274269 0.3166951835155487 
vt -0.011510079726576805 0.3109913766384125 
vt -0.00846210028976202 0.3062679171562195 
vt -0.0038901299703866243 0.30332687497138977 
vt 0.00004016000093542971 0.29334521293640137 
vt -0.011510079726576805 0.32239899039268494 
vt -0.00846210028976202 0.3270333409309387 
vt 0.00004016000093542971 0.36499929428100586 
vt -0.0038901299703866243 0.32997435331344604 
vt 0.0013235199730843306 0.33059820532798767 
vt 0.006296540144830942 0.328815758228302 
vt 0.12572923302650452 0.33719325065612793 
vt 0.010226829908788204 0.32489439845085144 
vt 0.012312290258705616 0.3195470869541168 
vt 0.012312290258705616 0.313754141330719 
vt 0.19310562312602997 0.2343464493751526 
vt 0.19759738445281982 0.2371983528137207 
vt 0.20281104743480682 0.23782220482826233 
vt 0.23224811255931854 0.25805291533470154 
vt 0.20786426961421967 0.23603977262973785 
vt 0.21171435713768005 0.2321183979511261 
vt 0.2138800173997879 0.2268601953983307 
vt 0.3034745752811432 0.13969889283180237 
vt 0.2138800173997879 0.22097815573215485 
vt 0.21171435713768005 0.21571995317935944 
vt 0.20786426961421967 0.21179857850074768 
vt 0.2438785582780838 0.11224930733442307 
vt 0.20281104743480682 0.2100161463022232 
vt 0.2015276849269867 0.2099270224571228 
vt 0.19759738445281982 0.21063999831676483 
vt 0.18668882548809052 0.2074315994977951 
vt 0.19310562312602997 0.21349190175533295 
vt 0.18997743725776672 0.21821536123752594 
vt 0.1010245531797409 0.27097558975219727 
vt 0.18893471360206604 0.22391918301582336 
vt 0.18997743725776672 0.2296229898929596 
vt 0.010226829908788204 0.3084068298339844 
vt 0.006296540144830942 0.304574579000473 
vt 0.0013235199730843306 0.30270302295684814 
vt 0.00004016000093542971 0.30270302295684814 
vt 0.24395877122879028 0.11198194324970245 
vt 0.30844759941101074 0.11198194324970245 
vt 0.28502628207206726 0.014036865904927254 
vt 0.28983888030052185 0.01296740211546421 
vt 0.2939296066761017 0.009937253780663013 
vt 0.3285001218318939 0.00004471200008993037 
vt 0.2966567277908325 0.0053920322097837925 
vt 0.2976192533969879 0.00004471200008993037 
vt 0.28021368384361267 0.01296740211546421 
vt 0.2761229872703552 0.009937253780663013 
vt 0.273395836353302 0.0053920322097837925 
vt 0.2640112638473511 0.00004471200008993037 
vt 0.2724333107471466 0.00004471200008993037 
vt 0.16118204593658447 -0.006817682180553675 
vt 0.12757405638694763 -0.1351533681154251 
vt 0.15925700962543488 -0.0031636799685657024 
vt 0.12797510623931885 -0.13096462190151215 
vt 0.15885595977306366 0.0010250540217384696 
vt 0.1267719566822052 -0.12686501443386078 
vt 0.12420523911714554 -0.12374574691057205 
vt 0.12067600339651108 -0.12196330726146698 
vt 0.1600591093301773 0.005124665796756744 
vt 0.11883117258548737 -0.12178505957126617 
vt 0.1343919038772583 -0.06189507618546486 
vt 0.11690612882375717 -0.12196330726146698 
vt 0.10286937654018402 -0.11429881304502487 
vt 0.11337689310312271 -0.12374574691057205 
vt 0.11081016808748245 -0.12686501443386078 
vt 0.05939555913209915 -0.14656098186969757 
vt 0.1096070185303688 -0.13096462190151215 
vt 0.11000806838274002 -0.1351533681154251 
vt 0.05939555913209915 -0.20350994169712067 
vt 0.11193311214447021 -0.13880737125873566 
vt 0.07463546097278595 -0.20021241903305054 
vt 0.11506129801273346 -0.14130277931690216 
vt 0.11883117258548737 -0.142194002866745 
vt 0.13792115449905396 -0.15324512124061584 
vt 0.1225208267569542 -0.14130277931690216 
vt 0.12564902007579803 -0.13880737125873566 
vt 0.18019181489944458 -0.08292786777019501 
vt 0.16423003375530243 -0.009313098154962063 
vt 0.16799989342689514 -0.010204317979514599 
vt 0.17176976799964905 -0.009313098154962063 
vt 0.174817755818367 -0.006817682180553675 
vt 0.19503067433834076 0.00004471200008993037 
vt 0.1767427921295166 -0.0031636799685657024 
vt 0.17714384198188782 0.0010250540217384696 
vt 0.17594069242477417 0.005124665796756744 
vt 0.18315958976745605 0.065994992852211 
vt 0.1733739674091339 0.008243936114013195 
vt 0.16992494463920593 0.010026375763118267 
vt 0.16799989342689514 0.010204619728028774 
vt 0.16607485711574554 0.010026375763118267 
vt 0.16262583434581757 0.008243936114013195 
vt 0.1343919038772583 0.06189538165926933 
vt 0.14546088874340057 0.00004471200008993037 
vt 0.055705901235342026 -0.14932376146316528 
vt 0.13190540671348572 0.065994992852211 
vt 0.1225208267569542 0.12267658114433289 
vt 0.12564902007579803 0.12517200410366058 
vt 0.11883117258548737 0.12178536504507065 
vt 0.11506129801273346 0.12267658114433289 
vt 0.10286937654018402 0.11429911851882935 
vt 0.11193311214447021 0.12517200410366058 
vt 0.11000806838274002 0.12882600724697113 
vt 0.05939555913209915 0.14656127989292145 
vt 0.1096070185303688 0.1331038624048233 
vt 0.11081016808748245 0.13711434602737427 
vt 0.05939555913209915 0.20351023972034454 
vt 0.07463546097278595 0.20021271705627441 
vt 0.11337689310312271 0.1402336210012436 
vt 0.11690612882375717 0.14201605319976807 
vt 0.11883117258548737 0.14219430088996887 
vt 0.12067600339651108 0.14201605319976807 
vt 0.13792115449905396 0.15324543416500092 
vt 0.12420523911714554 0.1402336210012436 
vt 0.1267719566822052 0.13711434602737427 
vt 0.12797510623931885 0.1331038624048233 
vt 0.18019181489944458 0.08292817324399948 
vt 0.12757405638694763 0.12882600724697113 
vt 0.055705901235342026 0.14932405948638916 
vt 0.008783049881458282 0.18354691565036774 
vt 0.009184099733829498 0.1877356469631195 
vt 0.00798095017671585 0.19174613058567047 
vt 0.005414229817688465 0.1949545294046402 
vt 0.006858009845018387 0.1798037886619568 
vt 0.0037298200186342 0.1773083657026291 
vt 0.00004016000093542971 0.16162289679050446 
vt 0.00004016000093542971 0.17641715705394745 
vt -0.003729709889739752 0.1773083657026291 
vt -0.05570578947663307 0.14932405948638916 
vt -0.006857899948954582 0.1798037886619568 
vt -0.1150611937046051 0.12267658114433289 
vt -0.008782939985394478 0.18354691565036774 
vt -0.009183989837765694 0.1877356469631195 
vt -0.007980840280652046 0.19174613058567047 
vt -0.11193300038576126 0.12517200410366058 
vt -0.11000795662403107 0.12882600724697113 
vt -0.10960690677165985 0.1331038624048233 
vt -0.1108100563287735 0.13711434602737427 
vt 0.00004016000093542971 0.21670030057430267 
vt -0.0054141199216246605 0.1949545294046402 
vt -0.0018848800100386143 0.19664783775806427 
vt 0.00004016000093542971 0.19691520929336548 
vt 0.0018849900225177407 0.19664783775806427 
vt -0.10286927223205566 0.11429911851882935 
vt -0.074635349214077 0.20021271705627441 
vt -0.11337678134441376 0.1402336210012436 
vt -0.11690601706504822 0.14201605319976807 
vt -0.11883106082677841 0.14219430088996887 
vt -0.12067589163780212 0.14201605319976807 
vt -0.1379210352897644 0.15324543416500092 
vt -0.12420512735843658 0.1402336210012436 
vt -0.12677185237407684 0.13711434602737427 
vt -0.1279750019311905 0.1331038624048233 
vt -0.18019171059131622 0.08292817324399948 
vt -0.12757395207881927 0.12882600724697113 
vt -0.12564891576766968 0.12517200410366058 
vt -0.1831594854593277 0.065994992852211 
vt -0.12252072244882584 0.12267658114433289 
vt -0.13190528750419617 0.065994992852211 
vt -0.11883106082677841 0.12178536504507065 
vt -0.13439179956912994 0.06189538165926933 
vt -0.16799978911876678 0.010204619728028774 
vt -0.16447055339813232 0.009402521885931492 
vt -0.16150277853012085 0.007263593841344118 
vt -0.15949752926826477 0.003876958042383194 
vt -0.14546078443527222 0.00004471200008993037 
vt -0.15877564251422882 0.00004471200008993037 
vt -0.17152902483940125 0.009402521885931492 
vt -0.17449679970741272 0.007263593841344118 
vt -0.1950305551290512 0.00004471200008993037 
vt -0.1765020489692688 0.003876958042383194 
vt -0.17722393572330475 0.00004471200008993037 
vt 0.00004016000093542971 -0.17641684412956238 
vt 0.003489190014079213 -0.1772189438343048 
vt 0.00004016000093542971 -0.16162259876728058 
vt 0.006537170149385929 -0.1794469952583313 
vt 0.008462210185825825 -0.18274450302124023 
vt 0.009184099733829498 -0.186665877699852 
vt 0.008462210185825825 -0.19058725237846375 
vt 0.006537170149385929 -0.19388476014137268 
vt 0.00004016000093542971 -0.2166999876499176 
vt 0.003489190014079213 -0.19611281156539917 
vt 0.00004016000093542971 -0.1969149112701416 
vt 0.00004016000093542971 -0.30270272493362427 
vt 0.00004016000093542971 -0.2833632528781891 
vt 0.00485276011750102 -0.3037721812725067 
vt 0.01151018962264061 -0.2858586609363556 
vt 0.008943470194935799 -0.30680233240127563 
vt 0.02121560089290142 -0.2930775582790375 
vt 0.011670609936118126 -0.3113475441932678 
vt 0.027712609618902206 -0.3039504289627075 
vt 0.012633129954338074 -0.31669488549232483 
vt 0.030038699507713318 -0.31669488549232483 
vt 0.027712609618902206 -0.32943931221961975 
vt 0.011670609936118126 -0.32204219698905945 
vt 0.02121560089290142 -0.3402230739593506 
vt 0.008943470194935799 -0.32658740878105164 
vt 0.01151018962264061 -0.34744197130203247 
vt 0.00485276011750102 -0.32961755990982056 
vt 0.00004016000093542971 -0.35002651810646057 
vt 0.00004016000093542971 -0.330687016248703 
vt -0.27243322134017944 0.00004471200008993037 
vt -0.2550276517868042 0.00004471200008993037 
vt -0.27339571714401245 0.0053920322097837925 
vt -0.25727352499961853 0.012789158150553703 
vt -0.2761228680610657 0.009937253780663013 
vt -0.26377052068710327 0.02357291989028454 
vt -0.2802135944366455 0.01296740211546421 
vt -0.2735561430454254 0.03079180233180523 
vt -0.2850261926651001 0.014036865904927254 
vt -0.2850261926651001 0.033376339823007584 
vt -0.2898387908935547 0.01296740211546421 
vt -0.2964962124824524 0.03079180233180523 
vt -0.30620160698890686 0.02357291989028454 
vt -0.29392948746681213 0.009937253780663013 
vt -0.312698632478714 0.012789158150553703 
vt -0.29665663838386536 0.0053920322097837925 
vt -0.315024733543396 0.00004471200008993037 
vt -0.29761916399002075 0.00004471200008993037 
vt -0.18147507309913635 0.19914326071739197 
vt -0.1922232061624527 0.19219174981117249 
vt -0.1931055188179016 0.21349190175533295 
vt -0.19759728014469147 0.21063999831676483 
vt -0.1740957498550415 0.21037262678146362 
vt -0.18997733294963837 0.21821536123752594 
vt -0.17152902483940125 0.22391918301582336 
vt -0.1889345943927765 0.22391918301582336 
vt -0.18997733294963837 0.2296229898929596 
vt -0.1740957498550415 0.2374657243490219 
vt -0.18147507309913635 0.24869509041309357 
vt -0.1931055188179016 0.2343464493751526 
vt -0.1922232061624527 0.25564661622047424 
vt -0.19759728014469147 0.2371983528137207 
vt -0.20465576648712158 0.2570725679397583 
vt -0.20281092822551727 0.23782220482826233 
vt -0.2078641653060913 0.23603977262973785 
vt -0.2165268361568451 0.25279471278190613 
vt -0.2117142379283905 0.2321183979511261 
vt -0.22583119571208954 0.24352601170539856 
vt -0.21387991309165955 0.2268601953983307 
vt -0.23088443279266357 0.23087069392204285 
vt -0.21387991309165955 0.22097815573215485 
vt -0.23088443279266357 0.2169676572084427 
vt -0.2117142379283905 0.21571995317935944 
vt -0.22583119571208954 0.20431233942508698 
vt -0.2078641653060913 0.21179857850074768 
vt -0.2165268361568451 0.1950436532497406 
vt -0.20465576648712158 0.19076579809188843 
vt -0.20281092822551727 0.2100161463022232 
vt -0.024263469502329826 0.2970883250236511 
vt -0.01495910994708538 0.28781965374946594 
vt -0.0102267200127244 0.3084068298339844 
vt -0.00629642978310585 0.304574579000473 
vt -0.029316699132323265 0.3097436726093292 
vt -0.012312180362641811 0.313754141330719 
vt -0.029316699132323265 0.323557585477829 
vt -0.012312180362641811 0.3195470869541168 
vt -0.024263469502329826 0.3363020122051239 
vt -0.0102267200127244 0.32489439845085144 
vt -0.01495910994708538 0.34557071328163147 
vt -0.00629642978310585 0.328815758228302 
vt -0.0031682399567216635 0.34984856843948364 
vt -0.001323409960605204 0.33059820532798767 
vt 0.0038902400992810726 0.32997435331344604 
vt 0.009264309890568256 0.348333477973938 
vt 0.008462210185825825 0.3270333409309387 
vt 0.020092660561203957 0.3414711058139801 
vt 0.01151018962264061 0.32239899039268494 
vt 0.027391770854592323 0.33024170994758606 
vt 0.012633129954338074 0.3166951835155487 
vt 0.030038699507713318 0.3166951835155487 
vt 0.027391770854592323 0.30314862728118896 
vt 0.01151018962264061 0.3109913766384125 
vt 0.020092660561203957 0.2919192612171173 
vt 0.008462210185825825 0.3062679171562195 
vt 0.009264309890568256 0.2849677503108978 
vt 0.0038902400992810726 0.30332687497138977 
vt -0.0031682399567216635 0.28354179859161377 
vt -0.001323409960605204 0.30270302295684814 
vt 0.1772240549325943 0.20431233942508698 
vt 0.17217081785202026 0.2169676572084427 
vt 0.19134101271629333 0.21571995317935944 
vt 0.1891753375530243 0.22097815573215485 
vt 0.17217081785202026 0.23087069392204285 
vt 0.1891753375530243 0.2268601953983307 
vt 0.1772240549325943 0.24352601170539856 
vt 0.19134101271629333 0.2321183979511261 
vt 0.18652841448783875 0.25279471278190613 
vt 0.19519108533859253 0.23603977262973785 
vt 0.19839948415756226 0.2570725679397583 
vt 0.20024432241916656 0.23782220482826233 
vt 0.20545797049999237 0.2371983528137207 
vt 0.21083204448223114 0.25564661622047424 
vt 0.20994973182678223 0.2343464493751526 
vt 0.22158017754554749 0.24869509041309357 
vt 0.212997704744339 0.2296229898929596 
vt 0.22895950078964233 0.2374657243490219 
vt 0.2315262258052826 0.22391918301582336 
vt 0.21412065625190735 0.22391918301582336 
vt 0.212997704744339 0.21821536123752594 
vt 0.22895950078964233 0.21037262678146362 
vt 0.20994973182678223 0.21349190175533295 
vt 0.22158017754554749 0.19914326071739197 
vt 0.21083204448223114 0.19219174981117249 
vt 0.20545797049999237 0.21063999831676483 
vt 0.19839948415756226 0.19076579809188843 
vt 0.20024432241916656 0.2100161463022232 
vt 0.19519108533859253 0.21179857850074768 
vt 0.18652841448783875 0.1950436532497406 
vt 0.26072266697883606 0.019562430679798126 
vt 0.2786897122859955 0.012165304273366928 
vt 0.2700270116329193 0.02883111871778965 
vt 0.2818981111049652 0.03310897573828697 
vt 0.28366270661354065 0.013947743922472 
vt 0.28887638449668884 0.013323890045285225 
vt 0.2942504286766052 0.031683020293712616 
vt 0.2934483289718628 0.010382863692939281 
vt 0.30507880449295044 0.024731505662202835 
vt 0.29649633169174194 0.005659398157149553 
vt 0.3123778998851776 0.013591255992650986 
vt 0.31502482295036316 0.00004471200008993037 
vt 0.2976192533969879 0.00004471200008993037 
vt 0.29649633169174194 -0.005659095942974091 
vt 0.3123778998851776 -0.01359095424413681 
vt 0.2934483289718628 -0.010382561944425106 
vt 0.30507880449295044 -0.02473120391368866 
vt 0.28887638449668884 -0.01332358829677105 
vt 0.2942504286766052 -0.03168271854519844 
vt 0.28366270661354065 -0.013947442173957825 
vt 0.2818981111049652 -0.0331086702644825 
vt 0.2700270116329193 -0.028830815106630325 
vt 0.2786897122859955 -0.012165001593530178 
vt 0.26072266697883606 -0.01956212893128395 
vt 0.2748396098613739 -0.00824363436549902 
vt 0.27267396450042725 -0.0028963140211999416 
vt 0.2556694447994232 -0.006906804163008928 
vt 0.2556694447994232 0.006907105911523104 
vt 0.27267396450042725 0.0028966160025447607 
vt 0.2748396098613739 0.008243936114013195 
vt 0.1891753375530243 -0.22097784280776978 
vt 0.1772240549325943 -0.2043120414018631 
vt 0.19134101271629333 -0.21571965515613556 
vt 0.18652841448783875 -0.19504334032535553 
vt 0.17217081785202026 -0.2169673591852188 
vt 0.1891753375530243 -0.2268598973751068 
vt 0.17217081785202026 -0.23087039589881897 
vt 0.19134101271629333 -0.23211809992790222 
vt 0.1772240549325943 -0.24352571368217468 
vt 0.19519108533859253 -0.23603945970535278 
vt 0.18652841448783875 -0.25279441475868225 
vt 0.19839948415756226 -0.2570722699165344 
vt 0.20024432241916656 -0.23782190680503845 
vt 0.20545797049999237 -0.23719805479049683 
vt 0.21083204448223114 -0.25564631819725037 
vt 0.20994973182678223 -0.2343461513519287 
vt 0.22158017754554749 -0.2486947923898697 
vt 0.22895950078964233 -0.23746541142463684 
vt 0.212997704744339 -0.22962267696857452 
vt 0.2315262258052826 -0.2239188700914383 
vt 0.21412065625190735 -0.2239188700914383 
vt 0.212997704744339 -0.21821506321430206 
vt 0.22895950078964233 -0.21037232875823975 
vt 0.22158017754554749 -0.1991429626941681 
vt 0.20994973182678223 -0.21349160373210907 
vt 0.21083204448223114 -0.19219143688678741 
vt 0.20545797049999237 -0.21063970029354095 
vt 0.19839948415756226 -0.19076548516750336 
vt 0.20024432241916656 -0.21001584827899933 
vt 0.19519108533859253 -0.2117982804775238 
s on 
f 1/1/1 2/2/2 3/3/3 
f 2/2/2 2/2/2 3/3/3 
f 3/3/3 2/2/2 4/4/4 
f 2/2/2 5/5/5 4/4/4 
f 4/4/4 5/5/5 4/4/4 
f 5/5/5 6/6/6 4/4/4 
f 4/4/4 6/6/6 4/4/4 
f 6/6/6 7/7/7 4/4/4 
f 4/4/4 7/7/7 8/8/8 
f 7/7/7 9/9/9 8/8/8 
f 8/8/8 9/9/9 8/8/8 
f 9/9/9 10/10/10 8/8/8 
f 8/8/8 10/10/10 11/11/11 
f 10/10/10 12/12/12 11/11/11 
f 11/11/11 12/12/12 13/13/13 
f 12/12/12 13/13/13 13/13/13 
f 13/13/13 13/13/13 4/4/4 
f 13/13/13 4/4/4 4/4/4 
f 4/4/4 4/4/4 14/14/14 
f 4/4/4 8/8/8 14/14/14 
f 14/14/14 8/8/8 15/15/15 
f 8/8/8 8/8/8 15/15/15 
f 15/15/15 8/8/8 16/16/16 
f 8/8/8 8/8/8 16/16/16 
f 16/16/16 8/8/8 17/17/17 
f 8/8/8 18/18/18 17/17/17 
f 17/17/17 18/18/18 19/19/19 
f 18/18/18 18/18/18 19/19/19 
f 19/19/19 18/18/18 20/20/20 
f 18/18/18 18/18/18 20/20/20 
f 20/20/20 18/18/18 21/21/21 
f 18/18/18 22/22/22 21/21/21 
f 21/21/21 22/22/22 23/23/23 
f 22/22/22 22/22/22 23/23/23 
f 23/23/23 22/22/22 24/24/24 
f 22/22/22 22/22/22 24/24/24 
f 24/24/24 22/22/22 25/25/25 
f 22/22/22 22/22/22 25/25/25 
f 25/25/25 22/22/22 26/26/26 
f 22/22/22 27/27/27 26/26/26 
f 26/26/26 27/27/27 28/28/28 
f 27/27/27 27/27/27 28/28/28 
f 28/28/28 27/27/27 29/29/29 
f 27/27/27 27/27/27 29/29/29 
f 29/29/29 27/27/27 30/30/30 
f 27/27/27 27/27/27 30/30/30 
f 30/30/30 27/27/27 31/31/31 
f 27/27/27 27/27/27 31/31/31 
f 31/31/31 27/27/27 32/32/32 
f 27/27/27 27/27/27 32/32/32 
f 32/32/32 27/27/27 33/33/33 
f 27/27/27 34/34/34 33/33/33 
f 33/33/33 34/34/34 35/35/35 
f 34/34/34 34/34/34 35/35/35 
f 35/35/35 34/34/34 36/36/36 
f 34/34/34 34/34/34 36/36/36 
f 36/36/36 34/34/34 37/37/37 
f 34/34/34 38/38/38 37/37/37 
f 37/37/37 38/38/38 39/39/39 
f 38/38/38 38/38/38 39/39/39 
f 39/39/39 38/38/38 40/40/40 
f 38/38/38 38/38/38 40/40/40 
f 40/40/40 38/38/38 41/41/41 
f 38/38/38 42/42/42 41/41/41 
f 41/41/41 42/42/42 43/43/43 
f 42/42/42 42/42/42 43/43/43 
f 43/43/43 42/42/42 44/44/44 
f 42/42/42 45/45/45 44/44/44 
f 44/44/44 45/45/45 46/46/46 
f 45/45/45 45/45/45 46/46/46 
f 46/46/46 45/45/45 47/47/47 
f 45/45/45 45/45/45 47/47/47 
f 47/47/47 45/45/45 48/48/48 
f 45/45/45 49/49/49 48/48/48 
f 48/48/48 49/49/49 50/50/50 
f 49/49/49 29/29/29 50/50/50 
f 50/50/50 29/29/29 30/30/30 
f 29/29/29 30/30/30 30/30/30 
f 30/30/30 30/30/30 14/14/14 
f 30/30/30 14/14/14 14/14/14 
f 14/14/14 14/14/14 51/51/51 
f 14/14/14 15/15/15 51/51/51 
f 51/51/51 15/15/15 51/51/51 
f 15/15/15 52/52/52 51/51/51 
f 51/51/51 52/52/52 51/51/51 
f 52/52/52 53/53/53 51/51/51 
f 51/51/51 53/53/53 49/49/49 
f 53/53/53 54/54/54 49/49/49 
f 49/49/49 54/54/54 49/49/49 
f 54/54/54 55/55/55 49/49/49 
f 49/49/49 55/55/55 29/29/29 
f 55/55/55 29/29/29 29/29/29 
f 29/29/29 29/29/29 42/42/42 
f 29/29/29 42/42/42 42/42/42 
f 42/42/42 42/42/42 56/56/56 
f 42/42/42 38/38/38 56/56/56 
f 56/56/56 38/38/38 57/57/57 
f 38/38/38 58/58/58 57/57/57 
f 57/57/57 58/58/58 58/58/58 
f 58/58/58 57/57/57 58/58/58 
f 58/58/58 57/57/57 57/57/57 
f 57/57/57 59/59/59 57/57/57 
f 57/57/57 59/59/59 56/56/56 
f 59/59/59 60/60/60 56/56/56 
f 56/56/56 60/60/60 61/61/61 
f 60/60/60 62/62/62 61/61/61 
f 61/61/61 62/62/62 61/61/61 
f 62/62/62 63/63/63 61/61/61 
f 61/61/61 63/63/63 64/64/64 
f 63/63/63 65/65/65 64/64/64 
f 64/64/64 65/65/65 64/64/64 
f 65/65/65 66/66/66 64/64/64 
f 64/64/64 66/66/66 67/67/67 
f 66/66/66 66/66/66 67/67/67 
f 67/67/67 66/66/66 68/68/68 
f 66/66/66 69/69/69 68/68/68 
f 68/68/68 69/69/69 68/68/68 
f 69/69/69 70/70/70 68/68/68 
f 68/68/68 70/70/70 68/68/68 
f 70/70/70 71/71/71 68/68/68 
f 68/68/68 71/71/71 72/72/72 
f 71/71/71 73/73/73 72/72/72 
f 72/72/72 73/73/73 72/72/72 
f 73/73/73 74/74/74 72/72/72 
f 72/72/72 74/74/74 72/72/72 
f 74/74/74 75/75/75 72/72/72 
f 72/72/72 75/75/75 76/76/76 
f 75/75/75 77/77/77 76/76/76 
f 76/76/76 77/77/77 76/76/76 
f 77/77/77 78/78/78 76/76/76 
f 76/76/76 78/78/78 38/38/38 
f 78/78/78 58/58/58 38/38/38 
f 38/38/38 58/58/58 58/58/58 
f 58/58/58 64/64/64 58/58/58 
f 58/58/58 64/64/64 64/64/64 
f 64/64/64 67/67/67 64/64/64 
f 64/64/64 67/67/67 79/79/79 
f 67/67/67 80/80/80 79/79/79 
f 79/79/79 80/80/80 79/79/79 
f 80/80/80 81/81/81 79/79/79 
f 79/79/79 81/81/81 79/79/79 
f 81/81/81 82/82/82 79/79/79 
f 79/79/79 82/82/82 79/79/79 
f 82/82/82 83/83/83 79/79/79 
f 79/79/79 83/83/83 84/84/84 
f 83/83/83 84/84/84 84/84/84 
f 84/84/84 84/84/84 80/80/80 
f 84/84/84 80/80/80 80/80/80 
f 80/80/80 80/80/80 85/85/85 
f 80/80/80 67/67/67 85/85/85 
f 85/85/85 67/67/67 86/86/86 
f 67/67/67 87/87/87 86/86/86 
f 86/86/86 87/87/87 88/88/88 
f 87/87/87 87/87/87 88/88/88 
f 88/88/88 87/87/87 89/89/89 
f 87/87/87 87/87/87 89/89/89 
f 89/89/89 87/87/87 90/90/90 
f 87/87/87 91/91/91 90/90/90 
f 90/90/90 91/91/91 92/92/92 
f 91/91/91 91/91/91 92/92/92 
f 92/92/92 91/91/91 93/93/93 
f 91/91/91 91/91/91 93/93/93 
f 93/93/93 91/91/91 94/94/94 
f 91/91/91 91/91/91 94/94/94 
f 94/94/94 91/91/91 95/95/95 
f 91/91/91 91/91/91 95/95/95 
f 95/95/95 91/91/91 96/96/96 
f 91/91/91 91/91/91 96/96/96 
f 96/96/96 91/91/91 97/97/97 
f 91/91/91 98/98/98 97/97/97 
f 97/97/97 98/98/98 99/99/99 
f 98/98/98 98/98/98 99/99/99 
f 99/99/99 98/98/98 100/100/100 
f 98/98/98 98/98/98 100/100/100 
f 100/100/100 98/98/98 101/101/101 
f 98/98/98 102/102/102 101/101/101 
f 101/101/101 102/102/102 103/103/103 
f 102/102/102 102/102/102 103/103/103 
f 103/103/103 102/102/102 104/104/104 
f 102/102/102 102/102/102 104/104/104 
f 104/104/104 102/102/102 105/105/105 
f 102/102/102 106/106/106 105/105/105 
f 105/105/105 106/106/106 107/107/107 
f 106/106/106 106/106/106 107/107/107 
f 107/107/107 106/106/106 108/108/108 
f 106/106/106 106/106/106 108/108/108 
f 108/108/108 106/106/106 109/109/109 
f 106/106/106 110/110/110 109/109/109 
f 109/109/109 110/110/110 111/111/111 
f 110/110/110 110/110/110 111/111/111 
f 111/111/111 110/110/110 112/112/112 
f 110/110/110 113/113/113 112/112/112 
f 112/112/112 113/113/113 114/114/114 
f 113/113/113 113/113/113 114/114/114 
f 114/114/114 113/113/113 115/115/115 
f 113/113/113 94/94/94 115/115/115 
f 115/115/115 94/94/94 95/95/95 
f 94/94/94 95/95/95 95/95/95 
f 95/95/95 95/95/95 94/94/94 
f 95/95/95 94/94/94 94/94/94 
f 94/94/94 94/94/94 116/116/116 
f 94/94/94 113/113/113 116/116/116 
f 116/116/116 113/113/113 117/117/117 
f 113/113/113 84/84/84 117/117/117 
f 117/117/117 84/84/84 118/118/118 
f 84/84/84 84/84/84 118/118/118 
f 118/118/118 84/84/84 119/119/119 
f 84/84/84 83/83/83 119/119/119 
f 119/119/119 83/83/83 83/83/83 
f 83/83/83 106/106/106 83/83/83 
f 83/83/83 106/106/106 106/106/106 
f 106/106/106 102/102/102 106/106/106 
f 106/106/106 102/102/102 120/120/120 
f 102/102/102 121/121/121 120/120/120 
f 120/120/120 121/121/121 122/122/122 
f 121/121/121 121/121/121 122/122/122 
f 122/122/122 121/121/121 123/123/123 
f 121/121/121 121/121/121 123/123/123 
f 123/123/123 121/121/121 124/124/124 
f 121/121/121 125/125/125 124/124/124 
f 124/124/124 125/125/125 126/126/126 
f 125/125/125 127/127/127 126/126/126 
f 126/126/126 127/127/127 127/127/127 
f 127/127/127 122/122/122 127/127/127 
f 127/127/127 122/122/122 122/122/122 
f 122/122/122 128/128/128 122/122/122 
f 122/122/122 128/128/128 120/120/120 
f 128/128/128 129/129/129 120/120/120 
f 120/120/120 129/129/129 120/120/120 
f 129/129/129 130/130/130 120/120/120 
f 120/120/120 130/130/130 131/131/131 
f 130/130/130 132/132/132 131/131/131 
f 131/131/131 132/132/132 132/132/132 
f 132/132/132 133/133/133 132/132/132 
f 132/132/132 133/133/133 133/133/133 
f 133/133/133 134/134/134 133/133/133 
f 133/133/133 134/134/134 135/135/135 
f 134/134/134 136/136/136 135/135/135 
f 135/135/135 136/136/136 137/137/137 
f 136/136/136 138/138/138 137/137/137 
f 137/137/137 138/138/138 137/137/137 
f 138/138/138 139/139/139 137/137/137 
f 137/137/137 139/139/139 137/137/137 
f 139/139/139 140/140/140 137/137/137 
f 137/137/137 140/140/140 141/141/141 
f 140/140/140 142/142/142 141/141/141 
f 141/141/141 142/142/142 143/143/143 
f 142/142/142 144/144/144 143/143/143 
f 143/143/143 144/144/144 145/145/145 
f 144/144/144 146/146/146 145/145/145 
f 145/145/145 146/146/146 145/145/145 
f 146/146/146 147/147/147 145/145/145 
f 145/145/145 147/147/147 148/148/148 
f 147/147/147 149/149/149 148/148/148 
f 148/148/148 149/149/149 148/148/148 
f 149/149/149 150/150/150 148/148/148 
f 148/148/148 150/150/150 151/151/151 
f 150/150/150 152/152/152 151/151/151 
f 151/151/151 152/152/152 153/153/153 
f 152/152/152 154/154/154 153/153/153 
f 153/153/153 154/154/154 153/153/153 
f 154/154/154 155/155/155 153/153/153 
f 153/153/153 155/155/155 156/156/156 
f 155/155/155 157/157/157 156/156/156 
f 156/156/156 157/157/157 156/156/156 
f 157/157/157 158/158/158 156/156/156 
f 156/156/156 158/158/158 156/156/156 
f 158/158/158 134/134/134 156/156/156 
f 156/156/156 134/134/134 159/159/159 
f 134/134/134 160/160/160 159/159/159 
f 159/159/159 160/160/160 159/159/159 
f 160/160/160 161/161/161 159/159/159 
f 159/159/159 161/161/161 159/159/159 
f 161/161/161 162/162/162 159/159/159 
f 159/159/159 162/162/162 159/159/159 
f 162/162/162 163/163/163 159/159/159 
f 159/159/159 163/163/163 164/164/164 
f 163/163/163 165/165/165 164/164/164 
f 164/164/164 165/165/165 164/164/164 
f 165/165/165 166/166/166 164/164/164 
f 164/164/164 166/166/166 164/164/164 
f 166/166/166 167/167/167 164/164/164 
f 164/164/164 167/167/167 168/168/168 
f 167/167/167 169/169/169 168/168/168 
f 168/168/168 169/169/169 168/168/168 
f 169/169/169 170/170/170 168/168/168 
f 168/168/168 170/170/170 168/168/168 
f 170/170/170 171/171/171 168/168/168 
f 168/168/168 171/171/171 168/168/168 
f 171/171/171 172/172/172 168/168/168 
f 168/168/168 172/172/172 168/168/168 
f 172/172/172 173/173/173 168/168/168 
f 168/168/168 173/173/173 174/174/174 
f 173/173/173 141/141/141 174/174/174 
f 174/174/174 141/141/141 175/175/175 
f 141/141/141 143/143/143 175/175/175 
f 175/175/175 143/143/143 143/143/143 
f 143/143/143 176/176/176 143/143/143 
f 143/143/143 176/176/176 176/176/176 
f 176/176/176 148/148/148 176/176/176 
f 176/176/176 148/148/148 151/151/151 
f 148/148/148 151/151/151 151/151/151 
f 151/151/151 151/151/151 133/133/133 
f 151/151/151 133/133/133 133/133/133 
f 133/133/133 133/133/133 134/134/134 
f 133/133/133 160/160/160 134/134/134 
f 134/134/134 160/160/160 160/160/160 
f 160/160/160 174/174/174 160/160/160 
f 160/160/160 174/174/174 174/174/174 
f 174/174/174 177/177/177 174/174/174 
f 174/174/174 177/177/177 168/168/168 
f 177/177/177 178/178/178 168/168/168 
f 168/168/168 178/178/178 179/179/179 
f 178/178/178 179/179/179 179/179/179 
f 179/179/179 179/179/179 178/178/178 
f 179/179/179 178/178/178 178/178/178 
f 178/178/178 178/178/178 180/180/180 
f 178/178/178 177/177/177 180/180/180 
f 180/180/180 177/177/177 181/181/181 
f 177/177/177 182/182/182 181/181/181 
f 181/181/181 182/182/182 183/183/183 
f 182/182/182 182/182/182 183/183/183 
f 183/183/183 182/182/182 184/184/184 
f 182/182/182 185/185/185 184/184/184 
f 184/184/184 185/185/185 186/186/186 
f 185/185/185 185/185/185 186/186/186 
f 186/186/186 185/185/185 187/187/187 
f 185/185/185 188/188/188 187/187/187 
f 187/187/187 188/188/188 187/187/187 
f 188/188/188 189/189/189 187/187/187 
f 187/187/187 189/189/189 190/190/190 
f 189/189/189 189/189/189 190/190/190 
f 190/190/190 189/189/189 191/191/191 
f 189/189/189 189/189/189 191/191/191 
f 191/191/191 189/189/189 192/192/192 
f 189/189/189 189/189/189 192/192/192 
f 192/192/192 189/189/189 193/193/193 
f 189/189/189 194/194/194 193/193/193 
f 193/193/193 194/194/194 195/195/195 
f 194/194/194 194/194/194 195/195/195 
f 195/195/195 194/194/194 196/196/196 
f 194/194/194 194/194/194 196/196/196 
f 196/196/196 194/194/194 197/197/197 
f 194/194/194 198/198/198 197/197/197 
f 197/197/197 198/198/198 199/199/199 
f 198/198/198 198/198/198 199/199/199 
f 199/199/199 198/198/198 179/179/179 
f 198/198/198 168/168/168 179/179/179 
f 179/179/179 168/168/168 168/168/168 
f 168/168/168 185/185/185 168/168/168 
f 168/168/168 185/185/185 185/185/185 
f 185/185/185 200/200/200 185/185/185 
f 185/185/185 200/200/200 188/188/188 
f 200/200/200 201/201/201 188/188/188 
f 188/188/188 201/201/201 188/188/188 
f 201/201/201 202/202/202 188/188/188 
f 188/188/188 202/202/202 188/188/188 
f 202/202/202 203/203/203 188/188/188 
f 188/188/188 203/203/203 204/204/204 
f 203/203/203 204/204/204 204/204/204 
f 204/204/204 204/204/204 201/201/201 
f 204/204/204 201/201/201 201/201/201 
f 201/201/201 201/201/201 205/205/205 
f 201/201/201 200/200/200 205/205/205 
f 205/205/205 200/200/200 206/206/206 
f 200/200/200 207/207/207 206/206/206 
f 206/206/206 207/207/207 208/208/208 
f 207/207/207 207/207/207 208/208/208 
f 208/208/208 207/207/207 209/209/209 
f 207/207/207 210/210/210 209/209/209 
f 209/209/209 210/210/210 211/211/211 
f 210/210/210 212/212/212 211/211/211 
f 211/211/211 212/212/212 213/213/213 
f 212/212/212 212/212/212 213/213/213 
f 213/213/213 212/212/212 214/214/214 
f 212/212/212 212/212/212 214/214/214 
f 214/214/214 212/212/212 215/215/215 
f 212/212/212 216/216/216 215/215/215 
f 215/215/215 216/216/216 215/215/215 
f 216/216/216 217/217/217 215/215/215 
f 215/215/215 217/217/217 215/215/215 
f 217/217/217 218/218/218 215/215/215 
f 215/215/215 218/218/218 215/215/215 
f 218/218/218 219/219/219 215/215/215 
f 215/215/215 219/219/219 215/215/215 
f 219/219/219 220/220/220 215/215/215 
f 215/215/215 220/220/220 221/221/221 
f 220/220/220 220/220/220 221/221/221 
f 221/221/221 220/220/220 222/222/222 
f 220/220/220 220/220/220 222/222/222 
f 222/222/222 220/220/220 223/223/223 
f 220/220/220 220/220/220 223/223/223 
f 223/223/223 220/220/220 224/224/224 
f 220/220/220 220/220/220 224/224/224 
f 224/224/224 220/220/220 204/204/204 
f 220/220/220 188/188/188 204/204/204 
f 204/204/204 188/188/188 188/188/188 
f 188/188/188 210/210/210 188/188/188 
f 188/188/188 210/210/210 210/210/210 
f 210/210/210 225/225/225 210/210/210 
f 210/210/210 225/225/225 212/212/212 
f 225/225/225 212/212/212 212/212/212 
f 212/212/212 212/212/212 220/220/220 
f 212/212/212 220/220/220 220/220/220 
f 220/220/220 220/220/220 226/226/226 
f 220/220/220 219/219/219 226/226/226 
f 226/226/226 219/219/219 226/226/226 
f 219/219/219 227/227/227 226/226/226 
f 226/226/226 227/227/227 226/226/226 
f 227/227/227 228/228/228 226/226/226 
f 226/226/226 228/228/228 226/226/226 
f 228/228/228 229/229/229 226/226/226 
f 226/226/226 229/229/229 226/226/226 
f 229/229/229 230/230/230 226/226/226 
f 226/226/226 230/230/230 231/231/231 
f 230/230/230 232/232/232 231/231/231 
f 231/231/231 232/232/232 231/231/231 
f 232/232/232 233/233/233 231/231/231 
f 231/231/231 233/233/233 231/231/231 
f 233/233/233 234/234/234 231/231/231 
f 231/231/231 234/234/234 235/235/235 
f 234/234/234 236/236/236 235/235/235 
f 235/235/235 236/236/236 235/235/235 
f 236/236/236 237/237/237 235/235/235 
f 235/235/235 237/237/237 238/238/238 
f 237/237/237 239/239/239 238/238/238 
f 238/238/238 239/239/239 240/240/240 
f 239/239/239 241/241/241 240/240/240 
f 240/240/240 241/241/241 240/240/240 
f 241/241/241 212/212/212 240/240/240 
f 240/240/240 212/212/212 225/225/225 
f 212/212/212 225/225/225 225/225/225 
f 225/225/225 225/225/225 240/240/240 
f 225/225/225 240/240/240 240/240/240 
f 240/240/240 240/240/240 238/238/238 
f 240/240/240 242/242/242 238/238/238 
f 238/238/238 242/242/242 243/243/243 
f 242/242/242 242/242/242 243/243/243 
f 243/243/243 242/242/242 244/244/244 
f 242/242/242 242/242/242 244/244/244 
f 244/244/244 242/242/242 245/245/245 
f 242/242/242 242/242/242 245/245/245 
f 245/245/245 242/242/242 246/246/246 
f 242/242/242 247/247/247 246/246/246 
f 246/246/246 247/247/247 248/248/248 
f 247/247/247 248/248/248 248/248/248 
f 248/248/248 248/248/248 243/243/243 
f 248/248/248 243/243/243 243/243/243 
f 243/243/243 243/243/243 238/238/238 
f 243/243/243 249/249/249 238/238/238 
f 238/238/238 249/249/249 238/238/238 
f 249/249/249 250/250/250 238/238/238 
f 238/238/238 250/250/250 251/251/251 
f 250/250/250 252/252/252 251/251/251 
f 251/251/251 252/252/252 253/253/253 
f 252/252/252 253/253/253 253/253/253 
f 253/253/253 253/253/253 254/254/254 
f 253/253/253 254/254/254 254/254/254 
f 254/254/254 254/254/254 255/255/255 
f 254/254/254 256/256/256 255/255/255 
f 255/255/255 256/256/256 255/255/255 
f 256/256/256 176/176/176 255/255/255 
f 255/255/255 176/176/176 257/257/257 
f 176/176/176 176/176/176 257/257/257 
f 257/257/257 176/176/176 258/258/258 
f 176/176/176 176/176/176 258/258/258 
f 258/258/258 176/176/176 259/259/259 
f 176/176/176 151/151/151 259/259/259 
f 259/259/259 151/151/151 260/260/260 
f 151/151/151 151/151/151 260/260/260 
f 260/260/260 151/151/151 261/261/261 
f 151/151/151 262/262/262 261/261/261 
f 261/261/261 262/262/262 263/263/263 
f 262/262/262 264/264/264 263/263/263 
f 263/263/263 264/264/264 264/264/264 
f 264/264/264 265/265/265 264/264/264 
f 264/264/264 265/265/265 265/265/265 
f 265/265/265 266/266/266 265/265/265 
f 265/265/265 266/266/266 267/267/267 
f 266/266/266 268/268/268 267/267/267 
f 267/267/267 268/268/268 269/269/269 
f 268/268/268 270/270/270 269/269/269 
f 269/269/269 270/270/270 271/271/271 
f 270/270/270 272/272/272 271/271/271 
f 271/271/271 272/272/272 273/273/273 
f 272/272/272 274/274/274 273/273/273 
f 273/273/273 274/274/274 273/273/273 
f 274/274/274 275/275/275 273/273/273 
f 273/273/273 275/275/275 276/276/276 
f 275/275/275 277/277/277 276/276/276 
f 276/276/276 277/277/277 278/278/278 
f 277/277/277 279/279/279 278/278/278 
f 278/278/278 279/279/279 280/280/280 
f 279/279/279 281/281/281 280/280/280 
f 280/280/280 281/281/281 282/282/282 
f 281/281/281 282/282/282 282/282/282 
f 282/282/282 282/282/282 283/283/283 
f 282/282/282 283/283/283 283/283/283 
f 283/283/283 283/283/283 284/284/284 
f 283/283/283 285/285/285 284/284/284 
f 284/284/284 285/285/285 286/286/286 
f 285/285/285 287/287/287 286/286/286 
f 286/286/286 287/287/287 288/288/288 
f 287/287/287 289/289/289 288/288/288 
f 288/288/288 289/289/289 290/290/290 
f 289/289/289 291/291/291 290/290/290 
f 290/290/290 291/291/291 292/292/292 
f 291/291/291 293/293/293 292/292/292 
f 292/292/292 293/293/293 294/294/294 
f 293/293/293 293/293/293 294/294/294 
f 294/294/294 293/293/293 295/295/295 
f 293/293/293 296/296/296 295/295/295 
f 295/295/295 296/296/296 297/297/297 
f 296/296/296 298/298/298 297/297/297 
f 297/297/297 298/298/298 299/299/299 
f 298/298/298 300/300/300 299/299/299 
f 299/299/299 300/300/300 300/300/300 
f 300/300/300 301/301/301 300/300/300 
f 300/300/300 301/301/301 301/301/301 
f 301/301/301 302/302/302 301/301/301 
f 301/301/301 302/302/302 303/303/303 
f 302/302/302 304/304/304 303/303/303 
f 303/303/303 304/304/304 304/304/304 
f 304/304/304 301/301/301 304/304/304 
f 304/304/304 301/301/301 301/301/301 
f 301/301/301 303/303/303 301/301/301 
f 301/301/301 303/303/303 305/305/305 
f 303/303/303 306/306/306 305/305/305 
f 305/305/305 306/306/306 307/307/307 
f 306/306/306 308/308/308 307/307/307 
f 307/307/307 308/308/308 307/307/307 
f 308/308/308 309/309/309 307/307/307 
f 307/307/307 309/309/309 310/310/310 
f 309/309/309 309/309/309 310/310/310 
f 310/310/310 309/309/309 311/311/311 
f 309/309/309 312/312/312 311/311/311 
f 311/311/311 312/312/312 313/313/313 
f 312/312/312 314/314/314 313/313/313 
f 313/313/313 314/314/314 315/315/315 
f 314/314/314 316/316/316 315/315/315 
f 315/315/315 316/316/316 315/315/315 
f 316/316/316 317/317/317 315/315/315 
f 315/315/315 317/317/317 318/318/318 
f 317/317/317 319/319/319 318/318/318 
f 318/318/318 319/319/319 320/320/320 
f 319/319/319 321/321/321 320/320/320 
f 320/320/320 321/321/321 322/322/322 
f 321/321/321 323/323/323 322/322/322 
f 322/322/322 323/323/323 324/324/324 
f 323/323/323 325/325/325 324/324/324 
f 324/324/324 325/325/325 326/326/326 
f 325/325/325 327/327/327 326/326/326 
f 326/326/326 327/327/327 328/328/328 
f 327/327/327 327/327/327 328/328/328 
f 328/328/328 327/327/327 329/329/329 
f 327/327/327 330/330/330 329/329/329 
f 329/329/329 330/330/330 329/329/329 
f 330/330/330 304/304/304 329/329/329 
f 329/329/329 304/304/304 302/302/302 
f 304/304/304 302/302/302 302/302/302 
f 302/302/302 302/302/302 331/331/331 
f 302/302/302 331/331/331 331/331/331 
f 331/331/331 331/331/331 332/332/332 
f 331/331/331 333/333/333 332/332/332 
f 332/332/332 333/333/333 334/334/334 
f 333/333/333 334/334/334 334/334/334 
f 334/334/334 334/334/334 331/331/331 
f 334/334/334 331/331/331 331/331/331 
f 331/331/331 331/331/331 333/333/333 
f 331/331/331 335/335/335 333/333/333 
f 333/333/333 335/335/335 336/336/336 
f 335/335/335 337/337/337 336/336/336 
f 336/336/336 337/337/337 338/338/338 
f 337/337/337 339/339/339 338/338/338 
f 338/338/338 339/339/339 340/340/340 
f 339/339/339 341/341/341 340/340/340 
f 340/340/340 341/341/341 342/342/342 
f 341/341/341 343/343/343 342/342/342 
f 342/342/342 343/343/343 344/344/344 
f 343/343/343 343/343/343 344/344/344 
f 344/344/344 343/343/343 345/345/345 
f 343/343/343 346/346/346 345/345/345 
f 345/345/345 346/346/346 347/347/347 
f 346/346/346 348/348/348 347/347/347 
f 347/347/347 348/348/348 349/349/349 
f 348/348/348 350/350/350 349/349/349 
f 349/349/349 350/350/350 351/351/351 
f 350/350/350 352/352/352 351/351/351 
f 351/351/351 352/352/352 351/351/351 
f 352/352/352 353/353/353 351/351/351 
f 351/351/351 353/353/353 354/354/354 
f 353/353/353 355/355/355 354/354/354 
f 354/354/354 355/355/355 356/356/356 
f 355/355/355 357/357/357 356/356/356 
f 356/356/356 357/357/357 358/358/358 
f 357/357/357 359/359/359 358/358/358 
f 358/358/358 359/359/359 360/360/360 
f 359/359/359 359/359/359 360/360/360 
f 360/360/360 359/359/359 334/334/334 
f 359/359/359 332/332/332 334/334/334 
f 334/334/334 332/332/332 332/332/332 
f 332/332/332 361/361/361 332/332/332 
f 332/332/332 361/361/361 361/361/361 
f 361/361/361 362/362/362 361/361/361 
f 361/361/361 362/362/362 363/363/363 
f 362/362/362 362/362/362 363/363/363 
f 363/363/363 362/362/362 364/364/364 
f 362/362/362 365/365/365 364/364/364 
f 364/364/364 365/365/365 366/366/366 
f 365/365/365 367/367/367 366/366/366 
f 366/366/366 367/367/367 368/368/368 
f 367/367/367 369/369/369 368/368/368 
f 368/368/368 369/369/369 370/370/370 
f 369/369/369 371/371/371 370/370/370 
f 370/370/370 371/371/371 372/372/372 
f 371/371/371 371/371/371 372/372/372 
f 372/372/372 371/371/371 373/373/373 
f 371/371/371 374/374/374 373/373/373 
f 373/373/373 374/374/374 375/375/375 
f 374/374/374 376/376/376 375/375/375 
f 375/375/375 376/376/376 377/377/377 
f 376/376/376 378/378/378 377/377/377 
f 377/377/377 378/378/378 377/377/377 
f 378/378/378 379/379/379 377/377/377 
f 377/377/377 379/379/379 380/380/380 
f 379/379/379 379/379/379 380/380/380 
f 380/380/380 379/379/379 381/381/381 
f 379/379/379 382/382/382 381/381/381 
f 381/381/381 382/382/382 383/383/383 
f 382/382/382 384/384/384 383/383/383 
f 383/383/383 384/384/384 383/383/383 
f 384/384/384 385/385/385 383/383/383 
f 383/383/383 385/385/385 386/386/386 
f 385/385/385 387/387/387 386/386/386 
f 386/386/386 387/387/387 388/388/388 
f 387/387/387 387/387/387 388/388/388 
f 388/388/388 387/387/387 389/389/389 
f 387/387/387 390/390/390 389/389/389 
f 389/389/389 390/390/390 389/389/389 
f 390/390/390 361/361/361 389/389/389 
f 389/389/389 361/361/361 363/363/363 
f 361/361/361 363/363/363 363/363/363 
f 363/363/363 363/363/363 391/391/391 
f 363/363/363 391/391/391 391/391/391 
f 391/391/391 391/391/391 392/392/392 
f 391/391/391 393/393/393 392/392/392 
f 392/392/392 393/393/393 392/392/392 
f 393/393/393 394/394/394 392/392/392 
f 392/392/392 394/394/394 395/395/395 
f 394/394/394 394/394/394 395/395/395 
f 395/395/395 394/394/394 396/396/396 
f 394/394/394 397/397/397 396/396/396 
f 396/396/396 397/397/397 398/398/398 
f 397/397/397 399/399/399 398/398/398 
f 398/398/398 399/399/399 400/400/400 
f 399/399/399 401/401/401 400/400/400 
f 400/400/400 401/401/401 400/400/400 
f 401/401/401 402/402/402 400/400/400 
f 400/400/400 402/402/402 403/403/403 
f 402/402/402 402/402/402 403/403/403 
f 403/403/403 402/402/402 404/404/404 
f 402/402/402 405/405/405 404/404/404 
f 404/404/404 405/405/405 406/406/406 
f 405/405/405 407/407/407 406/406/406 
f 406/406/406 407/407/407 408/408/408 
f 407/407/407 409/409/409 408/408/408 
f 408/408/408 409/409/409 410/410/410 
f 409/409/409 411/411/411 410/410/410 
f 410/410/410 411/411/411 410/410/410 
f 411/411/411 412/412/412 410/410/410 
f 410/410/410 412/412/412 413/413/413 
f 412/412/412 414/414/414 413/413/413 
f 413/413/413 414/414/414 415/415/415 
f 414/414/414 414/414/414 415/415/415 
f 415/415/415 414/414/414 416/416/416 
f 414/414/414 417/417/417 416/416/416 
f 416/416/416 417/417/417 416/416/416 
f 417/417/417 418/418/418 416/416/416 
f 416/416/416 418/418/418 419/419/419 
f 418/418/418 391/391/391 419/419/419 
f 419/419/419 391/391/391 420/420/420 
f 391/391/391 392/392/392 420/420/420 
f 420/420/420 392/392/392 392/392/392 
f 392/392/392 421/421/421 392/392/392 
f 392/392/392 421/421/421 421/421/421 
f 421/421/421 422/422/422 421/421/421 
f 421/421/421 422/422/422 423/423/423 
f 422/422/422 424/424/424 423/423/423 
f 423/423/423 424/424/424 424/424/424 
f 424/424/424 422/422/422 424/424/424 
f 424/424/424 422/422/422 422/422/422 
f 422/422/422 421/421/421 422/422/422 
f 422/422/422 421/421/421 425/425/425 
f 421/421/421 426/426/426 425/425/425 
f 425/425/425 426/426/426 427/427/427 
f 426/426/426 428/428/428 427/427/427 
f 427/427/427 428/428/428 429/429/429 
f 428/428/428 430/430/430 429/429/429 
f 429/429/429 430/430/430 431/431/431 
f 430/430/430 430/430/430 431/431/431 
f 431/431/431 430/430/430 432/432/432 
f 430/430/430 433/433/433 432/432/432 
f 432/432/432 433/433/433 432/432/432 
f 433/433/433 434/434/434 432/432/432 
f 432/432/432 434/434/434 435/435/435 
f 434/434/434 436/436/436 435/435/435 
f 435/435/435 436/436/436 437/437/437 
f 436/436/436 436/436/436 437/437/437 
f 437/437/437 436/436/436 438/438/438 
f 436/436/436 439/439/439 438/438/438 
f 438/438/438 439/439/439 440/440/440 
f 439/439/439 441/441/441 440/440/440 
f 440/440/440 441/441/441 440/440/440 
f 441/441/441 442/442/442 440/440/440 
f 440/440/440 442/442/442 443/443/443 
f 442/442/442 442/442/442 443/443/443 
f 443/443/443 442/442/442 444/444/444 
f 442/442/442 445/445/445 444/444/444 
f 444/444/444 445/445/445 446/446/446 
f 445/445/445 447/447/447 446/446/446 
f 446/446/446 447/447/447 448/448/448 
f 447/447/447 449/449/449 448/448/448 
f 448/448/448 449/449/449 448/448/448 
f 449/449/449 450/450/450 448/448/448 
f 448/448/448 450/450/450 424/424/424 
f 450/450/450 423/423/423 424/424/424 

