mtllib model_1.mtl
o model_1
v -1.4550000429153442 -0.11550399661064148 0 
v -1.4029639959335327 -0.10156100243330002 0 
v -1.455456018447876 -0.11560399830341339 0.0022960000205785036 
v -1.4029639959335327 -0.09382999688386917 0.03886500000953674 
v -1.4567569494247437 -0.11589699983596802 0.0042420001700520515 
v -1.4587030410766602 -0.11636500060558319 0.005543000064790249 
v -1.476999044418335 -0.11215800046920776 0.04645700007677078 
v -1.4609990119934082 -0.11695799976587296 0.006000000052154064 
v -1.4632960557937622 -0.11759600043296814 0.005543000064790249 
v -1.4652420282363892 -0.11817199736833572 0.0042420001700520515 
v -1.4665429592132568 -0.11857499927282333 0.0022960000205785036 
v -1.476999044418335 -0.12139900028705597 0 
v -1.4670000076293945 -0.11871899664402008 0 
v -1.4017770290374756 -0.09333299845457077 0.03866000100970268 
v -1.4017770290374756 -0.10102300345897675 0 
v -1.4008259773254395 -0.09250999987125397 0.038318999111652374 
v -1.4008259773254395 -0.1001330018043518 0 
v -1.400212049484253 -0.09144899994134903 0.03787900134921074 
v -1.400212049484253 -0.09898299723863602 0 
v -1.3999990224838257 -0.09026099741458893 0.037386998534202576 
v -1.3999990224838257 -0.09769800305366516 0 
v -1.3999990224838257 -0.09149900078773499 0 
v -1.3999990224838257 -0.08453399688005447 0.03501499816775322 
v -1.3999990224838257 -0.06908199936151505 0.06908199936151505 
v -1.3999990224838257 -0.06469999998807907 0.06469999998807907 
v -1.400212049484253 -0.06999199837446213 0.06999199837446213 
v -1.4008259773254395 -0.07080399990081787 0.07080399990081787 
v -1.4017770290374756 -0.07143399864435196 0.07143399864435196 
v -1.4029639959335327 -0.07181400060653687 0.07181400060653687 
v -1.476999044418335 -0.08584199845790863 0.08584199845790863 
v -1.4029639959335327 -0.03886500000953674 0.09382999688386917 
v -1.476999044418335 -0.04645700007677078 0.11215800046920776 
v -1.4017770290374756 -0.03866000100970268 0.09333299845457077 
v -1.4008259773254395 -0.038318999111652374 0.09250999987125397 
v -1.400212049484253 -0.03787900134921074 0.09144899994134903 
v -1.3999990224838257 -0.037386998534202576 0.09026099741458893 
v -1.3999990224838257 -0.03501499816775322 0.08453399688005447 
v -1.3999990224838257 0 0.09769800305366516 
v -1.3999990224838257 0 0.09149900078773499 
v -1.400212049484253 0 0.09898299723863602 
v -1.4008259773254395 0 0.1001330018043518 
v -1.4017770290374756 0 0.10102300345897675 
v -1.4029639959335327 0 0.10156100243330002 
v -1.476999044418335 0 0.12139900028705597 
v -1.4029639959335327 0.03886500000953674 0.09382999688386917 
v -1.476999044418335 0.04645700007677078 0.11215800046920776 
v -1.4017770290374756 0.03866000100970268 0.09333299845457077 
v -1.4008259773254395 0.038318999111652374 0.09250999987125397 
v -1.400212049484253 0.03787900134921074 0.09144899994134903 
v -1.3999990224838257 0.037386998534202576 0.09026099741458893 
v -1.3999990224838257 0.03501499816775322 0.08453399688005447 
v -1.3999990224838257 0.06908199936151505 0.06908199936151505 
v -1.3999990224838257 0.06469999998807907 0.06469999998807907 
v -1.400212049484253 0.06999199837446213 0.06999199837446213 
v -1.4008259773254395 0.07080399990081787 0.07080399990081787 
v -1.4017770290374756 0.07143399864435196 0.07143399864435196 
v -1.4029639959335327 0.07181400060653687 0.07181400060653687 
v -1.476999044418335 0.08584199845790863 0.08584199845790863 
v -1.4303719997406006 0.08709999918937683 0.06537500023841858 
v -1.4328540563583374 0.08781000226736069 0.0655359998345375 
v -1.435014009475708 0.08903300017118454 0.0648529976606369 
v -1.4358500242233276 0.08976200222969055 0.06422500312328339 
v -1.43648099899292 0.09053400158882141 0.06342799961566925 
v -1.4368669986724854 0.09129700064659119 0.0625080019235611 
v -1.437000036239624 0.09202799946069717 0.06149100139737129 
v -1.476999044418335 0.11215800046920776 0.04645700007677078 
v -1.4368669986724854 0.09268900007009506 0.06042499840259552 
v -1.43648099899292 0.09324599802494049 0.05936900153756142 
v -1.435094952583313 0.0939669981598854 0.05751299858093262 
v -1.435014009475708 0.09398800134658813 0.05743800103664398 
v -1.4328540563583374 0.09415099769830704 0.056046001613140106 
v -1.4303719997406006 0.09373000264167786 0.055452000349760056 
v -1.4029639959335327 0.09382999688386917 0.03886500000953674 
v -1.4279990196228027 0.09280599653720856 0.05576099827885628 
v -1.426988959312439 0.09220000356435776 0.05623900145292282 
v -1.4261449575424194 0.0915210023522377 0.05691099911928177 
v -1.4255199432373047 0.09080500155687332 0.05773400142788887 
v -1.4251309633255005 0.09007100015878677 0.05868300050497055 
v -1.4249989986419678 0.08935199677944183 0.059707000851631165 
v -1.4251309633255005 0.08868400007486343 0.060756999999284744 
v -1.4255199432373047 0.08809000253677368 0.06179799884557724 
v -1.4261449575424194 0.08760199695825577 0.06277500092983246 
v -1.4269850254058838 0.08724299818277359 0.0636570006608963 
v -1.4279990196228027 0.08703199774026871 0.06440199911594391 
v -1.4017770290374756 0.09333299845457077 0.03866000100970268 
v -1.4008259773254395 0.09250999987125397 0.038318999111652374 
v -1.400212049484253 0.09144899994134903 0.03787900134921074 
v -1.3999990224838257 0.09026099741458893 0.037386998534202576 
v -1.3999990224838257 0.08453399688005447 0.03501499816775322 
v -1.3999990224838257 0.09769800305366516 0 
v -1.3999990224838257 0.09149900078773499 0 
v -1.400212049484253 0.09898299723863602 0 
v -1.4008259773254395 0.1001330018043518 0 
v -1.4017770290374756 0.10102300345897675 0 
v -1.3999990224838257 0.09026099741458893 -0.037386998534202576 
v -1.400212049484253 0.09144899994134903 -0.03787900134921074 
v -1.3999990224838257 0.06908199936151505 -0.06908199936151505 
v -1.3999990224838257 0.08453399688005447 -0.03501499816775322 
v -1.3999990224838257 0.06469999998807907 -0.06469999998807907 
v -1.4008259773254395 0.09250999987125397 -0.038318999111652374 
v -1.400212049484253 0.06999199837446213 -0.06999199837446213 
v -1.3999990224838257 0.037386998534202576 -0.09026099741458893 
v -1.3999990224838257 0.03501499816775322 -0.08453399688005447 
v -1.3999990224838257 0 -0.09769800305366516 
v -1.3999990224838257 0 -0.09149900078773499 
v -1.400212049484253 0.03787900134921074 -0.09144899994134903 
v -1.400212049484253 0 -0.09898299723863602 
v -1.4008259773254395 0.038318999111652374 -0.09250999987125397 
v -1.4008259773254395 0 -0.1001330018043518 
v -1.4017770290374756 0.03866000100970268 -0.09333299845457077 
v -1.4017770290374756 0 -0.10102300345897675 
v -1.4029639959335327 0.03886500000953674 -0.09382999688386917 
v -1.4029639959335327 0 -0.10156100243330002 
v -1.4008259773254395 0.07080399990081787 -0.07080399990081787 
v -1.4017770290374756 0.07143399864435196 -0.07143399864435196 
v -1.4017770290374756 0.09333299845457077 -0.03866000100970268 
v -1.4029639959335327 0.10156100243330002 0 
v -1.4029639959335327 0.07181400060653687 -0.07181400060653687 
v -1.4029639959335327 0.09382999688386917 -0.03886500000953674 
v -1.4249989986419678 0.08935199677944183 -0.059707000851631165 
v -1.4251309633255005 0.08868400007486343 -0.060756999999284744 
v -1.4255199432373047 0.08809000253677368 -0.06179799884557724 
v -1.4261449575424194 0.08760199695825577 -0.06277500092983246 
v -1.4269850254058838 0.08724299818277359 -0.0636570006608963 
v -1.4279990196228027 0.08703199774026871 -0.06440199911594391 
v -1.4303719997406006 0.08709999918937683 -0.06537500023841858 
v -1.476999044418335 0.08584199845790863 -0.08584199845790863 
v -1.4328540563583374 0.08781000226736069 -0.0655359998345375 
v -1.435014009475708 0.08903300017118454 -0.0648529976606369 
v -1.4358500242233276 0.08976200222969055 -0.06422500312328339 
v -1.43648099899292 0.09053400158882141 -0.06342799961566925 
v -1.4368669986724854 0.09129700064659119 -0.0625080019235611 
v -1.437000036239624 0.09202799946069717 -0.06149100139737129 
v -1.476999044418335 0.11215800046920776 -0.04645700007677078 
v -1.4368669986724854 0.09268900007009506 -0.06042499840259552 
v -1.43648099899292 0.09324599802494049 -0.05936900153756142 
v -1.435094952583313 0.0939669981598854 -0.05751299858093262 
v -1.435014009475708 0.09398800134658813 -0.05743800103664398 
v -1.4328540563583374 0.09415099769830704 -0.056046001613140106 
v -1.4303719997406006 0.09373000264167786 -0.055452000349760056 
v -1.4279990196228027 0.09280599653720856 -0.05576099827885628 
v -1.426988959312439 0.09220000356435776 -0.05623900145292282 
v -1.4261449575424194 0.0915210023522377 -0.05691099911928177 
v -1.4255199432373047 0.09080500155687332 -0.05773400142788887 
v -1.4251309633255005 0.09007100015878677 -0.05868300050497055 
v -1.4569870233535767 0.11595100164413452 -0.004459999967366457 
v -1.4579989910125732 0.11619199812412262 -0.00519599998369813 
v -1.460371971130371 0.1167910024523735 -0.005967000033706427 
v -1.462854027748108 0.11747000366449356 -0.00570600014179945 
v -1.4650139808654785 0.11810299754142761 -0.00445799995213747 
v -1.466088056564331 0.11843299865722656 -0.0031789999920874834 
v -1.476999044418335 0.12139900028705597 0 
v -1.4664809703826904 0.11855500191450119 -0.0024399999529123306 
v -1.4668680429458618 0.1186780035495758 -0.001247999956831336 
v -1.4670000076293945 0.11871899664402008 0 
v -1.4668669700622559 0.11867699772119522 0.0012509999796748161 
v -1.4664809703826904 0.11855500191450119 0.0024399999529123306 
v -1.4658520221710205 0.11835899949073792 0.0035290000960230827 
v -1.4650139808654785 0.11810299754142761 0.00445799995213747 
v -1.462854027748108 0.11747000366449356 0.00570600014179945 
v -1.460371971130371 0.1167910024523735 0.005967000033706427 
v -1.4579989910125732 0.11619199812412262 0.00519599998369813 
v -1.456989049911499 0.11595100164413452 0.004461999982595444 
v -1.4561450481414795 0.11575700342655182 0.0035260000731796026 
v -1.4555209875106812 0.11561799794435501 0.0024449999909847975 
v -1.4551310539245605 0.11553200334310532 0.0012469999492168427 
v -1.4550000429153442 0.11550399661064148 0 
v -1.4551310539245605 0.11553200334310532 -0.0012469999492168427 
v -1.4555200338363647 0.11561799794435501 -0.002443999983370304 
v -1.4561450481414795 0.11575700342655182 -0.0035260000731796026 
v -1.476999044418335 0 -0.12139900028705597 
v -1.476999044418335 0.04645700007677078 -0.11215800046920776 
v -1.4029639959335327 0 -0.10156100243330002 
vn 0.2612491250038147 -0.9652689099311829 0.002184694167226553 
vn 0.2612491250038147 -0.9652689099311829 0.002184694167226553 
vn 0.2611992359161377 -0.9650846719741821 0.01966099627315998 
vn 0.256908655166626 -0.89320969581604 0.3690181374549866 
vn 0.2610695958137512 -0.9646055698394775 0.03713129088282585 
vn 0.2594585418701172 -0.96466463804245 0.04586252197623253 
vn 0.256908655166626 -0.89320969581604 0.3690181374549866 
vn 0.2594040334224701 -0.9644619226455688 0.05022686347365379 
vn 0.2594585418701172 -0.96466463804245 0.04586252197623253 
vn 0.26110947132110596 -0.9647529721260071 0.03276457265019417 
vn 0.2611992359161377 -0.9650846719741821 0.01966099627315998 
vn 0.2612491250038147 -0.9652689099311829 0.002184694167226553 
vn 0.2612491250038147 -0.9652689099311829 0.002184694167226553 
vn 0.5529422760009766 -0.7694036364555359 0.3198012113571167 
vn 0.5555689334869385 -0.8314676284790039 0.002184694167226553 
vn 0.7914248704910278 -0.5656765103340149 0.23163928091526031 
vn 0.7918164730072021 -0.6107551455497742 0.002184694167226553 
vn 0.9466779232025146 -0.2972773015499115 0.1242060661315918 
vn 0.947733998298645 -0.31905397772789 0.002184694167226553 
vn 0.999997615814209 0 0.002184694167226553 
vn 0.999997615814209 0 0.002184694167226553 
vn 0.999997615814209 0 0.002184694167226553 
vn 0.999997615814209 0 0.002184694167226553 
vn 0.999997615814209 0 0.002184694167226553 
vn 0.999997615814209 0 0.002184694167226553 
vn 0.9476199746131897 -0.22430288791656494 0.22738653421401978 
vn 0.7957115173339844 -0.4274560213088989 0.42909738421440125 
vn 0.5584447979927063 -0.5864248275756836 0.5867242813110352 
vn 0.2580174207687378 -0.6819705963134766 0.6843559741973877 
vn 0.2580174207687378 -0.6819705963134766 0.6843559741973877 
vn 0.26123306155204773 -0.3672439455986023 0.8926864862442017 
vn 0.26123306155204773 -0.3672439455986023 0.8926864862442017 
vn 0.5562861561775208 -0.3168230652809143 0.7682244777679443 
vn 0.7945101261138916 -0.2307872474193573 0.5616858005523682 
vn 0.9466061592102051 -0.12049752473831177 0.2990269064903259 
vn 0.999997615814209 0 0.002184694167226553 
vn 0.999997615814209 0 0.002184694167226553 
vn 0.999997615814209 0 0.002184694167226553 
vn 0.999997615814209 0 0.002184694167226553 
vn 0.9474846720695496 0 0.3198012113571167 
vn 0.7941284775733948 0 0.607749879360199 
vn 0.5562512278556824 0 0.8310141563415527 
vn 0.2591707408428192 0 0.9658315181732178 
vn 0.2591707408428192 0 0.9658315181732178 
vn 0.26123306155204773 0.3672439455986023 0.8926864862442017 
vn 0.26123306155204773 0.3672439455986023 0.8926864862442017 
vn 0.5562861561775208 0.3168230652809143 0.7682244777679443 
vn 0.7945101261138916 0.2307872474193573 0.5616858005523682 
vn 0.9466061592102051 0.12049752473831177 0.2990269064903259 
vn 0.999997615814209 0 0.002184694167226553 
vn 0.999997615814209 0 0.002184694167226553 
vn 0.999997615814209 0 0.002184694167226553 
vn 0.999997615814209 0 0.002184694167226553 
vn 0.9476199746131897 0.22430288791656494 0.22738653421401978 
vn 0.7957115173339844 0.4274560213088989 0.42909738421440125 
vn 0.5584447979927063 0.5864248275756836 0.5867242813110352 
vn 0.2580174207687378 0.6819705963134766 0.6843559741973877 
vn 0.2580174207687378 0.6819705963134766 0.6843559741973877 
vn 0.2575429677963257 0.7731145024299622 0.5796254277229309 
vn 0.261184424161911 0.7745568752288818 0.5760593414306641 
vn 0.26130247116088867 0.7797950506210327 0.5688942670822144 
vn 0.2613990008831024 0.7849711179733276 0.5616858005523682 
vn 0.2614743113517761 0.7900846004486084 0.5544344186782837 
vn 0.2615286111831665 0.7951351404190063 0.5471406579017639 
vn 0.25798195600509644 0.8037528395652771 0.5361219048500061 
vn 0.256908655166626 0.89320969581604 0.3690181374549866 
vn 0.25798338651657104 0.8086375594139099 0.528724730014801 
vn 0.2615405321121216 0.8146992921829224 0.5175535082817078 
vn 0.259979784488678 0.8245505690574646 0.5025205612182617 
vn 0.259979784488678 0.8245505690574646 0.5025205612182617 
vn 0.2598915696144104 0.8291469216346741 0.4949462115764618 
vn 0.26198819279670715 0.8307459950447083 0.4911448359489441 
vn 0.256908655166626 0.89320969581604 0.3690181374549866 
vn 0.2563377916812897 0.8279802203178406 0.4987381398677826 
vn 0.259979784488678 0.8245505690574646 0.5025205612182617 
vn 0.2600487172603607 0.8198884129524231 0.5100564956665039 
vn 0.2615405321121216 0.8146992921829224 0.5175535082817078 
vn 0.25798338651657104 0.8086375594139099 0.528724730014801 
vn 0.25798195600509644 0.8037528395652771 0.5361219048500061 
vn 0.2615286111831665 0.7951351404190063 0.5471406579017639 
vn 0.2614743113517761 0.7900846004486084 0.5544344186782837 
vn 0.2613990008831024 0.7849711179733276 0.5616858005523682 
vn 0.26130247116088867 0.7797950506210327 0.5688942670822144 
vn 0.261184424161911 0.7745568752288818 0.5760593414306641 
vn 0.5529422760009766 0.7694036364555359 0.3198012113571167 
vn 0.7914248704910278 0.5656765103340149 0.23163928091526031 
vn 0.9466779232025146 0.2972773015499115 0.1242060661315918 
vn 0.999997615814209 0 0.002184694167226553 
vn 0.999997615814209 0 0.002184694167226553 
vn 0.999997615814209 0 0.002184694167226553 
vn 0.999997615814209 0 0.002184694167226553 
vn 0.947733998298645 0.31905397772789 0.002184694167226553 
vn 0.7918164730072021 0.6107551455497742 0.002184694167226553 
vn 0.5555689334869385 0.8314676284790039 0.002184694167226553 
vn 0.999997615814209 0 0.002184694167226553 
vn 0.9466779232025146 0.2972773015499115 -0.1242060661315918 
vn 0.999997615814209 0 0.002184694167226553 
vn 0.999997615814209 0 0.002184694167226553 
vn 0.999997615814209 0 0.002184694167226553 
vn 0.7953649163246155 0.560123085975647 -0.23163928091526031 
vn 0.9475555419921875 0.22457478940486908 -0.22738653421401978 
vn 0.999997615814209 0 0.002184694167226553 
vn 0.999997615814209 0 0.002184694167226553 
vn 0.999997615814209 0 0.002184694167226553 
vn 0.999997615814209 0 0.002184694167226553 
vn 0.9466061592102051 0.12049752473831177 -0.2990269064903259 
vn 0.9474846720695496 0 -0.3198012113571167 
vn 0.7944152355194092 0.23111368715763092 -0.5616858005523682 
vn 0.7941284775733948 0 -0.607749879360199 
vn 0.5556684732437134 0.3179051876068115 -0.7682244777679443 
vn 0.5562512278556824 0 -0.8310141563415527 
vn 0.260299414396286 0.3679063022136688 -0.8926864862442017 
vn 0.2591707408428192 0 -0.9658315181732178 
vn 0.7954307198524475 0.4279782474040985 -0.42909738421440125 
vn 0.557739794254303 0.5870953798294067 -0.5867242813110352 
vn 0.5581392049789429 0.7656421065330505 -0.3198012113571167 
vn 0.2612491250038147 0.9652689099311829 0.002184694167226553 
vn 0.2552940249443054 0.6829947829246521 -0.6843559741973877 
vn 0.2554168403148651 0.8936374187469482 -0.3690181374549866 
vn 0.2565386891365051 0.8042146563529968 -0.5361219048500061 
vn 0.2600966989994049 0.7956047058105469 -0.5471406579017639 
vn 0.2600453495979309 0.7905560731887817 -0.5544344186782837 
vn 0.2599731385707855 0.7854444980621338 -0.5616858005523682 
vn 0.25987985730171204 0.7802702784538269 -0.5688942670822144 
vn 0.2597652077674866 0.7750339508056641 -0.5760593414306641 
vn 0.2561180591583252 0.773587703704834 -0.5796254277229309 
vn 0.2552940249443054 0.6829947829246521 -0.6843559741973877 
vn 0.2597652077674866 0.7750339508056641 -0.5760593414306641 
vn 0.25987985730171204 0.7802702784538269 -0.5688942670822144 
vn 0.2599731385707855 0.7854444980621338 -0.5616858005523682 
vn 0.2600453495979309 0.7905560731887817 -0.5544344186782837 
vn 0.2600966989994049 0.7956047058105469 -0.5471406579017639 
vn 0.2565386891365051 0.8042146563529968 -0.5361219048500061 
vn 0.2554168403148651 0.8936374187469482 -0.3690181374549866 
vn 0.256537526845932 0.809097409248352 -0.528724730014801 
vn 0.2600981891155243 0.815160870552063 -0.5175535082817078 
vn 0.2585282623767853 0.8250067830085754 -0.5025205612182617 
vn 0.2585282623767853 0.8250067830085754 -0.5025205612182617 
vn 0.2584381103515625 0.8296011090278625 -0.4949462115764618 
vn 0.26198819279670715 0.8307459950447083 -0.4911448359489441 
vn 0.2620879113674164 0.8261780738830566 -0.4987381398677826 
vn 0.2585282623767853 0.8250067830085754 -0.5025205612182617 
vn 0.25859928131103516 0.8203467130661011 -0.5100564956665039 
vn 0.2600981891155243 0.815160870552063 -0.5175535082817078 
vn 0.256537526845932 0.809097409248352 -0.528724730014801 
vn 0.2610695958137512 0.9646055698394775 -0.03713129088282585 
vn 0.26102471351623535 0.9644397497177124 -0.04149730131030083 
vn 0.2594040334224701 0.9644619226455688 -0.05022686347365379 
vn 0.2594585418701172 0.96466463804245 -0.04586252197623253 
vn 0.2610695958137512 0.9646055698394775 -0.03713129088282585 
vn 0.2611743211746216 0.9649925231933594 -0.024029340595006943 
vn 0.2612491250038147 0.9652689099311829 0.002184694167226553 
vn 0.2611992359161377 0.9650846719741821 -0.01966099627315998 
vn 0.2612341642379761 0.9652136564254761 -0.010923261754214764 
vn 0.2612491250038147 0.9652689099311829 0.002184694167226553 
vn 0.2612341642379761 0.9652136564254761 0.010923261754214764 
vn 0.2611992359161377 0.9650846719741821 0.01966099627315998 
vn 0.26114439964294434 0.964881956577301 0.028397228568792343 
vn 0.2610695958137512 0.9646055698394775 0.03713129088282585 
vn 0.2594585418701172 0.96466463804245 0.04586252197623253 
vn 0.2594040334224701 0.9644619226455688 0.05022686347365379 
vn 0.26102471351623535 0.9644397497177124 0.04149730131030083 
vn 0.2610695958137512 0.9646055698394775 0.03713129088282585 
vn 0.26114439964294434 0.964881956577301 0.028397228568792343 
vn 0.2611992359161377 0.9650846719741821 0.01966099627315998 
vn 0.2612341642379761 0.9652136564254761 0.010923261754214764 
vn 0.2612491250038147 0.9652689099311829 0.002184694167226553 
vn 0.2612341642379761 0.9652136564254761 -0.010923261754214764 
vn 0.2611992359161377 0.9650846719741821 -0.01966099627315998 
vn 0.26114439964294434 0.964881956577301 -0.028397228568792343 
vn 0.2591707408428192 0 -0.9658315181732178 
vn 0.260299414396286 0.3679063022136688 -0.8926864862442017 
vn 0.2591707408428192 0 -0.9658315181732178 
s on 
f 1//1 2//2 3//3 
f 2//2 4//4 3//3 
f 3//3 4//4 5//5 
f 4//4 4//4 5//5 
f 5//5 4//4 6//6 
f 4//4 7//7 6//6 
f 6//6 7//7 8//8 
f 7//7 7//7 8//8 
f 8//8 7//7 9//9 
f 7//7 7//7 9//9 
f 9//9 7//7 10//10 
f 7//7 7//7 10//10 
f 10//10 7//7 11//11 
f 7//7 12//12 11//11 
f 11//11 12//12 13//13 
f 12//12 13//13 13//13 
f 13//13 13//13 4//4 
f 13//13 4//4 4//4 
f 4//4 4//4 14//14 
f 4//4 2//2 14//14 
f 14//14 2//2 14//14 
f 2//2 15//15 14//14 
f 14//14 15//15 16//16 
f 15//15 17//17 16//16 
f 16//16 17//17 18//18 
f 17//17 19//19 18//18 
f 18//18 19//19 20//20 
f 19//19 21//21 20//20 
f 20//20 21//21 20//20 
f 21//21 22//22 20//20 
f 20//20 22//22 20//20 
f 22//22 23//23 20//20 
f 20//20 23//23 24//24 
f 23//23 25//25 24//24 
f 24//24 25//25 25//25 
f 25//25 20//20 25//25 
f 25//25 20//20 20//20 
f 20//20 24//24 20//20 
f 20//20 24//24 18//18 
f 24//24 26//26 18//18 
f 18//18 26//26 16//16 
f 26//26 27//27 16//16 
f 16//16 27//27 14//14 
f 27//27 28//28 14//14 
f 14//14 28//28 4//4 
f 28//28 29//29 4//4 
f 4//4 29//29 7//7 
f 29//29 29//29 7//7 
f 7//7 29//29 30//30 
f 29//29 31//31 30//30 
f 30//30 31//31 32//32 
f 31//31 32//32 32//32 
f 32//32 32//32 31//31 
f 32//32 31//31 31//31 
f 31//31 31//31 33//33 
f 31//31 29//29 33//33 
f 33//33 29//29 33//33 
f 29//29 28//28 33//33 
f 33//33 28//28 34//34 
f 28//28 27//27 34//34 
f 34//34 27//27 35//35 
f 27//27 26//26 35//35 
f 35//35 26//26 36//36 
f 26//26 24//24 36//36 
f 36//36 24//24 36//36 
f 24//24 25//25 36//36 
f 36//36 25//25 36//36 
f 25//25 37//37 36//36 
f 36//36 37//37 38//38 
f 37//37 39//39 38//38 
f 38//38 39//39 39//39 
f 39//39 36//36 39//39 
f 39//39 36//36 36//36 
f 36//36 38//38 36//36 
f 36//36 38//38 35//35 
f 38//38 40//40 35//35 
f 35//35 40//40 34//34 
f 40//40 41//41 34//34 
f 34//34 41//41 33//33 
f 41//41 42//42 33//33 
f 33//33 42//42 31//31 
f 42//42 43//43 31//31 
f 31//31 43//43 32//32 
f 43//43 43//43 32//32 
f 32//32 43//43 44//44 
f 43//43 45//45 44//44 
f 44//44 45//45 46//46 
f 45//45 46//46 46//46 
f 46//46 46//46 45//45 
f 46//46 45//45 45//45 
f 45//45 45//45 47//47 
f 45//45 43//43 47//47 
f 47//47 43//43 47//47 
f 43//43 42//42 47//47 
f 47//47 42//42 48//48 
f 42//42 41//41 48//48 
f 48//48 41//41 49//49 
f 41//41 40//40 49//49 
f 49//49 40//40 50//50 
f 40//40 38//38 50//50 
f 50//50 38//38 50//50 
f 38//38 39//39 50//50 
f 50//50 39//39 50//50 
f 39//39 51//51 50//50 
f 50//50 51//51 52//52 
f 51//51 53//53 52//52 
f 52//52 53//53 53//53 
f 53//53 50//50 53//53 
f 53//53 50//50 50//50 
f 50//50 52//52 50//50 
f 50//50 52//52 49//49 
f 52//52 54//54 49//49 
f 49//49 54//54 48//48 
f 54//54 55//55 48//48 
f 48//48 55//55 47//47 
f 55//55 56//56 47//47 
f 47//47 56//56 45//45 
f 56//56 57//57 45//45 
f 45//45 57//57 46//46 
f 57//57 57//57 46//46 
f 46//46 57//57 58//58 
f 57//57 59//59 58//58 
f 58//58 59//59 58//58 
f 59//59 60//60 58//58 
f 58//58 60//60 58//58 
f 60//60 61//61 58//58 
f 58//58 61//61 58//58 
f 61//61 62//62 58//58 
f 58//58 62//62 58//58 
f 62//62 63//63 58//58 
f 58//58 63//63 58//58 
f 63//63 64//64 58//58 
f 58//58 64//64 58//58 
f 64//64 65//65 58//58 
f 58//58 65//65 66//66 
f 65//65 67//67 66//66 
f 66//66 67//67 66//66 
f 67//67 68//68 66//66 
f 66//66 68//68 66//66 
f 68//68 69//69 66//66 
f 66//66 69//69 66//66 
f 69//69 70//70 66//66 
f 66//66 70//70 66//66 
f 70//70 71//71 66//66 
f 66//66 71//71 66//66 
f 71//71 72//72 66//66 
f 66//66 72//72 73//73 
f 72//72 74//74 73//73 
f 73//73 74//74 73//73 
f 74//74 75//75 73//73 
f 73//73 75//75 73//73 
f 75//75 76//76 73//73 
f 73//73 76//76 73//73 
f 76//76 77//77 73//73 
f 73//73 77//77 73//73 
f 77//77 78//78 73//73 
f 73//73 78//78 73//73 
f 78//78 79//79 73//73 
f 73//73 79//79 57//57 
f 79//79 80//80 57//57 
f 57//57 80//80 57//57 
f 80//80 81//81 57//57 
f 57//57 81//81 57//57 
f 81//81 82//82 57//57 
f 57//57 82//82 57//57 
f 82//82 83//83 57//57 
f 57//57 83//83 57//57 
f 83//83 84//84 57//57 
f 57//57 84//84 59//59 
f 84//84 59//59 59//59 
f 59//59 59//59 73//73 
f 59//59 73//73 73//73 
f 73//73 73//73 85//85 
f 73//73 57//57 85//85 
f 85//85 57//57 85//85 
f 57//57 56//56 85//85 
f 85//85 56//56 86//86 
f 56//56 55//55 86//86 
f 86//86 55//55 87//87 
f 55//55 54//54 87//87 
f 87//87 54//54 88//88 
f 54//54 52//52 88//88 
f 88//88 52//52 88//88 
f 52//52 53//53 88//88 
f 88//88 53//53 88//88 
f 53//53 89//89 88//88 
f 88//88 89//89 90//90 
f 89//89 91//91 90//90 
f 90//90 91//91 91//91 
f 91//91 88//88 91//91 
f 91//91 88//88 88//88 
f 88//88 90//90 88//88 
f 88//88 90//90 87//87 
f 90//90 92//92 87//87 
f 87//87 92//92 86//86 
f 92//92 93//93 86//86 
f 86//86 93//93 85//85 
f 93//93 94//94 85//85 
f 85//85 94//94 73//73 
f 94//94 73//73 73//73 
f 73//73 73//73 90//90 
f 73//73 90//90 90//90 
f 90//90 90//90 92//92 
f 90//90 95//95 92//92 
f 92//92 95//95 96//96 
f 95//95 95//95 96//96 
f 96//96 95//95 97//97 
f 95//95 98//98 97//97 
f 97//97 98//98 99//99 
f 98//98 99//99 99//99 
f 99//99 99//99 92//92 
f 99//99 92//92 92//92 
f 92//92 92//92 93//93 
f 92//92 96//96 93//93 
f 93//93 96//96 100//100 
f 96//96 96//96 100//100 
f 100//100 96//96 101//101 
f 96//96 97//97 101//101 
f 101//101 97//97 102//102 
f 97//97 99//99 102//102 
f 102//102 99//99 102//102 
f 99//99 103//103 102//102 
f 102//102 103//103 104//104 
f 103//103 105//105 104//104 
f 104//104 105//105 105//105 
f 105//105 94//94 105//105 
f 105//105 94//94 94//94 
f 94//94 93//93 94//94 
f 94//94 93//93 100//100 
f 93//93 100//100 100//100 
f 100//100 100//100 90//90 
f 100//100 90//90 90//90 
f 90//90 90//90 95//95 
f 90//90 91//91 95//95 
f 95//95 91//91 98//98 
f 91//91 98//98 98//98 
f 98//98 98//98 104//104 
f 98//98 104//104 104//104 
f 104//104 104//104 102//102 
f 104//104 106//106 102//102 
f 102//102 106//106 101//101 
f 106//106 101//101 101//101 
f 101//101 101//101 104//104 
f 101//101 104//104 104//104 
f 104//104 104//104 106//106 
f 104//104 107//107 106//106 
f 106//106 107//107 108//108 
f 107//107 109//109 108//108 
f 108//108 109//109 110//110 
f 109//109 111//111 110//110 
f 110//110 111//111 112//112 
f 111//111 113//113 112//112 
f 112//112 113//113 113//113 
f 113//113 106//106 113//113 
f 113//113 106//106 106//106 
f 106//106 108//108 106//106 
f 106//106 108//108 114//114 
f 108//108 115//115 114//114 
f 114//114 115//115 114//114 
f 115//115 116//116 114//114 
f 114//114 116//116 100//100 
f 116//116 116//116 100//100 
f 100//100 116//116 94//94 
f 116//116 117//117 94//94 
f 94//94 117//117 73//73 
f 117//117 73//73 73//73 
f 73//73 73//73 108//108 
f 73//73 108//108 108//108 
f 108//108 108//108 115//115 
f 108//108 110//110 115//115 
f 115//115 110//110 118//118 
f 110//110 112//112 118//118 
f 118//118 112//112 112//112 
f 112//112 106//106 112//112 
f 112//112 106//106 106//106 
f 106//106 114//114 106//106 
f 106//106 114//114 101//101 
f 114//114 100//100 101//101 
f 101//101 100//100 100//100 
f 100//100 117//117 100//100 
f 100//100 117//117 117//117 
f 117//117 116//116 117//117 
f 117//117 116//116 119//119 
f 116//116 115//115 119//119 
f 119//119 115//115 119//119 
f 115//115 118//118 119//119 
f 119//119 118//118 120//120 
f 118//118 118//118 120//120 
f 120//120 118//118 121//121 
f 118//118 118//118 121//121 
f 121//121 118//118 122//122 
f 118//118 118//118 122//122 
f 122//122 118//118 123//123 
f 118//118 118//118 123//123 
f 123//123 118//118 124//124 
f 118//118 118//118 124//124 
f 124//124 118//118 125//125 
f 118//118 118//118 125//125 
f 125//125 118//118 126//126 
f 118//118 127//127 126//126 
f 126//126 127//127 128//128 
f 127//127 127//127 128//128 
f 128//128 127//127 129//129 
f 127//127 127//127 129//129 
f 129//129 127//127 130//130 
f 127//127 127//127 130//130 
f 130//130 127//127 131//131 
f 127//127 127//127 131//131 
f 131//131 127//127 132//132 
f 127//127 127//127 132//132 
f 132//132 127//127 133//133 
f 127//127 134//134 133//133 
f 133//133 134//134 135//135 
f 134//134 134//134 135//135 
f 135//135 134//134 136//136 
f 134//134 134//134 136//136 
f 136//136 134//134 137//137 
f 134//134 134//134 137//137 
f 137//137 134//134 138//138 
f 134//134 134//134 138//138 
f 138//138 134//134 139//139 
f 134//134 134//134 139//139 
f 139//139 134//134 140//140 
f 134//134 119//119 140//140 
f 140//140 119//119 141//141 
f 119//119 119//119 141//141 
f 141//141 119//119 142//142 
f 119//119 119//119 142//142 
f 142//142 119//119 143//143 
f 119//119 119//119 143//143 
f 143//143 119//119 144//144 
f 119//119 119//119 144//144 
f 144//144 119//119 145//145 
f 119//119 120//120 145//145 
f 145//145 120//120 120//120 
f 120//120 146//146 120//120 
f 120//120 146//146 146//146 
f 146//146 119//119 146//146 
f 146//146 119//119 147//147 
f 119//119 134//134 147//147 
f 147//147 134//134 148//148 
f 134//134 134//134 148//148 
f 148//148 134//134 149//149 
f 134//134 134//134 149//149 
f 149//149 134//134 150//150 
f 134//134 134//134 150//150 
f 150//150 134//134 151//151 
f 134//134 152//152 151//151 
f 151//151 152//152 153//153 
f 152//152 152//152 153//153 
f 153//153 152//152 154//154 
f 152//152 152//152 154//154 
f 154//154 152//152 155//155 
f 152//152 152//152 155//155 
f 155//155 152//152 156//156 
f 152//152 152//152 156//156 
f 156//156 152//152 157//157 
f 152//152 152//152 157//157 
f 157//157 152//152 158//158 
f 152//152 66//66 158//158 
f 158//158 66//66 159//159 
f 66//66 66//66 159//159 
f 159//159 66//66 160//160 
f 66//66 66//66 160//160 
f 160//160 66//66 161//161 
f 66//66 66//66 161//161 
f 161//161 66//66 162//162 
f 66//66 73//73 162//162 
f 162//162 73//73 163//163 
f 73//73 73//73 163//163 
f 163//163 73//73 164//164 
f 73//73 73//73 164//164 
f 164//164 73//73 165//165 
f 73//73 73//73 165//165 
f 165//165 73//73 166//166 
f 73//73 117//117 166//166 
f 166//166 117//117 167//167 
f 117//117 117//117 167//167 
f 167//167 117//117 168//168 
f 117//117 119//119 168//168 
f 168//168 119//119 169//169 
f 119//119 119//119 169//169 
f 169//169 119//119 170//170 
f 119//119 146//146 170//170 
f 170//170 146//146 146//146 
f 146//146 171//171 146//146 
f 146//146 171//171 171//171 
f 171//171 172//172 171//171 
f 171//171 172//172 173//173 
f 172//172 172//172 173//173 
f 173//173 172//172 112//112 
f 172//172 127//127 112//112 
f 112//112 127//127 118//118 

