mtllib model_23.mtl
o model_23
v -1.0374311208724976 0.11485394090414047 1.7543684244155884 
v -1.0435231924057007 0.11655505746603012 1.7561569213867188 
v -1.0468673706054688 0.11655505746603012 1.73289954662323 
v -1.0515166521072388 0.1212039664387703 1.73289954662323 
v -1.0479838848114014 0.1212039664387703 1.7574673891067505 
v -1.0532170534133911 0.12755398452281952 1.73289954662323 
v -1.0284216403961182 0.11485394090414047 1.7740963697433472 
v -1.0337623357772827 0.11655505746603012 1.7775304317474365 
v -1.0142178535461426 0.11485394090414047 1.790487289428711 
v -0.964316725730896 0.11485394090414047 1.73289954662323 
v -1.0405176877975464 0.11485394090414047 1.73289954662323 
v -1.0435231924057007 0.11655505746603012 1.7096421718597412 
v -1.0479838848114014 0.1212039664387703 1.7083334922790527 
v -1.0496153831481934 0.12755398452281952 1.7078536748886108 
v -1.0532170534133911 1.0512479543685913 1.73289954662323 
v -1.0456609725952148 1.0512479543685913 1.768446922302246 
v -1.0456008911132812 1.0512479543685913 1.768870234489441 
v -1.0496153831481934 0.12755398452281952 1.7579454183578491 
v -1.0378526449203491 1.0512479543685913 1.779534101486206 
v -1.0376744270324707 1.0512479543685913 1.779923915863037 
v -1.037672758102417 0.1212039664387703 1.7800421714782715 
v -1.0531553030014038 1.0512479543685913 1.7324762344360352 
v -1.0374311208724976 0.11485394090414047 1.7114324569702148 
v -1.018375039100647 0.11655505746603012 1.7952865362167358 
v -0.9959714412689209 0.11485394090414047 1.8022147417068481 
v -0.9751622080802917 0.11485394090414047 1.8083244562149048 
v -0.953472912311554 0.11485394090414047 1.8083244562149048 
v -0.9760652780532837 0.11655505746603012 1.8146106004714966 
v -0.9525680541992188 0.11655505746603012 1.8146106004714966 
v -0.9326619505882263 0.11485394090414047 1.8022147417068481 
v -0.9300251007080078 0.11655505746603012 1.8079893589019775 
v -0.9144173264503479 0.11485394090414047 1.790487289428711 
v -0.9102582931518555 0.11655505746603012 1.7952865362167358 
v -0.9002134799957275 0.11485394090414047 1.7740963697433472 
v -0.8948709964752197 0.11655505746603012 1.7775304317474365 
v -0.8912040591239929 0.11485394090414047 1.7543684244155884 
v -0.9986100792884827 0.11655505746603012 1.8079893589019775 
v -0.8851101398468018 0.11655505746603012 1.7561569213867188 
v -0.8881174325942993 0.11485394090414047 1.73289954662323 
v -0.8912040591239929 0.11485394090414047 1.7114324569702148 
v -0.9002135396003723 0.11485394090414047 1.6917027235031128 
v -0.8851101994514465 0.11655505746603012 1.7096421718597412 
v -0.8948709964752197 0.11655505746603012 1.6882703304290771 
v -0.9144173264503479 0.11485394090414047 1.675311803817749 
v -0.9102582931518555 0.11655505746603012 1.6705125570297241 
v -0.9326619505882263 0.11485394090414047 1.663586139678955 
v -0.9300251007080078 0.11655505746603012 1.6578097343444824 
v -0.953472912311554 0.11485394090414047 1.6574763059616089 
v -0.9751622676849365 0.11485394090414047 1.6574763059616089 
v -0.9525681138038635 0.11655505746603012 1.651190161705017 
v -0.9760652780532837 0.11655505746603012 1.651190161705017 
v -0.9959714412689209 0.11485394090414047 1.663586139678955 
v -1.0142178535461426 0.11485394090414047 1.675311803817749 
v -1.0284216403961182 0.11485394090414047 1.6917027235031128 
v -1.0337624549865723 0.11655505746603012 1.6882703304290771 
v -1.037672758102417 0.1212039664387703 1.6857569217681885 
v -1.03910493850708 0.12755398452281952 1.6848362684249878 
v -1.0456010103225708 1.0512479543685913 1.696928858757019 
v -1.0454227924346924 1.0512479543685913 1.696539044380188 
v -1.0376744270324707 1.0512479543685913 1.6858751773834229 
v -1.0225341320037842 0.12755398452281952 1.6657133102416992 
v -1.0373940467834473 1.0512479543685913 1.6855523586273193 
v -1.0237810611724854 1.0512479543685913 1.6668156385421753 
v -1.0012487173080444 0.12755398452281952 1.6520333290100098 
v -1.023421287536621 1.0512479543685913 1.6665828227996826 
v -1.0004903078079224 1.0512479543685913 1.6533455848693848 
v -0.9769683480262756 0.12755398452281952 1.6449040174484253 
v -1.0000792741775513 1.0512479543685913 1.6532238721847534 
v -0.9915372729301453 1.0512479543685913 1.6482923030853271 
v -0.9553971886634827 1.0512479543685913 1.6444931030273438 
v -0.9549686312675476 1.0512479543685913 1.6444931030273438 
v -0.9516650438308716 0.12755398452281952 1.6449040174484253 
v -0.9518590569496155 1.0512479543685913 1.6455037593841553 
v -0.927386462688446 0.12755398452281952 1.6520333290100098 
v -0.9514480829238892 1.0512479543685913 1.6456236839294434 
v -0.9199944138526917 1.0512479543685913 1.655844807624817 
v -0.906099259853363 0.12755398452281952 1.6657131910324097 
v -0.9196328520774841 1.0512479543685913 1.6560759544372559 
v -0.907367467880249 1.0512479543685913 1.6671206951141357 
v -0.8895302414894104 0.12755398452281952 1.6848362684249878 
v -0.9070870280265808 1.0512479543685913 1.6674453020095825 
v -0.8923470377922058 1.0512479543685913 1.6807160377502441 
v -0.8790180683135986 0.12755398452281952 1.7078536748886108 
v -0.8921688795089722 1.0512479543685913 1.6811058521270752 
v -0.8800551891326904 1.0512479543685913 1.708314061164856 
v -0.8754163980484009 0.12755398452281952 1.73289954662323 
v -0.8799934387207031 1.0512479543685913 1.708739161491394 
v -0.8773265480995178 1.0512479543685913 1.7147307395935059 
v -0.8773265480995178 1.0512479543685913 1.7510701417922974 
v -0.8773882985115051 1.0512479543685913 1.7514934539794922 
v -0.8790180087089539 0.12755398452281952 1.7579452991485596 
v -0.8800551295280457 1.0512479543685913 1.757485032081604 
v -0.8895302414894104 0.12755398452281952 1.7809628248214722 
v -0.8802332878112793 1.0512479543685913 1.757874846458435 
v -0.892346978187561 1.0512479543685913 1.7850830554962158 
v -0.906099259853363 0.12755398452281952 1.8000857830047607 
v -0.8926274180412292 1.0512479543685913 1.785407543182373 
v -0.9073674082756042 1.0512479543685913 1.7986782789230347 
v -0.927386462688446 0.12755398452281952 1.8137657642364502 
v -0.9077272415161133 1.0512479543685913 1.7989094257354736 
v -0.9199944138526917 1.0512479543685913 1.8099559545516968 
v -0.9516650438308716 0.12755398452281952 1.8208950757980347 
v -0.920405387878418 1.0512479543685913 1.8100758790969849 
v -0.9518590569496155 1.0512479543685913 1.820297122001648 
v -0.9769683480262756 0.12755398452281952 1.8208950757980347 
v -0.9522876143455505 1.0512479543685913 1.820297122001648 
v -0.9553971886634827 1.0512479543685913 1.8213059902191162 
v -0.9915372729301453 1.0512479543685913 1.8175067901611328 
v -0.9919482469558716 1.0512479543685913 1.8173868656158447 
v -1.0012487173080444 0.12755398452281952 1.8137657642364502 
v -1.0004903078079224 1.0512479543685913 1.8124552965164185 
v -1.0225341320037842 0.12755398452281952 1.8000857830047607 
v -1.0008518695831299 1.0512479543685913 1.8122224807739258 
v -1.0237810611724854 1.0512479543685913 1.798985242843628 
v -1.03910493850708 0.12755398452281952 1.7809628248214722 
v -1.0240615606307983 1.0512479543685913 1.7986606359481812 
v -1.0214194059371948 0.1212039664387703 1.798799991607666 
v -1.0005414485931396 0.1212039664387703 1.8122189044952393 
v -0.9767267107963562 0.1212039664387703 1.8192106485366821 
v -0.9519084095954895 0.1212039664387703 1.8192106485366821 
v -0.9280937314033508 0.1212039664387703 1.8122189044952393 
v -0.9072139859199524 0.1212039664387703 1.798799991607666 
v -0.8909606337547302 0.1212039664387703 1.7800421714782715 
v -0.8806512951850891 0.1212039664387703 1.7574673891067505 
v -0.8771184682846069 0.1212039664387703 1.73289954662323 
v -0.8817660212516785 0.11655505746603012 1.73289954662323 
v -0.8806512951850891 0.1212039664387703 1.7083334922790527 
v -0.890960693359375 0.1212039664387703 1.6857569217681885 
v -0.9072139859199524 0.1212039664387703 1.666999101638794 
v -0.9280937314033508 0.1212039664387703 1.6535801887512207 
v -0.9519084095954895 0.1212039664387703 1.6465884447097778 
v -0.9767267107963562 0.1212039664387703 1.6465884447097778 
v -0.9986100792884827 0.11655505746603012 1.6578097343444824 
v -1.018375039100647 0.11655505746603012 1.6705125570297241 
v -1.0214194059371948 0.1212039664387703 1.666999101638794 
v -1.0005414485931396 0.1212039664387703 1.6535801887512207 
v -0.9915372729301453 1.0512479543685913 1.6482923030853271 
v -1.0000792741775513 1.0512479543685913 1.6532238721847534 
v -0.9553971886634827 1.0512479543685913 1.6444931030273438 
v -0.9518590569496155 1.0512479543685913 1.6455037593841553 
v -0.9549686312675476 1.0512479543685913 1.6444931030273438 
v -1.0004903078079224 1.0512479543685913 1.6533455848693848 
v -0.9514480829238892 1.0512479543685913 1.6456236839294434 
v -1.0373940467834473 1.0512479543685913 1.6855523586273193 
v -1.0008518695831299 1.0512479543685913 1.8122224807739258 
v -1.0376744270324707 1.0512479543685913 1.6858751773834229 
v -1.0376744270324707 1.0512479543685913 1.779923915863037 
v -1.0240615606307983 1.0512479543685913 1.7986606359481812 
v -1.0237810611724854 1.0512479543685913 1.798985242843628 
v -1.023421287536621 1.0512479543685913 1.6665828227996826 
v -1.0237810611724854 1.0512479543685913 1.6668156385421753 
v -0.9199944138526917 1.0512479543685913 1.655844807624817 
v -0.9196328520774841 1.0512479543685913 1.6560759544372559 
v -0.907367467880249 1.0512479543685913 1.6671206951141357 
v -0.8802332878112793 1.0512479543685913 1.757874846458435 
v -0.9070870280265808 1.0512479543685913 1.6674453020095825 
v -0.8800551295280457 1.0512479543685913 1.757485032081604 
v -0.8800551891326904 1.0512479543685913 1.708314061164856 
v -0.8799934387207031 1.0512479543685913 1.708739161491394 
v -0.8773265480995178 1.0512479543685913 1.7510701417922974 
v -0.8773265480995178 1.0512479543685913 1.7147307395935059 
v -1.0004903078079224 1.0512479543685913 1.8124552965164185 
v -0.9073674082756042 1.0512479543685913 1.7986782789230347 
v -0.9077272415161133 1.0512479543685913 1.7989094257354736 
v -0.9518590569496155 1.0512479543685913 1.820297122001648 
v -0.920405387878418 1.0512479543685913 1.8100758790969849 
v -0.9199944138526917 1.0512479543685913 1.8099559545516968 
v -0.8921688795089722 1.0512479543685913 1.6811058521270752 
v -0.8923470377922058 1.0512479543685913 1.6807160377502441 
v -0.8773882985115051 1.0512479543685913 1.7514934539794922 
v -0.892346978187561 1.0512479543685913 1.7850830554962158 
v -0.8926274180412292 1.0512479543685913 1.785407543182373 
v -0.9522876143455505 1.0512479543685913 1.820297122001648 
v -0.9915372729301453 1.0512479543685913 1.8175067901611328 
v -0.9553971886634827 1.0512479543685913 1.8213059902191162 
v -0.9919482469558716 1.0512479543685913 1.8173868656158447 
v -1.0456008911132812 1.0512479543685913 1.768870234489441 
v -1.0378526449203491 1.0512479543685913 1.779534101486206 
v -1.0456609725952148 1.0512479543685913 1.768446922302246 
v -1.0456010103225708 1.0512479543685913 1.696928858757019 
v -1.0454227924346924 1.0512479543685913 1.696539044380188 
v -1.0531553030014038 1.0512479543685913 1.7324762344360352 
v -1.0532170534133911 1.0512479543685913 1.73289954662323 
v -1.0532170534133911 1.0512440204620361 1.73289954662323 
v -1.0532170534133911 1.0671583414077759 1.73289954662323 
v -1.0531553030014038 1.0512440204620361 1.7324762344360352 
v -1.0456010103225708 1.0512440204620361 1.6969287395477295 
v -1.0455304384231567 1.0671583414077759 1.6967400312423706 
v -1.0454227924346924 1.0512440204620361 1.6965389251708984 
v -1.0376744270324707 1.0512440204620361 1.6858750581741333 
v -1.0376497507095337 1.0671583414077759 1.68589448928833 
v -1.0373940467834473 1.0512440204620361 1.6855523586273193 
v -1.0237810611724854 1.0512440204620361 1.6668155193328857 
v -1.0238022804260254 1.0671583414077759 1.6668331623077393 
v -1.023421287536621 1.0512440204620361 1.666582703590393 
v -1.0004903078079224 1.0512440204620361 1.6533454656600952 
v -1.000477910041809 1.0671583414077759 1.6533684730529785 
v -1.0000792741775513 1.0512440204620361 1.6532237529754639 
v -0.9915372729301453 1.0512440204620361 1.6482923030853271 
v -0.9917895197868347 1.0671583414077759 1.648350477218628 
v -0.9550250768661499 1.0671583414077759 1.6444859504699707 
v -0.9553971886634827 1.0512440204620361 1.6444929838180542 
v -0.9549686312675476 1.0512440204620361 1.6444929838180542 
v -0.9518590569496155 1.0512440204620361 1.6455036401748657 
v -0.9518625736236572 1.0671583414077759 1.6455142498016357 
v -0.9514480829238892 1.0512440204620361 1.6456236839294434 
v -0.9199944138526917 1.0512440204620361 1.655844807624817 
v -0.9198674559593201 1.0671583414077759 1.6559100151062012 
v -0.9196328520774841 1.0512440204620361 1.6560758352279663 
v -0.907367467880249 1.0512440204620361 1.6671206951141357 
v -0.9073886275291443 1.0671583414077759 1.6671453714370728 
v -0.9070870280265808 1.0512440204620361 1.667445182800293 
v -0.8923470377922058 1.0512440204620361 1.6807160377502441 
v -0.8923963904380798 1.0671583414077759 1.68064546585083 
v -0.8921688795089722 1.0512440204620361 1.6811057329177856 
v -0.8800551891326904 1.0512440204620361 1.708314061164856 
v -0.8800727725028992 1.0671583414077759 1.7083228826522827 
v -0.8799934387207031 1.0512440204620361 1.7087390422821045 
v -0.8773265480995178 1.0512440204620361 1.7147306203842163 
v -0.8773601055145264 1.0671583414077759 1.714416742324829 
v -0.8773265480995178 1.0512440204620361 1.7510700225830078 
v -0.8773600459098816 1.0671583414077759 1.7513822317123413 
v -0.8773882985115051 1.0512440204620361 1.7514933347702026 
v -0.8800551295280457 1.0512440204620361 1.7574849128723145 
v -0.8800727725028992 1.0671583414077759 1.7574760913848877 
v -0.8802332878112793 1.0512440204620361 1.7578747272491455 
v -0.892346978187561 1.0512440204620361 1.7850829362869263 
v -0.8923963904380798 1.0671583414077759 1.7851535081863403 
v -0.8926274180412292 1.0512440204620361 1.785407543182373 
v -0.9073674082756042 1.0512440204620361 1.7986782789230347 
v -0.9073886275291443 1.0671583414077759 1.7986536026000977 
v -0.9077272415161133 1.0512440204620361 1.798909306526184 
v -0.9199944138526917 1.0512440204620361 1.8099559545516968 
v -0.9198673963546753 1.0671583414077759 1.809890627861023 
v -0.920405387878418 1.0512440204620361 1.8100758790969849 
v -0.9518590569496155 1.0512440204620361 1.8202970027923584 
v -0.9518625736236572 1.0671583414077759 1.820286512374878 
v -0.9522876143455505 1.0512440204620361 1.8202970027923584 
v -0.9553971886634827 1.0512440204620361 1.8213058710098267 
v -0.9550250172615051 1.0671583414077759 1.8213130235671997 
v -0.9915372729301453 1.0512440204620361 1.8175067901611328 
v -0.9917894601821899 1.0671583414077759 1.8174484968185425 
v -0.9919482469558716 1.0512440204620361 1.8173867464065552 
v -1.0004903078079224 1.0512440204620361 1.812455177307129 
v -1.000477910041809 1.0671583414077759 1.8124322891235352 
v -1.0008518695831299 1.0512440204620361 1.8122223615646362 
v -1.0237810611724854 1.0512440204620361 1.7989851236343384 
v -1.0238022804260254 1.0671583414077759 1.7989658117294312 
v -1.0240615606307983 1.0512440204620361 1.7986606359481812 
v -1.0376744270324707 1.0512440204620361 1.779923915863037 
v -1.0376497507095337 1.0671583414077759 1.7799062728881836 
v -1.0378526449203491 1.0512440204620361 1.779534101486206 
v -1.0456008911132812 1.0512440204620361 1.768870234489441 
v -1.0455304384231567 1.0671583414077759 1.7690589427947998 
v -1.0456609725952148 1.0512440204620361 1.768446922302246 
v -1.0519224405288696 1.0811443328857422 1.73289954662323 
v -1.0443487167358398 1.0811443328857422 1.7685315608978271 
v -1.022936224937439 1.0811443328857422 1.7980027198791504 
v -0.9913890957832336 1.0811443328857422 1.8162174224853516 
v -0.955159068107605 1.0811443328857422 1.8200254440307617 
v -0.920514702796936 1.0811443328857422 1.8087671995162964 
v -0.8934423327445984 1.0811443328857422 1.784393310546875 
v -0.8786264657974243 1.0811443328857422 1.7511141300201416 
v -0.8767110109329224 1.0811443328857422 1.7328994274139404 
v -0.8786264657974243 1.0811443328857422 1.714686632156372 
v -0.8934423327445984 1.0811443328857422 1.6814074516296387 
v -0.9205147624015808 1.0811443328857422 1.657031774520874 
v -0.9551591277122498 1.0811443328857422 1.645775318145752 
v -0.9913890957832336 1.0811443328857422 1.6495815515518188 
v -1.022936224937439 1.0811443328857422 1.66779625415802 
v -1.0443487167358398 1.0811443328857422 1.6972674131393433 
v -1.0476927757263184 1.0994981527328491 1.73289954662323 
v -1.0404841899871826 1.0994981527328491 1.6989871263504028 
v -1.0201053619384766 1.0994981527328491 1.670939326286316 
v -0.9900821447372437 1.0994981527328491 1.6536047458648682 
v -0.9556018114089966 1.0994981527328491 1.6499801874160767 
v -0.9226295351982117 1.0994981527328491 1.660695195198059 
v -0.8968640565872192 1.0994981527328491 1.6838926076889038 
v -0.8827625513076782 1.0994981527328491 1.7155649662017822 
v -0.8827625513076782 1.0994981527328491 1.7502340078353882 
v -0.8968640565872192 1.0994981527328491 1.7819063663482666 
v -0.9226295351982117 1.0994981527328491 1.8051055669784546 
v -0.9556018114089966 1.0994981527328491 1.8158187866210938 
v -0.9900821447372437 1.0994981527328491 1.8121942281723022 
v -1.0201053619384766 1.0994981527328491 1.7948596477508545 
v -1.0404841899871826 1.0994981527328491 1.7668118476867676 
v -1.0304447412490845 1.1252974271774292 1.7623424530029297 
v -1.0127521753311157 1.1252974271774292 1.7866933345794678 
v -0.9866850972175598 1.1252974271774292 1.801743745803833 
v -0.9567500352859497 1.1252974271774292 1.8048886060714722 
v -0.9281237125396729 1.1252974271774292 1.7955881357192993 
v -0.905755341053009 1.1252974271774292 1.7754473686218262 
v -0.8935128450393677 1.1252974271774292 1.7479499578475952 
v -0.8935129046440125 1.1252974271774292 1.7178490161895752 
v -0.905755341053009 1.1252974271774292 1.6903533935546875 
v -0.9281237125396729 1.1252974271774292 1.670210838317871 
v -0.9567500352859497 1.1252974271774292 1.6609103679656982 
v -0.9866850972175598 1.1252974271774292 1.6640570163726807 
v -1.0127521753311157 1.1252974271774292 1.679107427597046 
v -1.0304447412490845 1.1252974271774292 1.703458309173584 
v -1.0367026329040527 1.1252974271774292 1.73289954662323 
v -1.014350175857544 1.1435494422912598 1.7551761865615845 
v -1.0009647607803345 1.1435494422912598 1.773600697517395 
v -1.0190858840942383 1.1435494422912598 1.73289954662323 
v -1.014350175857544 1.1435494422912598 1.7106245756149292 
v -1.0009647607803345 1.1435494422912598 1.6921982765197754 
v -0.9812420010566711 1.1435494422912598 1.6808112859725952 
v -0.9585914611816406 1.1435494422912598 1.6784300804138184 
v -0.9369320869445801 1.1435494422912598 1.685469388961792 
v -0.9200085401535034 1.1435494422912598 1.7007085084915161 
v -0.9107450842857361 1.1435494422912598 1.7215124368667603 
v -0.9095475077629089 1.1435494422912598 1.7328994274139404 
v -0.9107450842857361 1.1435494422912598 1.7442865371704102 
v -0.9200085401535034 1.1435494422912598 1.765092134475708 
v -0.9369320869445801 1.1435494422912598 1.7803313732147217 
v -0.9585914015769958 1.1435494422912598 1.787368893623352 
v -0.9812420010566711 1.1435494422912598 1.7849876880645752 
v -0.9812420010566711 1.1435494422912598 1.7849876880645752 
v -0.964316725730896 1.1435494422912598 1.7328994274139404 
v -0.9585914015769958 1.1435494422912598 1.787368893623352 
v -0.9369320869445801 1.1435494422912598 1.7803313732147217 
v -0.9200085401535034 1.1435494422912598 1.765092134475708 
v -0.9107450842857361 1.1435494422912598 1.7442865371704102 
v -0.9095475077629089 1.1435494422912598 1.7328994274139404 
v -0.9107450842857361 1.1435494422912598 1.7215124368667603 
v -0.9200085401535034 1.1435494422912598 1.7007085084915161 
v -0.9369320869445801 1.1435494422912598 1.685469388961792 
v -0.9585914611816406 1.1435494422912598 1.6784300804138184 
v -0.9812420010566711 1.1435494422912598 1.6808112859725952 
v -1.0009647607803345 1.1435494422912598 1.6921982765197754 
v -1.014350175857544 1.1435494422912598 1.7106245756149292 
v -1.0190858840942383 1.1435494422912598 1.73289954662323 
v -1.014350175857544 1.1435494422912598 1.7551761865615845 
v -1.0009647607803345 1.1435494422912598 1.773600697517395 
v -0.9915372729301453 1.0512440204620361 1.6482923030853271 
v -1.0000792741775513 1.0512440204620361 1.6532237529754639 
v -0.9553971886634827 1.0512440204620361 1.6444929838180542 
v -0.9518590569496155 1.0512440204620361 1.6455036401748657 
v -0.9549686312675476 1.0512440204620361 1.6444929838180542 
v -1.0004903078079224 1.0512440204620361 1.6533454656600952 
v -0.9514480829238892 1.0512440204620361 1.6456236839294434 
v -1.0373940467834473 1.0512440204620361 1.6855523586273193 
v -1.0008518695831299 1.0512440204620361 1.8122223615646362 
v -1.0376744270324707 1.0512440204620361 1.6858750581741333 
v -1.0376744270324707 1.0512440204620361 1.779923915863037 
v -1.0240615606307983 1.0512440204620361 1.7986606359481812 
v -1.0237810611724854 1.0512440204620361 1.7989851236343384 
v -1.023421287536621 1.0512440204620361 1.666582703590393 
v -1.0237810611724854 1.0512440204620361 1.6668155193328857 
v -0.9199944138526917 1.0512440204620361 1.655844807624817 
v -0.9196328520774841 1.0512440204620361 1.6560758352279663 
v -0.907367467880249 1.0512440204620361 1.6671206951141357 
v -0.8802332878112793 1.0512440204620361 1.7578747272491455 
v -0.9070870280265808 1.0512440204620361 1.667445182800293 
v -0.8800551295280457 1.0512440204620361 1.7574849128723145 
v -0.8800551891326904 1.0512440204620361 1.708314061164856 
v -0.8799934387207031 1.0512440204620361 1.7087390422821045 
v -0.8773265480995178 1.0512440204620361 1.7510700225830078 
v -0.8773265480995178 1.0512440204620361 1.7147306203842163 
v -1.0004903078079224 1.0512440204620361 1.812455177307129 
v -0.9073674082756042 1.0512440204620361 1.7986782789230347 
v -0.9077272415161133 1.0512440204620361 1.798909306526184 
v -0.9518590569496155 1.0512440204620361 1.8202970027923584 
v -0.920405387878418 1.0512440204620361 1.8100758790969849 
v -0.9199944138526917 1.0512440204620361 1.8099559545516968 
v -0.8921688795089722 1.0512440204620361 1.6811057329177856 
v -0.8923470377922058 1.0512440204620361 1.6807160377502441 
v -0.8773882985115051 1.0512440204620361 1.7514933347702026 
v -0.892346978187561 1.0512440204620361 1.7850829362869263 
v -0.8926274180412292 1.0512440204620361 1.785407543182373 
v -0.9522876143455505 1.0512440204620361 1.8202970027923584 
v -0.9915372729301453 1.0512440204620361 1.8175067901611328 
v -0.9553971886634827 1.0512440204620361 1.8213058710098267 
v -0.9919482469558716 1.0512440204620361 1.8173867464065552 
v -1.0456008911132812 1.0512440204620361 1.768870234489441 
v -1.0378526449203491 1.0512440204620361 1.779534101486206 
v -1.0456609725952148 1.0512440204620361 1.768446922302246 
v -1.0456010103225708 1.0512440204620361 1.6969287395477295 
v -1.0454227924346924 1.0512440204620361 1.6965389251708984 
v -1.0531553030014038 1.0512440204620361 1.7324762344360352 
v -1.0532170534133911 1.0512440204620361 1.73289954662323 
vn -2.0682311115474694e-13 -1 1.8081055050873933e-20 
vn -0.48015737533569336 -0.865661084651947 0.14170339703559875 
vn -0.5006305575370789 -0.865661084651947 4.37666294317296e-8 
vn -0.8667445182800293 -0.4987381398677826 -0.00377658917568624 
vn -0.8322211503982544 -0.4987381398677826 0.24221529066562653 
vn -0.999997615814209 0.002184694167226553 8.742279788975793e-8 
vn -2.0682311115474694e-13 -1 1.8081055050873933e-20 
vn -0.4204123020172119 -0.865661084651947 0.2718168795108795 
vn -2.0682311115474694e-13 -1 1.8081055050873933e-20 
vn -2.0682311115474694e-13 -1 1.8081055050873933e-20 
vn -2.0682311115474694e-13 -1 1.8081055050873933e-20 
vn -0.48015737533569336 -0.865661084651947 -0.1417033076286316 
vn -0.8322211503982544 -0.4987381398677826 -0.2422151416540146 
vn -0.9591029286384583 0.002184694167226553 -0.28304898738861084 
vn -0.999997615814209 0.002184694167226553 8.742279788975793e-8 
vn -0.9149709939956665 0.002184694167226553 0.40351369976997375 
vn -0.9149709939956665 0.002184694167226553 0.40351369976997375 
vn -0.9591029286384583 0.002184694167226553 0.28304916620254517 
vn -0.8438399434089661 0.002184694167226553 0.5365905165672302 
vn -0.8438399434089661 0.002184694167226553 0.5365905165672302 
vn -0.7293443083763123 -0.4987381398677826 0.4683130979537964 
vn -0.9999691247940063 0.002184694167226553 -0.007551728282123804 
vn -2.0682311115474694e-13 -1 1.8081055050873933e-20 
vn -0.32628196477890015 -0.865661084651947 0.37969857454299927 
vn -2.0682311115474694e-13 -1 1.8081055050873933e-20 
vn -2.0682311115474694e-13 -1 1.8081055050873933e-20 
vn -2.0682311115474694e-13 -1 1.8081055050873933e-20 
vn -0.06784342974424362 -0.865661084651947 0.49601230025291443 
vn 0.06784351915121078 -0.865661084651947 0.49601230025291443 
vn -2.0682311115474694e-13 -1 1.8081055050873933e-20 
vn 0.20546522736549377 -0.865661084651947 0.45652487874031067 
vn -2.0682311115474694e-13 -1 1.8081055050873933e-20 
vn 0.3262820243835449 -0.865661084651947 0.3796985149383545 
vn -2.0682311115474694e-13 -1 1.8081055050873933e-20 
vn 0.4204123616218567 -0.865661084651947 0.27181681990623474 
vn -2.0682311115474694e-13 -1 1.8081055050873933e-20 
vn -0.2054651379585266 -0.865661084651947 0.45652493834495544 
vn 0.48015737533569336 -0.865661084651947 0.1417033076286316 
vn -2.0682311115474694e-13 -1 1.8081055050873933e-20 
vn -2.0682311115474694e-13 -1 1.8081055050873933e-20 
vn -2.0682311115474694e-13 -1 1.8081055050873933e-20 
vn 0.48015737533569336 -0.865661084651947 -0.14170339703559875 
vn 0.4204123020172119 -0.865661084651947 -0.2718168795108795 
vn -2.0682311115474694e-13 -1 1.8081055050873933e-20 
vn 0.32628196477890015 -0.865661084651947 -0.37969857454299927 
vn -2.0682311115474694e-13 -1 1.8081055050873933e-20 
vn 0.2054651379585266 -0.865661084651947 -0.45652493834495544 
vn -2.0682311115474694e-13 -1 1.8081055050873933e-20 
vn -2.0682311115474694e-13 -1 1.8081055050873933e-20 
vn 0.06784342974424362 -0.865661084651947 -0.49601230025291443 
vn -0.06784351915121078 -0.865661084651947 -0.49601230025291443 
vn -2.0682311115474694e-13 -1 1.8081055050873933e-20 
vn -2.0682311115474694e-13 -1 1.8081055050873933e-20 
vn -2.0682311115474694e-13 -1 1.8081055050873933e-20 
vn -0.4204123616218567 -0.865661084651947 -0.27181681990623474 
vn -0.7293444275856018 -0.4987381398677826 -0.46831297874450684 
vn -0.8397637605667114 0.002184694167226553 -0.5429476499557495 
vn -0.914971113204956 0.002184694167226553 -0.40351352095603943 
vn -0.9118977189064026 0.002184694167226553 -0.4104117453098297 
vn -0.8438400626182556 0.002184694167226553 -0.5365903973579407 
vn -0.6574496030807495 0.002184694167226553 -0.7534953355789185 
vn -0.8397637605667114 0.002184694167226553 -0.5429476499557495 
vn -0.6687548160552979 0.002184694167226553 -0.7434797883033752 
vn -0.4172867238521576 0.002184694167226553 -0.9087722301483154 
vn -0.6631211638450623 0.002184694167226553 -0.7485089302062988 
vn -0.4172867238521576 0.002184694167226553 -0.9087722301483154 
vn -0.14299410581588745 0.002184694167226553 -0.9897211194038391 
vn -0.41041192412376404 0.002184694167226553 -0.911897599697113 
vn -0.30470383167266846 0.002184694167226553 -0.9524446725845337 
vn 0.09801681339740753 0.002184694167226553 -0.9951823353767395 
vn 0.10552947223186493 0.002184694167226553 -0.9944137930870056 
vn 0.14299392700195312 0.002184694167226553 -0.9897211194038391 
vn 0.14299392700195312 0.002184694167226553 -0.9897211194038391 
vn 0.41728654503822327 0.002184694167226553 -0.908772349357605 
vn 0.14299392700195312 0.002184694167226553 -0.9897211194038391 
vn 0.49781709909439087 0.002184694167226553 -0.8672792911529541 
vn 0.65744948387146 0.002184694167226553 -0.753495454788208 
vn 0.5043524503707886 0.002184694167226553 -0.8634951114654541 
vn 0.6517404913902283 0.002184694167226553 -0.7584389448165894 
vn 0.8397636413574219 0.002184694167226553 -0.5429477691650391 
vn 0.65744948387146 0.002184694167226553 -0.753495454788208 
vn 0.8099018335342407 0.002184694167226553 -0.5865613222122192 
vn 0.9591029286384583 0.002184694167226553 -0.28304916620254517 
vn 0.8143084049224854 0.002184694167226553 -0.5804283618927002 
vn 0.9591029286384583 0.002184694167226553 -0.28304916620254517 
vn 0.999997615814209 0.002184694167226553 -8.742259183236456e-8 
vn 0.9612131118774414 0.002184694167226553 -0.27579811215400696 
vn 0.9792816638946533 0.002184694167226553 -0.20249108970165253 
vn 0.9792816638946533 0.002184694167226553 0.2024909108877182 
vn 0.9777246117591858 0.002184694167226553 0.2098805159330368 
vn 0.9591029286384583 0.002184694167226553 0.28304898738861084 
vn 0.9591029286384583 0.002184694167226553 0.28304898738861084 
vn 0.8397637605667114 0.002184694167226553 0.5429476499557495 
vn 0.9591029286384583 0.002184694167226553 0.28304898738861084 
vn 0.8099019527435303 0.002184694167226553 0.5865612030029297 
vn 0.6574496030807495 0.002184694167226553 0.7534953355789185 
vn 0.8054492473602295 0.002184694167226553 0.5926607251167297 
vn 0.6517406105995178 0.002184694167226553 0.7584388256072998 
vn 0.4172867238521576 0.002184694167226553 0.9087722301483154 
vn 0.6517406105995178 0.002184694167226553 0.7584388256072998 
vn 0.4978172779083252 0.002184694167226553 0.8672791719436646 
vn 0.14299410581588745 0.002184694167226553 0.9897211194038391 
vn 0.491253525018692 0.002184694167226553 0.871013879776001 
vn 0.14299410581588745 0.002184694167226553 0.9897211194038391 
vn -0.14299392700195312 0.002184694167226553 0.9897211194038391 
vn 0.13551580905914307 0.002184694167226553 0.9907727837562561 
vn 0.09801699221134186 0.002184694167226553 0.9951823353767395 
vn -0.30470365285873413 0.002184694167226553 0.9524446725845337 
vn -0.3118876516819 0.002184694167226553 0.9501164555549622 
vn -0.41728654503822327 0.002184694167226553 0.908772349357605 
vn -0.41728654503822327 0.002184694167226553 0.908772349357605 
vn -0.65744948387146 0.002184694167226553 0.753495454788208 
vn -0.41728654503822327 0.002184694167226553 0.908772349357605 
vn -0.6687546968460083 0.002184694167226553 0.7434799075126648 
vn -0.8397636413574219 0.002184694167226553 0.5429477691650391 
vn -0.6743502616882324 0.002184694167226553 0.7384083867073059 
vn -0.5665636658668518 -0.4987381398677826 0.6559465527534485 
vn -0.357248991727829 -0.4987381398677826 0.7897046804428101 
vn -0.1260697841644287 -0.4987381398677826 0.8575352430343628 
vn 0.12233224511146545 -0.4987381398677826 0.8580763936042786 
vn 0.36068665981292725 -0.4987381398677826 0.7881404161453247 
vn 0.5694165229797363 -0.4987381398677826 0.6534715890884399 
vn 0.7272969484329224 -0.4987381398677826 0.47148647904396057 
vn 0.8311578631401062 -0.4987381398677826 0.24583904445171356 
vn 0.8667527437210083 -0.4987381398677826 -7.577395422231348e-8 
vn 0.5006305575370789 -0.865661084651947 -4.376652640303291e-8 
vn 0.8311578631401062 -0.4987381398677826 -0.2458391934633255 
vn 0.7272968292236328 -0.4987381398677826 -0.4714865982532501 
vn 0.5694164037704468 -0.4987381398677826 -0.6534717082977295 
vn 0.3606865406036377 -0.4987381398677826 -0.7881405353546143 
vn 0.12233209609985352 -0.4987381398677826 -0.8580763936042786 
vn -0.12606993317604065 -0.4987381398677826 -0.8575352430343628 
vn -0.20546522736549377 -0.865661084651947 -0.45652487874031067 
vn -0.3262820243835449 -0.865661084651947 -0.3796985149383545 
vn -0.5665637850761414 -0.4987381398677826 -0.6559464335441589 
vn -0.35724911093711853 -0.4987381398677826 -0.7897045612335205 
vn 0 1 0 
vn 0 1 0 
vn 0 1 0 
vn 0 1 0 
vn 0 1 0 
vn 0 1 0 
vn 0 1 0 
vn 0 1 0 
vn 0 1 0 
vn 0 1 0 
vn 0 1 0 
vn 0 1 0 
vn 0 1 0 
vn 0 1 0 
vn 0 1 0 
vn 0 1 0 
vn 0 1 0 
vn 0 1 0 
vn 0 1 0 
vn 0 1 0 
vn 0 1 0 
vn 0 1 0 
vn 0 1 0 
vn 0 1 0 
vn 0 1 0 
vn 0 1 0 
vn 0 1 0 
vn 0 1 0 
vn 0 1 0 
vn 0 1 0 
vn 0 1 0 
vn 0 1 0 
vn 0 1 0 
vn 0 1 0 
vn 0 1 0 
vn 0 1 0 
vn 0 1 0 
vn 0 1 0 
vn 0 1 0 
vn 0 1 0 
vn 0 1 0 
vn 0 1 0 
vn 0 1 0 
vn 0 1 0 
vn 0 1 0 
vn 0 1 0 
vn 0 1 0 
vn -0.999997615814209 0.002184694167226553 8.742279788975793e-8 
vn -0.999997615814209 0.002184694167226553 8.742279788975793e-8 
vn -0.9999691247940063 0.002184694167226553 -0.007551728282123804 
vn -0.914971113204956 0.002184694167226553 -0.40351352095603943 
vn -0.914971113204956 0.002184694167226553 -0.40351352095603943 
vn -0.9118977189064026 0.002184694167226553 -0.4104117453098297 
vn -0.8438400626182556 0.002184694167226553 -0.5365903973579407 
vn -0.8438400626182556 0.002184694167226553 -0.5365903973579407 
vn -0.8397637605667114 0.002184694167226553 -0.5429476499557495 
vn -0.6687548160552979 0.002184694167226553 -0.7434797883033752 
vn -0.6687548160552979 0.002184694167226553 -0.7434797883033752 
vn -0.6631211638450623 0.002184694167226553 -0.7485089302062988 
vn -0.4172867238521576 0.002184694167226553 -0.9087722301483154 
vn -0.4172867238521576 0.002184694167226553 -0.9087722301483154 
vn -0.41041192412376404 0.002184694167226553 -0.911897599697113 
vn -0.30470383167266846 0.002184694167226553 -0.9524446725845337 
vn -0.31188783049583435 0.002184694167226553 -0.9501164555549622 
vn 0.10552947223186493 0.002184694167226553 -0.9944137930870056 
vn 0.09801681339740753 0.002184694167226553 -0.9951823353767395 
vn 0.10552947223186493 0.002184694167226553 -0.9944137930870056 
vn 0.14299392700195312 0.002184694167226553 -0.9897211194038391 
vn 0.14299392700195312 0.002184694167226553 -0.9897211194038391 
vn 0.14299392700195312 0.002184694167226553 -0.9897211194038391 
vn 0.49781709909439087 0.002184694167226553 -0.8672792911529541 
vn 0.49781709909439087 0.002184694167226553 -0.8672792911529541 
vn 0.5043524503707886 0.002184694167226553 -0.8634951114654541 
vn 0.6517404913902283 0.002184694167226553 -0.7584389448165894 
vn 0.6517404913902283 0.002184694167226553 -0.7584389448165894 
vn 0.65744948387146 0.002184694167226553 -0.753495454788208 
vn 0.8099018335342407 0.002184694167226553 -0.5865613222122192 
vn 0.8099018335342407 0.002184694167226553 -0.5865613222122192 
vn 0.8143084049224854 0.002184694167226553 -0.5804283618927002 
vn 0.9591029286384583 0.002184694167226553 -0.28304916620254517 
vn 0.9591029286384583 0.002184694167226553 -0.28304916620254517 
vn 0.9612131118774414 0.002184694167226553 -0.27579811215400696 
vn 0.9792816638946533 0.002184694167226553 -0.20249108970165253 
vn 0.9777246117591858 0.002184694167226553 -0.20988069474697113 
vn 0.9792816638946533 0.002184694167226553 0.2024909108877182 
vn 0.9777246117591858 0.002184694167226553 0.2098805159330368 
vn 0.9777246117591858 0.002184694167226553 0.2098805159330368 
vn 0.9591029286384583 0.002184694167226553 0.28304898738861084 
vn 0.9591029286384583 0.002184694167226553 0.28304898738861084 
vn 0.9591029286384583 0.002184694167226553 0.28304898738861084 
vn 0.8099019527435303 0.002184694167226553 0.5865612030029297 
vn 0.8099019527435303 0.002184694167226553 0.5865612030029297 
vn 0.8054492473602295 0.002184694167226553 0.5926607251167297 
vn 0.6517406105995178 0.002184694167226553 0.7584388256072998 
vn 0.6517406105995178 0.002184694167226553 0.7584388256072998 
vn 0.6517406105995178 0.002184694167226553 0.7584388256072998 
vn 0.4978172779083252 0.002184694167226553 0.8672791719436646 
vn 0.4978172779083252 0.002184694167226553 0.8672791719436646 
vn 0.491253525018692 0.002184694167226553 0.871013879776001 
vn 0.14299410581588745 0.002184694167226553 0.9897211194038391 
vn 0.14299410581588745 0.002184694167226553 0.9897211194038391 
vn 0.13551580905914307 0.002184694167226553 0.9907727837562561 
vn 0.09801699221134186 0.002184694167226553 0.9951823353767395 
vn 0.10552965104579926 0.002184694167226553 0.9944137930870056 
vn -0.30470365285873413 0.002184694167226553 0.9524446725845337 
vn -0.3118876516819 0.002184694167226553 0.9501164555549622 
vn -0.3118876516819 0.002184694167226553 0.9501164555549622 
vn -0.41728654503822327 0.002184694167226553 0.908772349357605 
vn -0.41728654503822327 0.002184694167226553 0.908772349357605 
vn -0.41728654503822327 0.002184694167226553 0.908772349357605 
vn -0.6687546968460083 0.002184694167226553 0.7434799075126648 
vn -0.6687546968460083 0.002184694167226553 0.7434799075126648 
vn -0.6743502616882324 0.002184694167226553 0.7384083867073059 
vn -0.8438399434089661 0.002184694167226553 0.5365905165672302 
vn -0.8438399434089661 0.002184694167226553 0.5365905165672302 
vn -0.8438399434089661 0.002184694167226553 0.5365905165672302 
vn -0.9149709939956665 0.002184694167226553 0.40351369976997375 
vn -0.9149709939956665 0.002184694167226553 0.40351369976997375 
vn -0.9149709939956665 0.002184694167226553 0.40351369976997375 
vn -0.9828073978424072 0.18463370203971863 8.591997868734325e-8 
vn -0.896400511264801 0.18463370203971863 0.4029596447944641 
vn -0.6580003499984741 0.18463370203971863 0.730031430721283 
vn -0.30083081126213074 0.18463370203971863 0.9356340765953064 
vn 0.1017303466796875 0.18463370203971863 0.9775281548500061 
vn 0.4935813844203949 0.18463370203971863 0.8498751521110535 
vn 0.7942195534706116 0.18463370203971863 0.5789003968238831 
vn 0.9617472290992737 0.18463370203971863 0.20236752927303314 
vn 0.9828073978424072 0.18463370203971863 -8.591977262994988e-8 
vn 0.9617472290992737 0.18463370203971863 -0.20236770808696747 
vn 0.794219434261322 0.18463370203971863 -0.5789005160331726 
vn 0.49358126521110535 0.18463370203971863 -0.849875271320343 
vn 0.10173018276691437 0.18463370203971863 -0.9775281548500061 
vn -0.30083099007606506 0.18463370203971863 -0.9356340765953064 
vn -0.6580004692077637 0.18463370203971863 -0.7300313115119934 
vn -0.8964006304740906 0.18463370203971863 -0.4029594659805298 
vn -0.9617478847503662 0.27391019463539124 -0.0037719951942563057 
vn -0.878300130367279 0.27391019463539124 -0.3918701112270355 
vn -0.6452201008796692 0.27391019463539124 -0.7132070064544678 
vn -0.29504552483558655 0.27391019463539124 -0.9153804779052734 
vn 0.09978040307760239 0.27391019463539124 -0.956565260887146 
vn 0.4841406047344208 0.27391019463539124 -0.8310121297836304 
vn 0.7785195112228394 0.27391019463539124 -0.5646951198577881 
vn 0.9402654767036438 0.27391019463539124 -0.20217350125312805 
vn 0.9402654767036438 0.27391019463539124 0.20217332243919373 
vn 0.7785196304321289 0.27391019463539124 0.5646950006484985 
vn 0.4841407239437103 0.27391019463539124 0.8310120105743408 
vn 0.09978056699037552 0.27391019463539124 0.956565260887146 
vn -0.2950453460216522 0.27391019463539124 0.9153804779052734 
vn -0.6452199816703796 0.27391019463539124 0.7132071256637573 
vn -0.8783000111579895 0.27391019463539124 0.39187029004096985 
vn -0.77228182554245 0.5361219048500061 0.34081390500068665 
vn -0.5661472678184509 0.5361219048500061 0.6261394619941711 
vn -0.26157116889953613 0.5361219048500061 0.8025919198989868 
vn 0.08848689496517181 0.5361219048500061 0.8394899368286133 
vn 0.4231588542461395 0.5361219048500061 0.7304176092147827 
vn 0.6842520833015442 0.5361219048500061 0.4943404197692871 
vn 0.8263676166534424 0.5361219048500061 0.17230740189552307 
vn 0.8263676166534424 0.5361219048500061 -0.172307550907135 
vn 0.6842519640922546 0.5361219048500061 -0.49434053897857666 
vn 0.42315873503685 0.5361219048500061 -0.7304177284240723 
vn 0.08848674595355988 0.5361219048500061 -0.8394899368286133 
vn -0.2615712881088257 0.5361219048500061 -0.8025919198989868 
vn -0.5661473870277405 0.5361219048500061 -0.6261393427848816 
vn -0.77228182554245 0.5361219048500061 -0.3408137857913971 
vn -0.844132125377655 0.5361219048500061 -0.003772240597754717 
vn -0.507956326007843 0.8310141563415527 0.22670646011829376 
vn -0.3714577257633209 0.8310141563415527 0.41404661536216736 
vn -0.5562512278556824 0.8310141563415527 4.862915403691659e-8 
vn -0.507956326007843 0.8310141563415527 -0.2267063707113266 
vn -0.3714577853679657 0.8310141563415527 -0.4140465557575226 
vn -0.17045775055885315 0.8310141563415527 -0.5294899344444275 
vn 0.06014128774404526 0.8310141563415527 -0.5529904961585999 
vn 0.2802971601486206 0.8310141563415527 -0.48046743869781494 
vn 0.4517810344696045 0.8310141563415527 -0.3245139718055725 
vn 0.5448157787322998 0.8310141563415527 -0.11221059411764145 
vn 0.5562512278556824 0.8310141563415527 -4.862904035007887e-8 
vn 0.5448157787322998 0.8310141563415527 0.11221050471067429 
vn 0.45178109407424927 0.8310141563415527 0.32451391220092773 
vn 0.2802972197532654 0.8310141563415527 0.48046737909317017 
vn 0.06014138460159302 0.8310141563415527 0.5529904961585999 
vn -0.170457661151886 0.8310141563415527 0.5294899344444275 
vn 0 1 0 
vn 0 1 0 
vn 0 1 0 
vn 0 1 0 
vn 0 1 0 
vn 0 1 0 
vn 0 1 0 
vn 0 1 0 
vn 0 1 0 
vn 0 1 0 
vn 0 1 0 
vn 0 1 0 
vn 0 1 0 
vn 0 1 0 
vn 0 1 0 
vn 0 1 0 
vn 0 1 0 
vn -2.0682311115474694e-13 -1 1.8081055050873933e-20 
vn -2.0682311115474694e-13 -1 1.8081055050873933e-20 
vn -2.0682311115474694e-13 -1 1.8081055050873933e-20 
vn -2.0682311115474694e-13 -1 1.8081055050873933e-20 
vn -2.0682311115474694e-13 -1 1.8081055050873933e-20 
vn -2.0682311115474694e-13 -1 1.8081055050873933e-20 
vn -2.0682311115474694e-13 -1 1.8081055050873933e-20 
vn -2.0682311115474694e-13 -1 1.8081055050873933e-20 
vn -2.0682311115474694e-13 -1 1.8081055050873933e-20 
vn -2.0682311115474694e-13 -1 1.8081055050873933e-20 
vn -2.0682311115474694e-13 -1 1.8081055050873933e-20 
vn -2.0682311115474694e-13 -1 1.8081055050873933e-20 
vn -2.0682311115474694e-13 -1 1.8081055050873933e-20 
vn -2.0682311115474694e-13 -1 1.8081055050873933e-20 
vn -2.0682311115474694e-13 -1 1.8081055050873933e-20 
vn -2.0682311115474694e-13 -1 1.8081055050873933e-20 
vn -2.0682311115474694e-13 -1 1.8081055050873933e-20 
vn -2.0682311115474694e-13 -1 1.8081055050873933e-20 
vn -2.0682311115474694e-13 -1 1.8081055050873933e-20 
vn -2.0682311115474694e-13 -1 1.8081055050873933e-20 
vn -2.0682311115474694e-13 -1 1.8081055050873933e-20 
vn -2.0682311115474694e-13 -1 1.8081055050873933e-20 
vn -2.0682311115474694e-13 -1 1.8081055050873933e-20 
vn -2.0682311115474694e-13 -1 1.8081055050873933e-20 
vn -2.0682311115474694e-13 -1 1.8081055050873933e-20 
vn -2.0682311115474694e-13 -1 1.8081055050873933e-20 
vn -2.0682311115474694e-13 -1 1.8081055050873933e-20 
vn -2.0682311115474694e-13 -1 1.8081055050873933e-20 
vn -2.0682311115474694e-13 -1 1.8081055050873933e-20 
vn -2.0682311115474694e-13 -1 1.8081055050873933e-20 
vn -2.0682311115474694e-13 -1 1.8081055050873933e-20 
vn -2.0682311115474694e-13 -1 1.8081055050873933e-20 
vn -2.0682311115474694e-13 -1 1.8081055050873933e-20 
vn -2.0682311115474694e-13 -1 1.8081055050873933e-20 
vn -2.0682311115474694e-13 -1 1.8081055050873933e-20 
vn -2.0682311115474694e-13 -1 1.8081055050873933e-20 
vn -2.0682311115474694e-13 -1 1.8081055050873933e-20 
vn -2.0682311115474694e-13 -1 1.8081055050873933e-20 
vn -2.0682311115474694e-13 -1 1.8081055050873933e-20 
vn -2.0682311115474694e-13 -1 1.8081055050873933e-20 
vn -2.0682311115474694e-13 -1 1.8081055050873933e-20 
vn -2.0682311115474694e-13 -1 1.8081055050873933e-20 
vn -2.0682311115474694e-13 -1 1.8081055050873933e-20 
vn -2.0682311115474694e-13 -1 1.8081055050873933e-20 
vn -2.0682311115474694e-13 -1 1.8081055050873933e-20 
vn -2.0682311115474694e-13 -1 1.8081055050873933e-20 
vn -2.0682311115474694e-13 -1 1.8081055050873933e-20 
s on 
f 1//1 2//2 3//3 
f 2//2 2//2 3//3 
f 3//3 2//2 4//4 
f 2//2 5//5 4//4 
f 4//4 5//5 6//6 
f 5//5 6//6 6//6 
f 6//6 6//6 1//1 
f 6//6 1//1 1//1 
f 1//1 1//1 2//2 
f 1//1 7//7 2//2 
f 2//2 7//7 8//8 
f 7//7 7//7 8//8 
f 8//8 7//7 9//9 
f 7//7 7//7 9//9 
f 9//9 7//7 10//10 
f 7//7 1//1 10//10 
f 10//10 1//1 11//11 
f 1//1 3//3 11//11 
f 11//11 3//3 12//12 
f 3//3 3//3 12//12 
f 12//12 3//3 13//13 
f 3//3 4//4 13//13 
f 13//13 4//4 14//14 
f 4//4 6//6 14//14 
f 14//14 6//6 15//15 
f 6//6 6//6 15//15 
f 15//15 6//6 16//16 
f 6//6 6//6 16//16 
f 16//16 6//6 17//17 
f 6//6 18//18 17//17 
f 17//17 18//18 19//19 
f 18//18 20//20 19//19 
f 19//19 20//20 20//20 
f 20//20 2//2 20//20 
f 20//20 2//2 2//2 
f 2//2 8//8 2//2 
f 2//2 8//8 5//5 
f 8//8 21//21 5//5 
f 5//5 21//21 5//5 
f 21//21 18//18 5//5 
f 5//5 18//18 6//6 
f 18//18 6//6 6//6 
f 6//6 6//6 15//15 
f 6//6 15//15 15//15 
f 15//15 15//15 14//14 
f 15//15 22//22 14//14 
f 14//14 22//22 22//22 
f 22//22 10//10 22//22 
f 22//22 10//10 10//10 
f 10//10 11//11 10//10 
f 10//10 11//11 23//23 
f 11//11 12//12 23//23 
f 23//23 12//12 12//12 
f 12//12 21//21 12//12 
f 12//12 21//21 21//21 
f 21//21 8//8 21//21 
f 21//21 8//8 24//24 
f 8//8 9//9 24//24 
f 24//24 9//9 25//25 
f 9//9 10//10 25//25 
f 25//25 10//10 26//26 
f 10//10 27//27 26//26 
f 26//26 27//27 28//28 
f 27//27 27//27 28//28 
f 28//28 27//27 29//29 
f 27//27 30//30 29//29 
f 29//29 30//30 31//31 
f 30//30 32//32 31//31 
f 31//31 32//32 33//33 
f 32//32 34//34 33//33 
f 33//33 34//34 35//35 
f 34//34 34//34 35//35 
f 35//35 34//34 36//36 
f 34//34 34//34 36//36 
f 36//36 34//34 10//10 
f 34//34 32//32 10//10 
f 10//10 32//32 10//10 
f 32//32 30//30 10//10 
f 10//10 30//30 27//27 
f 30//30 27//27 27//27 
f 27//27 27//27 24//24 
f 27//27 24//24 24//24 
f 24//24 24//24 37//37 
f 24//24 25//25 37//37 
f 37//37 25//25 37//37 
f 25//25 26//26 37//37 
f 37//37 26//26 28//28 
f 26//26 28//28 28//28 
f 28//28 28//28 35//35 
f 28//28 35//35 35//35 
f 35//35 35//35 38//38 
f 35//35 36//36 38//38 
f 38//38 36//36 39//39 
f 36//36 10//10 39//39 
f 39//39 10//10 40//40 
f 10//10 41//41 40//40 
f 40//40 41//41 42//42 
f 41//41 41//41 42//42 
f 42//42 41//41 43//43 
f 41//41 44//44 43//43 
f 43//43 44//44 45//45 
f 44//44 46//46 45//45 
f 45//45 46//46 47//47 
f 46//46 46//46 47//47 
f 47//47 46//46 48//48 
f 46//46 10//10 48//48 
f 48//48 10//10 48//48 
f 10//10 49//49 48//48 
f 48//48 49//49 50//50 
f 49//49 49//49 50//50 
f 50//50 49//49 51//51 
f 49//49 49//49 51//51 
f 51//51 49//49 52//52 
f 49//49 10//10 52//52 
f 52//52 10//10 53//53 
f 10//10 10//10 53//53 
f 53//53 10//10 54//54 
f 10//10 23//23 54//54 
f 54//54 23//23 55//55 
f 23//23 12//12 55//55 
f 55//55 12//12 56//56 
f 12//12 13//13 56//56 
f 56//56 13//13 57//57 
f 13//13 14//14 57//57 
f 57//57 14//14 58//58 
f 14//14 22//22 58//58 
f 58//58 22//22 22//22 
f 22//22 41//41 22//22 
f 22//22 41//41 41//41 
f 41//41 10//10 41//41 
f 41//41 10//10 44//44 
f 10//10 46//46 44//44 
f 44//44 46//46 46//46 
f 46//46 48//48 46//46 
f 46//46 48//48 48//48 
f 48//48 50//50 48//48 
f 48//48 50//50 47//47 
f 50//50 47//47 47//47 
f 47//47 47//47 58//58 
f 47//47 58//58 58//58 
f 58//58 58//58 57//57 
f 58//58 59//59 57//57 
f 57//57 59//59 57//57 
f 59//59 60//60 57//57 
f 57//57 60//60 61//61 
f 60//60 62//62 61//61 
f 61//61 62//62 61//61 
f 62//62 63//63 61//61 
f 61//61 63//63 64//64 
f 63//63 65//65 64//64 
f 64//64 65//65 64//64 
f 65//65 66//66 64//64 
f 64//64 66//66 67//67 
f 66//66 68//68 67//67 
f 67//67 68//68 67//67 
f 68//68 69//69 67//67 
f 67//67 69//69 67//67 
f 69//69 70//70 67//67 
f 67//67 70//70 67//67 
f 70//70 71//71 67//67 
f 67//67 71//71 72//72 
f 71//71 73//73 72//72 
f 72//72 73//73 74//74 
f 73//73 75//75 74//74 
f 74//74 75//75 74//74 
f 75//75 76//76 74//74 
f 74//74 76//76 77//77 
f 76//76 78//78 77//77 
f 77//77 78//78 77//77 
f 78//78 79//79 77//77 
f 77//77 79//79 80//80 
f 79//79 81//81 80//80 
f 80//80 81//81 80//80 
f 81//81 82//82 80//80 
f 80//80 82//82 83//83 
f 82//82 84//84 83//83 
f 83//83 84//84 83//83 
f 84//84 85//85 83//83 
f 83//83 85//85 86//86 
f 85//85 87//87 86//86 
f 86//86 87//87 86//86 
f 87//87 88//88 86//86 
f 86//86 88//88 86//86 
f 88//88 89//89 86//86 
f 86//86 89//89 86//86 
f 89//89 90//90 86//86 
f 86//86 90//90 91//91 
f 90//90 92//92 91//91 
f 91//91 92//92 93//93 
f 92//92 94//94 93//93 
f 93//93 94//94 93//93 
f 94//94 95//95 93//93 
f 93//93 95//95 96//96 
f 95//95 97//97 96//96 
f 96//96 97//97 96//96 
f 97//97 98//98 96//96 
f 96//96 98//98 99//99 
f 98//98 100//100 99//99 
f 99//99 100//100 99//99 
f 100//100 101//101 99//99 
f 99//99 101//101 102//102 
f 101//101 103//103 102//102 
f 102//102 103//103 102//102 
f 103//103 104//104 102//102 
f 102//102 104//104 105//105 
f 104//104 106//106 105//105 
f 105//105 106//106 105//105 
f 106//106 107//107 105//105 
f 105//105 107//107 105//105 
f 107//107 108//108 105//105 
f 105//105 108//108 105//105 
f 108//108 109//109 105//105 
f 105//105 109//109 110//110 
f 109//109 111//111 110//110 
f 110//110 111//111 112//112 
f 111//111 113//113 112//112 
f 112//112 113//113 112//112 
f 113//113 114//114 112//112 
f 112//112 114//114 115//115 
f 114//114 116//116 115//115 
f 115//115 116//116 115//115 
f 116//116 20//20 115//115 
f 115//115 20//20 115//115 
f 20//20 18//18 115//115 
f 115//115 18//18 115//115 
f 18//18 21//21 115//115 
f 115//115 21//21 117//117 
f 21//21 24//24 117//117 
f 117//117 24//24 117//117 
f 24//24 37//37 117//117 
f 117//117 37//37 117//117 
f 37//37 118//118 117//117 
f 117//117 118//118 112//112 
f 118//118 118//118 112//112 
f 112//112 118//118 110//110 
f 118//118 119//119 110//110 
f 110//110 119//119 105//105 
f 119//119 105//105 105//105 
f 105//105 105//105 61//61 
f 105//105 61//61 61//61 
f 61//61 61//61 57//57 
f 61//61 56//56 57//57 
f 57//57 56//56 56//56 
f 56//56 117//117 56//56 
f 56//56 117//117 117//117 
f 117//117 112//112 117//117 
f 117//117 112//112 115//115 
f 112//112 115//115 115//115 
f 115//115 115//115 37//37 
f 115//115 37//37 37//37 
f 37//37 37//37 118//118 
f 37//37 28//28 118//118 
f 118//118 28//28 119//119 
f 28//28 29//29 119//119 
f 119//119 29//29 120//120 
f 29//29 31//31 120//120 
f 120//120 31//31 121//121 
f 31//31 33//33 121//121 
f 121//121 33//33 33//33 
f 33//33 119//119 33//33 
f 33//33 119//119 119//119 
f 119//119 120//120 119//119 
f 119//119 120//120 105//105 
f 120//120 120//120 105//105 
f 105//105 120//120 102//102 
f 120//120 121//121 102//102 
f 102//102 121//121 99//99 
f 121//121 122//122 99//99 
f 99//99 122//122 96//96 
f 122//122 122//122 96//96 
f 96//96 122//122 123//123 
f 122//122 35//35 123//123 
f 123//123 35//35 123//123 
f 35//35 38//38 123//123 
f 123//123 38//38 123//123 
f 38//38 124//124 123//123 
f 123//123 124//124 123//123 
f 124//124 93//93 123//123 
f 123//123 93//93 96//96 
f 93//93 96//96 96//96 
f 96//96 96//96 121//121 
f 96//96 121//121 121//121 
f 121//121 121//121 122//122 
f 121//121 33//33 122//122 
f 122//122 33//33 35//35 
f 33//33 35//35 35//35 
f 35//35 35//35 93//93 
f 35//35 93//93 93//93 
f 93//93 93//93 91//91 
f 93//93 124//124 91//91 
f 91//91 124//124 125//125 
f 124//124 126//126 125//125 
f 125//125 126//126 42//42 
f 126//126 126//126 42//42 
f 42//42 126//126 40//40 
f 126//126 126//126 40//40 
f 40//40 126//126 39//39 
f 126//126 126//126 39//39 
f 39//39 126//126 38//38 
f 126//126 124//124 38//38 
f 38//38 124//124 124//124 
f 124//124 91//91 124//124 
f 124//124 91//91 91//91 
f 91//91 125//125 91//91 
f 91//91 125//125 86//86 
f 125//125 127//127 86//86 
f 86//86 127//127 83//83 
f 127//127 127//127 83//83 
f 83//83 127//127 128//128 
f 127//127 43//43 128//128 
f 128//128 43//43 128//128 
f 43//43 45//45 128//128 
f 128//128 45//45 129//129 
f 45//45 47//47 129//129 
f 129//129 47//47 130//130 
f 47//47 50//50 130//130 
f 130//130 50//50 131//131 
f 50//50 51//51 131//131 
f 131//131 51//51 132//132 
f 51//51 51//51 132//132 
f 132//132 51//51 133//133 
f 51//51 52//52 133//133 
f 133//133 52//52 133//133 
f 52//52 53//53 133//133 
f 133//133 53//53 134//134 
f 53//53 54//54 134//134 
f 134//134 54//54 134//134 
f 54//54 55//55 134//134 
f 134//134 55//55 135//135 
f 55//55 56//56 135//135 
f 135//135 56//56 135//135 
f 56//56 61//61 135//135 
f 135//135 61//61 135//135 
f 61//61 64//64 135//135 
f 135//135 64//64 136//136 
f 64//64 67//67 136//136 
f 136//136 67//67 132//132 
f 67//67 72//72 132//132 
f 132//132 72//72 131//131 
f 72//72 74//74 131//131 
f 131//131 74//74 130//130 
f 74//74 77//77 130//130 
f 130//130 77//77 129//129 
f 77//77 80//80 129//129 
f 129//129 80//80 128//128 
f 80//80 83//83 128//128 
f 128//128 83//83 83//83 
f 83//83 125//125 83//83 
f 83//83 125//125 125//125 
f 125//125 42//42 125//125 
f 125//125 42//42 127//127 
f 42//42 43//43 127//127 
f 127//127 43//43 43//43 
f 43//43 135//135 43//43 
f 43//43 135//135 135//135 
f 135//135 136//136 135//135 
f 135//135 136//136 134//134 
f 136//136 136//136 134//134 
f 134//134 136//136 133//133 
f 136//136 132//132 133//133 
f 133//133 132//132 132//132 
f 132//132 137//137 132//132 
f 132//132 137//137 137//137 
f 137//137 138//138 137//137 
f 137//137 138//138 139//139 
f 138//138 140//140 139//139 
f 139//139 140//140 141//141 
f 140//140 141//141 141//141 
f 141//141 141//141 138//138 
f 141//141 138//138 138//138 
f 138//138 138//138 140//140 
f 138//138 142//142 140//140 
f 140//140 142//142 143//143 
f 142//142 144//144 143//143 
f 143//143 144//144 145//145 
f 144//144 146//146 145//145 
f 145//145 146//146 145//145 
f 146//146 147//147 145//145 
f 145//145 147//147 145//145 
f 147//147 148//148 145//145 
f 145//145 148//148 149//149 
f 148//148 149//149 149//149 
f 149//149 149//149 142//142 
f 149//149 142//142 142//142 
f 142//142 142//142 144//144 
f 142//142 150//150 144//144 
f 144//144 150//150 151//151 
f 150//150 151//151 151//151 
f 151//151 151//151 152//152 
f 151//151 152//152 152//152 
f 152//152 152//152 153//153 
f 152//152 143//143 153//153 
f 153//153 143//143 154//154 
f 143//143 155//155 154//154 
f 154//154 155//155 156//156 
f 155//155 157//157 156//156 
f 156//156 157//157 158//158 
f 157//157 157//157 158//158 
f 158//158 157//157 159//159 
f 157//157 160//160 159//159 
f 159//159 160//160 161//161 
f 160//160 161//161 161//161 
f 161//161 161//161 143//143 
f 161//161 143//143 143//143 
f 143//143 143//143 155//155 
f 143//143 145//145 155//155 
f 155//155 145//145 155//155 
f 145//145 162//162 155//155 
f 155//155 162//162 163//163 
f 162//162 162//162 163//163 
f 163//163 162//162 164//164 
f 162//162 165//165 164//164 
f 164//164 165//165 164//164 
f 165//165 166//166 164//164 
f 164//164 166//166 167//167 
f 166//166 167//167 167//167 
f 167//167 167//167 158//158 
f 167//167 158//158 158//158 
f 158//158 158//158 156//156 
f 158//158 168//168 156//156 
f 156//156 168//168 169//169 
f 168//168 169//169 169//169 
f 169//169 169//169 157//157 
f 169//169 157//157 157//157 
f 157//157 157//157 160//160 
f 157//157 170//170 160//160 
f 160//160 170//170 170//170 
f 170//170 171//171 170//170 
f 170//170 171//171 171//171 
f 171//171 155//155 171//171 
f 171//171 155//155 172//172 
f 155//155 163//163 172//172 
f 172//172 163//163 163//163 
f 163//163 165//165 163//163 
f 163//163 165//165 165//165 
f 165//165 162//162 165//165 
f 165//165 162//162 173//173 
f 162//162 174//174 173//173 
f 173//173 174//174 175//175 
f 174//174 175//175 175//175 
f 175//175 175//175 162//162 
f 175//175 162//162 162//162 
f 162//162 162//162 174//174 
f 162//162 176//176 174//174 
f 174//174 176//176 176//176 
f 176//176 177//177 176//176 
f 176//176 177//177 177//177 
f 177//177 178//178 177//177 
f 177//177 178//178 179//179 
f 178//178 146//146 179//179 
f 179//179 146//146 180//180 
f 146//146 181//181 180//180 
f 180//180 181//181 181//181 
f 181//181 146//146 181//181 
f 181//181 146//146 146//146 
f 146//146 178//178 146//146 
f 146//146 178//178 147//147 
f 178//178 147//147 147//147 
f 147//147 147//147 180//180 
f 147//147 180//180 180//180 
f 180//180 180//180 179//179 
f 180//180 182//182 179//179 
f 179//179 182//182 183//183 
f 182//182 183//183 183//183 
f 183//183 183//183 184//184 
f 183//183 184//184 184//184 
f 184//184 184//184 184//184 
f 184//184 185//185 184//184 
f 184//184 185//185 186//186 
f 185//185 185//185 186//186 
f 186//186 185//185 187//187 
f 185//185 188//188 187//187 
f 187//187 188//188 189//189 
f 188//188 188//188 189//189 
f 189//189 188//188 190//190 
f 188//188 191//191 190//190 
f 190//190 191//191 192//192 
f 191//191 191//191 192//192 
f 192//192 191//191 193//193 
f 191//191 194//194 193//193 
f 193//193 194//194 195//195 
f 194//194 194//194 195//195 
f 195//195 194//194 196//196 
f 194//194 197//197 196//196 
f 196//196 197//197 198//198 
f 197//197 197//197 198//198 
f 198//198 197//197 199//199 
f 197//197 200//200 199//199 
f 199//199 200//200 199//199 
f 200//200 201//201 199//199 
f 199//199 201//201 202//202 
f 201//201 201//201 202//202 
f 202//202 201//201 203//203 
f 201//201 201//201 203//203 
f 203//203 201//201 204//204 
f 201//201 205//205 204//204 
f 204//204 205//205 206//206 
f 205//205 205//205 206//206 
f 206//206 205//205 207//207 
f 205//205 208//208 207//207 
f 207//207 208//208 209//209 
f 208//208 208//208 209//209 
f 209//209 208//208 210//210 
f 208//208 211//211 210//210 
f 210//210 211//211 212//212 
f 211//211 211//211 212//212 
f 212//212 211//211 213//213 
f 211//211 214//214 213//213 
f 213//213 214//214 215//215 
f 214//214 214//214 215//215 
f 215//215 214//214 216//216 
f 214//214 217//217 216//216 
f 216//216 217//217 218//218 
f 217//217 217//217 218//218 
f 218//218 217//217 219//219 
f 217//217 220//220 219//219 
f 219//219 220//220 221//221 
f 220//220 222//222 221//221 
f 221//221 222//222 223//223 
f 222//222 222//222 223//223 
f 223//223 222//222 224//224 
f 222//222 225//225 224//224 
f 224//224 225//225 226//226 
f 225//225 225//225 226//226 
f 226//226 225//225 227//227 
f 225//225 228//228 227//227 
f 227//227 228//228 229//229 
f 228//228 228//228 229//229 
f 229//229 228//228 230//230 
f 228//228 231//231 230//230 
f 230//230 231//231 232//232 
f 231//231 231//231 232//232 
f 232//232 231//231 233//233 
f 231//231 234//234 233//233 
f 233//233 234//234 235//235 
f 234//234 234//234 235//235 
f 235//235 234//234 236//236 
f 234//234 237//237 236//236 
f 236//236 237//237 238//238 
f 237//237 237//237 238//238 
f 238//238 237//237 239//239 
f 237//237 240//240 239//239 
f 239//239 240//240 241//241 
f 240//240 242//242 241//241 
f 241//241 242//242 243//243 
f 242//242 242//242 243//243 
f 243//243 242//242 244//244 
f 242//242 245//245 244//244 
f 244//244 245//245 246//246 
f 245//245 245//245 246//246 
f 246//246 245//245 247//247 
f 245//245 248//248 247//247 
f 247//247 248//248 249//249 
f 248//248 248//248 249//249 
f 249//249 248//248 250//250 
f 248//248 251//251 250//250 
f 250//250 251//251 252//252 
f 251//251 251//251 252//252 
f 252//252 251//251 253//253 
f 251//251 254//254 253//253 
f 253//253 254//254 255//255 
f 254//254 254//254 255//255 
f 255//255 254//254 184//184 
f 254//254 254//254 184//184 
f 184//184 254//254 185//185 
f 254//254 254//254 185//185 
f 185//185 254//254 256//256 
f 254//254 254//254 256//256 
f 256//256 254//254 257//257 
f 254//254 251//251 257//257 
f 257//257 251//251 258//258 
f 251//251 248//248 258//258 
f 258//258 248//248 259//259 
f 248//248 245//245 259//259 
f 259//259 245//245 259//259 
f 245//245 242//242 259//259 
f 259//259 242//242 259//259 
f 242//242 240//240 259//259 
f 259//259 240//240 260//260 
f 240//240 237//237 260//260 
f 260//260 237//237 261//261 
f 237//237 234//234 261//261 
f 261//261 234//234 261//261 
f 234//234 231//231 261//261 
f 261//261 231//231 262//262 
f 231//231 228//228 262//262 
f 262//262 228//228 262//262 
f 228//228 225//225 262//262 
f 262//262 225//225 263//263 
f 225//225 222//222 263//263 
f 263//263 222//222 264//264 
f 222//222 222//222 264//264 
f 264//264 222//222 265//265 
f 222//222 220//220 265//265 
f 265//265 220//220 265//265 
f 220//220 217//217 265//265 
f 265//265 217//217 266//266 
f 217//217 214//214 266//266 
f 266//266 214//214 267//267 
f 214//214 211//211 267//267 
f 267//267 211//211 267//267 
f 211//211 208//208 267//267 
f 267//267 208//208 267//267 
f 208//208 205//205 267//267 
f 267//267 205//205 268//268 
f 205//205 201//201 268//268 
f 268//268 201//201 268//268 
f 201//201 200//200 268//268 
f 268//268 200//200 269//269 
f 200//200 197//197 269//269 
f 269//269 197//197 270//270 
f 197//197 194//194 270//270 
f 270//270 194//194 271//271 
f 194//194 191//191 271//271 
f 271//271 191//191 271//271 
f 191//191 188//188 271//271 
f 271//271 188//188 271//271 
f 188//188 185//185 271//271 
f 271//271 185//185 271//271 
f 185//185 256//256 271//271 
f 271//271 256//256 271//271 
f 256//256 272//272 271//271 
f 271//271 272//272 271//271 
f 272//272 273//273 271//271 
f 271//271 273//273 270//270 
f 273//273 274//274 270//270 
f 270//270 274//274 269//269 
f 274//274 275//275 269//269 
f 269//269 275//275 268//268 
f 275//275 276//276 268//268 
f 268//268 276//276 267//267 
f 276//276 277//277 267//267 
f 267//267 277//277 266//266 
f 277//277 278//278 266//266 
f 266//266 278//278 265//265 
f 278//278 279//279 265//265 
f 265//265 279//279 264//264 
f 279//279 279//279 264//264 
f 264//264 279//279 263//263 
f 279//279 280//280 263//263 
f 263//263 280//280 262//262 
f 280//280 281//281 262//262 
f 262//262 281//281 261//261 
f 281//281 282//282 261//261 
f 261//261 282//282 260//260 
f 282//282 283//283 260//260 
f 260//260 283//283 259//259 
f 283//283 284//284 259//259 
f 259//259 284//284 258//258 
f 284//284 285//285 258//258 
f 258//258 285//285 257//257 
f 285//285 286//286 257//257 
f 257//257 286//286 256//256 
f 286//286 286//286 256//256 
f 256//256 286//286 272//272 
f 286//286 286//286 272//272 
f 272//272 286//286 287//287 
f 286//286 286//286 287//287 
f 287//287 286//286 288//288 
f 286//286 285//285 288//288 
f 288//288 285//285 289//289 
f 285//285 284//284 289//289 
f 289//289 284//284 290//290 
f 284//284 283//283 290//290 
f 290//290 283//283 291//291 
f 283//283 282//282 291//291 
f 291//291 282//282 292//292 
f 282//282 281//281 292//292 
f 292//292 281//281 293//293 
f 281//281 280//280 293//293 
f 293//293 280//280 294//294 
f 280//280 279//279 294//294 
f 294//294 279//279 295//295 
f 279//279 278//278 295//295 
f 295//295 278//278 296//296 
f 278//278 277//277 296//296 
f 296//296 277//277 297//297 
f 277//277 276//276 297//297 
f 297//297 276//276 298//298 
f 276//276 275//275 298//298 
f 298//298 275//275 299//299 
f 275//275 274//274 299//299 
f 299//299 274//274 300//300 
f 274//274 273//273 300//300 
f 300//300 273//273 301//301 
f 273//273 272//272 301//301 
f 301//301 272//272 301//301 
f 272//272 287//287 301//301 
f 301//301 287//287 302//302 
f 287//287 303//303 302//302 
f 302//302 303//303 303//303 
f 303//303 302//302 303//303 
f 303//303 302//302 302//302 
f 302//302 304//304 302//302 
f 302//302 304//304 301//301 
f 304//304 304//304 301//301 
f 301//301 304//304 300//300 
f 304//304 305//305 300//300 
f 300//300 305//305 299//299 
f 305//305 306//306 299//299 
f 299//299 306//306 298//298 
f 306//306 307//307 298//298 
f 298//298 307//307 297//297 
f 307//307 308//308 297//297 
f 297//297 308//308 296//296 
f 308//308 309//309 296//296 
f 296//296 309//309 295//295 
f 309//309 310//310 295//295 
f 295//295 310//310 294//294 
f 310//310 311//311 294//294 
f 294//294 311//311 294//294 
f 311//311 312//312 294//294 
f 294//294 312//312 293//293 
f 312//312 313//313 293//293 
f 293//293 313//313 292//292 
f 313//313 314//314 292//292 
f 292//292 314//314 291//291 
f 314//314 315//315 291//291 
f 291//291 315//315 290//290 
f 315//315 316//316 290//290 
f 290//290 316//316 289//289 
f 316//316 317//317 289//289 
f 289//289 317//317 288//288 
f 317//317 303//303 288//288 
f 288//288 303//303 287//287 
f 303//303 287//287 287//287 
f 287//287 287//287 318//318 
f 287//287 318//318 318//318 
f 318//318 318//318 319//319 
f 318//318 320//320 319//319 
f 319//319 320//320 319//319 
f 320//320 321//321 319//319 
f 319//319 321//321 319//319 
f 321//321 322//322 319//319 
f 319//319 322//322 319//319 
f 322//322 323//323 319//319 
f 319//319 323//323 319//319 
f 323//323 324//324 319//319 
f 319//319 324//324 319//319 
f 324//324 325//325 319//319 
f 319//319 325//325 319//319 
f 325//325 326//326 319//319 
f 319//319 326//326 319//319 
f 326//326 327//327 319//319 
f 319//319 327//327 319//319 
f 327//327 328//328 319//319 
f 319//319 328//328 319//319 
f 328//328 329//329 319//319 
f 319//319 329//329 319//319 
f 329//329 330//330 319//319 
f 319//319 330//330 319//319 
f 330//330 331//331 319//319 
f 319//319 331//331 319//319 
f 331//331 332//332 319//319 
f 319//319 332//332 319//319 
f 332//332 333//333 319//319 
f 319//319 333//333 319//319 
f 333//333 334//334 319//319 
f 319//319 334//334 318//318 
f 334//334 318//318 318//318 
f 318//318 318//318 335//335 
f 318//318 335//335 335//335 
f 335//335 335//335 336//336 
f 335//335 337//337 336//336 
f 336//336 337//337 338//338 
f 337//337 339//339 338//338 
f 338//338 339//339 339//339 
f 339//339 336//336 339//339 
f 339//339 336//336 336//336 
f 336//336 338//338 336//336 
f 336//336 338//338 340//340 
f 338//338 341//341 340//340 
f 340//340 341//341 342//342 
f 341//341 343//343 342//342 
f 342//342 343//343 344//344 
f 343//343 343//343 344//344 
f 344//344 343//343 345//345 
f 343//343 343//343 345//345 
f 345//345 343//343 346//346 
f 343//343 347//347 346//346 
f 346//346 347//347 347//347 
f 347//347 340//340 347//347 
f 347//347 340//340 340//340 
f 340//340 342//342 340//340 
f 340//340 342//342 348//348 
f 342//342 349//349 348//348 
f 348//348 349//349 349//349 
f 349//349 350//350 349//349 
f 349//349 350//350 350//350 
f 350//350 351//351 350//350 
f 350//350 351//351 341//341 
f 351//351 352//352 341//341 
f 341//341 352//352 353//353 
f 352//352 354//354 353//353 
f 353//353 354//354 355//355 
f 354//354 356//356 355//355 
f 355//355 356//356 355//355 
f 356//356 357//357 355//355 
f 355//355 357//357 358//358 
f 357//357 359//359 358//358 
f 358//358 359//359 359//359 
f 359//359 341//341 359//359 
f 359//359 341//341 341//341 
f 341//341 353//353 341//341 
f 341//341 353//353 343//343 
f 353//353 353//353 343//343 
f 343//343 353//353 360//360 
f 353//353 361//361 360//360 
f 360//360 361//361 360//360 
f 361//361 362//362 360//360 
f 360//360 362//362 363//363 
f 362//362 362//362 363//363 
f 363//363 362//362 364//364 
f 362//362 365//365 364//364 
f 364//364 365//365 365//365 
f 365//365 356//356 365//365 
f 365//365 356//356 356//356 
f 356//356 354//354 356//356 
f 356//356 354//354 366//366 
f 354//354 367//367 366//366 
f 366//366 367//367 367//367 
f 367//367 358//358 367//367 
f 367//367 358//358 358//358 
f 358//358 368//368 358//358 
f 358//358 368//368 355//355 
f 368//368 355//355 355//355 
f 355//355 355//355 369//369 
f 355//355 369//369 369//369 
f 369//369 369//369 353//353 
f 369//369 370//370 353//353 
f 353//353 370//370 361//361 
f 370//370 361//361 361//361 
f 361//361 361//361 363//363 
f 361//361 363//363 363//363 
f 363//363 363//363 360//360 
f 363//363 371//371 360//360 
f 360//360 371//371 372//372 
f 371//371 373//373 372//372 
f 372//372 373//373 373//373 
f 373//373 372//372 373//373 
f 373//373 372//372 372//372 
f 372//372 374//374 372//372 
f 372//372 374//374 360//360 
f 374//374 360//360 360//360 
f 360//360 360//360 375//375 
f 360//360 375//375 375//375 
f 375//375 375//375 376//376 
f 375//375 377//377 376//376 
f 376//376 377//377 344//344 
f 377//377 378//378 344//344 
f 344//344 378//378 379//379 
f 378//378 379//379 379//379 
f 379//379 379//379 345//345 
f 379//379 345//345 345//345 
f 345//345 345//345 344//344 
f 345//345 376//376 344//344 
f 344//344 376//376 376//376 
f 376//376 378//378 376//376 
f 376//376 378//378 378//378 
f 378//378 377//377 378//378 
f 378//378 377//377 380//380 
f 377//377 381//381 380//380 

