mtllib model_29.mtl
o model_29
v 0.014719604514539242 1.4786932468414307 -0.22209130227565765 
v 0.014181236736476421 1.4749784469604492 -0.2572838366031647 
v 0.016902010887861252 1.4954324960708618 -0.22389164566993713 
v 0.016363641247153282 1.4917176961898804 -0.25908416509628296 
v 0.014719604514539242 1.4786932468414307 -0.22209130227565765 
v 0.005029025487601757 1.481034517288208 -0.21206912398338318 
v 0.014181236736476421 1.4749784469604492 -0.2572838366031647 
v -0.04180877283215523 1.4871492385864258 -0.21199290454387665 
v -0.05311444774270058 1.487436056137085 -0.22303161025047302 
v -0.0536528117954731 1.4838382005691528 -0.25713592767715454 
v 0.016902010887861252 1.4954324960708618 -0.22389164566993713 
v 0.014719604514539242 1.4786932468414307 -0.22209130227565765 
v 0.0072114309296011925 1.4977738857269287 -0.21386945247650146 
v 0.005029025487601757 1.481034517288208 -0.21206912398338318 
v 0.016902010887861252 1.4954324960708618 -0.22389164566993713 
v 0.0072114309296011925 1.4977738857269287 -0.21386945247650146 
v 0.016363641247153282 1.4917176961898804 -0.25908416509628296 
v -0.03962636739015579 1.5038886070251465 -0.21379324793815613 
v -0.05093204230070114 1.5041753053665161 -0.2248319387435913 
v -0.05147040635347366 1.5005775690078735 -0.2589362561702728 
v -0.0536528117954731 1.4838382005691528 -0.25713592767715454 
v -0.05147040635347366 1.5005775690078735 -0.2589362561702728 
v 0.014181236736476421 1.4749784469604492 -0.2572838366031647 
v 0.016363641247153282 1.4917176961898804 -0.25908416509628296 
v 0.005029025487601757 1.481034517288208 -0.21206912398338318 
v 0.0072114309296011925 1.4977738857269287 -0.21386945247650146 
v -0.04180877283215523 1.4871492385864258 -0.21199290454387665 
v -0.03962636739015579 1.5038886070251465 -0.21379324793815613 
v -0.04180877283215523 1.4871492385864258 -0.21199290454387665 
v -0.03962636739015579 1.5038886070251465 -0.21379324793815613 
v -0.05311444774270058 1.487436056137085 -0.22303161025047302 
v -0.05093204230070114 1.5041753053665161 -0.2248319387435913 
v -0.0536528117954731 1.4838382005691528 -0.25713592767715454 
v -0.05311444774270058 1.487436056137085 -0.22303161025047302 
v -0.05147040635347366 1.5005775690078735 -0.2589362561702728 
v -0.05093204230070114 1.5041753053665161 -0.2248319387435913 
v -0.03136124461889267 1.3999370336532593 -0.23154747486114502 
v -0.02884766273200512 1.3995791673660278 -0.23182764649391174 
v -0.03371772915124893 1.4003593921661377 -0.23047761619091034 
v -0.02617698349058628 1.3992688655853271 -0.2314756214618683 
v -0.023820500820875168 1.3990837335586548 -0.23034042119979858 
v -0.02177821658551693 1.3989899158477783 -0.22873705625534058 
v -0.020207228139042854 1.3990076780319214 -0.22666771709918976 
v -0.01910753734409809 1.3991199731826782 -0.2242899090051651 
v -0.018793340772390366 1.3993674516677856 -0.221607968211174 
v -0.01910753734409809 1.3996790647506714 -0.2190922498703003 
v -0.020207228139042854 1.40007483959198 -0.21674491465091705 
v -0.02177821658551693 1.400497555732727 -0.21471913158893585 
v -0.023820500820875168 1.400947093963623 -0.2130148857831955 
v -0.03576001524925232 1.4007920026779175 -0.22893087565898895 
v -0.03748810291290283 1.4012348651885986 -0.22690726816654205 
v -0.03843069449067116 1.4016104936599731 -0.2245577573776245 
v -0.038744889199733734 1.4019389152526855 -0.22188453376293182 
v -0.03843069449067116 1.4021694660186768 -0.2193600982427597 
v -0.02617698349058628 1.4013525247573853 -0.2121025174856186 
v -0.02884766273200512 1.4017305374145508 -0.21182453632354736 
v -0.03136124461889267 1.4020206928253174 -0.21217438578605652 
v -0.03371772915124893 1.402222752571106 -0.21315208077430725 
v -0.03748810291290283 1.4023021459579468 -0.21698446571826935 
v -0.03576001524925232 1.4022996425628662 -0.21491293609142303 
v -0.01910753734409809 1.3991199731826782 -0.2242899090051651 
v -0.03371772915124893 1.4003593921661377 -0.23047761619091034 
v -0.018793340772390366 1.3993674516677856 -0.221607968211174 
v -0.01910753734409809 1.3996790647506714 -0.2190922498703003 
v -0.020207228139042854 1.40007483959198 -0.21674491465091705 
v -0.02177821658551693 1.400497555732727 -0.21471913158893585 
v -0.023820500820875168 1.400947093963623 -0.2130148857831955 
v -0.03576001524925232 1.4007920026779175 -0.22893087565898895 
v -0.03748810291290283 1.4012348651885986 -0.22690726816654205 
v -0.03843069449067116 1.4016104936599731 -0.2245577573776245 
v -0.038744889199733734 1.4019389152526855 -0.22188453376293182 
v -0.03843069449067116 1.4021694660186768 -0.2193600982427597 
v -0.02617698349058628 1.4013525247573853 -0.2121025174856186 
v -0.02884766273200512 1.4017305374145508 -0.21182453632354736 
v -0.03136124461889267 1.4020206928253174 -0.21217438578605652 
v -0.03371772915124893 1.402222752571106 -0.21315208077430725 
v -0.03748810291290283 1.4023021459579468 -0.21698446571826935 
v -0.03576001524925232 1.4022996425628662 -0.21491293609142303 
v -0.020207228139042854 1.3990076780319214 -0.22666771709918976 
v -0.02177821658551693 1.3989899158477783 -0.22873705625534058 
v -0.023820500820875168 1.3990837335586548 -0.23034042119979858 
v -0.02617698349058628 1.3992688655853271 -0.2314756214618683 
v -0.02884766273200512 1.3995791673660278 -0.23182764649391174 
v -0.03136124461889267 1.3999370336532593 -0.23154747486114502 
vn 1.5740954875946045 -0.20196467638015747 -0.0023854465689510107 
vn 1.5740954875946045 -0.20196467638015747 -0.0023854465689510107 
vn 1.5740954875946045 -0.20196467638015747 -0.0023854465689510107 
vn 1.5740954875946045 -0.20196467638015747 -0.0023854465689510107 
vn -0.20401357114315033 -1.5648086071014404 0.16829711198806763 
vn -0.20401357114315033 -1.5648086071014404 0.16829711198806763 
vn -0.20401357114315033 -1.5648086071014404 0.16829711198806763 
vn -0.20401357114315033 -1.5648086071014404 0.16829711198806763 
vn -0.20401357114315033 -1.5648086071014404 0.16829711198806763 
vn -0.20401357114315033 -1.5648086071014404 0.16829711198806763 
vn 1.1299920082092285 -0.023989863693714142 1.114053726196289 
vn 1.1299920082092285 -0.023989863693714142 1.114053726196289 
vn 1.1299920082092285 -0.023989863693714142 1.114053726196289 
vn 1.1299920082092285 -0.023989863693714142 1.114053726196289 
vn 0.20401357114315033 1.5648086071014404 -0.16829711198806763 
vn 0.20401357114315033 1.5648086071014404 -0.16829711198806763 
vn 0.20401357114315033 1.5648086071014404 -0.16829711198806763 
vn 0.20401357114315033 1.5648086071014404 -0.16829711198806763 
vn 0.20401357114315033 1.5648086071014404 -0.16829711198806763 
vn 0.20401357114315033 1.5648086071014404 -0.16829711198806763 
vn -0.0233241468667984 -0.16320320963859558 -1.5784152746200562 
vn -0.0233241468667984 -0.16320320963859558 -1.5784152746200562 
vn -0.0233241468667984 -0.16320320963859558 -1.5784152746200562 
vn -0.0233241468667984 -0.16320320963859558 -1.5784152746200562 
vn 0.024215562269091606 0.17004047334194183 1.577679991722107 
vn 0.024215562269091606 0.17004047334194183 1.577679991722107 
vn 0.024215562269091606 0.17004047334194183 1.577679991722107 
vn 0.024215562269091606 0.17004047334194183 1.577679991722107 
vn -1.095484972000122 0.2664659917354584 1.1169072389602661 
vn -1.095484972000122 0.2664659917354584 1.1169072389602661 
vn -1.095484972000122 0.2664659917354584 1.1169072389602661 
vn -1.095484972000122 0.2664659917354584 1.1169072389602661 
vn -1.5732041597366333 0.20880192518234253 0.0016500911442562938 
vn -1.5732041597366333 0.20880192518234253 0.0016500911442562938 
vn -1.5732041597366333 0.20880192518234253 0.0016500911442562938 
vn -1.5732041597366333 0.20880192518234253 0.0016500911442562938 
vn -0.20401357114315033 -1.5648086071014404 0.16829711198806763 
vn -0.20401357114315033 -1.5648086071014404 0.16829711198806763 
vn -0.20401357114315033 -1.5648086071014404 0.16829711198806763 
vn -0.20401357114315033 -1.5648086071014404 0.16829711198806763 
vn -0.20401357114315033 -1.5648086071014404 0.16829711198806763 
vn -0.20401357114315033 -1.5648086071014404 0.16829711198806763 
vn -0.20401357114315033 -1.5648086071014404 0.16829711198806763 
vn -0.20401357114315033 -1.5648086071014404 0.16829711198806763 
vn -0.20401357114315033 -1.5648086071014404 0.16829711198806763 
vn -0.20401357114315033 -1.5648086071014404 0.16829711198806763 
vn -0.20401357114315033 -1.5648086071014404 0.16829711198806763 
vn -0.20401357114315033 -1.5648086071014404 0.16829711198806763 
vn -0.20401357114315033 -1.5648086071014404 0.16829711198806763 
vn -0.20401357114315033 -1.5648086071014404 0.16829711198806763 
vn -0.20401357114315033 -1.5648086071014404 0.16829711198806763 
vn -0.20401357114315033 -1.5648086071014404 0.16829711198806763 
vn -0.20401357114315033 -1.5648086071014404 0.16829711198806763 
vn -0.20401357114315033 -1.5648086071014404 0.16829711198806763 
vn -0.20401357114315033 -1.5648086071014404 0.16829711198806763 
vn -0.20401357114315033 -1.5648086071014404 0.16829711198806763 
vn -0.20401357114315033 -1.5648086071014404 0.16829711198806763 
vn -0.20401357114315033 -1.5648086071014404 0.16829711198806763 
vn -0.20401357114315033 -1.5648086071014404 0.16829711198806763 
vn -0.20401357114315033 -1.5648086071014404 0.16829711198806763 
vn 0.20401357114315033 1.5648086071014404 -0.16829711198806763 
vn 0.20401357114315033 1.5648086071014404 -0.16829711198806763 
vn 0.20401357114315033 1.5648086071014404 -0.16829711198806763 
vn 0.20401357114315033 1.5648086071014404 -0.16829711198806763 
vn 0.20401357114315033 1.5648086071014404 -0.16829711198806763 
vn 0.20401357114315033 1.5648086071014404 -0.16829711198806763 
vn 0.20401357114315033 1.5648086071014404 -0.16829711198806763 
vn 0.20401357114315033 1.5648086071014404 -0.16829711198806763 
vn 0.20401357114315033 1.5648086071014404 -0.16829711198806763 
vn 0.20401357114315033 1.5648086071014404 -0.16829711198806763 
vn 0.20401357114315033 1.5648086071014404 -0.16829711198806763 
vn 0.20401357114315033 1.5648086071014404 -0.16829711198806763 
vn 0.20401357114315033 1.5648086071014404 -0.16829711198806763 
vn 0.20401357114315033 1.5648086071014404 -0.16829711198806763 
vn 0.20401357114315033 1.5648086071014404 -0.16829711198806763 
vn 0.20401357114315033 1.5648086071014404 -0.16829711198806763 
vn 0.20401357114315033 1.5648086071014404 -0.16829711198806763 
vn 0.20401357114315033 1.5648086071014404 -0.16829711198806763 
vn 0.20401357114315033 1.5648086071014404 -0.16829711198806763 
vn 0.20401357114315033 1.5648086071014404 -0.16829711198806763 
vn 0.20401357114315033 1.5648086071014404 -0.16829711198806763 
vn 0.20401357114315033 1.5648086071014404 -0.16829711198806763 
vn 0.20401357114315033 1.5648086071014404 -0.16829711198806763 
vn 0.20401357114315033 1.5648086071014404 -0.16829711198806763 
s on 
f 1//1 2//2 3//3 
f 2//2 4//4 3//3 
f 3//3 4//4 4//4 
f 4//4 5//5 4//4 
f 4//4 5//5 5//5 
f 5//5 6//6 5//5 
f 5//5 6//6 7//7 
f 6//6 8//8 7//7 
f 7//7 8//8 7//7 
f 8//8 9//9 7//7 
f 7//7 9//9 10//10 
f 9//9 10//10 10//10 
f 10//10 10//10 11//11 
f 10//10 11//11 11//11 
f 11//11 11//11 12//12 
f 11//11 13//13 12//12 
f 12//12 13//13 14//14 
f 13//13 14//14 14//14 
f 14//14 14//14 15//15 
f 14//14 15//15 15//15 
f 15//15 15//15 16//16 
f 15//15 17//17 16//16 
f 16//16 17//17 18//18 
f 17//17 17//17 18//18 
f 18//18 17//17 19//19 
f 17//17 20//20 19//19 
f 19//19 20//20 20//20 
f 20//20 21//21 20//20 
f 20//20 21//21 21//21 
f 21//21 22//22 21//21 
f 21//21 22//22 23//23 
f 22//22 24//24 23//23 
f 23//23 24//24 24//24 
f 24//24 25//25 24//24 
f 24//24 25//25 25//25 
f 25//25 26//26 25//25 
f 25//25 26//26 27//27 
f 26//26 28//28 27//27 
f 27//27 28//28 28//28 
f 28//28 29//29 28//28 
f 28//28 29//29 29//29 
f 29//29 30//30 29//29 
f 29//29 30//30 31//31 
f 30//30 32//32 31//31 
f 31//31 32//32 32//32 
f 32//32 33//33 32//32 
f 32//32 33//33 33//33 
f 33//33 34//34 33//33 
f 33//33 34//34 35//35 
f 34//34 36//36 35//35 
f 35//35 36//36 36//36 
f 36//36 37//37 36//36 
f 36//36 37//37 37//37 
f 37//37 38//38 37//37 
f 37//37 38//38 39//39 
f 38//38 40//40 39//39 
f 39//39 40//40 39//39 
f 40//40 41//41 39//39 
f 39//39 41//41 39//39 
f 41//41 42//42 39//39 
f 39//39 42//42 39//39 
f 42//42 43//43 39//39 
f 39//39 43//43 39//39 
f 43//43 44//44 39//39 
f 39//39 44//44 39//39 
f 44//44 45//45 39//39 
f 39//39 45//45 39//39 
f 45//45 46//46 39//39 
f 39//39 46//46 39//39 
f 46//46 47//47 39//39 
f 39//39 47//47 39//39 
f 47//47 48//48 39//39 
f 39//39 48//48 39//39 
f 48//48 49//49 39//39 
f 39//39 49//49 50//50 
f 49//49 49//49 50//50 
f 50//50 49//49 51//51 
f 49//49 49//49 51//51 
f 51//51 49//49 52//52 
f 49//49 49//49 52//52 
f 52//52 49//49 53//53 
f 49//49 49//49 53//53 
f 53//53 49//49 54//54 
f 49//49 55//55 54//54 
f 54//54 55//55 54//54 
f 55//55 56//56 54//54 
f 54//54 56//56 54//54 
f 56//56 57//57 54//54 
f 54//54 57//57 54//54 
f 57//57 58//58 54//54 
f 54//54 58//58 59//59 
f 58//58 60//60 59//59 
f 59//59 60//60 60//60 
f 60//60 61//61 60//60 
f 60//60 61//61 61//61 
f 61//61 62//62 61//61 
f 61//61 62//62 63//63 
f 62//62 62//62 63//63 
f 63//63 62//62 64//64 
f 62//62 62//62 64//64 
f 64//64 62//62 65//65 
f 62//62 62//62 65//65 
f 65//65 62//62 66//66 
f 62//62 62//62 66//66 
f 66//66 62//62 67//67 
f 62//62 68//68 67//67 
f 67//67 68//68 67//67 
f 68//68 69//69 67//67 
f 67//67 69//69 67//67 
f 69//69 70//70 67//67 
f 67//67 70//70 67//67 
f 70//70 71//71 67//67 
f 67//67 71//71 67//67 
f 71//71 72//72 67//67 
f 67//67 72//72 73//73 
f 72//72 72//72 73//73 
f 73//73 72//72 74//74 
f 72//72 72//72 74//74 
f 74//74 72//72 75//75 
f 72//72 72//72 75//75 
f 75//75 72//72 76//76 
f 72//72 77//77 76//76 
f 76//76 77//77 78//78 
f 77//77 78//78 78//78 
f 78//78 78//78 61//61 
f 78//78 61//61 61//61 
f 61//61 61//61 62//62 
f 61//61 79//79 62//62 
f 62//62 79//79 62//62 
f 79//79 80//80 62//62 
f 62//62 80//80 62//62 
f 80//80 81//81 62//62 
f 62//62 81//81 62//62 
f 81//81 82//82 62//62 
f 62//62 82//82 62//62 
f 82//82 83//83 62//62 
f 62//62 83//83 84//84 

