mtllib model_27.mtl
o model_27
v 0.04284436255693436 1.5856345891952515 -0.32232871651649475 
v 0.04284436255693436 1.5857019424438477 -0.3217022120952606 
v 0.036607157438993454 1.5396233797073364 -0.3171233534812927 
v 0.036607157438993454 1.5396907329559326 -0.3164968490600586 
v 0.036607157438993454 1.5396907329559326 -0.3164968490600586 
v 0.04284436255693436 1.5857019424438477 -0.3217022120952606 
v -0.05767730996012688 1.5523102283477783 -0.3178025484085083 
v -0.051440101116895676 1.598321557044983 -0.3230074644088745 
v 0.04284436255693436 1.5857019424438477 -0.3217022120952606 
v 0.04284436255693436 1.5856345891952515 -0.32232871651649475 
v -0.051440101116895676 1.598321557044983 -0.3230074644088745 
v -0.051440101116895676 1.5982540845870972 -0.32363396883010864 
v -0.051440101116895676 1.5982540845870972 -0.32363396883010864 
v 0.04284436255693436 1.5856345891952515 -0.32232871651649475 
v -0.05767730996012688 1.5522428750991821 -0.31842905282974243 
v 0.036607157438993454 1.5396233797073364 -0.3171233534812927 
v 0.036607157438993454 1.5396907329559326 -0.3164968490600586 
v -0.05767730996012688 1.5523102283477783 -0.3178025484085083 
v 0.036607157438993454 1.5396233797073364 -0.3171233534812927 
v -0.05767730996012688 1.5522428750991821 -0.31842905282974243 
v -0.051440101116895676 1.598321557044983 -0.3230074644088745 
v -0.051440101116895676 1.5982540845870972 -0.32363396883010864 
v -0.05767730996012688 1.5523102283477783 -0.3178025484085083 
v -0.05767730996012688 1.5522428750991821 -0.31842905282974243 
vn 1.5724622011184692 -0.2130953073501587 0.02291869930922985 
vn 1.5724622011184692 -0.2130953073501587 0.02291869930922985 
vn 1.5724622011184692 -0.2130953073501587 0.02291869930922985 
vn 1.5724622011184692 -0.2130953073501587 0.02291869930922985 
vn 0.0013370508095249534 0.17995737493038177 1.5767650604248047 
vn 0.0013370508095249534 0.17995737493038177 1.5767650604248047 
vn 0.0013370508095249534 0.17995737493038177 1.5767650604248047 
vn 0.0013370508095249534 0.17995737493038177 1.5767650604248047 
vn 0.21088238060474396 1.5625782012939453 -0.1801367849111557 
vn 0.21088238060474396 1.5625782012939453 -0.1801367849111557 
vn 0.21088238060474396 1.5625782012939453 -0.1801367849111557 
vn 0.21088238060474396 1.5625782012939453 -0.1801367849111557 
vn -0.0013370509259402752 -0.17995737493038177 -1.5767650604248047 
vn -0.0013370509259402752 -0.17995737493038177 -1.5767650604248047 
vn -0.0013370509259402752 -0.17995737493038177 -1.5767650604248047 
vn -0.0013370509259402752 -0.17995737493038177 -1.5767650604248047 
vn -0.21258077025413513 -1.5624842643737793 0.17895230650901794 
vn -0.21258077025413513 -1.5624842643737793 0.17895230650901794 
vn -0.21258077025413513 -1.5624842643737793 0.17895230650901794 
vn -0.21258077025413513 -1.5624842643737793 0.17895230650901794 
vn -1.5724622011184692 0.2130953073501587 -0.02291869930922985 
vn -1.5724622011184692 0.2130953073501587 -0.02291869930922985 
vn -1.5724622011184692 0.2130953073501587 -0.02291869930922985 
vn -1.5724622011184692 0.2130953073501587 -0.02291869930922985 
s on 
f 1//1 2//2 3//3 
f 2//2 4//4 3//3 
f 3//3 4//4 4//4 
f 4//4 5//5 4//4 
f 4//4 5//5 5//5 
f 5//5 6//6 5//5 
f 5//5 6//6 7//7 
f 6//6 8//8 7//7 
f 7//7 8//8 8//8 
f 8//8 9//9 8//8 
f 8//8 9//9 9//9 
f 9//9 10//10 9//9 
f 9//9 10//10 11//11 
f 10//10 12//12 11//11 
f 11//11 12//12 12//12 
f 12//12 13//13 12//12 
f 12//12 13//13 13//13 
f 13//13 14//14 13//13 
f 13//13 14//14 15//15 
f 14//14 16//16 15//15 
f 15//15 16//16 16//16 
f 16//16 17//17 16//16 
f 16//16 17//17 17//17 
f 17//17 18//18 17//17 
f 17//17 18//18 19//19 
f 18//18 20//20 19//19 
f 19//19 20//20 20//20 
f 20//20 21//21 20//20 
f 20//20 21//21 21//21 
f 21//21 22//22 21//21 
f 21//21 22//22 23//23 
f 22//22 24//24 23//23 

