mtllib model_30.mtl
o model_30
v 0.10521271079778671 1.673877477645874 -0.2461034506559372 
v 0.1086956188082695 1.676395058631897 -0.2197774052619934 
v 0.09410011023283005 1.591934323310852 -0.23683103919029236 
v 0.09758300334215164 1.594451904296875 -0.21050500869750977 
v 0.0904390960931778 1.5414903163909912 -0.20451299846172333 
v 0.08695915341377258 1.538995385169983 -0.23084193468093872 
v 0.0734478086233139 1.4162843227386475 -0.19034509360790253 
v 0.06996788084506989 1.4137892723083496 -0.21667586266994476 
v 0.067448690533638 1.3951987028121948 -0.2145714908838272 
v 0.05732164904475212 1.3937997817993164 -0.23920176923274994 
v 0.05983787402510643 1.4123677015304565 -0.2413041591644287 
v 0.043707575649023056 1.4121384620666504 -0.26255419850349426 
v 0.041191354393959045 1.3935704231262207 -0.26045316457748413 
v 0.022735003381967545 1.413129448890686 -0.2789810597896576 
v 0.020218780264258385 1.3945614099502563 -0.27688050270080566 
v -0.0016967750852927566 1.4152573347091675 -0.2894648015499115 
v -0.0042159524746239185 1.3966667652130127 -0.28735998272895813 
v -0.027927445247769356 1.4183597564697266 -0.29328519105911255 
v -0.030443664640188217 1.3997918367385864 -0.2911841869354248 
v -0.05414922907948494 1.4222749471664429 -0.2901901304721832 
v -0.05666544660925865 1.4037070274353027 -0.2880895435810089 
v -0.08108536899089813 1.408109188079834 -0.27828189730644226 
v -0.07856618613004684 1.4266998767852783 -0.2803853750228882 
v -0.03715795278549194 1.5474810600280762 -0.30435711145401 
v -0.010979405604302883 1.5435945987701416 -0.30745482444763184 
v 0.01524830237030983 1.5404694080352783 -0.303631067276001 
v 0.03968007490038872 1.5383414030075073 -0.2931486964225769 
v 0.06065264716744423 1.5373504161834717 -0.2767218053340912 
v 0.04686722904443741 1.5912742614746094 -0.29913851618766785 
v 0.0767829418182373 1.537579894065857 -0.2554699778556824 
v 0.0839700996875763 1.590512752532959 -0.2614589035511017 
v 0.09508270025253296 1.672455906867981 -0.2707313001155853 
v 0.07895537465810776 1.672249436378479 -0.29198378324508667 
v 0.06784277409315109 1.590306043624878 -0.2827136516571045 
v 0.05793363228440285 1.6732234954833984 -0.3084101974964142 
v 0.03350186347961426 1.675351619720459 -0.31889259815216064 
v 0.022389259189367294 1.593408226966858 -0.30962109565734863 
v 0.007274148985743523 1.6784768104553223 -0.3227154314517975 
v -0.003792248899117112 1.596527338027954 -0.3134446442127228 
v -0.018904393538832664 1.6823632717132568 -0.31961724162101746 
v -0.03001699410378933 1.6004199981689453 -0.31034621596336365 
v -0.054433953016996384 1.6048446893692017 -0.30054283142089844 
v -0.04332134872674942 1.6867879629135132 -0.30981430411338806 
v -0.07538578659296036 1.609467625617981 -0.2846962809562683 
v -0.06427318602800369 1.6914108991622925 -0.29396775364875793 
v -0.080324687063694 1.6959515810012817 -0.27316346764564514 
v -0.09143728762865067 1.6140083074569702 -0.2638919949531555 
v -0.09041914343833923 1.700073480606079 -0.24881453812122345 
v -0.1015317440032959 1.618130087852478 -0.23954351246356964 
v -0.09386351704597473 1.7035075426101685 -0.22258201241493225 
v -0.10492991656064987 1.6215581893920898 -0.2133103311061859 
v -0.10872185975313187 1.5651745796203613 -0.2335512340068817 
v -0.11211707442998886 1.5686252117156982 -0.2073214054107666 
v -0.12566693127155304 1.43996262550354 -0.2193835973739624 
v -0.1290651112794876 1.4433904886245728 -0.1931517869234085 
v -0.12818315625190735 1.4213945865631104 -0.21728304028511047 
v -0.11808870732784271 1.4172728061676025 -0.24163150787353516 
v -0.1155724823474884 1.4358407258987427 -0.24373207986354828 
v -0.10203424096107483 1.412754774093628 -0.26243823766708374 
v -0.09862740337848663 1.5610527992248535 -0.2578997015953064 
v -0.08252674341201782 1.5565288066864014 -0.27870625257492065 
v -0.06157490983605385 1.5519059896469116 -0.29455235600471497 
v -0.09951802343130112 1.4313228130340576 -0.26453927159309387 
v 0.1086956188082695 1.676395058631897 -0.2197774052619934 
v 0.0814175009727478 1.7029274702072144 -0.24197684228420258 
v 0.10521271079778671 1.673877477645874 -0.2461034506559372 
v 0.07411172240972519 1.701918363571167 -0.25978055596351624 
v 0.09508270025253296 1.672455906867981 -0.2707313001155853 
v 0.06246595084667206 1.701761245727539 -0.2751413881778717 
v 0.07895537465810776 1.672249436378479 -0.29198378324508667 
v 0.04726560786366463 1.7024661302566528 -0.28701385855674744 
v 0.05793363228440285 1.6732234954833984 -0.3084101974964142 
v 0.0296225156635046 1.703998327255249 -0.2945893108844757 
v 0.03350186347961426 1.675351619720459 -0.31889259815216064 
v 0.007274148985743523 1.6784768104553223 -0.3227154314517975 
v 0.01064253505319357 1.7062458992004395 -0.29735174775123596 
v -0.008285319432616234 1.709071159362793 -0.2951141893863678 
v -0.018904393538832664 1.6823632717132568 -0.31961724162101746 
v -0.025916561484336853 1.7122722864151 -0.2880284786224365 
v -0.04332134872674942 1.6867879629135132 -0.30981430411338806 
v -0.0410529188811779 1.7156176567077637 -0.2765759825706482 
v -0.06427318602800369 1.6914108991622925 -0.29396775364875793 
v -0.0526779480278492 1.7188911437988281 -0.26153603196144104 
v -0.080324687063694 1.6959515810012817 -0.27316346764564514 
v -0.059960026293992996 1.7218735218048096 -0.2439376562833786 
v -0.09041914343833923 1.700073480606079 -0.24881453812122345 
v -0.09386351704597473 1.7035075426101685 -0.22258201241493225 
v 0.10521271079778671 1.673877477645874 -0.2461034506559372 
v 0.09410011023283005 1.591934323310852 -0.23683103919029236 
v 0.1086956188082695 1.676395058631897 -0.2197774052619934 
v 0.09758300334215164 1.594451904296875 -0.21050500869750977 
v 0.0904390960931778 1.5414903163909912 -0.20451299846172333 
v 0.08695915341377258 1.538995385169983 -0.23084193468093872 
v 0.0734478086233139 1.4162843227386475 -0.19034509360790253 
v 0.06996788084506989 1.4137892723083496 -0.21667586266994476 
v 0.067448690533638 1.3951987028121948 -0.2145714908838272 
v 0.05732164904475212 1.3937997817993164 -0.23920176923274994 
v 0.05983787402510643 1.4123677015304565 -0.2413041591644287 
v 0.043707575649023056 1.4121384620666504 -0.26255419850349426 
v 0.041191354393959045 1.3935704231262207 -0.26045316457748413 
v 0.022735003381967545 1.413129448890686 -0.2789810597896576 
v 0.020218780264258385 1.3945614099502563 -0.27688050270080566 
v -0.0016967750852927566 1.4152573347091675 -0.2894648015499115 
v -0.0042159524746239185 1.3966667652130127 -0.28735998272895813 
v -0.027927445247769356 1.4183597564697266 -0.29328519105911255 
v -0.030443664640188217 1.3997918367385864 -0.2911841869354248 
v -0.05414922907948494 1.4222749471664429 -0.2901901304721832 
v -0.05666544660925865 1.4037070274353027 -0.2880895435810089 
v -0.08108536899089813 1.408109188079834 -0.27828189730644226 
v -0.07856618613004684 1.4266998767852783 -0.2803853750228882 
v -0.03715795278549194 1.5474810600280762 -0.30435711145401 
v -0.010979405604302883 1.5435945987701416 -0.30745482444763184 
v 0.01524830237030983 1.5404694080352783 -0.303631067276001 
v 0.03968007490038872 1.5383414030075073 -0.2931486964225769 
v 0.06065264716744423 1.5373504161834717 -0.2767218053340912 
v 0.04686722904443741 1.5912742614746094 -0.29913851618766785 
v 0.0767829418182373 1.537579894065857 -0.2554699778556824 
v 0.0839700996875763 1.590512752532959 -0.2614589035511017 
v 0.09508270025253296 1.672455906867981 -0.2707313001155853 
v 0.07895537465810776 1.672249436378479 -0.29198378324508667 
v 0.06784277409315109 1.590306043624878 -0.2827136516571045 
v 0.05793363228440285 1.6732234954833984 -0.3084101974964142 
v 0.03350186347961426 1.675351619720459 -0.31889259815216064 
v 0.022389259189367294 1.593408226966858 -0.30962109565734863 
v 0.007274148985743523 1.6784768104553223 -0.3227154314517975 
v -0.003792248899117112 1.596527338027954 -0.3134446442127228 
v -0.018904393538832664 1.6823632717132568 -0.31961724162101746 
v -0.03001699410378933 1.6004199981689453 -0.31034621596336365 
v -0.054433953016996384 1.6048446893692017 -0.30054283142089844 
v -0.04332134872674942 1.6867879629135132 -0.30981430411338806 
v -0.07538578659296036 1.609467625617981 -0.2846962809562683 
v -0.06427318602800369 1.6914108991622925 -0.29396775364875793 
v -0.080324687063694 1.6959515810012817 -0.27316346764564514 
v -0.09143728762865067 1.6140083074569702 -0.2638919949531555 
v -0.09041914343833923 1.700073480606079 -0.24881453812122345 
v -0.06157490983605385 1.5519059896469116 -0.29455235600471497 
v -0.09951802343130112 1.4313228130340576 -0.26453927159309387 
v -0.10203424096107483 1.412754774093628 -0.26243823766708374 
v -0.1155724823474884 1.4358407258987427 -0.24373207986354828 
v -0.11808870732784271 1.4172728061676025 -0.24163150787353516 
v -0.08252674341201782 1.5565288066864014 -0.27870625257492065 
v -0.09862740337848663 1.5610527992248535 -0.2578997015953064 
v -0.1015317440032959 1.618130087852478 -0.23954351246356964 
v -0.09386351704597473 1.7035075426101685 -0.22258201241493225 
v -0.10492991656064987 1.6215581893920898 -0.2133103311061859 
v -0.10872185975313187 1.5651745796203613 -0.2335512340068817 
v -0.12566693127155304 1.43996262550354 -0.2193835973739624 
v -0.12818315625190735 1.4213945865631104 -0.21728304028511047 
v -0.1290651112794876 1.4433904886245728 -0.1931517869234085 
v -0.11211707442998886 1.5686252117156982 -0.2073214054107666 
v 0.1086956188082695 1.676395058631897 -0.2197774052619934 
v 0.0814175009727478 1.7029274702072144 -0.24197684228420258 
v 0.10521271079778671 1.673877477645874 -0.2461034506559372 
v 0.07411172240972519 1.701918363571167 -0.25978055596351624 
v 0.09508270025253296 1.672455906867981 -0.2707313001155853 
v 0.06246595084667206 1.701761245727539 -0.2751413881778717 
v 0.07895537465810776 1.672249436378479 -0.29198378324508667 
v 0.04726560786366463 1.7024661302566528 -0.28701385855674744 
v 0.05793363228440285 1.6732234954833984 -0.3084101974964142 
v 0.0296225156635046 1.703998327255249 -0.2945893108844757 
v 0.03350186347961426 1.675351619720459 -0.31889259815216064 
v 0.007274148985743523 1.6784768104553223 -0.3227154314517975 
v 0.01064253505319357 1.7062458992004395 -0.29735174775123596 
v -0.008285319432616234 1.709071159362793 -0.2951141893863678 
v -0.018904393538832664 1.6823632717132568 -0.31961724162101746 
v -0.025916561484336853 1.7122722864151 -0.2880284786224365 
v -0.04332134872674942 1.6867879629135132 -0.30981430411338806 
v -0.0410529188811779 1.7156176567077637 -0.2765759825706482 
v -0.06427318602800369 1.6914108991622925 -0.29396775364875793 
v -0.0526779480278492 1.7188911437988281 -0.26153603196144104 
v -0.080324687063694 1.6959515810012817 -0.27316346764564514 
v -0.059960026293992996 1.7218735218048096 -0.2439376562833786 
v -0.09041914343833923 1.700073480606079 -0.24881453812122345 
v -0.09386351704597473 1.7035075426101685 -0.22258201241493225 
v 0.03968007490038872 1.5383414030075073 -0.2931486964225769 
v 0.04686722904443741 1.5912742614746094 -0.29913851618766785 
v 0.03966229781508446 1.535672664642334 -0.3166791498661041 
v 0.0468062199652195 1.5886342525482178 -0.3226720690727234 
v 0.04686722904443741 1.5912742614746094 -0.29913851618766785 
v 0.022389259189367294 1.593408226966858 -0.30962109565734863 
v 0.0468062199652195 1.5886342525482178 -0.3226720690727234 
v 0.022380370646715164 1.5918992757797241 -0.32301080226898193 
v -0.003792248899117112 1.596527338027954 -0.3134446442127228 
v -0.003798175137490034 1.595413327217102 -0.3233749270439148 
v -0.03001699410378933 1.6004199981689453 -0.31034621596336365 
v -0.030025886371731758 1.598910927772522 -0.32373544573783875 
v -0.054433953016996384 1.6048446893692017 -0.30054283142089844 
v -0.054451730102300644 1.6021760702133179 -0.32407328486442566 
v 0.04686722904443741 1.5912742614746094 -0.29913851618766785 
v 0.022389259189367294 1.593408226966858 -0.30962109565734863 
v 0.0468062199652195 1.5886342525482178 -0.3226720690727234 
v 0.022380370646715164 1.5918992757797241 -0.32301080226898193 
v -0.003792248899117112 1.596527338027954 -0.3134446442127228 
v -0.003798175137490034 1.595413327217102 -0.3233749270439148 
v -0.03001699410378933 1.6004199981689453 -0.31034621596336365 
v -0.030025886371731758 1.598910927772522 -0.32373544573783875 
v -0.054433953016996384 1.6048446893692017 -0.30054283142089844 
v -0.054451730102300644 1.6021760702133179 -0.32407328486442566 
v 0.03968007490038872 1.5383414030075073 -0.2931486964225769 
v 0.03966229781508446 1.535672664642334 -0.3166791498661041 
v 0.04686722904443741 1.5912742614746094 -0.29913851618766785 
v 0.0468062199652195 1.5886342525482178 -0.3226720690727234 
v 0.022380370646715164 1.5918992757797241 -0.32301080226898193 
v 0.0468062199652195 1.5886342525482178 -0.3226720690727234 
v 0.0428444966673851 1.585634469985962 -0.32232871651649475 
v 0.0366072952747345 1.5396233797073364 -0.3171224296092987 
v 0.021927017718553543 1.5884240865707397 -0.32261723279953003 
v -0.003798175137490034 1.595413327217102 -0.3233749270439148 
v -0.004297732375562191 1.5919440984725952 -0.3229820132255554 
v -0.030025886371731758 1.598910927772522 -0.32373544573783875 
v -0.03047923929989338 1.5954357385635376 -0.32334235310554504 
v -0.054451730102300644 1.6021760702133179 -0.32407328486442566 
v -0.05143996328115463 1.5982539653778076 -0.32363396883010864 
v -0.06163888797163963 1.5492430925369263 -0.31808480620384216 
v -0.057677172124385834 1.5522427558898926 -0.31842905282974243 
v -0.057677172124385834 1.5522427558898926 -0.31842905282974243 
v -0.0372130423784256 1.5459779500961304 -0.31774699687957764 
v -0.03671348839998245 1.5494472980499268 -0.3181394338607788 
v -0.010534941218793392 1.5459330081939697 -0.31777575612068176 
v -0.010988296009600163 1.5424578189849854 -0.31738266348838806 
v 0.01523941196501255 1.5389604568481445 -0.31701985001564026 
v 0.015689803287386894 1.5424129962921143 -0.317410945892334 
v 0.03966229781508446 1.535672664642334 -0.3166791498661041 
v 0.0468062199652195 1.5886342525482178 -0.3226720690727234 
v 0.03966229781508446 1.535672664642334 -0.3166791498661041 
v 0.0366072952747345 1.5396233797073364 -0.3171224296092987 
v 0.015689803287386894 1.5424129962921143 -0.317410945892334 
v 0.0428444966673851 1.585634469985962 -0.32232871651649475 
v 0.022380370646715164 1.5918992757797241 -0.32301080226898193 
v 0.021927017718553543 1.5884240865707397 -0.32261723279953003 
v -0.003798175137490034 1.595413327217102 -0.3233749270439148 
v -0.004297732375562191 1.5919440984725952 -0.3229820132255554 
v -0.030025886371731758 1.598910927772522 -0.32373544573783875 
v -0.03047923929989338 1.5954357385635376 -0.32334235310554504 
v -0.054451730102300644 1.6021760702133179 -0.32407328486442566 
v -0.05143996328115463 1.5982539653778076 -0.32363396883010864 
v -0.06163888797163963 1.5492430925369263 -0.31808480620384216 
v -0.057677172124385834 1.5522427558898926 -0.31842905282974243 
v -0.057677172124385834 1.5522427558898926 -0.31842905282974243 
v -0.0372130423784256 1.5459779500961304 -0.31774699687957764 
v -0.03671348839998245 1.5494472980499268 -0.3181394338607788 
v -0.010534941218793392 1.5459330081939697 -0.31777575612068176 
v -0.010988296009600163 1.5424578189849854 -0.31738266348838806 
v 0.01523941196501255 1.5389604568481445 -0.31701985001564026 
v 0.03966229781508446 1.535672664642334 -0.3166791498661041 
v 0.03968007490038872 1.5383414030075073 -0.2931486964225769 
v 0.01523941196501255 1.5389604568481445 -0.31701985001564026 
v 0.01524830237030983 1.5404694080352783 -0.303631067276001 
v -0.010979405604302883 1.5435945987701416 -0.30745482444763184 
v -0.010988296009600163 1.5424578189849854 -0.31738266348838806 
v -0.03715795278549194 1.5474810600280762 -0.30435711145401 
v -0.0372130423784256 1.5459779500961304 -0.31774699687957764 
v -0.06163888797163963 1.5492430925369263 -0.31808480620384216 
v -0.06157490983605385 1.5519059896469116 -0.29455235600471497 
v 0.03966229781508446 1.535672664642334 -0.3166791498661041 
v 0.01523941196501255 1.5389604568481445 -0.31701985001564026 
v 0.03968007490038872 1.5383414030075073 -0.2931486964225769 
v 0.01524830237030983 1.5404694080352783 -0.303631067276001 
v -0.010979405604302883 1.5435945987701416 -0.30745482444763184 
v -0.010988296009600163 1.5424578189849854 -0.31738266348838806 
v -0.03715795278549194 1.5474810600280762 -0.30435711145401 
v -0.0372130423784256 1.5459779500961304 -0.31774699687957764 
v -0.06163888797163963 1.5492430925369263 -0.31808480620384216 
v -0.06157490983605385 1.5519059896469116 -0.29455235600471497 
v 0.0428444966673851 1.585634469985962 -0.32232871651649475 
v 0.021927017718553543 1.5884240865707397 -0.32261723279953003 
v 0.04284745827317238 1.5861644744873047 -0.31761404871940613 
v 0.02192997932434082 1.5889540910720825 -0.3179025650024414 
v -0.004297732375562191 1.5919440984725952 -0.3229820132255554 
v -0.004294770769774914 1.5924742221832275 -0.3182673454284668 
v -0.03047923929989338 1.5954357385635376 -0.32334235310554504 
v -0.030476273968815804 1.5959656238555908 -0.31862905621528625 
v -0.05143996328115463 1.5982539653778076 -0.32363396883010864 
v -0.05143699795007706 1.59878408908844 -0.31891974806785583 
v 0.04284745827317238 1.5861644744873047 -0.31761404871940613 
v 0.036610256880521774 1.5401533842086792 -0.3124077618122101 
v 0.02192997932434082 1.5889540910720825 -0.3179025650024414 
v 0.015695730224251747 1.5429655313491821 -0.312700092792511 
v -0.004294770769774914 1.5924742221832275 -0.3182673454284668 
v -0.010531977750360966 1.5464630126953125 -0.31306198239326477 
v -0.030476273968815804 1.5959656238555908 -0.31862905621528625 
v -0.03671052306890488 1.5499773025512695 -0.313425213098526 
v -0.05143699795007706 1.59878408908844 -0.31891974806785583 
v -0.057674210518598557 1.552772879600525 -0.3137143850326538 
v 0.04284745827317238 1.5861644744873047 -0.31761404871940613 
v 0.02192997932434082 1.5889540910720825 -0.3179025650024414 
v 0.036610256880521774 1.5401533842086792 -0.3124077618122101 
v 0.015695730224251747 1.5429655313491821 -0.312700092792511 
v -0.004294770769774914 1.5924742221832275 -0.3182673454284668 
v -0.010531977750360966 1.5464630126953125 -0.31306198239326477 
v -0.030476273968815804 1.5959656238555908 -0.31862905621528625 
v -0.03671052306890488 1.5499773025512695 -0.313425213098526 
v -0.05143699795007706 1.59878408908844 -0.31891974806785583 
v -0.057674210518598557 1.552772879600525 -0.3137143850326538 
v 0.0428444966673851 1.585634469985962 -0.32232871651649475 
v 0.04284745827317238 1.5861644744873047 -0.31761404871940613 
v 0.021927017718553543 1.5884240865707397 -0.32261723279953003 
v 0.02192997932434082 1.5889540910720825 -0.3179025650024414 
v -0.004297732375562191 1.5919440984725952 -0.3229820132255554 
v -0.004294770769774914 1.5924742221832275 -0.3182673454284668 
v -0.03047923929989338 1.5954357385635376 -0.32334235310554504 
v -0.030476273968815804 1.5959656238555908 -0.31862905621528625 
v -0.05143996328115463 1.5982539653778076 -0.32363396883010864 
v -0.05143699795007706 1.59878408908844 -0.31891974806785583 
v 0.036610256880521774 1.5401533842086792 -0.3124077618122101 
v 0.0366072952747345 1.5396233797073364 -0.3171224296092987 
v 0.015695730224251747 1.5429655313491821 -0.312700092792511 
v 0.015689803287386894 1.5424129962921143 -0.317410945892334 
v -0.010531977750360966 1.5464630126953125 -0.31306198239326477 
v -0.010534941218793392 1.5459330081939697 -0.31777575612068176 
v -0.03671052306890488 1.5499773025512695 -0.313425213098526 
v -0.03671348839998245 1.5494472980499268 -0.3181394338607788 
v -0.057674210518598557 1.552772879600525 -0.3137143850326538 
v -0.057677172124385834 1.5522427558898926 -0.31842905282974243 
v 0.036610256880521774 1.5401533842086792 -0.3124077618122101 
v 0.015695730224251747 1.5429655313491821 -0.312700092792511 
v 0.0366072952747345 1.5396233797073364 -0.3171224296092987 
v 0.015689803287386894 1.5424129962921143 -0.317410945892334 
v -0.010531977750360966 1.5464630126953125 -0.31306198239326477 
v -0.010534941218793392 1.5459330081939697 -0.31777575612068176 
v -0.03671052306890488 1.5499773025512695 -0.313425213098526 
v -0.03671348839998245 1.5494472980499268 -0.3181394338607788 
v -0.057674210518598557 1.552772879600525 -0.3137143850326538 
v -0.057677172124385834 1.5522427558898926 -0.31842905282974243 
v -0.057674210518598557 1.552772879600525 -0.3137143850326538 
v -0.05143699795007706 1.59878408908844 -0.31891974806785583 
v -0.057677172124385834 1.5522427558898926 -0.31842905282974243 
v -0.05143996328115463 1.5982539653778076 -0.32363396883010864 
v -0.057674210518598557 1.552772879600525 -0.3137143850326538 
v -0.057677172124385834 1.5522427558898926 -0.31842905282974243 
v -0.05143699795007706 1.59878408908844 -0.31891974806785583 
v -0.05143996328115463 1.5982539653778076 -0.32363396883010864 
v -0.054433953016996384 1.6048446893692017 -0.30054283142089844 
v -0.054451730102300644 1.6021760702133179 -0.32407328486442566 
v -0.06157490983605385 1.5519059896469116 -0.29455235600471497 
v -0.06163888797163963 1.5492430925369263 -0.31808480620384216 
v -0.054433953016996384 1.6048446893692017 -0.30054283142089844 
v -0.06157490983605385 1.5519059896469116 -0.29455235600471497 
v -0.054451730102300644 1.6021760702133179 -0.32407328486442566 
v -0.06163888797163963 1.5492430925369263 -0.31808480620384216 
vn 1.4976232051849365 -0.2551584839820862 -0.45890215039253235 
vn 1.5595102310180664 -0.23315288126468658 -0.1792752891778946 
vn 1.5348705053329468 -0.24511943757534027 -0.32040801644325256 
vn 1.5595102310180664 -0.23315288126468658 -0.1792752891778946 
vn 1.5595102310180664 -0.23315288126468658 -0.1792752891778946 
vn 1.517806053161621 -0.25038543343544006 -0.3900565803050995 
vn 1.5595102310180664 -0.23315288126468658 -0.1792752891778946 
vn 1.4976232051849365 -0.2551584839820862 -0.45890215039253235 
vn 1.517806053161621 -0.25038543343544006 -0.3900565803050995 
vn 1.3635896444320679 -0.27065524458885193 -0.7654683589935303 
vn 1.3393038511276245 -0.27193188667297363 -0.806778073310852 
vn 1.1364315748214722 -0.27414533495903015 -1.0732851028442383 
vn 1.059957504272461 -0.27235034108161926 -1.149299144744873 
vn 0.8128488659858704 -0.2604197561740875 -1.3379207849502563 
vn 0.719499409198761 -0.2540155351161957 -1.3915354013442993 
vn 0.409817636013031 -0.2270556092262268 -1.516268253326416 
vn 0.3405846357345581 -0.21997255086898804 -1.5343365669250488 
vn -0.0013370509259402752 -0.17995737493038177 -1.5767650604248047 
vn -0.07262375205755234 -0.17059539258480072 -1.5761336088180542 
vn -0.41160815954208374 -0.11423700302839279 -1.5284314155578613 
vn -0.41160815954208374 -0.11423700302839279 -1.5284314155578613 
vn -0.7839268445968628 -0.04962127283215523 -1.3789743185043335 
vn -0.7528043985366821 -0.0555085614323616 -1.3959864377975464 
vn -0.41160815954208374 -0.11423700302839279 -1.5284314155578613 
vn 0.06994964927434921 -0.18897099792957306 -1.5741573572158813 
vn 0.46687307953834534 -0.2326187938451767 -1.4988301992416382 
vn 0.8431506156921387 -0.2622990906238556 -1.318662166595459 
vn 1.0860114097595215 -0.2730836868286133 -1.1245344877243042 
vn 0.8229966163635254 -0.26106053590774536 -1.331577181816101 
vn 1.3635896444320679 -0.27065524458885193 -0.7654683589935303 
vn 1.3752667903900146 -0.2699277698993683 -0.7445487976074219 
vn 1.3635896444320679 -0.27065524458885193 -0.7654683589935303 
vn 1.1607722043991089 -0.27447310090065 -1.0468263626098633 
vn 1.1115070581436157 -0.2736820876598358 -1.0991921424865723 
vn 0.8431506156921387 -0.2622990906238556 -1.318662166595459 
vn 0.46687307953834534 -0.2326187938451767 -1.4988301992416382 
vn 0.3405846357345581 -0.21997255086898804 -1.5343365669250488 
vn 0.06994964927434921 -0.18897099792957306 -1.5741573572158813 
vn -0.07262375205755234 -0.17059539258480072 -1.5761336088180542 
vn -0.41160815954208374 -0.11423700302839279 -1.5284314155578613 
vn -0.41160815954208374 -0.11423700302839279 -1.5284314155578613 
vn -0.8247950673103333 -0.0417352020740509 -1.3551918268203735 
vn -0.84494948387146 -0.037778597325086594 -1.3428354263305664 
vn -1.1133110523223877 0.020013872534036636 -1.1308010816574097 
vn -1.1133110523223877 0.020013872534036636 -1.1308010816574097 
vn -1.3276176452636719 0.0835241824388504 -0.8654640913009644 
vn -1.3645070791244507 0.09485871344804764 -0.8047950267791748 
vn -1.5021220445632935 0.1465897113084793 -0.4906254708766937 
vn -1.5187264680862427 0.15488214790821075 -0.4336516261100769 
vn -1.5604314804077148 0.18286533653736115 -0.2240225374698639 
vn -1.5604314804077148 0.18286533653736115 -0.2240225374698639 
vn -1.5187264680862427 0.15488214790821075 -0.4336516261100769 
vn -1.5604314804077148 0.18286533653736115 -0.2240225374698639 
vn -1.5187264680862427 0.15488214790821075 -0.4336516261100769 
vn -1.5604314804077148 0.18286533653736115 -0.2240225374698639 
vn -1.5187264680862427 0.15488214790821075 -0.4336516261100769 
vn -1.398594617843628 0.10600554943084717 -0.7424746751785278 
vn -1.3645070791244507 0.09485871344804764 -0.8047950267791748 
vn -1.1625771522521973 0.031922195106744766 -1.0798002481460571 
vn -1.3645070791244507 0.09485871344804764 -0.8047950267791748 
vn -1.1133110523223877 0.020013872534036636 -1.1308010816574097 
vn -0.8748184442520142 -0.03182927146553993 -1.323727011680603 
vn -1.0963762998580933 0.01603253372013569 -1.1472903490066528 
vn -1.1961196660995483 -1.0118298530578613 0.2531200051307678 
vn -1.162616491317749 -1.0057204961776733 0.39423468708992004 
vn -1.1524362564086914 -1.0033433437347412 0.4286777675151825 
vn -1.0789316892623901 -0.9939099550247192 0.6054928302764893 
vn -1.0370229482650757 -0.9915521144866943 0.6782181262969971 
vn -0.9207830429077148 -0.9903104305267334 0.8306720852851868 
vn -0.8617336750030518 -0.9915897846221924 0.8903578519821167 
vn -0.7206598520278931 -0.9980194568634033 1.001588225364685 
vn -0.6384283900260925 -1.0034537315368652 1.0507436990737915 
vn -0.4284008741378784 -1.0216277837753296 1.1363636255264282 
vn -0.4284008741378784 -1.0216277837753296 1.1363636255264282 
vn -0.15801769495010376 -1.0524835586547852 1.1772347688674927 
vn -0.15801769495010376 -1.0524835586547852 1.1772347688674927 
vn 0.06645581126213074 -1.08389413356781 1.1572942733764648 
vn 0.15182919800281525 -1.102487564086914 1.1313892602920532 
vn 0.3276655077934265 -1.1328778266906738 1.0619773864746094 
vn 0.3999241292476654 -1.1466304063796997 1.0217005014419556 
vn 0.5423986315727234 -1.1765061616897583 0.9166293144226074 
vn 0.6103612780570984 -1.1924289464950562 0.8509668111801147 
vn 0.7168961763381958 -1.2264012098312378 0.7075113654136658 
vn 0.7651438117027283 -1.2414546012878418 0.6260332465171814 
vn 0.8346033096313477 -1.2680938243865967 0.4625444710254669 
vn 0.8482857346534729 -1.274768352508545 0.4170721471309662 
vn 0.8766487240791321 -1.2934893369674683 0.27738839387893677 
vn -1.4976232051849365 0.2551584839820862 0.45890215039253235 
vn -1.5348705053329468 0.24511943757534027 0.32040801644325256 
vn -1.5595102310180664 0.23315288126468658 0.1792752891778946 
vn -1.5595102310180664 0.23315288126468658 0.1792752891778946 
vn -1.5595102310180664 0.23315288126468658 0.1792752891778946 
vn -1.517806053161621 0.25038543343544006 0.3900565803050995 
vn -1.5595102310180664 0.23315288126468658 0.1792752891778946 
vn -1.4976232051849365 0.2551584839820862 0.45890215039253235 
vn -1.517806053161621 0.25038543343544006 0.3900565803050995 
vn -1.3635896444320679 0.27065524458885193 0.7654683589935303 
vn -1.3393038511276245 0.27193188667297363 0.806778073310852 
vn -1.1364315748214722 0.27414533495903015 1.0732851028442383 
vn -1.059957504272461 0.27235034108161926 1.149299144744873 
vn -0.8128488659858704 0.2604197561740875 1.3379207849502563 
vn -0.719499409198761 0.2540155351161957 1.3915354013442993 
vn -0.409817636013031 0.2270556092262268 1.516268253326416 
vn -0.3405846357345581 0.21997255086898804 1.5343365669250488 
vn 0.0013370508095249534 0.17995737493038177 1.5767650604248047 
vn 0.07262375205755234 0.17059539258480072 1.5761336088180542 
vn 0.41160815954208374 0.11423700302839279 1.5284314155578613 
vn 0.41160815954208374 0.11423700302839279 1.5284314155578613 
vn 0.7839268445968628 0.04962127283215523 1.3789743185043335 
vn 0.7528043985366821 0.0555085614323616 1.3959864377975464 
vn 0.41160815954208374 0.11423700302839279 1.5284314155578613 
vn -0.06994964927434921 0.18897099792957306 1.5741573572158813 
vn -0.46687307953834534 0.2326187938451767 1.4988301992416382 
vn -0.8431506156921387 0.2622990906238556 1.318662166595459 
vn -1.0860114097595215 0.2730836868286133 1.1245344877243042 
vn -0.8229966163635254 0.26106053590774536 1.331577181816101 
vn -1.3635896444320679 0.27065524458885193 0.7654683589935303 
vn -1.3752667903900146 0.2699277698993683 0.7445487976074219 
vn -1.3635896444320679 0.27065524458885193 0.7654683589935303 
vn -1.1607722043991089 0.27447310090065 1.0468263626098633 
vn -1.1115070581436157 0.2736820876598358 1.0991921424865723 
vn -0.8431506156921387 0.2622990906238556 1.318662166595459 
vn -0.46687307953834534 0.2326187938451767 1.4988301992416382 
vn -0.3405846357345581 0.21997255086898804 1.5343365669250488 
vn -0.06994964927434921 0.18897099792957306 1.5741573572158813 
vn 0.07262375205755234 0.17059539258480072 1.5761336088180542 
vn 0.41160815954208374 0.11423700302839279 1.5284314155578613 
vn 0.41160815954208374 0.11423700302839279 1.5284314155578613 
vn 0.8247950673103333 0.0417352020740509 1.3551918268203735 
vn 0.84494948387146 0.037778597325086594 1.3428354263305664 
vn 1.1133110523223877 -0.020013872534036636 1.1308010816574097 
vn 1.1133110523223877 -0.020013872534036636 1.1308010816574097 
vn 1.3276176452636719 -0.0835241824388504 0.8654640913009644 
vn 1.3645070791244507 -0.09485871344804764 0.8047950267791748 
vn 1.5021220445632935 -0.1465897113084793 0.4906254708766937 
vn 0.8748184442520142 0.03182927146553993 1.323727011680603 
vn 1.0963762998580933 -0.01603253372013569 1.1472903490066528 
vn 1.1625771522521973 -0.031922195106744766 1.0798002481460571 
vn 1.3645070791244507 -0.09485871344804764 0.8047950267791748 
vn 1.398594617843628 -0.10600554943084717 0.7424746751785278 
vn 1.1133110523223877 -0.020013872534036636 1.1308010816574097 
vn 1.3645070791244507 -0.09485871344804764 0.8047950267791748 
vn 1.5187264680862427 -0.15488214790821075 0.4336516261100769 
vn 1.5604314804077148 -0.18286533653736115 0.2240225374698639 
vn 1.5604314804077148 -0.18286533653736115 0.2240225374698639 
vn 1.5187264680862427 -0.15488214790821075 0.4336516261100769 
vn 1.5187264680862427 -0.15488214790821075 0.4336516261100769 
vn 1.5187264680862427 -0.15488214790821075 0.4336516261100769 
vn 1.5604314804077148 -0.18286533653736115 0.2240225374698639 
vn 1.5604314804077148 -0.18286533653736115 0.2240225374698639 
vn 1.196154236793518 1.011852741241455 -0.2528654634952545 
vn 1.16289222240448 1.0057916641235352 -0.39323872327804565 
vn 1.1527841091156006 1.0034173727035522 -0.4275679588317871 
vn 1.0797926187515259 0.9939743876457214 -0.6038499474525452 
vn 1.0381708145141602 0.9915989637374878 -0.6763911843299866 
vn 0.9227028489112854 0.9902864694595337 -0.8285676836967468 
vn 0.8640318512916565 0.9915218353271484 -0.8882036209106445 
vn 0.7138442397117615 0.9984279870986938 -1.0060518980026245 
vn 0.6420655250549316 1.0031911134719849 -1.048776388168335 
vn 0.4217056334018707 1.0222961902618408 -1.1382651329040527 
vn 0.4217056334018707 1.0222961902618408 -1.1382651329040527 
vn 0.1520681083202362 1.0532485246658325 -1.1773340702056885 
vn 0.1520681083202362 1.0532485246658325 -1.1773340702056885 
vn -0.07147689163684845 1.0846580266952515 -1.1562789678573608 
vn -0.15413060784339905 1.1028602123260498 -1.130714774131775 
vn -0.3189437985420227 1.1312719583511353 -1.0663354396820068 
vn -0.4015459418296814 1.1469488143920898 -1.0207065343856812 
vn -0.543584406375885 1.1767733097076416 -0.9155834317207336 
vn -0.611328661441803 1.1926655769348145 -0.849940299987793 
vn -0.7207145094871521 1.2275291681289673 -0.7016515135765076 
vn -0.762788712978363 1.240673542022705 -0.6304400563240051 
vn -0.8366048336029053 1.2690218687057495 -0.4563419222831726 
vn -0.8468302488327026 1.274017095565796 -0.42229270935058594 
vn -0.8758872151374817 1.2927836179733276 -0.28302663564682007 
vn 1.5724622011184692 -0.2130953073501587 0.02291869930922985 
vn 1.5724622011184692 -0.2130953073501587 0.02291869930922985 
vn 1.5724622011184692 -0.2130953073501587 0.02291869930922985 
vn 1.5724622011184692 -0.2130953073501587 0.02291869930922985 
vn 0.21088238060474396 1.5625782012939453 -0.1801367849111557 
vn 0.21088238060474396 1.5625782012939453 -0.1801367849111557 
vn 0.21088238060474396 1.5625782012939453 -0.1801367849111557 
vn 0.21088238060474396 1.5625782012939453 -0.1801367849111557 
vn 0.21088238060474396 1.5625782012939453 -0.1801367849111557 
vn 0.21088238060474396 1.5625782012939453 -0.1801367849111557 
vn 0.21088238060474396 1.5625782012939453 -0.1801367849111557 
vn 0.21088238060474396 1.5625782012939453 -0.1801367849111557 
vn 0.21088238060474396 1.5625782012939453 -0.1801367849111557 
vn 0.21088238060474396 1.5625782012939453 -0.1801367849111557 
vn -0.21258077025413513 -1.5624842643737793 0.17895230650901794 
vn -0.21258077025413513 -1.5624842643737793 0.17895230650901794 
vn -0.21258077025413513 -1.5624842643737793 0.17895230650901794 
vn -0.21258077025413513 -1.5624842643737793 0.17895230650901794 
vn -0.21258077025413513 -1.5624842643737793 0.17895230650901794 
vn -0.21258077025413513 -1.5624842643737793 0.17895230650901794 
vn -0.21258077025413513 -1.5624842643737793 0.17895230650901794 
vn -0.21258077025413513 -1.5624842643737793 0.17895230650901794 
vn -0.21258077025413513 -1.5624842643737793 0.17895230650901794 
vn -0.21258077025413513 -1.5624842643737793 0.17895230650901794 
vn -1.5724622011184692 0.2130953073501587 -0.02291869930922985 
vn -1.5724622011184692 0.2130953073501587 -0.02291869930922985 
vn -1.5724622011184692 0.2130953073501587 -0.02291869930922985 
vn -1.5724622011184692 0.2130953073501587 -0.02291869930922985 
vn 0.0013370508095249534 0.17995737493038177 1.5767650604248047 
vn 0.0013370508095249534 0.17995737493038177 1.5767650604248047 
vn 0.0013370508095249534 0.17995737493038177 1.5767650604248047 
vn 0.0013370508095249534 0.17995737493038177 1.5767650604248047 
vn 0.0013370508095249534 0.17995737493038177 1.5767650604248047 
vn 0.0013370508095249534 0.17995737493038177 1.5767650604248047 
vn 0.0013370508095249534 0.17995737493038177 1.5767650604248047 
vn 0.0013370508095249534 0.17995737493038177 1.5767650604248047 
vn 0.0013370508095249534 0.17995737493038177 1.5767650604248047 
vn 0.0013370508095249534 0.17995737493038177 1.5767650604248047 
vn 0.0013370508095249534 0.17995737493038177 1.5767650604248047 
vn 0.0013370508095249534 0.17995737493038177 1.5767650604248047 
vn 0.0013370508095249534 0.17995737493038177 1.5767650604248047 
vn 0.0013370508095249534 0.17995737493038177 1.5767650604248047 
vn 0.0013370508095249534 0.17995737493038177 1.5767650604248047 
vn 0.0013370508095249534 0.17995737493038177 1.5767650604248047 
vn 0.0013370508095249534 0.17995737493038177 1.5767650604248047 
vn 0.0013370508095249534 0.17995737493038177 1.5767650604248047 
vn 0.0013370508095249534 0.17995737493038177 1.5767650604248047 
vn 0.0013370508095249534 0.17995737493038177 1.5767650604248047 
vn 0.0013370508095249534 0.17995737493038177 1.5767650604248047 
vn -0.0013370509259402752 -0.17995737493038177 -1.5767650604248047 
vn -0.0013370509259402752 -0.17995737493038177 -1.5767650604248047 
vn -0.0013370509259402752 -0.17995737493038177 -1.5767650604248047 
vn -0.0013370509259402752 -0.17995737493038177 -1.5767650604248047 
vn -0.0013370509259402752 -0.17995737493038177 -1.5767650604248047 
vn -0.0013370509259402752 -0.17995737493038177 -1.5767650604248047 
vn -0.0013370509259402752 -0.17995737493038177 -1.5767650604248047 
vn -0.0013370509259402752 -0.17995737493038177 -1.5767650604248047 
vn -0.0013370509259402752 -0.17995737493038177 -1.5767650604248047 
vn -0.0013370509259402752 -0.17995737493038177 -1.5767650604248047 
vn -0.0013370509259402752 -0.17995737493038177 -1.5767650604248047 
vn -0.0013370509259402752 -0.17995737493038177 -1.5767650604248047 
vn -0.0013370509259402752 -0.17995737493038177 -1.5767650604248047 
vn -0.0013370509259402752 -0.17995737493038177 -1.5767650604248047 
vn -0.0013370509259402752 -0.17995737493038177 -1.5767650604248047 
vn -0.0013370509259402752 -0.17995737493038177 -1.5767650604248047 
vn -0.0013370509259402752 -0.17995737493038177 -1.5767650604248047 
vn -0.0013370509259402752 -0.17995737493038177 -1.5767650604248047 
vn -0.0013370509259402752 -0.17995737493038177 -1.5767650604248047 
vn -0.0013370509259402752 -0.17995737493038177 -1.5767650604248047 
vn -0.0013370509259402752 -0.17995737493038177 -1.5767650604248047 
vn 0.21088238060474396 1.5625782012939453 -0.1801367849111557 
vn 0.21088238060474396 1.5625782012939453 -0.1801367849111557 
vn 0.21088238060474396 1.5625782012939453 -0.1801367849111557 
vn 0.21088238060474396 1.5625782012939453 -0.1801367849111557 
vn 0.21088238060474396 1.5625782012939453 -0.1801367849111557 
vn 0.21088238060474396 1.5625782012939453 -0.1801367849111557 
vn 0.21088238060474396 1.5625782012939453 -0.1801367849111557 
vn 0.21088238060474396 1.5625782012939453 -0.1801367849111557 
vn 0.21088238060474396 1.5625782012939453 -0.1801367849111557 
vn 0.21088238060474396 1.5625782012939453 -0.1801367849111557 
vn -0.21258077025413513 -1.5624842643737793 0.17895230650901794 
vn -0.21258077025413513 -1.5624842643737793 0.17895230650901794 
vn -0.21258077025413513 -1.5624842643737793 0.17895230650901794 
vn -0.21258077025413513 -1.5624842643737793 0.17895230650901794 
vn -0.21258077025413513 -1.5624842643737793 0.17895230650901794 
vn -0.21258077025413513 -1.5624842643737793 0.17895230650901794 
vn -0.21258077025413513 -1.5624842643737793 0.17895230650901794 
vn -0.21258077025413513 -1.5624842643737793 0.17895230650901794 
vn -0.21258077025413513 -1.5624842643737793 0.17895230650901794 
vn -0.21258077025413513 -1.5624842643737793 0.17895230650901794 
vn 0.21088238060474396 1.5625782012939453 -0.1801367849111557 
vn 0.21088238060474396 1.5625782012939453 -0.1801367849111557 
vn 0.21088238060474396 1.5625782012939453 -0.1801367849111557 
vn 0.21088238060474396 1.5625782012939453 -0.1801367849111557 
vn 0.21088238060474396 1.5625782012939453 -0.1801367849111557 
vn 0.21088238060474396 1.5625782012939453 -0.1801367849111557 
vn 0.21088238060474396 1.5625782012939453 -0.1801367849111557 
vn 0.21088238060474396 1.5625782012939453 -0.1801367849111557 
vn 0.21088238060474396 1.5625782012939453 -0.1801367849111557 
vn 0.21088238060474396 1.5625782012939453 -0.1801367849111557 
vn 0.0013370508095249534 0.17995737493038177 1.5767650604248047 
vn 0.0013370508095249534 0.17995737493038177 1.5767650604248047 
vn 0.0013370508095249534 0.17995737493038177 1.5767650604248047 
vn 0.0013370508095249534 0.17995737493038177 1.5767650604248047 
vn 0.0013370508095249534 0.17995737493038177 1.5767650604248047 
vn 0.0013370508095249534 0.17995737493038177 1.5767650604248047 
vn 0.0013370508095249534 0.17995737493038177 1.5767650604248047 
vn 0.0013370508095249534 0.17995737493038177 1.5767650604248047 
vn 0.0013370508095249534 0.17995737493038177 1.5767650604248047 
vn 0.0013370508095249534 0.17995737493038177 1.5767650604248047 
vn -0.0013370509259402752 -0.17995737493038177 -1.5767650604248047 
vn -0.0013370509259402752 -0.17995737493038177 -1.5767650604248047 
vn -0.0013370509259402752 -0.17995737493038177 -1.5767650604248047 
vn -0.0013370509259402752 -0.17995737493038177 -1.5767650604248047 
vn -0.0013370509259402752 -0.17995737493038177 -1.5767650604248047 
vn -0.0013370509259402752 -0.17995737493038177 -1.5767650604248047 
vn -0.0013370509259402752 -0.17995737493038177 -1.5767650604248047 
vn -0.0013370509259402752 -0.17995737493038177 -1.5767650604248047 
vn -0.0013370509259402752 -0.17995737493038177 -1.5767650604248047 
vn -0.0013370509259402752 -0.17995737493038177 -1.5767650604248047 
vn -0.21258077025413513 -1.5624842643737793 0.17895230650901794 
vn -0.21258077025413513 -1.5624842643737793 0.17895230650901794 
vn -0.21258077025413513 -1.5624842643737793 0.17895230650901794 
vn -0.21258077025413513 -1.5624842643737793 0.17895230650901794 
vn -0.21258077025413513 -1.5624842643737793 0.17895230650901794 
vn -0.21258077025413513 -1.5624842643737793 0.17895230650901794 
vn -0.21258077025413513 -1.5624842643737793 0.17895230650901794 
vn -0.21258077025413513 -1.5624842643737793 0.17895230650901794 
vn -0.21258077025413513 -1.5624842643737793 0.17895230650901794 
vn -0.21258077025413513 -1.5624842643737793 0.17895230650901794 
vn 0.21088238060474396 1.5625782012939453 -0.1801367849111557 
vn 0.21088238060474396 1.5625782012939453 -0.1801367849111557 
vn 0.21088238060474396 1.5625782012939453 -0.1801367849111557 
vn 0.21088238060474396 1.5625782012939453 -0.1801367849111557 
vn 0.21088238060474396 1.5625782012939453 -0.1801367849111557 
vn 0.21088238060474396 1.5625782012939453 -0.1801367849111557 
vn 0.21088238060474396 1.5625782012939453 -0.1801367849111557 
vn 0.21088238060474396 1.5625782012939453 -0.1801367849111557 
vn 0.21088238060474396 1.5625782012939453 -0.1801367849111557 
vn 0.21088238060474396 1.5625782012939453 -0.1801367849111557 
vn -0.21258077025413513 -1.5624842643737793 0.17895230650901794 
vn -0.21258077025413513 -1.5624842643737793 0.17895230650901794 
vn -0.21258077025413513 -1.5624842643737793 0.17895230650901794 
vn -0.21258077025413513 -1.5624842643737793 0.17895230650901794 
vn -0.21258077025413513 -1.5624842643737793 0.17895230650901794 
vn -0.21258077025413513 -1.5624842643737793 0.17895230650901794 
vn -0.21258077025413513 -1.5624842643737793 0.17895230650901794 
vn -0.21258077025413513 -1.5624842643737793 0.17895230650901794 
vn -0.21258077025413513 -1.5624842643737793 0.17895230650901794 
vn -0.21258077025413513 -1.5624842643737793 0.17895230650901794 
vn 1.5724622011184692 -0.2130953073501587 0.02291869930922985 
vn 1.5724622011184692 -0.2130953073501587 0.02291869930922985 
vn 1.5724622011184692 -0.2130953073501587 0.02291869930922985 
vn 1.5724622011184692 -0.2130953073501587 0.02291869930922985 
vn -1.5724622011184692 0.2130953073501587 -0.02291869930922985 
vn -1.5724622011184692 0.2130953073501587 -0.02291869930922985 
vn -1.5724622011184692 0.2130953073501587 -0.02291869930922985 
vn -1.5724622011184692 0.2130953073501587 -0.02291869930922985 
vn 1.5724622011184692 -0.2130953073501587 0.02291869930922985 
vn 1.5724622011184692 -0.2130953073501587 0.02291869930922985 
vn 1.5724622011184692 -0.2130953073501587 0.02291869930922985 
vn 1.5724622011184692 -0.2130953073501587 0.02291869930922985 
vn -1.5724622011184692 0.2130953073501587 -0.02291869930922985 
vn -1.5724622011184692 0.2130953073501587 -0.02291869930922985 
vn -1.5724622011184692 0.2130953073501587 -0.02291869930922985 
vn -1.5724622011184692 0.2130953073501587 -0.02291869930922985 
s on 
f 1//1 2//2 3//3 
f 2//2 4//4 3//3 
f 3//3 4//4 3//3 
f 4//4 5//5 3//3 
f 3//3 5//5 6//6 
f 5//5 7//7 6//6 
f 6//6 7//7 8//8 
f 7//7 9//9 8//8 
f 8//8 9//9 8//8 
f 9//9 10//10 8//8 
f 8//8 10//10 11//11 
f 10//10 10//10 11//11 
f 11//11 10//10 12//12 
f 10//10 13//13 12//12 
f 12//12 13//13 14//14 
f 13//13 15//15 14//14 
f 14//14 15//15 16//16 
f 15//15 17//17 16//16 
f 16//16 17//17 18//18 
f 17//17 19//19 18//18 
f 18//18 19//19 20//20 
f 19//19 21//21 20//20 
f 20//20 21//21 20//20 
f 21//21 22//22 20//20 
f 20//20 22//22 20//20 
f 22//22 23//23 20//20 
f 20//20 23//23 20//20 
f 23//23 24//24 20//20 
f 20//20 24//24 18//18 
f 24//24 25//25 18//18 
f 18//18 25//25 16//16 
f 25//25 26//26 16//16 
f 16//16 26//26 14//14 
f 26//26 27//27 14//14 
f 14//14 27//27 28//28 
f 27//27 29//29 28//28 
f 28//28 29//29 29//29 
f 29//29 14//14 29//29 
f 29//29 14//14 14//14 
f 14//14 28//28 14//14 
f 14//14 28//28 12//12 
f 28//28 28//28 12//12 
f 12//12 28//28 11//11 
f 28//28 30//30 11//11 
f 11//11 30//30 8//8 
f 30//30 30//30 8//8 
f 8//8 30//30 6//6 
f 30//30 31//31 6//6 
f 6//6 31//31 3//3 
f 31//31 31//31 3//3 
f 3//3 31//31 1//1 
f 31//31 31//31 1//1 
f 1//1 31//31 32//32 
f 31//31 31//31 32//32 
f 32//32 31//31 33//33 
f 31//31 34//34 33//33 
f 33//33 34//34 35//35 
f 34//34 29//29 35//35 
f 35//35 29//29 36//36 
f 29//29 37//37 36//36 
f 36//36 37//37 38//38 
f 37//37 39//39 38//38 
f 38//38 39//39 40//40 
f 39//39 41//41 40//40 
f 40//40 41//41 40//40 
f 41//41 42//42 40//40 
f 40//40 42//42 43//43 
f 42//42 44//44 43//43 
f 43//43 44//44 45//45 
f 44//44 44//44 45//45 
f 45//45 44//44 46//46 
f 44//44 47//47 46//46 
f 46//46 47//47 48//48 
f 47//47 49//49 48//48 
f 48//48 49//49 50//50 
f 49//49 49//49 50//50 
f 50//50 49//49 51//51 
f 49//49 52//52 51//51 
f 51//51 52//52 53//53 
f 52//52 54//54 53//53 
f 53//53 54//54 55//55 
f 54//54 54//54 55//55 
f 55//55 54//54 56//56 
f 54//54 54//54 56//56 
f 56//56 54//54 57//57 
f 54//54 58//58 57//57 
f 57//57 58//58 59//59 
f 58//58 59//59 59//59 
f 59//59 59//59 31//31 
f 59//59 31//31 31//31 
f 31//31 31//31 34//34 
f 31//31 30//30 34//34 
f 34//34 30//30 34//34 
f 30//30 28//28 34//34 
f 34//34 28//28 29//29 
f 28//28 29//29 29//29 
f 29//29 29//29 54//54 
f 29//29 54//54 54//54 
f 54//54 54//54 58//58 
f 54//54 52//52 58//58 
f 58//58 52//52 60//60 
f 52//52 49//49 60//60 
f 60//60 49//49 60//60 
f 49//49 47//47 60//60 
f 60//60 47//47 61//61 
f 47//47 44//44 61//61 
f 61//61 44//44 61//61 
f 44//44 42//42 61//61 
f 61//61 42//42 61//61 
f 42//42 62//62 61//61 
f 61//61 62//62 63//63 
f 62//62 23//23 63//63 
f 63//63 23//23 63//63 
f 23//23 22//22 63//63 
f 63//63 22//22 63//63 
f 22//22 59//59 63//63 
f 63//63 59//59 63//63 
f 59//59 58//58 63//63 
f 63//63 58//58 63//63 
f 58//58 60//60 63//63 
f 63//63 60//60 61//61 
f 60//60 61//61 61//61 
f 61//61 61//61 62//62 
f 61//61 62//62 62//62 
f 62//62 62//62 23//23 
f 62//62 24//24 23//23 
f 23//23 24//24 24//24 
f 24//24 64//64 24//24 
f 24//24 64//64 64//64 
f 64//64 65//65 64//64 
f 64//64 65//65 66//66 
f 65//65 67//67 66//66 
f 66//66 67//67 68//68 
f 67//67 69//69 68//68 
f 68//68 69//69 70//70 
f 69//69 71//71 70//70 
f 70//70 71//71 72//72 
f 71//71 73//73 72//72 
f 72//72 73//73 74//74 
f 73//73 73//73 74//74 
f 74//74 73//73 75//75 
f 73//73 76//76 75//75 
f 75//75 76//76 75//75 
f 76//76 77//77 75//75 
f 75//75 77//77 78//78 
f 77//77 79//79 78//78 
f 78//78 79//79 80//80 
f 79//79 81//81 80//80 
f 80//80 81//81 82//82 
f 81//81 83//83 82//82 
f 82//82 83//83 84//84 
f 83//83 85//85 84//84 
f 84//84 85//85 86//86 
f 85//85 87//87 86//86 
f 86//86 87//87 87//87 
f 87//87 88//88 87//87 
f 87//87 88//88 88//88 
f 88//88 89//89 88//88 
f 88//88 89//89 90//90 
f 89//89 89//89 90//90 
f 90//90 89//89 91//91 
f 89//89 89//89 91//91 
f 91//91 89//89 92//92 
f 89//89 93//93 92//92 
f 92//92 93//93 94//94 
f 93//93 95//95 94//94 
f 94//94 95//95 96//96 
f 95//95 95//95 96//96 
f 96//96 95//95 97//97 
f 95//95 98//98 97//97 
f 97//97 98//98 97//97 
f 98//98 99//99 97//97 
f 97//97 99//99 100//100 
f 99//99 101//101 100//100 
f 100//100 101//101 102//102 
f 101//101 103//103 102//102 
f 102//102 103//103 104//104 
f 103//103 105//105 104//104 
f 104//104 105//105 106//106 
f 105//105 107//107 106//106 
f 106//106 107//107 108//108 
f 107//107 107//107 108//108 
f 108//108 107//107 109//109 
f 107//107 107//107 109//109 
f 109//109 107//107 110//110 
f 107//107 107//107 110//110 
f 110//110 107//107 111//111 
f 107//107 105//105 111//111 
f 111//111 105//105 112//112 
f 105//105 103//103 112//112 
f 112//112 103//103 113//113 
f 103//103 101//101 113//113 
f 113//113 101//101 114//114 
f 101//101 115//115 114//114 
f 114//114 115//115 116//116 
f 115//115 116//116 116//116 
f 116//116 116//116 101//101 
f 116//116 101//101 101//101 
f 101//101 101//101 115//115 
f 101//101 99//99 115//115 
f 115//115 99//99 115//115 
f 99//99 98//98 115//115 
f 115//115 98//98 117//117 
f 98//98 95//95 117//117 
f 117//117 95//95 117//117 
f 95//95 93//93 117//117 
f 117//117 93//93 118//118 
f 93//93 89//89 118//118 
f 118//118 89//89 118//118 
f 89//89 88//88 118//118 
f 118//118 88//88 118//118 
f 88//88 119//119 118//118 
f 118//118 119//119 118//118 
f 119//119 120//120 118//118 
f 118//118 120//120 121//121 
f 120//120 122//122 121//121 
f 121//121 122//122 116//116 
f 122//122 123//123 116//116 
f 116//116 123//123 124//124 
f 123//123 125//125 124//124 
f 124//124 125//125 126//126 
f 125//125 127//127 126//126 
f 126//126 127//127 128//128 
f 127//127 127//127 128//128 
f 128//128 127//127 129//129 
f 127//127 130//130 129//129 
f 129//129 130//130 131//131 
f 130//130 132//132 131//131 
f 131//131 132//132 131//131 
f 132//132 133//133 131//131 
f 131//131 133//133 134//134 
f 133//133 135//135 134//134 
f 134//134 135//135 135//135 
f 135//135 118//118 135//135 
f 135//135 118//118 118//118 
f 118//118 121//121 118//118 
f 118//118 121//121 117//117 
f 121//121 121//121 117//117 
f 117//117 121//121 115//115 
f 121//121 116//116 115//115 
f 115//115 116//116 116//116 
f 116//116 111//111 116//116 
f 116//116 111//111 111//111 
f 111//111 136//136 111//111 
f 111//111 136//136 110//110 
f 136//136 137//137 110//110 
f 110//110 137//137 109//109 
f 137//137 137//137 109//109 
f 109//109 137//137 138//138 
f 137//137 139//139 138//138 
f 138//138 139//139 140//140 
f 139//139 140//140 140//140 
f 140//140 140//140 134//134 
f 140//140 134//134 134//134 
f 134//134 134//134 131//131 
f 134//134 141//141 131//131 
f 131//131 141//141 129//129 
f 141//141 141//141 129//129 
f 129//129 141//141 136//136 
f 141//141 141//141 136//136 
f 136//136 141//141 137//137 
f 141//141 142//142 137//137 
f 137//137 142//142 139//139 
f 142//142 139//139 139//139 
f 139//139 139//139 141//141 
f 139//139 141//141 141//141 
f 141//141 141//141 142//142 
f 141//141 134//134 142//142 
f 142//142 134//134 143//143 
f 134//134 135//135 143//143 
f 143//143 135//135 143//143 
f 135//135 144//144 143//143 
f 143//143 144//144 143//143 
f 144//144 145//145 143//143 
f 143//143 145//145 143//143 
f 145//145 146//146 143//143 
f 143//143 146//146 142//142 
f 146//146 146//146 142//142 
f 142//142 146//146 139//139 
f 146//146 147//147 139//139 
f 139//139 147//147 140//140 
f 147//147 147//147 140//140 
f 140//140 147//147 148//148 
f 147//147 147//147 148//148 
f 148//148 147//147 149//149 
f 147//147 147//147 149//149 
f 149//149 147//147 150//150 
f 147//147 146//146 150//150 
f 150//150 146//146 145//145 
f 146//146 145//145 145//145 
f 145//145 145//145 151//151 
f 145//145 151//151 151//151 
f 151//151 151//151 152//152 
f 151//151 153//153 152//152 
f 152//152 153//153 154//154 
f 153//153 155//155 154//154 
f 154//154 155//155 156//156 
f 155//155 157//157 156//156 
f 156//156 157//157 158//158 
f 157//157 159//159 158//158 
f 158//158 159//159 160//160 
f 159//159 161//161 160//160 
f 160//160 161//161 160//160 
f 161//161 162//162 160//160 
f 160//160 162//162 163//163 
f 162//162 162//162 163//163 
f 163//163 162//162 164//164 
f 162//162 165//165 164//164 
f 164//164 165//165 166//166 
f 165//165 167//167 166//166 
f 166//166 167//167 168//168 
f 167//167 169//169 168//168 
f 168//168 169//169 170//170 
f 169//169 171//171 170//170 
f 170//170 171//171 172//172 
f 171//171 173//173 172//172 
f 172//172 173//173 174//174 
f 173//173 174//174 174//174 
f 174//174 174//174 175//175 
f 174//174 175//175 175//175 
f 175//175 175//175 176//176 
f 175//175 177//177 176//176 
f 176//176 177//177 178//178 
f 177//177 178//178 178//178 
f 178//178 178//178 179//179 
f 178//178 179//179 179//179 
f 179//179 179//179 180//180 
f 179//179 181//181 180//180 
f 180//180 181//181 180//180 
f 181//181 182//182 180//180 
f 180//180 182//182 183//183 
f 182//182 184//184 183//183 
f 183//183 184//184 185//185 
f 184//184 186//186 185//185 
f 185//185 186//186 187//187 
f 186//186 188//188 187//187 
f 187//187 188//188 188//188 
f 188//188 189//189 188//188 
f 188//188 189//189 189//189 
f 189//189 190//190 189//189 
f 189//189 190//190 191//191 
f 190//190 190//190 191//191 
f 191//191 190//190 192//192 
f 190//190 193//193 192//192 
f 192//192 193//193 194//194 
f 193//193 195//195 194//194 
f 194//194 195//195 196//196 
f 195//195 197//197 196//196 
f 196//196 197//197 198//198 
f 197//197 198//198 198//198 
f 198//198 198//198 199//199 
f 198//198 199//199 199//199 
f 199//199 199//199 200//200 
f 199//199 201//201 200//200 
f 200//200 201//201 202//202 
f 201//201 202//202 202//202 
f 202//202 202//202 203//203 
f 202//202 203//203 203//203 
f 203//203 203//203 204//204 
f 203//203 205//205 204//204 
f 204//204 205//205 206//206 
f 205//205 206//206 206//206 
f 206//206 206//206 205//205 
f 206//206 205//205 205//205 
f 205//205 205//205 207//207 
f 205//205 203//203 207//207 
f 207//207 203//203 207//207 
f 203//203 208//208 207//207 
f 207//207 208//208 209//209 
f 208//208 210//210 209//209 
f 209//209 210//210 211//211 
f 210//210 212//212 211//211 
f 211//211 212//212 213//213 
f 212//212 214//214 213//213 
f 213//213 214//214 215//215 
f 214//214 215//215 215//215 
f 215//215 215//215 214//214 
f 215//215 214//214 214//214 
f 214//214 214//214 216//216 
f 214//214 217//217 216//216 
f 216//216 217//217 218//218 
f 217//217 217//217 218//218 
f 218//218 217//217 219//219 
f 217//217 220//220 219//219 
f 219//219 220//220 219//219 
f 220//220 221//221 219//219 
f 219//219 221//221 222//222 
f 221//221 223//223 222//222 
f 222//222 223//223 206//206 
f 223//223 204//204 206//206 
f 206//206 204//204 204//204 
f 204//204 224//224 204//204 
f 204//204 224//224 224//224 
f 224//224 225//225 224//224 
f 224//224 225//225 226//226 
f 225//225 227//227 226//226 
f 226//226 227//227 227//227 
f 227//227 226//226 227//227 
f 227//227 226//226 226//226 
f 226//226 228//228 226//226 
f 226//226 228//228 224//224 
f 228//228 228//228 224//224 
f 224//224 228//228 229//229 
f 228//228 230//230 229//229 
f 229//229 230//230 231//231 
f 230//230 232//232 231//231 
f 231//231 232//232 233//233 
f 232//232 234//234 233//233 
f 233//233 234//234 235//235 
f 234//234 236//236 235//235 
f 235//235 236//236 237//237 
f 236//236 238//238 237//237 
f 237//237 238//238 238//238 
f 238//238 237//237 238//238 
f 238//238 237//237 237//237 
f 237//237 239//239 237//237 
f 237//237 239//239 240//240 
f 239//239 241//241 240//240 
f 240//240 241//241 240//240 
f 241//241 242//242 240//240 
f 240//240 242//242 243//243 
f 242//242 242//242 243//243 
f 243//243 242//242 244//244 
f 242//242 227//227 244//244 
f 244//244 227//227 225//225 
f 227//227 225//225 225//225 
f 225//225 225//225 245//245 
f 225//225 245//245 245//245 
f 245//245 245//245 246//246 
f 245//245 247//247 246//246 
f 246//246 247//247 248//248 
f 247//247 247//247 248//248 
f 248//248 247//247 249//249 
f 247//247 250//250 249//249 
f 249//249 250//250 251//251 
f 250//250 252//252 251//251 
f 251//251 252//252 251//251 
f 252//252 253//253 251//251 
f 251//251 253//253 254//254 
f 253//253 254//254 254//254 
f 254//254 254//254 255//255 
f 254//254 255//255 255//255 
f 255//255 255//255 256//256 
f 255//255 257//257 256//256 
f 256//256 257//257 256//256 
f 257//257 258//258 256//256 
f 256//256 258//258 256//256 
f 258//258 259//259 256//256 
f 256//256 259//259 260//260 
f 259//259 261//261 260//260 
f 260//260 261//261 262//262 
f 261//261 261//261 262//262 
f 262//262 261//261 263//263 
f 261//261 264//264 263//263 
f 263//263 264//264 264//264 
f 264//264 265//265 264//264 
f 264//264 265//265 265//265 
f 265//265 266//266 265//265 
f 265//265 266//266 267//267 
f 266//266 266//266 267//267 
f 267//267 266//266 268//268 
f 266//266 269//269 268//268 
f 268//268 269//269 270//270 
f 269//269 271//271 270//270 
f 270//270 271//271 272//272 
f 271//271 273//273 272//272 
f 272//272 273//273 274//274 
f 273//273 274//274 274//274 
f 274//274 274//274 275//275 
f 274//274 275//275 275//275 
f 275//275 275//275 276//276 
f 275//275 277//277 276//276 
f 276//276 277//277 278//278 
f 277//277 279//279 278//278 
f 278//278 279//279 280//280 
f 279//279 281//281 280//280 
f 280//280 281//281 282//282 
f 281//281 283//283 282//282 
f 282//282 283//283 284//284 
f 283//283 284//284 284//284 
f 284//284 284//284 285//285 
f 284//284 285//285 285//285 
f 285//285 285//285 286//286 
f 285//285 287//287 286//286 
f 286//286 287//287 286//286 
f 287//287 288//288 286//286 
f 286//286 288//288 289//289 
f 288//288 290//290 289//289 
f 289//289 290//290 291//291 
f 290//290 292//292 291//291 
f 291//291 292//292 293//293 
f 292//292 294//294 293//293 
f 293//293 294//294 294//294 
f 294//294 295//295 294//294 
f 294//294 295//295 295//295 
f 295//295 296//296 295//295 
f 295//295 296//296 297//297 
f 296//296 298//298 297//297 
f 297//297 298//298 299//299 
f 298//298 300//300 299//299 
f 299//299 300//300 301//301 
f 300//300 302//302 301//301 
f 301//301 302//302 303//303 
f 302//302 304//304 303//303 
f 303//303 304//304 304//304 
f 304//304 305//305 304//304 
f 304//304 305//305 305//305 
f 305//305 306//306 305//305 
f 305//305 306//306 307//307 
f 306//306 308//308 307//307 
f 307//307 308//308 309//309 
f 308//308 310//310 309//309 
f 309//309 310//310 311//311 
f 310//310 312//312 311//311 
f 311//311 312//312 313//313 
f 312//312 314//314 313//313 
f 313//313 314//314 314//314 
f 314//314 315//315 314//314 
f 314//314 315//315 315//315 
f 315//315 316//316 315//315 
f 315//315 316//316 317//317 
f 316//316 316//316 317//317 
f 317//317 316//316 318//318 
f 316//316 319//319 318//318 
f 318//318 319//319 320//320 
f 319//319 321//321 320//320 
f 320//320 321//321 322//322 
f 321//321 323//323 322//322 
f 322//322 323//323 324//324 
f 323//323 324//324 324//324 
f 324//324 324//324 325//325 
f 324//324 325//325 325//325 
f 325//325 325//325 326//326 
f 325//325 327//327 326//326 
f 326//326 327//327 328//328 
f 327//327 328//328 328//328 
f 328//328 328//328 329//329 
f 328//328 329//329 329//329 
f 329//329 329//329 330//330 
f 329//329 331//331 330//330 
f 330//330 331//331 332//332 
f 331//331 332//332 332//332 
f 332//332 332//332 333//333 
f 332//332 333//333 333//333 
f 333//333 333//333 334//334 
f 333//333 335//335 334//334 
f 334//334 335//335 336//336 
f 335//335 336//336 336//336 
f 336//336 336//336 337//337 
f 336//336 337//337 337//337 
f 337//337 337//337 338//338 
f 337//337 339//339 338//338 
f 338//338 339//339 340//340 

