mtllib model_28.mtl
o model_28
v -0.02177821658551693 1.400497555732727 -0.21471913158893585 
v -0.020207228139042854 1.40007483959198 -0.21674491465091705 
v -0.00863658357411623 1.5012954473495483 -0.2255600541830063 
v -0.007065595593303442 1.5008727312088013 -0.22758585214614868 
v -0.01910753734409809 1.3996790647506714 -0.2190922498703003 
v -0.005965904798358679 1.5004769563674927 -0.22993317246437073 
v -0.018793340772390366 1.3993674516677856 -0.221607968211174 
v -0.005651707760989666 1.500165343284607 -0.23244889080524445 
v -0.01910753734409809 1.3991199731826782 -0.2242899090051651 
v -0.023820500820875168 1.400947093963623 -0.2130148857831955 
v -0.010678869672119617 1.5017449855804443 -0.22385580837726593 
v -0.02617698349058628 1.4013525247573853 -0.2121025174856186 
v -0.013035351410508156 1.502150297164917 -0.22294345498085022 
v -0.02884766273200512 1.4017305374145508 -0.21182453632354736 
v -0.015706030651926994 1.502528429031372 -0.2226654589176178 
v -0.03136124461889267 1.4020206928253174 -0.21217438578605652 
v -0.018219614401459694 1.5028184652328491 -0.22301530838012695 
v -0.03371772915124893 1.402222752571106 -0.21315208077430725 
v -0.020576097071170807 1.5030206441879272 -0.22399300336837769 
v -0.03576001524925232 1.4022996425628662 -0.21491293609142303 
v -0.022618381306529045 1.5030975341796875 -0.22575387358665466 
v -0.024346470832824707 1.503100037574768 -0.22782538831233978 
v -0.03748810291290283 1.4023021459579468 -0.21698446571826935 
v -0.025289060547947884 1.502967357635498 -0.23020102083683014 
v -0.03843069449067116 1.4021694660186768 -0.2193600982427597 
v -0.02560325711965561 1.5027368068695068 -0.23272545635700226 
v -0.038744889199733734 1.4019389152526855 -0.22188453376293182 
v -0.025289060547947884 1.5024083852767944 -0.23539869487285614 
v -0.03843069449067116 1.4016104936599731 -0.2245577573776245 
v -0.024346470832824707 1.50203275680542 -0.2377481907606125 
v -0.03748810291290283 1.4012348651885986 -0.22690726816654205 
v -0.022618381306529045 1.5015898942947388 -0.2397717982530594 
v -0.03576001524925232 1.4007920026779175 -0.22893087565898895 
v -0.03371772915124893 1.4003593921661377 -0.23047761619091034 
v -0.020576095208525658 1.5011571645736694 -0.24131853878498077 
v -0.03136124461889267 1.3999370336532593 -0.23154747486114502 
v -0.018219614401459694 1.5007349252700806 -0.24238841235637665 
v -0.02884766273200512 1.3995791673660278 -0.23182764649391174 
v -0.015706030651926994 1.5003770589828491 -0.24266858398914337 
v -0.02617698349058628 1.3992688655853271 -0.2314756214618683 
v -0.013035351410508156 1.5000667572021484 -0.24231654405593872 
v -0.023820500820875168 1.3990837335586548 -0.23034042119979858 
v -0.010678868740797043 1.499881625175476 -0.24118134379386902 
v -0.02177821658551693 1.3989899158477783 -0.22873705625534058 
v -0.00863658357411623 1.4997878074645996 -0.2395779937505722 
v -0.007065595127642155 1.4998055696487427 -0.2375086545944214 
v -0.020207228139042854 1.3990076780319214 -0.22666771709918976 
v -0.005965904798358679 1.4999178647994995 -0.23513083159923553 
v -0.018219614401459694 1.5007349252700806 -0.24238841235637665 
v -0.015706030651926994 1.5003770589828491 -0.24266858398914337 
v -0.020576095208525658 1.5011571645736694 -0.24131853878498077 
v -0.013035351410508156 1.5000667572021484 -0.24231654405593872 
v -0.010678868740797043 1.499881625175476 -0.24118134379386902 
v -0.00863658357411623 1.4997878074645996 -0.2395779937505722 
v -0.007065595127642155 1.4998055696487427 -0.2375086545944214 
v -0.005965904798358679 1.4999178647994995 -0.23513083159923553 
v -0.005651707760989666 1.500165343284607 -0.23244889080524445 
v -0.005965904798358679 1.5004769563674927 -0.22993317246437073 
v -0.007065595593303442 1.5008727312088013 -0.22758585214614868 
v -0.00863658357411623 1.5012954473495483 -0.2255600541830063 
v -0.010678869672119617 1.5017449855804443 -0.22385580837726593 
v -0.022618381306529045 1.5015898942947388 -0.2397717982530594 
v -0.024346470832824707 1.50203275680542 -0.2377481907606125 
v -0.025289060547947884 1.5024083852767944 -0.23539869487285614 
v -0.02560325711965561 1.5027368068695068 -0.23272545635700226 
v -0.025289060547947884 1.502967357635498 -0.23020102083683014 
v -0.013035351410508156 1.502150297164917 -0.22294345498085022 
v -0.015706030651926994 1.502528429031372 -0.2226654589176178 
v -0.018219614401459694 1.5028184652328491 -0.22301530838012695 
v -0.020576097071170807 1.5030206441879272 -0.22399300336837769 
v -0.024346470832824707 1.503100037574768 -0.22782538831233978 
v -0.022618381306529045 1.5030975341796875 -0.22575387358665466 
v -0.005965904798358679 1.5004769563674927 -0.22993317246437073 
v -0.005651707760989666 1.500165343284607 -0.23244889080524445 
v -0.020576095208525658 1.5011571645736694 -0.24131853878498077 
v -0.005965904798358679 1.4999178647994995 -0.23513083159923553 
v -0.007065595127642155 1.4998055696487427 -0.2375086545944214 
v -0.00863658357411623 1.4997878074645996 -0.2395779937505722 
v -0.010678868740797043 1.499881625175476 -0.24118134379386902 
v -0.013035351410508156 1.5000667572021484 -0.24231654405593872 
v -0.015706030651926994 1.5003770589828491 -0.24266858398914337 
v -0.018219614401459694 1.5007349252700806 -0.24238841235637665 
v -0.007065595593303442 1.5008727312088013 -0.22758585214614868 
v -0.00863658357411623 1.5012954473495483 -0.2255600541830063 
v -0.010678869672119617 1.5017449855804443 -0.22385580837726593 
v -0.022618381306529045 1.5015898942947388 -0.2397717982530594 
v -0.024346470832824707 1.50203275680542 -0.2377481907606125 
v -0.025289060547947884 1.5024083852767944 -0.23539869487285614 
v -0.02560325711965561 1.5027368068695068 -0.23272545635700226 
v -0.025289060547947884 1.502967357635498 -0.23020102083683014 
v -0.013035351410508156 1.502150297164917 -0.22294345498085022 
v -0.015706030651926994 1.502528429031372 -0.2226654589176178 
v -0.018219614401459694 1.5028184652328491 -0.22301530838012695 
v -0.020576097071170807 1.5030206441879272 -0.22399300336837769 
v -0.024346470832824707 1.503100037574768 -0.22782538831233978 
v -0.022618381306529045 1.5030975341796875 -0.22575387358665466 
v -0.00863658357411623 1.4997878074645996 -0.2395779937505722 
v -0.007065595127642155 1.4998055696487427 -0.2375086545944214 
v -0.02177821658551693 1.3989899158477783 -0.22873705625534058 
v -0.020207228139042854 1.3990076780319214 -0.22666771709918976 
v -0.005965904798358679 1.4999178647994995 -0.23513083159923553 
v -0.01910753734409809 1.3991199731826782 -0.2242899090051651 
v -0.005651707760989666 1.500165343284607 -0.23244889080524445 
v -0.018793340772390366 1.3993674516677856 -0.221607968211174 
v -0.005965904798358679 1.5004769563674927 -0.22993317246437073 
v -0.01910753734409809 1.3996790647506714 -0.2190922498703003 
v -0.010678868740797043 1.499881625175476 -0.24118134379386902 
v -0.023820500820875168 1.3990837335586548 -0.23034042119979858 
v -0.013035351410508156 1.5000667572021484 -0.24231654405593872 
v -0.02617698349058628 1.3992688655853271 -0.2314756214618683 
v -0.015706030651926994 1.5003770589828491 -0.24266858398914337 
v -0.02884766273200512 1.3995791673660278 -0.23182764649391174 
v -0.018219614401459694 1.5007349252700806 -0.24238841235637665 
v -0.03136124461889267 1.3999370336532593 -0.23154747486114502 
v -0.020576095208525658 1.5011571645736694 -0.24131853878498077 
v -0.03371772915124893 1.4003593921661377 -0.23047761619091034 
v -0.022618381306529045 1.5015898942947388 -0.2397717982530594 
v -0.03576001524925232 1.4007920026779175 -0.22893087565898895 
v -0.03748810291290283 1.4012348651885986 -0.22690726816654205 
v -0.024346470832824707 1.50203275680542 -0.2377481907606125 
v -0.03843069449067116 1.4016104936599731 -0.2245577573776245 
v -0.025289060547947884 1.5024083852767944 -0.23539869487285614 
v -0.038744889199733734 1.4019389152526855 -0.22188453376293182 
v -0.02560325711965561 1.5027368068695068 -0.23272545635700226 
v -0.03843069449067116 1.4021694660186768 -0.2193600982427597 
v -0.025289060547947884 1.502967357635498 -0.23020102083683014 
v -0.03748810291290283 1.4023021459579468 -0.21698446571826935 
v -0.024346470832824707 1.503100037574768 -0.22782538831233978 
v -0.03576001524925232 1.4022996425628662 -0.21491293609142303 
v -0.022618381306529045 1.5030975341796875 -0.22575387358665466 
v -0.020576097071170807 1.5030206441879272 -0.22399300336837769 
v -0.03371772915124893 1.402222752571106 -0.21315208077430725 
v -0.018219614401459694 1.5028184652328491 -0.22301530838012695 
v -0.03136124461889267 1.4020206928253174 -0.21217438578605652 
v -0.015706030651926994 1.502528429031372 -0.2226654589176178 
v -0.02884766273200512 1.4017305374145508 -0.21182453632354736 
v -0.013035351410508156 1.502150297164917 -0.22294345498085022 
v -0.02617698349058628 1.4013525247573853 -0.2121025174856186 
v -0.010678869672119617 1.5017449855804443 -0.22385580837726593 
v -0.023820500820875168 1.400947093963623 -0.2130148857831955 
v -0.00863658357411623 1.5012954473495483 -0.2255600541830063 
v -0.02177821658551693 1.400497555732727 -0.21471913158893585 
v -0.020207228139042854 1.40007483959198 -0.21674491465091705 
v -0.007065595593303442 1.5008727312088013 -0.22758585214614868 
vn 1.1133110523223877 -0.020013872534036636 1.1308010816574097 
vn 1.328508973121643 -0.07668692618608475 0.8647287487983704 
vn 1.1133110523223877 -0.020013872534036636 1.1308010816574097 
vn 1.3940024375915527 -0.09732449799776077 0.7522353529930115 
vn 1.5030133724212646 -0.13975246250629425 0.48989009857177734 
vn 1.5366826057434082 -0.1577097624540329 0.3637394905090332 
vn 1.5726597309112549 -0.19152958691120148 0.09289837628602982 
vn 1.5726597309112549 -0.20690345764160156 -0.05004633963108063 
vn 1.5366826057434082 -0.23144946992397308 -0.3218848705291748 
vn 0.84494948387146 0.037778597325086594 1.3428354263305664 
vn 0.7318406105041504 0.059418756514787674 1.4069302082061768 
vn 0.46866467595100403 0.10509282350540161 1.5125749111175537 
vn 0.3423738479614258 0.12500037252902985 1.5445805788040161 
vn 0.07173370569944382 0.16376125812530518 1.5768990516662598 
vn -0.07084241509437561 0.18213722109794617 1.5749226808547974 
vn -0.341482549905777 0.2131393551826477 1.535101056098938 
vn -0.4677733778953552 0.22578585147857666 1.4995942115783691 
vn -0.730949342250824 0.24795077741146088 1.3866533041000366 
vn -0.8440581560134888 0.2554667294025421 1.319422721862793 
vn -1.1124197244644165 0.26684996485710144 1.099948525428772 
vn -1.1124197244644165 0.26684996485710144 1.099948525428772 
vn -1.3276176452636719 0.26564857363700867 0.8279100656509399 
vn -1.393110990524292 0.26189324259757996 0.7136009931564331 
vn -1.5021220445632935 0.2475651055574417 0.44823354482650757 
vn -1.535791277885437 0.23828671872615814 0.3211494982242584 
vn -1.5717682838439941 0.21374072134494781 0.04931098595261574 
vn -1.5717682838439941 0.19836685061454773 -0.093633733689785 
vn -1.5357911586761475 0.16454702615737915 -0.3644748330116272 
vn -1.5021220445632935 0.1465897113084793 -0.4906254708766937 
vn -1.393110990524292 0.10416175425052643 -0.7529706954956055 
vn -1.3276176452636719 0.0835241824388504 -0.8654640913009644 
vn -1.1124197244644165 0.026851128786802292 -1.1315364837646484 
vn -1.1124197244644165 0.026851128786802292 -1.1315364837646484 
vn -0.844058096408844 -0.03094133920967579 -1.3435707092285156 
vn -0.7309492230415344 -0.05258150026202202 -1.4076656103134155 
vn -0.4677732586860657 -0.09825555980205536 -1.5133103132247925 
vn -0.3414824306964874 -0.1181631088256836 -1.5453159809112549 
vn -0.07084228843450546 -0.15692400932312012 -1.5776344537734985 
vn 0.07173383235931396 -0.17529995739459991 -1.5756580829620361 
vn 0.34237396717071533 -0.20630209147930145 -1.5358364582061768 
vn 0.4686647951602936 -0.2189485877752304 -1.500329613685608 
vn 0.7318407297134399 -0.24111351370811462 -1.3873887062072754 
vn 0.8449496030807495 -0.24862948060035706 -1.3201581239700317 
vn 1.1133111715316772 -0.260012686252594 -1.1006838083267212 
vn 1.1133111715316772 -0.260012686252594 -1.1006838083267212 
vn 1.3285090923309326 -0.2588112950325012 -0.8286454677581787 
vn 1.3940024375915527 -0.2550559937953949 -0.7143363356590271 
vn 1.5030134916305542 -0.24072784185409546 -0.44896891713142395 
vn -0.20401357114315033 -1.5648086071014404 0.16829711198806763 
vn -0.20401357114315033 -1.5648086071014404 0.16829711198806763 
vn -0.20401357114315033 -1.5648086071014404 0.16829711198806763 
vn -0.20401357114315033 -1.5648086071014404 0.16829711198806763 
vn -0.20401357114315033 -1.5648086071014404 0.16829711198806763 
vn -0.20401357114315033 -1.5648086071014404 0.16829711198806763 
vn -0.20401357114315033 -1.5648086071014404 0.16829711198806763 
vn -0.20401357114315033 -1.5648086071014404 0.16829711198806763 
vn -0.20401357114315033 -1.5648086071014404 0.16829711198806763 
vn -0.20401357114315033 -1.5648086071014404 0.16829711198806763 
vn -0.20401357114315033 -1.5648086071014404 0.16829711198806763 
vn -0.20401357114315033 -1.5648086071014404 0.16829711198806763 
vn -0.20401357114315033 -1.5648086071014404 0.16829711198806763 
vn -0.20401357114315033 -1.5648086071014404 0.16829711198806763 
vn -0.20401357114315033 -1.5648086071014404 0.16829711198806763 
vn -0.20401357114315033 -1.5648086071014404 0.16829711198806763 
vn -0.20401357114315033 -1.5648086071014404 0.16829711198806763 
vn -0.20401357114315033 -1.5648086071014404 0.16829711198806763 
vn -0.20401357114315033 -1.5648086071014404 0.16829711198806763 
vn -0.20401357114315033 -1.5648086071014404 0.16829711198806763 
vn -0.20401357114315033 -1.5648086071014404 0.16829711198806763 
vn -0.20401357114315033 -1.5648086071014404 0.16829711198806763 
vn -0.20401357114315033 -1.5648086071014404 0.16829711198806763 
vn -0.20401357114315033 -1.5648086071014404 0.16829711198806763 
vn 0.20401357114315033 1.5648086071014404 -0.16829711198806763 
vn 0.20401357114315033 1.5648086071014404 -0.16829711198806763 
vn 0.20401357114315033 1.5648086071014404 -0.16829711198806763 
vn 0.20401357114315033 1.5648086071014404 -0.16829711198806763 
vn 0.20401357114315033 1.5648086071014404 -0.16829711198806763 
vn 0.20401357114315033 1.5648086071014404 -0.16829711198806763 
vn 0.20401357114315033 1.5648086071014404 -0.16829711198806763 
vn 0.20401357114315033 1.5648086071014404 -0.16829711198806763 
vn 0.20401357114315033 1.5648086071014404 -0.16829711198806763 
vn 0.20401357114315033 1.5648086071014404 -0.16829711198806763 
vn 0.20401357114315033 1.5648086071014404 -0.16829711198806763 
vn 0.20401357114315033 1.5648086071014404 -0.16829711198806763 
vn 0.20401357114315033 1.5648086071014404 -0.16829711198806763 
vn 0.20401357114315033 1.5648086071014404 -0.16829711198806763 
vn 0.20401357114315033 1.5648086071014404 -0.16829711198806763 
vn 0.20401357114315033 1.5648086071014404 -0.16829711198806763 
vn 0.20401357114315033 1.5648086071014404 -0.16829711198806763 
vn 0.20401357114315033 1.5648086071014404 -0.16829711198806763 
vn 0.20401357114315033 1.5648086071014404 -0.16829711198806763 
vn 0.20401357114315033 1.5648086071014404 -0.16829711198806763 
vn 0.20401357114315033 1.5648086071014404 -0.16829711198806763 
vn 0.20401357114315033 1.5648086071014404 -0.16829711198806763 
vn 0.20401357114315033 1.5648086071014404 -0.16829711198806763 
vn 0.20401357114315033 1.5648086071014404 -0.16829711198806763 
vn -1.1124197244644165 0.26684996485710144 1.099948525428772 
vn -1.3276176452636719 0.26564857363700867 0.8279100656509399 
vn -1.1124197244644165 0.26684996485710144 1.099948525428772 
vn -1.393110990524292 0.26189324259757996 0.7136009931564331 
vn -1.5021220445632935 0.2475651055574417 0.44823354482650757 
vn -1.535791277885437 0.23828671872615814 0.3211494982242584 
vn -1.5717682838439941 0.21374072134494781 0.04931098595261574 
vn -1.5717682838439941 0.19836685061454773 -0.093633733689785 
vn -1.5357911586761475 0.16454702615737915 -0.3644748330116272 
vn -1.5021220445632935 0.1465897113084793 -0.4906254708766937 
vn -0.8440581560134888 0.2554667294025421 1.319422721862793 
vn -0.730949342250824 0.24795077741146088 1.3866533041000366 
vn -0.4677733778953552 0.22578585147857666 1.4995942115783691 
vn -0.341482549905777 0.2131393551826477 1.535101056098938 
vn -0.07084241509437561 0.18213722109794617 1.5749226808547974 
vn 0.07173370569944382 0.16376125812530518 1.5768990516662598 
vn 0.3423738479614258 0.12500037252902985 1.5445805788040161 
vn 0.46866467595100403 0.10509282350540161 1.5125749111175537 
vn 0.7318406105041504 0.059418756514787674 1.4069302082061768 
vn 0.84494948387146 0.037778597325086594 1.3428354263305664 
vn 1.1133110523223877 -0.020013872534036636 1.1308010816574097 
vn 1.1133110523223877 -0.020013872534036636 1.1308010816574097 
vn 1.328508973121643 -0.07668692618608475 0.8647287487983704 
vn 1.3940024375915527 -0.09732449799776077 0.7522353529930115 
vn 1.5030133724212646 -0.13975246250629425 0.48989009857177734 
vn 1.5366826057434082 -0.1577097624540329 0.3637394905090332 
vn 1.5726597309112549 -0.19152958691120148 0.09289837628602982 
vn 1.5726597309112549 -0.20690345764160156 -0.05004633963108063 
vn 1.5366826057434082 -0.23144946992397308 -0.3218848705291748 
vn 1.5030134916305542 -0.24072784185409546 -0.44896891713142395 
vn 1.3940024375915527 -0.2550559937953949 -0.7143363356590271 
vn 1.3285090923309326 -0.2588112950325012 -0.8286454677581787 
vn 1.1133111715316772 -0.260012686252594 -1.1006838083267212 
vn 1.1133111715316772 -0.260012686252594 -1.1006838083267212 
vn 0.8449496030807495 -0.24862948060035706 -1.3201581239700317 
vn 0.7318407297134399 -0.24111351370811462 -1.3873887062072754 
vn 0.4686647951602936 -0.2189485877752304 -1.500329613685608 
vn 0.34237396717071533 -0.20630209147930145 -1.5358364582061768 
vn 0.07173383235931396 -0.17529995739459991 -1.5756580829620361 
vn -0.07084228843450546 -0.15692400932312012 -1.5776344537734985 
vn -0.3414824306964874 -0.1181631088256836 -1.5453159809112549 
vn -0.4677732586860657 -0.09825555980205536 -1.5133103132247925 
vn -0.7309492230415344 -0.05258150026202202 -1.4076656103134155 
vn -0.844058096408844 -0.03094133920967579 -1.3435707092285156 
vn -1.1124197244644165 0.026851128786802292 -1.1315364837646484 
vn -1.1124197244644165 0.026851128786802292 -1.1315364837646484 
vn -1.3276176452636719 0.0835241824388504 -0.8654640913009644 
vn -1.393110990524292 0.10416175425052643 -0.7529706954956055 
s on 
f 1//1 2//2 3//3 
f 2//2 2//2 3//3 
f 3//3 2//2 4//4 
f 2//2 5//5 4//4 
f 4//4 5//5 6//6 
f 5//5 7//7 6//6 
f 6//6 7//7 8//8 
f 7//7 9//9 8//8 
f 8//8 9//9 9//9 
f 9//9 1//1 9//9 
f 9//9 1//1 1//1 
f 1//1 3//3 1//1 
f 1//1 3//3 10//10 
f 3//3 11//11 10//10 
f 10//10 11//11 12//12 
f 11//11 13//13 12//12 
f 12//12 13//13 14//14 
f 13//13 15//15 14//14 
f 14//14 15//15 16//16 
f 15//15 17//17 16//16 
f 16//16 17//17 18//18 
f 17//17 19//19 18//18 
f 18//18 19//19 20//20 
f 19//19 21//21 20//20 
f 20//20 21//21 20//20 
f 21//21 22//22 20//20 
f 20//20 22//22 23//23 
f 22//22 24//24 23//23 
f 23//23 24//24 25//25 
f 24//24 26//26 25//25 
f 25//25 26//26 27//27 
f 26//26 28//28 27//27 
f 27//27 28//28 29//29 
f 28//28 30//30 29//29 
f 29//29 30//30 31//31 
f 30//30 32//32 31//31 
f 31//31 32//32 33//33 
f 32//32 32//32 33//33 
f 33//33 32//32 34//34 
f 32//32 35//35 34//34 
f 34//34 35//35 36//36 
f 35//35 37//37 36//36 
f 36//36 37//37 38//38 
f 37//37 39//39 38//38 
f 38//38 39//39 40//40 
f 39//39 41//41 40//40 
f 40//40 41//41 42//42 
f 41//41 43//43 42//42 
f 42//42 43//43 44//44 
f 43//43 45//45 44//44 
f 44//44 45//45 44//44 
f 45//45 46//46 44//44 
f 44//44 46//46 47//47 
f 46//46 48//48 47//47 
f 47//47 48//48 9//9 
f 48//48 8//8 9//9 
f 9//9 8//8 8//8 
f 8//8 49//49 8//8 
f 8//8 49//49 49//49 
f 49//49 50//50 49//49 
f 49//49 50//50 51//51 
f 50//50 52//52 51//51 
f 51//51 52//52 51//51 
f 52//52 53//53 51//51 
f 51//51 53//53 51//51 
f 53//53 54//54 51//51 
f 51//51 54//54 51//51 
f 54//54 55//55 51//51 
f 51//51 55//55 51//51 
f 55//55 56//56 51//51 
f 51//51 56//56 51//51 
f 56//56 57//57 51//51 
f 51//51 57//57 51//51 
f 57//57 58//58 51//51 
f 51//51 58//58 51//51 
f 58//58 59//59 51//51 
f 51//51 59//59 51//51 
f 59//59 60//60 51//51 
f 51//51 60//60 51//51 
f 60//60 61//61 51//51 
f 51//51 61//61 62//62 
f 61//61 61//61 62//62 
f 62//62 61//61 63//63 
f 61//61 61//61 63//63 
f 63//63 61//61 64//64 
f 61//61 61//61 64//64 
f 64//64 61//61 65//65 
f 61//61 61//61 65//65 
f 65//65 61//61 66//66 
f 61//61 67//67 66//66 
f 66//66 67//67 66//66 
f 67//67 68//68 66//66 
f 66//66 68//68 66//66 
f 68//68 69//69 66//66 
f 66//66 69//69 66//66 
f 69//69 70//70 66//66 
f 66//66 70//70 71//71 
f 70//70 72//72 71//71 
f 71//71 72//72 72//72 
f 72//72 73//73 72//72 
f 72//72 73//73 73//73 
f 73//73 74//74 73//73 
f 73//73 74//74 75//75 
f 74//74 76//76 75//75 
f 75//75 76//76 75//75 
f 76//76 77//77 75//75 
f 75//75 77//77 75//75 
f 77//77 78//78 75//75 
f 75//75 78//78 75//75 
f 78//78 79//79 75//75 
f 75//75 79//79 75//75 
f 79//79 80//80 75//75 
f 75//75 80//80 75//75 
f 80//80 81//81 75//75 
f 75//75 81//81 82//82 
f 81//81 82//82 82//82 
f 82//82 82//82 73//73 
f 82//82 73//73 73//73 
f 73//73 73//73 83//83 
f 73//73 75//75 83//83 
f 83//83 75//75 84//84 
f 75//75 75//75 84//84 
f 84//84 75//75 85//85 
f 75//75 86//86 85//85 
f 85//85 86//86 85//85 
f 86//86 87//87 85//85 
f 85//85 87//87 85//85 
f 87//87 88//88 85//85 
f 85//85 88//88 85//85 
f 88//88 89//89 85//85 
f 85//85 89//89 85//85 
f 89//89 90//90 85//85 
f 85//85 90//90 91//91 
f 90//90 90//90 91//91 
f 91//91 90//90 92//92 
f 90//90 90//90 92//92 
f 92//92 90//90 93//93 
f 90//90 90//90 93//93 
f 93//93 90//90 94//94 
f 90//90 95//95 94//94 
f 94//94 95//95 96//96 
f 95//95 96//96 96//96 
f 96//96 96//96 97//97 
f 96//96 97//97 97//97 
f 97//97 97//97 98//98 
f 97//97 99//99 98//98 
f 98//98 99//99 98//98 
f 99//99 100//100 98//98 
f 98//98 100//100 101//101 
f 100//100 102//102 101//101 
f 101//101 102//102 103//103 
f 102//102 104//104 103//103 
f 103//103 104//104 105//105 
f 104//104 106//106 105//105 
f 105//105 106//106 106//106 
f 106//106 97//97 106//106 
f 106//106 97//97 97//97 
f 97//97 107//107 97//97 
f 97//97 107//107 99//99 
f 107//107 107//107 99//99 
f 99//99 107//107 108//108 
f 107//107 109//109 108//108 
f 108//108 109//109 110//110 
f 109//109 111//111 110//110 
f 110//110 111//111 112//112 
f 111//111 113//113 112//112 
f 112//112 113//113 114//114 
f 113//113 115//115 114//114 
f 114//114 115//115 116//116 
f 115//115 117//117 116//116 
f 116//116 117//117 118//118 
f 117//117 117//117 118//118 
f 118//118 117//117 119//119 
f 117//117 120//120 119//119 
f 119//119 120//120 121//121 
f 120//120 122//122 121//121 
f 121//121 122//122 123//123 
f 122//122 124//124 123//123 
f 123//123 124//124 125//125 
f 124//124 126//126 125//125 
f 125//125 126//126 127//127 
f 126//126 128//128 127//127 
f 127//127 128//128 129//129 
f 128//128 130//130 129//129 
f 129//129 130//130 129//129 
f 130//130 131//131 129//129 
f 129//129 131//131 132//132 
f 131//131 133//133 132//132 
f 132//132 133//133 134//134 
f 133//133 135//135 134//134 
f 134//134 135//135 136//136 
f 135//135 137//137 136//136 
f 136//136 137//137 138//138 
f 137//137 139//139 138//138 
f 138//138 139//139 140//140 
f 139//139 141//141 140//140 
f 140//140 141//141 142//142 
f 141//141 141//141 142//142 
f 142//142 141//141 143//143 
f 141//141 144//144 143//143 
f 143//143 144//144 106//106 
f 144//144 105//105 106//106 

