mtllib model_5.mtl
o model_5
v 0.1797979772090912 1.7529582977294922 0.16240794956684113 
v 0.17246820032596588 1.8251898288726807 0.17999762296676636 
v 0.09574992954730988 1.7395284175872803 0.2257523238658905 
v 0.09037476032972336 1.817204475402832 0.22154375910758972 
v 0.43976056575775146 1.3598589897155762 0.040898971259593964 
v 0.47689810395240784 1.3388066291809082 0.03928029164671898 
v 0.49644413590431213 1.4037786722183228 0.09474708884954453 
v 0.5184334516525269 1.3718371391296387 0.07845237106084824 
v 0.49644413590431213 1.4037786722183228 0.09474708884954453 
v 0.5184334516525269 1.3718371391296387 0.07845237106084824 
v 0.5482411980628967 1.425920009613037 0.07499918341636658 
v 0.5575255751609802 1.3856301307678223 0.0634525939822197 
v 0.5741397142410278 1.4295496940612793 0.03280556574463844 
v 0.5780488848686218 1.3856301307678223 0.03215809538960457 
v 0.5780488848686218 1.4197494983673096 -0.017157714813947678 
v 0.5819581151008606 1.3761926889419556 -0.004639917053282261 
v 0.5526390671730042 1.3961563110351562 -0.062480777502059937 
v 0.5638779997825623 1.3573181629180908 -0.03798474371433258 
v 0.525763213634491 1.3362658023834229 -0.0460781492292881 
v 0.5013306736946106 1.3660295009613037 -0.07456693053245544 
v 0.43976056575775146 1.3598589897155762 0.040898971259593964 
v 0.47689810395240784 1.3388066291809082 0.03928029164671898 
v 0.45197683572769165 1.347517967224121 -0.03722935914993286 
v 0.48813703656196594 1.3261024951934814 -0.01856057345867157 
v 0.45197683572769165 1.347517967224121 -0.03722935914993286 
v 0.48813703656196594 1.3261024951934814 -0.01856057345867157 
v 0.5013306736946106 1.3660295009613037 -0.07456693053245544 
v 0.525763213634491 1.3362658023834229 -0.0460781492292881 
v -0.08065325766801834 2.0683815479278564 0.027517877519130707 
v -0.04644764959812164 2.0513217449188232 0.07650995254516602 
v -0.09042628109455109 2.0375287532806396 0.027517877519130707 
v -0.05231146886944771 2.0197432041168213 0.07888401299715042 
v -0.11192694306373596 2.0168395042419434 0.03701413795351982 
v -0.06012989208102226 1.9965128898620605 0.09312840551137924 
v -0.015662608668208122 1.996150016784668 0.10715697705745697 
v -0.07381213456392288 1.9177478551864624 0.15917058289051056 
v -0.018594516441226006 1.9152071475982666 0.1715804785490036 
v -0.01615126058459282 2.046603202819824 0.08881192654371262 
v -0.01419665478169918 2.0164763927459717 0.09172555059194565 
v -0.14320063591003418 1.9340816736221313 0.12604157626628876 
v -0.18962253630161285 1.9340816736221313 0.10240884125232697 
v -0.19353175163269043 1.999053716659546 0.03992776200175285 
v -0.2482607066631317 1.928999900817871 0.07974731922149658 
v -0.25705644488334656 1.9794533252716064 0.029244469478726387 
v -0.2585223913192749 1.9950610399246216 -0.034963205456733704 
v -0.19890691339969635 2.023009777069092 -0.036150235682725906 
v -0.122677281498909 2.057129383087158 -0.038632217794656754 
v -0.09531280398368835 2.0694704055786133 -0.036150235682725906 
v -0.06941427290439606 2.056403398513794 -0.1064009889960289 
v -0.06306179612874985 2.0749151706695557 -0.08622143417596817 
v 0.0009515410638414323 2.055314540863037 -0.12042955309152603 
v 0.0009515410638414323 2.0749151706695557 -0.10208451002836227 
v 0.0009515410638414323 1.9841718673706055 -0.16143614053726196 
v -0.07527808845043182 1.9845349788665771 -0.15884625911712646 
v -0.1392914354801178 1.9801791906356812 -0.13229988515377045 
v -0.18327005207538605 1.9667491912841797 -0.1210770234465599 
v -0.19890691339969635 2.023009777069092 -0.036150235682725906 
v -0.22969193756580353 1.9413410425186157 -0.1113649383187294 
v -0.2585223913192749 1.9950610399246216 -0.034963205456733704 
v -0.5160416960716248 1.3718371391296387 0.07845237106084824 
v -0.4940524101257324 1.4037786722183228 0.09474708884954453 
v -0.47450631856918335 1.3388066291809082 0.03928029164671898 
v -0.43736883997917175 1.3598589897155762 0.040898971259593964 
v -0.4940524101257324 1.4037786722183228 0.09474708884954453 
v -0.5160416960716248 1.3718371391296387 0.07845237106084824 
v -0.5458494424819946 1.425920009613037 0.07499918341636658 
v -0.5551338791847229 1.3856301307678223 0.0634525939822197 
v -0.5717480182647705 1.4295496940612793 0.03280556574463844 
v -0.5756571888923645 1.3856301307678223 0.03215809538960457 
v -0.5761458277702332 1.4197494983673096 -0.017157714813947678 
v -0.5795664191246033 1.3761926889419556 -0.004639917053282261 
v -0.550247311592102 1.3961563110351562 -0.062480777502059937 
v -0.5614863038063049 1.3573181629180908 -0.03798474371433258 
v -0.5233714580535889 1.3362658023834229 -0.0460781492292881 
v -0.4989389181137085 1.3660295009613037 -0.07456693053245544 
v -0.48574531078338623 1.3261024951934814 -0.01856057345867157 
v -0.44958510994911194 1.347517967224121 -0.03722935914993286 
v -0.47450631856918335 1.3388066291809082 0.03928029164671898 
v -0.43736883997917175 1.3598589897155762 0.040898971259593964 
v -0.5233714580535889 1.3362658023834229 -0.0460781492292881 
v -0.4989389181137085 1.3660295009613037 -0.07456693053245544 
v -0.48574531078338623 1.3261024951934814 -0.01856057345867157 
v -0.44958510994911194 1.347517967224121 -0.03722935914993286 
v 1.5946563482284546 1.9160411357879639 0.1627638041973114 
v 1.6499099731445312 1.9185837507247925 0.15060879290103912 
v 1.5917226076126099 1.9970368146896362 0.09966344386339188 
v 1.636218786239624 1.997399926185608 0.08592299371957779 
v 1.7193437814712524 1.9349279403686523 0.1181602030992508 
v 1.6880496740341187 2.017739772796631 0.030961202457547188 
v 1.7657958269119263 1.9349279403686523 0.09501282870769501 
v 1.7697076797485352 1.9999425411224365 0.033814989030361176 
v 1.8244723081588745 1.9298431873321533 0.07281672209501266 
v 1.8327847719192505 1.980329155921936 0.02335110865533352 
v 1.8347406387329102 1.9959471225738525 -0.039537861943244934 
v 1.7750862836837769 2.023914337158203 -0.0407005175948143 
v 1.6988070011138916 2.058055877685547 -0.043131519109010696 
v 1.574608564376831 2.0562398433685303 -0.12324889749288559 
v 1.574608564376831 1.9850510358810425 -0.16341328620910645 
v 1.6455092430114746 2.0573296546936035 -0.1095084473490715 
v 1.6513768434524536 1.9854141473770142 -0.1608765870332718 
v 1.6988070011138916 2.058055877685547 -0.043131519109010696 
v 1.7154319286346436 1.981055498123169 -0.13487543165683746 
v 1.75943922996521 1.9676167964935303 -0.12388306856155396 
v 1.7750862836837769 2.023914337158203 -0.0407005175948143 
v 1.5041968822479248 2.0573296546936035 -0.1095084473490715 
v 1.4983292818069458 1.9854141473770142 -0.1608765870332718 
v 1.4508991241455078 2.058055877685547 -0.043131519109010696 
v 1.4342741966247559 1.981055498123169 -0.13487543165683746 
v 1.4993071556091309 1.8510267734527588 -0.1833897829055786 
v 1.574608564376831 1.8459417819976807 -0.17577968537807465 
v 1.6503989696502686 1.8510267734527588 -0.1833897829055786 
v 1.7164099216461182 1.8550219535827637 -0.17419426143169403 
v 1.7599282264709473 1.848120927810669 -0.15939684212207794 
v 1.8058913946151733 1.9421921968460083 -0.1143704503774643 
v 1.8005127906799316 1.8346822261810303 -0.13508683443069458 
v 1.8347406387329102 1.9959471225738525 -0.039537861943244934 
v 1.4332962036132812 1.8550219535827637 -0.17419426143169403 
v 1.3902668952941895 1.9676167964935303 -0.12388306856155396 
v 1.3897778987884521 1.848120927810669 -0.15939684212207794 
v 1.343814730644226 1.9421921968460083 -0.1143704503774643 
v 1.3491934537887573 1.8346822261810303 -0.13508683443069458 
v 1.3746198415756226 2.023914337158203 -0.0407005175948143 
v 1.3149654865264893 1.9959471225738525 -0.039537861943244934 
v 1.6640901565551758 1.8179746866226196 0.2117009311914444 
v 1.74623703956604 1.825965166091919 0.17100808024406433 
v 1.6694687604904175 1.7402479648590088 0.21582306921482086 
v 1.753571629524231 1.753686547279358 0.15377967059612274 
v 2.086071252822876 1.3766754865646362 0.09437865018844604 
v 2.029350757598877 1.332000732421875 0.04227064922451973 
v 2.06455659866333 1.414812445640564 0.08486603945493698 
v 2.007836103439331 1.3708641529083252 0.032229550182819366 
v 2.06455659866333 1.414812445640564 0.08486603945493698 
v 2.116387367248535 1.436968207359314 0.06562940776348114 
v 2.086071252822876 1.3766754865646362 0.09437865018844604 
v 2.139369010925293 1.3955622911453247 0.07440216094255447 
v 2.1423027515411377 1.4406002759933472 0.024302370846271515 
v 2.1672403812408447 1.3955622911453247 0.03286372497677803 
v 2.146214485168457 1.4307936429977417 -0.02463476173579693 
v 2.172618865966797 1.3824868202209473 -0.016073407605290413 
v 2.120788097381592 1.4071850776672363 -0.06913267821073532 
v 2.147681474685669 1.356698989868164 -0.060359928756952286 
v 2.096339702606201 1.3283685445785522 -0.07124658674001694 
v 2.069446325302124 1.377038598060608 -0.08086490631103516 
v 2.0449976921081543 1.3145666122436523 -0.03467585891485214 
v 2.0200603008270264 1.3585150241851807 -0.044294171035289764 
v 2.029350757598877 1.332000732421875 0.04227064922451973 
v 2.007836103439331 1.3708641529083252 0.032229550182819366 
v 2.096339702606201 1.3283685445785522 -0.07124658674001694 
v 2.069446325302124 1.377038598060608 -0.08086490631103516 
v 2.0449976921081543 1.3145666122436523 -0.03467585891485214 
v 2.0200603008270264 1.3585150241851807 -0.044294171035289764 
v 1.5550497770309448 1.9160411357879639 0.1627638041973114 
v 1.4997961521148682 1.9185837507247925 0.15060879290103912 
v 1.557983636856079 1.9970368146896362 0.09966344386339188 
v 1.5134873390197754 1.997399926185608 0.08592299371957779 
v 1.4303624629974365 1.9349279403686523 0.1181602030992508 
v 1.4616565704345703 2.017739772796631 0.030961202457547188 
v 1.3839102983474731 1.9349279403686523 0.09501282870769501 
v 1.3799985647201538 1.9999425411224365 0.033814989030361176 
v 1.3252339363098145 1.9298431873321533 0.07281672209501266 
v 1.3164324760437012 1.980329155921936 0.02335110865533352 
v 1.3149654865264893 1.9959471225738525 -0.039537861943244934 
v 1.3746198415756226 2.023914337158203 -0.0407005175948143 
v 1.4508991241455078 2.058055877685547 -0.043131519109010696 
v 1.141870141029358 1.3708641529083252 0.032229550182819366 
v 1.0851496458053589 1.414812445640564 0.08486603945493698 
v 1.120355486869812 1.332000732421875 0.04227064922451973 
v 1.0636348724365234 1.3766754865646362 0.09437865018844604 
v 1.0851496458053589 1.414812445640564 0.08486603945493698 
v 1.0333187580108643 1.436968207359314 0.06562940776348114 
v 1.0636348724365234 1.3766754865646362 0.09437865018844604 
v 1.010337233543396 1.3955622911453247 0.07440216094255447 
v 1.0074033737182617 1.4406002759933472 0.024302370846271515 
v 0.982465922832489 1.3955622911453247 0.03286372497677803 
v 1.0034916400909424 1.4307936429977417 -0.02463476173579693 
v 0.9770871996879578 1.3824868202209473 -0.016073407605290413 
v 1.0289180278778076 1.4071850776672363 -0.06913267821073532 
v 1.00202476978302 1.356698989868164 -0.060359928756952286 
v 1.0533665418624878 1.3283685445785522 -0.07124658674001694 
v 1.080259919166565 1.377038598060608 -0.08086490631103516 
v 1.141870141029358 1.3708641529083252 0.032229550182819366 
v 1.120355486869812 1.332000732421875 0.04227064922451973 
v 1.1296459436416626 1.3585150241851807 -0.044294171035289764 
v 1.1047084331512451 1.3145666122436523 -0.03467585891485214 
v 1.1296459436416626 1.3585150241851807 -0.044294171035289764 
v 1.1047084331512451 1.3145666122436523 -0.03467585891485214 
v 1.080259919166565 1.377038598060608 -0.08086490631103516 
v 1.0533665418624878 1.3283685445785522 -0.07124658674001694 
vn 45.7191162109375 -9.640042304992676 58.426883697509766 
vn 40.15496063232422 -2.2805607318878174 62.893157958984375 
vn 40.15496063232422 -2.2805607318878174 62.893157958984375 
vn 33.08747100830078 5.673417091369629 66.52549743652344 
vn -21.87355613708496 -42.457130432128906 57.61866760253906 
vn -20.851137161254883 -42.968482971191406 57.61866760253906 
vn -20.851137161254883 -42.968482971191406 57.61866760253906 
vn -19.816770553588867 -43.45521926879883 57.61866760253906 
vn 31.04216194152832 -12.780953407287598 66.52549743652344 
vn 30.61307144165039 -12.255624771118164 66.81010437011719 
vn 43.07516860961914 -7.949635028839111 60.556739807128906 
vn 54.32991409301758 -1.7131004333496094 51.71580123901367 
vn 70.01758575439453 5.144638538360596 27.982101440429688 
vn 73.64698028564453 6.858209133148193 16.23963737487793 
vn 74.83872985839844 2.8616464138031006 -11.463051795959473 
vn 71.3857421875 -0.5721166133880615 -24.953718185424805 
vn 51.34941864013672 -18.52039909362793 -51.48283004760742 
vn 51.05433654785156 -17.97300148010254 -51.947784423828125 
vn 31.034038543701172 -30.527210235595703 -60.743499755859375 
vn 32.39328384399414 -30.670936584472656 -59.989540100097656 
vn -37.32927322387695 -65.80018615722656 4.697775840759277 
vn -38.95390319824219 -64.79931640625 5.344689846038818 
vn -38.95390319824219 -64.79931640625 5.344689846038818 
vn -40.87052536010742 -63.547691345214844 5.991196155548096 
vn -11.954695701599121 -58.998748779296875 -45.09400177001953 
vn -14.192153930664062 -58.5008544921875 -45.09400177001953 
vn -14.192153930664062 -58.5008544921875 -45.09400177001953 
vn -17.508750915527344 -57.59523391723633 -45.09400177001953 
vn -56.92790603637695 18.28656005859375 45.60718536376953 
vn -51.695411682128906 15.233336448669434 52.17877197265625 
vn -45.09538269042969 42.77092742919922 42.47720718383789 
vn -35.01367950439453 33.600643157958984 57.00094223022461 
vn -20.994121551513672 56.845115661621094 44.577369689941406 
vn -21.03171730041504 50.8684196472168 51.013946533203125 
vn -14.092227935791016 46.70208740234375 56.792850494384766 
vn -14.37127685546875 47.92958450317383 55.736209869384766 
vn -10.490715026855469 46.32990264892578 57.822383880615234 
vn -24.909311294555664 7.314033031463623 69.71125030517578 
vn -20.849035263061523 24.378116607666016 67.22744750976562 
vn -21.06999969482422 53.94609069824219 47.872867584228516 
vn -18.233488082885742 52.417381286621094 50.54116439819336 
vn -21.722177505493164 60.74919509887695 38.954917907714844 
vn -24.26289176940918 48.12257385253906 52.17877197265625 
vn -25.079957962036133 60.54837417602539 37.286163330078125 
vn -27.734127044677734 67.42310333251953 20.323667526245117 
vn -29.444168090820312 65.85128784179688 22.80516242980957 
vn -33.00518798828125 65.94322967529297 -17.187238693237305 
vn -38.822471618652344 64.95397186279297 -4.374181270599365 
vn -25.526472091674805 46.12321090698242 -53.318702697753906 
vn -23.273080825805664 54.40843200683594 -46.37042236328125 
vn -11.614376068115234 43.898841857910156 -59.41203308105469 
vn -13.028380393981934 50.834266662597656 -53.54364776611328 
vn -6.707005500793457 40.788719177246094 -62.195526123046875 
vn -26.75147819519043 48.62510681152344 -50.54116439819336 
vn -24.24688148498535 57.22791290283203 -42.47720718383789 
vn -29.690364837646484 55.243011474609375 -41.676124572753906 
vn -28.857654571533203 54.17855453491211 -43.533935546875 
vn -30.728267669677734 52.45931625366211 -44.31777572631836 
vn -25.8447208404541 52.77190399169922 -46.87483215332031 
vn 20.07645034790039 -43.33585739135742 57.61866760253906 
vn 21.10788345336914 -42.84294128417969 57.61866760253906 
vn 21.10788345336914 -42.84294128417969 57.61866760253906 
vn 21.619104385375977 -42.58726119995117 57.61866760253906 
vn -31.04216194152832 -12.780953407287598 66.52549743652344 
vn -30.505859375 -12.52010440826416 66.81010437011719 
vn -43.07516860961914 -7.949635028839111 60.556739807128906 
vn -54.32991409301758 -1.7131004333496094 51.71580123901367 
vn -69.99604034423828 5.429895401000977 27.982101440429688 
vn -73.64698028564453 6.858209133148193 16.23963737487793 
vn -74.83872985839844 2.8616464138031006 -11.463051795959473 
vn -71.3857421875 -0.5721166133880615 -24.953718185424805 
vn -51.2515754699707 -18.789457321166992 -51.48283004760742 
vn -51.05433654785156 -17.97300148010254 -51.947784423828125 
vn -31.234418869018555 -30.322154998779297 -60.743499755859375 
vn -32.1955680847168 -30.8784122467041 -59.989540100097656 
vn 40.87052536010742 -63.547691345214844 5.991196155548096 
vn 38.95390319824219 -64.79931640625 5.344689846038818 
vn 38.95390319824219 -64.79931640625 5.344689846038818 
vn 37.08024978637695 -65.94083404541016 4.697775840759277 
vn 17.508750915527344 -57.59523391723633 -45.09400177001953 
vn 14.192153930664062 -58.5008544921875 -45.09400177001953 
vn 14.192153930664062 -58.5008544921875 -45.09400177001953 
vn 11.954695701599121 -58.998748779296875 -45.09400177001953 
vn 10.483880043029785 46.29971694946289 59.034847259521484 
vn 14.361913681030273 47.89836120605469 56.904930114746094 
vn 13.252973556518555 47.438507080078125 57.55550003051758 
vn 19.831340789794922 51.795249938964844 51.600948333740234 
vn 20.790136337280273 54.014137268066406 48.87670135498047 
vn 17.71904182434082 57.489845275878906 46.03956604003906 
vn 18.221609115600586 52.38323211669922 51.600948333740234 
vn 21.438806533813477 60.805213928222656 39.771751403808594 
vn 24.247085571289062 48.09122085571289 53.27289581298828 
vn 25.063617706298828 60.50892639160156 38.06800842285156 
vn 27.451580047607422 67.48736572265625 20.749828338623047 
vn 29.424985885620117 65.80838775634766 23.283357620239258 
vn 20.41951560974121 66.17534637451172 30.701066970825195 
vn 0.28619110584259033 37.34922790527344 -65.90631103515625 
vn -2.260736953543785e-12 21.86155128479004 -72.5311050415039 
vn 24.147884368896484 40.8712043762207 -59.034847259521484 
vn 22.19151496887207 32.149959564208984 -64.90458679199219 
vn 32.33955001831055 52.58174514770508 -43.90902328491211 
vn 22.944629669189453 34.01681137084961 -63.67958068847656 
vn 28.84341049194336 40.23556900024414 -57.33973693847656 
vn 28.838855743408203 54.14325714111328 -44.4467887878418 
vn -23.9009952545166 41.01607131958008 -59.034847259521484 
vn -21.955486297607422 32.31160354614258 -64.90458679199219 
vn -32.33955001831055 52.58174514770508 -43.90902328491211 
vn -22.944629669189453 34.01681137084961 -63.67958068847656 
vn -7.395987033843994 13.191841125488281 -74.2291259765625 
vn -6.837124182784704e-13 6.61156702041626 -75.4650650024414 
vn 7.395987033843994 13.191841125488281 -74.2291259765625 
vn 18.41084098815918 21.644437789916992 -70.22283935546875 
vn 30.657167434692383 17.534399032592773 -67.01769256591797 
vn 33.18349075317383 35.713191986083984 -57.983726501464844 
vn 41.1646728515625 10.214285850524902 -62.76803970336914 
vn 25.570709228515625 52.862693786621094 -47.85773849487305 
vn -18.41084098815918 21.644437789916992 -70.22283935546875 
vn -28.61014175415039 40.40176773071289 -57.33973693847656 
vn -30.79849624633789 17.284954071044922 -67.01769256591797 
vn -32.973209381103516 35.907432556152344 -57.983726501464844 
vn -41.23274230957031 9.935941696166992 -62.76803970336914 
vn -28.838855743408203 54.14325714111328 -44.4467887878418 
vn -25.827882766723633 52.73752212524414 -47.85773849487305 
vn 33.06591796875 5.6697211265563965 67.92044830322266 
vn 40.12879943847656 -2.2790749073028564 64.21194458007812 
vn 40.12879943847656 -2.2790749073028564 64.21194458007812 
vn 45.6893310546875 -9.63376235961914 59.65202331542969 
vn -45.64176559448242 -11.023639678955078 59.44742965698242 
vn -45.97468185424805 -10.744199752807617 59.24170684814453 
vn -45.97468185424805 -10.744199752807617 59.24170684814453 
vn -46.56422805786133 -10.481502532958984 58.82685852050781 
vn 15.0651216506958 25.524072647094727 69.71550750732422 
vn 29.041601181030273 30.151031494140625 63.13627624511719 
vn 16.42734146118164 25.034196853637695 69.58534240722656 
vn 43.236026763916016 34.375274658203125 51.84279251098633 
vn 60.4879150390625 38.44094467163086 24.539649963378906 
vn 64.84912109375 37.6607551574707 10.72136402130127 
vn 65.84237670898438 32.56950378417969 -18.512088775634766 
vn 62.216880798339844 27.78427505493164 -33.10260772705078 
vn 39.59506607055664 9.645849227905273 -63.858253479003906 
vn 39.30807876586914 9.643195152282715 -64.03571319580078 
vn 18.357675552368164 -3.414520502090454 -73.41679382324219 
vn 19.223875045776367 -3.9883973598480225 -73.16572570800781 
vn -65.40180969238281 -37.924766540527344 -4.7962822914123535 
vn -65.4193115234375 -37.93491744995117 -4.465902328491211 
vn -65.4193115234375 -37.93491744995117 -4.465902328491211 
vn -65.70426940917969 -37.43920135498047 -4.465902328491211 
vn -34.55940246582031 -30.616958618164062 -60.05779266357422 
vn -33.6529655456543 -31.22538948059082 -60.25895690917969 
vn -33.6529655456543 -31.22538948059082 -60.25895690917969 
vn -32.727535247802734 -31.81682014465332 -60.45896911621094 
vn -10.483880043029785 46.29971694946289 59.034847259521484 
vn -14.361913681030273 47.89836120605469 56.904930114746094 
vn -13.252973556518555 47.438507080078125 57.55550003051758 
vn -19.831340789794922 51.795249938964844 51.600948333740234 
vn -21.056272506713867 53.910945892333984 48.87670135498047 
vn -17.71904182434082 57.489845275878906 46.03956604003906 
vn -18.221609115600586 52.38323211669922 51.600948333740234 
vn -21.708024978637695 60.709617614746094 39.771751403808594 
vn -24.247085571289062 48.09122085571289 53.27289581298828 
vn -25.063617706298828 60.50892639160156 38.06800842285156 
vn -27.7160587310791 67.3791732788086 20.749828338623047 
vn -29.424985885620117 65.80838775634766 23.283357620239258 
vn -20.692527770996094 66.09048461914062 30.701066970825195 
vn 46.50067138671875 -10.759953498840332 58.82685852050781 
vn 45.97468185424805 -10.744199752807617 59.24170684814453 
vn 45.97468185424805 -10.744199752807617 59.24170684814453 
vn 45.573936462402344 -11.30078125 59.44742965698242 
vn -14.819212913513184 25.66762924194336 69.71550750732422 
vn -28.83545684814453 30.34823989868164 63.13627624511719 
vn -16.42734146118164 25.034196853637695 69.58534240722656 
vn -43.236026763916016 34.375274658203125 51.84279251098633 
vn -60.4879150390625 38.44094467163086 24.539649963378906 
vn -64.84912109375 37.6607551574707 10.72136402130127 
vn -65.96866607666016 32.31294250488281 -18.512088775634766 
vn -62.216880798339844 27.78427505493164 -33.10260772705078 
vn -39.66188049316406 9.367332458496094 -63.858253479003906 
vn -39.30807876586914 9.643195152282715 -64.03571319580078 
vn -18.30319595336914 -3.695436954498291 -73.41679382324219 
vn -19.280099868774414 -3.7070813179016113 -73.16572570800781 
vn 65.562255859375 -37.68732833862305 -4.465902328491211 
vn 65.562255859375 -37.68732833862305 -4.465902328491211 
vn 65.562255859375 -37.68732833862305 -4.465902328491211 
vn 65.25796508789062 -38.17174530029297 -4.7962822914123535 
vn 32.9264030456543 -31.61097526550293 -60.45896911621094 
vn 33.6529655456543 -31.22538948059082 -60.25895690917969 
vn 33.6529655456543 -31.22538948059082 -60.25895690917969 
vn 34.36902618408203 -30.830514907836914 -60.05779266357422 
s on 
f 1//1 2//2 3//3 
f 2//2 4//4 3//3 
f 3//3 4//4 4//4 
f 4//4 5//5 4//4 
f 4//4 5//5 5//5 
f 5//5 6//6 5//5 
f 5//5 6//6 7//7 
f 6//6 8//8 7//7 
f 7//7 8//8 8//8 
f 8//8 9//9 8//8 
f 8//8 9//9 9//9 
f 9//9 10//10 9//9 
f 9//9 10//10 11//11 
f 10//10 12//12 11//11 
f 11//11 12//12 13//13 
f 12//12 14//14 13//13 
f 13//13 14//14 15//15 
f 14//14 16//16 15//15 
f 15//15 16//16 17//17 
f 16//16 18//18 17//17 
f 17//17 18//18 17//17 
f 18//18 19//19 17//17 
f 17//17 19//19 20//20 
f 19//19 20//20 20//20 
f 20//20 20//20 21//21 
f 20//20 21//21 21//21 
f 21//21 21//21 22//22 
f 21//21 23//23 22//22 
f 22//22 23//23 24//24 
f 23//23 24//24 24//24 
f 24//24 24//24 25//25 
f 24//24 25//25 25//25 
f 25//25 25//25 26//26 
f 25//25 27//27 26//26 
f 26//26 27//27 28//28 
f 27//27 28//28 28//28 
f 28//28 28//28 29//29 
f 28//28 29//29 29//29 
f 29//29 29//29 30//30 
f 29//29 31//31 30//30 
f 30//30 31//31 32//32 
f 31//31 33//33 32//32 
f 32//32 33//33 32//32 
f 33//33 34//34 32//32 
f 32//32 34//34 35//35 
f 34//34 36//36 35//35 
f 35//35 36//36 37//37 
f 36//36 37//37 37//37 
f 37//37 37//37 30//30 
f 37//37 30//30 30//30 
f 30//30 30//30 38//38 
f 30//30 32//32 38//38 
f 38//38 32//32 39//39 
f 32//32 35//35 39//39 
f 39//39 35//35 35//35 
f 35//35 36//36 35//35 
f 35//35 36//36 36//36 
f 36//36 34//34 36//36 
f 36//36 34//34 40//40 
f 34//34 33//33 40//40 
f 40//40 33//33 41//41 
f 33//33 42//42 41//41 
f 41//41 42//42 43//43 
f 42//42 42//42 43//43 
f 43//43 42//42 44//44 
f 42//42 42//42 44//44 
f 44//44 42//42 45//45 
f 42//42 42//42 45//45 
f 45//45 42//42 46//46 
f 42//42 42//42 46//46 
f 46//46 42//42 47//47 
f 42//42 33//33 47//47 
f 47//47 33//33 47//47 
f 33//33 31//31 47//47 
f 47//47 31//31 47//47 
f 31//31 48//48 47//47 
f 47//47 48//48 49//49 
f 48//48 50//50 49//49 
f 49//49 50//50 51//51 
f 50//50 52//52 51//51 
f 51//51 52//52 52//52 
f 52//52 51//51 52//52 
f 52//52 51//51 51//51 
f 51//51 53//53 51//51 
f 51//51 53//53 49//49 
f 53//53 54//54 49//49 
f 49//49 54//54 47//47 
f 54//54 55//55 47//47 
f 47//47 55//55 47//47 
f 55//55 56//56 47//47 
f 47//47 56//56 57//57 
f 56//56 58//58 57//57 
f 57//57 58//58 59//59 
f 58//58 59//59 59//59 
f 59//59 59//59 60//60 
f 59//59 60//60 60//60 
f 60//60 60//60 61//61 
f 60//60 62//62 61//61 
f 61//61 62//62 63//63 
f 62//62 63//63 63//63 
f 63//63 63//63 64//64 
f 63//63 64//64 64//64 
f 64//64 64//64 65//65 
f 64//64 66//66 65//65 
f 65//65 66//66 67//67 
f 66//66 68//68 67//67 
f 67//67 68//68 69//69 
f 68//68 70//70 69//69 
f 69//69 70//70 71//71 
f 70//70 72//72 71//71 
f 71//71 72//72 73//73 
f 72//72 72//72 73//73 
f 73//73 72//72 74//74 
f 72//72 75//75 74//74 
f 74//74 75//75 75//75 
f 75//75 76//76 75//75 
f 75//75 76//76 76//76 
f 76//76 77//77 76//76 
f 76//76 77//77 78//78 
f 77//77 79//79 78//78 
f 78//78 79//79 79//79 
f 79//79 80//80 79//79 
f 79//79 80//80 80//80 
f 80//80 81//81 80//80 
f 80//80 81//81 82//82 
f 81//81 83//83 82//82 
f 82//82 83//83 83//83 
f 83//83 84//84 83//83 
f 83//83 84//84 84//84 
f 84//84 85//85 84//84 
f 84//84 85//85 86//86 
f 85//85 85//85 86//86 
f 86//86 85//85 87//87 
f 85//85 88//88 87//87 
f 87//87 88//88 89//89 
f 88//88 90//90 89//89 
f 89//89 90//90 91//91 
f 90//90 92//92 91//91 
f 91//91 92//92 91//91 
f 92//92 93//93 91//91 
f 91//91 93//93 91//91 
f 93//93 94//94 91//91 
f 91//91 94//94 91//91 
f 94//94 95//95 91//91 
f 91//91 95//95 91//91 
f 95//95 96//96 91//91 
f 91//91 96//96 89//89 
f 96//96 89//89 89//89 
f 89//89 89//89 97//97 
f 89//89 97//97 97//97 
f 97//97 97//97 98//98 
f 97//97 99//99 98//98 
f 98//98 99//99 100//100 
f 99//99 101//101 100//100 
f 100//100 101//101 102//102 
f 101//101 101//101 102//102 
f 102//102 101//101 103//103 
f 101//101 104//104 103//103 
f 103//103 104//104 104//104 
f 104//104 97//97 104//104 
f 104//104 97//97 97//97 
f 97//97 98//98 97//97 
f 97//97 98//98 105//105 
f 98//98 106//106 105//105 
f 105//105 106//106 107//107 
f 106//106 106//106 107//107 
f 107//107 106//106 108//108 
f 106//106 106//106 108//108 
f 108//108 106//106 109//109 
f 106//106 98//98 109//109 
f 109//109 98//98 110//110 
f 98//98 98//98 110//110 
f 110//110 98//98 111//111 
f 98//98 100//100 111//111 
f 111//111 100//100 111//111 
f 100//100 102//102 111//111 
f 111//111 102//102 112//112 
f 102//102 103//103 112//112 
f 112//112 103//103 113//113 
f 103//103 114//114 113//113 
f 113//113 114//114 115//115 
f 114//114 115//115 115//115 
f 115//115 115//115 103//103 
f 115//115 103//103 103//103 
f 103//103 103//103 114//114 
f 103//103 104//104 114//114 
f 114//114 104//104 116//116 
f 104//104 116//116 116//116 
f 116//116 116//116 109//109 
f 116//116 109//109 109//109 
f 109//109 109//109 108//108 
f 109//109 117//117 108//108 
f 108//108 117//117 118//118 
f 117//117 119//119 118//118 
f 118//118 119//119 120//120 
f 119//119 121//121 120//120 
f 120//120 121//121 121//121 
f 121//121 108//108 121//121 
f 121//121 108//108 108//108 
f 108//108 118//118 108//108 
f 108//108 118//118 107//107 
f 118//118 118//118 107//107 
f 107//107 118//118 122//122 
f 118//118 120//120 122//122 
f 122//122 120//120 123//123 
f 120//120 123//123 123//123 
f 123//123 123//123 124//124 
f 123//123 124//124 124//124 
f 124//124 124//124 125//125 
f 124//124 126//126 125//125 
f 125//125 126//126 127//127 
f 126//126 127//127 127//127 
f 127//127 127//127 128//128 
f 127//127 128//128 128//128 
f 128//128 128//128 129//129 
f 128//128 130//130 129//129 
f 129//129 130//130 131//131 
f 130//130 131//131 131//131 
f 131//131 131//131 132//132 
f 131//131 132//132 132//132 
f 132//132 132//132 133//133 
f 132//132 134//134 133//133 
f 133//133 134//134 133//133 
f 134//134 135//135 133//133 
f 133//133 135//135 136//136 
f 135//135 137//137 136//136 
f 136//136 137//137 138//138 
f 137//137 139//139 138//138 
f 138//138 139//139 140//140 
f 139//139 141//141 140//140 
f 140//140 141//141 140//140 
f 141//141 142//142 140//140 
f 140//140 142//142 143//143 
f 142//142 143//143 143//143 
f 143//143 143//143 144//144 
f 143//143 144//144 144//144 
f 144//144 144//144 145//145 
f 144//144 146//146 145//145 
f 145//145 146//146 147//147 
f 146//146 147//147 147//147 
f 147//147 147//147 148//148 
f 147//147 148//148 148//148 
f 148//148 148//148 149//149 
f 148//148 150//150 149//149 
f 149//149 150//150 151//151 
f 150//150 151//151 151//151 
f 151//151 151//151 152//152 
f 151//151 152//152 152//152 
f 152//152 152//152 153//153 
f 152//152 154//154 153//153 
f 153//153 154//154 153//153 
f 154//154 155//155 153//153 
f 153//153 155//155 156//156 
f 155//155 157//157 156//156 
f 156//156 157//157 158//158 
f 157//157 159//159 158//158 
f 158//158 159//159 160//160 
f 159//159 159//159 160//160 
f 160//160 159//159 161//161 
f 159//159 159//159 161//161 
f 161//161 159//159 162//162 
f 159//159 159//159 162//162 
f 162//162 159//159 163//163 
f 159//159 159//159 163//163 
f 163//163 159//159 164//164 
f 159//159 157//157 164//164 
f 164//164 157//157 157//157 
f 157//157 165//165 157//157 
f 157//157 165//165 165//165 
f 165//165 166//166 165//165 
f 165//165 166//166 167//167 
f 166//166 168//168 167//167 
f 167//167 168//168 168//168 
f 168//168 169//169 168//168 
f 168//168 169//169 169//169 
f 169//169 170//170 169//169 
f 169//169 170//170 171//171 
f 170//170 170//170 171//171 
f 171//171 170//170 172//172 
f 170//170 173//173 172//172 
f 172//172 173//173 174//174 
f 173//173 175//175 174//174 
f 174//174 175//175 176//176 
f 175//175 177//177 176//176 
f 176//176 177//177 178//178 
f 177//177 177//177 178//178 
f 178//178 177//177 179//179 
f 177//177 180//180 179//179 
f 179//179 180//180 180//180 
f 180//180 181//181 180//180 
f 180//180 181//181 181//181 
f 181//181 182//182 181//181 
f 181//181 182//182 183//183 
f 182//182 184//184 183//183 
f 183//183 184//184 184//184 
f 184//184 185//185 184//184 
f 184//184 185//185 185//185 
f 185//185 186//186 185//185 
f 185//185 186//186 187//187 
f 186//186 188//188 187//187 

