mtllib model_21.mtl
o model_21
v -158.60728454589844 51.179744720458984 35.49311828613281 
v -158.585693359375 51.19750213623047 34.772701263427734 
v -159.84742736816406 52.04393005371094 35.51340103149414 
v -159.82583618164062 52.06168746948242 34.7929801940918 
v -158.9810791015625 49.836116790771484 35.725955963134766 
v -158.73818969726562 49.67333984375 35.49555206298828 
v -158.87582397460938 51.052486419677734 35.725955963134766 
v -158.60728454589844 51.179744720458984 35.49311828613281 
v -159.3751220703125 51.068763732910156 36.08778762817383 
v -159.46148681640625 50.96665954589844 36.41554641723633 
v -159.24017333984375 50.868995666503906 36.08454132080078 
v -159.35353088378906 50.805362701416016 36.41392517089844 
v -159.5653839111328 51.21821975708008 36.09184265136719 
v -159.61532592773438 51.08504104614258 36.4179801940918 
v -159.3751220703125 51.068763732910156 36.08778762817383 
v -159.46148681640625 50.96665954589844 36.41554641723633 
v -160.5126953125 50.01960754394531 35.73893737792969 
v -160.50054931640625 50.01664733886719 36.11375045776367 
v -160.64764404296875 50.21937561035156 35.73893737792969 
v -160.635498046875 50.21641540527344 36.11618423461914 
v -160.71511840820312 50.450218200683594 35.73893737792969 
v -160.7016143798828 50.44873809814453 36.11780548095703 
v -160.70701599121094 50.69142150878906 35.73893737792969 
v -160.6935272216797 50.68994140625 36.11780548095703 
v -160.62469482421875 50.91782760620117 35.73893737792969 
v -160.6112060546875 50.91634750366211 36.11618423461914 
v -160.47625732421875 51.10871887207031 35.73893737792969 
v -160.464111328125 51.10575866699219 36.112937927246094 
v -159.79209899902344 51.29960632324219 36.0975227355957 
v -159.79750061035156 51.15163040161133 36.421226501464844 
v -159.5653839111328 51.21821975708008 36.09184265136719 
v -159.61532592773438 51.08504104614258 36.4179801940918 
v -160.0323028564453 51.30848693847656 36.10320281982422 
v -159.99180603027344 51.15903091430664 36.424468994140625 
v -159.79209899902344 51.29960632324219 36.0975227355957 
v -159.79750061035156 51.15163040161133 36.421226501464844 
v -160.264404296875 51.24041748046875 36.108070373535156 
v -160.17803955078125 51.104278564453125 36.42771530151367 
v -160.0323028564453 51.30848693847656 36.10320281982422 
v -159.99180603027344 51.15903091430664 36.424468994140625 
v -160.464111328125 51.10575866699219 36.112937927246094 
v -160.338623046875 50.996253967285156 36.43014907836914 
v -160.264404296875 51.24041748046875 36.108070373535156 
v -160.17803955078125 51.104278564453125 36.42771530151367 
v -160.6112060546875 50.91634750366211 36.11618423461914 
v -160.45736694335938 50.84235763549805 36.43258285522461 
v -160.464111328125 51.10575866699219 36.112937927246094 
v -160.338623046875 50.996253967285156 36.43014907836914 
v -160.6935272216797 50.68994140625 36.11780548095703 
v -160.52349853515625 50.66034698486328 36.43339538574219 
v -160.6112060546875 50.91634750366211 36.11618423461914 
v -160.45736694335938 50.84235763549805 36.43258285522461 
v -160.08627319335938 49.050357818603516 34.79703903198242 
v -160.1078643798828 49.03260040283203 35.5174560546875 
v -161.326416015625 49.91454315185547 34.81732177734375 
v -161.34800720214844 49.896785736083984 35.538551330566406 
v -159.82583618164062 52.06168746948242 34.7929801940918 
v -158.585693359375 51.19750213623047 34.772701263427734 
v -161.1955108642578 51.42094802856445 34.815696716308594 
v -160.08627319335938 49.050357818603516 34.79703903198242 
v -161.326416015625 49.91454315185547 34.81732177734375 
v -160.7016143798828 50.44873809814453 36.11780548095703 
v -160.53024291992188 50.466495513916016 36.43339538574219 
v -160.6935272216797 50.68994140625 36.11780548095703 
v -160.52349853515625 50.66034698486328 36.43339538574219 
v -160.635498046875 50.21641540527344 36.11618423461914 
v -160.47625732421875 50.28004455566406 36.43258285522461 
v -160.7016143798828 50.44873809814453 36.11780548095703 
v -160.53024291992188 50.466495513916016 36.43339538574219 
v -160.71511840820312 50.450218200683594 35.73893737792969 
v -160.70701599121094 50.69142150878906 35.73893737792969 
v -160.64764404296875 50.21937561035156 35.73893737792969 
v -160.47625732421875 51.10871887207031 35.73893737792969 
v -159.57752990722656 51.21969985961914 35.73569107055664 
v -160.04443359375 51.309967041015625 35.73569107055664 
v -159.8042449951172 51.30256652832031 35.73569107055664 
v -159.1942901611328 50.399906158447266 35.73488235473633 
v -159.8555145263672 49.779884338378906 35.73569107055664 
v -160.3237762451172 49.87162780761719 35.73893737792969 
v -160.09707641601562 49.788761138916016 35.73893737792969 
v -159.425048828125 49.98261260986328 35.73569107055664 
v -159.276611328125 50.17202377319336 35.73488235473633 
v -160.2266082763672 50.251930236816406 36.42852783203125 
v -160.1753387451172 50.30964279174805 36.04884719848633 
v -160.30218505859375 50.36143493652344 36.42933654785156 
v -160.23606872558594 50.3984260559082 36.05046844482422 
v -160.338623046875 50.49017333984375 36.43014907836914 
v -160.2657470703125 50.50053024291992 36.05046844482422 
v -160.33456420898438 50.62335205078125 36.43014907836914 
v -160.26170349121094 50.60855484008789 36.05046844482422 
v -159.83392333984375 50.96221923828125 36.422035217285156 
v -159.8609161376953 50.87935256958008 36.042354583740234 
v -159.70843505859375 50.91634750366211 36.41960144042969 
v -159.75970458984375 50.84235763549805 36.039920806884766 
v -159.70843505859375 50.91634750366211 36.41960144042969 
v -159.75970458984375 50.84235763549805 36.039920806884766 
v -159.60317993164062 50.8349609375 36.4179801940918 
v -159.67469787597656 50.77724838256836 36.038299560546875 
v -160.12135314941406 50.169063568115234 36.426902770996094 
v -160.09031677246094 50.2430534362793 36.04722213745117 
v -160.2266082763672 50.251930236816406 36.42852783203125 
v -160.1753387451172 50.30964279174805 36.04884719848633 
v -159.99586486816406 50.123191833496094 36.424468994140625 
v -159.99046325683594 50.206058502197266 36.0447883605957 
v -160.12135314941406 50.169063568115234 36.426902770996094 
v -160.09031677246094 50.2430534362793 36.04722213745117 
v -160.33456420898438 50.62335205078125 36.43014907836914 
v -160.26170349121094 50.60855484008789 36.05046844482422 
v -160.2886962890625 50.7491340637207 36.42933654785156 
v -160.2252655029297 50.70917892456055 36.049659729003906 
v -159.86227416992188 50.118751525878906 36.422035217285156 
v -159.88385009765625 50.20309829711914 36.04316711425781 
v -159.99586486816406 50.123191833496094 36.424468994140625 
v -159.99046325683594 50.206058502197266 36.0447883605957 
v -159.49656677246094 50.462059020996094 36.416358947753906 
v -159.5896759033203 50.478336334228516 36.036678314208984 
v -159.54110717773438 50.33627700805664 36.41716766357422 
v -159.62611389160156 50.37771224975586 36.0374870300293 
v -160.30218505859375 50.36143493652344 36.42933654785156 
v -160.23606872558594 50.3984260559082 36.05046844482422 
v -160.338623046875 50.49017333984375 36.43014907836914 
v -160.2657470703125 50.50053024291992 36.05046844482422 
v -159.967529296875 50.96665954589844 36.424468994140625 
v -159.967529296875 50.8823127746582 36.0447883605957 
v -159.83392333984375 50.96221923828125 36.422035217285156 
v -159.8609161376953 50.87935256958008 36.042354583740234 
v -159.88385009765625 50.20309829711914 36.04316711425781 
v -159.86227416992188 50.118751525878906 36.422035217285156 
v -159.7799530029297 50.23269271850586 36.040733337402344 
v -159.73406982421875 50.15574645996094 36.420413970947266 
v -160.98365783691406 51.23301696777344 35.725955963134766 
v -161.0889129638672 50.01664733886719 35.725955963134766 
v -159.87710571289062 51.750938415527344 35.725955963134766 
v -158.9810791015625 49.836116790771484 35.725955963134766 
v -158.87582397460938 51.052486419677734 35.725955963134766 
v -159.4911651611328 50.595237731933594 36.416358947753906 
v -159.58563232421875 50.584877014160156 36.036678314208984 
v -159.49656677246094 50.462059020996094 36.416358947753906 
v -159.5896759033203 50.478336334228516 36.036678314208984 
v -159.54110717773438 50.33627700805664 36.41716766357422 
v -159.62611389160156 50.37771224975586 36.0374870300293 
v -159.6234130859375 50.2312126159668 36.4179801940918 
v -159.69223022460938 50.293365478515625 36.03911209106445 
v -159.7799530029297 50.23269271850586 36.040733337402344 
v -159.73406982421875 50.15574645996094 36.420413970947266 
v -159.69223022460938 50.293365478515625 36.03911209106445 
v -159.6234130859375 50.2312126159668 36.4179801940918 
v -159.1862030029297 50.63962936401367 35.73488235473633 
v -159.2523193359375 50.87195587158203 35.73488235473633 
v -159.38726806640625 51.07172393798828 35.73569107055664 
v -159.58563232421875 50.584877014160156 36.036678314208984 
v -159.4911651611328 50.595237731933594 36.416358947753906 
v -159.61532592773438 50.68846130371094 36.0374870300293 
v -159.52896118164062 50.723976135253906 36.41716766357422 
v -159.61532592773438 50.68846130371094 36.0374870300293 
v -159.52896118164062 50.723976135253906 36.41716766357422 
v -159.67469787597656 50.77724838256836 36.038299560546875 
v -159.60317993164062 50.8349609375 36.4179801940918 
v -161.1955108642578 51.42094802856445 34.815696716308594 
v -161.21710205078125 51.40319061279297 35.53611755371094 
v -159.82583618164062 52.06168746948242 34.7929801940918 
v -159.84742736816406 52.04393005371094 35.51340103149414 
v -160.2886962890625 50.7491340637207 36.42933654785156 
v -160.2252655029297 50.70917892456055 36.049659729003906 
v -160.2063751220703 50.855674743652344 36.42771530151367 
v -160.15914916992188 50.79352569580078 36.04884719848633 
v -160.2063751220703 50.855674743652344 36.42771530151367 
v -160.15914916992188 50.79352569580078 36.04884719848633 
v -160.09571838378906 50.929664611816406 36.42609405517578 
v -160.07008361816406 50.852718353271484 36.04641342163086 
v -159.967529296875 50.8823127746582 36.0447883605957 
v -159.967529296875 50.96665954589844 36.424468994140625 
v -160.07008361816406 50.852718353271484 36.04641342163086 
v -160.09571838378906 50.929664611816406 36.42609405517578 
v -160.09031677246094 50.2430534362793 36.04722213745117 
v -159.99046325683594 50.206058502197266 36.0447883605957 
v -160.1753387451172 50.30964279174805 36.04884719848633 
v -160.2657470703125 50.50053024291992 36.05046844482422 
v -160.23606872558594 50.3984260559082 36.05046844482422 
v -159.62611389160156 50.37771224975586 36.0374870300293 
v -159.67469787597656 50.77724838256836 36.038299560546875 
v -160.07008361816406 50.852718353271484 36.04641342163086 
v -159.8609161376953 50.87935256958008 36.042354583740234 
v -159.967529296875 50.8823127746582 36.0447883605957 
v -160.2252655029297 50.70917892456055 36.049659729003906 
v -160.15914916992188 50.79352569580078 36.04884719848633 
v -159.26312255859375 50.1705436706543 36.08535385131836 
v -159.37242126464844 50.2430534362793 36.41392517089844 
v -159.41156005859375 49.979652404785156 36.088600158691406 
v -159.4911651611328 50.09063720703125 36.416358947753906 
v -159.41156005859375 49.979652404785156 36.088600158691406 
v -159.4911651611328 50.09063720703125 36.416358947753906 
v -159.61126708984375 49.844993591308594 36.093467712402344 
v -159.65174865722656 49.98113250732422 36.418792724609375 
v -160.31028747558594 49.86867141723633 36.108882904052734 
v -160.2144775390625 50.000370025634766 36.42771530151367 
v -160.50054931640625 50.01664733886719 36.11375045776367 
v -160.36830139160156 50.12023162841797 36.43096160888672 
v -159.37242126464844 50.2430534362793 36.41392517089844 
v -159.26312255859375 50.1705436706543 36.08535385131836 
v -159.30628967285156 50.42506408691406 36.41311264038086 
v -159.18214416503906 50.396949768066406 36.08373260498047 
v -159.24017333984375 50.868995666503906 36.08454132080078 
v -159.35353088378906 50.805362701416016 36.41392517089844 
v -159.17405700683594 50.63814926147461 36.08292007446289 
v -159.29954528808594 50.61891174316406 36.41311264038086 
v -159.41156005859375 49.979652404785156 36.088600158691406 
v -159.425048828125 49.98261260986328 35.73569107055664 
v -159.26312255859375 50.1705436706543 36.08535385131836 
v -159.276611328125 50.17202377319336 35.73488235473633 
v -159.18214416503906 50.396949768066406 36.08373260498047 
v -159.1942901611328 50.399906158447266 35.73488235473633 
v -159.17405700683594 50.63814926147461 36.08292007446289 
v -159.1862030029297 50.63962936401367 35.73488235473633 
v -159.24017333984375 50.868995666503906 36.08454132080078 
v -159.2523193359375 50.87195587158203 35.73488235473633 
v -159.3751220703125 51.068763732910156 36.08778762817383 
v -159.38726806640625 51.07172393798828 35.73569107055664 
v -159.425048828125 49.98261260986328 35.73569107055664 
v -159.41156005859375 49.979652404785156 36.088600158691406 
v -159.62477111816406 49.84795379638672 35.73569107055664 
v -159.61126708984375 49.844993591308594 36.093467712402344 
v -159.8555145263672 49.779884338378906 35.73569107055664 
v -159.84336853027344 49.778404235839844 36.09833526611328 
v -160.09707641601562 49.788761138916016 35.73893737792969 
v -160.0835723876953 49.785804748535156 36.1040153503418 
v -160.3237762451172 49.87162780761719 35.73893737792969 
v -160.31028747558594 49.86867141723633 36.108882904052734 
v -160.5126953125 50.01960754394531 35.73893737792969 
v -160.50054931640625 50.01664733886719 36.11375045776367 
v -158.7165985107422 49.691097259521484 34.774322509765625 
v -158.73818969726562 49.67333984375 35.49555206298828 
v -160.08627319335938 49.050357818603516 34.79703903198242 
v -160.1078643798828 49.03260040283203 35.5174560546875 
v -159.61532592773438 50.68846130371094 36.0374870300293 
v -159.58563232421875 50.584877014160156 36.036678314208984 
v -159.5896759033203 50.478336334228516 36.036678314208984 
v -160.98365783691406 51.23301696777344 35.725955963134766 
v -161.21710205078125 51.40319061279297 35.53611755371094 
v -161.0889129638672 50.01664733886719 35.725955963134766 
v -161.34800720214844 49.896785736083984 35.538551330566406 
v -159.84336853027344 49.778404235839844 36.09833526611328 
v -159.83932495117188 49.927860260009766 36.422035217285156 
v -160.0835723876953 49.785804748535156 36.1040153503418 
v -160.0323028564453 49.933780670166016 36.4252815246582 
v -160.0835723876953 49.785804748535156 36.1040153503418 
v -160.0323028564453 49.933780670166016 36.4252815246582 
v -160.31028747558594 49.86867141723633 36.108882904052734 
v -160.2144775390625 50.000370025634766 36.42771530151367 
v -159.69223022460938 50.293365478515625 36.03911209106445 
v -159.7799530029297 50.23269271850586 36.040733337402344 
v -159.88385009765625 50.20309829711914 36.04316711425781 
v -158.87582397460938 51.052486419677734 35.725955963134766 
v -158.60728454589844 51.179744720458984 35.49311828613281 
v -159.87710571289062 51.750938415527344 35.725955963134766 
v -159.84742736816406 52.04393005371094 35.51340103149414 
v -160.1078643798828 49.03260040283203 35.5174560546875 
v -160.08761596679688 49.31819534301758 35.726768493652344 
v -161.34800720214844 49.896785736083984 35.538551330566406 
v -161.0889129638672 50.01664733886719 35.725955963134766 
v -160.47625732421875 50.28004455566406 36.43258285522461 
v -160.635498046875 50.21641540527344 36.11618423461914 
v -160.36830139160156 50.12023162841797 36.43096160888672 
v -160.50054931640625 50.01664733886719 36.11375045776367 
v -159.30628967285156 50.42506408691406 36.41311264038086 
v -159.18214416503906 50.396949768066406 36.08373260498047 
v -159.29954528808594 50.61891174316406 36.41311264038086 
v -159.17405700683594 50.63814926147461 36.08292007446289 
v -160.47625732421875 51.10871887207031 35.73893737792969 
v -160.464111328125 51.10575866699219 36.112937927246094 
v -160.27655029296875 51.243377685546875 35.73569107055664 
v -160.264404296875 51.24041748046875 36.108070373535156 
v -160.04443359375 51.309967041015625 35.73569107055664 
v -160.0323028564453 51.30848693847656 36.10320281982422 
v -159.8042449951172 51.30256652832031 35.73569107055664 
v -159.79209899902344 51.29960632324219 36.0975227355957 
v -159.57752990722656 51.21969985961914 35.73569107055664 
v -159.5653839111328 51.21821975708008 36.09184265136719 
v -159.38726806640625 51.07172393798828 35.73569107055664 
v -159.3751220703125 51.068763732910156 36.08778762817383 
v -161.326416015625 49.91454315185547 34.81732177734375 
v -161.34800720214844 49.896785736083984 35.538551330566406 
v -161.1955108642578 51.42094802856445 34.815696716308594 
v -161.21710205078125 51.40319061279297 35.53611755371094 
v -159.83932495117188 49.927860260009766 36.422035217285156 
v -159.84336853027344 49.778404235839844 36.09833526611328 
v -159.65174865722656 49.98113250732422 36.418792724609375 
v -159.61126708984375 49.844993591308594 36.093467712402344 
v -158.73818969726562 49.67333984375 35.49555206298828 
v -158.9810791015625 49.836116790771484 35.725955963134766 
v -160.1078643798828 49.03260040283203 35.5174560546875 
v -160.08761596679688 49.31819534301758 35.726768493652344 
v -158.73818969726562 49.67333984375 35.49555206298828 
v -158.7165985107422 49.691097259521484 34.774322509765625 
v -158.60728454589844 51.179744720458984 35.49311828613281 
v -158.585693359375 51.19750213623047 34.772701263427734 
v -160.2063751220703 50.855674743652344 36.42771530151367 
v -160.338623046875 50.996253967285156 36.43014907836914 
v -160.2886962890625 50.7491340637207 36.42933654785156 
v -160.45736694335938 50.84235763549805 36.43258285522461 
v -160.33456420898438 50.62335205078125 36.43014907836914 
v -160.52349853515625 50.66034698486328 36.43339538574219 
v -160.338623046875 50.49017333984375 36.43014907836914 
v -160.53024291992188 50.466495513916016 36.43339538574219 
v -160.30218505859375 50.36143493652344 36.42933654785156 
v -160.47625732421875 50.28004455566406 36.43258285522461 
v -160.2266082763672 50.251930236816406 36.42852783203125 
v -160.36830139160156 50.12023162841797 36.43096160888672 
v -160.12135314941406 50.169063568115234 36.426902770996094 
v -160.2144775390625 50.000370025634766 36.42771530151367 
v -159.99586486816406 50.123191833496094 36.424468994140625 
v -160.0323028564453 49.933780670166016 36.4252815246582 
v -159.86227416992188 50.118751525878906 36.422035217285156 
v -159.83932495117188 49.927860260009766 36.422035217285156 
v -159.73406982421875 50.15574645996094 36.420413970947266 
v -159.65174865722656 49.98113250732422 36.418792724609375 
v -159.6234130859375 50.2312126159668 36.4179801940918 
v -159.4911651611328 50.09063720703125 36.416358947753906 
v -159.54110717773438 50.33627700805664 36.41716766357422 
v -159.37242126464844 50.2430534362793 36.41392517089844 
v -159.49656677246094 50.462059020996094 36.416358947753906 
v -159.30628967285156 50.42506408691406 36.41311264038086 
v -159.4911651611328 50.595237731933594 36.416358947753906 
v -159.29954528808594 50.61891174316406 36.41311264038086 
v -159.52896118164062 50.723976135253906 36.41716766357422 
v -159.35353088378906 50.805362701416016 36.41392517089844 
v -159.60317993164062 50.8349609375 36.4179801940918 
v -159.46148681640625 50.96665954589844 36.41554641723633 
v -159.70843505859375 50.91634750366211 36.41960144042969 
v -159.61532592773438 51.08504104614258 36.4179801940918 
v -159.83392333984375 50.96221923828125 36.422035217285156 
v -159.79750061035156 51.15163040161133 36.421226501464844 
v -159.967529296875 50.96665954589844 36.424468994140625 
v -159.99180603027344 51.15903091430664 36.424468994140625 
v -160.09571838378906 50.929664611816406 36.42609405517578 
v -160.17803955078125 51.104278564453125 36.42771530151367 
v -161.21710205078125 51.40319061279297 35.53611755371094 
v -160.98365783691406 51.23301696777344 35.725955963134766 
v -159.84742736816406 52.04393005371094 35.51340103149414 
v -159.87710571289062 51.750938415527344 35.725955963134766 
v -159.84742736816406 52.04393005371094 35.51340103149414 
v -160.98365783691406 51.23301696777344 35.725955963134766 
v -158.7165985107422 49.691097259521484 34.774322509765625 
v -160.08761596679688 49.31819534301758 35.726768493652344 
v -160.62469482421875 50.91782760620117 35.73893737792969 
v -160.27655029296875 51.243377685546875 35.73569107055664 
v -159.62477111816406 49.84795379638672 35.73569107055664 
v -160.5126953125 50.01960754394531 35.73893737792969 
v -159.75970458984375 50.84235763549805 36.039920806884766 
v -160.26170349121094 50.60855484008789 36.05046844482422 
vn 0.5738675594329834 0.818105936050415 0.03713129088282585 
vn 0.5738675594329834 0.818105936050415 0.03713129088282585 
vn 0.5738675594329834 0.818105936050415 0.03713129088282585 
vn 0.5738675594329834 0.818105936050415 0.03713129088282585 
vn 0.6671717762947083 -0.06026293337345123 0.7424622178077698 
vn 0.6704254746437073 -0.060231249779462814 0.7395281791687012 
vn 0.6704254746437073 -0.060231249779462814 0.7395281791687012 
vn 0.6704254746437073 -0.060231249779462814 0.7395281791687012 
vn 0.7709475755691528 0.5191006064414978 0.3690181374549866 
vn 0.7709475755691528 0.5191006064414978 0.3690181374549866 
vn 0.7709475755691528 0.5191006064414978 0.3690181374549866 
vn 0.7726750373840332 0.5194055438041687 0.3649536371231079 
vn 0.5764196515083313 0.7228073477745056 0.3811691105365753 
vn 0.5764196515083313 0.7228073477745056 0.3811691105365753 
vn 0.5764196515083313 0.7228073477745056 0.3811691105365753 
vn 0.5705024003982544 0.7274868488311768 0.3811691105365753 
vn -0.6907731294631958 -0.7228041887283325 0.01966099627315998 
vn -0.7631204724311829 -0.6458093523979187 0.024029340595006943 
vn -0.8815656304359436 -0.4712066352367401 0.028397228568792343 
vn -0.9263694286346436 -0.375544011592865 0.028397228568792343 
vn -0.9844242930412292 -0.17272897064685822 0.03276457265019417 
vn -0.997155487537384 -0.0678783655166626 0.03276457265019417 
vn -0.9902431964874268 0.1354432851076126 0.03276457265019417 
vn -0.9704205393791199 0.23918718099594116 0.03276457265019417 
vn -0.8986054062843323 0.4375326633453369 0.03276457265019417 
vn -0.8474149703979492 0.5299192070960999 0.03276457265019417 
vn -0.7226524353027344 0.6906280517578125 0.028397228568792343 
vn -0.6457353830337524 0.7630330324172974 0.028397228568792343 
vn 0.317809522151947 0.8609152436256409 0.3972681760787964 
vn 0.317809522151947 0.8609152436256409 0.3972681760787964 
vn 0.317809522151947 0.8609152436256409 0.3972681760787964 
vn 0.317809522151947 0.8609152436256409 0.3972681760787964 
vn 0.03958918899297714 0.9079424738883972 0.417220801115036 
vn 0.03958918899297714 0.9079424738883972 0.417220801115036 
vn 0.03958918899297714 0.9079424738883972 0.417220801115036 
vn 0.03958918899297714 0.9079424738883972 0.417220801115036 
vn -0.23674644529819489 0.8677583932876587 0.43697428703308105 
vn -0.23674644529819489 0.8677583932876587 0.43697428703308105 
vn -0.23674644529819489 0.8677583932876587 0.43697428703308105 
vn -0.24026617407798767 0.8687626719474792 0.43303996324539185 
vn -0.49285179376602173 0.7431188225746155 0.45262736082077026 
vn -0.49285179376602173 0.7431188225746155 0.45262736082077026 
vn -0.49285179376602173 0.7431188225746155 0.45262736082077026 
vn -0.49285179376602173 0.7431188225746155 0.45262736082077026 
vn -0.6927961707115173 0.55179762840271 0.4642767012119293 
vn -0.6927961707115173 0.55179762840271 0.4642767012119293 
vn -0.6927961707115173 0.55179762840271 0.4642767012119293 
vn -0.6974689364433289 0.5458793640136719 0.4642767012119293 
vn -0.8256223201751709 0.30317994952201843 0.4758462607860565 
vn -0.8256223201751709 0.30317994952201843 0.4758462607860565 
vn -0.8256223201751709 0.30317994952201843 0.4758462607860565 
vn -0.8278571963310242 0.303100049495697 0.4719987213611603 
vn -0.5738675594329834 -0.818105936050415 -0.03713129088282585 
vn -0.5738675594329834 -0.818105936050415 -0.03713129088282585 
vn -0.5738675594329834 -0.818105936050415 -0.03713129088282585 
vn -0.5738675594329834 -0.818105936050415 -0.03713129088282585 
vn -0.017476677894592285 -3.6145805417514814e-15 -0.9998472929000854 
vn -0.017476677894592285 -3.6145805417514814e-15 -0.9998472929000854 
vn -0.017476677894592285 -3.6145805417514814e-15 -0.9998472929000854 
vn -0.017476677894592285 -3.6145805417514814e-15 -0.9998472929000854 
vn -0.017476677894592285 -3.6145805417514814e-15 -0.9998472929000854 
vn -0.8790100812911987 0.030192101374268532 0.4758462607860565 
vn -0.8790100812911987 0.030192101374268532 0.4758462607860565 
vn -0.8790100812911987 0.030192101374268532 0.4758462607860565 
vn -0.8790100812911987 0.030192101374268532 0.4758462607860565 
vn -0.8444791436195374 -0.24581557512283325 0.4758462607860565 
vn -0.8444791436195374 -0.24581557512283325 0.4758462607860565 
vn -0.8444791436195374 -0.24581557512283325 0.4758462607860565 
vn -0.8444791436195374 -0.24581557512283325 0.4758462607860565 
vn 2.0682311115474694e-13 4.2775797696334704e-26 -1 
vn 2.0682311115474694e-13 4.2775797696334704e-26 -1 
vn -0.002184688812121749 -0.0037839922588318586 -0.9999904632568359 
vn -0.0019445375073701143 -0.00851957593113184 -0.999961793422699 
vn -0.002184688812121749 -0.0037839922588318586 -0.9999904632568359 
vn 0.0038889264687895775 -0.01703849993646145 -0.9998472929000854 
vn 2.0682311115474694e-13 4.2775797696334704e-26 -1 
vn 2.0682311115474694e-13 4.2775797696334704e-26 -1 
vn -0.0040505328215658665 -0.012466258369386196 -0.9999141097068787 
vn -0.010896530002355576 -0.013663816265761852 -0.9998472929000854 
vn -0.014939445070922375 -0.041045788675546646 -0.9990455508232117 
vn 2.0682311115474694e-13 4.2775797696334704e-26 -1 
vn 2.0682311115474694e-13 4.2775797696334704e-26 -1 
vn 0.8140947222709656 0.5476474165916443 0.19321508705615997 
vn 0.8140947222709656 0.5476474165916443 0.19321508705615997 
vn 0.8140947222709656 0.5476474165916443 0.19321508705615997 
vn 0.8140947222709656 0.5476474165916443 0.19321508705615997 
vn 0.9815266728401184 -0.030203476548194885 0.18892620503902435 
vn 0.9815266728401184 -0.030203476548194885 0.18892620503902435 
vn 0.9815266728401184 -0.030203476548194885 0.18892620503902435 
vn 0.9815266728401184 -0.030203476548194885 0.18892620503902435 
vn -0.3255096971988678 -0.9188344478607178 0.22312943637371063 
vn -0.3255096971988678 -0.9188344478607178 0.22312943637371063 
vn -0.3255096971988678 -0.9188344478607178 0.22312943637371063 
vn -0.3255096971988678 -0.9188344478607178 0.22312943637371063 
vn -0.5929522514343262 -0.771200954914093 0.23163928091526031 
vn -0.5929522514343262 -0.771200954914093 0.23163928091526031 
vn -0.5929522514343262 -0.771200954914093 0.23163928091526031 
vn -0.5929522514343262 -0.771200954914093 0.23163928091526031 
vn 0.6027413010597229 0.7731083631515503 0.1975002884864807 
vn 0.6027413010597229 0.7731083631515503 0.1975002884864807 
vn 0.6027413010597229 0.7731083631515503 0.1975002884864807 
vn 0.6027413010597229 0.7731083631515503 0.1975002884864807 
vn 0.33802559971809387 0.9183018207550049 0.2060592919588089 
vn 0.33802559971809387 0.9183018207550049 0.2060592919588089 
vn 0.33802559971809387 0.9183018207550049 0.2060592919588089 
vn 0.33802559971809387 0.9183018207550049 0.2060592919588089 
vn 0.9237703084945679 -0.33309951424598694 0.18892620503902435 
vn 0.9237703084945679 -0.33309951424598694 0.18892620503902435 
vn 0.9237703084945679 -0.33309951424598694 0.18892620503902435 
vn 0.9237703084945679 -0.33309951424598694 0.18892620503902435 
vn 0.039617884904146194 0.9758976101875305 0.21460255980491638 
vn 0.039617884904146194 0.9758976101875305 0.21460255980491638 
vn 0.039617884904146194 0.9758976101875305 0.21460255980491638 
vn 0.039617884904146194 0.9758976101875305 0.21460255980491638 
vn -0.911910355091095 0.33280080556869507 0.2401314377784729 
vn -0.911910355091095 0.33280080556869507 0.2401314377784729 
vn -0.911910355091095 0.33280080556869507 0.2401314377784729 
vn -0.911910355091095 0.33280080556869507 0.2401314377784729 
vn 0.9445955157279968 0.2684141993522644 0.18892620503902435 
vn 0.9445955157279968 0.2684141993522644 0.18892620503902435 
vn 0.9445955157279968 0.2684141993522644 0.18892620503902435 
vn 0.9445955157279968 0.2684141993522644 0.18892620503902435 
vn -0.02830229327082634 -0.976291298866272 0.21460255980491638 
vn -0.02830229327082634 -0.976291298866272 0.21460255980491638 
vn -0.02830229327082634 -0.976291298866272 0.21460255980491638 
vn -0.02830229327082634 -0.976291298866272 0.21460255980491638 
vn -0.2680436372756958 0.9372117519378662 0.22312943637371063 
vn -0.2680436372756958 0.9372117519378662 0.22312943637371063 
vn -0.2680436372756958 0.9372117519378662 0.22312943637371063 
vn -0.2680436372756958 0.9372117519378662 0.22312943637371063 
vn 0 0 1 
vn 0 0 1 
vn 0 0 1 
vn 0 0 1 
vn 0 0 1 
vn -0.9702708125114441 0.030189892277121544 0.2401314377784729 
vn -0.9702708125114441 0.030189892277121544 0.2401314377784729 
vn -0.9702708125114441 0.030189892277121544 0.2401314377784729 
vn -0.9702708125114441 0.030189892277121544 0.2401314377784729 
vn -0.7652826309204102 0.5989152789115906 0.23588760197162628 
vn -0.7652826309204102 0.5989152789115906 0.23588760197162628 
vn -0.7652826309204102 0.5989152789115906 0.23588760197162628 
vn -0.7652826309204102 0.5989152789115906 0.23588760197162628 
vn -0.5423882603645325 0.8087708950042725 0.22738653421401978 
vn -0.5423882603645325 0.8087708950042725 0.22738653421401978 
vn -0.5423882603645325 0.8087708950042725 0.22738653421401978 
vn -0.5423882603645325 0.8087708950042725 0.22738653421401978 
vn 2.0682311115474694e-13 4.2775797696334704e-26 -1 
vn 2.0682311115474694e-13 4.2775797696334704e-26 -1 
vn 2.0682311115474694e-13 4.2775797696334704e-26 -1 
vn -0.9329503774642944 -0.2682172358036041 0.2401314377784729 
vn -0.9329503774642944 -0.2682172358036041 0.2401314377784729 
vn -0.9329503774642944 -0.2682172358036041 0.2401314377784729 
vn -0.9329503774642944 -0.2682172358036041 0.2401314377784729 
vn -0.8052436113357544 -0.5440034866333008 0.23588760197162628 
vn -0.8052436113357544 -0.5440034866333008 0.23588760197162628 
vn -0.8052436113357544 -0.5440034866333008 0.23588760197162628 
vn -0.8052436113357544 -0.5440034866333008 0.23588760197162628 
vn -0.42411333322525024 0.9055432677268982 0.010923261754214764 
vn -0.42411333322525024 0.9055432677268982 0.010923261754214764 
vn -0.42411333322525024 0.9055432677268982 0.010923261754214764 
vn -0.42411333322525024 0.9055432677268982 0.010923261754214764 
vn 0.7742702960968018 -0.6026387214660645 0.19321508705615997 
vn 0.7742702960968018 -0.6026387214660645 0.19321508705615997 
vn 0.7742702960968018 -0.6026387214660645 0.19321508705615997 
vn 0.7742702960968018 -0.6026387214660645 0.19321508705615997 
vn 0.5525495409965515 -0.8086860179901123 0.2017817199230194 
vn 0.5525495409965515 -0.8086860179901123 0.2017817199230194 
vn 0.5525495409965515 -0.8086860179901123 0.2017817199230194 
vn 0.5525495409965515 -0.8086860179901123 0.2017817199230194 
vn 0.27354711294174194 -0.9395272731781006 0.2060592919588089 
vn 0.27354711294174194 -0.9395272731781006 0.2060592919588089 
vn 0.27354711294174194 -0.9395272731781006 0.2060592919588089 
vn 0.27354711294174194 -0.9395272731781006 0.2060592919588089 
vn 0.021845221519470215 0 0.9997613430023193 
vn 0.021845221519470215 0 0.9997613430023193 
vn 0.021845221519470215 0 0.9997613430023193 
vn 0.021845221519470215 0 0.9997613430023193 
vn 0.021845221519470215 0 0.9997613430023193 
vn 0.021845221519470215 0 0.9997613430023193 
vn 0.021845221519470215 0 0.9997613430023193 
vn 0.021845221519470215 0 0.9997613430023193 
vn 0.021845221519470215 0 0.9997613430023193 
vn 0.021845221519470215 0 0.9997613430023193 
vn 0.021845221519470215 0 0.9997613430023193 
vn 0.021845221519470215 0 0.9997613430023193 
vn 0.7356343865394592 -0.5680384039878845 0.3690181374549866 
vn 0.7356343865394592 -0.5680384039878845 0.3690181374549866 
vn 0.7356343865394592 -0.5680384039878845 0.3690181374549866 
vn 0.7356343865394592 -0.5680384039878845 0.3690181374549866 
vn 0.5218307375907898 -0.7631531953811646 0.3811691105365753 
vn 0.5218307375907898 -0.7631531953811646 0.3811691105365753 
vn 0.5218307375907898 -0.7631531953811646 0.3811691105365753 
vn 0.5189577341079712 -0.7630858421325684 0.3852050006389618 
vn -0.5419595837593079 -0.7081018686294556 0.45262736082077026 
vn -0.5419595837593079 -0.7081018686294556 0.45262736082077026 
vn -0.5419595837593079 -0.7081018686294556 0.45262736082077026 
vn -0.5449838042259216 -0.7032658457756042 0.456519216299057 
vn 0.8767971992492676 -0.3177904784679413 0.36088213324546814 
vn 0.8767971992492676 -0.3177904784679413 0.36088213324546814 
vn 0.8767971992492676 -0.3177904784679413 0.36088213324546814 
vn 0.8767971992492676 -0.3177904784679413 0.36088213324546814 
vn 0.8975839614868164 0.25319382548332214 0.36088213324546814 
vn 0.8975839614868164 0.25319382548332214 0.36088213324546814 
vn 0.8975839614868164 0.25319382548332214 0.36088213324546814 
vn 0.8991825580596924 0.2533017694950104 0.3568037748336792 
vn 0.6457353830337524 -0.7630330324172974 -0.028397228568792343 
vn 0.7226524353027344 -0.6906280517578125 -0.028397228568792343 
vn 0.8474149703979492 -0.5299192070960999 -0.03276457265019417 
vn 0.8984680771827698 -0.4374658167362213 -0.03713129088282585 
vn 0.9702722430229187 -0.23915062844753265 -0.03713129088282585 
vn 0.9900919198989868 -0.13542260229587555 -0.03713129088282585 
vn 0.9970031380653381 0.06786799430847168 -0.03713129088282585 
vn 0.9844242930412292 0.17272897064685822 -0.03276457265019417 
vn 0.9262455701828003 0.3754938244819641 -0.03276457265019417 
vn 0.8815656304359436 0.4712066352367401 -0.028397228568792343 
vn 0.7631204724311829 0.6458093523979187 -0.024029340595006943 
vn 0.6907731294631958 0.7228041887283325 -0.01966099627315998 
vn 0.7226524353027344 -0.6906280517578125 -0.028397228568792343 
vn 0.6457353830337524 -0.7630330324172974 -0.028397228568792343 
vn 0.4712606370449066 -0.8816666007041931 -0.024029340595006943 
vn 0.3756229281425476 -0.9265640377998352 -0.01966099627315998 
vn 0.17281144857406616 -0.984894335269928 -0.010923261754214764 
vn 0.06791078299283981 -0.9976316094398499 -0.010923261754214764 
vn -0.1355157196521759 -0.9907727837562561 -0.002184694167226553 
vn -0.23931509256362915 -0.9709395170211792 0.002184694167226553 
vn -0.43774157762527466 -0.8990345001220703 0.010923261754214764 
vn -0.5301722288131714 -0.8478196263313293 0.010923261754214764 
vn -0.6907731294631958 -0.7228041887283325 0.01966099627315998 
vn -0.7631204724311829 -0.6458093523979187 0.024029340595006943 
vn 0.42411333322525024 -0.9055432677268982 -0.010923261754214764 
vn 0.42411333322525024 -0.9055432677268982 -0.010923261754214764 
vn 0.42411333322525024 -0.9055432677268982 -0.010923261754214764 
vn 0.42411333322525024 -0.9055432677268982 -0.010923261754214764 
vn 0.021845221519470215 0 0.9997613430023193 
vn 0.021845221519470215 0 0.9997613430023193 
vn 0.021845221519470215 0 0.9997613430023193 
vn -0.6072004437446594 0.052702758461236954 0.7927988767623901 
vn -0.6033769249916077 0.056467894464731216 0.7954543828964233 
vn -0.6033769249916077 0.056467894464731216 0.7954543828964233 
vn -0.6033769249916077 0.056467894464731216 0.7954543828964233 
vn -0.020741958171129227 -0.9085684418678284 0.417220801115036 
vn -0.020741958171129227 -0.9085684418678284 0.417220801115036 
vn -0.020741958171129227 -0.9085684418678284 0.417220801115036 
vn -0.024527762085199356 -0.9066417813301086 0.42118772864341736 
vn -0.3015246093273163 -0.8474292755126953 0.43697428703308105 
vn -0.3015246093273163 -0.8474292755126953 0.43697428703308105 
vn -0.3015246093273163 -0.8474292755126953 0.43697428703308105 
vn -0.3015246093273163 -0.8474292755126953 0.43697428703308105 
vn 0.021845221519470215 0 0.9997613430023193 
vn 0.021845221519470215 0 0.9997613430023193 
vn 0.021845221519470215 0 0.9997613430023193 
vn 0.3857751190662384 0.547656238079071 0.7424622178077698 
vn 0.3768978416919708 0.5174738764762878 0.7682244777679443 
vn 0.3768978416919708 0.5174738764762878 0.7682244777679443 
vn 0.3768978416919708 0.5174738764762878 0.7682244777679443 
vn -0.36221712827682495 -0.531912624835968 0.7654199600219727 
vn -0.36221712827682495 -0.531912624835968 0.7654199600219727 
vn -0.36221712827682495 -0.531912624835968 0.7654199600219727 
vn -0.34544724225997925 -0.49791422486305237 0.7954543828964233 
vn -0.7305129766464233 -0.49718576669692993 0.46814218163490295 
vn -0.7305129766464233 -0.49718576669692993 0.46814218163490295 
vn -0.7305129766464233 -0.49718576669692993 0.46814218163490295 
vn -0.7305129766464233 -0.49718576669692993 0.46814218163490295 
vn 0.9336919784545898 -0.03017275594174862 0.3568037748336792 
vn 0.9336919784545898 -0.03017275594174862 0.3568037748336792 
vn 0.9336919784545898 -0.03017275594174862 0.3568037748336792 
vn 0.9336919784545898 -0.03017275594174862 0.3568037748336792 
vn -0.7226524353027344 0.6906280517578125 0.028397228568792343 
vn -0.6457353830337524 0.7630330324172974 0.028397228568792343 
vn -0.47130560874938965 0.8817508220672607 0.01966099627315998 
vn -0.3756229281425476 0.9265640377998352 0.01966099627315998 
vn -0.17281144857406616 0.984894335269928 0.010923261754214764 
vn -0.06791337579488754 0.9976696968078613 0.006554040592163801 
vn 0.1355157196521759 0.9907727837562561 0.002184694167226553 
vn 0.23931509256362915 0.9709395170211792 -0.002184694167226553 
vn 0.43774157762527466 0.8990345001220703 -0.010923261754214764 
vn 0.5301418900489807 0.8477710485458374 -0.0152922747656703 
vn 0.6907731294631958 0.7228041887283325 -0.01966099627315998 
vn 0.7631204724311829 0.6458093523979187 -0.024029340595006943 
vn -0.9961497187614441 0.08294198662042618 -0.028397228568792343 
vn -0.9961497187614441 0.08294198662042618 -0.028397228568792343 
vn -0.9961497187614441 0.08294198662042618 -0.028397228568792343 
vn -0.9961497187614441 0.08294198662042618 -0.028397228568792343 
vn 0.2585485875606537 -0.8787102103233337 0.401274174451828 
vn 0.2585485875606537 -0.8787102103233337 0.401274174451828 
vn 0.2585485875606537 -0.8787102103233337 0.401274174451828 
vn 0.2585485875606537 -0.8787102103233337 0.401274174451828 
vn 0.2932705879211426 -0.6058799028396606 0.7395281791687012 
vn 0.2932705879211426 -0.6058799028396606 0.7395281791687012 
vn 0.2932705879211426 -0.6058799028396606 0.7395281791687012 
vn 0.2733932435512543 -0.5788672566413879 0.7682244777679443 
vn 0.9961497187614441 -0.08294198662042618 0.028397228568792343 
vn 0.9961497187614441 -0.08294198662042618 0.028397228568792343 
vn 0.9961497187614441 -0.08294198662042618 0.028397228568792343 
vn 0.9961497187614441 -0.08294198662042618 0.028397228568792343 
vn 0.017476677894592285 0 0.9998472929000854 
vn 0.017476677894592285 0 0.9998472929000854 
vn 0.017476677894592285 0 0.9998472929000854 
vn 0.017476677894592285 0 0.9998472929000854 
vn 0.017476677894592285 0 0.9998472929000854 
vn 0.017476677894592285 0 0.9998472929000854 
vn 0.017476677894592285 0 0.9998472929000854 
vn 0.017476677894592285 0 0.9998472929000854 
vn 0.017476677894592285 0 0.9998472929000854 
vn 0.017476677894592285 0 0.9998472929000854 
vn 0.017476677894592285 0 0.9998472929000854 
vn 0.017476677894592285 0 0.9998472929000854 
vn 0.017476677894592285 0 0.9998472929000854 
vn 0.017476677894592285 0 0.9998472929000854 
vn 0.017476677894592285 0 0.9998472929000854 
vn 0.017476677894592285 0 0.9998472929000854 
vn 0.017476677894592285 0 0.9998472929000854 
vn 0.017476677894592285 0 0.9998472929000854 
vn 0.017476677894592285 0 0.9998472929000854 
vn 0.017476677894592285 0 0.9998472929000854 
vn 0.017476677894592285 0 0.9998472929000854 
vn 0.017476677894592285 0 0.9998472929000854 
vn 0.017476677894592285 0 0.9998472929000854 
vn 0.017476677894592285 0 0.9998472929000854 
vn 0.017476677894592285 0 0.9998472929000854 
vn 0.017476677894592285 0 0.9998472929000854 
vn 0.017476677894592285 0 0.9998472929000854 
vn 0.017476677894592285 0 0.9998472929000854 
vn 0.017476677894592285 0 0.9998472929000854 
vn 0.017476677894592285 0 0.9998472929000854 
vn 0.017476677894592285 0 0.9998472929000854 
vn 0.017476677894592285 0 0.9998472929000854 
vn 0.017476677894592285 0 0.9998472929000854 
vn 0.017476677894592285 0 0.9998472929000854 
vn 0.017476677894592285 0 0.9998472929000854 
vn 0.017476677894592285 0 0.9998472929000854 
vn 0.017476677894592285 0 0.9998472929000854 
vn 0.017476677894592285 0 0.9998472929000854 
vn 0.017476677894592285 0 0.9998472929000854 
vn 0.017476677894592285 0 0.9998472929000854 
vn -0.24706177413463593 0.5533649921417236 0.7954543828964233 
vn -0.24706177413463593 0.5533649921417236 0.7954543828964233 
vn -0.24706177413463593 0.5533649921417236 0.7954543828964233 
vn -0.2704477608203888 0.5839437246322632 0.7654199600219727 
vn -0.2704477608203888 0.5839437246322632 0.7654199600219727 
vn -0.2704477608203888 0.5839437246322632 0.7654199600219727 
vn -0.017476677894592285 -3.6145805417514814e-15 -0.9998472929000854 
vn 0 0 1 
vn 2.0682311115474694e-13 4.2775797696334704e-26 -1 
vn 0.014939445070922375 -0.041045788675546646 -0.9990455508232117 
vn 2.0682311115474694e-13 4.2775797696334704e-26 -1 
vn 2.0682311115474694e-13 4.2775797696334704e-26 -1 
vn 0.021845221519470215 0 0.9997613430023193 
vn 0.026213347911834717 0 0.9996563792228699 
vt 0.8286593556404114 0.5637248754501343 
vt 0.8417133688926697 0.563319742679596 
vt 0.8283435702323914 0.5861093401908875 
vt 0.8413975238800049 0.5857041478157043 
vt 0.8759273886680603 0.0893978625535965 
vt 0.8803489208221436 0.09233518689870834 
vt 0.8778223395347595 0.06731729954481125 
vt 0.8826649188995361 0.06508898735046387 
vt 0.020365599542856216 0.8394281268119812 
vt 0.022260531783103943 0.8454040288925171 
vt 0.024050189182162285 0.839326798915863 
vt 0.025208203122019768 0.8453027606010437 
vt 0.8375023603439331 0.4848223030567169 
vt 0.8315017819404602 0.48563259840011597 
vt 0.8375023603439331 0.48137855529785156 
vt 0.8316070437431335 0.4828978478908539 
vt 0.8245536684989929 0.7345960736274719 
vt 0.8244484066963196 0.7278098464012146 
vt 0.8281329870223999 0.7345960736274719 
vt 0.8281329870223999 0.7278098464012146 
vt 0.8323439359664917 0.7345960736274719 
vt 0.8323439359664917 0.7278098464012146 
vt 0.836765468120575 0.7345960736274719 
vt 0.8366602063179016 0.7278098464012146 
vt 0.8408711552619934 0.7345960736274719 
vt 0.8407658934593201 0.7278098464012146 
vt 0.8442399501800537 0.7345960736274719 
vt 0.8442399501800537 0.727911114692688 
vt 0.8373970985412598 0.48887377977371216 
vt 0.8315017819404602 0.48897507786750793 
vt 0.8375023603439331 0.4848223030567169 
vt 0.8315017819404602 0.48563259840011597 
vt 0.8372918367385864 0.49322912096977234 
vt 0.8313965201377869 0.49252012372016907 
vt 0.8373970985412598 0.48887377977371216 
vt 0.8315017819404602 0.48897507786750793 
vt 0.8371865749359131 0.49748319387435913 
vt 0.8313965201377869 0.49586260318756104 
vt 0.8372918367385864 0.49322912096977234 
vt 0.8313965201377869 0.49252012372016907 
vt 0.8370813131332397 0.5010282397270203 
vt 0.8312911987304688 0.4987999200820923 
vt 0.8371865749359131 0.49748319387435913 
vt 0.8313965201377869 0.49586260318756104 
vt 0.8407658934593201 0.7278098464012146 
vt 0.8395025730133057 0.7220364809036255 
vt 0.8442399501800537 0.727911114692688 
vt 0.8422397375106812 0.7221377491950989 
vt 0.8366602063179016 0.7278098464012146 
vt 0.8361338376998901 0.7220364809036255 
vt 0.8407658934593201 0.7278098464012146 
vt 0.8395025730133057 0.7220364809036255 
vt 0.8283435702323914 0.6902323365211487 
vt 0.8413975238800049 0.6899284720420837 
vt 0.8286593556404114 0.6678479313850403 
vt 0.8417133688926697 0.667442798614502 
vt 0.8469770550727844 0.8790313005447388 
vt 0.8244484066963196 0.8633318543434143 
vt 0.8718217015266418 0.8673833012580872 
vt 0.8517143726348877 0.8245388865470886 
vt 0.8741377592086792 0.8401371240615845 
vt 0.8323439359664917 0.7278098464012146 
vt 0.8326597809791565 0.7220364809036255 
vt 0.8366602063179016 0.7278098464012146 
vt 0.8361338376998901 0.7220364809036255 
vt 0.8281329870223999 0.7278098464012146 
vt 0.829291045665741 0.7220364809036255 
vt 0.8323439359664917 0.7278098464012146 
vt 0.8326597809791565 0.7220364809036255 
vt 0.23586148023605347 0.8452014327049255 
vt 0.23575620353221893 0.8495568037033081 
vt 0.23459818959236145 0.8409473896026611 
vt 0.23154523968696594 0.8570520281791687 
vt 0.21522776782512665 0.8590777516365051 
vt 0.22375497221946716 0.8606983423233032 
vt 0.2193334549665451 0.8605970740318298 
vt 0.20827968418598175 0.8441885709762573 
vt 0.22028093039989471 0.8330470323562622 
vt 0.22880811989307404 0.8346676230430603 
vt 0.22470243275165558 0.8331483006477356 
vt 0.21249064803123474 0.8366933465003967 
vt 0.20975352823734283 0.8401371240615845 
vt 0.05858006328344345 0.8399345278739929 
vt 0.0575273223221302 0.8330470323562622 
vt 0.05657985433936119 0.8399345278739929 
vt 0.05594821274280548 0.8330470323562622 
vt 0.054263826459646225 0.8399345278739929 
vt 0.054053280502557755 0.8330470323562622 
vt 0.051842525601387024 0.8399345278739929 
vt 0.05215834826231003 0.8330470323562622 
vt 0.3738756775856018 0.8295019865036011 
vt 0.36703288555145264 0.8290968537330627 
vt 0.3738756775856018 0.8318315744400024 
vt 0.3669275939464569 0.8309199810028076 
vt 0.3738756775856018 0.8318315744400024 
vt 0.3669275939464569 0.8309199810028076 
vt 0.37377041578292847 0.8337560296058655 
vt 0.3669275939464569 0.8324393033981323 
vt 0.8330808877944946 0.20861266553401947 
vt 0.8399236798286438 0.20810623466968536 
vt 0.8330808877944946 0.2105371206998825 
vt 0.8399236798286438 0.20962552726268768 
vt 0.8330808877944946 0.2063843458890915 
vt 0.8400289416313171 0.2062830626964569 
vt 0.8330808877944946 0.20861266553401947 
vt 0.8399236798286438 0.20810623466968536 
vt 0.051842525601387024 0.8399345278739929 
vt 0.05215834826231003 0.8330470323562622 
vt 0.04963177070021629 0.8399345278739929 
vt 0.05036868900060654 0.8330470323562622 
vt 0.833186149597168 0.20395345985889435 
vt 0.8400289416313171 0.20435860753059387 
vt 0.8330808877944946 0.2063843458890915 
vt 0.8400289416313171 0.2062830626964569 
vt 0.4854661226272583 0.8330470323562622 
vt 0.4857819676399231 0.8399345278739929 
vt 0.48325538635253906 0.8330470323562622 
vt 0.4839923083782196 0.8399345278739929 
vt 0.05657985433936119 0.8399345278739929 
vt 0.05594821274280548 0.8330470323562622 
vt 0.054263826459646225 0.8399345278739929 
vt 0.054053280502557755 0.8330470323562622 
vt 0.37398096919059753 0.8270710706710815 
vt 0.36703288555145264 0.8270710706710815 
vt 0.3738756775856018 0.8295019865036011 
vt 0.36703288555145264 0.8290968537330627 
vt 0.8400289416313171 0.20435860753059387 
vt 0.833186149597168 0.20395345985889435 
vt 0.8400289416313171 0.20243415236473083 
vt 0.833186149597168 0.2016238570213318 
vt 0.8396078944206238 0.06407611817121506 
vt 0.8377129435539246 0.08605539053678513 
vt 0.8597152233123779 0.05465642362833023 
vt 0.8759273886680603 0.0893978625535965 
vt 0.8778223395347595 0.06731729954481125 
vt 0.487887442111969 0.8330470323562622 
vt 0.48778215050697327 0.8399345278739929 
vt 0.4854661226272583 0.8330470323562622 
vt 0.4857819676399231 0.8399345278739929 
vt 0.48325538635253906 0.8330470323562622 
vt 0.4839923083782196 0.8399345278739929 
vt 0.48136043548583984 0.8330470323562622 
vt 0.4824131727218628 0.8399345278739929 
vt 0.8400289416313171 0.20243415236473083 
vt 0.833186149597168 0.2016238570213318 
vt 0.8401342630386353 0.20081356167793274 
vt 0.833186149597168 0.19959811866283417 
vt 0.2081744223833084 0.8486452102661133 
vt 0.2093324363231659 0.8527979850769043 
vt 0.21185900270938873 0.8564442992210388 
vt 0.48778215050697327 0.8399345278739929 
vt 0.487887442111969 0.8330470323562622 
vt 0.48957180976867676 0.8399345278739929 
vt 0.4903087317943573 0.8330470323562622 
vt 0.48957180976867676 0.8399345278739929 
vt 0.4903087317943573 0.8330470323562622 
vt 0.4912562072277069 0.8399345278739929 
vt 0.49230894446372986 0.8330470323562622 
vt 0.8409764170646667 0.6105194687843323 
vt 0.8279224634170532 0.6109246015548706 
vt 0.8413975238800049 0.5857041478157043 
vt 0.8283435702323914 0.5861093401908875 
vt 0.04963177070021629 0.8399345278739929 
vt 0.05036868900060654 0.8330470323562622 
vt 0.04763156548142433 0.8399345278739929 
vt 0.048789579421281815 0.8330470323562622 
vt 0.37398096919059753 0.8228170275688171 
vt 0.367138147354126 0.8236273527145386 
vt 0.37398096919059753 0.8248427510261536 
vt 0.367138147354126 0.8252479434013367 
vt 0.36703288555145264 0.8270710706710815 
vt 0.37398096919059753 0.8270710706710815 
vt 0.367138147354126 0.8252479434013367 
vt 0.37398096919059753 0.8248427510261536 
vt 0.8327650427818298 0.7917219400405884 
vt 0.8345547318458557 0.7923296689987183 
vt 0.8312911987304688 0.7905064821243286 
vt 0.829606831073761 0.7870627045631409 
vt 0.8301331996917725 0.7888858914375305 
vt 0.8411870002746582 0.7892910242080688 
vt 0.8403447866439819 0.7819983959197998 
vt 0.833186149597168 0.7806816697120667 
vt 0.8369759917259216 0.7801752090454102 
vt 0.8349758386611938 0.7800739407539368 
vt 0.8303437829017639 0.7832137942314148 
vt 0.8315017819404602 0.7816945314407349 
vt 0.03668307140469551 0.839326798915863 
vt 0.035419780761003494 0.8453027606010437 
vt 0.04015711322426796 0.8394281268119812 
vt 0.0381569042801857 0.8454040288925171 
vt 0.8343441486358643 0.6463750600814819 
vt 0.8402395248413086 0.6449570655822754 
vt 0.8343441486358643 0.6428300142288208 
vt 0.8403447866439819 0.6420197486877441 
vt 0.834659993648529 0.630169153213501 
vt 0.8404500484466553 0.6318910121917725 
vt 0.8347652554512024 0.6267253756523132 
vt 0.8405553102493286 0.6290550231933594 
vt 0.035419780761003494 0.8453027606010437 
vt 0.03668307140469551 0.839326798915863 
vt 0.03205101564526558 0.8453027606010437 
vt 0.032577384263277054 0.839326798915863 
vt 0.024050189182162285 0.839326798915863 
vt 0.025208203122019768 0.8453027606010437 
vt 0.028261149302124977 0.839326798915863 
vt 0.02857697196304798 0.8453027606010437 
vt 0.04015711322426796 0.8394281268119812 
vt 0.040051836520433426 0.8330470323562622 
vt 0.03668307140469551 0.839326798915863 
vt 0.03668307140469551 0.8330470323562622 
vt 0.032577384263277054 0.839326798915863 
vt 0.032577384263277054 0.8330470323562622 
vt 0.028261149302124977 0.839326798915863 
vt 0.028155876323580742 0.8330470323562622 
vt 0.024050189182162285 0.839326798915863 
vt 0.02394491620361805 0.8330470323562622 
vt 0.020365599542856216 0.8394281268119812 
vt 0.020365599542856216 0.8330470323562622 
vt 0.8279224634170532 0.6461725234985352 
vt 0.8343441486358643 0.6463750600814819 
vt 0.8279224634170532 0.6425261497497559 
vt 0.8343441486358643 0.6428300142288208 
vt 0.8279224634170532 0.6383734345436096 
vt 0.8344494700431824 0.6385759711265564 
vt 0.8280277252197266 0.634018063545227 
vt 0.8345547318458557 0.6342206597328186 
vt 0.8280277252197266 0.629865288734436 
vt 0.834659993648529 0.630169153213501 
vt 0.8280277252197266 0.6264215111732483 
vt 0.8347652554512024 0.6267253756523132 
vt 0.8279224634170532 0.7150476574897766 
vt 0.8409764170646667 0.7147437930107117 
vt 0.8283435702323914 0.6902323365211487 
vt 0.8413975238800049 0.6899284720420837 
vt 0.8413975238800049 0.7836189866065979 
vt 0.8419238924980164 0.7855434417724609 
vt 0.841818630695343 0.787467896938324 
vt 0.8396078944206238 0.06407611817121506 
vt 0.8353968858718872 0.06103750318288803 
vt 0.8377129435539246 0.08605539053678513 
vt 0.8330808877944946 0.0882837101817131 
vt 0.8344494700431824 0.6385759711265564 
vt 0.8403447866439819 0.6386772394180298 
vt 0.8345547318458557 0.6342206597328186 
vt 0.8404500484466553 0.6351321935653687 
vt 0.8345547318458557 0.6342206597328186 
vt 0.8404500484466553 0.6351321935653687 
vt 0.834659993648529 0.630169153213501 
vt 0.8404500484466553 0.6318910121917725 
vt 0.8400289416313171 0.7908103466033936 
vt 0.8384498357772827 0.7919244766235352 
vt 0.8365549445152283 0.7924309372901917 
vt 0.8778223395347595 0.06731729954481125 
vt 0.8826649188995361 0.06508898735046387 
vt 0.8597152233123779 0.05465642362833023 
vt 0.8602415919303894 0.04938950017094612 
vt 0.8555042147636414 0.10388190299272537 
vt 0.8558200597763062 0.09871626645326614 
vt 0.8330808877944946 0.0882837101817131 
vt 0.8377129435539246 0.08605539053678513 
vt 0.829291045665741 0.7220364809036255 
vt 0.8281329870223999 0.7278098464012146 
vt 0.8263433575630188 0.7221377491950989 
vt 0.8244484066963196 0.7278098464012146 
vt 0.03205101564526558 0.8453027606010437 
vt 0.032577384263277054 0.839326798915863 
vt 0.02857697196304798 0.8453027606010437 
vt 0.028261149302124977 0.839326798915863 
vt 0.8438188433647156 0.5012308359146118 
vt 0.8370813131332397 0.5010282397270203 
vt 0.8439241051673889 0.4976857602596283 
vt 0.8371865749359131 0.49748319387435913 
vt 0.8439241051673889 0.4934317171573639 
vt 0.8372918367385864 0.49322912096977234 
vt 0.8439241051673889 0.4890763759613037 
vt 0.8373970985412598 0.48887377977371216 
vt 0.8439241051673889 0.48502489924430847 
vt 0.8375023603439331 0.4848223030567169 
vt 0.8439241051673889 0.4815811216831207 
vt 0.8375023603439331 0.48137855529785156 
vt 0.07194986194372177 0.8426693081855774 
vt 0.07163403928279877 0.8296032547950745 
vt 0.09921582788228989 0.8426693081855774 
vt 0.09890000522136688 0.8297045230865479 
vt 0.8403447866439819 0.6386772394180298 
vt 0.8344494700431824 0.6385759711265564 
vt 0.8403447866439819 0.6420197486877441 
vt 0.8343441486358643 0.6428300142288208 
vt 0.8803489208221436 0.09233518689870834 
vt 0.8759273886680603 0.0893978625535965 
vt 0.8555042147636414 0.10388190299272537 
vt 0.8558200597763062 0.09871626645326614 
vt 0.3296606242656708 0.8443911671638489 
vt 0.329344779253006 0.831325113773346 
vt 0.30239465832710266 0.8443911671638489 
vt 0.30207881331443787 0.831325113773346 
vt 0.8371865749359131 0.5379979610443115 
vt 0.8347652554512024 0.5354658365249634 
vt 0.835712730884552 0.5399224162101746 
vt 0.8326597809791565 0.5383018255233765 
vt 0.8348705172538757 0.5422520637512207 
vt 0.8313965201377869 0.5415430068969727 
vt 0.8347652554512024 0.5446829199790955 
vt 0.8312911987304688 0.5450880527496338 
vt 0.8355022072792053 0.5470125079154968 
vt 0.8323439359664917 0.5484305620193481 
vt 0.8368707299232483 0.5489369630813599 
vt 0.8342388868331909 0.5513678789138794 
vt 0.8387656807899475 0.5504562854766846 
vt 0.8370813131332397 0.5534948706626892 
vt 0.8409764170646667 0.551266610622406 
vt 0.8403447866439819 0.554710328578949 
vt 0.8433977365493774 0.5513678789138794 
vt 0.8438188433647156 0.5548116564750671 
vt 0.84571373462677 0.5506588816642761 
vt 0.8471875786781311 0.5539000630378723 
vt 0.8477139472961426 0.549342155456543 
vt 0.8501352667808533 0.5518742799758911 
vt 0.8491877913475037 0.5474177002906799 
vt 0.8523460030555725 0.5491395592689514 
vt 0.8500300049781799 0.545189380645752 
vt 0.8535040616989136 0.5457971096038818 
vt 0.8501352667808533 0.5427584648132324 
vt 0.8536093235015869 0.5423533320426941 
vt 0.8495036363601685 0.540428876876831 
vt 0.8526618480682373 0.5389095544815063 
vt 0.8481350541114807 0.5384031534194946 
vt 0.8506616353988647 0.5360735058784485 
vt 0.8462401032447815 0.5368838310241699 
vt 0.847924530506134 0.5338452458381653 
vt 0.8439241051673889 0.5360735058784485 
vt 0.8445557355880737 0.5326297879219055 
vt 0.8415027856826782 0.5359722375869751 
vt 0.8410816788673401 0.5325285196304321 
vt 0.8391867876052856 0.5366812348365784 
vt 0.8377129435539246 0.5335413813591003 
vt 0.8353968858718872 0.06103750318288803 
vt 0.8396078944206238 0.06407611817121506 
vt 0.8602415919303894 0.04938950017094612 
vt 0.8597152233123779 0.05465642362833023 
vt 0.8602415919303894 0.04938950017094612 
vt 0.8396078944206238 0.06407611817121506 
vt 0.8268697261810303 0.8360856175422668 
vt 0.8558200597763062 0.09871626645326614 
vt 0.2341770976781845 0.853608250617981 
vt 0.22796592116355896 0.8594829440116882 
vt 0.21606996655464172 0.834262490272522 
vt 0.23217688500881195 0.83740234375 
vt 0.8387656807899475 0.7808842062950134 
vt 0.8297120928764343 0.7850369811058044 
s on 
f 1/1/1 2/2/2 3/3/3 
f 2/2/2 4/4/4 3/3/3 
f 3/3/3 4/4/4 4/4/4 
f 4/4/4 5/5/5 4/4/4 
f 4/4/4 5/5/5 5/5/5 
f 5/5/5 6/6/6 5/5/5 
f 5/5/5 6/6/6 7/7/7 
f 6/6/6 8/8/8 7/7/7 
f 7/7/7 8/8/8 8/8/8 
f 8/8/8 9/9/9 8/8/8 
f 8/8/8 9/9/9 9/9/9 
f 9/9/9 10/10/10 9/9/9 
f 9/9/9 10/10/10 11/11/11 
f 10/10/10 12/12/12 11/11/11 
f 11/11/11 12/12/12 12/12/12 
f 12/12/12 13/13/13 12/12/12 
f 12/12/12 13/13/13 13/13/13 
f 13/13/13 14/14/14 13/13/13 
f 13/13/13 14/14/14 15/15/15 
f 14/14/14 16/16/16 15/15/15 
f 15/15/15 16/16/16 16/16/16 
f 16/16/16 17/17/17 16/16/16 
f 16/16/16 17/17/17 17/17/17 
f 17/17/17 18/18/18 17/17/17 
f 17/17/17 18/18/18 19/19/19 
f 18/18/18 20/20/20 19/19/19 
f 19/19/19 20/20/20 21/21/21 
f 20/20/20 22/22/22 21/21/21 
f 21/21/21 22/22/22 23/23/23 
f 22/22/22 24/24/24 23/23/23 
f 23/23/23 24/24/24 25/25/25 
f 24/24/24 26/26/26 25/25/25 
f 25/25/25 26/26/26 27/27/27 
f 26/26/26 28/28/28 27/27/27 
f 27/27/27 28/28/28 28/28/28 
f 28/28/28 29/29/29 28/28/28 
f 28/28/28 29/29/29 29/29/29 
f 29/29/29 30/30/30 29/29/29 
f 29/29/29 30/30/30 31/31/31 
f 30/30/30 32/32/32 31/31/31 
f 31/31/31 32/32/32 32/32/32 
f 32/32/32 33/33/33 32/32/32 
f 32/32/32 33/33/33 33/33/33 
f 33/33/33 34/34/34 33/33/33 
f 33/33/33 34/34/34 35/35/35 
f 34/34/34 36/36/36 35/35/35 
f 35/35/35 36/36/36 36/36/36 
f 36/36/36 37/37/37 36/36/36 
f 36/36/36 37/37/37 37/37/37 
f 37/37/37 38/38/38 37/37/37 
f 37/37/37 38/38/38 39/39/39 
f 38/38/38 40/40/40 39/39/39 
f 39/39/39 40/40/40 40/40/40 
f 40/40/40 41/41/41 40/40/40 
f 40/40/40 41/41/41 41/41/41 
f 41/41/41 42/42/42 41/41/41 
f 41/41/41 42/42/42 43/43/43 
f 42/42/42 44/44/44 43/43/43 
f 43/43/43 44/44/44 44/44/44 
f 44/44/44 45/45/45 44/44/44 
f 44/44/44 45/45/45 45/45/45 
f 45/45/45 46/46/46 45/45/45 
f 45/45/45 46/46/46 47/47/47 
f 46/46/46 48/48/48 47/47/47 
f 47/47/47 48/48/48 48/48/48 
f 48/48/48 49/49/49 48/48/48 
f 48/48/48 49/49/49 49/49/49 
f 49/49/49 50/50/50 49/49/49 
f 49/49/49 50/50/50 51/51/51 
f 50/50/50 52/52/52 51/51/51 
f 51/51/51 52/52/52 52/52/52 
f 52/52/52 53/53/53 52/52/52 
f 52/52/52 53/53/53 53/53/53 
f 53/53/53 54/54/54 53/53/53 
f 53/53/53 54/54/54 55/55/55 
f 54/54/54 56/56/56 55/55/55 
f 55/55/55 56/56/56 56/56/56 
f 56/56/56 57/57/57 56/56/56 
f 56/56/56 57/57/57 57/57/57 
f 57/57/57 58/58/58 57/57/57 
f 57/57/57 58/58/58 59/59/59 
f 58/58/58 60/60/60 59/59/59 
f 59/59/59 60/60/60 61/61/61 
f 60/60/60 61/61/61 61/61/61 
f 61/61/61 61/61/61 62/62/62 
f 61/61/61 62/62/62 62/62/62 
f 62/62/62 62/62/62 62/62/62 
f 62/62/62 63/63/63 62/62/62 
f 62/62/62 63/63/63 64/64/64 
f 63/63/63 65/65/65 64/64/64 
f 64/64/64 65/65/65 65/65/65 
f 65/65/65 66/66/66 65/65/65 
f 65/65/65 66/66/66 66/66/66 
f 66/66/66 67/67/67 66/66/66 
f 66/66/66 67/67/67 68/68/68 
f 67/67/67 69/69/69 68/68/68 
f 68/68/68 69/69/69 69/69/69 
f 69/69/69 70/70/70 69/69/69 
f 69/69/69 70/70/70 70/70/70 
f 70/70/70 71/71/71 70/70/70 
f 70/70/70 71/71/71 72/72/72 
f 71/71/71 73/73/73 72/72/72 
f 72/72/72 73/73/73 74/74/74 
f 73/73/73 75/75/75 74/74/74 
f 74/74/74 75/75/75 76/76/76 
f 75/75/75 76/76/76 76/76/76 
f 76/76/76 76/76/76 74/74/74 
f 76/76/76 74/74/74 74/74/74 
f 74/74/74 74/74/74 74/74/74 
f 74/74/74 77/77/77 74/74/74 
f 74/74/74 77/77/77 72/72/72 
f 77/77/77 78/78/78 72/72/72 
f 72/72/72 78/78/78 79/79/79 
f 78/78/78 80/80/80 79/79/79 
f 79/79/79 80/80/80 80/80/80 
f 80/80/80 78/78/78 80/80/80 
f 80/80/80 78/78/78 78/78/78 
f 78/78/78 77/77/77 78/78/78 
f 78/78/78 77/77/77 81/81/81 
f 77/77/77 82/82/82 81/81/81 
f 81/81/81 82/82/82 82/82/82 
f 82/82/82 83/83/83 82/82/82 
f 82/82/82 83/83/83 83/83/83 
f 83/83/83 84/84/84 83/83/83 
f 83/83/83 84/84/84 85/85/85 
f 84/84/84 86/86/86 85/85/85 
f 85/85/85 86/86/86 86/86/86 
f 86/86/86 87/87/87 86/86/86 
f 86/86/86 87/87/87 87/87/87 
f 87/87/87 88/88/88 87/87/87 
f 87/87/87 88/88/88 89/89/89 
f 88/88/88 90/90/90 89/89/89 
f 89/89/89 90/90/90 90/90/90 
f 90/90/90 91/91/91 90/90/90 
f 90/90/90 91/91/91 91/91/91 
f 91/91/91 92/92/92 91/91/91 
f 91/91/91 92/92/92 93/93/93 
f 92/92/92 94/94/94 93/93/93 
f 93/93/93 94/94/94 94/94/94 
f 94/94/94 95/95/95 94/94/94 
f 94/94/94 95/95/95 95/95/95 
f 95/95/95 96/96/96 95/95/95 
f 95/95/95 96/96/96 97/97/97 
f 96/96/96 98/98/98 97/97/97 
f 97/97/97 98/98/98 98/98/98 
f 98/98/98 99/99/99 98/98/98 
f 98/98/98 99/99/99 99/99/99 
f 99/99/99 100/100/100 99/99/99 
f 99/99/99 100/100/100 101/101/101 
f 100/100/100 102/102/102 101/101/101 
f 101/101/101 102/102/102 102/102/102 
f 102/102/102 103/103/103 102/102/102 
f 102/102/102 103/103/103 103/103/103 
f 103/103/103 104/104/104 103/103/103 
f 103/103/103 104/104/104 105/105/105 
f 104/104/104 106/106/106 105/105/105 
f 105/105/105 106/106/106 106/106/106 
f 106/106/106 107/107/107 106/106/106 
f 106/106/106 107/107/107 107/107/107 
f 107/107/107 108/108/108 107/107/107 
f 107/107/107 108/108/108 109/109/109 
f 108/108/108 110/110/110 109/109/109 
f 109/109/109 110/110/110 110/110/110 
f 110/110/110 111/111/111 110/110/110 
f 110/110/110 111/111/111 111/111/111 
f 111/111/111 112/112/112 111/111/111 
f 111/111/111 112/112/112 113/113/113 
f 112/112/112 114/114/114 113/113/113 
f 113/113/113 114/114/114 114/114/114 
f 114/114/114 115/115/115 114/114/114 
f 114/114/114 115/115/115 115/115/115 
f 115/115/115 116/116/116 115/115/115 
f 115/115/115 116/116/116 117/117/117 
f 116/116/116 118/118/118 117/117/117 
f 117/117/117 118/118/118 118/118/118 
f 118/118/118 119/119/119 118/118/118 
f 118/118/118 119/119/119 119/119/119 
f 119/119/119 120/120/120 119/119/119 
f 119/119/119 120/120/120 121/121/121 
f 120/120/120 122/122/122 121/121/121 
f 121/121/121 122/122/122 122/122/122 
f 122/122/122 123/123/123 122/122/122 
f 122/122/122 123/123/123 123/123/123 
f 123/123/123 124/124/124 123/123/123 
f 123/123/123 124/124/124 125/125/125 
f 124/124/124 126/126/126 125/125/125 
f 125/125/125 126/126/126 126/126/126 
f 126/126/126 127/127/127 126/126/126 
f 126/126/126 127/127/127 127/127/127 
f 127/127/127 128/128/128 127/127/127 
f 127/127/127 128/128/128 129/129/129 
f 128/128/128 130/130/130 129/129/129 
f 129/129/129 130/130/130 130/130/130 
f 130/130/130 131/131/131 130/130/130 
f 130/130/130 131/131/131 131/131/131 
f 131/131/131 132/132/132 131/131/131 
f 131/131/131 132/132/132 133/133/133 
f 132/132/132 134/134/134 133/133/133 
f 133/133/133 134/134/134 135/135/135 
f 134/134/134 135/135/135 135/135/135 
f 135/135/135 135/135/135 136/136/136 
f 135/135/135 136/136/136 136/136/136 
f 136/136/136 136/136/136 136/136/136 
f 136/136/136 137/137/137 136/136/136 
f 136/136/136 137/137/137 138/138/138 
f 137/137/137 139/139/139 138/138/138 
f 138/138/138 139/139/139 139/139/139 
f 139/139/139 140/140/140 139/139/139 
f 139/139/139 140/140/140 140/140/140 
f 140/140/140 141/141/141 140/140/140 
f 140/140/140 141/141/141 142/142/142 
f 141/141/141 143/143/143 142/142/142 
f 142/142/142 143/143/143 143/143/143 
f 143/143/143 144/144/144 143/143/143 
f 143/143/143 144/144/144 144/144/144 
f 144/144/144 145/145/145 144/144/144 
f 144/144/144 145/145/145 146/146/146 
f 145/145/145 147/147/147 146/146/146 
f 146/146/146 147/147/147 147/147/147 
f 147/147/147 148/148/148 147/147/147 
f 147/147/147 148/148/148 148/148/148 
f 148/148/148 77/77/77 148/148/148 
f 148/148/148 77/77/77 149/149/149 
f 77/77/77 74/74/74 149/149/149 
f 149/149/149 74/74/74 150/150/150 
f 74/74/74 150/150/150 150/150/150 
f 150/150/150 150/150/150 151/151/151 
f 150/150/150 151/151/151 151/151/151 
f 151/151/151 151/151/151 151/151/151 
f 151/151/151 152/152/152 151/151/151 
f 151/151/151 152/152/152 153/153/153 
f 152/152/152 154/154/154 153/153/153 
f 153/153/153 154/154/154 154/154/154 
f 154/154/154 155/155/155 154/154/154 
f 154/154/154 155/155/155 155/155/155 
f 155/155/155 156/156/156 155/155/155 
f 155/155/155 156/156/156 157/157/157 
f 156/156/156 158/158/158 157/157/157 
f 157/157/157 158/158/158 158/158/158 
f 158/158/158 159/159/159 158/158/158 
f 158/158/158 159/159/159 159/159/159 
f 159/159/159 160/160/160 159/159/159 
f 159/159/159 160/160/160 161/161/161 
f 160/160/160 162/162/162 161/161/161 
f 161/161/161 162/162/162 162/162/162 
f 162/162/162 163/163/163 162/162/162 
f 162/162/162 163/163/163 163/163/163 
f 163/163/163 164/164/164 163/163/163 
f 163/163/163 164/164/164 165/165/165 
f 164/164/164 166/166/166 165/165/165 
f 165/165/165 166/166/166 166/166/166 
f 166/166/166 167/167/167 166/166/166 
f 166/166/166 167/167/167 167/167/167 
f 167/167/167 168/168/168 167/167/167 
f 167/167/167 168/168/168 169/169/169 
f 168/168/168 170/170/170 169/169/169 
f 169/169/169 170/170/170 170/170/170 
f 170/170/170 171/171/171 170/170/170 
f 170/170/170 171/171/171 171/171/171 
f 171/171/171 172/172/172 171/171/171 
f 171/171/171 172/172/172 173/173/173 
f 172/172/172 174/174/174 173/173/173 
f 173/173/173 174/174/174 174/174/174 
f 174/174/174 175/175/175 174/174/174 
f 174/174/174 175/175/175 175/175/175 
f 175/175/175 176/176/176 175/175/175 
f 175/175/175 176/176/176 177/177/177 
f 176/176/176 178/178/178 177/177/177 
f 177/177/177 178/178/178 179/179/179 
f 178/178/178 179/179/179 179/179/179 
f 179/179/179 179/179/179 176/176/176 
f 179/179/179 176/176/176 176/176/176 
f 176/176/176 176/176/176 176/176/176 
f 176/176/176 180/180/180 176/176/176 
f 176/176/176 180/180/180 178/178/178 
f 180/180/180 181/181/181 178/178/178 
f 178/178/178 181/181/181 182/182/182 
f 181/181/181 183/183/183 182/182/182 
f 182/182/182 183/183/183 184/184/184 
f 183/183/183 184/184/184 184/184/184 
f 184/184/184 184/184/184 178/178/178 
f 184/184/184 178/178/178 178/178/178 
f 178/178/178 178/178/178 178/178/178 
f 178/178/178 182/182/182 178/178/178 
f 178/178/178 182/182/182 185/185/185 
f 182/182/182 186/186/186 185/185/185 
f 185/185/185 186/186/186 186/186/186 
f 186/186/186 187/187/187 186/186/186 
f 186/186/186 187/187/187 187/187/187 
f 187/187/187 188/188/188 187/187/187 
f 187/187/187 188/188/188 189/189/189 
f 188/188/188 190/190/190 189/189/189 
f 189/189/189 190/190/190 190/190/190 
f 190/190/190 191/191/191 190/190/190 
f 190/190/190 191/191/191 191/191/191 
f 191/191/191 192/192/192 191/191/191 
f 191/191/191 192/192/192 193/193/193 
f 192/192/192 194/194/194 193/193/193 
f 193/193/193 194/194/194 194/194/194 
f 194/194/194 195/195/195 194/194/194 
f 194/194/194 195/195/195 195/195/195 
f 195/195/195 196/196/196 195/195/195 
f 195/195/195 196/196/196 197/197/197 
f 196/196/196 198/198/198 197/197/197 
f 197/197/197 198/198/198 198/198/198 
f 198/198/198 199/199/199 198/198/198 
f 198/198/198 199/199/199 199/199/199 
f 199/199/199 200/200/200 199/199/199 
f 199/199/199 200/200/200 201/201/201 
f 200/200/200 202/202/202 201/201/201 
f 201/201/201 202/202/202 202/202/202 
f 202/202/202 203/203/203 202/202/202 
f 202/202/202 203/203/203 203/203/203 
f 203/203/203 204/204/204 203/203/203 
f 203/203/203 204/204/204 205/205/205 
f 204/204/204 206/206/206 205/205/205 
f 205/205/205 206/206/206 206/206/206 
f 206/206/206 207/207/207 206/206/206 
f 206/206/206 207/207/207 207/207/207 
f 207/207/207 208/208/208 207/207/207 
f 207/207/207 208/208/208 209/209/209 
f 208/208/208 210/210/210 209/209/209 
f 209/209/209 210/210/210 211/211/211 
f 210/210/210 212/212/212 211/211/211 
f 211/211/211 212/212/212 213/213/213 
f 212/212/212 214/214/214 213/213/213 
f 213/213/213 214/214/214 215/215/215 
f 214/214/214 216/216/216 215/215/215 
f 215/215/215 216/216/216 217/217/217 
f 216/216/216 218/218/218 217/217/217 
f 217/217/217 218/218/218 218/218/218 
f 218/218/218 219/219/219 218/218/218 
f 218/218/218 219/219/219 219/219/219 
f 219/219/219 220/220/220 219/219/219 
f 219/219/219 220/220/220 221/221/221 
f 220/220/220 222/222/222 221/221/221 
f 221/221/221 222/222/222 223/223/223 
f 222/222/222 224/224/224 223/223/223 
f 223/223/223 224/224/224 225/225/225 
f 224/224/224 226/226/226 225/225/225 
f 225/225/225 226/226/226 227/227/227 
f 226/226/226 228/228/228 227/227/227 
f 227/227/227 228/228/228 229/229/229 
f 228/228/228 230/230/230 229/229/229 
f 229/229/229 230/230/230 230/230/230 
f 230/230/230 231/231/231 230/230/230 
f 230/230/230 231/231/231 231/231/231 
f 231/231/231 232/232/232 231/231/231 
f 231/231/231 232/232/232 233/233/233 
f 232/232/232 234/234/234 233/233/233 
f 233/233/233 234/234/234 234/234/234 
f 234/234/234 235/235/235 234/234/234 
f 234/234/234 235/235/235 235/235/235 
f 235/235/235 181/181/181 235/235/235 
f 235/235/235 181/181/181 236/236/236 
f 181/181/181 180/180/180 236/236/236 
f 236/236/236 180/180/180 237/237/237 
f 180/180/180 237/237/237 237/237/237 
f 237/237/237 237/237/237 238/238/238 
f 237/237/237 238/238/238 238/238/238 
f 238/238/238 238/238/238 238/238/238 
f 238/238/238 239/239/239 238/238/238 
f 238/238/238 239/239/239 240/240/240 
f 239/239/239 241/241/241 240/240/240 
f 240/240/240 241/241/241 241/241/241 
f 241/241/241 242/242/242 241/241/241 
f 241/241/241 242/242/242 242/242/242 
f 242/242/242 243/243/243 242/242/242 
f 242/242/242 243/243/243 244/244/244 
f 243/243/243 245/245/245 244/244/244 
f 244/244/244 245/245/245 245/245/245 
f 245/245/245 246/246/246 245/245/245 
f 245/245/245 246/246/246 246/246/246 
f 246/246/246 247/247/247 246/246/246 
f 246/246/246 247/247/247 248/248/248 
f 247/247/247 249/249/249 248/248/248 
f 248/248/248 249/249/249 249/249/249 
f 249/249/249 250/250/250 249/249/249 
f 249/249/249 250/250/250 250/250/250 
f 250/250/250 180/180/180 250/250/250 
f 250/250/250 180/180/180 251/251/251 
f 180/180/180 176/176/176 251/251/251 
f 251/251/251 176/176/176 252/252/252 
f 176/176/176 252/252/252 252/252/252 
f 252/252/252 252/252/252 253/253/253 
f 252/252/252 253/253/253 253/253/253 
f 253/253/253 253/253/253 253/253/253 
f 253/253/253 254/254/254 253/253/253 
f 253/253/253 254/254/254 255/255/255 
f 254/254/254 256/256/256 255/255/255 
f 255/255/255 256/256/256 256/256/256 
f 256/256/256 257/257/257 256/256/256 
f 256/256/256 257/257/257 257/257/257 
f 257/257/257 258/258/258 257/257/257 
f 257/257/257 258/258/258 259/259/259 
f 258/258/258 260/260/260 259/259/259 
f 259/259/259 260/260/260 260/260/260 
f 260/260/260 261/261/261 260/260/260 
f 260/260/260 261/261/261 261/261/261 
f 261/261/261 262/262/262 261/261/261 
f 261/261/261 262/262/262 263/263/263 
f 262/262/262 264/264/264 263/263/263 
f 263/263/263 264/264/264 264/264/264 
f 264/264/264 265/265/265 264/264/264 
f 264/264/264 265/265/265 265/265/265 
f 265/265/265 266/266/266 265/265/265 
f 265/265/265 266/266/266 267/267/267 
f 266/266/266 268/268/268 267/267/267 
f 267/267/267 268/268/268 268/268/268 
f 268/268/268 269/269/269 268/268/268 
f 268/268/268 269/269/269 269/269/269 
f 269/269/269 270/270/270 269/269/269 
f 269/269/269 270/270/270 271/271/271 
f 270/270/270 272/272/272 271/271/271 
f 271/271/271 272/272/272 273/273/273 
f 272/272/272 274/274/274 273/273/273 
f 273/273/273 274/274/274 275/275/275 
f 274/274/274 276/276/276 275/275/275 
f 275/275/275 276/276/276 277/277/277 
f 276/276/276 278/278/278 277/277/277 
f 277/277/277 278/278/278 279/279/279 
f 278/278/278 280/280/280 279/279/279 
f 279/279/279 280/280/280 280/280/280 
f 280/280/280 281/281/281 280/280/280 
f 280/280/280 281/281/281 281/281/281 
f 281/281/281 282/282/282 281/281/281 
f 281/281/281 282/282/282 283/283/283 
f 282/282/282 284/284/284 283/283/283 
f 283/283/283 284/284/284 284/284/284 
f 284/284/284 285/285/285 284/284/284 
f 284/284/284 285/285/285 285/285/285 
f 285/285/285 286/286/286 285/285/285 
f 285/285/285 286/286/286 287/287/287 
f 286/286/286 288/288/288 287/287/287 
f 287/287/287 288/288/288 288/288/288 
f 288/288/288 289/289/289 288/288/288 
f 288/288/288 289/289/289 289/289/289 
f 289/289/289 290/290/290 289/289/289 
f 289/289/289 290/290/290 291/291/291 
f 290/290/290 292/292/292 291/291/291 
f 291/291/291 292/292/292 292/292/292 
f 292/292/292 293/293/293 292/292/292 
f 292/292/292 293/293/293 293/293/293 
f 293/293/293 294/294/294 293/293/293 
f 293/293/293 294/294/294 295/295/295 
f 294/294/294 296/296/296 295/295/295 
f 295/295/295 296/296/296 296/296/296 
f 296/296/296 297/297/297 296/296/296 
f 296/296/296 297/297/297 297/297/297 
f 297/297/297 298/298/298 297/297/297 
f 297/297/297 298/298/298 299/299/299 
f 298/298/298 300/300/300 299/299/299 
f 299/299/299 300/300/300 301/301/301 
f 300/300/300 302/302/302 301/301/301 
f 301/301/301 302/302/302 303/303/303 
f 302/302/302 304/304/304 303/303/303 
f 303/303/303 304/304/304 305/305/305 
f 304/304/304 306/306/306 305/305/305 
f 305/305/305 306/306/306 307/307/307 
f 306/306/306 308/308/308 307/307/307 
f 307/307/307 308/308/308 309/309/309 
f 308/308/308 310/310/310 309/309/309 
f 309/309/309 310/310/310 311/311/311 
f 310/310/310 312/312/312 311/311/311 
f 311/311/311 312/312/312 313/313/313 
f 312/312/312 314/314/314 313/313/313 
f 313/313/313 314/314/314 315/315/315 
f 314/314/314 316/316/316 315/315/315 
f 315/315/315 316/316/316 317/317/317 
f 316/316/316 318/318/318 317/317/317 
f 317/317/317 318/318/318 319/319/319 
f 318/318/318 320/320/320 319/319/319 
f 319/319/319 320/320/320 321/321/321 
f 320/320/320 322/322/322 321/321/321 
f 321/321/321 322/322/322 323/323/323 
f 322/322/322 324/324/324 323/323/323 
f 323/323/323 324/324/324 325/325/325 
f 324/324/324 326/326/326 325/325/325 
f 325/325/325 326/326/326 327/327/327 
f 326/326/326 328/328/328 327/327/327 
f 327/327/327 328/328/328 329/329/329 
f 328/328/328 330/330/330 329/329/329 
f 329/329/329 330/330/330 331/331/331 
f 330/330/330 332/332/332 331/331/331 
f 331/331/331 332/332/332 333/333/333 
f 332/332/332 334/334/334 333/333/333 
f 333/333/333 334/334/334 335/335/335 
f 334/334/334 336/336/336 335/335/335 
f 335/335/335 336/336/336 297/297/297 
f 336/336/336 298/298/298 297/297/297 
f 337/337/337 338/338/338 339/339/339 
f 340/340/340 341/341/341 342/342/342 
f 60/60/60 58/58/58 343/343/343 
f 344/344/344 134/134/134 132/132/132 
f 345/345/345 73/73/73 71/71/71 
f 346/346/346 75/75/75 73/73/73 
f 347/347/347 78/78/78 81/81/81 
f 348/348/348 72/72/72 79/79/79 
f 349/349/349 183/183/183 181/181/181 
f 350/350/350 178/178/178 185/185/185 

