mtllib model_2.mtl
o model_2
v 1632.708251953125 287.497314453125 1075.02001953125 
v 3069.98291015625 374.69476318359375 1075.02001953125 
v 1632.708251953125 -24.99992561340332 1075.02001953125 
v 3069.98291015625 -24.99992561340332 1075.02001953125 
v 4574.94921875 976.2142333984375 69.99746704101562 
v 4574.94921875 1174.9993896484375 -749.985107421875 
v 4574.94921875 874.990478515625 69.99748229980469 
v 4574.94921875 874.9903564453125 -749.9850463867188 
v 1367.1927490234375 -24.99992561340332 1075.02001953125 
v -69.93990325927734 -24.99992561340332 1075.02001953125 
v 1367.1927490234375 287.497314453125 1075.02001953125 
v -69.93990325927734 374.69476318359375 1075.02001953125 
v 4571.54345703125 -25.000356674194336 -1574.739013671875 
v 4572.96240234375 -25.000356674194336 -1574.0111083984375 
v 4571.54345703125 374.9873352050781 -1574.739013671875 
v 4572.96240234375 374.9873352050781 -1574.01123046875 
v 4569.98193359375 -25.000356674194336 -1574.981689453125 
v 4571.54345703125 -25.000356674194336 -1574.739013671875 
v 4569.98193359375 374.9873352050781 -1574.981689453125 
v 4571.54345703125 374.9873352050781 -1574.739013671875 
v -75.04869842529297 880.0073852539062 -1574.9818115234375 
v -75.04869842529297 975.00537109375 -1574.9818115234375 
v -75.04869842529297 874.990234375 -1569.967529296875 
v -75.04869842529297 874.9902954101562 -1100.0081787109375 
v 4571.54345703125 374.9875793457031 74.76898956298828 
v 4572.96240234375 374.9875793457031 74.04114532470703 
v 4571.54345703125 -25.00008773803711 74.76905059814453 
v 4572.96240234375 -25.00008773803711 74.04120635986328 
v 1367.1927490234375 287.497314453125 1075.02001953125 
v -69.93990325927734 374.69476318359375 1075.02001953125 
v 1374.9979248046875 475.0029602050781 1075.02001953125 
v -69.93990325927734 475.0029602050781 1075.02001953125 
v -75.04869842529297 880.0076904296875 75.01152038574219 
v -75.04869842529297 874.990478515625 69.99748229980469 
v -75.04869842529297 975.0056762695312 75.01150512695312 
v -75.04869842529297 1174.9993896484375 -749.985107421875 
v 4569.98193359375 475.0025329589844 -1574.981689453125 
v 4569.98193359375 575.0177612304688 -1574.981689453125 
v 4377.9765625 475.0025329589844 -1574.981689453125 
v 4377.9765625 570.00048828125 -1574.981689453125 
v -75.04869842529297 874.9904174804688 -399.96197509765625 
v -75.04869842529297 874.990478515625 69.99748229980469 
v -75.04869842529297 575.0180053710938 -399.9619140625 
v -75.04869842529297 575.01806640625 69.99752807617188 
v -75.04869842529297 870.0098266601562 75.01152038574219 
v -75.04869842529297 579.9986572265625 75.01156616210938 
v -75.04869842529297 374.9875793457031 100.00187683105469 
v -75.04869842529297 374.9875183105469 -399.9618835449219 
v -75.04869842529297 475.0028076171875 75.01158905029297 
v -75.04869842529297 475.0027160644531 -399.9619140625 
v 4574.09765625 -25.00008773803711 72.90900421142578 
v 4572.96240234375 -25.00008773803711 74.04120635986328 
v 4574.09765625 374.9875793457031 72.90894317626953 
v 4572.96240234375 374.9875793457031 74.04114532470703 
v 4574.09765625 475.0028076171875 72.90892791748047 
v 4572.96240234375 475.0028076171875 74.04113006591797 
v -75.04869842529297 575.0178833007812 -1100.0081787109375 
v -75.04869842529297 575.0177612304688 -1569.967529296875 
v -75.04869842529297 874.9902954101562 -1100.0081787109375 
v -75.04869842529297 874.990234375 -1569.967529296875 
v -75.04869842529297 870.0095825195312 -1574.9818115234375 
v -75.04869842529297 579.9984130859375 -1574.981689453125 
v -75.04869842529297 874.9903564453125 -749.9850463867188 
v -75.04869842529297 874.9904174804688 -399.96197509765625 
v -75.04869842529297 575.0179443359375 -749.9849853515625 
v -75.04869842529297 575.0180053710938 -399.9619140625 
v -75.04869842529297 475.0027160644531 -399.9619140625 
v -75.04869842529297 475.0026550292969 -749.9849853515625 
v -75.04869842529297 374.9875183105469 -399.9618835449219 
v -75.04869842529297 374.9874572753906 -749.9849853515625 
v -75.04869842529297 475.0025939941406 -1100.008056640625 
v -75.04869842529297 575.0178833007812 -1100.0081787109375 
v 4377.9765625 570.0007934570312 75.0115737915039 
v 4377.9765625 475.0028076171875 75.01158905029297 
v 3098.790771484375 570.0007934570312 75.0115737915039 
v 3074.94970703125 475.0028076171875 75.01158905029297 
v 3074.94970703125 374.9875793457031 75.01160430908203 
v 4377.9765625 374.9875793457031 75.01160430908203 
v 3074.94970703125 -25.00008773803711 75.01166534423828 
v 4377.9765625 -25.00008773803711 75.01166534423828 
v 4569.98193359375 475.0028076171875 75.01158905029297 
v 4569.98193359375 374.9875793457031 75.01160430908203 
v 4569.98193359375 -25.00008773803711 75.01166534423828 
v 3069.98291015625 374.69476318359375 1075.02001953125 
v 3071.5439453125 374.80462646484375 1074.77734375 
v 3069.98291015625 -24.99992561340332 1075.02001953125 
v 3071.5439453125 -24.99992561340332 1074.7774658203125 
v 4574.80712890625 874.990478515625 71.53404235839844 
v 4574.09765625 874.990478515625 72.90885925292969 
v 4574.80712890625 975.8480224609375 71.53402709960938 
v 4574.09765625 975.4818115234375 72.90884399414062 
v 4569.98193359375 475.0025329589844 -1574.981689453125 
v 4571.54345703125 475.0025329589844 -1574.7391357421875 
v 4569.98193359375 575.0177612304688 -1574.981689453125 
v 4571.54345703125 575.0177612304688 -1574.7391357421875 
v 4574.80712890625 475.0025329589844 -1571.5849609375 
v 4574.94921875 475.0025329589844 -1569.967529296875 
v 4574.80712890625 575.0177612304688 -1571.5849609375 
v 4574.94921875 575.0177612304688 -1569.967529296875 
v 4572.96240234375 475.0028076171875 74.04113006591797 
v 4571.54345703125 475.0028076171875 74.76897430419922 
v 4572.96240234375 575.01806640625 74.04110717773438 
v 4571.54345703125 575.01806640625 74.76895141601562 
v 4572.96240234375 575.01806640625 74.04110717773438 
v 4574.09765625 575.01806640625 72.90890502929688 
v 4572.96240234375 475.0028076171875 74.04113006591797 
v 4574.09765625 475.0028076171875 72.90892791748047 
v 4574.80712890625 575.01806640625 71.53408813476562 
v 4574.94921875 575.01806640625 69.99752807617188 
v 4574.80712890625 475.0028076171875 71.53411102294922 
v 4574.94921875 475.0028076171875 69.99755096435547 
v 4574.80712890625 374.9875793457031 71.53412628173828 
v 4574.94921875 374.9875793457031 69.99756622314453 
v 4574.80712890625 -25.00008773803711 71.53418731689453 
v 4574.94921875 -25.000089645385742 69.99762725830078 
v 4574.09765625 575.0177612304688 -1572.9598388671875 
v 4572.96240234375 575.0177612304688 -1574.01123046875 
v 4574.09765625 475.0025329589844 -1572.9598388671875 
v 4572.96240234375 475.0025329589844 -1574.01123046875 
v -72.92003631591797 374.8778991699219 1074.049560546875 
v -71.50092315673828 374.80462646484375 1074.77734375 
v -72.92003631591797 -24.99992561340332 1074.049560546875 
v -71.50092315673828 -24.99992561340332 1074.7774658203125 
v -74.76487731933594 374.9877624511719 1071.5423583984375 
v -74.0553207397461 374.9511413574219 1072.9171142578125 
v -74.76487731933594 -24.99992561340332 1071.5423583984375 
v -74.0553207397461 -24.99992561340332 1072.917236328125 
v 4569.98193359375 575.01806640625 75.01156616210938 
v 4571.54345703125 575.01806640625 74.76895141601562 
v 4569.98193359375 475.0028076171875 75.01158905029297 
v 4571.54345703125 475.0028076171875 74.76897430419922 
v 4569.98193359375 374.9875793457031 75.01160430908203 
v 4571.54345703125 374.9875793457031 74.76898956298828 
v 4569.98193359375 -25.00008773803711 75.01166534423828 
v 4571.54345703125 -25.00008773803711 74.76905059814453 
v 3074.09814453125 374.9511413574219 1072.9171142578125 
v 3074.807861328125 374.9877624511719 1071.5423583984375 
v 3074.09814453125 -24.99992561340332 1072.917236328125 
v 3074.807861328125 -24.99992561340332 1071.5423583984375 
v 4572.96240234375 874.990234375 -1574.01123046875 
v 4574.09765625 874.990234375 -1572.9599609375 
v 4572.96240234375 975.2252197265625 -1574.0113525390625 
v 4574.09765625 975.4815673828125 -1572.9599609375 
v 4574.94921875 874.990478515625 69.99748229980469 
v 4574.80712890625 874.990478515625 71.53404235839844 
v 4574.94921875 976.2142333984375 69.99746704101562 
v 4574.80712890625 975.8480224609375 71.53402709960938 
v 3072.962890625 374.8778991699219 1074.049560546875 
v 3074.09814453125 374.9511413574219 1072.9171142578125 
v 3072.962890625 -24.99992561340332 1074.049560546875 
v 3074.09814453125 -24.99992561340332 1072.917236328125 
v 4574.94921875 874.990234375 -1569.967529296875 
v 4574.80712890625 874.990234375 -1571.5850830078125 
v 4574.94921875 575.0177612304688 -1569.967529296875 
v 4574.80712890625 575.0177612304688 -1571.5849609375 
v -75.04869842529297 374.9877624511719 1070.0057373046875 
v -74.76487731933594 374.9877624511719 1071.5423583984375 
v -75.04869842529297 -24.99992561340332 1070.005859375 
v -74.76487731933594 -24.99992561340332 1071.5423583984375 
v -75.04869842529297 475.0028076171875 75.01158905029297 
v -75.04869842529297 475.0029602050781 1070.0057373046875 
v -75.04869842529297 374.9875793457031 100.00187683105469 
v -75.04869842529297 374.9877624511719 1070.0057373046875 
v -75.04869842529297 -24.99992561340332 1070.005859375 
v -75.04869842529297 -25.000083923339844 100.00193786621094 
v -75.04869842529297 374.9877624511719 1070.0057373046875 
v -75.04869842529297 374.9875793457031 100.00187683105469 
v 3074.94970703125 -24.99992561340332 1070.005859375 
v 3074.807861328125 -24.99992561340332 1071.5423583984375 
v 3074.94970703125 374.9877624511719 1070.0057373046875 
v 3074.807861328125 374.9877624511719 1071.5423583984375 
v 4574.09765625 374.9873352050781 -1572.9598388671875 
v 4572.96240234375 374.9873352050781 -1574.01123046875 
v 4574.09765625 -25.000356674194336 -1572.9598388671875 
v 4572.96240234375 -25.000356674194336 -1574.0111083984375 
v 4574.80712890625 975.8477783203125 -1571.5850830078125 
v 4574.09765625 975.4815673828125 -1572.9599609375 
v 4574.80712890625 874.990234375 -1571.5850830078125 
v 4574.09765625 874.990234375 -1572.9599609375 
v 4574.80712890625 374.9873352050781 -1571.5849609375 
v 4574.09765625 374.9873352050781 -1572.9598388671875 
v 4574.80712890625 -25.000356674194336 -1571.5849609375 
v 4574.09765625 -25.000356674194336 -1572.9598388671875 
v -69.93990325927734 374.69476318359375 1075.02001953125 
v -71.50092315673828 374.80462646484375 1074.77734375 
v -69.93990325927734 475.0029602050781 1075.02001953125 
v -71.50092315673828 475.0029602050781 1074.77734375 
v -71.50092315673828 374.80462646484375 1074.77734375 
v -72.92003631591797 374.8778991699219 1074.049560546875 
v -71.50092315673828 475.0029602050781 1074.77734375 
v -72.92003631591797 475.0029602050781 1074.049560546875 
v -72.92003631591797 374.8778991699219 1074.049560546875 
v -74.0553207397461 374.9511413574219 1072.9171142578125 
v -72.92003631591797 475.0029602050781 1074.049560546875 
v -74.0553207397461 475.0029602050781 1072.9171142578125 
v -74.0553207397461 374.9511413574219 1072.9171142578125 
v -74.76487731933594 374.9877624511719 1071.5423583984375 
v -74.0553207397461 475.0029602050781 1072.9171142578125 
v -74.76487731933594 475.0029602050781 1071.5423583984375 
v -74.76487731933594 374.9877624511719 1071.5423583984375 
v -75.04869842529297 374.9877624511719 1070.0057373046875 
v -74.76487731933594 475.0029602050781 1071.5423583984375 
v -75.04869842529297 475.0029602050781 1070.0057373046875 
v 3074.94970703125 374.9877624511719 1070.0057373046875 
v 3074.807861328125 374.9877624511719 1071.5423583984375 
v 3074.94970703125 475.0029602050781 1070.0057373046875 
v 3074.807861328125 475.0029602050781 1071.5423583984375 
v -75.04869842529297 570.00048828125 -1574.981689453125 
v -75.04869842529297 575.0177612304688 -1569.967529296875 
v -75.04869842529297 475.0025329589844 -1574.981689453125 
v -75.04869842529297 575.0178833007812 -1100.0081787109375 
v -75.04869842529297 475.0025939941406 -1100.008056640625 
v 3074.09814453125 374.9511413574219 1072.9171142578125 
v 3072.962890625 374.8778991699219 1074.049560546875 
v 3074.09814453125 475.0029602050781 1072.9171142578125 
v 3072.962890625 475.0029602050781 1074.049560546875 
v 4572.96240234375 575.0177612304688 -1574.01123046875 
v 4574.09765625 575.0177612304688 -1572.9598388671875 
v 4572.96240234375 874.990234375 -1574.01123046875 
v 4574.09765625 874.990234375 -1572.9599609375 
v 4574.09765625 575.0177612304688 -1572.9598388671875 
v 4574.80712890625 575.0177612304688 -1571.5849609375 
v 4574.09765625 874.990234375 -1572.9599609375 
v 4574.80712890625 874.990234375 -1571.5850830078125 
v 4574.80712890625 874.990478515625 71.53404235839844 
v 4574.94921875 874.990478515625 69.99748229980469 
v 4574.80712890625 575.01806640625 71.53408813476562 
v 4574.94921875 575.01806640625 69.99752807617188 
v 4572.96240234375 374.9875793457031 74.04114532470703 
v 4571.54345703125 374.9875793457031 74.76898956298828 
v 4572.96240234375 475.0028076171875 74.04113006591797 
v 4571.54345703125 475.0028076171875 74.76897430419922 
v -75.04869842529297 -25.000083923339844 100.00193786621094 
v -75.04869842529297 -25.000165939331055 -399.9618225097656 
v -75.04869842529297 374.9875793457031 100.00187683105469 
v -75.04869842529297 374.9875183105469 -399.9618835449219 
v 4569.98193359375 374.9873352050781 -1574.981689453125 
v 4571.54345703125 374.9873352050781 -1574.739013671875 
v 4569.98193359375 475.0025329589844 -1574.981689453125 
v 4571.54345703125 475.0025329589844 -1574.7391357421875 
v 4571.54345703125 374.9873352050781 -1574.739013671875 
v 4572.96240234375 374.9873352050781 -1574.01123046875 
v 4571.54345703125 475.0025329589844 -1574.7391357421875 
v 4572.96240234375 475.0025329589844 -1574.01123046875 
v 4572.96240234375 374.9873352050781 -1574.01123046875 
v 4574.09765625 374.9873352050781 -1572.9598388671875 
v 4572.96240234375 475.0025329589844 -1574.01123046875 
v 4574.09765625 475.0025329589844 -1572.9598388671875 
v 4574.09765625 374.9873352050781 -1572.9598388671875 
v 4574.80712890625 374.9873352050781 -1571.5849609375 
v 4574.09765625 475.0025329589844 -1572.9598388671875 
v 4574.80712890625 475.0025329589844 -1571.5849609375 
v 4574.80712890625 374.9873352050781 -1571.5849609375 
v 4574.94921875 374.9873352050781 -1569.967529296875 
v 4574.80712890625 475.0025329589844 -1571.5849609375 
v 4574.94921875 475.0025329589844 -1569.967529296875 
v -69.93990325927734 -24.99992561340332 1075.02001953125 
v -71.50092315673828 -24.99992561340332 1074.7774658203125 
v -69.93990325927734 374.69476318359375 1075.02001953125 
v -71.50092315673828 374.80462646484375 1074.77734375 
v 3069.98291015625 374.69476318359375 1075.02001953125 
v 1632.708251953125 287.497314453125 1075.02001953125 
v 3069.98291015625 475.0029602050781 1075.02001953125 
v 1625.0450439453125 475.0029602050781 1075.02001953125 
v -75.04869842529297 575.0180053710938 -399.9619140625 
v -75.04869842529297 575.01806640625 69.99752807617188 
v -75.04869842529297 475.0027160644531 -399.9619140625 
v -75.04869842529297 570.0007934570312 75.0115737915039 
v -75.04869842529297 475.0028076171875 75.01158905029297 
v 4377.9765625 475.0028076171875 75.01158905029297 
v 4377.9765625 570.0007934570312 75.0115737915039 
v 4569.98193359375 475.0028076171875 75.01158905029297 
v 4569.98193359375 575.01806640625 75.01156616210938 
v 4574.80712890625 874.990234375 -1571.5850830078125 
v 4574.94921875 874.990234375 -1569.967529296875 
v 4574.80712890625 975.8477783203125 -1571.5850830078125 
v 4574.94921875 976.2139892578125 -1569.9676513671875 
v 4571.54345703125 475.0025329589844 -1574.7391357421875 
v 4572.96240234375 475.0025329589844 -1574.01123046875 
v 4571.54345703125 575.0177612304688 -1574.7391357421875 
v 4572.96240234375 575.0177612304688 -1574.01123046875 
v 4574.94921875 874.990234375 -1569.967529296875 
v 4574.94921875 874.9903564453125 -749.9850463867188 
v 4574.94921875 976.2139892578125 -1569.9676513671875 
v 4574.94921875 1174.9993896484375 -749.985107421875 
v 4377.9765625 -25.000356674194336 -1574.981689453125 
v 4377.9765625 374.9873352050781 -1574.981689453125 
v -75.04869842529297 -25.000356674194336 -1574.981689453125 
v -75.04869842529297 374.9873352050781 -1574.981689453125 
v 3074.94970703125 -25.00008773803711 75.01166534423828 
v 3074.94970703125 -24.99992561340332 1070.005859375 
v 3074.94970703125 374.9875793457031 75.01160430908203 
v 3074.94970703125 374.9877624511719 1070.0057373046875 
v 3074.94970703125 475.0028076171875 75.01158905029297 
v 3074.94970703125 475.0029602050781 1070.0057373046875 
v -75.04869842529297 374.9873352050781 -1574.981689453125 
v -75.04869842529297 374.9873962402344 -1100.008056640625 
v -75.04869842529297 -25.000356674194336 -1574.981689453125 
v -75.04869842529297 -25.00027847290039 -1100.008056640625 
v 3074.807861328125 374.9877624511719 1071.5423583984375 
v 3074.09814453125 374.9511413574219 1072.9171142578125 
v 3074.807861328125 475.0029602050781 1071.5423583984375 
v 3074.09814453125 475.0029602050781 1072.9171142578125 
v -75.04869842529297 570.00048828125 -1574.981689453125 
v -75.04869842529297 475.0025329589844 -1574.981689453125 
v 4377.9765625 570.00048828125 -1574.981689453125 
v 4377.9765625 475.0025329589844 -1574.981689453125 
v 3071.5439453125 374.80462646484375 1074.77734375 
v 3069.98291015625 374.69476318359375 1075.02001953125 
v 3071.5439453125 475.0029602050781 1074.77734375 
v 3069.98291015625 475.0029602050781 1075.02001953125 
v -75.04869842529297 874.9902954101562 -1100.0081787109375 
v -75.04869842529297 874.9903564453125 -749.9850463867188 
v -75.04869842529297 575.0178833007812 -1100.0081787109375 
v -75.04869842529297 575.0179443359375 -749.9849853515625 
v 3071.5439453125 374.80462646484375 1074.77734375 
v 3072.962890625 374.8778991699219 1074.049560546875 
v 3071.5439453125 -24.99992561340332 1074.7774658203125 
v 3072.962890625 -24.99992561340332 1074.049560546875 
v 4574.09765625 575.01806640625 72.90890502929688 
v 4574.80712890625 575.01806640625 71.53408813476562 
v 4574.09765625 475.0028076171875 72.90892791748047 
v 4574.80712890625 475.0028076171875 71.53411102294922 
v 4574.09765625 374.9875793457031 72.90894317626953 
v 4574.80712890625 374.9875793457031 71.53412628173828 
v 4574.09765625 -25.00008773803711 72.90900421142578 
v 4574.80712890625 -25.00008773803711 71.53418731689453 
v 4574.80712890625 -25.000356674194336 -1571.5849609375 
v 4574.94921875 -25.000356674194336 -1569.9674072265625 
v 4574.80712890625 374.9873352050781 -1571.5849609375 
v 4574.94921875 374.9873352050781 -1569.967529296875 
v 4569.98193359375 -25.000356674194336 -1574.981689453125 
v 4569.98193359375 374.9873352050781 -1574.981689453125 
v 4377.9765625 -25.000356674194336 -1574.981689453125 
v 4377.9765625 374.9873352050781 -1574.981689453125 
v 4377.9765625 374.9873352050781 -1574.981689453125 
v 4377.9765625 475.0025329589844 -1574.981689453125 
v -75.04869842529297 374.9873352050781 -1574.981689453125 
v -75.04869842529297 475.0025329589844 -1574.981689453125 
v 4574.94921875 -25.000356674194336 -1569.9674072265625 
v 4574.94921875 -25.00022315979004 -749.9849243164062 
v 4574.94921875 374.9873352050781 -1569.967529296875 
v 4574.94921875 374.9874572753906 -749.9849853515625 
v 4574.94921875 475.0025329589844 -1569.967529296875 
v 4574.94921875 475.0026550292969 -749.9849853515625 
v 4574.94921875 575.0179443359375 -749.9849853515625 
v 4574.94921875 575.01806640625 69.99752807617188 
v 4574.94921875 874.9903564453125 -749.9850463867188 
v 4574.94921875 874.990478515625 69.99748229980469 
v 4574.94921875 -25.000089645385742 69.99762725830078 
v 4574.94921875 374.9875793457031 69.99756622314453 
v 4574.94921875 475.0028076171875 69.99755096435547 
v 4377.9765625 475.0025329589844 -1574.981689453125 
v 4377.9765625 374.9873352050781 -1574.981689453125 
v 4569.98193359375 475.0025329589844 -1574.981689453125 
v 4569.98193359375 374.9873352050781 -1574.981689453125 
v -75.04869842529297 374.9873962402344 -1100.008056640625 
v -75.04869842529297 374.9873352050781 -1574.981689453125 
v -75.04869842529297 475.0025939941406 -1100.008056640625 
v -75.04869842529297 475.0025329589844 -1574.981689453125 
v 4574.94921875 874.990234375 -1569.967529296875 
v 4574.94921875 575.0177612304688 -1569.967529296875 
v -72.92003631591797 -24.99992561340332 1074.049560546875 
v -74.0553207397461 -24.99992561340332 1072.917236328125 
v -72.92003631591797 374.8778991699219 1074.049560546875 
v -74.0553207397461 374.9511413574219 1072.9171142578125 
v 3071.5439453125 475.0029602050781 1074.77734375 
v 3072.962890625 475.0029602050781 1074.049560546875 
v 3071.5439453125 374.80462646484375 1074.77734375 
v 3072.962890625 374.8778991699219 1074.049560546875 
v 1374.9979248046875 475.0029602050781 1075.02001953125 
v 1625.0450439453125 475.0029602050781 1075.02001953125 
v 1367.1927490234375 287.497314453125 1075.02001953125 
v 1632.708251953125 287.497314453125 1075.02001953125 
v 4574.80712890625 575.01806640625 71.53408813476562 
v 4574.09765625 575.01806640625 72.90890502929688 
v 4574.80712890625 874.990478515625 71.53404235839844 
v 4574.09765625 874.990478515625 72.90885925292969 
v 4574.09765625 475.0025329589844 -1572.9598388671875 
v 4574.80712890625 475.0025329589844 -1571.5849609375 
v 4574.09765625 575.0177612304688 -1572.9598388671875 
v 4574.80712890625 575.0177612304688 -1571.5849609375 
v -75.04869842529297 874.9903564453125 -749.9850463867188 
v -75.04869842529297 1174.9993896484375 -749.985107421875 
v -75.04869842529297 874.9904174804688 -399.96197509765625 
v -75.04869842529297 874.9902954101562 -1100.0081787109375 
v -75.04869842529297 1174.9993896484375 -749.985107421875 
v -75.04869842529297 874.9903564453125 -749.9850463867188 
v -75.04869842529297 374.9873962402344 -1100.008056640625 
v 4382.943359375 575.01806640625 75.01156616210938 
v 4382.943359375 575.0177612304688 -1574.981689453125 
v -75.04869842529297 874.9904174804688 -399.96197509765625 
v -75.04869842529297 1174.9993896484375 -749.985107421875 
vn -1.0341130909078582e-15 0.000021845313312951475 -0.009999976493418217 
vn -1.0341130909078582e-15 0.000021845313312951475 -0.009999976493418217 
vn -1.0341130909078582e-15 0.000021845313312951475 -0.009999976493418217 
vn -1.0341130909078582e-15 0.000021845313312951475 -0.009999976493418217 
vn -0.009999976493418217 0.00002184694130846765 -3.557257353264953e-12 
vn -0.009999976493418217 0.00002184694130846765 -3.557257353264953e-12 
vn -0.009999976493418217 0.00002184694130846765 -3.557257353264953e-12 
vn -0.009999976493418217 0.00002184694130846765 -3.557257353264953e-12 
vn -1.0341130909078582e-15 -0.000021848571122973226 -0.009999976493418217 
vn -1.0341130909078582e-15 -0.000021848571122973226 -0.009999976493418217 
vn -1.0341130909078582e-15 -0.000021848571122973226 -0.009999976493418217 
vn -1.0341130909078582e-15 -0.000021848571122973226 -0.009999976493418217 
vn -0.004512958228588104 0.000021848394681001082 0.008923716843128204 
vn -0.004512958228588104 0.000021848394681001082 0.008923716843128204 
vn -0.004512958228588104 0.000021848394681001082 0.008923716843128204 
vn -0.004512958228588104 0.000021848394681001082 0.008923716843128204 
vn -0.0015792569611221552 0.000021848551114089787 0.009874485433101654 
vn -0.0015792569611221552 0.000021848551114089787 0.009874485433101654 
vn -0.0015792569611221552 0.000021848551114089787 0.009874485433101654 
vn -0.0015792569611221552 0.000021848551114089787 0.009874485433101654 
vn 0.009999976493418217 0.00002184694130846765 -3.5593255773291865e-12 
vn 0.009999976493418217 0.00002184694130846765 -3.5593255773291865e-12 
vn 0.009999976493418217 0.00002184694130846765 -3.5593255773291865e-12 
vn 0.009999976493418217 0.00002184694130846765 -3.5593255773291865e-12 
vn -0.004512958228588104 0.000021845487935934216 -0.008923716843128204 
vn -0.004512958228588104 0.000021845487935934216 -0.008923716843128204 
vn -0.004512958228588104 0.000021845487935934216 -0.008923716843128204 
vn -0.004512958228588104 0.000021845487935934216 -0.008923716843128204 
vn -1.0341130909078582e-15 -0.000021848571122973226 -0.009999976493418217 
vn -1.0341130909078582e-15 -0.000021848571122973226 -0.009999976493418217 
vn -1.0341130909078582e-15 -0.000021848571122973226 -0.009999976493418217 
vn -1.0341130909078582e-15 -0.000021848571122973226 -0.009999976493418217 
vn 0.009999976493418217 -0.00002184694130846765 3.5593255773291865e-12 
vn 0.009999976493418217 -0.00002184694130846765 3.5593255773291865e-12 
vn 0.009999976493418217 -0.00002184694130846765 3.5593255773291865e-12 
vn 0.009999976493418217 -0.00002184694130846765 3.5593255773291865e-12 
vn 3.097898490739357e-15 -0.000021845313312951475 0.009999976493418217 
vn 3.097898490739357e-15 -0.000021845313312951475 0.009999976493418217 
vn 3.097898490739357e-15 -0.000021845313312951475 0.009999976493418217 
vn 3.097898490739357e-15 -0.000021845313312951475 0.009999976493418217 
vn 0.009999976493418217 -0.00002184694130846765 3.5593255773291865e-12 
vn 0.009999976493418217 -0.00002184694130846765 3.5593255773291865e-12 
vn 0.009999976493418217 -0.00002184694130846765 3.5593255773291865e-12 
vn 0.009999976493418217 -0.00002184694130846765 3.5593255773291865e-12 
vn 0.009999976493418217 -0.00002184694130846765 3.5593255773291865e-12 
vn 0.009999976493418217 -0.00002184694130846765 3.5593255773291865e-12 
vn 0.009999976493418217 0.00002184694130846765 -3.5593255773291865e-12 
vn 0.009999976493418217 0.00002184694130846765 -3.5593255773291865e-12 
vn 0.009999976493418217 0.00002184694130846765 -3.5593255773291865e-12 
vn 0.009999976493418217 0.00002184694130846765 -3.5593255773291865e-12 
vn -0.007071050815284252 0.000021845789888175204 -0.007071050815284252 
vn -0.007071050815284252 0.000021845789888175204 -0.007071050815284252 
vn -0.007071050815284252 0.000021845789888175204 -0.007071050815284252 
vn -0.007071050815284252 0.000021845789888175204 -0.007071050815284252 
vn -0.007071050815284252 0.000021845789888175204 -0.007071050815284252 
vn -0.007071050815284252 0.000021845789888175204 -0.007071050815284252 
vn 0.009999976493418217 -0.00002184694130846765 3.5593255773291865e-12 
vn 0.009999976493418217 -0.00002184694130846765 3.5593255773291865e-12 
vn 0.009999976493418217 -0.00002184694130846765 3.5593255773291865e-12 
vn 0.009999976493418217 -0.00002184694130846765 3.5593255773291865e-12 
vn 0.009999976493418217 -0.00002184694130846765 3.5593255773291865e-12 
vn 0.009999976493418217 -0.00002184694130846765 3.5593255773291865e-12 
vn 0.009999976493418217 0.00002184694130846765 -3.5593255773291865e-12 
vn 0.009999976493418217 0.00002184694130846765 -3.5593255773291865e-12 
vn 0.009999976493418217 0.00002184694130846765 -3.5593255773291865e-12 
vn 0.009999976493418217 0.00002184694130846765 -3.5593255773291865e-12 
vn 0.009999976493418217 0.00002184694130846765 -3.5593255773291865e-12 
vn 0.009999976493418217 0.00002184694130846765 -3.5593255773291865e-12 
vn 0.009999976493418217 0.00002184694130846765 -3.5593255773291865e-12 
vn 0.009999976493418217 0.00002184694130846765 -3.5593255773291865e-12 
vn 0.009999976493418217 0.00002184694130846765 -3.5593255773291865e-12 
vn 0.009999976493418217 0.00002184694130846765 -3.5593255773291865e-12 
vn -1.0341130909078582e-15 0.000021845313312951475 -0.009999976493418217 
vn -1.0341130909078582e-15 0.000021845313312951475 -0.009999976493418217 
vn -1.0341130909078582e-15 0.000021845313312951475 -0.009999976493418217 
vn -1.0341130909078582e-15 0.000021845313312951475 -0.009999976493418217 
vn -1.0341130909078582e-15 0.000021845313312951475 -0.009999976493418217 
vn -1.0341130909078582e-15 0.000021845313312951475 -0.009999976493418217 
vn -1.0341130909078582e-15 0.000021845313312951475 -0.009999976493418217 
vn -1.0341130909078582e-15 0.000021845313312951475 -0.009999976493418217 
vn -1.0341130909078582e-15 0.000021845313312951475 -0.009999976493418217 
vn -1.0341130909078582e-15 0.000021845313312951475 -0.009999976493418217 
vn -1.0341130909078582e-15 0.000021845313312951475 -0.009999976493418217 
vn -0.0015792569611221552 0.000021845333321834914 -0.009874485433101654 
vn -0.0015792569611221552 0.000021845333321834914 -0.009874485433101654 
vn -0.0015792569611221552 0.000021845333321834914 -0.009874485433101654 
vn -0.0015792569611221552 0.000021845333321834914 -0.009874485433101654 
vn -0.008923716843128204 0.000021846206436748616 -0.004512958228588104 
vn -0.008923716843128204 0.000021846206436748616 -0.004512958228588104 
vn -0.008923716843128204 0.000021846206436748616 -0.004512958228588104 
vn -0.008923716843128204 0.000021846206436748616 -0.004512958228588104 
vn -0.0015792569611221552 0.000021848551114089787 0.009874485433101654 
vn -0.0015792569611221552 0.000021848551114089787 0.009874485433101654 
vn -0.0015792569611221552 0.000021848551114089787 0.009874485433101654 
vn -0.0015792569611221552 0.000021848551114089787 0.009874485433101654 
vn -0.009874485433101654 0.000021847199604962952 0.0015792569611221552 
vn -0.009874485433101654 0.000021847199604962952 0.0015792569611221552 
vn -0.009874485433101654 0.000021847199604962952 0.0015792569611221552 
vn -0.009874485433101654 0.000021847199604962952 0.0015792569611221552 
vn -0.004512958228588104 0.000021845487935934216 -0.008923716843128204 
vn -0.004512958228588104 0.000021845487935934216 -0.008923716843128204 
vn -0.004512958228588104 0.000021845487935934216 -0.008923716843128204 
vn -0.004512958228588104 0.000021845487935934216 -0.008923716843128204 
vn -0.007071050815284252 0.000021845789888175204 -0.007071050815284252 
vn -0.007071050815284252 0.000021845789888175204 -0.007071050815284252 
vn -0.007071050815284252 0.000021845789888175204 -0.007071050815284252 
vn -0.007071050815284252 0.000021845789888175204 -0.007071050815284252 
vn -0.009874485433101654 0.00002184668483096175 -0.0015792569611221552 
vn -0.009874485433101654 0.00002184668483096175 -0.0015792569611221552 
vn -0.009874485433101654 0.00002184668483096175 -0.0015792569611221552 
vn -0.009874485433101654 0.00002184668483096175 -0.0015792569611221552 
vn -0.009874485433101654 0.00002184668483096175 -0.0015792569611221552 
vn -0.009874485433101654 0.00002184668483096175 -0.0015792569611221552 
vn -0.009874485433101654 0.00002184668483096175 -0.0015792569611221552 
vn -0.009874485433101654 0.00002184668483096175 -0.0015792569611221552 
vn -0.007071050815284252 0.000021848094547749497 0.007071050815284252 
vn -0.007071050815284252 0.000021848094547749497 0.007071050815284252 
vn -0.007071050815284252 0.000021848094547749497 0.007071050815284252 
vn -0.007071050815284252 0.000021848094547749497 0.007071050815284252 
vn 0.004512958228588104 -0.000021848394681001082 -0.008923716843128204 
vn 0.004512958228588104 -0.000021848394681001082 -0.008923716843128204 
vn 0.004512958228588104 -0.000021848394681001082 -0.008923716843128204 
vn 0.004512958228588104 -0.000021848394681001082 -0.008923716843128204 
vn 0.008923716843128204 0.000021846206436748616 -0.004512958228588104 
vn 0.008923716843128204 0.000021846206436748616 -0.004512958228588104 
vn 0.008923716843128204 0.000021846206436748616 -0.004512958228588104 
vn 0.008923716843128204 0.000021846206436748616 -0.004512958228588104 
vn -0.0015792569611221552 0.000021845333321834914 -0.009874485433101654 
vn -0.0015792569611221552 0.000021845333321834914 -0.009874485433101654 
vn -0.0015792569611221552 0.000021845333321834914 -0.009874485433101654 
vn -0.0015792569611221552 0.000021845333321834914 -0.009874485433101654 
vn -0.0015792569611221552 0.000021845333321834914 -0.009874485433101654 
vn -0.0015792569611221552 0.000021845333321834914 -0.009874485433101654 
vn -0.0015792569611221552 0.000021845333321834914 -0.009874485433101654 
vn -0.0015792569611221552 0.000021845333321834914 -0.009874485433101654 
vn -0.008923716843128204 0.000021846206436748616 -0.004512958228588104 
vn -0.008923716843128204 0.000021846206436748616 -0.004512958228588104 
vn -0.008923716843128204 0.000021846206436748616 -0.004512958228588104 
vn -0.008923716843128204 0.000021846206436748616 -0.004512958228588104 
vn -0.007071050815284252 -0.000021845789888175204 0.007071050815284252 
vn -0.007071050815284252 -0.000021845789888175204 0.007071050815284252 
vn -0.007071050815284252 -0.000021845789888175204 0.007071050815284252 
vn -0.007071050815284252 -0.000021845789888175204 0.007071050815284252 
vn -0.009874485433101654 0.00002184668483096175 -0.0015792569611221552 
vn -0.009874485433101654 0.00002184668483096175 -0.0015792569611221552 
vn -0.009874485433101654 0.00002184668483096175 -0.0015792569611221552 
vn -0.009874485433101654 0.00002184668483096175 -0.0015792569611221552 
vn -0.007071050815284252 0.000021845789888175204 -0.007071050815284252 
vn -0.007071050815284252 0.000021845789888175204 -0.007071050815284252 
vn -0.007071050815284252 0.000021845789888175204 -0.007071050815284252 
vn -0.007071050815284252 0.000021845789888175204 -0.007071050815284252 
vn -0.009874485433101654 0.000021847199604962952 0.0015792569611221552 
vn -0.009874485433101654 0.000021847199604962952 0.0015792569611221552 
vn -0.009874485433101654 0.000021847199604962952 0.0015792569611221552 
vn -0.009874485433101654 0.000021847199604962952 0.0015792569611221552 
vn 0.009874485433101654 0.00002184668483096175 -0.0015792569611221552 
vn 0.009874485433101654 0.00002184668483096175 -0.0015792569611221552 
vn 0.009874485433101654 0.00002184668483096175 -0.0015792569611221552 
vn 0.009874485433101654 0.00002184668483096175 -0.0015792569611221552 
vn 0.009999976493418217 0.00002184694130846765 -3.5593255773291865e-12 
vn 0.009999976493418217 0.00002184694130846765 -3.5593255773291865e-12 
vn 0.009999976493418217 0.00002184694130846765 -3.5593255773291865e-12 
vn 0.009999976493418217 0.00002184694130846765 -3.5593255773291865e-12 
vn 0.009999976493418217 0.00002184694130846765 -3.5593255773291865e-12 
vn 0.009999976493418217 0.00002184694130846765 -3.5593255773291865e-12 
vn 0.009999976493418217 0.00002184694130846765 -3.5593255773291865e-12 
vn 0.009999976493418217 0.00002184694130846765 -3.5593255773291865e-12 
vn -0.009874485433101654 0.00002184668483096175 -0.0015792569611221552 
vn -0.009874485433101654 0.00002184668483096175 -0.0015792569611221552 
vn -0.009874485433101654 0.00002184668483096175 -0.0015792569611221552 
vn -0.009874485433101654 0.00002184668483096175 -0.0015792569611221552 
vn -0.007071050815284252 0.000021848094547749497 0.007071050815284252 
vn -0.007071050815284252 0.000021848094547749497 0.007071050815284252 
vn -0.007071050815284252 0.000021848094547749497 0.007071050815284252 
vn -0.007071050815284252 0.000021848094547749497 0.007071050815284252 
vn -0.008923716843128204 -0.000021846206436748616 0.004512958228588104 
vn -0.008923716843128204 -0.000021846206436748616 0.004512958228588104 
vn -0.008923716843128204 -0.000021846206436748616 0.004512958228588104 
vn -0.008923716843128204 -0.000021846206436748616 0.004512958228588104 
vn -0.008923716843128204 0.00002184767618018668 0.004512958228588104 
vn -0.008923716843128204 0.00002184767618018668 0.004512958228588104 
vn -0.008923716843128204 0.00002184767618018668 0.004512958228588104 
vn -0.008923716843128204 0.00002184767618018668 0.004512958228588104 
vn 0.0015792569611221552 -0.000021848551114089787 -0.009874485433101654 
vn 0.0015792569611221552 -0.000021848551114089787 -0.009874485433101654 
vn 0.0015792569611221552 -0.000021848551114089787 -0.009874485433101654 
vn 0.0015792569611221552 -0.000021848551114089787 -0.009874485433101654 
vn 0.004512958228588104 0.000021845487935934216 -0.008923716843128204 
vn 0.004512958228588104 0.000021845487935934216 -0.008923716843128204 
vn 0.004512958228588104 0.000021845487935934216 -0.008923716843128204 
vn 0.004512958228588104 0.000021845487935934216 -0.008923716843128204 
vn 0.007071050815284252 -0.000021848094547749497 -0.007071050815284252 
vn 0.007071050815284252 -0.000021848094547749497 -0.007071050815284252 
vn 0.007071050815284252 -0.000021848094547749497 -0.007071050815284252 
vn 0.007071050815284252 -0.000021848094547749497 -0.007071050815284252 
vn 0.008923716843128204 -0.00002184767618018668 -0.004512958228588104 
vn 0.008923716843128204 -0.00002184767618018668 -0.004512958228588104 
vn 0.008923716843128204 -0.00002184767618018668 -0.004512958228588104 
vn 0.008923716843128204 -0.00002184767618018668 -0.004512958228588104 
vn 0.009874485433101654 0.00002184668483096175 -0.0015792569611221552 
vn 0.009874485433101654 0.00002184668483096175 -0.0015792569611221552 
vn 0.009874485433101654 0.00002184668483096175 -0.0015792569611221552 
vn 0.009874485433101654 0.00002184668483096175 -0.0015792569611221552 
vn -0.009874485433101654 0.00002184668483096175 -0.0015792569611221552 
vn -0.009874485433101654 0.00002184668483096175 -0.0015792569611221552 
vn -0.009874485433101654 0.00002184668483096175 -0.0015792569611221552 
vn -0.009874485433101654 0.00002184668483096175 -0.0015792569611221552 
vn 0.009999976493418217 0.00002184694130846765 -3.5593255773291865e-12 
vn 0.009999976493418217 0.00002184694130846765 -3.5593255773291865e-12 
vn 0.009999976493418217 0.00002184694130846765 -3.5593255773291865e-12 
vn 0.009999976493418217 0.00002184694130846765 -3.5593255773291865e-12 
vn 0.009999976493418217 0.00002184694130846765 -3.5593255773291865e-12 
vn -0.007071050815284252 0.000021845789888175204 -0.007071050815284252 
vn -0.007071050815284252 0.000021845789888175204 -0.007071050815284252 
vn -0.007071050815284252 0.000021845789888175204 -0.007071050815284252 
vn -0.007071050815284252 0.000021845789888175204 -0.007071050815284252 
vn -0.007071050815284252 0.000021848094547749497 0.007071050815284252 
vn -0.007071050815284252 0.000021848094547749497 0.007071050815284252 
vn -0.007071050815284252 0.000021848094547749497 0.007071050815284252 
vn -0.007071050815284252 0.000021848094547749497 0.007071050815284252 
vn -0.008923716843128204 0.00002184767618018668 0.004512958228588104 
vn -0.008923716843128204 0.00002184767618018668 0.004512958228588104 
vn -0.008923716843128204 0.00002184767618018668 0.004512958228588104 
vn -0.008923716843128204 0.00002184767618018668 0.004512958228588104 
vn -0.009874485433101654 0.00002184668483096175 -0.0015792569611221552 
vn -0.009874485433101654 0.00002184668483096175 -0.0015792569611221552 
vn -0.009874485433101654 0.00002184668483096175 -0.0015792569611221552 
vn -0.009874485433101654 0.00002184668483096175 -0.0015792569611221552 
vn -0.004512958228588104 0.000021845487935934216 -0.008923716843128204 
vn -0.004512958228588104 0.000021845487935934216 -0.008923716843128204 
vn -0.004512958228588104 0.000021845487935934216 -0.008923716843128204 
vn -0.004512958228588104 0.000021845487935934216 -0.008923716843128204 
vn 0.009999976493418217 0.00002184694130846765 -3.5593255773291865e-12 
vn 0.009999976493418217 0.00002184694130846765 -3.5593255773291865e-12 
vn 0.009999976493418217 0.00002184694130846765 -3.5593255773291865e-12 
vn 0.009999976493418217 0.00002184694130846765 -3.5593255773291865e-12 
vn -0.0015792569611221552 0.000021848551114089787 0.009874485433101654 
vn -0.0015792569611221552 0.000021848551114089787 0.009874485433101654 
vn -0.0015792569611221552 0.000021848551114089787 0.009874485433101654 
vn -0.0015792569611221552 0.000021848551114089787 0.009874485433101654 
vn -0.004512958228588104 0.000021848394681001082 0.008923716843128204 
vn -0.004512958228588104 0.000021848394681001082 0.008923716843128204 
vn -0.004512958228588104 0.000021848394681001082 0.008923716843128204 
vn -0.004512958228588104 0.000021848394681001082 0.008923716843128204 
vn -0.007071050815284252 0.000021848094547749497 0.007071050815284252 
vn -0.007071050815284252 0.000021848094547749497 0.007071050815284252 
vn -0.007071050815284252 0.000021848094547749497 0.007071050815284252 
vn -0.007071050815284252 0.000021848094547749497 0.007071050815284252 
vn -0.008923716843128204 0.00002184767618018668 0.004512958228588104 
vn -0.008923716843128204 0.00002184767618018668 0.004512958228588104 
vn -0.008923716843128204 0.00002184767618018668 0.004512958228588104 
vn -0.008923716843128204 0.00002184767618018668 0.004512958228588104 
vn -0.009874485433101654 0.000021847199604962952 0.0015792569611221552 
vn -0.009874485433101654 0.000021847199604962952 0.0015792569611221552 
vn -0.009874485433101654 0.000021847199604962952 0.0015792569611221552 
vn -0.009874485433101654 0.000021847199604962952 0.0015792569611221552 
vn 0.0015792569611221552 0.000021845333321834914 -0.009874485433101654 
vn 0.0015792569611221552 0.000021845333321834914 -0.009874485433101654 
vn 0.0015792569611221552 0.000021845333321834914 -0.009874485433101654 
vn 0.0015792569611221552 0.000021845333321834914 -0.009874485433101654 
vn -1.0341130909078582e-15 0.000021845313312951475 -0.009999976493418217 
vn -1.0341130909078582e-15 0.000021845313312951475 -0.009999976493418217 
vn -1.0341130909078582e-15 0.000021845313312951475 -0.009999976493418217 
vn -1.0341130909078582e-15 0.000021845313312951475 -0.009999976493418217 
vn 0.009999976493418217 0.00002184694130846765 -3.5593255773291865e-12 
vn 0.009999976493418217 0.00002184694130846765 -3.5593255773291865e-12 
vn 0.009999976493418217 0.00002184694130846765 -3.5593255773291865e-12 
vn 0.009999976493418217 0.00002184694130846765 -3.5593255773291865e-12 
vn 0.009999976493418217 0.00002184694130846765 -3.5593255773291865e-12 
vn -1.0341130909078582e-15 -0.000021848571122973226 -0.009999976493418217 
vn -1.0341130909078582e-15 -0.000021848571122973226 -0.009999976493418217 
vn -1.0341130909078582e-15 -0.000021848571122973226 -0.009999976493418217 
vn -1.0341130909078582e-15 -0.000021848571122973226 -0.009999976493418217 
vn -0.009874485433101654 -0.00002184668483096175 0.0015792569611221552 
vn -0.009874485433101654 -0.00002184668483096175 0.0015792569611221552 
vn -0.009874485433101654 -0.00002184668483096175 0.0015792569611221552 
vn -0.009874485433101654 -0.00002184668483096175 0.0015792569611221552 
vn -0.004512958228588104 0.000021848394681001082 0.008923716843128204 
vn -0.004512958228588104 0.000021848394681001082 0.008923716843128204 
vn -0.004512958228588104 0.000021848394681001082 0.008923716843128204 
vn -0.004512958228588104 0.000021848394681001082 0.008923716843128204 
vn -0.009999976493418217 0.00002184694130846765 -3.557257353264953e-12 
vn -0.009999976493418217 0.00002184694130846765 -3.557257353264953e-12 
vn -0.009999976493418217 0.00002184694130846765 -3.557257353264953e-12 
vn -0.009999976493418217 0.00002184694130846765 -3.557257353264953e-12 
vn 3.097898490739357e-15 0.000021848571122973226 0.009999976493418217 
vn 3.097898490739357e-15 0.000021848571122973226 0.009999976493418217 
vn 3.097898490739357e-15 0.000021848571122973226 0.009999976493418217 
vn 3.097898490739357e-15 0.000021848571122973226 0.009999976493418217 
vn -0.009999976493418217 0.00002184694130846765 -3.557257353264953e-12 
vn -0.009999976493418217 0.00002184694130846765 -3.557257353264953e-12 
vn -0.009999976493418217 0.00002184694130846765 -3.557257353264953e-12 
vn -0.009999976493418217 0.00002184694130846765 -3.557257353264953e-12 
vn -0.009999976493418217 0.00002184694130846765 -3.557257353264953e-12 
vn -0.009999976493418217 0.00002184694130846765 -3.557257353264953e-12 
vn 0.009999976493418217 -0.00002184694130846765 3.5593255773291865e-12 
vn 0.009999976493418217 -0.00002184694130846765 3.5593255773291865e-12 
vn 0.009999976493418217 -0.00002184694130846765 3.5593255773291865e-12 
vn 0.009999976493418217 -0.00002184694130846765 3.5593255773291865e-12 
vn -0.008923716843128204 0.000021846206436748616 -0.004512958228588104 
vn -0.008923716843128204 0.000021846206436748616 -0.004512958228588104 
vn -0.008923716843128204 0.000021846206436748616 -0.004512958228588104 
vn -0.008923716843128204 0.000021846206436748616 -0.004512958228588104 
vn 3.097898490739357e-15 0.000021848571122973226 0.009999976493418217 
vn 3.097898490739357e-15 0.000021848571122973226 0.009999976493418217 
vn 3.097898490739357e-15 0.000021848571122973226 0.009999976493418217 
vn 3.097898490739357e-15 0.000021848571122973226 0.009999976493418217 
vn -0.0015792569611221552 0.000021845333321834914 -0.009874485433101654 
vn -0.0015792569611221552 0.000021845333321834914 -0.009874485433101654 
vn -0.0015792569611221552 0.000021845333321834914 -0.009874485433101654 
vn -0.0015792569611221552 0.000021845333321834914 -0.009874485433101654 
vn 0.009999976493418217 -0.00002184694130846765 3.5593255773291865e-12 
vn 0.009999976493418217 -0.00002184694130846765 3.5593255773291865e-12 
vn 0.009999976493418217 -0.00002184694130846765 3.5593255773291865e-12 
vn 0.009999976493418217 -0.00002184694130846765 3.5593255773291865e-12 
vn -0.004512958228588104 0.000021845487935934216 -0.008923716843128204 
vn -0.004512958228588104 0.000021845487935934216 -0.008923716843128204 
vn -0.004512958228588104 0.000021845487935934216 -0.008923716843128204 
vn -0.004512958228588104 0.000021845487935934216 -0.008923716843128204 
vn -0.008923716843128204 0.000021846206436748616 -0.004512958228588104 
vn -0.008923716843128204 0.000021846206436748616 -0.004512958228588104 
vn -0.008923716843128204 0.000021846206436748616 -0.004512958228588104 
vn -0.008923716843128204 0.000021846206436748616 -0.004512958228588104 
vn -0.008923716843128204 0.000021846206436748616 -0.004512958228588104 
vn -0.008923716843128204 0.000021846206436748616 -0.004512958228588104 
vn -0.008923716843128204 0.000021846206436748616 -0.004512958228588104 
vn -0.008923716843128204 0.000021846206436748616 -0.004512958228588104 
vn -0.009874485433101654 0.000021847199604962952 0.0015792569611221552 
vn -0.009874485433101654 0.000021847199604962952 0.0015792569611221552 
vn -0.009874485433101654 0.000021847199604962952 0.0015792569611221552 
vn -0.009874485433101654 0.000021847199604962952 0.0015792569611221552 
vn 3.097898490739357e-15 0.000021848571122973226 0.009999976493418217 
vn 3.097898490739357e-15 0.000021848571122973226 0.009999976493418217 
vn 3.097898490739357e-15 0.000021848571122973226 0.009999976493418217 
vn 3.097898490739357e-15 0.000021848571122973226 0.009999976493418217 
vn 3.097898490739357e-15 0.000021848571122973226 0.009999976493418217 
vn 3.097898490739357e-15 0.000021848571122973226 0.009999976493418217 
vn 3.097898490739357e-15 0.000021848571122973226 0.009999976493418217 
vn 3.097898490739357e-15 0.000021848571122973226 0.009999976493418217 
vn -0.009999976493418217 0.00002184694130846765 -3.557257353264953e-12 
vn -0.009999976493418217 0.00002184694130846765 -3.557257353264953e-12 
vn -0.009999976493418217 0.00002184694130846765 -3.557257353264953e-12 
vn -0.009999976493418217 0.00002184694130846765 -3.557257353264953e-12 
vn -0.009999976493418217 0.00002184694130846765 -3.557257353264953e-12 
vn -0.009999976493418217 0.00002184694130846765 -3.557257353264953e-12 
vn -0.009999976493418217 0.00002184694130846765 -3.557257353264953e-12 
vn -0.009999976493418217 0.00002184694130846765 -3.557257353264953e-12 
vn -0.009999976493418217 0.00002184694130846765 -3.557257353264953e-12 
vn -0.009999976493418217 0.00002184694130846765 -3.557257353264953e-12 
vn -0.009999976493418217 0.00002184694130846765 -3.557257353264953e-12 
vn -0.009999976493418217 0.00002184694130846765 -3.557257353264953e-12 
vn -0.009999976493418217 0.00002184694130846765 -3.557257353264953e-12 
vn 3.097898490739357e-15 0.000021848571122973226 0.009999976493418217 
vn 3.097898490739357e-15 0.000021848571122973226 0.009999976493418217 
vn 3.097898490739357e-15 0.000021848571122973226 0.009999976493418217 
vn 3.097898490739357e-15 0.000021848571122973226 0.009999976493418217 
vn 0.009999976493418217 0.00002184694130846765 -3.5593255773291865e-12 
vn 0.009999976493418217 0.00002184694130846765 -3.5593255773291865e-12 
vn 0.009999976493418217 0.00002184694130846765 -3.5593255773291865e-12 
vn 0.009999976493418217 0.00002184694130846765 -3.5593255773291865e-12 
vn -0.009999976493418217 0.00002184694130846765 -3.557257353264953e-12 
vn -0.009999976493418217 0.00002184694130846765 -3.557257353264953e-12 
vn 0.007071050815284252 -0.000021848094547749497 -0.007071050815284252 
vn 0.007071050815284252 -0.000021848094547749497 -0.007071050815284252 
vn 0.007071050815284252 -0.000021848094547749497 -0.007071050815284252 
vn 0.007071050815284252 -0.000021848094547749497 -0.007071050815284252 
vn -0.004512958228588104 0.000021845487935934216 -0.008923716843128204 
vn -0.004512958228588104 0.000021845487935934216 -0.008923716843128204 
vn -0.004512958228588104 0.000021845487935934216 -0.008923716843128204 
vn -0.004512958228588104 0.000021845487935934216 -0.008923716843128204 
vn -1.0341130909078582e-15 -0.000021848571122973226 -0.009999976493418217 
vn -1.0341130909078582e-15 -0.000021848571122973226 -0.009999976493418217 
vn -1.0341130909078582e-15 -0.000021848571122973226 -0.009999976493418217 
vn -1.0341130909078582e-15 -0.000021848571122973226 -0.009999976493418217 
vn -0.008923716843128204 0.000021846206436748616 -0.004512958228588104 
vn -0.008923716843128204 0.000021846206436748616 -0.004512958228588104 
vn -0.008923716843128204 0.000021846206436748616 -0.004512958228588104 
vn -0.008923716843128204 0.000021846206436748616 -0.004512958228588104 
vn -0.008923716843128204 0.00002184767618018668 0.004512958228588104 
vn -0.008923716843128204 0.00002184767618018668 0.004512958228588104 
vn -0.008923716843128204 0.00002184767618018668 0.004512958228588104 
vn -0.008923716843128204 0.00002184767618018668 0.004512958228588104 
vn 0.009999976493418217 -0.00002184694130846765 3.5593255773291865e-12 
vn 0.009999976493418217 -0.00002184694130846765 3.5593255773291865e-12 
vn 0.009999976493418217 -0.00002184694130846765 3.5593255773291865e-12 
vn 0.009999976493418217 -0.00002184694130846765 3.5593255773291865e-12 
vn 0.009999976493418217 -0.00002184694130846765 3.5593255773291865e-12 
vn 0.009999976493418217 -0.00002184694130846765 3.5593255773291865e-12 
vn 0.009999976493418217 0.00002184694130846765 -3.5593255773291865e-12 
vn -1.0341130909078582e-15 -0.000021848571122973226 -0.009999976493418217 
vn 3.097898490739357e-15 -0.000021845313312951475 0.009999976493418217 
vn 0.009999976493418217 -0.00002184694130846765 3.5593255773291865e-12 
vn 0.009999976493418217 0.00002184694130846765 -3.5593255773291865e-12 
vt -0.49873635172843933 0.2792218327522278 
vt 0.9383864402770996 0.3664192855358124 
vt -0.49873635172843933 -0.03327539935708046 
vt 0.9383864402770996 -0.03327539935708046 
vt 0.14810366928577423 0.9679388999938965 
vt 0.9680397510528564 1.1667242050170898 
vt 0.14810366928577423 0.8667151927947998 
vt 0.9680397510528564 0.8667151927947998 
vt -0.7643394470214844 -0.03327539935708046 
vt -2.201604127883911 -0.03327539935708046 
vt -0.7643394470214844 0.2792218327522278 
vt -2.201604127883911 0.3664192855358124 
vt 2.4399235248565674 -0.03327539935708046 
vt 2.441342353820801 -0.03327539935708046 
vt 2.4399235248565674 0.3667122721672058 
vt 2.441342353820801 0.3667122721672058 
vt 2.4383628368377686 -0.03327539935708046 
vt 2.4399235248565674 -0.03327539935708046 
vt 2.4383628368377686 0.3667122721672058 
vt 2.4399235248565674 0.3667122721672058 
vt 1.7930835485458374 0.8717324137687683 
vt 1.7930835485458374 0.9667304158210754 
vt 1.78811776638031 0.8667151927947998 
vt 1.318062663078308 0.8667151927947998 
vt 2.4399235248565674 0.3667122721672058 
vt 2.441342353820801 0.3667122721672058 
vt 2.4399235248565674 -0.03327539935708046 
vt 2.441342353820801 -0.03327539935708046 
vt -0.7643394470214844 0.2792218327522278 
vt -2.201604127883911 0.3664192855358124 
vt -0.7565359473228455 0.46672749519348145 
vt -2.201604127883911 0.46672749519348145 
vt 0.14313779771327972 0.8717324137687683 
vt 0.14810366928577423 0.8667151927947998 
vt 0.14313779771327972 0.9667304158210754 
vt 0.9680397510528564 1.1667242050170898 
vt 2.4383628368377686 0.46672749519348145 
vt 2.4383628368377686 0.5667427182197571 
vt 2.246396541595459 0.46672749519348145 
vt 2.246396541595459 0.5617254972457886 
vt 0.6180168390274048 0.8667151927947998 
vt 0.14810366928577423 0.8667151927947998 
vt 0.6180168390274048 0.5667427182197571 
vt 0.14810366928577423 0.5667427182197571 
vt 0.14313779771327972 0.8617345690727234 
vt 0.14313779771327972 0.5717233419418335 
vt 0.11802468448877335 0.3667122721672058 
vt 0.6180168390274048 0.3667122721672058 
vt 0.14313779771327972 0.46672749519348145 
vt 0.6180168390274048 0.46672749519348145 
vt 2.4424774646759033 -0.03327539935708046 
vt 2.441342353820801 -0.03327539935708046 
vt 2.4424774646759033 0.3667122721672058 
vt 2.441342353820801 0.3667122721672058 
vt 2.4424774646759033 0.46672749519348145 
vt 2.441342353820801 0.46672749519348145 
vt 1.318062663078308 0.5667427182197571 
vt 1.78811776638031 0.5667427182197571 
vt 1.318062663078308 0.8667151927947998 
vt 1.78811776638031 0.8667151927947998 
vt 1.7930835485458374 0.8617345690727234 
vt 1.7930835485458374 0.5717233419418335 
vt 0.9680397510528564 0.8667151927947998 
vt 0.6180168390274048 0.8667151927947998 
vt 0.9680397510528564 0.5667427182197571 
vt 0.6180168390274048 0.5667427182197571 
vt 0.6180168390274048 0.46672749519348145 
vt 0.9680397510528564 0.46672749519348145 
vt 0.6180168390274048 0.3667122721672058 
vt 0.9680397510528564 0.3667122721672058 
vt 1.318062663078308 0.46672749519348145 
vt 1.318062663078308 0.5667427182197571 
vt 2.246396541595459 0.5617254972457886 
vt 2.246396541595459 0.46672749519348145 
vt 0.9671884775161743 0.5617254972457886 
vt 0.9434941411018372 0.46672749519348145 
vt 0.9434941411018372 0.3667122721672058 
vt 2.246396541595459 0.3667122721672058 
vt 0.9434941411018372 -0.03327539935708046 
vt 2.246396541595459 -0.03327539935708046 
vt 2.4383628368377686 0.46672749519348145 
vt 2.4383628368377686 0.3667122721672058 
vt 2.4383628368377686 -0.03327539935708046 
vt 0.9383864402770996 0.3664192855358124 
vt 0.9399471282958984 0.3665291666984558 
vt 0.9383864402770996 -0.03327539935708046 
vt 0.9399471282958984 -0.03327539935708046 
vt 0.1465429663658142 0.8667151927947998 
vt 0.145124152302742 0.8667151927947998 
vt 0.1465429663658142 0.9675726890563965 
vt 0.145124152302742 0.9672064781188965 
vt 2.4383628368377686 0.46672749519348145 
vt 2.4399235248565674 0.46672749519348145 
vt 2.4383628368377686 0.5667427182197571 
vt 2.4399235248565674 0.5667427182197571 
vt 1.7896784543991089 0.46672749519348145 
vt 1.78811776638031 0.46672749519348145 
vt 1.7896784543991089 0.5667427182197571 
vt 1.78811776638031 0.5667427182197571 
vt 2.441342353820801 0.46672749519348145 
vt 2.4399235248565674 0.46672749519348145 
vt 2.441342353820801 0.5667427182197571 
vt 2.4399235248565674 0.5667427182197571 
vt 2.441342353820801 0.5667427182197571 
vt 2.4424774646759033 0.5667427182197571 
vt 2.441342353820801 0.46672749519348145 
vt 2.4424774646759033 0.46672749519348145 
vt 0.1465429663658142 0.5667427182197571 
vt 0.14810366928577423 0.5667427182197571 
vt 0.1465429663658142 0.46672749519348145 
vt 0.14810366928577423 0.46672749519348145 
vt 0.1465429663658142 0.3667122721672058 
vt 0.14810366928577423 0.3667122721672058 
vt 0.1465429663658142 -0.03327539935708046 
vt 0.14810366928577423 -0.03327539935708046 
vt 2.4424774646759033 0.5667427182197571 
vt 2.441342353820801 0.5667427182197571 
vt 2.4424774646759033 0.46672749519348145 
vt 2.441342353820801 0.46672749519348145 
vt -2.204441785812378 0.3666023910045624 
vt -2.20316481590271 0.3665291666984558 
vt -2.204441785812378 -0.03327539935708046 
vt -2.20316481590271 -0.03327539935708046 
vt -0.8534413576126099 0.3667122721672058 
vt -0.8548601865768433 0.36667564511299133 
vt -0.8534413576126099 -0.03327539935708046 
vt -0.8548601865768433 -0.03327539935708046 
vt 2.4383628368377686 0.5667427182197571 
vt 2.4399235248565674 0.5667427182197571 
vt 2.4383628368377686 0.46672749519348145 
vt 2.4399235248565674 0.46672749519348145 
vt 2.4383628368377686 0.3667122721672058 
vt 2.4399235248565674 0.3667122721672058 
vt 2.4383628368377686 -0.03327539935708046 
vt 2.4399235248565674 -0.03327539935708046 
vt -0.8548601865768433 0.36667564511299133 
vt -0.8534413576126099 0.3667122721672058 
vt -0.8548601865768433 -0.03327539935708046 
vt -0.8534413576126099 -0.03327539935708046 
vt 2.441342353820801 0.8667151927947998 
vt 2.4424774646759033 0.8667151927947998 
vt 2.441342353820801 0.9669501185417175 
vt 2.4424774646759033 0.9672064781188965 
vt 0.14810366928577423 0.8667151927947998 
vt 0.1465429663658142 0.8667151927947998 
vt 0.14810366928577423 0.9679388999938965 
vt 0.1465429663658142 0.9675726890563965 
vt 0.9413659572601318 0.3666023910045624 
vt 0.9425010085105896 0.36667564511299133 
vt 0.9413659572601318 -0.03327539935708046 
vt 0.9425010085105896 -0.03327539935708046 
vt 1.78811776638031 0.8667151927947998 
vt 1.7896784543991089 0.8667151927947998 
vt 1.78811776638031 0.5667427182197571 
vt 1.7896784543991089 0.5667427182197571 
vt -0.851880669593811 0.3667122721672058 
vt -0.8534413576126099 0.3667122721672058 
vt -0.851880669593811 -0.03327539935708046 
vt -0.8534413576126099 -0.03327539935708046 
vt 0.14313779771327972 0.46672749519348145 
vt -0.851880669593811 0.46672749519348145 
vt 0.11802468448877335 0.3667122721672058 
vt -0.851880669593811 0.3667122721672058 
vt -0.851880669593811 -0.03327539935708046 
vt 0.11802468448877335 -0.03327539935708046 
vt -0.851880669593811 0.3667122721672058 
vt 0.11802468448877335 0.3667122721672058 
vt -0.851880669593811 -0.03327539935708046 
vt -0.8534413576126099 -0.03327539935708046 
vt -0.851880669593811 0.3667122721672058 
vt -0.8534413576126099 0.3667122721672058 
vt 2.4424774646759033 0.3667122721672058 
vt 2.441342353820801 0.3667122721672058 
vt 2.4424774646759033 -0.03327539935708046 
vt 2.441342353820801 -0.03327539935708046 
vt 1.7896784543991089 0.9675726890563965 
vt 1.7909553050994873 0.9672064781188965 
vt 1.7896784543991089 0.8667151927947998 
vt 1.7909553050994873 0.8667151927947998 
vt 1.7896784543991089 0.3667122721672058 
vt 1.7909553050994873 0.3667122721672058 
vt 1.7896784543991089 -0.03327539935708046 
vt 1.7909553050994873 -0.03327539935708046 
vt -2.201604127883911 0.3664192855358124 
vt -2.20316481590271 0.3665291666984558 
vt -2.201604127883911 0.46672749519348145 
vt -2.20316481590271 0.46672749519348145 
vt -2.20316481590271 0.3665291666984558 
vt -2.204441785812378 0.3666023910045624 
vt -2.20316481590271 0.46672749519348145 
vt -2.204441785812378 0.46672749519348145 
vt -0.855995237827301 0.3666023910045624 
vt -0.8548601865768433 0.36667564511299133 
vt -0.855995237827301 0.46672749519348145 
vt -0.8548601865768433 0.46672749519348145 
vt -0.8548601865768433 0.36667564511299133 
vt -0.8534413576126099 0.3667122721672058 
vt -0.8548601865768433 0.46672749519348145 
vt -0.8534413576126099 0.46672749519348145 
vt -0.8534413576126099 0.3667122721672058 
vt -0.851880669593811 0.3667122721672058 
vt -0.8534413576126099 0.46672749519348145 
vt -0.851880669593811 0.46672749519348145 
vt -0.851880669593811 0.3667122721672058 
vt -0.8534413576126099 0.3667122721672058 
vt -0.851880669593811 0.46672749519348145 
vt -0.8534413576126099 0.46672749519348145 
vt 1.7930835485458374 0.5617254972457886 
vt 1.78811776638031 0.5667427182197571 
vt 1.7930835485458374 0.46672749519348145 
vt 1.318062663078308 0.5667427182197571 
vt 1.318062663078308 0.46672749519348145 
vt 0.9425010085105896 0.36667564511299133 
vt 0.9413659572601318 0.3666023910045624 
vt 0.9425010085105896 0.46672749519348145 
vt 0.9413659572601318 0.46672749519348145 
vt 2.441342353820801 0.5667427182197571 
vt 2.4424774646759033 0.5667427182197571 
vt 2.441342353820801 0.8667151927947998 
vt 2.4424774646759033 0.8667151927947998 
vt 1.7909553050994873 0.5667427182197571 
vt 1.7896784543991089 0.5667427182197571 
vt 1.7909553050994873 0.8667151927947998 
vt 1.7896784543991089 0.8667151927947998 
vt 0.1465429663658142 0.8667151927947998 
vt 0.14810366928577423 0.8667151927947998 
vt 0.1465429663658142 0.5667427182197571 
vt 0.14810366928577423 0.5667427182197571 
vt 2.441342353820801 0.3667122721672058 
vt 2.4399235248565674 0.3667122721672058 
vt 2.441342353820801 0.46672749519348145 
vt 2.4399235248565674 0.46672749519348145 
vt 0.11802468448877335 -0.03327539935708046 
vt 0.6180168390274048 -0.03327539935708046 
vt 0.11802468448877335 0.3667122721672058 
vt 0.6180168390274048 0.3667122721672058 
vt 2.4383628368377686 0.3667122721672058 
vt 2.4399235248565674 0.3667122721672058 
vt 2.4383628368377686 0.46672749519348145 
vt 2.4399235248565674 0.46672749519348145 
vt 2.4399235248565674 0.3667122721672058 
vt 2.441342353820801 0.3667122721672058 
vt 2.4399235248565674 0.46672749519348145 
vt 2.441342353820801 0.46672749519348145 
vt 2.441342353820801 0.3667122721672058 
vt 2.4424774646759033 0.3667122721672058 
vt 2.441342353820801 0.46672749519348145 
vt 2.4424774646759033 0.46672749519348145 
vt 1.7909553050994873 0.3667122721672058 
vt 1.7896784543991089 0.3667122721672058 
vt 1.7909553050994873 0.46672749519348145 
vt 1.7896784543991089 0.46672749519348145 
vt 1.7896784543991089 0.3667122721672058 
vt 1.78811776638031 0.3667122721672058 
vt 1.7896784543991089 0.46672749519348145 
vt 1.78811776638031 0.46672749519348145 
vt -2.201604127883911 -0.03327539935708046 
vt -2.20316481590271 -0.03327539935708046 
vt -2.201604127883911 0.3664192855358124 
vt -2.20316481590271 0.3665291666984558 
vt 0.9383864402770996 0.3664192855358124 
vt -0.49873635172843933 0.2792218327522278 
vt 0.9383864402770996 0.46672749519348145 
vt -0.5065398812294006 0.46672749519348145 
vt 0.6180168390274048 0.5667427182197571 
vt 0.14810366928577423 0.5667427182197571 
vt 0.6180168390274048 0.46672749519348145 
vt 0.14313779771327972 0.5617254972457886 
vt 0.14313779771327972 0.46672749519348145 
vt 2.246396541595459 0.46672749519348145 
vt 2.246396541595459 0.5617254972457886 
vt 2.4383628368377686 0.46672749519348145 
vt 2.4383628368377686 0.5667427182197571 
vt 1.7896784543991089 0.8667151927947998 
vt 1.78811776638031 0.8667151927947998 
vt 1.7896784543991089 0.9675726890563965 
vt 1.78811776638031 0.9679388999938965 
vt 2.4399235248565674 0.46672749519348145 
vt 2.441342353820801 0.46672749519348145 
vt 2.4399235248565674 0.5667427182197571 
vt 2.441342353820801 0.5667427182197571 
vt 1.78811776638031 0.8667151927947998 
vt 0.9680397510528564 0.8667151927947998 
vt 1.78811776638031 0.9679388999938965 
vt 0.9680397510528564 1.1667242050170898 
vt 2.246396541595459 -0.03327539935708046 
vt 2.246396541595459 0.3667122721672058 
vt -2.2065699100494385 -0.03327539935708046 
vt -2.2065699100494385 0.3667122721672058 
vt 0.14313779771327972 -0.03327539935708046 
vt -0.851880669593811 -0.03327539935708046 
vt 0.14313779771327972 0.3667122721672058 
vt -0.851880669593811 0.3667122721672058 
vt 0.14313779771327972 0.46672749519348145 
vt -0.851880669593811 0.46672749519348145 
vt 1.7930835485458374 0.3667122721672058 
vt 1.318062663078308 0.3667122721672058 
vt 1.7930835485458374 -0.03327539935708046 
vt 1.318062663078308 -0.03327539935708046 
vt -0.8534413576126099 0.3667122721672058 
vt -0.8548601865768433 0.36667564511299133 
vt -0.8534413576126099 0.46672749519348145 
vt -0.8548601865768433 0.46672749519348145 
vt -2.2065699100494385 0.5617254972457886 
vt -2.2065699100494385 0.46672749519348145 
vt 2.246396541595459 0.5617254972457886 
vt 2.246396541595459 0.46672749519348145 
vt 0.9399471282958984 0.3665291666984558 
vt 0.9383864402770996 0.3664192855358124 
vt 0.9399471282958984 0.46672749519348145 
vt 0.9383864402770996 0.46672749519348145 
vt 1.318062663078308 0.8667151927947998 
vt 0.9680397510528564 0.8667151927947998 
vt 1.318062663078308 0.5667427182197571 
vt 0.9680397510528564 0.5667427182197571 
vt 0.9399471282958984 0.3665291666984558 
vt 0.9413659572601318 0.3666023910045624 
vt 0.9399471282958984 -0.03327539935708046 
vt 0.9413659572601318 -0.03327539935708046 
vt 0.145124152302742 0.5667427182197571 
vt 0.1465429663658142 0.5667427182197571 
vt 0.145124152302742 0.46672749519348145 
vt 0.1465429663658142 0.46672749519348145 
vt 0.145124152302742 0.3667122721672058 
vt 0.1465429663658142 0.3667122721672058 
vt 0.145124152302742 -0.03327539935708046 
vt 0.1465429663658142 -0.03327539935708046 
vt 1.7896784543991089 -0.03327539935708046 
vt 1.78811776638031 -0.03327539935708046 
vt 1.7896784543991089 0.3667122721672058 
vt 1.78811776638031 0.3667122721672058 
vt 2.4383628368377686 -0.03327539935708046 
vt 2.4383628368377686 0.3667122721672058 
vt 2.246396541595459 -0.03327539935708046 
vt 2.246396541595459 0.3667122721672058 
vt 2.246396541595459 0.3667122721672058 
vt 2.246396541595459 0.46672749519348145 
vt -2.2065699100494385 0.3667122721672058 
vt -2.2065699100494385 0.46672749519348145 
vt 1.78811776638031 -0.03327539935708046 
vt 0.9680397510528564 -0.03327539935708046 
vt 1.78811776638031 0.3667122721672058 
vt 0.9680397510528564 0.3667122721672058 
vt 1.78811776638031 0.46672749519348145 
vt 0.9680397510528564 0.46672749519348145 
vt 0.9680397510528564 0.5667427182197571 
vt 0.14810366928577423 0.5667427182197571 
vt 0.9680397510528564 0.8667151927947998 
vt 0.14810366928577423 0.8667151927947998 
vt 0.14810366928577423 -0.03327539935708046 
vt 0.14810366928577423 0.3667122721672058 
vt 0.14810366928577423 0.46672749519348145 
vt 2.246396541595459 0.46672749519348145 
vt 2.246396541595459 0.3667122721672058 
vt 2.4383628368377686 0.46672749519348145 
vt 2.4383628368377686 0.3667122721672058 
vt 1.318062663078308 0.3667122721672058 
vt 1.7930835485458374 0.3667122721672058 
vt 1.318062663078308 0.46672749519348145 
vt 1.7930835485458374 0.46672749519348145 
vt 1.78811776638031 0.8667151927947998 
vt 1.78811776638031 0.5667427182197571 
vt -0.855995237827301 -0.03327539935708046 
vt -0.8548601865768433 -0.03327539935708046 
vt -0.855995237827301 0.3666023910045624 
vt -0.8548601865768433 0.36667564511299133 
vt 0.9399471282958984 0.46672749519348145 
vt 0.9413659572601318 0.46672749519348145 
vt 0.9399471282958984 0.3665291666984558 
vt 0.9413659572601318 0.3666023910045624 
vt -0.7565359473228455 0.46672749519348145 
vt -0.5065398812294006 0.46672749519348145 
vt -0.7643394470214844 0.2792218327522278 
vt -0.49873635172843933 0.2792218327522278 
vt 0.1465429663658142 0.5667427182197571 
vt 0.145124152302742 0.5667427182197571 
vt 0.1465429663658142 0.8667151927947998 
vt 0.145124152302742 0.8667151927947998 
vt 1.7909553050994873 0.46672749519348145 
vt 1.7896784543991089 0.46672749519348145 
vt 1.7909553050994873 0.5667427182197571 
vt 1.7896784543991089 0.5667427182197571 
vt 0.9680397510528564 0.8667151927947998 
vt 0.9680397510528564 1.1667242050170898 
vt 0.6180168390274048 0.8667151927947998 
vt 1.318062663078308 0.8667151927947998 
vt 0.9680397510528564 1.1667242050170898 
vt 0.9680397510528564 0.8667151927947998 
vt 1.318062663078308 0.3667122721672058 
vt 2.251504421234131 0.5667427182197571 
vt 2.251504421234131 0.5667427182197571 
vt 0.6180168390274048 0.8667151927947998 
vt 0.9680397510528564 1.1667242050170898 
s on 
f 1/1/1 2/2/2 3/3/3 
f 2/2/2 4/4/4 3/3/3 
f 3/3/3 4/4/4 4/4/4 
f 4/4/4 5/5/5 4/4/4 
f 4/4/4 5/5/5 5/5/5 
f 5/5/5 6/6/6 5/5/5 
f 5/5/5 6/6/6 7/7/7 
f 6/6/6 8/8/8 7/7/7 
f 7/7/7 8/8/8 8/8/8 
f 8/8/8 9/9/9 8/8/8 
f 8/8/8 9/9/9 9/9/9 
f 9/9/9 10/10/10 9/9/9 
f 9/9/9 10/10/10 11/11/11 
f 10/10/10 12/12/12 11/11/11 
f 11/11/11 12/12/12 12/12/12 
f 12/12/12 13/13/13 12/12/12 
f 12/12/12 13/13/13 13/13/13 
f 13/13/13 14/14/14 13/13/13 
f 13/13/13 14/14/14 15/15/15 
f 14/14/14 16/16/16 15/15/15 
f 15/15/15 16/16/16 16/16/16 
f 16/16/16 17/17/17 16/16/16 
f 16/16/16 17/17/17 17/17/17 
f 17/17/17 18/18/18 17/17/17 
f 17/17/17 18/18/18 19/19/19 
f 18/18/18 20/20/20 19/19/19 
f 19/19/19 20/20/20 20/20/20 
f 20/20/20 21/21/21 20/20/20 
f 20/20/20 21/21/21 21/21/21 
f 21/21/21 22/22/22 21/21/21 
f 21/21/21 22/22/22 23/23/23 
f 22/22/22 24/24/24 23/23/23 
f 23/23/23 24/24/24 24/24/24 
f 24/24/24 25/25/25 24/24/24 
f 24/24/24 25/25/25 25/25/25 
f 25/25/25 26/26/26 25/25/25 
f 25/25/25 26/26/26 27/27/27 
f 26/26/26 28/28/28 27/27/27 
f 27/27/27 28/28/28 28/28/28 
f 28/28/28 29/29/29 28/28/28 
f 28/28/28 29/29/29 29/29/29 
f 29/29/29 30/30/30 29/29/29 
f 29/29/29 30/30/30 31/31/31 
f 30/30/30 32/32/32 31/31/31 
f 31/31/31 32/32/32 32/32/32 
f 32/32/32 33/33/33 32/32/32 
f 32/32/32 33/33/33 33/33/33 
f 33/33/33 34/34/34 33/33/33 
f 33/33/33 34/34/34 35/35/35 
f 34/34/34 36/36/36 35/35/35 
f 35/35/35 36/36/36 36/36/36 
f 36/36/36 37/37/37 36/36/36 
f 36/36/36 37/37/37 37/37/37 
f 37/37/37 38/38/38 37/37/37 
f 37/37/37 38/38/38 39/39/39 
f 38/38/38 40/40/40 39/39/39 
f 39/39/39 40/40/40 40/40/40 
f 40/40/40 41/41/41 40/40/40 
f 40/40/40 41/41/41 41/41/41 
f 41/41/41 42/42/42 41/41/41 
f 41/41/41 42/42/42 43/43/43 
f 42/42/42 44/44/44 43/43/43 
f 43/43/43 44/44/44 44/44/44 
f 44/44/44 42/42/42 44/44/44 
f 44/44/44 42/42/42 42/42/42 
f 42/42/42 45/45/45 42/42/42 
f 42/42/42 45/45/45 44/44/44 
f 45/45/45 46/46/46 44/44/44 
f 44/44/44 46/46/46 46/46/46 
f 46/46/46 47/47/47 46/46/46 
f 46/46/46 47/47/47 47/47/47 
f 47/47/47 48/48/48 47/47/47 
f 47/47/47 48/48/48 49/49/49 
f 48/48/48 50/50/50 49/49/49 
f 49/49/49 50/50/50 50/50/50 
f 50/50/50 51/51/51 50/50/50 
f 50/50/50 51/51/51 51/51/51 
f 51/51/51 52/52/52 51/51/51 
f 51/51/51 52/52/52 53/53/53 
f 52/52/52 54/54/54 53/53/53 
f 53/53/53 54/54/54 55/55/55 
f 54/54/54 56/56/56 55/55/55 
f 55/55/55 56/56/56 56/56/56 
f 56/56/56 57/57/57 56/56/56 
f 56/56/56 57/57/57 57/57/57 
f 57/57/57 58/58/58 57/57/57 
f 57/57/57 58/58/58 59/59/59 
f 58/58/58 60/60/60 59/59/59 
f 59/59/59 60/60/60 60/60/60 
f 60/60/60 58/58/58 60/60/60 
f 60/60/60 58/58/58 61/61/61 
f 58/58/58 62/62/62 61/61/61 
f 61/61/61 62/62/62 62/62/62 
f 62/62/62 63/63/63 62/62/62 
f 62/62/62 63/63/63 63/63/63 
f 63/63/63 64/64/64 63/63/63 
f 63/63/63 64/64/64 65/65/65 
f 64/64/64 66/66/66 65/65/65 
f 65/65/65 66/66/66 67/67/67 
f 66/66/66 67/67/67 67/67/67 
f 67/67/67 67/67/67 65/65/65 
f 67/67/67 65/65/65 65/65/65 
f 65/65/65 65/65/65 65/65/65 
f 65/65/65 67/67/67 65/65/65 
f 65/65/65 67/67/67 68/68/68 
f 67/67/67 69/69/69 68/68/68 
f 68/68/68 69/69/69 70/70/70 
f 69/69/69 70/70/70 70/70/70 
f 70/70/70 70/70/70 70/70/70 
f 70/70/70 71/71/71 70/70/70 
f 70/70/70 71/71/71 68/68/68 
f 71/71/71 72/72/72 68/68/68 
f 68/68/68 72/72/72 65/65/65 
f 72/72/72 65/65/65 65/65/65 
f 65/65/65 65/65/65 73/73/73 
f 65/65/65 73/73/73 73/73/73 
f 73/73/73 73/73/73 73/73/73 
f 73/73/73 74/74/74 73/73/73 
f 73/73/73 74/74/74 75/75/75 
f 74/74/74 76/76/76 75/75/75 
f 75/75/75 76/76/76 76/76/76 
f 76/76/76 74/74/74 76/76/76 
f 76/76/76 74/74/74 77/77/77 
f 74/74/74 78/78/78 77/77/77 
f 77/77/77 78/78/78 79/79/79 
f 78/78/78 80/80/80 79/79/79 
f 79/79/79 80/80/80 80/80/80 
f 80/80/80 74/74/74 80/80/80 
f 80/80/80 74/74/74 74/74/74 
f 74/74/74 81/81/81 74/74/74 
f 74/74/74 81/81/81 78/78/78 
f 81/81/81 82/82/82 78/78/78 
f 78/78/78 82/82/82 80/80/80 
f 82/82/82 83/83/83 80/80/80 
f 80/80/80 83/83/83 83/83/83 
f 83/83/83 84/84/84 83/83/83 
f 83/83/83 84/84/84 84/84/84 
f 84/84/84 85/85/85 84/84/84 
f 84/84/84 85/85/85 86/86/86 
f 85/85/85 87/87/87 86/86/86 
f 86/86/86 87/87/87 87/87/87 
f 87/87/87 88/88/88 87/87/87 
f 87/87/87 88/88/88 88/88/88 
f 88/88/88 89/89/89 88/88/88 
f 88/88/88 89/89/89 90/90/90 
f 89/89/89 91/91/91 90/90/90 
f 90/90/90 91/91/91 91/91/91 
f 91/91/91 92/92/92 91/91/91 
f 91/91/91 92/92/92 92/92/92 
f 92/92/92 93/93/93 92/92/92 
f 92/92/92 93/93/93 94/94/94 
f 93/93/93 95/95/95 94/94/94 
f 94/94/94 95/95/95 95/95/95 
f 95/95/95 96/96/96 95/95/95 
f 95/95/95 96/96/96 96/96/96 
f 96/96/96 97/97/97 96/96/96 
f 96/96/96 97/97/97 98/98/98 
f 97/97/97 99/99/99 98/98/98 
f 98/98/98 99/99/99 99/99/99 
f 99/99/99 100/100/100 99/99/99 
f 99/99/99 100/100/100 100/100/100 
f 100/100/100 101/101/101 100/100/100 
f 100/100/100 101/101/101 102/102/102 
f 101/101/101 103/103/103 102/102/102 
f 102/102/102 103/103/103 103/103/103 
f 103/103/103 104/104/104 103/103/103 
f 103/103/103 104/104/104 104/104/104 
f 104/104/104 105/105/105 104/104/104 
f 104/104/104 105/105/105 106/106/106 
f 105/105/105 107/107/107 106/106/106 
f 106/106/106 107/107/107 107/107/107 
f 107/107/107 108/108/108 107/107/107 
f 107/107/107 108/108/108 108/108/108 
f 108/108/108 109/109/109 108/108/108 
f 108/108/108 109/109/109 110/110/110 
f 109/109/109 111/111/111 110/110/110 
f 110/110/110 111/111/111 112/112/112 
f 111/111/111 113/113/113 112/112/112 
f 112/112/112 113/113/113 114/114/114 
f 113/113/113 115/115/115 114/114/114 
f 114/114/114 115/115/115 115/115/115 
f 115/115/115 116/116/116 115/115/115 
f 115/115/115 116/116/116 116/116/116 
f 116/116/116 117/117/117 116/116/116 
f 116/116/116 117/117/117 118/118/118 
f 117/117/117 119/119/119 118/118/118 
f 118/118/118 119/119/119 119/119/119 
f 119/119/119 120/120/120 119/119/119 
f 119/119/119 120/120/120 120/120/120 
f 120/120/120 121/121/121 120/120/120 
f 120/120/120 121/121/121 122/122/122 
f 121/121/121 123/123/123 122/122/122 
f 122/122/122 123/123/123 123/123/123 
f 123/123/123 124/124/124 123/123/123 
f 123/123/123 124/124/124 124/124/124 
f 124/124/124 125/125/125 124/124/124 
f 124/124/124 125/125/125 126/126/126 
f 125/125/125 127/127/127 126/126/126 
f 126/126/126 127/127/127 127/127/127 
f 127/127/127 128/128/128 127/127/127 
f 127/127/127 128/128/128 128/128/128 
f 128/128/128 129/129/129 128/128/128 
f 128/128/128 129/129/129 130/130/130 
f 129/129/129 131/131/131 130/130/130 
f 130/130/130 131/131/131 132/132/132 
f 131/131/131 133/133/133 132/132/132 
f 132/132/132 133/133/133 134/134/134 
f 133/133/133 135/135/135 134/134/134 
f 134/134/134 135/135/135 135/135/135 
f 135/135/135 136/136/136 135/135/135 
f 135/135/135 136/136/136 136/136/136 
f 136/136/136 137/137/137 136/136/136 
f 136/136/136 137/137/137 138/138/138 
f 137/137/137 139/139/139 138/138/138 
f 138/138/138 139/139/139 139/139/139 
f 139/139/139 140/140/140 139/139/139 
f 139/139/139 140/140/140 140/140/140 
f 140/140/140 141/141/141 140/140/140 
f 140/140/140 141/141/141 142/142/142 
f 141/141/141 143/143/143 142/142/142 
f 142/142/142 143/143/143 143/143/143 
f 143/143/143 144/144/144 143/143/143 
f 143/143/143 144/144/144 144/144/144 
f 144/144/144 145/145/145 144/144/144 
f 144/144/144 145/145/145 146/146/146 
f 145/145/145 147/147/147 146/146/146 
f 146/146/146 147/147/147 147/147/147 
f 147/147/147 148/148/148 147/147/147 
f 147/147/147 148/148/148 148/148/148 
f 148/148/148 149/149/149 148/148/148 
f 148/148/148 149/149/149 150/150/150 
f 149/149/149 151/151/151 150/150/150 
f 150/150/150 151/151/151 151/151/151 
f 151/151/151 152/152/152 151/151/151 
f 151/151/151 152/152/152 152/152/152 
f 152/152/152 153/153/153 152/152/152 
f 152/152/152 153/153/153 154/154/154 
f 153/153/153 155/155/155 154/154/154 
f 154/154/154 155/155/155 155/155/155 
f 155/155/155 156/156/156 155/155/155 
f 155/155/155 156/156/156 156/156/156 
f 156/156/156 157/157/157 156/156/156 
f 156/156/156 157/157/157 158/158/158 
f 157/157/157 159/159/159 158/158/158 
f 158/158/158 159/159/159 159/159/159 
f 159/159/159 160/160/160 159/159/159 
f 159/159/159 160/160/160 160/160/160 
f 160/160/160 161/161/161 160/160/160 
f 160/160/160 161/161/161 162/162/162 
f 161/161/161 163/163/163 162/162/162 
f 162/162/162 163/163/163 163/163/163 
f 163/163/163 164/164/164 163/163/163 
f 163/163/163 164/164/164 164/164/164 
f 164/164/164 165/165/165 164/164/164 
f 164/164/164 165/165/165 166/166/166 
f 165/165/165 167/167/167 166/166/166 
f 166/166/166 167/167/167 167/167/167 
f 167/167/167 168/168/168 167/167/167 
f 167/167/167 168/168/168 168/168/168 
f 168/168/168 169/169/169 168/168/168 
f 168/168/168 169/169/169 170/170/170 
f 169/169/169 171/171/171 170/170/170 
f 170/170/170 171/171/171 171/171/171 
f 171/171/171 172/172/172 171/171/171 
f 171/171/171 172/172/172 172/172/172 
f 172/172/172 173/173/173 172/172/172 
f 172/172/172 173/173/173 174/174/174 
f 173/173/173 175/175/175 174/174/174 
f 174/174/174 175/175/175 175/175/175 
f 175/175/175 176/176/176 175/175/175 
f 175/175/175 176/176/176 176/176/176 
f 176/176/176 177/177/177 176/176/176 
f 176/176/176 177/177/177 178/178/178 
f 177/177/177 179/179/179 178/178/178 
f 178/178/178 179/179/179 179/179/179 
f 179/179/179 180/180/180 179/179/179 
f 179/179/179 180/180/180 180/180/180 
f 180/180/180 181/181/181 180/180/180 
f 180/180/180 181/181/181 182/182/182 
f 181/181/181 183/183/183 182/182/182 
f 182/182/182 183/183/183 183/183/183 
f 183/183/183 184/184/184 183/183/183 
f 183/183/183 184/184/184 184/184/184 
f 184/184/184 185/185/185 184/184/184 
f 184/184/184 185/185/185 186/186/186 
f 185/185/185 187/187/187 186/186/186 
f 186/186/186 187/187/187 187/187/187 
f 187/187/187 188/188/188 187/187/187 
f 187/187/187 188/188/188 188/188/188 
f 188/188/188 189/189/189 188/188/188 
f 188/188/188 189/189/189 190/190/190 
f 189/189/189 191/191/191 190/190/190 
f 190/190/190 191/191/191 191/191/191 
f 191/191/191 192/192/192 191/191/191 
f 191/191/191 192/192/192 192/192/192 
f 192/192/192 193/193/193 192/192/192 
f 192/192/192 193/193/193 194/194/194 
f 193/193/193 195/195/195 194/194/194 
f 194/194/194 195/195/195 195/195/195 
f 195/195/195 196/196/196 195/195/195 
f 195/195/195 196/196/196 196/196/196 
f 196/196/196 197/197/197 196/196/196 
f 196/196/196 197/197/197 198/198/198 
f 197/197/197 199/199/199 198/198/198 
f 198/198/198 199/199/199 199/199/199 
f 199/199/199 200/200/200 199/199/199 
f 199/199/199 200/200/200 200/200/200 
f 200/200/200 201/201/201 200/200/200 
f 200/200/200 201/201/201 202/202/202 
f 201/201/201 203/203/203 202/202/202 
f 202/202/202 203/203/203 203/203/203 
f 203/203/203 204/204/204 203/203/203 
f 203/203/203 204/204/204 204/204/204 
f 204/204/204 205/205/205 204/204/204 
f 204/204/204 205/205/205 206/206/206 
f 205/205/205 207/207/207 206/206/206 
f 206/206/206 207/207/207 207/207/207 
f 207/207/207 208/208/208 207/207/207 
f 207/207/207 208/208/208 208/208/208 
f 208/208/208 209/209/209 208/208/208 
f 208/208/208 209/209/209 210/210/210 
f 209/209/209 211/211/211 210/210/210 
f 210/210/210 211/211/211 212/212/212 
f 211/211/211 212/212/212 212/212/212 
f 212/212/212 212/212/212 213/213/213 
f 212/212/212 213/213/213 213/213/213 
f 213/213/213 213/213/213 213/213/213 
f 213/213/213 214/214/214 213/213/213 
f 213/213/213 214/214/214 215/215/215 
f 214/214/214 216/216/216 215/215/215 
f 215/215/215 216/216/216 216/216/216 
f 216/216/216 217/217/217 216/216/216 
f 216/216/216 217/217/217 217/217/217 
f 217/217/217 218/218/218 217/217/217 
f 217/217/217 218/218/218 219/219/219 
f 218/218/218 220/220/220 219/219/219 
f 219/219/219 220/220/220 220/220/220 
f 220/220/220 221/221/221 220/220/220 
f 220/220/220 221/221/221 221/221/221 
f 221/221/221 222/222/222 221/221/221 
f 221/221/221 222/222/222 223/223/223 
f 222/222/222 224/224/224 223/223/223 
f 223/223/223 224/224/224 224/224/224 
f 224/224/224 225/225/225 224/224/224 
f 224/224/224 225/225/225 225/225/225 
f 225/225/225 226/226/226 225/225/225 
f 225/225/225 226/226/226 227/227/227 
f 226/226/226 228/228/228 227/227/227 
f 227/227/227 228/228/228 228/228/228 
f 228/228/228 229/229/229 228/228/228 
f 228/228/228 229/229/229 229/229/229 
f 229/229/229 230/230/230 229/229/229 
f 229/229/229 230/230/230 231/231/231 
f 230/230/230 232/232/232 231/231/231 
f 231/231/231 232/232/232 232/232/232 
f 232/232/232 233/233/233 232/232/232 
f 232/232/232 233/233/233 233/233/233 
f 233/233/233 234/234/234 233/233/233 
f 233/233/233 234/234/234 235/235/235 
f 234/234/234 236/236/236 235/235/235 
f 235/235/235 236/236/236 236/236/236 
f 236/236/236 237/237/237 236/236/236 
f 236/236/236 237/237/237 237/237/237 
f 237/237/237 238/238/238 237/237/237 
f 237/237/237 238/238/238 239/239/239 
f 238/238/238 240/240/240 239/239/239 
f 239/239/239 240/240/240 240/240/240 
f 240/240/240 241/241/241 240/240/240 
f 240/240/240 241/241/241 241/241/241 
f 241/241/241 242/242/242 241/241/241 
f 241/241/241 242/242/242 243/243/243 
f 242/242/242 244/244/244 243/243/243 
f 243/243/243 244/244/244 244/244/244 
f 244/244/244 245/245/245 244/244/244 
f 244/244/244 245/245/245 245/245/245 
f 245/245/245 246/246/246 245/245/245 
f 245/245/245 246/246/246 247/247/247 
f 246/246/246 248/248/248 247/247/247 
f 247/247/247 248/248/248 248/248/248 
f 248/248/248 249/249/249 248/248/248 
f 248/248/248 249/249/249 249/249/249 
f 249/249/249 250/250/250 249/249/249 
f 249/249/249 250/250/250 251/251/251 
f 250/250/250 252/252/252 251/251/251 
f 251/251/251 252/252/252 252/252/252 
f 252/252/252 253/253/253 252/252/252 
f 252/252/252 253/253/253 253/253/253 
f 253/253/253 254/254/254 253/253/253 
f 253/253/253 254/254/254 255/255/255 
f 254/254/254 256/256/256 255/255/255 
f 255/255/255 256/256/256 256/256/256 
f 256/256/256 257/257/257 256/256/256 
f 256/256/256 257/257/257 257/257/257 
f 257/257/257 258/258/258 257/257/257 
f 257/257/257 258/258/258 259/259/259 
f 258/258/258 260/260/260 259/259/259 
f 259/259/259 260/260/260 260/260/260 
f 260/260/260 261/261/261 260/260/260 
f 260/260/260 261/261/261 261/261/261 
f 261/261/261 262/262/262 261/261/261 
f 261/261/261 262/262/262 263/263/263 
f 262/262/262 264/264/264 263/263/263 
f 263/263/263 264/264/264 264/264/264 
f 264/264/264 265/265/265 264/264/264 
f 264/264/264 265/265/265 265/265/265 
f 265/265/265 266/266/266 265/265/265 
f 265/265/265 266/266/266 267/267/267 
f 266/266/266 268/268/268 267/267/267 
f 267/267/267 268/268/268 269/269/269 
f 268/268/268 269/269/269 269/269/269 
f 269/269/269 269/269/269 270/270/270 
f 269/269/269 270/270/270 270/270/270 
f 270/270/270 270/270/270 270/270/270 
f 270/270/270 271/271/271 270/270/270 
f 270/270/270 271/271/271 272/272/272 
f 271/271/271 273/273/273 272/272/272 
f 272/272/272 273/273/273 273/273/273 
f 273/273/273 274/274/274 273/273/273 
f 273/273/273 274/274/274 274/274/274 
f 274/274/274 275/275/275 274/274/274 
f 274/274/274 275/275/275 276/276/276 
f 275/275/275 277/277/277 276/276/276 
f 276/276/276 277/277/277 277/277/277 
f 277/277/277 278/278/278 277/277/277 
f 277/277/277 278/278/278 278/278/278 
f 278/278/278 279/279/279 278/278/278 
f 278/278/278 279/279/279 280/280/280 
f 279/279/279 281/281/281 280/280/280 
f 280/280/280 281/281/281 281/281/281 
f 281/281/281 282/282/282 281/281/281 
f 281/281/281 282/282/282 282/282/282 
f 282/282/282 283/283/283 282/282/282 
f 282/282/282 283/283/283 284/284/284 
f 283/283/283 285/285/285 284/284/284 
f 284/284/284 285/285/285 285/285/285 
f 285/285/285 286/286/286 285/285/285 
f 285/285/285 286/286/286 286/286/286 
f 286/286/286 287/287/287 286/286/286 
f 286/286/286 287/287/287 288/288/288 
f 287/287/287 289/289/289 288/288/288 
f 288/288/288 289/289/289 289/289/289 
f 289/289/289 290/290/290 289/289/289 
f 289/289/289 290/290/290 290/290/290 
f 290/290/290 291/291/291 290/290/290 
f 290/290/290 291/291/291 292/292/292 
f 291/291/291 293/293/293 292/292/292 
f 292/292/292 293/293/293 294/294/294 
f 293/293/293 295/295/295 294/294/294 
f 294/294/294 295/295/295 295/295/295 
f 295/295/295 296/296/296 295/295/295 
f 295/295/295 296/296/296 296/296/296 
f 296/296/296 297/297/297 296/296/296 
f 296/296/296 297/297/297 298/298/298 
f 297/297/297 299/299/299 298/298/298 
f 298/298/298 299/299/299 299/299/299 
f 299/299/299 300/300/300 299/299/299 
f 299/299/299 300/300/300 300/300/300 
f 300/300/300 301/301/301 300/300/300 
f 300/300/300 301/301/301 302/302/302 
f 301/301/301 303/303/303 302/302/302 
f 302/302/302 303/303/303 303/303/303 
f 303/303/303 304/304/304 303/303/303 
f 303/303/303 304/304/304 304/304/304 
f 304/304/304 305/305/305 304/304/304 
f 304/304/304 305/305/305 306/306/306 
f 305/305/305 307/307/307 306/306/306 
f 306/306/306 307/307/307 307/307/307 
f 307/307/307 308/308/308 307/307/307 
f 307/307/307 308/308/308 308/308/308 
f 308/308/308 309/309/309 308/308/308 
f 308/308/308 309/309/309 310/310/310 
f 309/309/309 311/311/311 310/310/310 
f 310/310/310 311/311/311 311/311/311 
f 311/311/311 312/312/312 311/311/311 
f 311/311/311 312/312/312 312/312/312 
f 312/312/312 313/313/313 312/312/312 
f 312/312/312 313/313/313 314/314/314 
f 313/313/313 315/315/315 314/314/314 
f 314/314/314 315/315/315 315/315/315 
f 315/315/315 316/316/316 315/315/315 
f 315/315/315 316/316/316 316/316/316 
f 316/316/316 317/317/317 316/316/316 
f 316/316/316 317/317/317 318/318/318 
f 317/317/317 319/319/319 318/318/318 
f 318/318/318 319/319/319 319/319/319 
f 319/319/319 320/320/320 319/319/319 
f 319/319/319 320/320/320 320/320/320 
f 320/320/320 321/321/321 320/320/320 
f 320/320/320 321/321/321 322/322/322 
f 321/321/321 323/323/323 322/322/322 
f 322/322/322 323/323/323 324/324/324 
f 323/323/323 325/325/325 324/324/324 
f 324/324/324 325/325/325 326/326/326 
f 325/325/325 327/327/327 326/326/326 
f 326/326/326 327/327/327 327/327/327 
f 327/327/327 328/328/328 327/327/327 
f 327/327/327 328/328/328 328/328/328 
f 328/328/328 329/329/329 328/328/328 
f 328/328/328 329/329/329 330/330/330 
f 329/329/329 331/331/331 330/330/330 
f 330/330/330 331/331/331 331/331/331 
f 331/331/331 332/332/332 331/331/331 
f 331/331/331 332/332/332 332/332/332 
f 332/332/332 333/333/333 332/332/332 
f 332/332/332 333/333/333 334/334/334 
f 333/333/333 335/335/335 334/334/334 
f 334/334/334 335/335/335 335/335/335 
f 335/335/335 336/336/336 335/335/335 
f 335/335/335 336/336/336 336/336/336 
f 336/336/336 337/337/337 336/336/336 
f 336/336/336 337/337/337 338/338/338 
f 337/337/337 339/339/339 338/338/338 
f 338/338/338 339/339/339 339/339/339 
f 339/339/339 340/340/340 339/339/339 
f 339/339/339 340/340/340 340/340/340 
f 340/340/340 341/341/341 340/340/340 
f 340/340/340 341/341/341 342/342/342 
f 341/341/341 343/343/343 342/342/342 
f 342/342/342 343/343/343 344/344/344 
f 343/343/343 345/345/345 344/344/344 
f 344/344/344 345/345/345 346/346/346 
f 345/345/345 347/347/347 346/346/346 
f 346/346/346 347/347/347 348/348/348 
f 347/347/347 349/349/349 348/348/348 
f 348/348/348 349/349/349 349/349/349 
f 349/349/349 341/341/341 349/349/349 
f 349/349/349 341/341/341 341/341/341 
f 341/341/341 350/350/350 341/341/341 
f 341/341/341 350/350/350 343/343/343 
f 350/350/350 351/351/351 343/343/343 
f 343/343/343 351/351/351 345/345/345 
f 351/351/351 352/352/352 345/345/345 
f 345/345/345 352/352/352 347/347/347 
f 352/352/352 347/347/347 347/347/347 
f 347/347/347 347/347/347 353/353/353 
f 347/347/347 353/353/353 353/353/353 
f 353/353/353 353/353/353 353/353/353 
f 353/353/353 354/354/354 353/353/353 
f 353/353/353 354/354/354 355/355/355 
f 354/354/354 356/356/356 355/355/355 
f 355/355/355 356/356/356 356/356/356 
f 356/356/356 357/357/357 356/356/356 
f 356/356/356 357/357/357 357/357/357 
f 357/357/357 358/358/358 357/357/357 
f 357/357/357 358/358/358 359/359/359 
f 358/358/358 360/360/360 359/359/359 
f 359/359/359 360/360/360 360/360/360 
f 360/360/360 348/348/348 360/360/360 
f 360/360/360 348/348/348 348/348/348 
f 348/348/348 361/361/361 348/348/348 
f 348/348/348 361/361/361 346/346/346 
f 361/361/361 362/362/362 346/346/346 
f 346/346/346 362/362/362 344/344/344 
f 362/362/362 344/344/344 344/344/344 
f 344/344/344 344/344/344 363/363/363 
f 344/344/344 363/363/363 363/363/363 
f 363/363/363 363/363/363 363/363/363 
f 363/363/363 364/364/364 363/363/363 
f 363/363/363 364/364/364 365/365/365 
f 364/364/364 366/366/366 365/365/365 
f 365/365/365 366/366/366 366/366/366 
f 366/366/366 367/367/367 366/366/366 
f 366/366/366 367/367/367 367/367/367 
f 367/367/367 368/368/368 367/367/367 
f 367/367/367 368/368/368 369/369/369 
f 368/368/368 370/370/370 369/369/369 
f 369/369/369 370/370/370 370/370/370 
f 370/370/370 371/371/371 370/370/370 
f 370/370/370 371/371/371 371/371/371 
f 371/371/371 372/372/372 371/371/371 
f 371/371/371 372/372/372 373/373/373 
f 372/372/372 374/374/374 373/373/373 
f 373/373/373 374/374/374 374/374/374 
f 374/374/374 375/375/375 374/374/374 
f 374/374/374 375/375/375 375/375/375 
f 375/375/375 376/376/376 375/375/375 
f 375/375/375 376/376/376 377/377/377 
f 376/376/376 378/378/378 377/377/377 
f 377/377/377 378/378/378 378/378/378 
f 378/378/378 379/379/379 378/378/378 
f 378/378/378 379/379/379 379/379/379 
f 379/379/379 380/380/380 379/379/379 
f 379/379/379 380/380/380 381/381/381 
f 380/380/380 382/382/382 381/381/381 
f 383/383/383 384/384/384 385/385/385 
f 386/386/386 387/387/387 388/388/388 
f 70/70/70 389/389/389 71/71/71 
f 273/273/273 271/271/271 390/390/390 
f 40/40/40 38/38/38 391/391/391 
f 36/36/36 34/34/34 392/392/392 
f 24/24/24 22/22/22 393/393/393 

