mtllib model_0.mtl
o model_0
v 4599.994140625 25.000036239624023 100.19799041748047 
v 4599.994140625 24.999759674072266 -1599.9930419921875 
v 3100.6796875 25.000036239624023 100.19799041748047 
v 3100.6796875 24.999759674072266 -1599.9930419921875 
v -100 25.000036239624023 100.19799041748047 
v -100 24.999759674072266 -1599.9930419921875 
v -100 25.000200271606445 1100 
v 3100.6796875 25.000200271606445 1100 
v 4599.994140625 -24.999982833862305 100.197998046875 
v 4599.994140625 25.000036239624023 100.19799041748047 
v 3100.6796875 -24.999982833862305 100.197998046875 
v 3100.6796875 25.000036239624023 100.19799041748047 
v 3100.6796875 25.000200271606445 1100 
v 3100.6796875 -24.999820709228516 1100 
v 3100.6796875 25.000036239624023 100.19799041748047 
v 3100.6796875 -24.999982833862305 100.197998046875 
v 4599.994140625 -25.000261306762695 -1599.9930419921875 
v 4599.994140625 24.999759674072266 -1599.9930419921875 
v 4599.994140625 -24.999982833862305 100.197998046875 
v 4599.994140625 25.000036239624023 100.19799041748047 
v 3100.6796875 -24.999820709228516 1100 
v -100 -24.999820709228516 1100 
v 3100.6796875 -24.999982833862305 100.197998046875 
v -100 -24.999982833862305 100.197998046875 
v 3100.6796875 -25.000261306762695 -1599.9930419921875 
v -100 -25.000261306762695 -1599.9930419921875 
v 4599.994140625 -25.000261306762695 -1599.9930419921875 
v 4599.994140625 -24.999982833862305 100.197998046875 
v -100 25.000200271606445 1100 
v -100 -24.999820709228516 1100 
v 3100.6796875 25.000200271606445 1100 
v 3100.6796875 -24.999820709228516 1100 
v -100 -24.999820709228516 1100 
v -100 25.000200271606445 1100 
v -100 -24.999982833862305 100.197998046875 
v -100 25.000036239624023 100.19799041748047 
v -100 -25.000261306762695 -1599.9930419921875 
v -100 24.999759674072266 -1599.9930419921875 
v 4599.994140625 24.999759674072266 -1599.9930419921875 
v 4599.994140625 -25.000261306762695 -1599.9930419921875 
v 3100.6796875 24.999759674072266 -1599.9930419921875 
v 3100.6796875 -25.000261306762695 -1599.9930419921875 
v -100 24.999759674072266 -1599.9930419921875 
v -100 -25.000261306762695 -1599.9930419921875 
vn 0 0.009999999776482582 -1.629209989140179e-9 
vn 0 0.009999999776482582 -1.629209989140179e-9 
vn 0 0.009999999776482582 -1.629209989140179e-9 
vn 0 0.009999999776482582 -1.629209989140179e-9 
vn 0 0.009999999776482582 -1.629209989140179e-9 
vn 0 0.009999999776482582 -1.629209989140179e-9 
vn 0 0.009999999776482582 -1.629209989140179e-9 
vn 0 0.009999999776482582 -1.629209989140179e-9 
vn 3.097898490739357e-15 0.000021848571122973226 0.009999976493418217 
vn 3.097898490739357e-15 0.000021848571122973226 0.009999976493418217 
vn 3.097898490739357e-15 0.000021848571122973226 0.009999976493418217 
vn 3.097898490739357e-15 0.000021848571122973226 0.009999976493418217 
vn 0.009999976493418217 0.00002184694130846765 -3.5593255773291865e-12 
vn 0.009999976493418217 0.00002184694130846765 -3.5593255773291865e-12 
vn 0.009999976493418217 0.00002184694130846765 -3.5593255773291865e-12 
vn 0.009999976493418217 0.00002184694130846765 -3.5593255773291865e-12 
vn 0.009999976493418217 0.00002184694130846765 -3.5593255773291865e-12 
vn 0.009999976493418217 0.00002184694130846765 -3.5593255773291865e-12 
vn 0.009999976493418217 0.00002184694130846765 -3.5593255773291865e-12 
vn 0.009999976493418217 0.00002184694130846765 -3.5593255773291865e-12 
vn -2.068231052255163e-15 -0.009999999776482582 1.629209989140179e-9 
vn -2.068231052255163e-15 -0.009999999776482582 1.629209989140179e-9 
vn -2.068231052255163e-15 -0.009999999776482582 1.629209989140179e-9 
vn -2.068231052255163e-15 -0.009999999776482582 1.629209989140179e-9 
vn -2.068231052255163e-15 -0.009999999776482582 1.629209989140179e-9 
vn -2.068231052255163e-15 -0.009999999776482582 1.629209989140179e-9 
vn -2.068231052255163e-15 -0.009999999776482582 1.629209989140179e-9 
vn -2.068231052255163e-15 -0.009999999776482582 1.629209989140179e-9 
vn 3.097898490739357e-15 0.000021848571122973226 0.009999976493418217 
vn 3.097898490739357e-15 0.000021848571122973226 0.009999976493418217 
vn 3.097898490739357e-15 0.000021848571122973226 0.009999976493418217 
vn 3.097898490739357e-15 0.000021848571122973226 0.009999976493418217 
vn -0.009999976493418217 0.00002184694130846765 -3.557257353264953e-12 
vn -0.009999976493418217 0.00002184694130846765 -3.557257353264953e-12 
vn -0.009999976493418217 0.00002184694130846765 -3.557257353264953e-12 
vn -0.009999976493418217 0.00002184694130846765 -3.557257353264953e-12 
vn -0.009999976493418217 0.00002184694130846765 -3.557257353264953e-12 
vn -0.009999976493418217 0.00002184694130846765 -3.557257353264953e-12 
vn -1.0341130909078582e-15 0.000021845313312951475 -0.009999976493418217 
vn -1.0341130909078582e-15 0.000021845313312951475 -0.009999976493418217 
vn -1.0341130909078582e-15 0.000021845313312951475 -0.009999976493418217 
vn -1.0341130909078582e-15 0.000021845313312951475 -0.009999976493418217 
vn -1.0341130909078582e-15 0.000021845313312951475 -0.009999976493418217 
vn -1.0341130909078582e-15 0.000021845313312951475 -0.009999976493418217 
vt 3.012500286102295 0.3279483914375305 
vt 3.012500286102295 2.0279428958892822 
vt 1.512436032295227 0.3279483914375305 
vt 1.512436032295227 2.0279428958892822 
vt -1.6875 0.3279483914375305 
vt -1.6875 2.0279428958892822 
vt -1.6875 -0.6720579862594604 
vt 1.512436032295227 -0.6720579862594604 
vt 3.012500286102295 0.3279483914375305 
vt 3.012500286102295 0.3279483914375305 
vt 1.512436032295227 0.3279483914375305 
vt 1.512436032295227 0.3279483914375305 
vt 1.512436032295227 -0.6720579862594604 
vt 1.512436032295227 -0.6720579862594604 
vt 1.512436032295227 0.3279483914375305 
vt 1.512436032295227 0.3279483914375305 
vt 3.012500286102295 2.0279428958892822 
vt 3.012500286102295 2.0279428958892822 
vt 3.012500286102295 0.3279483914375305 
vt 3.012500286102295 0.3279483914375305 
vt 1.512436032295227 -0.6720579862594604 
vt -1.6875 -0.6720579862594604 
vt 1.512436032295227 0.3279483914375305 
vt -1.6875 0.3279483914375305 
vt 1.512436032295227 2.0279428958892822 
vt -1.6875 2.0279428958892822 
vt 3.012500286102295 2.0279428958892822 
vt 3.012500286102295 0.3279483914375305 
vt -1.6875 -0.6720579862594604 
vt -1.6875 -0.6720579862594604 
vt 1.512436032295227 -0.6720579862594604 
vt 1.512436032295227 -0.6720579862594604 
vt -1.6875 -0.6720579862594604 
vt -1.6875 -0.6720579862594604 
vt -1.6875 0.3279483914375305 
vt -1.6875 0.3279483914375305 
vt -1.6875 2.0279428958892822 
vt -1.6875 2.0279428958892822 
vt 3.012500286102295 2.0279428958892822 
vt 3.012500286102295 2.0279428958892822 
vt 1.512436032295227 2.0279428958892822 
vt 1.512436032295227 2.0279428958892822 
vt -1.6875 2.0279428958892822 
vt -1.6875 2.0279428958892822 
s on 
f 1/1/1 2/2/2 3/3/3 
f 2/2/2 4/4/4 3/3/3 
f 3/3/3 4/4/4 5/5/5 
f 4/4/4 6/6/6 5/5/5 
f 5/5/5 6/6/6 6/6/6 
f 6/6/6 5/5/5 6/6/6 
f 6/6/6 5/5/5 5/5/5 
f 5/5/5 7/7/7 5/5/5 
f 5/5/5 7/7/7 3/3/3 
f 7/7/7 8/8/8 3/3/3 
f 3/3/3 8/8/8 8/8/8 
f 8/8/8 9/9/9 8/8/8 
f 8/8/8 9/9/9 9/9/9 
f 9/9/9 10/10/10 9/9/9 
f 9/9/9 10/10/10 11/11/11 
f 10/10/10 12/12/12 11/11/11 
f 11/11/11 12/12/12 12/12/12 
f 12/12/12 13/13/13 12/12/12 
f 12/12/12 13/13/13 13/13/13 
f 13/13/13 14/14/14 13/13/13 
f 13/13/13 14/14/14 15/15/15 
f 14/14/14 16/16/16 15/15/15 
f 15/15/15 16/16/16 16/16/16 
f 16/16/16 17/17/17 16/16/16 
f 16/16/16 17/17/17 17/17/17 
f 17/17/17 18/18/18 17/17/17 
f 17/17/17 18/18/18 19/19/19 
f 18/18/18 20/20/20 19/19/19 
f 19/19/19 20/20/20 20/20/20 
f 20/20/20 21/21/21 20/20/20 
f 20/20/20 21/21/21 21/21/21 
f 21/21/21 22/22/22 21/21/21 
f 21/21/21 22/22/22 23/23/23 
f 22/22/22 24/24/24 23/23/23 
f 23/23/23 24/24/24 25/25/25 
f 24/24/24 26/26/26 25/25/25 
f 25/25/25 26/26/26 26/26/26 
f 26/26/26 25/25/25 26/26/26 
f 26/26/26 25/25/25 25/25/25 
f 25/25/25 27/27/27 25/25/25 
f 25/25/25 27/27/27 23/23/23 
f 27/27/27 28/28/28 23/23/23 
f 23/23/23 28/28/28 28/28/28 
f 28/28/28 29/29/29 28/28/28 
f 28/28/28 29/29/29 29/29/29 
f 29/29/29 30/30/30 29/29/29 
f 29/29/29 30/30/30 31/31/31 
f 30/30/30 32/32/32 31/31/31 
f 31/31/31 32/32/32 32/32/32 
f 32/32/32 33/33/33 32/32/32 
f 32/32/32 33/33/33 33/33/33 
f 33/33/33 34/34/34 33/33/33 
f 33/33/33 34/34/34 35/35/35 
f 34/34/34 36/36/36 35/35/35 
f 35/35/35 36/36/36 37/37/37 
f 36/36/36 38/38/38 37/37/37 
f 37/37/37 38/38/38 38/38/38 
f 38/38/38 39/39/39 38/38/38 
f 38/38/38 39/39/39 39/39/39 
f 39/39/39 40/40/40 39/39/39 
f 39/39/39 40/40/40 41/41/41 
f 40/40/40 42/42/42 41/41/41 
f 41/41/41 42/42/42 43/43/43 
f 42/42/42 44/44/44 43/43/43 

