mtllib model_1.mtl
o model_1
v 1.8430671691894531 -46.86473083496094 0 
v 1.8430671691894531 -37.491783142089844 0 
v 0.9215335845947266 -46.86473083496094 0 
v 0.9215335845947266 -37.491783142089844 0 
v 0 -46.86473083496094 0 
v 0 -37.491783142089844 0 
v -0.9215335845947266 -46.86473083496094 0 
v -0.9215335845947266 -37.491783142089844 0 
v -1.8430671691894531 -46.86473083496094 0 
v -1.8430671691894531 -37.491783142089844 0 
v 1.8430671691894531 -28.118837356567383 0 
v 0.9215335845947266 -28.118837356567383 0 
v 0 -28.118837356567383 0 
v -0.9215335845947266 -28.118837356567383 0 
v -1.8430671691894531 -28.118837356567383 0 
v 1.8430671691894531 -18.745891571044922 0 
v 0.9215335845947266 -18.745891571044922 0 
v 0 -18.745891571044922 0 
v -0.9215335845947266 -18.745891571044922 0 
v -1.8430671691894531 -18.745891571044922 0 
v 1.8430671691894531 -9.372945785522461 0 
v 0.9215335845947266 -9.372945785522461 0 
v 0 -9.372945785522461 0 
v -0.9215335845947266 -9.372945785522461 0 
v -1.8430671691894531 -9.372945785522461 0 
v 1.8430671691894531 0 0 
v 0.9215335845947266 0 0 
v 0 0 0 
v -0.9215335845947266 0 0 
v -1.8430671691894531 0 0 
v 1.8430671691894531 9.372945785522461 0 
v 0.9215335845947266 9.372945785522461 0 
v 0 9.372945785522461 0 
v -0.9215335845947266 9.372945785522461 0 
v -1.8430671691894531 9.372945785522461 0 
v 1.8430671691894531 18.745891571044922 0 
v 0.9215335845947266 18.745891571044922 0 
v 0 18.745891571044922 0 
v -0.9215335845947266 18.745891571044922 0 
v -1.8430671691894531 18.745891571044922 0 
v 1.8430671691894531 28.118837356567383 0 
v 0.9215335845947266 28.118837356567383 0 
v 0 28.118837356567383 0 
v -0.9215335845947266 28.118837356567383 0 
v -1.8430671691894531 28.118837356567383 0 
v 1.8430671691894531 37.491783142089844 0 
v 0.9215335845947266 37.491783142089844 0 
v 0 37.491783142089844 0 
v -0.9215335845947266 37.491783142089844 0 
v -1.8430671691894531 37.491783142089844 0 
v 1.8430671691894531 46.86473083496094 0 
v 0.9215335845947266 46.86473083496094 0 
v 0 46.86473083496094 0 
v -0.9215335845947266 46.86473083496094 0 
v -1.8430671691894531 46.86473083496094 0 
vn 0 0 1 
vn 0 0 1 
vn 0 0 1 
vn 0 0 1 
vn 0 0 1 
vn 0 0 1 
vn 0 0 1 
vn 0 0 1 
vn 0 0 1 
vn 0 0 1 
vn 0 0 1 
vn 0 0 1 
vn 0 0 1 
vn 0 0 1 
vn 0 0 1 
vn 0 0 1 
vn 0 0 1 
vn 0 0 1 
vn 0 0 1 
vn 0 0 1 
vn 0 0 1 
vn 0 0 1 
vn 0 0 1 
vn 0 0 1 
vn 0 0 1 
vn 0 0 1 
vn 0 0 1 
vn 0 0 1 
vn 0 0 1 
vn 0 0 1 
vn 0 0 1 
vn 0 0 1 
vn 0 0 1 
vn 0 0 1 
vn 0 0 1 
vn 0 0 1 
vn 0 0 1 
vn 0 0 1 
vn 0 0 1 
vn 0 0 1 
vn 0 0 1 
vn 0 0 1 
vn 0 0 1 
vn 0 0 1 
vn 0 0 1 
vn 0 0 1 
vn 0 0 1 
vn 0 0 1 
vn 0 0 1 
vn 0 0 1 
vn 0 0 1 
vn 0 0 1 
vn 0 0 1 
vn 0 0 1 
vn 0 0 1 
vt 10.918044090270996 42.007259368896484 
vt 8.922699928283691 42.007259368896484 
vt 10.918044090270996 41.74744415283203 
vt 8.922699928283691 41.74744415283203 
vt 10.918044090270996 41.48762512207031 
vt 8.922699928283691 41.48762512207031 
vt 10.918044090270996 41.22781753540039 
vt 8.922699928283691 41.22781753540039 
vt 10.918044090270996 40.96799850463867 
vt 8.922699928283691 40.96799850463867 
vt 6.9273552894592285 42.007259368896484 
vt 6.9273552894592285 41.74744415283203 
vt 6.9273552894592285 41.48762512207031 
vt 6.9273552894592285 41.22781753540039 
vt 6.9273552894592285 40.96799850463867 
vt 4.932011127471924 42.007259368896484 
vt 4.932011127471924 41.74744415283203 
vt 4.932011127471924 41.48762512207031 
vt 4.932011127471924 41.22781753540039 
vt 4.932011127471924 40.96799850463867 
vt 2.9366672039031982 42.007259368896484 
vt 2.9366672039031982 41.74744415283203 
vt 2.9366672039031982 41.48762512207031 
vt 2.9366672039031982 41.22781753540039 
vt 2.9366672039031982 40.96799850463867 
vt 0.9413229823112488 42.007259368896484 
vt 0.9413229823112488 41.74744415283203 
vt 0.9413229823112488 41.48762512207031 
vt 0.9413229823112488 41.22781753540039 
vt 0.9413229823112488 40.96799850463867 
vt -1.054173469543457 42.007259368896484 
vt -1.054173469543457 41.74744415283203 
vt -1.054173469543457 41.48762512207031 
vt -1.054173469543457 41.22781753540039 
vt -1.054173469543457 40.96799850463867 
vt -3.0495176315307617 42.007259368896484 
vt -3.0495176315307617 41.74744415283203 
vt -3.0495176315307617 41.48762512207031 
vt -3.0495176315307617 41.22781753540039 
vt -3.0495176315307617 40.96799850463867 
vt -5.044861793518066 42.007259368896484 
vt -5.044861793518066 41.74744415283203 
vt -5.044861793518066 41.48762512207031 
vt -5.044861793518066 41.22781753540039 
vt -5.044861793518066 40.96799850463867 
vt -7.040205955505371 42.007259368896484 
vt -7.040205955505371 41.74744415283203 
vt -7.040205955505371 41.48762512207031 
vt -7.040205955505371 41.22781753540039 
vt -7.040205955505371 40.96799850463867 
vt -9.035550117492676 42.007259368896484 
vt -9.035550117492676 41.74744415283203 
vt -9.035550117492676 41.48762512207031 
vt -9.035550117492676 41.22781753540039 
vt -9.035550117492676 40.96799850463867 
s on 
f 1/1/1 2/2/2 3/3/3 
f 2/2/2 4/4/4 3/3/3 
f 3/3/3 4/4/4 5/5/5 
f 4/4/4 6/6/6 5/5/5 
f 5/5/5 6/6/6 7/7/7 
f 6/6/6 8/8/8 7/7/7 
f 7/7/7 8/8/8 9/9/9 
f 8/8/8 10/10/10 9/9/9 
f 9/9/9 10/10/10 10/10/10 
f 10/10/10 2/2/2 10/10/10 
f 10/10/10 2/2/2 2/2/2 
f 2/2/2 11/11/11 2/2/2 
f 2/2/2 11/11/11 4/4/4 
f 11/11/11 12/12/12 4/4/4 
f 4/4/4 12/12/12 6/6/6 
f 12/12/12 13/13/13 6/6/6 
f 6/6/6 13/13/13 8/8/8 
f 13/13/13 14/14/14 8/8/8 
f 8/8/8 14/14/14 10/10/10 
f 14/14/14 15/15/15 10/10/10 
f 10/10/10 15/15/15 15/15/15 
f 15/15/15 11/11/11 15/15/15 
f 15/15/15 11/11/11 11/11/11 
f 11/11/11 16/16/16 11/11/11 
f 11/11/11 16/16/16 12/12/12 
f 16/16/16 17/17/17 12/12/12 
f 12/12/12 17/17/17 13/13/13 
f 17/17/17 18/18/18 13/13/13 
f 13/13/13 18/18/18 14/14/14 
f 18/18/18 19/19/19 14/14/14 
f 14/14/14 19/19/19 15/15/15 
f 19/19/19 20/20/20 15/15/15 
f 15/15/15 20/20/20 20/20/20 
f 20/20/20 16/16/16 20/20/20 
f 20/20/20 16/16/16 16/16/16 
f 16/16/16 21/21/21 16/16/16 
f 16/16/16 21/21/21 17/17/17 
f 21/21/21 22/22/22 17/17/17 
f 17/17/17 22/22/22 18/18/18 
f 22/22/22 23/23/23 18/18/18 
f 18/18/18 23/23/23 19/19/19 
f 23/23/23 24/24/24 19/19/19 
f 19/19/19 24/24/24 20/20/20 
f 24/24/24 25/25/25 20/20/20 
f 20/20/20 25/25/25 25/25/25 
f 25/25/25 21/21/21 25/25/25 
f 25/25/25 21/21/21 21/21/21 
f 21/21/21 26/26/26 21/21/21 
f 21/21/21 26/26/26 22/22/22 
f 26/26/26 27/27/27 22/22/22 
f 22/22/22 27/27/27 23/23/23 
f 27/27/27 28/28/28 23/23/23 
f 23/23/23 28/28/28 24/24/24 
f 28/28/28 29/29/29 24/24/24 
f 24/24/24 29/29/29 25/25/25 
f 29/29/29 30/30/30 25/25/25 
f 25/25/25 30/30/30 30/30/30 
f 30/30/30 26/26/26 30/30/30 
f 30/30/30 26/26/26 26/26/26 
f 26/26/26 31/31/31 26/26/26 
f 26/26/26 31/31/31 27/27/27 
f 31/31/31 32/32/32 27/27/27 
f 27/27/27 32/32/32 28/28/28 
f 32/32/32 33/33/33 28/28/28 
f 28/28/28 33/33/33 29/29/29 
f 33/33/33 34/34/34 29/29/29 
f 29/29/29 34/34/34 30/30/30 
f 34/34/34 35/35/35 30/30/30 
f 30/30/30 35/35/35 35/35/35 
f 35/35/35 31/31/31 35/35/35 
f 35/35/35 31/31/31 31/31/31 
f 31/31/31 36/36/36 31/31/31 
f 31/31/31 36/36/36 32/32/32 
f 36/36/36 37/37/37 32/32/32 
f 32/32/32 37/37/37 33/33/33 
f 37/37/37 38/38/38 33/33/33 
f 33/33/33 38/38/38 34/34/34 
f 38/38/38 39/39/39 34/34/34 
f 34/34/34 39/39/39 35/35/35 
f 39/39/39 40/40/40 35/35/35 
f 35/35/35 40/40/40 40/40/40 
f 40/40/40 36/36/36 40/40/40 
f 40/40/40 36/36/36 36/36/36 
f 36/36/36 41/41/41 36/36/36 
f 36/36/36 41/41/41 37/37/37 
f 41/41/41 42/42/42 37/37/37 
f 37/37/37 42/42/42 38/38/38 
f 42/42/42 43/43/43 38/38/38 
f 38/38/38 43/43/43 39/39/39 
f 43/43/43 44/44/44 39/39/39 
f 39/39/39 44/44/44 40/40/40 
f 44/44/44 45/45/45 40/40/40 
f 40/40/40 45/45/45 45/45/45 
f 45/45/45 41/41/41 45/45/45 
f 45/45/45 41/41/41 41/41/41 
f 41/41/41 46/46/46 41/41/41 
f 41/41/41 46/46/46 42/42/42 
f 46/46/46 47/47/47 42/42/42 
f 42/42/42 47/47/47 43/43/43 
f 47/47/47 48/48/48 43/43/43 
f 43/43/43 48/48/48 44/44/44 
f 48/48/48 49/49/49 44/44/44 
f 44/44/44 49/49/49 45/45/45 
f 49/49/49 50/50/50 45/45/45 
f 45/45/45 50/50/50 50/50/50 
f 50/50/50 46/46/46 50/50/50 
f 50/50/50 46/46/46 46/46/46 
f 46/46/46 51/51/51 46/46/46 
f 46/46/46 51/51/51 47/47/47 
f 51/51/51 52/52/52 47/47/47 
f 47/47/47 52/52/52 48/48/48 
f 52/52/52 53/53/53 48/48/48 
f 48/48/48 53/53/53 49/49/49 
f 53/53/53 54/54/54 49/49/49 
f 49/49/49 54/54/54 50/50/50 
f 54/54/54 55/55/55 50/50/50 

