mtllib model_6.mtl
o model_6
v 187.28500366210938 -94.55855560302734 7.627912998199463 
v 187.28501892089844 -99.0973129272461 7.627912998199463 
v 187.73126220703125 -94.55854797363281 7.627912998199463 
v 187.73126220703125 -99.0973129272461 7.627912998199463 
v 188.177490234375 -94.55854797363281 7.627912998199463 
v 188.17750549316406 -99.0973129272461 7.627912998199463 
v 188.62374877929688 -94.55854797363281 7.627912998199463 
v 188.62374877929688 -99.0973129272461 7.627912998199463 
v 189.06997680664062 -94.55854797363281 7.627912998199463 
v 189.06997680664062 -99.09730529785156 7.627912998199463 
v 187.73126220703125 -90.01980590820312 7.627913475036621 
v 187.73126220703125 -85.48106384277344 7.627913951873779 
v 187.28500366210938 -90.01980590820312 7.627913475036621 
v 187.28501892089844 -85.48106384277344 7.627913951873779 
v 187.2850341796875 -76.403564453125 7.6279144287109375 
v 187.2850341796875 -80.94230651855469 7.6279144287109375 
v 187.73126220703125 -76.403564453125 7.6279144287109375 
v 187.73126220703125 -80.94230651855469 7.6279144287109375 
v 188.17750549316406 -76.403564453125 7.6279144287109375 
v 188.17750549316406 -80.94231414794922 7.6279144287109375 
v 188.62374877929688 -76.403564453125 7.6279144287109375 
v 188.62374877929688 -80.94231414794922 7.6279144287109375 
v 189.0699920654297 -76.403564453125 7.6279144287109375 
v 189.0699920654297 -80.94231414794922 7.6279144287109375 
v 179.8197479248047 -68.65853881835938 7.597496032714844 
v 184.35848999023438 -68.65853881835938 7.5974955558776855 
v 179.8197479248047 -68.2131118774414 7.570510387420654 
v 184.35848999023438 -68.21311950683594 7.570509910583496 
v 175.281005859375 -69.99482727050781 7.678452968597412 
v 179.81976318359375 -69.99481964111328 7.678452491760254 
v 175.281005859375 -69.54939270019531 7.651467323303223 
v 179.8197479248047 -69.54939270019531 7.651467323303223 
v 170.7422637939453 -69.10397338867188 7.624483108520508 
v 175.281005859375 -69.10397338867188 7.624482154846191 
v 170.7422637939453 -68.6585464477539 7.597497463226318 
v 175.281005859375 -68.6585464477539 7.59749698638916 
v 179.8197479248047 -68.2131118774414 7.570510387420654 
v 175.281005859375 -68.21311950683594 7.570511341094971 
v 179.8197479248047 -68.65853881835938 7.597496032714844 
v 175.281005859375 -68.6585464477539 7.59749698638916 
v 179.8197479248047 -69.10396575927734 7.624481678009033 
v 184.35848999023438 -69.10396575927734 7.624480724334717 
v 179.8197479248047 -68.65853881835938 7.597496032714844 
v 184.35848999023438 -68.65853881835938 7.5974955558776855 
v 184.35848999023438 -69.54939270019531 7.651466369628906 
v 179.8197479248047 -69.54939270019531 7.651467323303223 
v 184.35848999023438 -69.99481964111328 7.6784515380859375 
v 179.81976318359375 -69.99481964111328 7.678452491760254 
v 179.8197479248047 -68.65853881835938 7.597496032714844 
v 175.281005859375 -68.6585464477539 7.59749698638916 
v 179.8197479248047 -69.10396575927734 7.624481678009033 
v 175.281005859375 -69.10397338867188 7.624482154846191 
v 188.1761932373047 -71.53579711914062 7.616779327392578 
v 184.35848999023438 -68.21311950683594 7.570509910583496 
v 187.81674194335938 -71.80018615722656 7.6220197677612305 
v 184.35848999023438 -68.65853881835938 7.5974955558776855 
v 187.81674194335938 -71.80018615722656 7.6220197677612305 
v 184.35848999023438 -68.65853881835938 7.5974955558776855 
v 187.45729064941406 -72.06455993652344 7.627260208129883 
v 184.35848999023438 -69.10396575927734 7.624480724334717 
v 187.09783935546875 -72.32894897460938 7.632501125335693 
v 184.35848999023438 -69.54939270019531 7.651466369628906 
v 186.73838806152344 -72.59333038330078 7.637742042541504 
v 184.35848999023438 -69.99481964111328 7.6784515380859375 
v 184.35848999023438 -69.10396575927734 7.624480724334717 
v 179.8197479248047 -69.10396575927734 7.624481678009033 
v 184.35848999023438 -69.54939270019531 7.651466369628906 
v 179.8197479248047 -69.54939270019531 7.651467323303223 
v 175.281005859375 -69.54939270019531 7.651467323303223 
v 170.7422637939453 -69.54940032958984 7.651468276977539 
v 175.281005859375 -69.99482727050781 7.678452968597412 
v 170.7422637939453 -69.99482727050781 7.6784539222717285 
v 188.62374877929688 -76.403564453125 7.6279144287109375 
v 187.81674194335938 -71.80018615722656 7.6220197677612305 
v 188.17750549316406 -76.403564453125 7.6279144287109375 
v 187.45729064941406 -72.06455993652344 7.627260208129883 
v 188.17750549316406 -76.403564453125 7.6279144287109375 
v 187.45729064941406 -72.06455993652344 7.627260208129883 
v 187.73126220703125 -76.403564453125 7.6279144287109375 
v 187.09783935546875 -72.32894897460938 7.632501125335693 
v 170.7422637939453 -68.6585464477539 7.597497463226318 
v 175.281005859375 -68.6585464477539 7.59749698638916 
v 170.7422637939453 -68.21311950683594 7.570511817932129 
v 175.281005859375 -68.21311950683594 7.570511341094971 
v 179.8197479248047 -69.10396575927734 7.624481678009033 
v 175.281005859375 -69.10397338867188 7.624482154846191 
v 179.8197479248047 -69.54939270019531 7.651467323303223 
v 175.281005859375 -69.54939270019531 7.651467323303223 
v 187.73126220703125 -85.48106384277344 7.627913951873779 
v 187.73126220703125 -90.01980590820312 7.627913475036621 
v 188.17750549316406 -85.48106384277344 7.627913951873779 
v 188.177490234375 -90.01980590820312 7.627913475036621 
v 186.73838806152344 -72.59333038330078 7.637742042541504 
v 187.2850341796875 -76.403564453125 7.6279144287109375 
v 187.09783935546875 -72.32894897460938 7.632501125335693 
v 187.73126220703125 -76.403564453125 7.6279144287109375 
v 188.17750549316406 -80.94231414794922 7.6279144287109375 
v 188.17750549316406 -85.48106384277344 7.627913951873779 
v 188.62374877929688 -80.94231414794922 7.6279144287109375 
v 188.62374877929688 -85.48106384277344 7.627913951873779 
v 189.0699920654297 -80.94231414794922 7.6279144287109375 
v 189.06997680664062 -85.48106384277344 7.627913951873779 
v 189.06997680664062 -94.55854797363281 7.627912998199463 
v 189.06997680664062 -90.01980590820312 7.627913475036621 
v 188.62374877929688 -94.55854797363281 7.627912998199463 
v 188.62374877929688 -90.01980590820312 7.627913475036621 
v 188.177490234375 -94.55854797363281 7.627912998199463 
v 188.177490234375 -90.01980590820312 7.627913475036621 
v 187.73126220703125 -94.55854797363281 7.627912998199463 
v 189.06997680664062 -85.48106384277344 7.627913951873779 
v 188.62374877929688 -85.48106384277344 7.627913951873779 
v 188.17750549316406 -85.48106384277344 7.627913951873779 
v 187.81674194335938 -71.80018615722656 7.6220197677612305 
v 188.62374877929688 -76.403564453125 7.6279144287109375 
v 188.1761932373047 -71.53579711914062 7.616779327392578 
v 189.0699920654297 -76.403564453125 7.6279144287109375 
v 187.28500366210938 -90.01980590820312 7.627913475036621 
v 187.28500366210938 -94.55855560302734 7.627912998199463 
v 187.73126220703125 -90.01980590820312 7.627913475036621 
v 187.73126220703125 -94.55854797363281 7.627912998199463 
v 187.2850341796875 -80.94230651855469 7.6279144287109375 
v 187.28501892089844 -85.48106384277344 7.627913951873779 
v 187.73126220703125 -80.94230651855469 7.6279144287109375 
v 187.73126220703125 -85.48106384277344 7.627913951873779 
v 184.35848999023438 -69.54939270019531 7.651466369628906 
v 187.09783935546875 -72.32894897460938 7.632501125335693 
v 184.35848999023438 -69.10396575927734 7.624480724334717 
v 187.45729064941406 -72.06455993652344 7.627260208129883 
v 170.7422637939453 -69.54940032958984 7.651468276977539 
v 175.281005859375 -69.54939270019531 7.651467323303223 
v 170.7422637939453 -69.10397338867188 7.624483108520508 
v 175.281005859375 -69.10397338867188 7.624482154846191 
v 188.17750549316406 -85.48106384277344 7.627913951873779 
v 188.17750549316406 -80.94231414794922 7.6279144287109375 
v 187.73126220703125 -85.48106384277344 7.627913951873779 
v 187.73126220703125 -80.94230651855469 7.6279144287109375 
vn 0 0 1 
vn 0 0 1 
vn 0 0 1 
vn 0 0 1 
vn 0 0 1 
vn 0 0 1 
vn 0 0 1 
vn 0 0 1 
vn 0 0 1 
vn 0 0 1 
vn 0 0 1 
vn 0 0 1 
vn 0 0 1 
vn 0 0 1 
vn 0 0 1 
vn 0 0 1 
vn 0 0 1 
vn 0 0 1 
vn 0 0 1 
vn 0 0 1 
vn 0 0 1 
vn 0 0 1 
vn 0 0 1 
vn 0 0 1 
vn -6.321893929303515e-15 0.06113334000110626 0.9981296062469482 
vn -6.321893929303515e-15 0.06113334000110626 0.9981296062469482 
vn -6.321893929303515e-15 0.06113334000110626 0.9981296062469482 
vn -6.321893929303515e-15 0.06113334000110626 0.9981296062469482 
vn -6.321893929303515e-15 0.06113334000110626 0.9981296062469482 
vn -6.321893929303515e-15 0.06113334000110626 0.9981296062469482 
vn -6.321893929303515e-15 0.06113334000110626 0.9981296062469482 
vn -6.321893929303515e-15 0.06113334000110626 0.9981296062469482 
vn -6.321893929303515e-15 0.06113334000110626 0.9981296062469482 
vn -6.321893929303515e-15 0.06113334000110626 0.9981296062469482 
vn -6.321893929303515e-15 0.06113334000110626 0.9981296062469482 
vn -6.321893929303515e-15 0.06113334000110626 0.9981296062469482 
vn -6.321893929303515e-15 0.06113334000110626 0.9981296062469482 
vn -6.321893929303515e-15 0.06113334000110626 0.9981296062469482 
vn -6.321893929303515e-15 0.06113334000110626 0.9981296062469482 
vn -6.321893929303515e-15 0.06113334000110626 0.9981296062469482 
vn -6.321893929303515e-15 0.06113334000110626 0.9981296062469482 
vn -6.321893929303515e-15 0.06113334000110626 0.9981296062469482 
vn -6.321893929303515e-15 0.06113334000110626 0.9981296062469482 
vn -6.321893929303515e-15 0.06113334000110626 0.9981296062469482 
vn -6.321893929303515e-15 0.06113334000110626 0.9981296062469482 
vn -6.321893929303515e-15 0.06113334000110626 0.9981296062469482 
vn -6.321893929303515e-15 0.06113334000110626 0.9981296062469482 
vn -6.321893929303515e-15 0.06113334000110626 0.9981296062469482 
vn -6.321893929303515e-15 0.06113334000110626 0.9981296062469482 
vn -6.321893929303515e-15 0.06113334000110626 0.9981296062469482 
vn -6.321893929303515e-15 0.06113334000110626 0.9981296062469482 
vn -6.321893929303515e-15 0.06113334000110626 0.9981296062469482 
vn 0.017523931339383125 0.03519279882311821 0.9992268681526184 
vn 0.017523931339383125 0.03519279882311821 0.9992268681526184 
vn 0.017523931339383125 0.03519279882311821 0.9992268681526184 
vn 0.017523931339383125 0.03519279882311821 0.9992268681526184 
vn 0.023692212998867035 0.031373560428619385 0.9992268681526184 
vn 0.023692212998867035 0.031373560428619385 0.9992268681526184 
vn 0.023692212998867035 0.031373560428619385 0.9992268681526184 
vn 0.023692212998867035 0.031373560428619385 0.9992268681526184 
vn 0.039297256618738174 0.027641072869300842 0.9988451600074768 
vn 0.039297256618738174 0.027641072869300842 0.9988451600074768 
vn 0.039297256618738174 0.027641072869300842 0.9988451600074768 
vn 0.039297256618738174 0.027641072869300842 0.9988451600074768 
vn -6.321893929303515e-15 0.06113334000110626 0.9981296062469482 
vn -6.321893929303515e-15 0.06113334000110626 0.9981296062469482 
vn -6.321893929303515e-15 0.06113334000110626 0.9981296062469482 
vn -6.321893929303515e-15 0.06113334000110626 0.9981296062469482 
vn -6.321893929303515e-15 0.06113334000110626 0.9981296062469482 
vn -6.321893929303515e-15 0.06113334000110626 0.9981296062469482 
vn -6.321893929303515e-15 0.06113334000110626 0.9981296062469482 
vn -6.321893929303515e-15 0.06113334000110626 0.9981296062469482 
vn 0.004369377624243498 0 0.9999904632568359 
vn 0.004369377624243498 0 0.9999904632568359 
vn 0.004369377624243498 0 0.9999904632568359 
vn 0.004369377624243498 0 0.9999904632568359 
vn 0.004369377624243498 0 0.9999904632568359 
vn 0.004369377624243498 0 0.9999904632568359 
vn 0.004369377624243498 0 0.9999904632568359 
vn 0.004369377624243498 0 0.9999904632568359 
vn -6.321893929303515e-15 0.06113334000110626 0.9981296062469482 
vn -6.321893929303515e-15 0.06113334000110626 0.9981296062469482 
vn -6.321893929303515e-15 0.06113334000110626 0.9981296062469482 
vn -6.321893929303515e-15 0.06113334000110626 0.9981296062469482 
vn -6.321893929303515e-15 0.06113334000110626 0.9981296062469482 
vn -6.321893929303515e-15 0.06113334000110626 0.9981296062469482 
vn -6.321893929303515e-15 0.06113334000110626 0.9981296062469482 
vn -6.321893929303515e-15 0.06113334000110626 0.9981296062469482 
vn 0 0 1 
vn 0 0 1 
vn 0 0 1 
vn 0 0 1 
vn 0.008738672360777855 0 0.999961793422699 
vn 0.008738672360777855 0 0.999961793422699 
vn 0.008738672360777855 0 0.999961793422699 
vn 0.008738672360777855 0 0.999961793422699 
vn 0 0 1 
vn 0 0 1 
vn 0 0 1 
vn 0 0 1 
vn 0 0 1 
vn 0 0 1 
vn 0 0 1 
vn 0 0 1 
vn 0 0 1 
vn 0 0 1 
vn 0 0 1 
vn 0 0 1 
vn 0 0 1 
vn 0 0 1 
vn 0 0 1 
vn 0 0 1 
vn 0.004369377624243498 0 0.9999904632568359 
vn 0.004369377624243498 0 0.9999904632568359 
vn 0.004369377624243498 0 0.9999904632568359 
vn 0.004369377624243498 0 0.9999904632568359 
vn 0 0 1 
vn 0 0 1 
vn 0 0 1 
vn 0 0 1 
vn 0 0 1 
vn 0 0 1 
vn 0 0 1 
vn 0 0 1 
vn 0.02958367019891739 0.03213643282651901 0.9990455508232117 
vn 0.02958367019891739 0.03213643282651901 0.9990455508232117 
vn 0.02958367019891739 0.03213643282651901 0.9990455508232117 
vn 0.02958367019891739 0.03213643282651901 0.9990455508232117 
vn -6.321893929303515e-15 0.06113334000110626 0.9981296062469482 
vn -6.321893929303515e-15 0.06113334000110626 0.9981296062469482 
vn -6.321893929303515e-15 0.06113334000110626 0.9981296062469482 
vn -6.321893929303515e-15 0.06113334000110626 0.9981296062469482 
vn 0 0 1 
vn 0 0 1 
vn 0 0 1 
vn 0 0 1 
vt 8.922699928283691 40.97600173950195 
vt 10.918044090270996 40.97600173950195 
vt 8.922699928283691 41.235816955566406 
vt 10.918044090270996 41.235816955566406 
vt 8.922699928283691 41.49562454223633 
vt 10.918044090270996 41.49562454223633 
vt 8.922699928283691 41.75544357299805 
vt 10.918044090270996 41.75544357299805 
vt 8.922699928283691 42.0152587890625 
vt 10.918044090270996 42.0152587890625 
vt 6.9273552894592285 41.235816955566406 
vt 4.932011127471924 41.235816955566406 
vt 6.9273552894592285 40.97600173950195 
vt 4.932011127471924 40.97600173950195 
vt 0.9413229823112488 40.97600173950195 
vt 2.9366672039031982 40.97600173950195 
vt 0.9413229823112488 41.235816955566406 
vt 2.9366672039031982 41.235816955566406 
vt 0.9413229823112488 41.49562454223633 
vt 2.9366672039031982 41.49562454223633 
vt 0.9413229823112488 41.75544357299805 
vt 2.9366672039031982 41.75544357299805 
vt 0.9413229823112488 42.0152587890625 
vt 2.9366672039031982 42.0152587890625 
vt -5.044861793518066 41.75544357299805 
vt -3.0495176315307617 41.75544357299805 
vt -5.044861793518066 42.0152587890625 
vt -3.0495176315307617 42.0152587890625 
vt -7.040205955505371 40.97600173950195 
vt -5.044861793518066 40.97600173950195 
vt -7.040205955505371 41.235816955566406 
vt -5.044861793518066 41.235816955566406 
vt -9.035550117492676 41.49562454223633 
vt -7.040205955505371 41.49562454223633 
vt -9.035550117492676 41.75544357299805 
vt -7.040205955505371 41.75544357299805 
vt -5.044861793518066 42.0152587890625 
vt -7.040205955505371 42.0152587890625 
vt -5.044861793518066 41.75544357299805 
vt -7.040205955505371 41.75544357299805 
vt -5.044861793518066 41.49562454223633 
vt -3.0495176315307617 41.49562454223633 
vt -5.044861793518066 41.75544357299805 
vt -3.0495176315307617 41.75544357299805 
vt -3.0495176315307617 41.235816955566406 
vt -5.044861793518066 41.235816955566406 
vt -3.0495176315307617 40.97600173950195 
vt -5.044861793518066 40.97600173950195 
vt -5.044861793518066 41.75544357299805 
vt -7.040205955505371 41.75544357299805 
vt -5.044861793518066 41.49562454223633 
vt -7.040205955505371 41.49562454223633 
vt -1.054173469543457 42.0152587890625 
vt -3.0495176315307617 42.0152587890625 
vt -1.054173469543457 41.75544357299805 
vt -3.0495176315307617 41.75544357299805 
vt -1.054173469543457 41.75544357299805 
vt -3.0495176315307617 41.75544357299805 
vt -1.054173469543457 41.49562454223633 
vt -3.0495176315307617 41.49562454223633 
vt -1.054173469543457 41.235816955566406 
vt -3.0495176315307617 41.235816955566406 
vt -1.054173469543457 40.97600173950195 
vt -3.0495176315307617 40.97600173950195 
vt -3.0495176315307617 41.49562454223633 
vt -5.044861793518066 41.49562454223633 
vt -3.0495176315307617 41.235816955566406 
vt -5.044861793518066 41.235816955566406 
vt -7.040205955505371 41.235816955566406 
vt -9.035550117492676 41.235816955566406 
vt -7.040205955505371 40.97600173950195 
vt -9.035550117492676 40.97600173950195 
vt 0.9413229823112488 41.75544357299805 
vt -1.054173469543457 41.75544357299805 
vt 0.9413229823112488 41.49562454223633 
vt -1.054173469543457 41.49562454223633 
vt 0.9413229823112488 41.49562454223633 
vt -1.054173469543457 41.49562454223633 
vt 0.9413229823112488 41.235816955566406 
vt -1.054173469543457 41.235816955566406 
vt -9.035550117492676 41.75544357299805 
vt -7.040205955505371 41.75544357299805 
vt -9.035550117492676 42.0152587890625 
vt -7.040205955505371 42.0152587890625 
vt -5.044861793518066 41.49562454223633 
vt -7.040205955505371 41.49562454223633 
vt -5.044861793518066 41.235816955566406 
vt -7.040205955505371 41.235816955566406 
vt 4.932011127471924 41.235816955566406 
vt 6.9273552894592285 41.235816955566406 
vt 4.932011127471924 41.49562454223633 
vt 6.9273552894592285 41.49562454223633 
vt -1.054173469543457 40.97600173950195 
vt 0.9413229823112488 40.97600173950195 
vt -1.054173469543457 41.235816955566406 
vt 0.9413229823112488 41.235816955566406 
vt 2.9366672039031982 41.49562454223633 
vt 4.932011127471924 41.49562454223633 
vt 2.9366672039031982 41.75544357299805 
vt 4.932011127471924 41.75544357299805 
vt 2.9366672039031982 42.0152587890625 
vt 4.932011127471924 42.0152587890625 
vt 8.922699928283691 42.0152587890625 
vt 6.9273552894592285 42.0152587890625 
vt 8.922699928283691 41.75544357299805 
vt 6.9273552894592285 41.75544357299805 
vt 8.922699928283691 41.49562454223633 
vt 6.9273552894592285 41.49562454223633 
vt 8.922699928283691 41.235816955566406 
vt 4.932011127471924 42.0152587890625 
vt 4.932011127471924 41.75544357299805 
vt 4.932011127471924 41.49562454223633 
vt -1.054173469543457 41.75544357299805 
vt 0.9413229823112488 41.75544357299805 
vt -1.054173469543457 42.0152587890625 
vt 0.9413229823112488 42.0152587890625 
vt 6.9273552894592285 40.97600173950195 
vt 8.922699928283691 40.97600173950195 
vt 6.9273552894592285 41.235816955566406 
vt 8.922699928283691 41.235816955566406 
vt 2.9366672039031982 40.97600173950195 
vt 4.932011127471924 40.97600173950195 
vt 2.9366672039031982 41.235816955566406 
vt 4.932011127471924 41.235816955566406 
vt -3.0495176315307617 41.235816955566406 
vt -1.054173469543457 41.235816955566406 
vt -3.0495176315307617 41.49562454223633 
vt -1.054173469543457 41.49562454223633 
vt -9.035550117492676 41.235816955566406 
vt -7.040205955505371 41.235816955566406 
vt -9.035550117492676 41.49562454223633 
vt -7.040205955505371 41.49562454223633 
vt 4.932011127471924 41.49562454223633 
vt 2.9366672039031982 41.49562454223633 
vt 4.932011127471924 41.235816955566406 
vt 2.9366672039031982 41.235816955566406 
s on 
f 1/1/1 2/2/2 3/3/3 
f 2/2/2 4/4/4 3/3/3 
f 3/3/3 4/4/4 5/5/5 
f 4/4/4 6/6/6 5/5/5 
f 5/5/5 6/6/6 7/7/7 
f 6/6/6 8/8/8 7/7/7 
f 7/7/7 8/8/8 9/9/9 
f 8/8/8 10/10/10 9/9/9 
f 9/9/9 10/10/10 10/10/10 
f 10/10/10 11/11/11 10/10/10 
f 10/10/10 11/11/11 11/11/11 
f 11/11/11 12/12/12 11/11/11 
f 11/11/11 12/12/12 13/13/13 
f 12/12/12 14/14/14 13/13/13 
f 13/13/13 14/14/14 14/14/14 
f 14/14/14 15/15/15 14/14/14 
f 14/14/14 15/15/15 15/15/15 
f 15/15/15 16/16/16 15/15/15 
f 15/15/15 16/16/16 17/17/17 
f 16/16/16 18/18/18 17/17/17 
f 17/17/17 18/18/18 19/19/19 
f 18/18/18 20/20/20 19/19/19 
f 19/19/19 20/20/20 21/21/21 
f 20/20/20 22/22/22 21/21/21 
f 21/21/21 22/22/22 23/23/23 
f 22/22/22 24/24/24 23/23/23 
f 23/23/23 24/24/24 24/24/24 
f 24/24/24 25/25/25 24/24/24 
f 24/24/24 25/25/25 25/25/25 
f 25/25/25 26/26/26 25/25/25 
f 25/25/25 26/26/26 27/27/27 
f 26/26/26 28/28/28 27/27/27 
f 27/27/27 28/28/28 28/28/28 
f 28/28/28 29/29/29 28/28/28 
f 28/28/28 29/29/29 29/29/29 
f 29/29/29 30/30/30 29/29/29 
f 29/29/29 30/30/30 31/31/31 
f 30/30/30 32/32/32 31/31/31 
f 31/31/31 32/32/32 32/32/32 
f 32/32/32 33/33/33 32/32/32 
f 32/32/32 33/33/33 33/33/33 
f 33/33/33 34/34/34 33/33/33 
f 33/33/33 34/34/34 35/35/35 
f 34/34/34 36/36/36 35/35/35 
f 35/35/35 36/36/36 36/36/36 
f 36/36/36 37/37/37 36/36/36 
f 36/36/36 37/37/37 37/37/37 
f 37/37/37 38/38/38 37/37/37 
f 37/37/37 38/38/38 39/39/39 
f 38/38/38 40/40/40 39/39/39 
f 39/39/39 40/40/40 40/40/40 
f 40/40/40 41/41/41 40/40/40 
f 40/40/40 41/41/41 41/41/41 
f 41/41/41 42/42/42 41/41/41 
f 41/41/41 42/42/42 43/43/43 
f 42/42/42 44/44/44 43/43/43 
f 43/43/43 44/44/44 44/44/44 
f 44/44/44 45/45/45 44/44/44 
f 44/44/44 45/45/45 45/45/45 
f 45/45/45 46/46/46 45/45/45 
f 45/45/45 46/46/46 47/47/47 
f 46/46/46 48/48/48 47/47/47 
f 47/47/47 48/48/48 48/48/48 
f 48/48/48 49/49/49 48/48/48 
f 48/48/48 49/49/49 49/49/49 
f 49/49/49 50/50/50 49/49/49 
f 49/49/49 50/50/50 51/51/51 
f 50/50/50 52/52/52 51/51/51 
f 51/51/51 52/52/52 52/52/52 
f 52/52/52 53/53/53 52/52/52 
f 52/52/52 53/53/53 53/53/53 
f 53/53/53 54/54/54 53/53/53 
f 53/53/53 54/54/54 55/55/55 
f 54/54/54 56/56/56 55/55/55 
f 55/55/55 56/56/56 56/56/56 
f 56/56/56 57/57/57 56/56/56 
f 56/56/56 57/57/57 57/57/57 
f 57/57/57 58/58/58 57/57/57 
f 57/57/57 58/58/58 59/59/59 
f 58/58/58 60/60/60 59/59/59 
f 59/59/59 60/60/60 60/60/60 
f 60/60/60 61/61/61 60/60/60 
f 60/60/60 61/61/61 61/61/61 
f 61/61/61 62/62/62 61/61/61 
f 61/61/61 62/62/62 63/63/63 
f 62/62/62 64/64/64 63/63/63 
f 63/63/63 64/64/64 64/64/64 
f 64/64/64 65/65/65 64/64/64 
f 64/64/64 65/65/65 65/65/65 
f 65/65/65 66/66/66 65/65/65 
f 65/65/65 66/66/66 67/67/67 
f 66/66/66 68/68/68 67/67/67 
f 67/67/67 68/68/68 68/68/68 
f 68/68/68 69/69/69 68/68/68 
f 68/68/68 69/69/69 69/69/69 
f 69/69/69 70/70/70 69/69/69 
f 69/69/69 70/70/70 71/71/71 
f 70/70/70 72/72/72 71/71/71 
f 71/71/71 72/72/72 72/72/72 
f 72/72/72 73/73/73 72/72/72 
f 72/72/72 73/73/73 73/73/73 
f 73/73/73 74/74/74 73/73/73 
f 73/73/73 74/74/74 75/75/75 
f 74/74/74 76/76/76 75/75/75 
f 75/75/75 76/76/76 76/76/76 
f 76/76/76 77/77/77 76/76/76 
f 76/76/76 77/77/77 77/77/77 
f 77/77/77 78/78/78 77/77/77 
f 77/77/77 78/78/78 79/79/79 
f 78/78/78 80/80/80 79/79/79 
f 79/79/79 80/80/80 80/80/80 
f 80/80/80 81/81/81 80/80/80 
f 80/80/80 81/81/81 81/81/81 
f 81/81/81 82/82/82 81/81/81 
f 81/81/81 82/82/82 83/83/83 
f 82/82/82 84/84/84 83/83/83 
f 83/83/83 84/84/84 84/84/84 
f 84/84/84 85/85/85 84/84/84 
f 84/84/84 85/85/85 85/85/85 
f 85/85/85 86/86/86 85/85/85 
f 85/85/85 86/86/86 87/87/87 
f 86/86/86 88/88/88 87/87/87 
f 87/87/87 88/88/88 88/88/88 
f 88/88/88 89/89/89 88/88/88 
f 88/88/88 89/89/89 89/89/89 
f 89/89/89 90/90/90 89/89/89 
f 89/89/89 90/90/90 91/91/91 
f 90/90/90 92/92/92 91/91/91 
f 91/91/91 92/92/92 92/92/92 
f 92/92/92 93/93/93 92/92/92 
f 92/92/92 93/93/93 93/93/93 
f 93/93/93 94/94/94 93/93/93 
f 93/93/93 94/94/94 95/95/95 
f 94/94/94 96/96/96 95/95/95 
f 95/95/95 96/96/96 96/96/96 
f 96/96/96 97/97/97 96/96/96 
f 96/96/96 97/97/97 97/97/97 
f 97/97/97 98/98/98 97/97/97 
f 97/97/97 98/98/98 99/99/99 
f 98/98/98 100/100/100 99/99/99 
f 99/99/99 100/100/100 101/101/101 
f 100/100/100 102/102/102 101/101/101 
f 101/101/101 102/102/102 102/102/102 
f 102/102/102 103/103/103 102/102/102 
f 102/102/102 103/103/103 103/103/103 
f 103/103/103 104/104/104 103/103/103 
f 103/103/103 104/104/104 105/105/105 
f 104/104/104 106/106/106 105/105/105 
f 105/105/105 106/106/106 107/107/107 
f 106/106/106 108/108/108 107/107/107 
f 107/107/107 108/108/108 109/109/109 
f 108/108/108 11/11/11 109/109/109 
f 109/109/109 11/11/11 11/11/11 
f 11/11/11 104/104/104 11/11/11 
f 11/11/11 104/104/104 104/104/104 
f 104/104/104 110/110/110 104/104/104 
f 104/104/104 110/110/110 106/106/106 
f 110/110/110 111/111/111 106/106/106 
f 106/106/106 111/111/111 108/108/108 
f 111/111/111 112/112/112 108/108/108 
f 108/108/108 112/112/112 112/112/112 
f 112/112/112 113/113/113 112/112/112 
f 112/112/112 113/113/113 113/113/113 
f 113/113/113 114/114/114 113/113/113 
f 113/113/113 114/114/114 115/115/115 
f 114/114/114 116/116/116 115/115/115 
f 115/115/115 116/116/116 116/116/116 
f 116/116/116 117/117/117 116/116/116 
f 116/116/116 117/117/117 117/117/117 
f 117/117/117 118/118/118 117/117/117 
f 117/117/117 118/118/118 119/119/119 
f 118/118/118 120/120/120 119/119/119 
f 119/119/119 120/120/120 120/120/120 
f 120/120/120 121/121/121 120/120/120 
f 120/120/120 121/121/121 121/121/121 
f 121/121/121 122/122/122 121/121/121 
f 121/121/121 122/122/122 123/123/123 
f 122/122/122 124/124/124 123/123/123 
f 123/123/123 124/124/124 124/124/124 
f 124/124/124 125/125/125 124/124/124 
f 124/124/124 125/125/125 125/125/125 
f 125/125/125 126/126/126 125/125/125 
f 125/125/125 126/126/126 127/127/127 
f 126/126/126 128/128/128 127/127/127 
f 127/127/127 128/128/128 128/128/128 
f 128/128/128 129/129/129 128/128/128 
f 128/128/128 129/129/129 129/129/129 
f 129/129/129 130/130/130 129/129/129 
f 129/129/129 130/130/130 131/131/131 
f 130/130/130 132/132/132 131/131/131 
f 131/131/131 132/132/132 132/132/132 
f 132/132/132 133/133/133 132/132/132 
f 132/132/132 133/133/133 133/133/133 
f 133/133/133 134/134/134 133/133/133 
f 133/133/133 134/134/134 135/135/135 
f 134/134/134 136/136/136 135/135/135 

