mtllib model_9.mtl
o model_9
v -1.5839999914169312 -0.09300000965595245 -9.864999839237498e-8 
v -1.5740009546279907 -0.08592003583908081 0.03558884561061859 
v -1.5839999914169312 -0.08592003583908081 0.03558884561061859 
v -1.5740009546279907 -0.06575989723205566 0.0657603070139885 
v -1.5839999914169312 -0.06575989723205566 0.0657603070139885 
v -1.5740009546279907 -0.035589028149843216 0.08592012524604797 
v -1.5839999914169312 -0.035589028149843216 0.08592012524604797 
v -1.5740009546279907 2.479519878306746e-7 0.09300020337104797 
v -1.5839999914169312 2.479519878306746e-7 0.09300020337104797 
v -1.5740009546279907 0.035588931292295456 0.08592012524604797 
v -1.5839999914169312 0.035588931292295456 0.08592012524604797 
v -1.5740009546279907 0.0657598078250885 0.0657603070139885 
v -1.5839999914169312 0.0657598078250885 0.0657603070139885 
v -1.5740009546279907 0.08591993898153305 0.03558884561061859 
v -1.5839999914169312 0.08591993898153305 0.03558884561061859 
v -1.5740009546279907 0.0929999127984047 -9.864999839237498e-8 
v -1.5839999914169312 0.0929999127984047 -9.864999839237498e-8 
v -1.5740009546279907 0.08591993898153305 -0.03558904305100441 
v -1.5839999914169312 0.08591993898153305 -0.03558904305100441 
v -1.5740009546279907 0.0657598078250885 -0.06575991213321686 
v -1.5839999914169312 0.0657598078250885 -0.06575991213321686 
v -1.5740009546279907 0.035588931292295456 -0.08591973036527634 
v -1.5839999914169312 0.035588931292295456 -0.08591973036527634 
v -1.5740009546279907 2.479519878306746e-7 -0.09299980849027634 
v -1.5839999914169312 2.479519878306746e-7 -0.09299980849027634 
v -1.5740009546279907 -0.09300000965595245 -9.864999839237498e-8 
v -1.5839999914169312 -0.09300000965595245 -9.864999839237498e-8 
v -1.5839999914169312 -0.08592003583908081 0.03558884561061859 
v -1.5839999914169312 -0.09199988096952438 -9.864999839237498e-8 
v -1.5839999914169312 -0.08499602228403091 0.03520584851503372 
v -1.5839999914169312 -0.06575989723205566 0.0657603070139885 
v -1.5839999914169312 -0.06505302339792252 0.065052829682827 
v -1.5839999914169312 -0.035589028149843216 0.08592012524604797 
v -1.5839999914169312 -0.035206086933612823 0.08499632775783539 
v -1.5839999914169312 2.479519878306746e-7 0.09300020337104797 
v -1.5839999914169312 2.479519878306746e-7 0.09200016409158707 
v -1.5839999914169312 0.035588931292295456 0.08592012524604797 
v -1.5839999914169312 0.03520599380135536 0.08499632775783539 
v -1.5839999914169312 0.0657598078250885 0.0657603070139885 
v -1.5839999914169312 0.06505292654037476 0.065052829682827 
v -1.5839999914169312 0.08591993898153305 0.03558884561061859 
v -1.5839999914169312 0.08499592542648315 0.03520584851503372 
v -1.5839999914169312 0.0929999127984047 -9.864999839237498e-8 
v -1.5839999914169312 0.09199978411197662 -9.864999839237498e-8 
v -1.5839999914169312 0.08499592542648315 -0.03520604595541954 
v -1.5839999914169312 0.08591993898153305 -0.03558904305100441 
v -1.5839999914169312 0.0657598078250885 -0.06575991213321686 
v -1.5839999914169312 0.06505292654037476 -0.06505302339792252 
v -1.5839999914169312 0.035588931292295456 -0.08591973036527634 
v -1.5839999914169312 0.03520599380135536 -0.08499593287706375 
v -1.5839999914169312 2.479519878306746e-7 -0.09299980849027634 
v -1.5839999914169312 2.479519878306746e-7 -0.09199976921081543 
v -1.5839999914169312 2.479519878306746e-7 0.09200016409158707 
v -1.5740009546279907 0.03520599380135536 0.08499632775783539 
v -1.5839999914169312 0.03520599380135536 0.08499632775783539 
v -1.5740009546279907 0.06505292654037476 0.065052829682827 
v -1.5740009546279907 2.479519878306746e-7 0.09200016409158707 
v -1.5839999914169312 -0.035206086933612823 0.08499632775783539 
v -1.5740009546279907 -0.035206086933612823 0.08499632775783539 
v -1.5839999914169312 -0.06505302339792252 0.065052829682827 
v -1.5740009546279907 -0.06505302339792252 0.065052829682827 
v -1.5839999914169312 -0.08499602228403091 0.03520584851503372 
v -1.5740009546279907 -0.08499602228403091 0.03520584851503372 
v -1.5839999914169312 -0.09199988096952438 -9.864999839237498e-8 
v -1.5740009546279907 -0.09199988096952438 -9.864999839237498e-8 
v -1.5839999914169312 0.06505292654037476 0.065052829682827 
v -1.5740009546279907 0.08499592542648315 0.03520584851503372 
v -1.5839999914169312 0.08499592542648315 0.03520584851503372 
v -1.5740009546279907 0.09199978411197662 -9.864999839237498e-8 
v -1.5839999914169312 0.09199978411197662 -9.864999839237498e-8 
v -1.5740009546279907 0.08499592542648315 -0.03520604595541954 
v -1.5839999914169312 0.08499592542648315 -0.03520604595541954 
v -1.5740009546279907 0.06505292654037476 -0.06505302339792252 
v -1.5839999914169312 0.06505292654037476 -0.06505302339792252 
v -1.5740009546279907 0.03520599380135536 -0.08499593287706375 
v -1.5839999914169312 0.03520599380135536 -0.08499593287706375 
v -1.5740009546279907 2.479519878306746e-7 -0.09199976921081543 
v -1.5839999914169312 2.479519878306746e-7 -0.09199976921081543 
v -1.5740009546279907 2.479519878306746e-7 0.09200016409158707 
v -1.5740009546279907 0.03520599380135536 0.08499632775783539 
v -1.5740009546279907 0.035588931292295456 0.08592012524604797 
v -1.5740009546279907 0.0657598078250885 0.0657603070139885 
v -1.5740009546279907 2.479519878306746e-7 0.09300020337104797 
v -1.5740009546279907 -0.035206086933612823 0.08499632775783539 
v -1.5740009546279907 -0.035589028149843216 0.08592012524604797 
v -1.5740009546279907 -0.06505302339792252 0.065052829682827 
v -1.5740009546279907 -0.06575989723205566 0.0657603070139885 
v -1.5740009546279907 -0.08499602228403091 0.03520584851503372 
v -1.5740009546279907 -0.08592003583908081 0.03558884561061859 
v -1.5740009546279907 -0.09300000965595245 -9.864999839237498e-8 
v -1.5740009546279907 -0.09199988096952438 -9.864999839237498e-8 
v -1.5740009546279907 0.06505292654037476 0.065052829682827 
v -1.5740009546279907 0.08591993898153305 0.03558884561061859 
v -1.5740009546279907 0.08499592542648315 0.03520584851503372 
v -1.5740009546279907 0.0929999127984047 -9.864999839237498e-8 
v -1.5740009546279907 0.09199978411197662 -9.864999839237498e-8 
v -1.5740009546279907 0.08499592542648315 -0.03520604595541954 
v -1.5740009546279907 0.08591993898153305 -0.03558904305100441 
v -1.5740009546279907 0.0657598078250885 -0.06575991213321686 
v -1.5740009546279907 0.06505292654037476 -0.06505302339792252 
v -1.5740009546279907 0.035588931292295456 -0.08591973036527634 
v -1.5740009546279907 0.03520599380135536 -0.08499593287706375 
v -1.5740009546279907 2.479519878306746e-7 -0.09199976921081543 
v -1.5740009546279907 2.479519878306746e-7 -0.09299980849027634 
v -1.5839999914169312 2.479519878306746e-7 -0.09199976921081543 
v -1.5740009546279907 2.479519878306746e-7 -0.09199976921081543 
v -1.5839999914169312 2.479519878306746e-7 -0.09299980849027634 
v -1.5740009546279907 2.479519878306746e-7 -0.09299980849027634 
v -1.5740009546279907 -0.09300000965595245 -9.864999839237498e-8 
v -1.5740009546279907 -0.09199988096952438 -9.864999839237498e-8 
v -1.5839999914169312 -0.09300000965595245 -9.864999839237498e-8 
v -1.5839999914169312 -0.09199988096952438 -9.864999839237498e-8 
vn 3.097898456858039e-13 -0.999997615814209 0.002184694167226553 
vn 0.0037719623651355505 -0.9244976043701172 0.3811691105365753 
vn 0.0037719623651355505 -0.9244976043701172 0.3811691105365753 
vn 0.00376924779266119 -0.707868754863739 0.7063339352607727 
vn 0.00376924779266119 -0.707868754863739 0.7063339352607727 
vn 1.187080219278852e-13 -0.3831879794597626 0.9236704111099243 
vn 1.187080219278852e-13 -0.3831879794597626 0.9236704111099243 
vn 0 0 1 
vn 0 0 1 
vn -3.962606474504013e-14 0.3831879794597626 0.9236704111099243 
vn -3.962606474504013e-14 0.3831879794597626 0.9236704111099243 
vn 0.00376924779266119 0.707868754863739 0.7063339352607727 
vn 0.00376924779266119 0.707868754863739 0.7063339352607727 
vn 0.0037719623651355505 0.9244976043701172 0.3811691105365753 
vn 0.0037719623651355505 0.9244976043701172 0.3811691105365753 
vn -1.0341130485562108e-13 0.999997615814209 0.002184694167226553 
vn -1.0341130485562108e-13 0.999997615814209 0.002184694167226553 
vn 0.0018884376622736454 0.9245033860206604 -0.3811691105365753 
vn 0.0018884376622736454 0.9245033860206604 -0.3811691105365753 
vn 0.0018878303235396743 0.7078762650489807 -0.7063339352607727 
vn 0.0018878303235396743 0.7078762650489807 -0.7063339352607727 
vn 0.0037855375558137894 0.3831692636013031 -0.9236704111099243 
vn 0.0037855375558137894 0.3831692636013031 -0.9236704111099243 
vn -2.0682311115474694e-13 0 -1 
vn -2.0682311115474694e-13 0 -1 
vn 3.097898456858039e-13 -0.999997615814209 0.002184694167226553 
vn -0.999997615814209 -2.0682260971124217e-13 0.002184694167226553 
vn -0.999997615814209 -2.0682260971124217e-13 0.002184694167226553 
vn -0.999997615814209 -2.0682260971124217e-13 0.002184694167226553 
vn -0.999997615814209 -2.0682260971124217e-13 0.002184694167226553 
vn -0.999997615814209 -2.0682260971124217e-13 0.002184694167226553 
vn -0.999997615814209 -2.0682260971124217e-13 0.002184694167226553 
vn -0.999997615814209 -2.0682260971124217e-13 0.002184694167226553 
vn -0.999997615814209 -2.0682260971124217e-13 0.002184694167226553 
vn -0.999997615814209 -2.0682260971124217e-13 0.002184694167226553 
vn -0.999997615814209 -2.0682260971124217e-13 0.002184694167226553 
vn -0.999997615814209 -2.0682260971124217e-13 0.002184694167226553 
vn -0.999997615814209 -2.0682260971124217e-13 0.002184694167226553 
vn -0.999997615814209 -2.0682260971124217e-13 0.002184694167226553 
vn -0.999997615814209 -2.0682260971124217e-13 0.002184694167226553 
vn -0.999997615814209 -2.0682260971124217e-13 0.002184694167226553 
vn -0.999997615814209 -2.0682260971124217e-13 0.002184694167226553 
vn -0.999997615814209 -2.0682260971124217e-13 0.002184694167226553 
vn -0.999997615814209 -2.0682260971124217e-13 0.002184694167226553 
vn -0.999997615814209 -2.0682260971124217e-13 0.002184694167226553 
vn -0.999997615814209 -2.0682260971124217e-13 0.002184694167226553 
vn -0.999997615814209 -2.0682260971124217e-13 0.002184694167226553 
vn -0.999997615814209 -2.0682260971124217e-13 0.002184694167226553 
vn -0.999997615814209 -2.0682260971124217e-13 0.002184694167226553 
vn -0.999997615814209 -2.0682260971124217e-13 0.002184694167226553 
vn -0.999997615814209 -2.0682260971124217e-13 0.002184694167226553 
vn -0.999997615814209 -2.0682260971124217e-13 0.002184694167226553 
vn -2.0682311115474694e-13 0 -1 
vn 0.0037855375558137894 -0.3831692636013031 -0.9236704111099243 
vn 0.0037855375558137894 -0.3831692636013031 -0.9236704111099243 
vn 0.0018878303235396743 -0.7078762650489807 -0.7063339352607727 
vn -2.0682311115474694e-13 0 -1 
vn 0.0037855375558137894 0.3831692636013031 -0.9236704111099243 
vn 0.0037855375558137894 0.3831692636013031 -0.9236704111099243 
vn 0.0018878303235396743 0.7078762650489807 -0.7063339352607727 
vn 0.0018878303235396743 0.7078762650489807 -0.7063339352607727 
vn 0.0018884376622736454 0.9245033860206604 -0.3811691105365753 
vn 0.0018884376622736454 0.9245033860206604 -0.3811691105365753 
vn -1.0341130485562108e-13 0.999997615814209 0.002184694167226553 
vn -1.0341130485562108e-13 0.999997615814209 0.002184694167226553 
vn 0.0018878303235396743 -0.7078762650489807 -0.7063339352607727 
vn 0.0018884376622736454 -0.9245033860206604 -0.3811691105365753 
vn 0.0018884376622736454 -0.9245033860206604 -0.3811691105365753 
vn 3.097898456858039e-13 -0.999997615814209 0.002184694167226553 
vn 3.097898456858039e-13 -0.999997615814209 0.002184694167226553 
vn 0.0037719623651355505 -0.9244976043701172 0.3811691105365753 
vn 0.0037719623651355505 -0.9244976043701172 0.3811691105365753 
vn 0.00376924779266119 -0.707868754863739 0.7063339352607727 
vn 0.00376924779266119 -0.707868754863739 0.7063339352607727 
vn 1.187080219278852e-13 -0.3831879794597626 0.9236704111099243 
vn 1.187080219278852e-13 -0.3831879794597626 0.9236704111099243 
vn 0 0 1 
vn 0 0 1 
vn 0.999997615814209 0 0.002184694167226553 
vn 0.999997615814209 0 0.002184694167226553 
vn 0.999997615814209 0 0.002184694167226553 
vn 0.999997615814209 0 0.002184694167226553 
vn 0.999997615814209 0 0.002184694167226553 
vn 0.999997615814209 0 0.002184694167226553 
vn 0.999997615814209 0 0.002184694167226553 
vn 0.999997615814209 0 0.002184694167226553 
vn 0.999997615814209 0 0.002184694167226553 
vn 0.999997615814209 0 0.002184694167226553 
vn 0.999997615814209 0 0.002184694167226553 
vn 0.999997615814209 0 0.002184694167226553 
vn 0.999997615814209 0 0.002184694167226553 
vn 0.999997615814209 0 0.002184694167226553 
vn 0.999997615814209 0 0.002184694167226553 
vn 0.999997615814209 0 0.002184694167226553 
vn 0.999997615814209 0 0.002184694167226553 
vn 0.999997615814209 0 0.002184694167226553 
vn 0.999997615814209 0 0.002184694167226553 
vn 0.999997615814209 0 0.002184694167226553 
vn 0.999997615814209 0 0.002184694167226553 
vn 0.999997615814209 0 0.002184694167226553 
vn 0.999997615814209 0 0.002184694167226553 
vn 0.999997615814209 0 0.002184694167226553 
vn 0.999997615814209 0 0.002184694167226553 
vn 0.999997615814209 0 0.002184694167226553 
vn 3.097898456858039e-13 -0.999997615814209 0.002184694167226553 
vn 3.097898456858039e-13 -0.999997615814209 0.002184694167226553 
vn 3.097898456858039e-13 -0.999997615814209 0.002184694167226553 
vn 3.097898456858039e-13 -0.999997615814209 0.002184694167226553 
vn 2.0682311115474694e-13 4.2775797696334704e-26 -1 
vn 2.0682311115474694e-13 4.2775797696334704e-26 -1 
vn 2.0682311115474694e-13 4.2775797696334704e-26 -1 
vn 2.0682311115474694e-13 4.2775797696334704e-26 -1 
s on 
f 1//1 2//2 3//3 
f 2//2 4//4 3//3 
f 3//3 4//4 5//5 
f 4//4 6//6 5//5 
f 5//5 6//6 7//7 
f 6//6 8//8 7//7 
f 7//7 8//8 9//9 
f 8//8 10//10 9//9 
f 9//9 10//10 11//11 
f 10//10 12//12 11//11 
f 11//11 12//12 13//13 
f 12//12 14//14 13//13 
f 13//13 14//14 15//15 
f 14//14 16//16 15//15 
f 15//15 16//16 17//17 
f 16//16 18//18 17//17 
f 17//17 18//18 19//19 
f 18//18 20//20 19//19 
f 19//19 20//20 21//21 
f 20//20 22//22 21//21 
f 21//21 22//22 23//23 
f 22//22 24//24 23//23 
f 23//23 24//24 25//25 
f 24//24 25//25 25//25 
f 25//25 25//25 1//1 
f 25//25 1//1 1//1 
f 1//1 1//1 2//2 
f 1//1 26//26 2//2 
f 2//2 26//26 26//26 
f 26//26 27//27 26//26 
f 26//26 27//27 27//27 
f 27//27 28//28 27//27 
f 27//27 28//28 29//29 
f 28//28 28//28 29//29 
f 29//29 28//28 30//30 
f 28//28 31//31 30//30 
f 30//30 31//31 32//32 
f 31//31 33//33 32//32 
f 32//32 33//33 34//34 
f 33//33 35//35 34//34 
f 34//34 35//35 36//36 
f 35//35 37//37 36//36 
f 36//36 37//37 38//38 
f 37//37 39//39 38//38 
f 38//38 39//39 40//40 
f 39//39 41//41 40//40 
f 40//40 41//41 42//42 
f 41//41 43//43 42//42 
f 42//42 43//43 44//44 
f 43//43 43//43 44//44 
f 44//44 43//43 45//45 
f 43//43 46//46 45//45 
f 45//45 46//46 45//45 
f 46//46 47//47 45//45 
f 45//45 47//47 48//48 
f 47//47 49//49 48//48 
f 48//48 49//49 50//50 
f 49//49 51//51 50//50 
f 50//50 51//51 52//52 
f 51//51 52//52 52//52 
f 52//52 52//52 53//53 
f 52//52 53//53 53//53 
f 53//53 53//53 54//54 
f 53//53 55//55 54//54 
f 54//54 55//55 56//56 
f 55//55 56//56 56//56 
f 56//56 56//56 54//54 
f 56//56 54//54 54//54 
f 54//54 54//54 53//53 
f 54//54 57//57 53//53 
f 53//53 57//57 58//58 
f 57//57 59//59 58//58 
f 58//58 59//59 60//60 
f 59//59 61//61 60//60 
f 60//60 61//61 62//62 
f 61//61 63//63 62//62 
f 62//62 63//63 64//64 
f 63//63 65//65 64//64 
f 64//64 65//65 65//65 
f 65//65 55//55 65//65 
f 65//65 55//55 55//55 
f 55//55 66//66 55//55 
f 55//55 66//66 56//56 
f 66//66 66//66 56//56 
f 56//56 66//66 67//67 
f 66//66 68//68 67//67 
f 67//67 68//68 69//69 
f 68//68 70//70 69//69 
f 69//69 70//70 71//71 
f 70//70 72//72 71//71 
f 71//71 72//72 73//73 
f 72//72 74//74 73//73 
f 73//73 74//74 75//75 
f 74//74 76//76 75//75 
f 75//75 76//76 77//77 
f 76//76 78//78 77//77 
f 77//77 78//78 78//78 
f 78//78 79//79 78//78 
f 78//78 79//79 79//79 
f 79//79 80//80 79//79 
f 79//79 80//80 81//81 
f 80//80 82//82 81//81 
f 81//81 82//82 82//82 
f 82//82 81//81 82//82 
f 82//82 81//81 81//81 
f 81//81 83//83 81//81 
f 81//81 83//83 79//79 
f 83//83 83//83 79//79 
f 79//79 83//83 84//84 
f 83//83 85//85 84//84 
f 84//84 85//85 86//86 
f 85//85 87//87 86//86 
f 86//86 87//87 88//88 
f 87//87 89//89 88//88 
f 88//88 89//89 88//88 
f 89//89 90//90 88//88 
f 88//88 90//90 91//91 
f 90//90 91//91 91//91 
f 91//91 91//91 80//80 
f 91//91 80//80 80//80 
f 80//80 80//80 82//82 
f 80//80 92//92 82//82 
f 82//82 92//92 93//93 
f 92//92 94//94 93//93 
f 93//93 94//94 95//95 
f 94//94 96//96 95//95 
f 95//95 96//96 95//95 
f 96//96 97//97 95//95 
f 95//95 97//97 98//98 
f 97//97 97//97 98//98 
f 98//98 97//97 99//99 
f 97//97 100//100 99//99 
f 99//99 100//100 101//101 
f 100//100 102//102 101//101 
f 101//101 102//102 101//101 
f 102//102 103//103 101//101 
f 101//101 103//103 104//104 
f 103//103 104//104 104//104 
f 104//104 104//104 105//105 
f 104//104 105//105 105//105 
f 105//105 105//105 106//106 
f 105//105 107//107 106//106 
f 106//106 107//107 108//108 
f 107//107 108//108 108//108 
f 108//108 108//108 109//109 
f 108//108 109//109 109//109 
f 109//109 109//109 110//110 
f 109//109 111//111 110//110 
f 110//110 111//111 112//112 

