mtllib model_5.mtl
o model_5
v -0.6029989719390869 0 0.05649900063872337 
v -0.5982900261878967 0.02162100002169609 0.052198998630046844 
v -0.6029989719390869 0.02162100002169609 0.052198998630046844 
v -0.5982900261878967 0.03995100036263466 0.03995100036263466 
v -0.5982900261878967 0 0.05649900063872337 
v -0.6029989719390869 -0.02162100002169609 0.052198998630046844 
v -0.5982900261878967 -0.02162100002169609 0.052198998630046844 
v -0.6029989719390869 -0.03995100036263466 0.03995100036263466 
v -0.5982900261878967 -0.03995100036263466 0.03995100036263466 
v -0.6029989719390869 -0.052198998630046844 0.02162100002169609 
v -0.5982900261878967 -0.052198998630046844 0.02162100002169609 
v -0.6029989719390869 -0.05649900063872337 0 
v -0.5982900261878967 -0.05649900063872337 0 
v -0.6029989719390869 0.03995100036263466 0.03995100036263466 
v -0.5982900261878967 0.052198998630046844 0.02162100002169609 
v -0.6029989719390869 0.052198998630046844 0.02162100002169609 
v -0.5982900261878967 0.05649900063872337 0 
v -0.6029989719390869 0.05649900063872337 0 
v -0.5982900261878967 0.052198998630046844 -0.02162100002169609 
v -0.6029989719390869 0.052198998630046844 -0.02162100002169609 
v -0.5982900261878967 0.03995100036263466 -0.03995100036263466 
v -0.6029989719390869 0.03995100036263466 -0.03995100036263466 
v -0.5982900261878967 0.02162100002169609 -0.052198998630046844 
v -0.6029989719390869 0.02162100002169609 -0.052198998630046844 
v -0.5982900261878967 0 -0.05649900063872337 
v -0.6029989719390869 0 -0.05649900063872337 
v -0.5970249772071838 0 -0.05670500174164772 
v -0.5970249772071838 0.021700000390410423 -0.05238800123333931 
v -0.5982900261878967 0.02162100002169609 -0.052198998630046844 
v -0.5970249772071838 0.04009599983692169 -0.04009599983692169 
v -0.5982900261878967 0.03995100036263466 -0.03995100036263466 
v -0.5970249772071838 0.05238800123333931 -0.021700000390410423 
v -0.5982900261878967 0.052198998630046844 -0.02162100002169609 
v -0.5970249772071838 0.05670500174164772 0 
v -0.5982900261878967 0.05649900063872337 0 
v -0.5970249772071838 0.05238800123333931 0.021700000390410423 
v -0.5982900261878967 0.052198998630046844 0.02162100002169609 
v -0.5970249772071838 0.04009599983692169 0.04009599983692169 
v -0.5982900261878967 0.03995100036263466 0.03995100036263466 
v -0.5970249772071838 0.021700000390410423 0.05238800123333931 
v -0.5982900261878967 0.02162100002169609 0.052198998630046844 
v -0.5970249772071838 0 0.05670500174164772 
v -0.5982900261878967 0 0.05649900063872337 
v -0.5970249772071838 -0.021700000390410423 0.05238800123333931 
v -0.5982900261878967 -0.02162100002169609 0.052198998630046844 
v -0.5970249772071838 -0.04009599983692169 0.04009599983692169 
v -0.5982900261878967 -0.03995100036263466 0.03995100036263466 
v -0.5970249772071838 -0.05238800123333931 0.021700000390410423 
v -0.5982900261878967 -0.052198998630046844 0.02162100002169609 
v -0.5970249772071838 -0.05670500174164772 0 
v -0.5982900261878967 -0.05649900063872337 0 
v -0.5958889722824097 -0.05730000138282776 0 
v -0.5958889722824097 -0.05293799936771393 0.02192699909210205 
v -0.5958889722824097 -0.04051699861884117 0.04051699861884117 
v -0.5958889722824097 -0.02192699909210205 0.05293799936771393 
v -0.5958889722824097 0 0.05730000138282776 
v -0.5958889722824097 0.02192699909210205 0.05293799936771393 
v -0.5958889722824097 0.04051699861884117 0.04051699861884117 
v -0.5958889722824097 0.05293799936771393 0.02192699909210205 
v -0.5958889722824097 0.05730000138282776 0 
v -0.5958889722824097 0.05293799936771393 -0.02192699909210205 
v -0.5958889722824097 0.04051699861884117 -0.04051699861884117 
v -0.5958889722824097 0.02192699909210205 -0.05293799936771393 
v -0.5958889722824097 0 -0.05730000138282776 
v -0.5950009822845459 0.022281000390648842 -0.05379100143909454 
v -0.5950009822845459 0 -0.05822300165891647 
v -0.5750030279159546 0 -0.07899700105190277 
v -0.5750030279159546 0.030230000615119934 -0.0729840025305748 
v -0.5494620203971863 0 -0.09238000214099884 
v -0.5494620203971863 0.03535199910402298 -0.08534800261259079 
v -0.5210000276565552 0 -0.09700000286102295 
v -0.5210000276565552 0.03711999952793121 -0.08961600065231323 
v -0.5059990286827087 0.03623899817466736 -0.08979099988937378 
v -0.5059990286827087 0.03711999952793121 -0.08961600065231323 
v -0.5210000276565552 0.06858900189399719 -0.06858900189399719 
v -0.5059990286827087 0.06858900189399719 -0.06858900189399719 
v -0.5950009822845459 -0.05822300165891647 0 
v -0.5059990286827087 0 -0.09700000286102295 
v -0.5494620203971863 0.06532300263643265 -0.06532300263643265 
v -0.5750030279159546 0.055858999490737915 -0.055858999490737915 
v -0.5950009822845459 0.04117000102996826 -0.04117000102996826 
v -0.5950009822845459 0.05379100143909454 -0.022281000390648842 
v -0.5950009822845459 0.05822300165891647 0 
v -0.5950009822845459 0.05379100143909454 0.022281000390648842 
v -0.5950009822845459 0.04117000102996826 0.04117000102996826 
v -0.5950009822845459 0.022281000390648842 0.05379100143909454 
v -0.5950009822845459 0 0.05822300165891647 
v -0.5950009822845459 -0.022281000390648842 0.05379100143909454 
v -0.5950009822845459 -0.04117000102996826 0.04117000102996826 
v -0.5950009822845459 -0.05379100143909454 0.022281000390648842 
v -0.5750030279159546 -0.0729840025305748 0.030230000615119934 
v -0.5750030279159546 -0.07899700105190277 0 
v -0.5494620203971863 -0.08534800261259079 0.03535199910402298 
v -0.5494620203971863 -0.09238000214099884 0 
v -0.5210000276565552 -0.08961600065231323 0.03711999952793121 
v -0.5210000276565552 -0.09700000286102295 0 
v -0.5750030279159546 -0.055858999490737915 0.055858999490737915 
v -0.5494620203971863 -0.06532300263643265 0.06532300263643265 
v -0.5210000276565552 -0.06858900189399719 0.06858900189399719 
v -0.5750030279159546 -0.030230000615119934 0.0729840025305748 
v -0.5494620203971863 -0.03535199910402298 0.08534800261259079 
v -0.5210000276565552 -0.03711999952793121 0.08961600065231323 
v -0.5059990286827087 -0.03711999952793121 0.08961600065231323 
v -0.5059990286827087 -0.06858900189399719 0.06858900189399719 
v -0.5059990286827087 -0.08961600065231323 0.03711999952793121 
v -0.5059990286827087 -0.08979099988937378 0.03623899817466736 
v -0.5210000276565552 -0.09700000286102295 0 
v -0.5059990286827087 -0.09700000286102295 0 
v -0.5059990286827087 0 0.09700000286102295 
v -0.5210000276565552 0 0.09700000286102295 
v -0.5059990286827087 0.03623899817466736 0.08979099988937378 
v -0.5210000276565552 0.03711999952793121 0.08961600065231323 
v -0.5494620203971863 0 0.09238000214099884 
v -0.5750030279159546 0 0.07899700105190277 
v -0.5059990286827087 0.03711999952793121 0.08961600065231323 
v -0.5059990286827087 0.06858900189399719 0.06858900189399719 
v -0.5210000276565552 0.06858900189399719 0.06858900189399719 
v -0.5059990286827087 0.08961600065231323 0.03711999952793121 
v -0.5494620203971863 0.03535199910402298 0.08534800261259079 
v -0.5750030279159546 0.030230000615119934 0.0729840025305748 
v -0.5750030279159546 0.055858999490737915 0.055858999490737915 
v -0.5494620203971863 0.06532300263643265 0.06532300263643265 
v -0.5210000276565552 0.08961600065231323 0.03711999952793121 
v -0.5059990286827087 0.08979099988937378 0.03623899817466736 
v -0.5210000276565552 0.09700000286102295 0 
v -0.5059990286827087 0.09700000286102295 0 
v -0.5059990286827087 0.08961600065231323 -0.03711999952793121 
v -0.5210000276565552 0.08961600065231323 -0.03711999952793121 
v -0.5494620203971863 0.08534800261259079 -0.03535199910402298 
v -0.5750030279159546 0.0729840025305748 -0.030230000615119934 
v -0.5749689936637878 0.07691200077533722 -0.017330000177025795 
v -0.5772899985313416 0.07581300288438797 -0.014689999632537365 
v -0.570343017578125 0.0791039988398552 -0.022593000903725624 
v -0.5611220002174377 0.08315499871969223 -0.027424000203609467 
v -0.5702620148658752 0.07925400137901306 -0.022401999682188034 
v -0.5749689936637878 0.07691200077533722 -0.017330000177025795 
v -0.5771700143814087 0.07596699893474579 -0.014573999680578709 
v -0.580702006816864 0.07419200241565704 -0.005245000123977661 
v -0.5808389782905579 0.07403600215911865 -0.005286000203341246 
v -0.5813289880752563 0.07378499954938889 0 
v -0.579954981803894 0.07448600232601166 0.008779999800026417 
v -0.5811899900436401 0.07394000142812729 0 
v -0.5810859799385071 0.07412099838256836 0 
v -0.5806000232696533 0.07437299937009811 -0.0052089998498559 
v -0.5770890116691589 0.07615300267934799 -0.01447100006043911 
v -0.5702229738235474 0.07944700121879578 -0.022238999605178833 
v -0.5611039996147156 0.083296999335289 -0.02717299945652485 
v -0.5511720180511475 0.08720000088214874 -0.02866699919104576 
v -0.5494409799575806 0.0878560021519661 -0.028279999271035194 
v -0.5417879819869995 0.09075699746608734 -0.0265670008957386 
v -0.5338730216026306 0.09359099715948105 -0.021699000149965286 
v -0.5419480204582214 0.09086800366640091 -0.026277000084519386 
v -0.5494409799575806 0.0878560021519661 -0.028279999271035194 
v -0.5512369871139526 0.0873280018568039 -0.02837900072336197 
v -0.5611249804496765 0.08349700272083282 -0.026965999975800514 
v -0.5513299703598022 0.08753500133752823 -0.028152000159025192 
v -0.5421159863471985 0.0910789966583252 -0.026055000722408295 
v -0.5341269969940186 0.09368500113487244 -0.02144400030374527 
v -0.5280230045318604 0.09559900313615799 -0.014715000055730343 
v -0.5246580243110657 0.09672199934720993 -0.006264000199735165 
v -0.5242940187454224 0.09684199839830399 0.000001850290004767885 
v -0.5241219997406006 0.09690000116825104 0.0029800001066178083 
v -0.5266950130462646 0.09604500234127045 0.012218999676406384 
v -0.5324739813804626 0.09407799690961838 0.020402999594807625 
v -0.5410550236701965 0.09102600067853928 0.02625500038266182 
v -0.5494620203971863 0.08534800261259079 0.03535199910402298 
v -0.5750030279159546 0.0729840025305748 0.030230000615119934 
v -0.5749850273132324 0.07691799849271774 0.017684999853372574 
v -0.5760809779167175 0.07640299946069717 0.016553999856114388 
v -0.5698930025100708 0.07930999994277954 0.02293900027871132 
v -0.5613790154457092 0.08304700255393982 0.027343999594449997 
v -0.5798220038414001 0.07464099675416946 0.008712000213563442 
v -0.5797250270843506 0.07482299953699112 0.00865199975669384 
v -0.5698149800300598 0.07945899665355682 0.022745000198483467 
v -0.5749850273132324 0.07691799849271774 0.017684999853372574 
v -0.575967013835907 0.076555997133255 0.0164209995418787 
v -0.575892984867096 0.0767429992556572 0.016304999589920044 
v -0.5697780251502991 0.07965300232172012 0.022578999400138855 
v -0.561378002166748 0.08338899910449982 0.02688799984753132 
v -0.5613589882850647 0.08318900316953659 0.027093999087810516 
v -0.5512639880180359 0.0871639996767044 0.02867100015282631 
v -0.549439013004303 0.08785399794578552 0.028239000588655472 
v -0.5513280034065247 0.08729200065135956 0.028384000062942505 
v -0.549439013004303 0.08785399794578552 0.028239000588655472 
v -0.5412229895591736 0.09113500267267227 0.02596599981188774 
v -0.5327460169792175 0.09416799992322922 0.020160000771284103 
v -0.5514199733734131 0.08749900013208389 0.028156999498605728 
v -0.541396975517273 0.09134600311517715 0.025746000930666924 
v -0.5329970121383667 0.09438099712133408 0.01998100057244301 
v -0.5273550152778625 0.09633400291204453 0.011955000460147858 
v -0.5270469784736633 0.0961190015077591 0.012066000141203403 
v -0.5248460173606873 0.09718099981546402 0.0029140000697225332 
v -0.524511992931366 0.09696599841117859 0.002942000050097704 
v -0.5253689885139465 0.09700500220060349 -0.006126000080257654 
v -0.5250399708747864 0.09679099917411804 -0.006184000056236982 
v -0.5242940187454224 0.09684199839830399 0.000001850290004767885 
v -0.5283550024032593 0.09567700326442719 -0.014533000066876411 
v -0.5343649983406067 0.0938979983329773 -0.021254999563097954 
v -0.5286499857902527 0.09589099884033203 -0.014399999752640724 
v -0.5288619995117188 0.09621000289916992 -0.01433700043708086 
v -0.5345550179481506 0.09420199692249298 -0.021158000454306602 
v -0.5422729849815369 0.09136500209569931 -0.025930000469088554 
v -0.5514410138130188 0.08779899775981903 -0.028008000925183296 
v -0.561182975769043 0.0837400034070015 -0.02682100050151348 
v -0.5702270269393921 0.0796699970960617 -0.022113999351859093 
v -0.577049970626831 0.07636000216007233 -0.014387000352144241 
v -0.5805389881134033 0.07457300275564194 -0.005177999846637249 
v -0.5810210108757019 0.0743200033903122 0 
v -0.5796700119972229 0.07502499967813492 0.008600999601185322 
v -0.5758619904518127 0.07695300132036209 0.016210999339818954 
v -0.5697849988937378 0.07987599819898605 0.02245200052857399 
v -0.5614339709281921 0.0836310014128685 0.026743000373244286 
v -0.5515310168266296 0.0877629965543747 0.028013000264763832 
v -0.5415570139884949 0.09163399785757065 0.025622999295592308 
v -0.5331929922103882 0.09468899667263031 0.01988999918103218 
v -0.5275710225105286 0.0966549962759018 0.011903000064194202 
v -0.5250710248947144 0.0975089967250824 0.002901999978348613 
v -0.525592029094696 0.09733200073242188 -0.006099999882280827 
v -0.5288090109825134 0.09663599729537964 -0.013976000249385834 
v -0.5289589762687683 0.09658399969339371 -0.014353999868035316 
v -0.5346710085868835 0.09455499798059464 -0.021167000755667686 
v -0.5366920232772827 0.09380599856376648 -0.022408999502658844 
v -0.5423979759216309 0.09169100224971771 -0.025915000587701797 
v -0.5472639799118042 0.08978100121021271 -0.0270019993185997 
v -0.5515589714050293 0.08809500187635422 -0.02796199917793274 
v -0.5587790012359619 0.08505500108003616 -0.02706100046634674 
v -0.5612729787826538 0.08400499820709229 -0.02674899995326996 
v -0.5693789720535278 0.08031599968671799 -0.02250399999320507 
v -0.5702739953994751 0.07990799844264984 -0.02203500084578991 
v -0.5770559906959534 0.07657899707555771 -0.014326999895274639 
v -0.5771880149841309 0.07651100307703018 -0.013976999558508396 
v -0.5805209875106812 0.07478100061416626 -0.005154999904334545 
v -0.5807290077209473 0.07467100024223328 -0.0029150000773370266 
v -0.5809990167617798 0.07452700287103653 0 
v -0.5796579718589783 0.0752360001206398 0.008562999777495861 
v -0.5796170234680176 0.07525700330734253 0.008646000176668167 
v -0.575875997543335 0.07717599719762802 0.016145000234246254 
v -0.5735780000686646 0.07829400151968002 0.018512999638915062 
v -0.5698350071907043 0.08011599630117416 0.022373000159859657 
v -0.5642300248146057 0.08266499638557434 0.02527100034058094 
v -0.5615230202674866 0.08389600366353989 0.026670999825000763 
v -0.5529739856719971 0.08749999850988388 0.027792999520897865 
v -0.5516489744186401 0.0880580022931099 0.027967000380158424 
v -0.5416820049285889 0.09196200221776962 0.025609999895095825 
v -0.5416190028190613 0.09198600053787231 0.02556700073182583 
v -0.5333049893379211 0.0950469970703125 0.019902000203728676 
v -0.5323839783668518 0.09537199884653091 0.018598999828100204 
v -0.5276640057563782 0.0970349982380867 0.011920000426471233 
v -0.5267249941825867 0.09735699743032455 0.008553000167012215 
v -0.5251510143280029 0.09789799898862839 0.0029070000164210796 
v -0.525488018989563 0.09778299927711487 -0.0029070000164210796 
v -0.5256739854812622 0.09771999716758728 -0.006111000198870897 
v -0.5257610082626343 0.10970000177621841 -0.0028619999065995216 
v -0.525488018989563 0.09778299927711487 -0.0029070000164210796 
v -0.5251529812812805 0.10970000177621841 0.00292599992826581 
v -0.5269520282745361 0.10970000177621841 0.008462999947369099 
v -0.5267249941825867 0.09735699743032455 0.008553000167012215 
v -0.528751015663147 0.10970000177621841 0.014000000432133675 
v -0.5323839783668518 0.09537199884653091 0.018598999828100204 
v -0.5326460003852844 0.10970000177621841 0.01832599937915802 
v -0.5365409851074219 0.10970000177621841 0.022652000188827515 
v -0.5416190028190613 0.09198600053787231 0.02556700073182583 
v -0.5418599843978882 0.10970000177621841 0.025019999593496323 
v -0.5471779704093933 0.10970000177621841 0.02738800086081028 
v -0.5529990196228027 0.10970000177621841 0.02738800086081028 
v -0.5529739856719971 0.08749999850988388 0.027792999520897865 
v -0.5588210225105286 0.10970000177621841 0.02738800086081028 
v -0.5641390085220337 0.10970000177621841 0.025019999593496323 
v -0.5642300248146057 0.08266499638557434 0.02527100034058094 
v -0.5694580078125 0.10970000177621841 0.022652000188827515 
v -0.5733529925346375 0.10970000177621841 0.01832599937915802 
v -0.5735780000686646 0.07829400151968002 0.018512999638915062 
v -0.5772479772567749 0.10970000177621841 0.014000000432133675 
v -0.5790470242500305 0.10970000177621841 0.008462999947369099 
v -0.5796170234680176 0.07525700330734253 0.008646000176668167 
v -0.5808460116386414 0.10970000177621841 0.00292599992826581 
v -0.5809990167617798 0.07452700287103653 0 
v -0.5809990167617798 0.10970000177621841 0 
v -0.5807290077209473 0.07467100024223328 -0.0029150000773370266 
v -0.5805439949035645 0.10970000177621841 -0.0028780000284314156 
v -0.5796290040016174 0.10970000177621841 -0.00865199975669384 
v -0.5771880149841309 0.07651100307703018 -0.013976999558508396 
v -0.5767179727554321 0.10970000177621841 -0.01369400043040514 
v -0.5738080143928528 0.10970000177621841 -0.018735000863671303 
v -0.5693789720535278 0.08031599968671799 -0.02250399999320507 
v -0.5690979957580566 0.10970000177621841 -0.02215700037777424 
v -0.5643879771232605 0.10970000177621841 -0.025578999891877174 
v -0.5587790012359619 0.08505500108003616 -0.02706100046634674 
v -0.5586940050125122 0.10970000177621841 -0.026789000257849693 
v -0.5529990196228027 0.10970000177621841 -0.02800000086426735 
v -0.5472639799118042 0.08978100121021271 -0.0270019993185997 
v -0.5473049879074097 0.10970000177621841 -0.026789000257849693 
v -0.5416110157966614 0.10970000177621841 -0.025578999891877174 
v -0.5366920232772827 0.09380599856376648 -0.022408999502658844 
v -0.5369009971618652 0.10970000177621841 -0.02215700037777424 
v -0.5321909785270691 0.10970000177621841 -0.018735000863671303 
v -0.5292810201644897 0.10970000177621841 -0.01369400043040514 
v -0.5288090109825134 0.09663599729537964 -0.013976000249385834 
v -0.5263699889183044 0.10970000177621841 -0.00865199975669384 
v -0.4959990084171295 -0.09135399758815765 0.03623899817466736 
v -0.5056989789009094 -0.09816200286149979 0.008143999613821507 
v -0.4959990084171295 -0.09816200286149979 0.008143999613821507 
v -0.4959990084171295 -0.09851100295782089 0.0069679999724030495 
v -0.5056989789009094 -0.09851100295782089 0.0069679999724030495 
v -0.4959990084171295 -0.09930200129747391 0.006029999814927578 
v -0.5056989789009094 -0.09930200129747391 0.006029999814927578 
v -0.4959990084171295 -0.10040199756622314 0.0054870001040399075 
v -0.5056989789009094 -0.10040199756622314 0.0054870001040399075 
v -0.4959990084171295 -0.10162799805402756 0.005429999902844429 
v -0.5056989789009094 -0.10162799805402756 0.005429999902844429 
v -0.5056989789009094 -0.10352099686861038 0.005404000170528889 
v -0.4959990084171295 -0.10352099686861038 0.005404000170528889 
v -0.5056989789009094 -0.10529299825429916 0.004736999981105328 
v -0.4959990084171295 -0.10529299825429916 0.004736999981105328 
v -0.5056989789009094 -0.10673400014638901 0.0035089999437332153 
v -0.4959990084171295 -0.10673400014638901 0.0035089999437332153 
v -0.5056989789009094 -0.1076740026473999 0.0018649999983608723 
v -0.4959990084171295 -0.1076740026473999 0.0018649999983608723 
v -0.5056989789009094 -0.1080000028014183 0 
v -0.4959990084171295 -0.1080000028014183 0 
v -0.5056989789009094 -0.09100200235843658 0.03769399970769882 
v -0.4959990084171295 -0.09100200235843658 0.03769399970769882 
v -0.4959990084171295 -0.07517000287771225 0.06365200132131577 
v -0.5056989789009094 -0.07517000287771225 0.06365200132131577 
v -0.4959990084171295 0.008143999613821507 -0.09816200286149979 
v -0.4959990084171295 0.03623899817466736 -0.09135399758815765 
v -0.5056989789009094 0.008143999613821507 -0.09816200286149979 
v -0.5056989789009094 0.03769399970769882 -0.09100200235843658 
v -0.4959990084171295 0.03769399970769882 -0.09100200235843658 
v -0.5056989789009094 0.06365200132131577 -0.07517000287771225 
v -0.4959990084171295 0.06365200132131577 -0.07517000287771225 
v -0.4959990084171295 0.06473000347614288 -0.07458499819040298 
v -0.5056989789009094 0.06473000347614288 -0.07458499819040298 
v -0.4959990084171295 0.06595300137996674 -0.07448100298643112 
v -0.5056989789009094 0.06595300137996674 -0.07448100298643112 
v -0.4959990084171295 0.06711500138044357 -0.07487499713897705 
v -0.5056989789009094 0.06711500138044357 -0.07487499713897705 
v -0.4959990084171295 0.06802099943161011 -0.07570099830627441 
v -0.5056989789009094 0.06802099943161011 -0.07570099830627441 
v -0.5056989789009094 0.06968799978494644 -0.07721800357103348 
v -0.4959990084171295 0.06968799978494644 -0.07721800357103348 
v -0.5056989789009094 0.07182300090789795 -0.0779390037059784 
v -0.4959990084171295 0.07182300090789795 -0.0779390037059784 
v -0.5056989789009094 0.07406800240278244 -0.07774300128221512 
v -0.4959990084171295 0.07406800240278244 -0.07774300128221512 
v -0.5056989789009094 0.07604499906301498 -0.07666400074958801 
v -0.4959990084171295 0.07604499906301498 -0.07666400074958801 
v -0.5056989789009094 0.07742500305175781 -0.07488200068473816 
v -0.4959990084171295 0.07742500305175781 -0.07488200068473816 
v -0.5056989789009094 0.07797399908304214 -0.0726969987154007 
v -0.4959990084171295 0.07797399908304214 -0.0726969987154007 
v -0.5056989789009094 0.07760000228881836 -0.07047499716281891 
v -0.4959990084171295 0.07760000228881836 -0.07047499716281891 
v -0.5056989789009094 0.07636699825525284 -0.06858900189399719 
v -0.4959990084171295 0.07636699825525284 -0.06858900189399719 
v -0.5056989789009094 0.07570099830627441 -0.06802099943161011 
v -0.4959990084171295 0.07570099830627441 -0.06802099943161011 
v -0.4959990084171295 0.07487499713897705 -0.06711500138044357 
v -0.5056989789009094 0.07487499713897705 -0.06711500138044357 
v -0.4959990084171295 0.07448100298643112 -0.06595300137996674 
v -0.5056989789009094 0.07448100298643112 -0.06595300137996674 
v -0.4959990084171295 0.07458499819040298 -0.06473000347614288 
v -0.5056989789009094 0.07458499819040298 -0.06473000347614288 
v -0.4959990084171295 0.07517000287771225 -0.06365200132131577 
v -0.5056989789009094 0.07517000287771225 -0.06365200132131577 
v -0.5056989789009094 0.07517000287771225 -0.06365200132131577 
v -0.5056989789009094 0.09100200235843658 -0.03769399970769882 
v -0.4959990084171295 0.07517000287771225 -0.06365200132131577 
v -0.4959990084171295 0.09100200235843658 -0.03769399970769882 
v -0.5056989789009094 0.09816200286149979 -0.008143999613821507 
v -0.4959990084171295 0.09816200286149979 -0.008143999613821507 
v -0.4959990084171295 0.09851100295782089 -0.0069679999724030495 
v -0.5056989789009094 0.09851100295782089 -0.0069679999724030495 
v -0.4959990084171295 0.09930200129747391 -0.006029999814927578 
v -0.5056989789009094 0.09930200129747391 -0.006029999814927578 
v -0.4959990084171295 0.10040199756622314 -0.0054870001040399075 
v -0.5056989789009094 0.10040199756622314 -0.0054870001040399075 
v -0.4959990084171295 0.10162799805402756 -0.005429999902844429 
v -0.5056989789009094 0.10162799805402756 -0.005429999902844429 
v -0.5056989789009094 0.10387799888849258 -0.005324000027030706 
v -0.4959990084171295 0.10387799888849258 -0.005324000027030706 
v -0.5056989789009094 0.10589800029993057 -0.004323999863117933 
v -0.4959990084171295 0.10589800029993057 -0.004323999863117933 
v -0.5056989789009094 0.10734699666500092 -0.002598999999463558 
v -0.4959990084171295 0.10734699666500092 -0.002598999999463558 
v -0.5056989789009094 0.10798200219869614 -0.00043700000969693065 
v -0.4959990084171295 0.10798200219869614 -0.00043700000969693065 
v -0.5056989789009094 0.1076970025897026 0.0017969999462366104 
v -0.4959990084171295 0.1076970025897026 0.0017969999462366104 
v -0.5056989789009094 0.1065400019288063 0.003731000004336238 
v -0.4959990084171295 0.1065400019288063 0.003731000004336238 
v -0.5056989789009094 0.10470499843358994 0.005038000177592039 
v -0.4959990084171295 0.10470499843358994 0.005038000177592039 
v -0.5056989789009094 0.10249900072813034 0.005499000195413828 
v -0.4959990084171295 0.10249900072813034 0.005499000195413828 
v -0.5056989789009094 0.10162799805402756 0.005429999902844429 
v -0.4959990084171295 0.10162799805402756 0.005429999902844429 
v -0.4959990084171295 0.10040199756622314 0.0054870001040399075 
v -0.5056989789009094 0.10040199756622314 0.0054870001040399075 
v -0.4959990084171295 0.09930200129747391 0.006029999814927578 
v -0.5056989789009094 0.09930200129747391 0.006029999814927578 
v -0.4959990084171295 0.09851100295782089 0.0069679999724030495 
v -0.5056989789009094 0.09851100295782089 0.0069679999724030495 
v -0.4959990084171295 0.09816200286149979 0.008143999613821507 
v -0.5056989789009094 0.09816200286149979 0.008143999613821507 
v -0.4959990084171295 0.09816200286149979 0.008143999613821507 
v -0.5056989789009094 0.09816200286149979 0.008143999613821507 
v -0.4959990084171295 0.09135399758815765 0.03623899817466736 
v -0.5056989789009094 0.09100200235843658 0.03769399970769882 
v -0.4959990084171295 0.09100200235843658 0.03769399970769882 
v -0.5056989789009094 0.07517000287771225 0.06365200132131577 
v -0.4959990084171295 0.07517000287771225 0.06365200132131577 
v -0.4959990084171295 0.07458499819040298 0.06473000347614288 
v -0.5056989789009094 0.07458499819040298 0.06473000347614288 
v -0.4959990084171295 0.07448100298643112 0.06595300137996674 
v -0.5056989789009094 0.07448100298643112 0.06595300137996674 
v -0.4959990084171295 0.07487499713897705 0.06711500138044357 
v -0.5056989789009094 0.07487499713897705 0.06711500138044357 
v -0.4959990084171295 0.07570099830627441 0.06802099943161011 
v -0.5056989789009094 0.07570099830627441 0.06802099943161011 
v -0.5056989789009094 0.07721800357103348 0.06968799978494644 
v -0.4959990084171295 0.07721800357103348 0.06968799978494644 
v -0.5056989789009094 0.0779390037059784 0.07182300090789795 
v -0.4959990084171295 0.0779390037059784 0.07182300090789795 
v -0.5056989789009094 0.07774300128221512 0.07406800240278244 
v -0.4959990084171295 0.07774300128221512 0.07406800240278244 
v -0.5056989789009094 0.07666400074958801 0.07604499906301498 
v -0.4959990084171295 0.07666400074958801 0.07604499906301498 
v -0.5056989789009094 0.07488200068473816 0.07742500305175781 
v -0.4959990084171295 0.07488200068473816 0.07742500305175781 
v -0.5056989789009094 0.0726969987154007 0.07797399908304214 
v -0.4959990084171295 0.0726969987154007 0.07797399908304214 
v -0.5056989789009094 0.07047499716281891 0.07760000228881836 
v -0.4959990084171295 0.07047499716281891 0.07760000228881836 
v -0.5056989789009094 0.06858900189399719 0.07636699825525284 
v -0.4959990084171295 0.06858900189399719 0.07636699825525284 
v -0.5056989789009094 0.06802099943161011 0.07570099830627441 
v -0.4959990084171295 0.06802099943161011 0.07570099830627441 
v -0.4959990084171295 0.06711500138044357 0.07487499713897705 
v -0.5056989789009094 0.06711500138044357 0.07487499713897705 
v -0.4959990084171295 0.06595300137996674 0.07448100298643112 
v -0.5056989789009094 0.06595300137996674 0.07448100298643112 
v -0.4959990084171295 0.06473000347614288 0.07458499819040298 
v -0.5056989789009094 0.06473000347614288 0.07458499819040298 
v -0.4959990084171295 0.06365200132131577 0.07517000287771225 
v -0.5056989789009094 0.06365200132131577 0.07517000287771225 
v -0.5056989789009094 0.06365200132131577 0.07517000287771225 
v -0.5056989789009094 0.03769399970769882 0.09100200235843658 
v -0.4959990084171295 0.06365200132131577 0.07517000287771225 
v -0.4959990084171295 0.03769399970769882 0.09100200235843658 
v -0.4959990084171295 0.03623899817466736 0.09135399758815765 
v -0.5056989789009094 0.008143999613821507 0.09816200286149979 
v -0.4959990084171295 0.008143999613821507 0.09816200286149979 
v -0.4959990084171295 0.0069679999724030495 0.09851100295782089 
v -0.5056989789009094 0.0069679999724030495 0.09851100295782089 
v -0.4959990084171295 0.006029999814927578 0.09930200129747391 
v -0.5056989789009094 0.006029999814927578 0.09930200129747391 
v -0.4959990084171295 0.0054870001040399075 0.10040199756622314 
v -0.5056989789009094 0.0054870001040399075 0.10040199756622314 
v -0.4959990084171295 0.005429999902844429 0.10162799805402756 
v -0.5056989789009094 0.005429999902844429 0.10162799805402756 
v -0.5056989789009094 0.005324000027030706 0.10387799888849258 
v -0.4959990084171295 0.005324000027030706 0.10387799888849258 
v -0.5056989789009094 0.004323999863117933 0.10589800029993057 
v -0.4959990084171295 0.004323999863117933 0.10589800029993057 
v -0.5056989789009094 0.002598999999463558 0.10734699666500092 
v -0.4959990084171295 0.002598999999463558 0.10734699666500092 
v -0.5056989789009094 0.00043700000969693065 0.10798200219869614 
v -0.4959990084171295 0.00043700000969693065 0.10798200219869614 
v -0.5056989789009094 -0.0017969999462366104 0.1076970025897026 
v -0.4959990084171295 -0.0017969999462366104 0.1076970025897026 
v -0.5056989789009094 -0.003731000004336238 0.1065400019288063 
v -0.4959990084171295 -0.003731000004336238 0.1065400019288063 
v -0.5056989789009094 -0.005038000177592039 0.10470499843358994 
v -0.4959990084171295 -0.005038000177592039 0.10470499843358994 
v -0.5056989789009094 -0.005499000195413828 0.10249900072813034 
v -0.4959990084171295 -0.005499000195413828 0.10249900072813034 
v -0.5056989789009094 -0.005429999902844429 0.10162799805402756 
v -0.4959990084171295 -0.005429999902844429 0.10162799805402756 
v -0.4959990084171295 -0.0054870001040399075 0.10040199756622314 
v -0.5056989789009094 -0.0054870001040399075 0.10040199756622314 
v -0.4959990084171295 -0.006029999814927578 0.09930200129747391 
v -0.5056989789009094 -0.006029999814927578 0.09930200129747391 
v -0.4959990084171295 -0.0069679999724030495 0.09851100295782089 
v -0.5056989789009094 -0.0069679999724030495 0.09851100295782089 
v -0.4959990084171295 -0.008143999613821507 0.09816200286149979 
v -0.5056989789009094 -0.008143999613821507 0.09816200286149979 
v -0.5056989789009094 -0.008143999613821507 0.09816200286149979 
v -0.5056989789009094 -0.03769399970769882 0.09100200235843658 
v -0.4959990084171295 -0.008143999613821507 0.09816200286149979 
v -0.4959990084171295 -0.03769399970769882 0.09100200235843658 
v -0.5056989789009094 -0.06365200132131577 0.07517000287771225 
v -0.4959990084171295 -0.06365200132131577 0.07517000287771225 
v -0.4959990084171295 -0.06473000347614288 0.07458499819040298 
v -0.5056989789009094 -0.06473000347614288 0.07458499819040298 
v -0.4959990084171295 -0.06595300137996674 0.07448100298643112 
v -0.5056989789009094 -0.06595300137996674 0.07448100298643112 
v -0.4959990084171295 -0.06711500138044357 0.07487499713897705 
v -0.5056989789009094 -0.06711500138044357 0.07487499713897705 
v -0.4959990084171295 -0.06802099943161011 0.07570099830627441 
v -0.5056989789009094 -0.06802099943161011 0.07570099830627441 
v -0.5056989789009094 -0.06968799978494644 0.07721800357103348 
v -0.4959990084171295 -0.06968799978494644 0.07721800357103348 
v -0.5056989789009094 -0.07182300090789795 0.0779390037059784 
v -0.4959990084171295 -0.07182300090789795 0.0779390037059784 
v -0.5056989789009094 -0.07406800240278244 0.07774300128221512 
v -0.4959990084171295 -0.07406800240278244 0.07774300128221512 
v -0.5056989789009094 -0.07604499906301498 0.07666400074958801 
v -0.4959990084171295 -0.07604499906301498 0.07666400074958801 
v -0.5056989789009094 -0.07742500305175781 0.07488200068473816 
v -0.4959990084171295 -0.07742500305175781 0.07488200068473816 
v -0.5056989789009094 -0.07797399908304214 0.0726969987154007 
v -0.4959990084171295 -0.07797399908304214 0.0726969987154007 
v -0.5056989789009094 -0.07760000228881836 0.07047499716281891 
v -0.4959990084171295 -0.07760000228881836 0.07047499716281891 
v -0.5056989789009094 -0.07636699825525284 0.06858900189399719 
v -0.4959990084171295 -0.07636699825525284 0.06858900189399719 
v -0.5056989789009094 -0.07570099830627441 0.06802099943161011 
v -0.4959990084171295 -0.07570099830627441 0.06802099943161011 
v -0.4959990084171295 -0.07487499713897705 0.06711500138044357 
v -0.5056989789009094 -0.07487499713897705 0.06711500138044357 
v -0.4959990084171295 -0.07448100298643112 0.06595300137996674 
v -0.5056989789009094 -0.07448100298643112 0.06595300137996674 
v -0.4959990084171295 -0.07458499819040298 0.06473000347614288 
v -0.5056989789009094 -0.07458499819040298 0.06473000347614288 
v -0.4959990084171295 -0.07517000287771225 0.06365200132131577 
v -0.5056989789009094 -0.07517000287771225 0.06365200132131577 
v -0.4959990084171295 0.005429999902844429 -0.10162799805402756 
v -0.4959990084171295 0.005499000195413828 -0.10249900072813034 
v -0.5056989789009094 0.005429999902844429 -0.10162799805402756 
v -0.5056989789009094 0.005499000195413828 -0.10249900072813034 
v -0.4959990084171295 0.005080999806523323 -0.10460399836301804 
v -0.4959990084171295 0.0054870001040399075 -0.10040199756622314 
v -0.5056989789009094 0.0054870001040399075 -0.10040199756622314 
v -0.4959990084171295 0.006029999814927578 -0.09930200129747391 
v -0.5056989789009094 0.006029999814927578 -0.09930200129747391 
v -0.4959990084171295 0.0069679999724030495 -0.09851100295782089 
v -0.5056989789009094 0.0069679999724030495 -0.09851100295782089 
v -0.4959990084171295 0.008143999613821507 -0.09816200286149979 
v -0.5056989789009094 0.008143999613821507 -0.09816200286149979 
v -0.5056989789009094 0.005080999806523323 -0.10460399836301804 
v -0.4959990084171295 0.003889000043272972 -0.10638900101184845 
v -0.5056989789009094 0.003889000043272972 -0.10638900101184845 
v -0.4959990084171295 0.0021039999555796385 -0.1075809970498085 
v -0.5056989789009094 0.0021039999555796385 -0.1075809970498085 
v -0.4959990084171295 0 -0.1080000028014183 
v -0.5056989789009094 0 -0.1080000028014183 
vn 0 0 1 
vn -3.962606474504013e-14 0.3831879794597626 0.9236704111099243 
vn -3.962606474504013e-14 0.3831879794597626 0.9236704111099243 
vn 0.00376924779266119 0.707868754863739 0.7063339352607727 
vn 0 0 1 
vn 1.187080219278852e-13 -0.3831879794597626 0.9236704111099243 
vn 1.187080219278852e-13 -0.3831879794597626 0.9236704111099243 
vn 0.00376924779266119 -0.707868754863739 0.7063339352607727 
vn 0.00376924779266119 -0.707868754863739 0.7063339352607727 
vn 0.0037719623651355505 -0.9244976043701172 0.3811691105365753 
vn 0.0037719623651355505 -0.9244976043701172 0.3811691105365753 
vn 3.097898456858039e-13 -0.999997615814209 0.002184694167226553 
vn 3.097898456858039e-13 -0.999997615814209 0.002184694167226553 
vn 0.00376924779266119 0.707868754863739 0.7063339352607727 
vn 0.0037719623651355505 0.9244976043701172 0.3811691105365753 
vn 0.0037719623651355505 0.9244976043701172 0.3811691105365753 
vn -1.0341130485562108e-13 0.999997615814209 0.002184694167226553 
vn -1.0341130485562108e-13 0.999997615814209 0.002184694167226553 
vn 0.0018884376622736454 0.9245033860206604 -0.3811691105365753 
vn 0.0018884376622736454 0.9245033860206604 -0.3811691105365753 
vn 0.0018878303235396743 0.7078762650489807 -0.7063339352607727 
vn 0.0018878303235396743 0.7078762650489807 -0.7063339352607727 
vn 0.0037855375558137894 0.3831692636013031 -0.9236704111099243 
vn 0.0037855375558137894 0.3831692636013031 -0.9236704111099243 
vn -2.0682311115474694e-13 0 -1 
vn -2.0682311115474694e-13 0 -1 
vn -0.31773048639297485 -6.571400867037835e-14 -0.9481810927391052 
vn -0.31848812103271484 0.36125388741493225 -0.8763908743858337 
vn 0.0037855375558137894 0.3831692636013031 -0.9236704111099243 
vn -0.314680278301239 0.6708597540855408 -0.6715083718299866 
vn 0.0018878303235396743 0.7078762650489807 -0.7063339352607727 
vn -0.3127090334892273 0.8769389390945435 -0.3649536371231079 
vn 0.0018884376622736454 0.9245033860206604 -0.3811691105365753 
vn -0.31905397772789 0.947733998298645 0.002184694167226553 
vn -1.0341130485562108e-13 0.999997615814209 0.002184694167226553 
vn -0.3127090334892273 0.8769389390945435 0.3649536371231079 
vn 0.0037719623651355505 0.9244976043701172 0.3811691105365753 
vn -0.31931954622268677 0.6686639785766602 0.6715083718299866 
vn 0.00376924779266119 0.707868754863739 0.7063339352607727 
vn -0.31434565782546997 0.36486414074897766 0.8763908743858337 
vn -3.962606474504013e-14 0.3831879794597626 0.9236704111099243 
vn -0.31773048639297485 -6.571400867037835e-14 0.9481810927391052 
vn 0 0 1 
vn -0.31434565782546997 -0.36486414074897766 0.8763908743858337 
vn 1.187080219278852e-13 -0.3831879794597626 0.9236704111099243 
vn -0.31931954622268677 -0.6686639785766602 0.6715083718299866 
vn 0.00376924779266119 -0.707868754863739 0.7063339352607727 
vn -0.3127090334892273 -0.8769389390945435 0.3649536371231079 
vn 0.0037719623651355505 -0.9244976043701172 0.3811691105365753 
vn -0.31905397772789 -0.947733998298645 0.002184694167226553 
vn 3.097898456858039e-13 -0.999997615814209 0.002184694167226553 
vn -0.5987265110015869 -0.8009505867958069 0.002184694167226553 
vn -0.6000308394432068 -0.7385771870613098 0.30735430121421814 
vn -0.601007878780365 -0.5650049448013306 0.5652954578399658 
vn -0.5982978940010071 -0.3084440231323242 0.7395281791687012 
vn -0.5990272760391235 0.0037713919300585985 0.8007197380065918 
vn -0.5982978940010071 0.3084440231323242 0.7395281791687012 
vn -0.601007878780365 0.5650049448013306 0.5652954578399658 
vn -0.6000308394432068 0.7385771870613098 0.30735430121421814 
vn -0.5987265110015869 0.8009505867958069 0.002184694167226553 
vn -0.6000308394432068 0.7385771870613098 -0.30735430121421814 
vn -0.5977892875671387 0.5684092044830322 -0.5652954578399658 
vn -0.5997593402862549 0.3055926263332367 -0.7395281791687012 
vn -0.5990391373634338 -1.238951432766533e-13 -0.8007197380065918 
vn -0.823064386844635 0.21662968397140503 -0.5250110030174255 
vn -0.8224106431007385 -1.7009352639481973e-13 -0.5688942670822144 
vn -0.5990391373634338 -1.238951432766533e-13 -0.8007197380065918 
vn -0.5997593402862549 0.3055926263332367 -0.7395281791687012 
vn -0.31773048639297485 -6.571400867037835e-14 -0.9481810927391052 
vn -0.31848812103271484 0.36125388741493225 -0.8763908743858337 
vn -2.0682311115474694e-13 0 -1 
vn 0.0037855375558137894 0.3831692636013031 -0.9236704111099243 
vn -3.878985010258816e-14 0.3751016855239868 -0.926983654499054 
vn 0.0037855375558137894 0.3831692636013031 -0.9236704111099243 
vn 0.0018878303235396743 0.7078762650489807 -0.7063339352607727 
vn 0.0018878303235396743 0.7078762650489807 -0.7063339352607727 
vn -0.8229818940162659 -0.5680633783340454 0.002184694167226553 
vn -2.0682311115474694e-13 0 -1 
vn -0.314680278301239 0.6708597540855408 -0.6715083718299866 
vn -0.5977892875671387 0.5684092044830322 -0.5652954578399658 
vn -0.8233678936958313 0.4013032615184784 -0.401274174451828 
vn -0.8201138973236084 0.5286870002746582 -0.21886809170246124 
vn -0.8229818940162659 0.5680633783340454 0.002184694167226553 
vn -0.8201138973236084 0.5286870002746582 0.21886809170246124 
vn -0.8219490051269531 0.40420153737068176 0.401274174451828 
vn -0.8221763372421265 0.21997612714767456 0.5250110030174255 
vn -0.8224020004272461 0.003771781222894788 0.5688942670822144 
vn -0.8221763372421265 -0.21997612714767456 0.5250110030174255 
vn -0.8219490051269531 -0.40420153737068176 0.401274174451828 
vn -0.8201138973236084 -0.5286870002746582 0.21886809170246124 
vn -0.6000308394432068 -0.7385771870613098 0.30735430121421814 
vn -0.5987265110015869 -0.8009505867958069 0.002184694167226553 
vn -0.3127090334892273 -0.8769389390945435 0.3649536371231079 
vn -0.31905397772789 -0.947733998298645 0.002184694167226553 
vn 0.0037719623651355505 -0.9244976043701172 0.3811691105365753 
vn 3.097898456858039e-13 -0.999997615814209 0.002184694167226553 
vn -0.601007878780365 -0.5650049448013306 0.5652954578399658 
vn -0.31931954622268677 -0.6686639785766602 0.6715083718299866 
vn 0.00376924779266119 -0.707868754863739 0.7063339352607727 
vn -0.5982978940010071 -0.3084440231323242 0.7395281791687012 
vn -0.31434565782546997 -0.36486414074897766 0.8763908743858337 
vn 1.187080219278852e-13 -0.3831879794597626 0.9236704111099243 
vn 1.187080219278852e-13 -0.3831879794597626 0.9236704111099243 
vn 0.00376924779266119 -0.707868754863739 0.7063339352607727 
vn 0.0037719623651355505 -0.9244976043701172 0.3811691105365753 
vn 0.0018853626679629087 -0.9277990460395813 0.37307560443878174 
vn 3.097898456858039e-13 -0.999997615814209 0.002184694167226553 
vn 3.097898456858039e-13 -0.999997615814209 0.002184694167226553 
vn 0 0 1 
vn 0 0 1 
vn 0.0018824469298124313 0.37509697675704956 0.926983654499054 
vn -3.962606474504013e-14 0.3831879794597626 0.9236704111099243 
vn -0.31773048639297485 -6.571400867037835e-14 0.9481810927391052 
vn -0.5990272760391235 0.0037713919300585985 0.8007197380065918 
vn -3.962606474504013e-14 0.3831879794597626 0.9236704111099243 
vn 0.00376924779266119 0.707868754863739 0.7063339352607727 
vn 0.00376924779266119 0.707868754863739 0.7063339352607727 
vn 0.0037719623651355505 0.9244976043701172 0.3811691105365753 
vn -0.31434565782546997 0.36486414074897766 0.8763908743858337 
vn -0.5982978940010071 0.3084440231323242 0.7395281791687012 
vn -0.601007878780365 0.5650049448013306 0.5652954578399658 
vn -0.31931954622268677 0.6686639785766602 0.6715083718299866 
vn 0.0037719623651355505 0.9244976043701172 0.3811691105365753 
vn 0.0018853626679629087 0.9277990460395813 0.37307560443878174 
vn -1.0341130485562108e-13 0.999997615814209 0.002184694167226553 
vn -1.0341130485562108e-13 0.999997615814209 0.002184694167226553 
vn 0.0018884376622736454 0.9245033860206604 -0.3811691105365753 
vn 0.0018884376622736454 0.9245033860206604 -0.3811691105365753 
vn -0.3127090334892273 0.8769389390945435 -0.3649536371231079 
vn -0.6000308394432068 0.7385771870613098 -0.30735430121421814 
vn -0.5988800525665283 0.781251072883606 -0.1760382205247879 
vn -0.6227211952209473 0.7678972482681274 -0.15017375349998474 
vn -0.5461393594741821 0.8050310611724854 -0.23163928091526031 
vn -0.4465920627117157 0.8490346670150757 -0.28230419754981995 
vn -0.6298859119415283 0.6525677442550659 -0.42118772864341736 
vn -0.7544926404953003 0.5313736796379089 -0.3852050006389618 
vn -0.743919312953949 0.6132669448852539 -0.26549527049064636 
vn -0.802780270576477 0.5888502597808838 -0.09380380809307098 
vn -0.6641961336135864 0.7455624938011169 -0.05459024757146835 
vn -0.6687547564506531 0.74347984790802 0.002184694167226553 
vn -0.6553416848182678 0.750016987323761 0.08945280313491821 
vn -0.8099018931388855 0.5865612626075745 0.002184694167226553 
vn -0.9149710536003113 0.4035136103630066 0.002184694167226553 
vn -0.9044243693351746 0.4068094491958618 -0.12854042649269104 
vn -0.8263130784034729 0.42547887563705444 -0.3690181374549866 
vn -0.6685448884963989 0.46146324276924133 -0.5831804275512695 
vn -0.463976114988327 0.707987368106842 -0.5324283838272095 
vn -0.3344905376434326 0.8950848579406738 -0.2948545813560486 
vn -0.3185628056526184 0.9022332429885864 -0.29067665338516235 
vn -0.23185521364212036 0.9333897233009338 -0.27391019463539124 
vn -0.14484021067619324 0.9639681577682495 -0.22312943637371063 
vn -0.07168469578027725 0.8217678070068359 -0.5652954578399658 
vn -0.2676182687282562 0.8334234356880188 -0.4835140109062195 
vn -0.2667720913887024 0.7672895789146423 -0.5831804275512695 
vn -0.4428754150867462 0.5069116950035095 -0.7395281791687012 
vn -0.17681270837783813 0.5613021850585938 -0.8085030317306519 
vn 0.0960279256105423 0.6123389601707458 -0.7847417593002319 
vn 0.10922320187091827 0.8706163763999939 -0.4796847105026245 
vn -0.07728715986013412 0.9856340885162354 -0.15017375349998474 
vn -0.039605170488357544 0.997207522392273 -0.0633138045668602 
vn -0.03775046393275261 0.9992848038673401 0.002184694167226553 
vn -0.03773028776049614 0.9987506866455078 0.03276457265019417 
vn -0.0641121044754982 0.9901830554008484 0.1242060661315918 
vn -0.12417640537023544 0.969711422920227 0.2103329300880432 
vn -0.2205743044614792 0.9373398423194885 0.26970529556274414 
vn -0.3127090334892273 0.8769389390945435 0.3649536371231079 
vn -0.6000308394432068 0.7385771870613098 0.30735430121421814 
vn -0.5984063744544983 0.7806331515312195 0.18033768236637115 
vn -0.613423764705658 0.7718022465705872 0.16742929816246033 
vn -0.5439838171005249 0.8064892292022705 0.23163928091526031 
vn -0.449469655752182 0.8489004373550415 0.2781098484992981 
vn -0.78669273853302 0.5977011919021606 0.15449213981628418 
vn -0.885570764541626 0.4097086489200592 0.21886809170246124 
vn -0.6224914789199829 0.6545072793960571 0.42909738421440125 
vn -0.6888713240623474 0.66220623254776 0.2948545813560486 
vn -0.7272047996520996 0.6178641319274902 0.2990269064903259 
vn -0.8002131581306458 0.43079662322998047 0.417220801115036 
vn -0.6597138047218323 0.46065717935562134 0.5937783122062683 
vn -0.448069304227829 0.5066397786140442 0.736579954624176 
vn -0.47136828303337097 0.7058768272399902 0.528724730014801 
vn -0.3393823504447937 0.8932415246963501 0.2948545813560486 
vn -0.3163994550704956 0.9029941558837891 0.29067665338516235 
vn -0.2717280983924866 0.7655484676361084 0.5831804275512695 
vn -0.2636118233203888 0.8210821151733398 0.5062933564186096 
vn -0.05466345325112343 0.8279945254325867 0.5580654144287109 
vn 0.14079579710960388 0.8805140852928162 0.45262736082077026 
vn -0.17970404028892517 0.5603832006454468 0.8085030317306519 
vn 0.1162380650639534 0.6157819628715515 0.7792953848838806 
vn 0.39841675758361816 0.6649473309516907 0.6317508816719055 
vn 0.5951420664787292 0.7030670046806335 0.3892335295677185 
vn 0.2896420657634735 0.9158397316932678 0.2781098484992981 
vn 0.6902168393135071 0.716914713382721 0.0981530249118805 
vn 0.3581339120864868 0.931214451789856 0.06767380982637405 
vn 0.6701910495758057 0.7142325043678284 -0.2017817199230194 
vn 0.3385598361492157 0.9295721054077148 -0.1458524912595749 
vn 0.25395211577415466 0.9672143459320068 0.002184694167226553 
vn 0.25344932079315186 0.9070050716400146 -0.3363112509250641 
vn 0.3466184735298157 0.65823894739151 -0.6682642698287964 
vn 0.5509487390518188 0.6908678412437439 -0.46814218163490295 
vn 0.7628536224365234 0.37216195464134216 -0.528724730014801 
vn 0.5398820638656616 0.3502280116081238 -0.7654199600219727 
vn 0.24960654973983765 0.3268449902534485 -0.9115201234817505 
vn -0.06383765488862991 0.29426610469818115 -0.953589141368866 
vn -0.3824392259120941 0.2666317820549011 -0.8846737742424011 
vn -0.6637061238288879 0.23710162937641144 -0.7094202041625977 
vn -0.8649479746818542 0.21677981317043304 -0.45262736082077026 
vn -0.9647828936576843 0.20970013737678528 -0.15880759060382843 
vn -0.9777246117591858 0.20988060534000397 0.002184694167226553 
vn -0.9398671984672546 0.2095440924167633 0.26970529556274414 
vn -0.8305057883262634 0.223835751414299 0.5100564956665039 
vn -0.6514596939086914 0.2433473914861679 0.7185974717140198 
vn -0.3920789361000061 0.26622870564460754 0.8805659413337708 
vn -0.06700348109006882 0.2935614287853241 0.953589141368866 
vn 0.2770862579345703 0.3302185535430908 0.9023185968399048 
vn 0.5921774506568909 0.3585766553878784 0.7216291427612305 
vn 0.8130627870559692 0.38017866015434265 0.4409002661705017 
vn 0.9149404764175415 0.38918882608413696 0.10684575140476227 
vn 0.89266037940979 0.3891693949699402 -0.22738653421401978 
vn 0.864433228969574 0.015109728090465069 -0.5025205612182617 
vn 0.8579040765762329 0 -0.5138099193572998 
vn 0.6535087823867798 0 -0.7569189071655273 
vn 0.5754196643829346 0.0528736375272274 -0.8161473870277405 
vn 0.3791484534740448 0 -0.9253358840942383 
vn 0.19169622659683228 0.03764791041612625 -0.9807319641113281 
vn 0.05240868031978607 0 -0.9986256957054138 
vn -0.20816227793693542 0.0037805375177413225 -0.9780870079994202 
vn -0.2969174385070801 -0.0037766960449516773 -0.9548956751823425 
vn -0.580801784992218 -0.026462383568286896 -0.8136147856712341 
vn -0.6163880825042725 -1.2748329681396692e-13 -0.7874425053596497 
vn -0.8601325750350952 -0.0037793058436363935 -0.5100564956665039 
vn -0.8619557023048401 -0.026445386931300163 -0.5062933564186096 
vn -0.9828073978424072 -2.0326728039470054e-13 -0.18463370203971863 
vn -0.9926618933677673 -0.0566248893737793 -0.10684575140476227 
vn -0.999997615814209 -2.0682260971124217e-13 0.002184694167226553 
vn -0.95159512758255 -1.9681185934455891e-13 0.30735430121421814 
vn -0.9502356052398682 -0.0037740441039204597 0.31150925159454346 
vn -0.8173992037773132 -0.003770856885239482 0.5760593414306641 
vn -0.7259966135025024 -0.06771863996982574 0.6843559741973877 
vn -0.6025320887565613 -1.2461756073670754e-13 0.7980946898460388 
vn -0.39882799983024597 -0.018827106803655624 0.916832447052002 
vn -0.30525144934654236 -0.0037608793936669827 0.9522643685340881 
vn -0.006553899962455034 0.011351687833666801 0.9999141097068787 
vn 0.048044804483652115 0 0.9988451600074768 
vn 0.4032743275165558 0 0.9150791168212891 
vn 0.40726879239082336 0 0.913308322429657 
vn 0.7047857642173767 0 0.7094202041625977 
vn 0.7332092523574829 0.05269768089056015 0.677958071231842 
vn 0.9051244854927063 0 0.42514660954475403 
vn 0.9445546269416809 0.09042376279830933 0.31565824151039124 
vn 0.9947329759597778 0 0.10250037163496017 
vn 0.9908053874969482 0.08299810439348221 -0.10684575140476227 
vn 0.97575443983078 0 -0.21886809170246124 
vn 0.9947329759597778 0 -0.10250037163496017 
vn 0.9942756295204163 0 -0.10684575140476227 
vn 0.9947329759597778 0 0.10250037163496017 
vn 0.95159512758255 0 0.30735430121421814 
vn 0.9502431154251099 0 0.31150925159454346 
vn 0.8667527437210083 0 0.4987381398677826 
vn 0.7439239621162415 0 0.6682642698287964 
vn 0.7439239621162415 0 0.6682642698287964 
vn 0.5884920358657837 0 0.8085030317306519 
vn 0.40726879239082336 0 0.913308322429657 
vn 0.40726879239082336 0 0.913308322429657 
vn 0.20819661021232605 0 0.9780870079994202 
vn 0 0 1 
vn 0 0 1 
vn -0.2081630676984787 -0.0037373360246419907 0.9780870079994202 
vn -0.40726879239082336 -8.405173665361129e-14 0.913308322429657 
vn -0.40726879239082336 -8.405173665361129e-14 0.913308322429657 
vn -0.5884799361228943 -0.0037653555627912283 0.8085030317306519 
vn -0.7439239621162415 -1.5386066173298657e-13 0.6682642698287964 
vn -0.7439239621162415 -1.5386066173298657e-13 0.6682642698287964 
vn -0.8667527437210083 -1.7926449441627718e-13 0.4987381398677826 
vn -0.95159512758255 -1.9681185934455891e-13 0.30735430121421814 
vn -0.95159512758255 -1.9681185934455891e-13 0.30735430121421814 
vn -0.9947329759597778 -2.0573375902194213e-13 0.10250037163496017 
vn -0.999997615814209 -2.0682260971124217e-13 0.002184694167226553 
vn -0.999997615814209 -2.0682260971124217e-13 0.002184694167226553 
vn -0.9947329759597778 -2.0573375902194213e-13 -0.10250037163496017 
vn -0.9947329759597778 -2.0573375902194213e-13 -0.10250037163496017 
vn -0.95159512758255 -1.9681185934455891e-13 -0.30735430121421814 
vn -0.8667445182800293 -0.0037766648456454277 -0.4987381398677826 
vn -0.8667445182800293 -0.0037766648456454277 -0.4987381398677826 
vn -0.7439143657684326 -0.0037755994126200676 -0.6682642698287964 
vn -0.5884798765182495 -0.0037807554472237825 -0.8085030317306519 
vn -0.5884798765182495 -0.0037807554472237825 -0.8085030317306519 
vn -0.40726879239082336 -8.405173665361129e-14 -0.913308322429657 
vn -0.20816227793693542 -0.0037805375177413225 -0.9780870079994202 
vn -0.20816227793693542 -0.0037805375177413225 -0.9780870079994202 
vn -2.0682311115474694e-13 0 -1 
vn 0.20819661021232605 0 -0.9780870079994202 
vn 0.20819661021232605 0 -0.9780870079994202 
vn 0.40726879239082336 0 -0.913308322429657 
vn 0.5884920358657837 0 -0.8085030317306519 
vn 0.5884920358657837 0 -0.8085030317306519 
vn 0.7439239621162415 0 -0.6682642698287964 
vn 0.8667527437210083 0 -0.4987381398677826 
vn 0.8667527437210083 0 -0.4987381398677826 
vn 0.95159512758255 0 -0.30735430121421814 
vn 0.003772426163777709 -0.9294145107269287 0.3690181374549866 
vn 0.003772683208808303 -0.9967275857925415 0.08074574917554855 
vn 0.003772683208808303 -0.9967275857925415 0.08074574917554855 
vn 2.732507959051639e-13 -0.8795284628868103 0.4758462607860565 
vn 2.732507959051639e-13 -0.8795284628868103 0.4758462607860565 
vn 0.0037673702463507652 -0.6163765788078308 0.7874425053596497 
vn 0.0037673702463507652 -0.6163765788078308 0.7874425053596497 
vn 0.0037506339140236378 -0.2506926953792572 0.9680594801902771 
vn 0.0037506339140236378 -0.2506926953792572 0.9680594801902771 
vn -1.6199444129866292e-14 0.15665024518966675 0.9876541495323181 
vn -1.6199444129866292e-14 0.15665024518966675 0.9876541495323181 
vn 0.0018687201663851738 -0.18677105009555817 0.9824016690254211 
vn 0.0018687201663851738 -0.18677105009555817 0.9824016690254211 
vn 1.5787952813584721e-13 -0.5081761479377747 0.8612531423568726 
vn 1.5787952813584721e-13 -0.5081761479377747 0.8612531423568726 
vn 0.0018859859555959702 -0.7696189284324646 0.6385006904602051 
vn 0.0018859859555959702 -0.7696189284324646 0.6385006904602051 
vn -0.0018863033037632704 -0.9402705430984497 0.34042292833328247 
vn -0.0018863033037632704 -0.9402705430984497 0.34042292833328247 
vn 3.097898456858039e-13 -0.999997615814209 0.002184694167226553 
vn 3.097898456858039e-13 -0.999997615814209 0.002184694167226553 
vn 0.0037719623651355505 -0.9244976043701172 0.3811691105365753 
vn 0.0037719623651355505 -0.9244976043701172 0.3811691105365753 
vn 0.0018839974654838443 -0.7640098929405212 0.6452018022537231 
vn 0.0018839974654838443 -0.7640098929405212 0.6452018022537231 
vn 0.0018875952810049057 0.08290162682533264 -0.9965559244155884 
vn 0.0018900291761383414 0.3669818937778473 -0.9302261471748352 
vn 0.0018875952810049057 0.08290162682533264 -0.9965559244155884 
vn 0.0037855375558137894 0.3831692636013031 -0.9236704111099243 
vn 0.0037855375558137894 0.3831692636013031 -0.9236704111099243 
vn 0.0037773021031171083 0.6468583345413208 -0.762600839138031 
vn 0.0037773021031171083 0.6468583345413208 -0.762600839138031 
vn -2.984308492600535e-14 0.2885856032371521 -0.9574540853500366 
vn -2.984308492600535e-14 0.2885856032371521 -0.9574540853500366 
vn 0.0018979120068252087 -0.12202323973178864 -0.9925254583358765 
vn 0.0018979120068252087 -0.12202323973178864 -0.9925254583358765 
vn 0.0037830988876521587 -0.5081620812416077 -0.8612531423568726 
vn 0.0037830988876521587 -0.5081620812416077 -0.8612531423568726 
vn 0.0037744969595223665 -0.8097779750823975 -0.5867242813110352 
vn 0.0037744969595223665 -0.8097779750823975 -0.5867242813110352 
vn 0.0037830988876521587 -0.5081620812416077 -0.8612531423568726 
vn 0.0037830988876521587 -0.5081620812416077 -0.8612531423568726 
vn 0.0019059260375797749 -0.11768467724323273 -0.9930492043495178 
vn 0.0019059260375797749 -0.11768467724323273 -0.9930492043495178 
vn -2.984308492600535e-14 0.2885856032371521 -0.9574540853500366 
vn -2.984308492600535e-14 0.2885856032371521 -0.9574540853500366 
vn 0.0018878427799791098 0.6501925587654114 -0.7597671151161194 
vn 0.0018878427799791098 0.6501925587654114 -0.7597671151161194 
vn -9.301600153088438e-14 0.899474024772644 -0.43697428703308105 
vn -9.301600153088438e-14 0.899474024772644 -0.43697428703308105 
vn -1.0332247481637663e-13 0.999138593673706 -0.04149730131030083 
vn -1.0332247481637663e-13 0.999138593673706 -0.04149730131030083 
vn -0.0018870332278311253 0.9310237765312195 0.3649536371231079 
vn -0.0018870332278311253 0.9310237765312195 0.3649536371231079 
vn 0.00376924779266119 0.707868754863739 0.7063339352607727 
vn 0.00376924779266119 0.707868754863739 0.7063339352607727 
vn -6.049097312464669e-14 0.5849537253379822 0.8110666871070862 
vn -6.049097312464669e-14 0.5849537253379822 0.8110666871070862 
vn 0.0037732303608208895 0.8623530864715576 0.5062933564186096 
vn 0.0037732303608208895 0.8623530864715576 0.5062933564186096 
vn 0.003775948192924261 0.992782473564148 0.11986933648586273 
vn 0.003775948192924261 0.992782473564148 0.11986933648586273 
vn 0.0018882700242102146 0.9580804109573364 -0.2864931523799896 
vn 0.0018882700242102146 0.9580804109573364 -0.2864931523799896 
vn -0.001889931270852685 0.7640098929405212 -0.6452018022537231 
vn -0.001889931270852685 0.7640098929405212 -0.6452018022537231 
vn -0.001889931270852685 0.7640098929405212 -0.6452018022537231 
vn 0.0018884376622736454 0.9245033860206604 -0.3811691105365753 
vn -0.001889931270852685 0.7640098929405212 -0.6452018022537231 
vn 0.0018884376622736454 0.9245033860206604 -0.3811691105365753 
vn 0.0018886204343289137 0.9967329502105713 -0.08074574917554855 
vn 0.0018886204343289137 0.9967329502105713 -0.08074574917554855 
vn -9.095340854168438e-14 0.8795284628868103 -0.4758462607860565 
vn -9.095340854168438e-14 0.8795284628868103 -0.4758462607860565 
vn -6.374164840698346e-14 0.6163880825042725 -0.7874425053596497 
vn -6.374164840698346e-14 0.6163880825042725 -0.7874425053596497 
vn -2.5927422711504063e-14 0.2507207691669464 -0.9680594801902771 
vn -2.5927422711504063e-14 0.2507207691669464 -0.9680594801902771 
vn 0.003785256529226899 -0.15660449862480164 -0.9876541495323181 
vn 0.003785256529226899 -0.15660449862480164 -0.9876541495323181 
vn -2.5927422711504063e-14 0.2507207691669464 -0.9680594801902771 
vn -2.5927422711504063e-14 0.2507207691669464 -0.9680594801902771 
vn -6.374164840698346e-14 0.6163880825042725 -0.7874425053596497 
vn -6.374164840698346e-14 0.6163880825042725 -0.7874425053596497 
vn 0.0018892384832724929 0.8815972208976746 -0.4719987213611603 
vn 0.0018892384832724929 0.8815972208976746 -0.4719987213611603 
vn 0.0018886204343289137 0.9967329502105713 -0.08074574917554855 
vn 0.0018886204343289137 0.9967329502105713 -0.08074574917554855 
vn -0.0018854610389098525 0.9446519613265991 0.3280687630176544 
vn -0.0018854610389098525 0.9446519613265991 0.3280687630176544 
vn 0.0018836738308891654 0.7350981831550598 0.677958071231842 
vn 0.0018836738308891654 0.7350981831550598 0.677958071231842 
vn 0.0018834020011126995 0.39926770329475403 0.916832447052002 
vn 0.0018834020011126995 0.39926770329475403 0.916832447052002 
vn 0 0 1 
vn 0 0 1 
vn 4.8667900899622765e-14 -0.15665024518966675 0.9876541495323181 
vn 4.8667900899622765e-14 -0.15665024518966675 0.9876541495323181 
vn 0.0037506339140236378 0.2506926953792572 0.9680594801902771 
vn 0.0037506339140236378 0.2506926953792572 0.9680594801902771 
vn 0.0037673702463507652 0.6163765788078308 0.7874425053596497 
vn 0.0037673702463507652 0.6163765788078308 0.7874425053596497 
vn -9.095340854168438e-14 0.8795284628868103 0.4758462607860565 
vn -9.095340854168438e-14 0.8795284628868103 0.4758462607860565 
vn 0.003772683208808303 0.9967275857925415 0.08074574917554855 
vn 0.003772683208808303 0.9967275857925415 0.08074574917554855 
vn 0.003772683208808303 0.9967275857925415 0.08074574917554855 
vn 0.003772683208808303 0.9967275857925415 0.08074574917554855 
vn 0.003772426163777709 0.9294145107269287 0.3690181374549866 
vn 0.0037719623651355505 0.9244976043701172 0.3811691105365753 
vn 0.0037719623651355505 0.9244976043701172 0.3811691105365753 
vn 0.0018839974654838443 0.7640098929405212 0.6452018022537231 
vn 0.0018839974654838443 0.7640098929405212 0.6452018022537231 
vn 0.0037718000821769238 0.9580748677253723 0.2864931523799896 
vn 0.0037718000821769238 0.9580748677253723 0.2864931523799896 
vn 0.003775948192924261 0.992782473564148 -0.11986933648586273 
vn 0.003775948192924261 0.992782473564148 -0.11986933648586273 
vn 0.0018892509397119284 0.8623592257499695 -0.5062933564186096 
vn 0.0018892509397119284 0.8623592257499695 -0.5062933564186096 
vn 0.003781221341341734 0.5849415063858032 -0.8110666871070862 
vn 0.003781221341341734 0.5849415063858032 -0.8110666871070862 
vn 0.0018892509397119284 0.8623592257499695 -0.5062933564186096 
vn 0.0018892509397119284 0.8623592257499695 -0.5062933564186096 
vn 0.003775948192924261 0.992782473564148 -0.11986933648586273 
vn 0.003775948192924261 0.992782473564148 -0.11986933648586273 
vn 0.0018857847899198532 0.956819474697113 0.29067665338516235 
vn 0.0018857847899198532 0.956819474697113 0.29067665338516235 
vn 0.003771807299926877 0.7611764073371887 0.6485338807106018 
vn 0.003771807299926877 0.7611764073371887 0.6485338807106018 
vn 0.003767618676647544 0.43892213702201843 0.8985171914100647 
vn 0.003767618676647544 0.43892213702201843 0.8985171914100647 
vn 0.003627474419772625 0.03914668411016464 0.9992268681526184 
vn 0.003627474419772625 0.03914668411016464 0.9992268681526184 
vn -0.0018814154900610447 -0.3629138767719269 0.931820809841156 
vn -0.0018814154900610447 -0.3629138767719269 0.931820809841156 
vn 0.00376924779266119 -0.707868754863739 0.7063339352607727 
vn 0.00376924779266119 -0.707868754863739 0.7063339352607727 
vn -0.0018844576552510262 -0.8097845911979675 0.5867242813110352 
vn -0.0018844576552510262 -0.8097845911979675 0.5867242813110352 
vn 1.5787952813584721e-13 -0.5081761479377747 0.8612531423568726 
vn 1.5787952813584721e-13 -0.5081761479377747 0.8612531423568726 
vn -0.0018610621336847544 -0.122023805975914 0.9925254583358765 
vn -0.0018610621336847544 -0.122023805975914 0.9925254583358765 
vn 0.0018809376051649451 0.28857946395874023 0.9574540853500366 
vn 0.0018809376051649451 0.28857946395874023 0.9574540853500366 
vn -0.0018851550994440913 0.6468666195869446 0.762600839138031 
vn -0.0018851550994440913 0.6468666195869446 0.762600839138031 
vn -0.0018851550994440913 0.6468666195869446 0.762600839138031 
vn -3.962606474504013e-14 0.3831879794597626 0.9236704111099243 
vn -0.0018851550994440913 0.6468666195869446 0.762600839138031 
vn -3.962606474504013e-14 0.3831879794597626 0.9236704111099243 
vn -0.0018777163932099938 0.36698195338249207 0.9302261471748352 
vn 0.003720331471413374 0.08283961564302444 0.9965559244155884 
vn 0.003720331471413374 0.08283961564302444 0.9965559244155884 
vn -0.0018846469465643167 0.4739198684692383 0.8805659413337708 
vn -0.0018846469465643167 0.4739198684692383 0.8805659413337708 
vn -0.0018851791974157095 0.7860917448997498 0.6181069612503052 
vn -0.0018851791974157095 0.7860917448997498 0.6181069612503052 
vn 0.0037753775250166655 0.9685975313186646 0.24860523641109467 
vn 0.0037753775250166655 0.9685975313186646 0.24860523641109467 
vn 0.0037733782082796097 0.9873023629188538 -0.15880759060382843 
vn 0.0037733782082796097 0.9873023629188538 -0.15880759060382843 
vn 0.0037753775250166655 0.9685975313186646 0.24860523641109467 
vn 0.0037753775250166655 0.9685975313186646 0.24860523641109467 
vn -0.0018851791974157095 0.7860917448997498 0.6181069612503052 
vn -0.0018851791974157095 0.7860917448997498 0.6181069612503052 
vn -0.0018846469465643167 0.4739198684692383 0.8805659413337708 
vn -0.0018846469465643167 0.4739198684692383 0.8805659413337708 
vn -0.0018418359104543924 0.07854640483856201 0.9969087839126587 
vn -0.0018418359104543924 0.07854640483856201 0.9969087839126587 
vn 0.0018757632933557034 -0.32599881291389465 0.9453682899475098 
vn 0.0018757632933557034 -0.32599881291389465 0.9453682899475098 
vn 0.003771903458982706 -0.6795519590377808 0.7336177229881287 
vn 0.003771903458982706 -0.6795519590377808 0.7336177229881287 
vn -0.0018856911920011044 -0.9159560203552246 0.401274174451828 
vn -0.0018856911920011044 -0.9159560203552246 0.401274174451828 
vn 3.097898456858039e-13 -0.999997615814209 0.002184694167226553 
vn 3.097898456858039e-13 -0.999997615814209 0.002184694167226553 
vn 0.0037733782082796097 -0.9873023629188538 -0.15880759060382843 
vn 0.0037733782082796097 -0.9873023629188538 -0.15880759060382843 
vn 0.0037753775250166655 -0.9685975313186646 0.24860523641109467 
vn 0.0037753775250166655 -0.9685975313186646 0.24860523641109467 
vn -0.0018851791974157095 -0.7860917448997498 0.6181069612503052 
vn -0.0018851791974157095 -0.7860917448997498 0.6181069612503052 
vn -0.0018846469465643167 -0.4739198684692383 0.8805659413337708 
vn -0.0018846469465643167 -0.4739198684692383 0.8805659413337708 
vn 0.003720331471413374 -0.08283961564302444 0.9965559244155884 
vn 0.003720331471413374 -0.08283961564302444 0.9965559244155884 
vn 0.003720331471413374 -0.08283961564302444 0.9965559244155884 
vn 1.187080219278852e-13 -0.3831879794597626 0.9236704111099243 
vn 0.003720331471413374 -0.08283961564302444 0.9965559244155884 
vn 1.187080219278852e-13 -0.3831879794597626 0.9236704111099243 
vn -0.0018851550994440913 -0.6468666195869446 0.762600839138031 
vn -0.0018851550994440913 -0.6468666195869446 0.762600839138031 
vn 0.0018809376051649451 -0.28857946395874023 0.9574540853500366 
vn 0.0018809376051649451 -0.28857946395874023 0.9574540853500366 
vn -0.0018610621336847544 0.122023805975914 0.9925254583358765 
vn -0.0018610621336847544 0.122023805975914 0.9925254583358765 
vn -5.255128607663598e-14 0.5081761479377747 0.8612531423568726 
vn -5.255128607663598e-14 0.5081761479377747 0.8612531423568726 
vn -0.0018844576552510262 0.8097845911979675 0.5867242813110352 
vn -0.0018844576552510262 0.8097845911979675 0.5867242813110352 
vn -5.255128607663598e-14 0.5081761479377747 0.8612531423568726 
vn -5.255128607663598e-14 0.5081761479377747 0.8612531423568726 
vn -0.0018674257444217801 0.11768529564142227 0.9930492043495178 
vn -0.0018674257444217801 0.11768529564142227 0.9930492043495178 
vn 0.0018809376051649451 -0.28857946395874023 0.9574540853500366 
vn 0.0018809376051649451 -0.28857946395874023 0.9574540853500366 
vn 0.003768703667446971 -0.6501843929290771 0.7597671151161194 
vn 0.003768703667446971 -0.6501843929290771 0.7597671151161194 
vn 0.0018863676814362407 -0.8994719982147217 0.43697428703308105 
vn 0.0018863676814362407 -0.8994719982147217 0.43697428703308105 
vn 3.0952372826256735e-13 -0.999138593673706 0.04149730131030083 
vn 3.0952372826256735e-13 -0.999138593673706 0.04149730131030083 
vn -0.0018870332278311253 -0.9310237765312195 -0.3649536371231079 
vn -0.0018870332278311253 -0.9310237765312195 -0.3649536371231079 
vn 0.0018878303235396743 -0.7078762650489807 -0.7063339352607727 
vn 0.0018878303235396743 -0.7078762650489807 -0.7063339352607727 
vn 0.003781221341341734 -0.5849415063858032 -0.8110666871070862 
vn 0.003781221341341734 -0.5849415063858032 -0.8110666871070862 
vn 0.0018892509397119284 -0.8623592257499695 -0.5062933564186096 
vn 0.0018892509397119284 -0.8623592257499695 -0.5062933564186096 
vn 0.003775948192924261 -0.992782473564148 -0.11986933648586273 
vn 0.003775948192924261 -0.992782473564148 -0.11986933648586273 
vn 0.0037718000821769238 -0.9580748677253723 0.2864931523799896 
vn 0.0037718000821769238 -0.9580748677253723 0.2864931523799896 
vn 0.0018839974654838443 -0.7640098929405212 0.6452018022537231 
vn 0.0018839974654838443 -0.7640098929405212 0.6452018022537231 
vn 0.0037733782082796097 0.9873023629188538 0.15880759060382843 
vn -1.0341130485562108e-13 0.999997615814209 0.002184694167226553 
vn 0.0037733782082796097 0.9873023629188538 0.15880759060382843 
vn -1.0341130485562108e-13 0.999997615814209 0.002184694167226553 
vn 0.0018884376622736454 0.9245033860206604 -0.3811691105365753 
vn 0.0037753775250166655 0.9685975313186646 -0.24860523641109467 
vn 0.0037753775250166655 0.9685975313186646 -0.24860523641109467 
vn 0.0037761125713586807 0.7860849499702454 -0.6181069612503052 
vn 0.0037761125713586807 0.7860849499702454 -0.6181069612503052 
vn 0.0037788304034620523 0.47390857338905334 -0.8805659413337708 
vn 0.0037788304034620523 0.47390857338905334 -0.8805659413337708 
vn 0.0018875952810049057 0.08290162682533264 -0.9965559244155884 
vn 0.0018875952810049057 0.08290162682533264 -0.9965559244155884 
vn 0.0018884376622736454 0.9245033860206604 -0.3811691105365753 
vn 0.0018878303235396743 0.7078762650489807 -0.7063339352607727 
vn 0.0018878303235396743 0.7078762650489807 -0.7063339352607727 
vn 0.0037855375558137894 0.3831692636013031 -0.9236704111099243 
vn 0.0037855375558137894 0.3831692636013031 -0.9236704111099243 
vn 2.0682311115474694e-13 4.2775797696334704e-26 -1 
vn 2.0682311115474694e-13 4.2775797696334704e-26 -1 
s on 
f 1//1 2//2 3//3 
f 2//2 4//4 3//3 
f 3//3 4//4 4//4 
f 4//4 2//2 4//4 
f 4//4 2//2 2//2 
f 2//2 1//1 2//2 
f 2//2 1//1 5//5 
f 1//1 6//6 5//5 
f 5//5 6//6 7//7 
f 6//6 8//8 7//7 
f 7//7 8//8 9//9 
f 8//8 10//10 9//9 
f 9//9 10//10 11//11 
f 10//10 12//12 11//11 
f 11//11 12//12 13//13 
f 12//12 13//13 13//13 
f 13//13 13//13 3//3 
f 13//13 3//3 3//3 
f 3//3 3//3 14//14 
f 3//3 4//4 14//14 
f 14//14 4//4 14//14 
f 4//4 15//15 14//14 
f 14//14 15//15 16//16 
f 15//15 17//17 16//16 
f 16//16 17//17 18//18 
f 17//17 19//19 18//18 
f 18//18 19//19 20//20 
f 19//19 21//21 20//20 
f 20//20 21//21 22//22 
f 21//21 23//23 22//22 
f 22//22 23//23 24//24 
f 23//23 25//25 24//24 
f 24//24 25//25 26//26 
f 25//25 26//26 26//26 
f 26//26 26//26 27//27 
f 26//26 27//27 27//27 
f 27//27 27//27 28//28 
f 27//27 25//25 28//28 
f 28//28 25//25 28//28 
f 25//25 29//29 28//28 
f 28//28 29//29 30//30 
f 29//29 31//31 30//30 
f 30//30 31//31 32//32 
f 31//31 33//33 32//32 
f 32//32 33//33 34//34 
f 33//33 35//35 34//34 
f 34//34 35//35 36//36 
f 35//35 37//37 36//36 
f 36//36 37//37 38//38 
f 37//37 39//39 38//38 
f 38//38 39//39 40//40 
f 39//39 41//41 40//40 
f 40//40 41//41 42//42 
f 41//41 43//43 42//42 
f 42//42 43//43 44//44 
f 43//43 45//45 44//44 
f 44//44 45//45 46//46 
f 45//45 47//47 46//46 
f 46//46 47//47 48//48 
f 47//47 49//49 48//48 
f 48//48 49//49 50//50 
f 49//49 51//51 50//50 
f 50//50 51//51 51//51 
f 51//51 50//50 51//51 
f 51//51 50//50 50//50 
f 50//50 52//52 50//50 
f 50//50 52//52 48//48 
f 52//52 53//53 48//48 
f 48//48 53//53 46//46 
f 53//53 54//54 46//46 
f 46//46 54//54 44//44 
f 54//54 55//55 44//44 
f 44//44 55//55 42//42 
f 55//55 56//56 42//42 
f 42//42 56//56 40//40 
f 56//56 57//57 40//40 
f 40//40 57//57 38//38 
f 57//57 58//58 38//38 
f 38//38 58//58 36//36 
f 58//58 59//59 36//36 
f 36//36 59//59 34//34 
f 59//59 60//60 34//34 
f 34//34 60//60 32//32 
f 60//60 61//61 32//32 
f 32//32 61//61 30//30 
f 61//61 62//62 30//30 
f 30//30 62//62 28//28 
f 62//62 63//63 28//28 
f 28//28 63//63 27//27 
f 63//63 63//63 27//27 
f 27//27 63//63 64//64 
f 63//63 65//65 64//64 
f 64//64 65//65 66//66 
f 65//65 65//65 66//66 
f 66//66 65//65 67//67 
f 65//65 68//68 67//67 
f 67//67 68//68 69//69 
f 68//68 70//70 69//69 
f 69//69 70//70 71//71 
f 70//70 72//72 71//71 
f 71//71 72//72 73//73 
f 72//72 72//72 73//73 
f 73//73 72//72 74//74 
f 72//72 75//75 74//74 
f 74//74 75//75 76//76 
f 75//75 76//76 76//76 
f 76//76 76//76 53//53 
f 76//76 53//53 53//53 
f 53//53 53//53 77//77 
f 53//53 52//52 77//77 
f 77//77 52//52 52//52 
f 52//52 73//73 52//52 
f 52//52 73//73 73//73 
f 73//73 78//78 73//73 
f 73//73 78//78 71//71 
f 78//78 71//71 71//71 
f 71//71 71//71 75//75 
f 71//71 75//75 75//75 
f 75//75 75//75 79//79 
f 75//75 72//72 79//79 
f 79//79 72//72 79//79 
f 72//72 70//70 79//79 
f 79//79 70//70 80//80 
f 70//70 68//68 80//80 
f 80//80 68//68 81//81 
f 68//68 65//65 81//81 
f 81//81 65//65 81//81 
f 65//65 63//63 81//81 
f 81//81 63//63 81//81 
f 63//63 62//62 81//81 
f 81//81 62//62 82//82 
f 62//62 61//61 82//82 
f 82//82 61//61 83//83 
f 61//61 60//60 83//83 
f 83//83 60//60 84//84 
f 60//60 59//59 84//84 
f 84//84 59//59 85//85 
f 59//59 58//58 85//85 
f 85//85 58//58 86//86 
f 58//58 57//57 86//86 
f 86//86 57//57 87//87 
f 57//57 56//56 87//87 
f 87//87 56//56 88//88 
f 56//56 55//55 88//88 
f 88//88 55//55 89//89 
f 55//55 54//54 89//89 
f 89//89 54//54 90//90 
f 54//54 53//53 90//90 
f 90//90 53//53 90//90 
f 53//53 77//77 90//90 
f 90//90 77//77 91//91 
f 77//77 92//92 91//91 
f 91//91 92//92 93//93 
f 92//92 94//94 93//93 
f 93//93 94//94 95//95 
f 94//94 96//96 95//95 
f 95//95 96//96 96//96 
f 96//96 80//80 96//96 
f 96//96 80//80 80//80 
f 80//80 81//81 80//80 
f 80//80 81//81 82//82 
f 81//81 82//82 82//82 
f 82//82 82//82 90//90 
f 82//82 90//90 90//90 
f 90//90 90//90 97//97 
f 90//90 91//91 97//97 
f 97//97 91//91 98//98 
f 91//91 93//93 98//98 
f 98//98 93//93 99//99 
f 93//93 95//95 99//99 
f 99//99 95//95 95//95 
f 95//95 90//90 95//95 
f 95//95 90//90 90//90 
f 90//90 97//97 90//90 
f 90//90 97//97 89//89 
f 97//97 100//100 89//89 
f 89//89 100//100 88//88 
f 100//100 88//88 88//88 
f 88//88 88//88 100//100 
f 88//88 100//100 100//100 
f 100//100 100//100 101//101 
f 100//100 97//97 101//101 
f 101//101 97//97 101//101 
f 97//97 98//98 101//101 
f 101//101 98//98 102//102 
f 98//98 99//99 102//102 
f 102//102 99//99 103//103 
f 99//99 99//99 103//103 
f 103//103 99//99 104//104 
f 99//99 95//95 104//104 
f 104//104 95//95 105//105 
f 95//95 95//95 105//105 
f 105//105 95//95 106//106 
f 95//95 107//107 106//106 
f 106//106 107//107 108//108 
f 107//107 108//108 108//108 
f 108//108 108//108 103//103 
f 108//108 103//103 103//103 
f 103//103 103//103 102//102 
f 103//103 109//109 102//102 
f 102//102 109//109 110//110 
f 109//109 111//111 110//110 
f 110//110 111//111 110//110 
f 111//111 112//112 110//110 
f 110//110 112//112 110//110 
f 112//112 113//113 110//110 
f 110//110 113//113 101//101 
f 113//113 113//113 101//101 
f 101//101 113//113 100//100 
f 113//113 114//114 100//100 
f 100//100 114//114 88//88 
f 114//114 87//87 88//88 
f 88//88 87//87 87//87 
f 87//87 101//101 87//87 
f 87//87 101//101 101//101 
f 101//101 102//102 101//101 
f 101//101 102//102 110//110 
f 102//102 110//110 110//110 
f 110//110 110//110 111//111 
f 110//110 111//111 111//111 
f 111//111 111//111 112//112 
f 111//111 115//115 112//112 
f 112//112 115//115 112//112 
f 115//115 116//116 112//112 
f 112//112 116//116 117//117 
f 116//116 118//118 117//117 
f 117//117 118//118 118//118 
f 118//118 117//117 118//118 
f 118//118 117//117 117//117 
f 117//117 119//119 117//117 
f 117//117 119//119 112//112 
f 119//119 119//119 112//112 
f 112//112 119//119 113//113 
f 119//119 119//119 113//113 
f 113//113 119//119 114//114 
f 119//119 120//120 114//114 
f 114//114 120//120 87//87 
f 120//120 120//120 87//87 
f 87//87 120//120 86//86 
f 120//120 121//121 86//86 
f 86//86 121//121 85//85 
f 121//121 85//85 85//85 
f 85//85 85//85 121//121 
f 85//85 121//121 121//121 
f 121//121 121//121 122//122 
f 121//121 120//120 122//122 
f 122//122 120//120 122//122 
f 120//120 119//119 122//122 
f 122//122 119//119 122//122 
f 119//119 117//117 122//122 
f 122//122 117//117 123//123 
f 117//117 118//118 123//123 
f 123//123 118//118 123//123 
f 118//118 124//124 123//123 
f 123//123 124//124 125//125 
f 124//124 126//126 125//125 
f 125//125 126//126 125//125 
f 126//126 127//127 125//125 
f 125//125 127//127 128//128 
f 127//127 76//76 128//128 
f 128//128 76//76 128//128 
f 76//76 75//75 128//128 
f 128//128 75//75 129//129 
f 75//75 79//79 129//129 
f 129//129 79//79 130//130 
f 79//79 80//80 130//130 
f 130//130 80//80 130//130 
f 80//80 82//82 130//130 
f 130//130 82//82 131//131 
f 82//82 132//132 131//131 
f 131//131 132//132 132//132 
f 132//132 131//131 132//132 
f 132//132 131//131 131//131 
f 131//131 133//133 131//131 
f 131//131 133//133 130//130 
f 133//133 134//134 130//130 
f 130//130 134//134 129//129 
f 134//134 129//129 129//129 
f 129//129 129//129 134//134 
f 129//129 134//134 134//134 
f 134//134 134//134 135//135 
f 134//134 133//133 135//135 
f 135//135 133//133 135//135 
f 133//133 136//136 135//135 
f 135//135 136//136 137//137 
f 136//136 132//132 137//137 
f 137//137 132//132 138//138 
f 132//132 132//132 138//138 
f 138//138 132//132 139//139 
f 132//132 82//82 139//139 
f 139//139 82//82 139//139 
f 82//82 83//83 139//139 
f 139//139 83//83 140//140 
f 83//83 141//141 140//140 
f 140//140 141//141 140//140 
f 141//141 142//142 140//140 
f 140//140 142//142 139//139 
f 142//142 142//142 139//139 
f 139//139 142//142 138//138 
f 142//142 143//143 138//138 
f 138//138 143//143 138//138 
f 143//143 144//144 138//138 
f 138//138 144//144 137//137 
f 144//144 145//145 137//137 
f 137//137 145//145 135//135 
f 145//145 146//146 135//135 
f 135//135 146//146 135//135 
f 146//146 147//147 135//135 
f 135//135 147//147 134//134 
f 147//147 148//148 134//134 
f 134//134 148//148 129//129 
f 148//148 149//149 129//129 
f 129//129 149//149 129//129 
f 149//149 150//150 129//129 
f 129//129 150//150 128//128 
f 150//150 150//150 128//128 
f 128//128 150//150 151//151 
f 150//150 150//150 151//151 
f 151//151 150//150 152//152 
f 150//150 153//153 152//152 
f 152//152 153//153 154//154 
f 153//153 148//148 154//154 
f 154//154 148//148 154//154 
f 148//148 147//147 154//154 
f 154//154 147//147 155//155 
f 147//147 146//146 155//155 
f 155//155 146//146 146//146 
f 146//146 83//83 146//146 
f 146//146 83//83 83//83 
f 83//83 84//84 83//83 
f 83//83 84//84 141//141 
f 84//84 141//141 141//141 
f 141//141 141//141 155//155 
f 141//141 155//155 155//155 
f 155//155 155//155 154//154 
f 155//155 156//156 154//154 
f 154//154 156//156 152//152 
f 156//156 157//157 152//152 
f 152//152 157//157 152//152 
f 157//157 158//158 152//152 
f 152//152 158//158 151//151 
f 158//158 159//159 151//151 
f 151//151 159//159 128//128 
f 159//159 160//160 128//128 
f 128//128 160//160 125//125 
f 160//160 161//161 125//125 
f 125//125 161//161 125//125 
f 161//161 162//162 125//125 
f 125//125 162//162 125//125 
f 162//162 163//163 125//125 
f 125//125 163//163 123//123 
f 163//163 164//164 123//123 
f 123//123 164//164 123//123 
f 164//164 165//165 123//123 
f 123//123 165//165 123//123 
f 165//165 166//166 123//123 
f 123//123 166//166 122//122 
f 166//166 166//166 122//122 
f 122//122 166//166 121//121 
f 166//166 167//167 121//121 
f 121//121 167//167 85//85 
f 167//167 167//167 85//85 
f 85//85 167//167 84//84 
f 167//167 168//168 84//84 
f 84//84 168//168 169//169 
f 168//168 169//169 169//169 
f 169//169 169//169 168//168 
f 169//169 168//168 168//168 
f 168//168 168//168 170//170 
f 168//168 167//167 170//170 
f 170//170 167//167 171//171 
f 167//167 166//166 171//171 
f 171//171 166//166 166//166 
f 166//166 84//84 166//166 
f 166//166 84//84 84//84 
f 84//84 169//169 84//84 
f 84//84 169//169 141//141 
f 169//169 172//172 141//141 
f 141//141 172//172 142//142 
f 172//172 173//173 142//142 
f 142//142 173//173 143//143 
f 173//173 143//143 143//143 
f 143//143 143//143 171//171 
f 143//143 171//171 171//171 
f 171//171 171//171 170//170 
f 171//171 174//174 170//170 
f 170//170 174//174 175//175 
f 174//174 176//176 175//175 
f 175//175 176//176 169//169 
f 176//176 176//176 169//169 
f 169//169 176//176 172//172 
f 176//176 177//177 172//172 
f 172//172 177//177 173//173 
f 177//177 173//173 173//173 
f 173//173 173//173 177//177 
f 173//173 177//177 177//177 
f 177//177 177//177 178//178 
f 177//177 176//176 178//178 
f 178//178 176//176 178//178 
f 176//176 174//174 178//178 
f 178//178 174//174 179//179 
f 174//174 174//174 179//179 
f 179//179 174//174 180//180 
f 174//174 171//171 180//180 
f 180//180 171//171 181//181 
f 171//171 166//166 181//181 
f 181//181 166//166 182//182 
f 166//166 165//165 182//182 
f 182//182 165//165 165//165 
f 165//165 180//180 165//165 
f 165//165 180//180 180//180 
f 180//180 181//181 180//180 
f 180//180 181//181 183//183 
f 181//181 184//184 183//183 
f 183//183 184//184 185//185 
f 184//184 165//165 185//185 
f 185//185 165//165 185//185 
f 165//165 164//164 185//185 
f 185//185 164//164 186//186 
f 164//164 163//163 186//186 
f 186//186 163//163 163//163 
f 163//163 183//183 163//163 
f 163//163 183//183 183//183 
f 183//183 187//187 183//183 
f 183//183 187//187 180//180 
f 187//187 179//179 180//180 
f 180//180 179//179 179//179 
f 179//179 187//187 179//179 
f 179//179 187//187 187//187 
f 187//187 183//183 187//187 
f 187//187 183//183 188//188 
f 183//183 185//185 188//188 
f 188//188 185//185 189//189 
f 185//185 186//186 189//189 
f 189//189 186//186 190//190 
f 186//186 191//191 190//190 
f 190//190 191//191 192//192 
f 191//191 193//193 192//192 
f 192//192 193//193 194//194 
f 193//193 193//193 194//194 
f 194//194 193//193 195//195 
f 193//193 196//196 195//195 
f 195//195 196//196 195//195 
f 196//196 160//160 195//195 
f 195//195 160//160 197//197 
f 160//160 159//159 197//197 
f 197//197 159//159 197//197 
f 159//159 158//158 197//197 
f 197//197 158//158 198//198 
f 158//158 157//157 198//198 
f 198//198 157//157 157//157 
f 157//157 186//186 157//157 
f 157//157 186//186 186//186 
f 186//186 163//163 186//186 
f 186//186 163//163 191//191 
f 163//163 162//162 191//191 
f 191//191 162//162 193//193 
f 162//162 196//196 193//193 
f 193//193 196//196 196//196 
f 196//196 198//198 196//196 
f 196//196 198//198 198//198 
f 198//198 199//199 198//198 
f 198//198 199//199 197//197 
f 199//199 199//199 197//197 
f 197//197 199//199 195//195 
f 199//199 199//199 195//195 
f 195//195 199//199 194//194 
f 199//199 199//199 194//194 
f 194//194 199//199 200//200 
f 199//199 199//199 200//200 
f 200//200 199//199 201//201 
f 199//199 198//198 201//201 
f 201//201 198//198 202//202 
f 198//198 157//157 202//202 
f 202//202 157//157 203//203 
f 157//157 156//156 203//203 
f 203//203 156//156 204//204 
f 156//156 155//155 204//204 
f 204//204 155//155 205//205 
f 155//155 146//146 205//205 
f 205//205 146//146 206//206 
f 146//146 145//145 206//206 
f 206//206 145//145 207//207 
f 145//145 144//144 207//207 
f 207//207 144//144 208//208 
f 144//144 143//143 208//208 
f 208//208 143//143 209//209 
f 143//143 173//173 209//209 
f 209//209 173//173 210//210 
f 173//173 177//177 210//210 
f 210//210 177//177 211//211 
f 177//177 178//178 211//211 
f 211//211 178//178 212//212 
f 178//178 179//179 212//212 
f 212//212 179//179 213//213 
f 179//179 187//187 213//213 
f 213//213 187//187 214//214 
f 187//187 188//188 214//214 
f 214//214 188//188 215//215 
f 188//188 189//189 215//215 
f 215//215 189//189 216//216 
f 189//189 190//190 216//216 
f 216//216 190//190 217//217 
f 190//190 192//192 217//217 
f 217//217 192//192 218//218 
f 192//192 194//194 218//218 
f 218//218 194//194 218//218 
f 194//194 200//200 218//218 
f 218//218 200//200 219//219 
f 200//200 200//200 219//219 
f 219//219 200//200 220//220 
f 200//200 200//200 220//220 
f 220//220 200//200 221//221 
f 200//200 201//201 221//221 
f 221//221 201//201 222//222 
f 201//201 202//202 222//222 
f 222//222 202//202 223//223 
f 202//202 202//202 223//223 
f 223//223 202//202 224//224 
f 202//202 203//203 224//224 
f 224//224 203//203 225//225 
f 203//203 203//203 225//225 
f 225//225 203//203 226//226 
f 203//203 204//204 226//226 
f 226//226 204//204 227//227 
f 204//204 204//204 227//227 
f 227//227 204//204 228//228 
f 204//204 205//205 228//228 
f 228//228 205//205 229//229 
f 205//205 205//205 229//229 
f 229//229 205//205 230//230 
f 205//205 206//206 230//230 
f 230//230 206//206 231//231 
f 206//206 207//207 231//231 
f 231//231 207//207 232//232 
f 207//207 207//207 232//232 
f 232//232 207//207 233//233 
f 207//207 208//208 233//233 
f 233//233 208//208 234//234 
f 208//208 209//209 234//234 
f 234//234 209//209 235//235 
f 209//209 209//209 235//235 
f 235//235 209//209 236//236 
f 209//209 210//210 236//236 
f 236//236 210//210 237//237 
f 210//210 210//210 237//237 
f 237//237 210//210 238//238 
f 210//210 211//211 238//238 
f 238//238 211//211 239//239 
f 211//211 211//211 239//239 
f 239//239 211//211 240//240 
f 211//211 212//212 240//240 
f 240//240 212//212 241//241 
f 212//212 212//212 241//241 
f 241//241 212//212 242//242 
f 212//212 213//213 242//242 
f 242//242 213//213 243//243 
f 213//213 214//214 243//243 
f 243//243 214//214 244//244 
f 214//214 214//214 244//244 
f 244//244 214//214 245//245 
f 214//214 215//215 245//245 
f 245//245 215//215 246//246 
f 215//215 215//215 246//246 
f 246//246 215//215 247//247 
f 215//215 216//216 247//247 
f 247//247 216//216 248//248 
f 216//216 216//216 248//248 
f 248//248 216//216 249//249 
f 216//216 217//217 249//249 
f 249//249 217//217 250//250 
f 217//217 217//217 250//250 
f 250//250 217//217 251//251 
f 217//217 218//218 251//251 
f 251//251 218//218 252//252 
f 218//218 219//219 252//252 
f 252//252 219//219 219//219 
f 219//219 252//252 219//219 
f 219//219 252//252 252//252 
f 252//252 253//253 252//252 
f 252//252 253//253 254//254 
f 253//253 253//253 254//254 
f 254//254 253//253 250//250 
f 253//253 255//255 250//250 
f 250//250 255//255 250//250 
f 255//255 256//256 250//250 
f 250//250 256//256 257//257 
f 256//256 258//258 257//257 
f 257//257 258//258 248//248 
f 258//258 258//258 248//248 
f 248//248 258//258 259//259 
f 258//258 260//260 259//259 
f 259//259 260//260 259//259 
f 260//260 261//261 259//259 
f 259//259 261//261 246//246 
f 261//261 261//261 246//246 
f 246//246 261//261 262//262 
f 261//261 263//263 262//262 
f 262//262 263//263 262//262 
f 263//263 264//264 262//262 
f 262//262 264//264 244//244 
f 264//264 264//264 244//244 
f 244//244 264//264 243//243 
f 264//264 265//265 243//243 
f 243//243 265//265 266//266 
f 265//265 267//267 266//266 
f 266//266 267//267 241//241 
f 267//267 268//268 241//241 
f 241//241 268//268 269//269 
f 268//268 270//270 269//269 
f 269//269 270//270 239//239 
f 270//270 271//271 239//239 
f 239//239 271//271 272//272 
f 271//271 273//273 272//272 
f 272//272 273//273 237//237 
f 273//273 274//274 237//237 
f 237//237 274//274 275//275 
f 274//274 276//276 275//275 
f 275//275 276//276 235//235 
f 276//276 276//276 235//235 
f 235//235 276//276 277//277 
f 276//276 278//278 277//277 
f 277//277 278//278 279//279 
f 278//278 280//280 279//279 
f 279//279 280//280 232//232 
f 280//280 281//281 232//232 
f 232//232 281//281 282//282 
f 281//281 283//283 282//282 
f 282//282 283//283 230//230 
f 283//283 284//284 230//230 
f 230//230 284//284 229//229 
f 284//284 284//284 229//229 
f 229//229 284//284 285//285 
f 284//284 286//286 285//285 
f 285//285 286//286 227//227 
f 286//286 287//287 227//227 
f 227//227 287//287 288//288 
f 287//287 289//289 288//288 
f 288//288 289//289 225//225 
f 289//289 290//290 225//225 
f 225//225 290//290 291//291 
f 290//290 292//292 291//291 
f 291//291 292//292 223//223 
f 292//292 293//293 223//223 
f 223//223 293//293 294//294 
f 293//293 295//295 294//294 
f 294//294 295//295 221//221 
f 295//295 296//296 221//221 
f 221//221 296//296 220//220 
f 296//296 297//297 220//220 
f 220//220 297//297 298//298 
f 297//297 299//299 298//298 
f 298//298 299//299 252//252 
f 299//299 253//253 252//252 
f 252//252 253//253 253//253 
f 253//253 300//300 253//253 
f 253//253 300//300 300//300 
f 300//300 301//301 300//300 
f 300//300 301//301 302//302 
f 301//301 301//301 302//302 
f 302//302 301//301 303//303 
f 301//301 304//304 303//303 
f 303//303 304//304 305//305 
f 304//304 306//306 305//305 
f 305//305 306//306 307//307 
f 306//306 308//308 307//307 
f 307//307 308//308 309//309 
f 308//308 310//310 309//309 
f 309//309 310//310 309//309 
f 310//310 311//311 309//309 
f 309//309 311//311 312//312 
f 311//311 313//313 312//312 
f 312//312 313//313 314//314 
f 313//313 315//315 314//314 
f 314//314 315//315 316//316 
f 315//315 317//317 316//316 
f 316//316 317//317 318//318 
f 317//317 319//319 318//318 
f 318//318 319//319 320//320 
f 319//319 320//320 320//320 
f 320//320 320//320 301//301 
f 320//320 301//301 301//301 
f 301//301 301//301 321//321 
f 301//301 300//300 321//321 
f 321//321 300//300 321//321 
f 300//300 322//322 321//321 
f 321//321 322//322 321//321 
f 322//322 323//323 321//321 
f 321//321 323//323 324//324 
f 323//323 324//324 324//324 
f 324//324 324//324 325//325 
f 324//324 325//325 325//325 
f 325//325 325//325 326//326 
f 325//325 327//327 326//326 
f 326//326 327//327 326//326 
f 327//327 328//328 326//326 
f 326//326 328//328 329//329 
f 328//328 330//330 329//329 
f 329//329 330//330 331//331 
f 330//330 330//330 331//331 
f 331//331 330//330 332//332 
f 330//330 333//333 332//332 
f 332//332 333//333 334//334 
f 333//333 335//335 334//334 
f 334//334 335//335 336//336 
f 335//335 337//337 336//336 
f 336//336 337//337 338//338 
f 337//337 339//339 338//338 
f 338//338 339//339 338//338 
f 339//339 340//340 338//338 
f 338//338 340//340 341//341 
f 340//340 342//342 341//341 
f 341//341 342//342 343//343 
f 342//342 344//344 343//343 
f 343//343 344//344 345//345 
f 344//344 346//346 345//345 
f 345//345 346//346 347//347 
f 346//346 348//348 347//347 
f 347//347 348//348 349//349 
f 348//348 350//350 349//349 
f 349//349 350//350 351//351 
f 350//350 352//352 351//351 
f 351//351 352//352 353//353 
f 352//352 354//354 353//353 
f 353//353 354//354 355//355 
f 354//354 356//356 355//355 
f 355//355 356//356 357//357 
f 356//356 356//356 357//357 
f 357//357 356//356 358//358 
f 356//356 359//359 358//358 
f 358//358 359//359 360//360 
f 359//359 361//361 360//360 
f 360//360 361//361 362//362 
f 361//361 363//363 362//362 
f 362//362 363//363 364//364 
f 363//363 365//365 364//364 
f 364//364 365//365 365//365 
f 365//365 366//366 365//365 
f 365//365 366//366 366//366 
f 366//366 367//367 366//366 
f 366//366 367//367 368//368 
f 367//367 367//367 368//368 
f 368//368 367//367 369//369 
f 367//367 370//370 369//369 
f 369//369 370//370 371//371 
f 370//370 370//370 371//371 
f 371//371 370//370 372//372 
f 370//370 373//373 372//372 
f 372//372 373//373 374//374 
f 373//373 375//375 374//374 
f 374//374 375//375 376//376 
f 375//375 377//377 376//376 
f 376//376 377//377 378//378 
f 377//377 379//379 378//378 
f 378//378 379//379 378//378 
f 379//379 380//380 378//378 
f 378//378 380//380 381//381 
f 380//380 382//382 381//381 
f 381//381 382//382 383//383 
f 382//382 384//384 383//383 
f 383//383 384//384 385//385 
f 384//384 386//386 385//385 
f 385//385 386//386 387//387 
f 386//386 388//388 387//387 
f 387//387 388//388 389//389 
f 388//388 390//390 389//389 
f 389//389 390//390 391//391 
f 390//390 392//392 391//391 
f 391//391 392//392 393//393 
f 392//392 394//394 393//393 
f 393//393 394//394 395//395 
f 394//394 396//396 395//395 
f 395//395 396//396 397//397 
f 396//396 396//396 397//397 
f 397//397 396//396 398//398 
f 396//396 399//399 398//398 
f 398//398 399//399 400//400 
f 399//399 401//401 400//400 
f 400//400 401//401 402//402 
f 401//401 403//403 402//402 
f 402//402 403//403 404//404 
f 403//403 405//405 404//404 
f 404//404 405//405 405//405 
f 405//405 406//406 405//405 
f 405//405 406//406 406//406 
f 406//406 407//407 406//406 
f 406//406 407//407 408//408 
f 407//407 409//409 408//408 
f 408//408 409//409 410//410 
f 409//409 411//411 410//410 
f 410//410 411//411 412//412 
f 411//411 411//411 412//412 
f 412//412 411//411 413//413 
f 411//411 414//414 413//413 
f 413//413 414//414 415//415 
f 414//414 416//416 415//415 
f 415//415 416//416 417//417 
f 416//416 418//418 417//417 
f 417//417 418//418 419//419 
f 418//418 420//420 419//419 
f 419//419 420//420 419//419 
f 420//420 421//421 419//419 
f 419//419 421//421 422//422 
f 421//421 423//423 422//422 
f 422//422 423//423 424//424 
f 423//423 425//425 424//424 
f 424//424 425//425 426//426 
f 425//425 427//427 426//426 
f 426//426 427//427 428//428 
f 427//427 429//429 428//428 
f 428//428 429//429 430//430 
f 429//429 431//431 430//430 
f 430//430 431//431 432//432 
f 431//431 433//433 432//432 
f 432//432 433//433 434//434 
f 433//433 435//435 434//434 
f 434//434 435//435 436//436 
f 435//435 437//437 436//436 
f 436//436 437//437 438//438 
f 437//437 437//437 438//438 
f 438//438 437//437 439//439 
f 437//437 440//440 439//439 
f 439//439 440//440 441//441 
f 440//440 442//442 441//441 
f 441//441 442//442 443//443 
f 442//442 444//444 443//443 
f 443//443 444//444 445//445 
f 444//444 446//446 445//445 
f 445//445 446//446 446//446 
f 446//446 447//447 446//446 
f 446//446 447//447 447//447 
f 447//447 448//448 447//447 
f 447//447 448//448 449//449 
f 448//448 448//448 449//449 
f 449//449 448//448 450//450 
f 448//448 448//448 450//450 
f 450//450 448//448 451//451 
f 448//448 452//452 451//451 
f 451//451 452//452 453//453 
f 452//452 452//452 453//453 
f 453//453 452//452 454//454 
f 452//452 455//455 454//454 
f 454//454 455//455 456//456 
f 455//455 457//457 456//456 
f 456//456 457//457 458//458 
f 457//457 459//459 458//458 
f 458//458 459//459 460//460 
f 459//459 461//461 460//460 
f 460//460 461//461 460//460 
f 461//461 462//462 460//460 
f 460//460 462//462 463//463 
f 462//462 464//464 463//463 
f 463//463 464//464 465//465 
f 464//464 466//466 465//465 
f 465//465 466//466 467//467 
f 466//466 468//468 467//467 
f 467//467 468//468 469//469 
f 468//468 470//470 469//469 
f 469//469 470//470 471//471 
f 470//470 472//472 471//471 
f 471//471 472//472 473//473 
f 472//472 474//474 473//473 
f 473//473 474//474 475//475 
f 474//474 476//476 475//475 
f 475//475 476//476 477//477 
f 476//476 478//478 477//477 
f 477//477 478//478 479//479 
f 478//478 478//478 479//479 
f 479//479 478//478 480//480 
f 478//478 481//481 480//480 
f 480//480 481//481 482//482 
f 481//481 483//483 482//482 
f 482//482 483//483 484//484 
f 483//483 485//485 484//484 
f 484//484 485//485 486//486 
f 485//485 487//487 486//486 
f 486//486 487//487 487//487 
f 487//487 488//488 487//487 
f 487//487 488//488 488//488 
f 488//488 489//489 488//488 
f 488//488 489//489 490//490 
f 489//489 489//489 490//490 
f 490//490 489//489 491//491 
f 489//489 492//492 491//491 
f 491//491 492//492 493//493 
f 492//492 492//492 493//493 
f 493//493 492//492 494//494 
f 492//492 495//495 494//494 
f 494//494 495//495 496//496 
f 495//495 497//497 496//496 
f 496//496 497//497 498//498 
f 497//497 499//499 498//498 
f 498//498 499//499 500//500 
f 499//499 501//501 500//500 
f 500//500 501//501 500//500 
f 501//501 502//502 500//500 
f 500//500 502//502 503//503 
f 502//502 504//504 503//503 
f 503//503 504//504 505//505 
f 504//504 506//506 505//505 
f 505//505 506//506 507//507 
f 506//506 508//508 507//507 
f 507//507 508//508 509//509 
f 508//508 510//510 509//509 
f 509//509 510//510 511//511 
f 510//510 512//512 511//511 
f 511//511 512//512 513//513 
f 512//512 514//514 513//513 
f 513//513 514//514 515//515 
f 514//514 516//516 515//515 
f 515//515 516//516 517//517 
f 516//516 518//518 517//517 
f 517//517 518//518 519//519 
f 518//518 518//518 519//519 
f 519//519 518//518 520//520 
f 518//518 521//521 520//520 
f 520//520 521//521 522//522 
f 521//521 523//523 522//522 
f 522//522 523//523 524//524 
f 523//523 525//525 524//524 
f 524//524 525//525 526//526 
f 525//525 527//527 526//526 
f 526//526 527//527 527//527 
f 527//527 528//528 527//527 
f 527//527 528//528 528//528 
f 528//528 529//529 528//528 
f 528//528 529//529 530//530 
f 529//529 529//529 530//530 
f 530//530 529//529 531//531 
f 529//529 532//532 531//531 
f 531//531 532//532 532//532 
f 532//532 528//528 532//532 
f 532//532 528//528 528//528 
f 528//528 530//530 528//528 
f 528//528 530//530 533//533 
f 530//530 534//534 533//533 
f 533//533 534//534 535//535 
f 534//534 536//536 535//535 
f 535//535 536//536 537//537 
f 536//536 538//538 537//537 
f 537//537 538//538 539//539 
f 538//538 540//540 539//539 
f 539//539 540//540 540//540 
f 540//540 531//531 540//540 
f 540//540 531//531 531//531 
f 531//531 532//532 531//531 
f 531//531 532//532 541//541 
f 532//532 542//542 541//541 
f 541//541 542//542 543//543 
f 542//542 544//544 543//543 
f 543//543 544//544 545//545 
f 544//544 546//546 545//545 
f 545//545 546//546 547//547 

