mtllib model_20.mtl
o model_20
v -147.68438720703125 29.340599060058594 36.9171142578125 
v -147.63381958007812 29.340599060058594 37.835243225097656 
v -148.20700073242188 30.236194610595703 36.9171142578125 
v -148.1564178466797 30.250411987304688 37.835243225097656 
v -147.63381958007812 29.340599060058594 37.835243225097656 
v -147.68438720703125 29.340599060058594 36.9171142578125 
v -146.58860778808594 29.340599060058594 37.82347106933594 
v -146.63917541503906 29.340599060058594 36.90534210205078 
v -147.68438720703125 29.340599060058594 36.9171142578125 
v -148.20700073242188 30.236194610595703 36.9171142578125 
v -146.63917541503906 29.340599060058594 36.90534210205078 
v -146.63917541503906 31.146007537841797 36.88180160522461 
v -146.1165771484375 30.236194610595703 36.88180160522461 
v -146.65603637695312 30.591590881347656 38.01180648803711 
v -146.65603637695312 30.591590881347656 38.3531608581543 
v -146.57174682617188 30.435216903686523 38.01180648803711 
v -146.57174682617188 30.435216903686523 38.3531608581543 
v -146.53802490234375 30.250411987304688 38.01180648803711 
v -146.53802490234375 30.26462745666504 38.3531608581543 
v -146.57174682617188 30.079822540283203 38.01180648803711 
v -146.57174682617188 30.079822540283203 38.3531608581543 
v -146.65603637695312 29.909231185913086 38.02357864379883 
v -146.65603637695312 29.92344856262207 38.364933013916016 
v -146.942626953125 29.7102108001709 38.364933013916016 
v -146.7740478515625 29.79550552368164 38.364933013916016 
v -147.1112060546875 29.681779861450195 38.376705169677734 
v -146.57174682617188 30.079822540283203 38.3531608581543 
v -147.66754150390625 30.079822540283203 38.376705169677734 
v -147.46524047851562 30.733747482299805 38.364933013916016 
v -147.66754150390625 30.435216903686523 38.376705169677734 
v -147.58323669433594 30.591590881347656 38.364933013916016 
v -146.7740478515625 30.733747482299805 38.3531608581543 
v -146.57174682617188 30.435216903686523 38.3531608581543 
v -146.65603637695312 30.591590881347656 38.3531608581543 
v -147.1112060546875 30.83325958251953 38.3531608581543 
v -146.942626953125 30.804826736450195 38.3531608581543 
v -146.6728973388672 29.525405883789062 38.047119140625 
v -146.25143432617188 30.250411987304688 38.03534698486328 
v -147.51580810546875 29.525405883789062 38.05889129638672 
v -147.51580810546875 30.97541618347168 38.047119140625 
v -147.93727111816406 30.250411987304688 38.05889129638672 
v -147.68438720703125 31.146007537841797 36.89356994628906 
v -147.63381958007812 31.146007537841797 37.811702728271484 
v -146.63917541503906 31.146007537841797 36.88180160522461 
v -146.58860778808594 31.146007537841797 37.799930572509766 
v -146.79090881347656 29.78129005432129 38.02357864379883 
v -146.942626953125 29.695995330810547 38.02357864379883 
v -146.65603637695312 29.909231185913086 38.02357864379883 
v -146.53802490234375 30.250411987304688 38.01180648803711 
v -146.57174682617188 30.079822540283203 38.01180648803711 
v -147.60009765625 29.909231185913086 38.03534698486328 
v -147.60009765625 30.591590881347656 38.02357864379883 
v -146.942626953125 30.804826736450195 38.01180648803711 
v -147.29664611816406 30.804826736450195 38.02357864379883 
v -147.12806701660156 30.83325958251953 38.01180648803711 
v -146.65603637695312 30.591590881347656 38.01180648803711 
v -146.79090881347656 30.719532012939453 38.01180648803711 
v -146.65603637695312 30.591590881347656 38.3531608581543 
v -146.65603637695312 30.591590881347656 38.01180648803711 
v -146.7740478515625 30.733747482299805 38.3531608581543 
v -146.79090881347656 30.719532012939453 38.01180648803711 
v -146.942626953125 30.804826736450195 38.3531608581543 
v -146.942626953125 30.804826736450195 38.01180648803711 
v -147.1112060546875 30.83325958251953 38.3531608581543 
v -147.12806701660156 30.83325958251953 38.01180648803711 
v -147.29664611816406 30.804826736450195 38.364933013916016 
v -147.29664611816406 30.804826736450195 38.02357864379883 
v -147.46524047851562 30.733747482299805 38.364933013916016 
v -147.46524047851562 30.719532012939453 38.02357864379883 
v -147.58323669433594 30.591590881347656 38.364933013916016 
v -147.60009765625 30.591590881347656 38.02357864379883 
v -146.1165771484375 30.236194610595703 36.88180160522461 
v -146.0659942626953 30.250411987304688 37.799930572509766 
v -146.63917541503906 29.340599060058594 36.90534210205078 
v -146.58860778808594 29.340599060058594 37.82347106933594 
v -146.0659942626953 30.250411987304688 37.799930572509766 
v -146.25143432617188 30.250411987304688 38.03534698486328 
v -146.58860778808594 29.340599060058594 37.82347106933594 
v -146.6728973388672 29.525405883789062 38.047119140625 
v -147.58323669433594 30.591590881347656 38.364933013916016 
v -147.60009765625 30.591590881347656 38.02357864379883 
v -147.66754150390625 30.435216903686523 38.376705169677734 
v -147.68438720703125 30.435216903686523 38.02357864379883 
v -147.7012481689453 30.26462745666504 38.376705169677734 
v -147.7012481689453 30.250411987304688 38.03534698486328 
v -147.66754150390625 30.079822540283203 38.376705169677734 
v -147.68438720703125 30.079822540283203 38.03534698486328 
v -147.58323669433594 29.92344856262207 38.376705169677734 
v -147.60009765625 29.909231185913086 38.03534698486328 
v -146.58860778808594 29.340599060058594 37.82347106933594 
v -146.6728973388672 29.525405883789062 38.047119140625 
v -147.63381958007812 29.340599060058594 37.835243225097656 
v -147.51580810546875 29.525405883789062 38.05889129638672 
v -147.93727111816406 30.250411987304688 38.05889129638672 
v -148.1564178466797 30.250411987304688 37.835243225097656 
v -147.51580810546875 29.525405883789062 38.05889129638672 
v -147.63381958007812 29.340599060058594 37.835243225097656 
v -146.58860778808594 31.146007537841797 37.799930572509766 
v -146.6728973388672 30.97541618347168 38.02357864379883 
v -146.0659942626953 30.250411987304688 37.799930572509766 
v -146.25143432617188 30.250411987304688 38.03534698486328 
v -146.65603637695312 29.909231185913086 38.02357864379883 
v -146.65603637695312 29.92344856262207 38.364933013916016 
v -146.79090881347656 29.78129005432129 38.02357864379883 
v -146.7740478515625 29.79550552368164 38.364933013916016 
v -146.942626953125 29.695995330810547 38.02357864379883 
v -146.942626953125 29.7102108001709 38.364933013916016 
v -147.12806701660156 29.66756248474121 38.03534698486328 
v -147.1112060546875 29.681779861450195 38.376705169677734 
v -147.29664611816406 29.695995330810547 38.03534698486328 
v -147.29664611816406 29.7102108001709 38.376705169677734 
v -147.46524047851562 29.78129005432129 38.03534698486328 
v -147.46524047851562 29.79550552368164 38.376705169677734 
v -147.60009765625 29.909231185913086 38.03534698486328 
v -147.58323669433594 29.92344856262207 38.376705169677734 
v -148.1564178466797 30.250411987304688 37.835243225097656 
v -147.93727111816406 30.250411987304688 38.05889129638672 
v -147.63381958007812 31.146007537841797 37.811702728271484 
v -147.51580810546875 30.97541618347168 38.047119140625 
v -147.58323669433594 29.92344856262207 38.376705169677734 
v -147.46524047851562 29.79550552368164 38.376705169677734 
v -146.6728973388672 30.97541618347168 38.02357864379883 
v -146.58860778808594 31.146007537841797 37.799930572509766 
v -147.51580810546875 30.97541618347168 38.047119140625 
v -147.63381958007812 31.146007537841797 37.811702728271484 
v -146.0659942626953 30.250411987304688 37.799930572509766 
v -146.1165771484375 30.236194610595703 36.88180160522461 
v -146.58860778808594 31.146007537841797 37.799930572509766 
v -146.63917541503906 31.146007537841797 36.88180160522461 
v -147.46524047851562 29.78129005432129 38.03534698486328 
v -147.29664611816406 29.695995330810547 38.03534698486328 
v -147.12806701660156 29.66756248474121 38.03534698486328 
v -147.63381958007812 31.146007537841797 37.811702728271484 
v -147.68438720703125 31.146007537841797 36.89356994628906 
v -148.1564178466797 30.250411987304688 37.835243225097656 
v -148.20700073242188 30.236194610595703 36.9171142578125 
v -147.68438720703125 30.435216903686523 38.02357864379883 
v -147.7012481689453 30.250411987304688 38.03534698486328 
v -147.68438720703125 30.079822540283203 38.03534698486328 
v -147.68438720703125 31.146007537841797 36.89356994628906 
v -146.6728973388672 30.97541618347168 38.02357864379883 
v -147.46524047851562 30.719532012939453 38.02357864379883 
v -146.57174682617188 30.435216903686523 38.01180648803711 
v -146.53802490234375 30.26462745666504 38.3531608581543 
v -147.29664611816406 30.804826736450195 38.364933013916016 
v -147.7012481689453 30.26462745666504 38.376705169677734 
v -147.29664611816406 29.7102108001709 38.376705169677734 
v -146.65603637695312 29.92344856262207 38.364933013916016 
vn -0.8635741472244263 -0.5007636547088623 0.058952588587999344 
vn -0.8635741472244263 -0.5007636547088623 0.058952588587999344 
vn -0.8635741472244263 -0.5007636547088623 0.058952588587999344 
vn -0.8635741472244263 -0.5007636547088623 0.058952588587999344 
vn 3.0978390967890956e-13 -0.9999785423278809 0.006554040592163801 
vn 3.0978390967890956e-13 -0.9999785423278809 0.006554040592163801 
vn 3.0978390967890956e-13 -0.9999785423278809 0.006554040592163801 
vn 3.0978390967890956e-13 -0.9999785423278809 0.006554040592163801 
vn -0.01673441007733345 -0.014041837304830551 -0.9997613430023193 
vn -0.01673441007733345 -0.014041837304830551 -0.9997613430023193 
vn -0.01673441007733345 -0.014041837304830551 -0.9997613430023193 
vn -0.01673441007733345 -0.014041837304830551 -0.9997613430023193 
vn -0.01673441007733345 -0.014041837304830551 -0.9997613430023193 
vn 0.7774655818939209 0.6282840967178345 -0.028397228568792343 
vn 0.8394269943237305 0.5427300333976746 -0.028397228568792343 
vn 0.9320424795150757 0.361551433801651 -0.024029340595006943 
vn 0.9649925231933594 0.2611743211746216 -0.024029340595006943 
vn 0.9984100461006165 0.052828505635261536 -0.01966099627315998 
vn 0.9984100461006165 -0.052828505635261536 -0.01966099627315998 
vn 0.9651583433151245 -0.26121920347213745 -0.0152922747656703 
vn 0.9322026371955872 -0.36161357164382935 -0.0152922747656703 
vn 0.8397476673126221 -0.5429373383522034 -0.006554040592163801 
vn 0.7777625322341919 -0.6285240650177002 -0.006554040592163801 
vn 0.017673155292868614 0.012840298935770988 0.9997613430023193 
vn 0.017673155292868614 0.012840298935770988 0.9997613430023193 
vn 0.017673155292868614 0.012840298935770988 0.9997613430023193 
vn 0.017673155292868614 0.012840298935770988 0.9997613430023193 
vn 0.017673155292868614 0.012840298935770988 0.9997613430023193 
vn 0.017673155292868614 0.012840298935770988 0.9997613430023193 
vn 0.017673155292868614 0.012840298935770988 0.9997613430023193 
vn 0.017673155292868614 0.012840298935770988 0.9997613430023193 
vn 0.017673155292868614 0.012840298935770988 0.9997613430023193 
vn 0.017673155292868614 0.012840298935770988 0.9997613430023193 
vn 0.017673155292868614 0.012840298935770988 0.9997613430023193 
vn 0.017673155292868614 0.012840298935770988 0.9997613430023193 
vn 0.017673155292868614 0.012840298935770988 0.9997613430023193 
vn 0.017673155292868614 0.012840298935770988 0.9997613430023193 
vn 0.017673155292868614 0.012840298935770988 0.9997613430023193 
vn 0.017673155292868614 0.012840298935770988 0.9997613430023193 
vn 0.017673155292868614 0.012840298935770988 0.9997613430023193 
vn 0.017673155292868614 0.012840298935770988 0.9997613430023193 
vn -1.0340933296291988e-13 0.9999785423278809 -0.006554040592163801 
vn -1.0340933296291988e-13 0.9999785423278809 -0.006554040592163801 
vn -1.0340933296291988e-13 0.9999785423278809 -0.006554040592163801 
vn -1.0340933296291988e-13 0.9999785423278809 -0.006554040592163801 
vn -0.01673441007733345 -0.014041837304830551 -0.9997613430023193 
vn -0.01673441007733345 -0.014041837304830551 -0.9997613430023193 
vn -0.01673441007733345 -0.014041837304830551 -0.9997613430023193 
vn -0.01673441007733345 -0.014041837304830551 -0.9997613430023193 
vn -0.01673441007733345 -0.014041837304830551 -0.9997613430023193 
vn -0.01673441007733345 -0.014041837304830551 -0.9997613430023193 
vn -0.01673441007733345 -0.014041837304830551 -0.9997613430023193 
vn -0.01673441007733345 -0.014041837304830551 -0.9997613430023193 
vn -0.01673441007733345 -0.014041837304830551 -0.9997613430023193 
vn -0.01673441007733345 -0.014041837304830551 -0.9997613430023193 
vn -0.01673441007733345 -0.014041837304830551 -0.9997613430023193 
vn -0.01673441007733345 -0.014041837304830551 -0.9997613430023193 
vn 0.8394269943237305 0.5427300333976746 -0.028397228568792343 
vn 0.7774655818939209 0.6282840967178345 -0.028397228568792343 
vn 0.6283560395240784 0.7775546908378601 -0.024029340595006943 
vn 0.5427922010421753 0.839523196220398 -0.024029340595006943 
vn 0.361551433801651 0.9320424795150757 -0.024029340595006943 
vn 0.2611992359161377 0.9650846719741821 -0.01966099627315998 
vn 0.05283254012465477 0.9984862804412842 -0.0152922747656703 
vn -0.05283254012465477 0.9984862804412842 -0.0152922747656703 
vn -0.2612341642379761 0.9652136564254761 -0.010923261754214764 
vn -0.3616480827331543 0.9322916269302368 -0.006554040592163801 
vn -0.5429477095603943 0.8397637009620667 -0.002184694167226553 
vn -0.6285360455513 0.777777373790741 0.002184694167226553 
vn -0.7777625322341919 0.6285240650177002 0.006554040592163801 
vn -0.8397476673126221 0.5429373383522034 0.006554040592163801 
vn 0.8656761646270752 -0.49761897325515747 -0.05459024757146835 
vn 0.8656761646270752 -0.49761897325515747 -0.05459024757146835 
vn 0.8656761646270752 -0.49761897325515747 -0.05459024757146835 
vn 0.8656761646270752 -0.49761897325515747 -0.05459024757146835 
vn 0.7171867489814758 -0.3973754048347473 0.5724822878837585 
vn 0.7171867489814758 -0.3973754048347473 0.5724822878837585 
vn 0.7171867489814758 -0.3973754048347473 0.5724822878837585 
vn 0.7171867489814758 -0.3973754048347473 0.5724822878837585 
vn -0.7777625322341919 0.6285240650177002 0.006554040592163801 
vn -0.8397476673126221 0.5429373383522034 0.006554040592163801 
vn -0.9322026371955872 0.36161357164382935 0.0152922747656703 
vn -0.9651583433151245 0.26121920347213745 0.0152922747656703 
vn -0.9984100461006165 0.052828505635261536 0.01966099627315998 
vn -0.9984100461006165 -0.052828505635261536 0.01966099627315998 
vn -0.9649925231933594 -0.2611743211746216 0.024029340595006943 
vn -0.9320424795150757 -0.361551433801651 0.024029340595006943 
vn -0.839523196220398 -0.5427922010421753 0.024029340595006943 
vn -0.7774655818939209 -0.6282840967178345 0.028397228568792343 
vn 0.011305486783385277 -0.794048011302948 0.607749879360199 
vn 0.011305486783385277 -0.794048011302948 0.607749879360199 
vn 0.011305486783385277 -0.794048011302948 0.607749879360199 
vn 0.011305486783385277 -0.794048011302948 0.607749879360199 
vn -0.667661726474762 -0.38837528228759766 0.6351318359375 
vn -0.667661726474762 -0.38837528228759766 0.6351318359375 
vn -0.667661726474762 -0.38837528228759766 0.6351318359375 
vn -0.667661726474762 -0.38837528228759766 0.6351318359375 
vn 0.7115285396575928 0.4173346757888794 0.5652954578399658 
vn 0.7115285396575928 0.4173346757888794 0.5652954578399658 
vn 0.7115285396575928 0.4173346757888794 0.5652954578399658 
vn 0.7115285396575928 0.4173346757888794 0.5652954578399658 
vn 0.8397476673126221 -0.5429373383522034 -0.006554040592163801 
vn 0.7777625322341919 -0.6285240650177002 -0.006554040592163801 
vn 0.6285360455513 -0.777777373790741 -0.002184694167226553 
vn 0.5429477095603943 -0.8397637009620667 0.002184694167226553 
vn 0.3616480827331543 -0.9322916269302368 0.006554040592163801 
vn 0.2612341642379761 -0.9652136564254761 0.010923261754214764 
vn 0.05283254012465477 -0.9984862804412842 0.0152922747656703 
vn -0.05283254012465477 -0.9984862804412842 0.0152922747656703 
vn -0.2611992359161377 -0.9650846719741821 0.01966099627315998 
vn -0.361551433801651 -0.9320424795150757 0.024029340595006943 
vn -0.5427922010421753 -0.839523196220398 0.024029340595006943 
vn -0.6283560395240784 -0.7775546908378601 0.024029340595006943 
vn -0.7774655818939209 -0.6282840967178345 0.028397228568792343 
vn -0.839523196220398 -0.5427922010421753 0.024029340595006943 
vn -0.666033148765564 0.4019530713558197 0.6283578276634216 
vn -0.666033148765564 0.4019530713558197 0.6283578276634216 
vn -0.666033148765564 0.4019530713558197 0.6283578276634216 
vn -0.666033148765564 0.4019530713558197 0.6283578276634216 
vn 0.017673155292868614 0.012840298935770988 0.9997613430023193 
vn 0.017673155292868614 0.012840298935770988 0.9997613430023193 
vn 0.011318203993141651 0.8045490384101868 0.5937783122062683 
vn 0.011318203993141651 0.8045490384101868 0.5937783122062683 
vn 0.011318203993141651 0.8045490384101868 0.5937783122062683 
vn 0.011318203993141651 0.8045490384101868 0.5937783122062683 
vn 0.8654611110687256 0.4974953532218933 -0.058952588587999344 
vn 0.8654611110687256 0.4974953532218933 -0.058952588587999344 
vn 0.8654611110687256 0.4974953532218933 -0.058952588587999344 
vn 0.8654611110687256 0.4974953532218933 -0.058952588587999344 
vn -0.01673441007733345 -0.014041837304830551 -0.9997613430023193 
vn -0.01673441007733345 -0.014041837304830551 -0.9997613430023193 
vn -0.01673441007733345 -0.014041837304830551 -0.9997613430023193 
vn -0.8637887835502625 0.5008881092071533 0.05459024757146835 
vn -0.8637887835502625 0.5008881092071533 0.05459024757146835 
vn -0.8637887835502625 0.5008881092071533 0.05459024757146835 
vn -0.8637887835502625 0.5008881092071533 0.05459024757146835 
vn -0.01673441007733345 -0.014041837304830551 -0.9997613430023193 
vn -0.01673441007733345 -0.014041837304830551 -0.9997613430023193 
vn -0.01673441007733345 -0.014041837304830551 -0.9997613430023193 
vn -0.01673441007733345 -0.014041837304830551 -0.9997613430023193 
vn 0.017673155292868614 0.012840298935770988 0.9997613430023193 
vn -0.01673441007733345 -0.014041837304830551 -0.9997613430023193 
vn -0.01673441007733345 -0.014041837304830551 -0.9997613430023193 
vn 0.017673155292868614 0.012840298935770988 0.9997613430023193 
vn 0.017673155292868614 0.012840298935770988 0.9997613430023193 
vn 0.017673155292868614 0.012840298935770988 0.9997613430023193 
vn 0.017673155292868614 0.012840298935770988 0.9997613430023193 
vn 0.017673155292868614 0.012840298935770988 0.9997613430023193 
vt 0.3703751564025879 0.34661105275154114 
vt 0.37045344710350037 0.3300630450248718 
vt 0.38666287064552307 0.3466990888118744 
vt 0.38674119114875793 0.3301510512828827 
vt 0.40941089391708374 0.006056256592273712 
vt 0.3928490877151489 0.004999999888241291 
vt 0.40909767150878906 0.024892836809158325 
vt 0.39253586530685425 0.02383657917380333 
vt 0.2910899221897125 0.4045291244983673 
vt 0.30052584409713745 0.42081308364868164 
vt 0.27221807837486267 0.4045291244983673 
vt 0.2722572386264801 0.43709704279899597 
vt 0.26278215646743774 0.42081308364868164 
vt 0.2492351531982422 0.004999999888241291 
vt 0.24915684759616852 0.011161497794091702 
vt 0.2521716356277466 0.004999999888241291 
vt 0.2520541846752167 0.01124951895326376 
vt 0.25542134046554565 0.0050880215130746365 
vt 0.25530388951301575 0.01124951895326376 
vt 0.2586710751056671 0.0050880215130746365 
vt 0.2585536241531372 0.011337541043758392 
vt 0.2615683972835541 0.0051760426722466946 
vt 0.2614901065826416 0.011337541043758392 
vt 0.12288777530193329 0.7254551649093628 
vt 0.12582425773143768 0.7239587903022766 
vt 0.11963805556297302 0.7259832620620728 
vt 0.12962211668491364 0.7187655568122864 
vt 0.10965399444103241 0.7187655568122864 
vt 0.11345185339450836 0.7069706916809082 
vt 0.10965399444103241 0.7122519612312317 
vt 0.11114181578159332 0.7093472480773926 
vt 0.12582425773143768 0.7069706916809082 
vt 0.12962211668491364 0.7122519612312317 
vt 0.12813429534435272 0.7093472480773926 
vt 0.11963805556297302 0.7049461603164673 
vt 0.12288777530193329 0.705474317073822 
vt 0.4222531318664551 0.08597968518733978 
vt 0.429848849773407 0.07277648150920868 
vt 0.40702253580093384 0.08597968518733978 
vt 0.4069834053516388 0.05966128781437874 
vt 0.3993876576423645 0.07277648150920868 
vt 0.1657213717699051 0.4142114818096161 
vt 0.14915956556797028 0.4131552278995514 
vt 0.16603459417819977 0.39528688788414 
vt 0.14947280287742615 0.3942306339740753 
vt 0.2927343547344208 0.7052982449531555 
vt 0.29567083716392517 0.7038018703460693 
vt 0.29042431712150574 0.7075868248939514 
vt 0.2884275019168854 0.7137483358383179 
vt 0.2889364957809448 0.7104915380477905 
vt 0.30741679668426514 0.7075868248939514 
vt 0.30741679668426514 0.7199097871780396 
vt 0.29567083716392517 0.7237827777862549 
vt 0.3021702766418457 0.7237827777862549 
vt 0.29892057180404663 0.7243108749389648 
vt 0.29042431712150574 0.7199097871780396 
vt 0.2927343547344208 0.7222864031791687 
vt 0.18968313932418823 0.25770944356918335 
vt 0.1958693414926529 0.2577974498271942 
vt 0.1896439790725708 0.25999799370765686 
vt 0.1958693414926529 0.2600860297679901 
vt 0.1896439790725708 0.26290270686149597 
vt 0.19583018124103546 0.2630787491798401 
vt 0.18956567347049713 0.2661595046520233 
vt 0.19579103589057922 0.26633554697036743 
vt 0.1895265132188797 0.26941627264022827 
vt 0.19571273028850555 0.2695043087005615 
vt 0.18944820761680603 0.2723209857940674 
vt 0.19567357003688812 0.2724970281124115 
vt 0.18936990201473236 0.27469757199287415 
vt 0.19559526443481445 0.274785578250885 
vt 0.41234737634658813 0.032374653965234756 
vt 0.41226908564567566 0.04892268031835556 
vt 0.42867425084114075 0.03272674232721329 
vt 0.42859596014022827 0.04927476495504379 
vt 0.41226908564567566 0.04892268031835556 
vt 0.41226908564567566 0.053147707134485245 
vt 0.42859596014022827 0.04927476495504379 
vt 0.4254245460033417 0.05341177061200142 
vt 0.27523288130760193 0.10587252676486969 
vt 0.27515456080436707 0.11212204396724701 
vt 0.2723355293273926 0.10578450560569763 
vt 0.27221807837486267 0.11203402280807495 
vt 0.2690858244895935 0.10578450560569763 
vt 0.2689683735370636 0.1119460016489029 
vt 0.26583611965179443 0.10578450560569763 
vt 0.26571863889694214 0.1119460016489029 
vt 0.26289960741996765 0.10569648444652557 
vt 0.26278215646743774 0.1119460016489029 
vt 0.40909767150878906 0.024892836809158325 
vt 0.4132479131221771 0.02339647337794304 
vt 0.40941089391708374 0.006056256592273712 
vt 0.41348281502723694 0.008168770000338554 
vt 0.38678035140037537 0.32601404190063477 
vt 0.38674119114875793 0.3301510512828827 
vt 0.37358570098876953 0.32601404190063477 
vt 0.37045344710350037 0.3300630450248718 
vt 0.3959813416004181 0.048834655433893204 
vt 0.3990744352340698 0.05305968597531319 
vt 0.41226908564567566 0.04892268031835556 
vt 0.41226908564567566 0.053147707134485245 
vt 0.23549237847328186 0.27636998891830444 
vt 0.24167858064174652 0.2764579951763153 
vt 0.23557068407535553 0.27408140897750854 
vt 0.2417568862438202 0.2741694450378418 
vt 0.23560982942581177 0.27108868956565857 
vt 0.24183519184589386 0.2712647318840027 
vt 0.23568813502788544 0.2679199278354645 
vt 0.2418743520975113 0.26800793409347534 
vt 0.23572729527950287 0.26466313004493713 
vt 0.24191349744796753 0.2647511661052704 
vt 0.2357664555311203 0.26167041063308716 
vt 0.24195265769958496 0.2618464529514313 
vt 0.2357664555311203 0.25938186049461365 
vt 0.24195265769958496 0.25955790281295776 
vt 0.38674119114875793 0.3301510512828827 
vt 0.38678035140037537 0.32601404190063477 
vt 0.40306806564331055 0.3305031359195709 
vt 0.3999358117580414 0.32627812027931213 
vt 0.11114181578159332 0.7216702103614807 
vt 0.1134910061955452 0.7239587903022766 
vt 0.14524425566196442 0.39581501483917236 
vt 0.14947280287742615 0.3942306339740753 
vt 0.14500932395458221 0.411042720079422 
vt 0.14915956556797028 0.4131552278995514 
vt 0.41226908564567566 0.04892268031835556 
vt 0.41234737634658813 0.032374653965234756 
vt 0.3959813416004181 0.048834655433893204 
vt 0.39605966210365295 0.0322866328060627 
vt 0.30506759881973267 0.7052982449531555 
vt 0.30213111639022827 0.7038018703460693 
vt 0.29892057180404663 0.7032737731933594 
vt 0.40306806564331055 0.3305031359195709 
vt 0.40295061469078064 0.3470511734485626 
vt 0.38674119114875793 0.3301510512828827 
vt 0.38666287064552307 0.3466990888118744 
vt 0.30890461802482605 0.7170051336288452 
vt 0.3094136118888855 0.7137483358383179 
vt 0.30890461802482605 0.7104915380477905 
vt 0.2910899221897125 0.43709704279899597 
vt 0.42221400141716003 0.05966128781437874 
vt 0.30506759881973267 0.7222864031791687 
vt 0.2889364957809448 0.7170051336288452 
vt 0.13013111054897308 0.715508759021759 
vt 0.11638834327459335 0.705474317073822 
vt 0.10914500057697296 0.715508759021759 
vt 0.11638834327459335 0.7254551649093628 
vt 0.12813429534435272 0.7216702103614807 
s on 
f 1/1/1 2/2/2 3/3/3 
f 2/2/2 4/4/4 3/3/3 
f 3/3/3 4/4/4 4/4/4 
f 4/4/4 5/5/5 4/4/4 
f 4/4/4 5/5/5 5/5/5 
f 5/5/5 6/6/6 5/5/5 
f 5/5/5 6/6/6 7/7/7 
f 6/6/6 8/8/8 7/7/7 
f 7/7/7 8/8/8 8/8/8 
f 8/8/8 9/9/9 8/8/8 
f 8/8/8 9/9/9 9/9/9 
f 9/9/9 10/10/10 9/9/9 
f 9/9/9 10/10/10 11/11/11 
f 10/10/10 12/12/12 11/11/11 
f 11/11/11 12/12/12 13/13/13 
f 12/12/12 13/13/13 13/13/13 
f 13/13/13 13/13/13 14/14/14 
f 13/13/13 14/14/14 14/14/14 
f 14/14/14 14/14/14 14/14/14 
f 14/14/14 15/15/15 14/14/14 
f 14/14/14 15/15/15 16/16/16 
f 15/15/15 17/17/17 16/16/16 
f 16/16/16 17/17/17 18/18/18 
f 17/17/17 19/19/19 18/18/18 
f 18/18/18 19/19/19 20/20/20 
f 19/19/19 21/21/21 20/20/20 
f 20/20/20 21/21/21 22/22/22 
f 21/21/21 23/23/23 22/22/22 
f 22/22/22 23/23/23 23/23/23 
f 23/23/23 24/24/24 23/23/23 
f 23/23/23 24/24/24 24/24/24 
f 24/24/24 25/25/25 24/24/24 
f 24/24/24 25/25/25 26/26/26 
f 25/25/25 27/27/27 26/26/26 
f 26/26/26 27/27/27 28/28/28 
f 27/27/27 29/29/29 28/28/28 
f 28/28/28 29/29/29 30/30/30 
f 29/29/29 31/31/31 30/30/30 
f 30/30/30 31/31/31 31/31/31 
f 31/31/31 29/29/29 31/31/31 
f 31/31/31 29/29/29 29/29/29 
f 29/29/29 27/27/27 29/29/29 
f 29/29/29 27/27/27 32/32/32 
f 27/27/27 33/33/33 32/32/32 
f 32/32/32 33/33/33 34/34/34 
f 33/33/33 34/34/34 34/34/34 
f 34/34/34 34/34/34 29/29/29 
f 34/34/34 29/29/29 29/29/29 
f 29/29/29 29/29/29 29/29/29 
f 29/29/29 32/32/32 29/29/29 
f 29/29/29 32/32/32 35/35/35 
f 32/32/32 36/36/36 35/35/35 
f 35/35/35 36/36/36 36/36/36 
f 36/36/36 37/37/37 36/36/36 
f 36/36/36 37/37/37 37/37/37 
f 37/37/37 38/38/38 37/37/37 
f 37/37/37 38/38/38 39/39/39 
f 38/38/38 40/40/40 39/39/39 
f 39/39/39 40/40/40 41/41/41 
f 40/40/40 41/41/41 41/41/41 
f 41/41/41 41/41/41 42/42/42 
f 41/41/41 42/42/42 42/42/42 
f 42/42/42 42/42/42 42/42/42 
f 42/42/42 43/43/43 42/42/42 
f 42/42/42 43/43/43 44/44/44 
f 43/43/43 45/45/45 44/44/44 
f 44/44/44 45/45/45 45/45/45 
f 45/45/45 46/46/46 45/45/45 
f 45/45/45 46/46/46 46/46/46 
f 46/46/46 47/47/47 46/46/46 
f 46/46/46 47/47/47 48/48/48 
f 47/47/47 49/49/49 48/48/48 
f 48/48/48 49/49/49 50/50/50 
f 49/49/49 50/50/50 50/50/50 
f 50/50/50 50/50/50 47/47/47 
f 50/50/50 47/47/47 47/47/47 
f 47/47/47 47/47/47 47/47/47 
f 47/47/47 51/51/51 47/47/47 
f 47/47/47 51/51/51 49/49/49 
f 51/51/51 52/52/52 49/49/49 
f 49/49/49 52/52/52 53/53/53 
f 52/52/52 54/54/54 53/53/53 
f 53/53/53 54/54/54 55/55/55 
f 54/54/54 55/55/55 55/55/55 
f 55/55/55 55/55/55 49/49/49 
f 55/55/55 49/49/49 49/49/49 
f 49/49/49 49/49/49 49/49/49 
f 49/49/49 53/53/53 49/49/49 
f 49/49/49 53/53/53 56/56/56 
f 53/53/53 57/57/57 56/56/56 
f 56/56/56 57/57/57 57/57/57 
f 57/57/57 58/58/58 57/57/57 
f 57/57/57 58/58/58 58/58/58 
f 58/58/58 59/59/59 58/58/58 
f 58/58/58 59/59/59 60/60/60 
f 59/59/59 61/61/61 60/60/60 
f 60/60/60 61/61/61 62/62/62 
f 61/61/61 63/63/63 62/62/62 
f 62/62/62 63/63/63 64/64/64 
f 63/63/63 65/65/65 64/64/64 
f 64/64/64 65/65/65 66/66/66 
f 65/65/65 67/67/67 66/66/66 
f 66/66/66 67/67/67 68/68/68 
f 67/67/67 69/69/69 68/68/68 
f 68/68/68 69/69/69 70/70/70 
f 69/69/69 71/71/71 70/70/70 
f 70/70/70 71/71/71 71/71/71 
f 71/71/71 72/72/72 71/71/71 
f 71/71/71 72/72/72 72/72/72 
f 72/72/72 73/73/73 72/72/72 
f 72/72/72 73/73/73 74/74/74 
f 73/73/73 75/75/75 74/74/74 
f 74/74/74 75/75/75 75/75/75 
f 75/75/75 76/76/76 75/75/75 
f 75/75/75 76/76/76 76/76/76 
f 76/76/76 77/77/77 76/76/76 
f 76/76/76 77/77/77 78/78/78 
f 77/77/77 79/79/79 78/78/78 
f 78/78/78 79/79/79 79/79/79 
f 79/79/79 80/80/80 79/79/79 
f 79/79/79 80/80/80 80/80/80 
f 80/80/80 81/81/81 80/80/80 
f 80/80/80 81/81/81 82/82/82 
f 81/81/81 83/83/83 82/82/82 
f 82/82/82 83/83/83 84/84/84 
f 83/83/83 85/85/85 84/84/84 
f 84/84/84 85/85/85 86/86/86 
f 85/85/85 87/87/87 86/86/86 
f 86/86/86 87/87/87 88/88/88 
f 87/87/87 89/89/89 88/88/88 
f 88/88/88 89/89/89 89/89/89 
f 89/89/89 90/90/90 89/89/89 
f 89/89/89 90/90/90 90/90/90 
f 90/90/90 91/91/91 90/90/90 
f 90/90/90 91/91/91 92/92/92 
f 91/91/91 93/93/93 92/92/92 
f 92/92/92 93/93/93 93/93/93 
f 93/93/93 94/94/94 93/93/93 
f 93/93/93 94/94/94 94/94/94 
f 94/94/94 95/95/95 94/94/94 
f 94/94/94 95/95/95 96/96/96 
f 95/95/95 97/97/97 96/96/96 
f 96/96/96 97/97/97 97/97/97 
f 97/97/97 98/98/98 97/97/97 
f 97/97/97 98/98/98 98/98/98 
f 98/98/98 99/99/99 98/98/98 
f 98/98/98 99/99/99 100/100/100 
f 99/99/99 101/101/101 100/100/100 
f 100/100/100 101/101/101 101/101/101 
f 101/101/101 102/102/102 101/101/101 
f 101/101/101 102/102/102 102/102/102 
f 102/102/102 103/103/103 102/102/102 
f 102/102/102 103/103/103 104/104/104 
f 103/103/103 105/105/105 104/104/104 
f 104/104/104 105/105/105 106/106/106 
f 105/105/105 107/107/107 106/106/106 
f 106/106/106 107/107/107 108/108/108 
f 107/107/107 109/109/109 108/108/108 
f 108/108/108 109/109/109 110/110/110 
f 109/109/109 111/111/111 110/110/110 
f 110/110/110 111/111/111 112/112/112 
f 111/111/111 113/113/113 112/112/112 
f 112/112/112 113/113/113 114/114/114 
f 113/113/113 115/115/115 114/114/114 
f 114/114/114 115/115/115 115/115/115 
f 115/115/115 116/116/116 115/115/115 
f 115/115/115 116/116/116 116/116/116 
f 116/116/116 117/117/117 116/116/116 
f 116/116/116 117/117/117 118/118/118 
f 117/117/117 119/119/119 118/118/118 
f 118/118/118 119/119/119 119/119/119 
f 119/119/119 120/120/120 119/119/119 
f 119/119/119 120/120/120 120/120/120 
f 120/120/120 121/121/121 120/120/120 
f 120/120/120 121/121/121 28/28/28 
f 121/121/121 26/26/26 28/28/28 
f 28/28/28 26/26/26 26/26/26 
f 26/26/26 122/122/122 26/26/26 
f 26/26/26 122/122/122 122/122/122 
f 122/122/122 123/123/123 122/122/122 
f 122/122/122 123/123/123 124/124/124 
f 123/123/123 125/125/125 124/124/124 
f 124/124/124 125/125/125 125/125/125 
f 125/125/125 126/126/126 125/125/125 
f 125/125/125 126/126/126 126/126/126 
f 126/126/126 127/127/127 126/126/126 
f 126/126/126 127/127/127 128/128/128 
f 127/127/127 129/129/129 128/128/128 
f 128/128/128 129/129/129 129/129/129 
f 129/129/129 130/130/130 129/129/129 
f 129/129/129 130/130/130 130/130/130 
f 130/130/130 51/51/51 130/130/130 
f 130/130/130 51/51/51 131/131/131 
f 51/51/51 47/47/47 131/131/131 
f 131/131/131 47/47/47 132/132/132 
f 47/47/47 132/132/132 132/132/132 
f 132/132/132 132/132/132 133/133/133 
f 132/132/132 133/133/133 133/133/133 
f 133/133/133 133/133/133 133/133/133 
f 133/133/133 134/134/134 133/133/133 
f 133/133/133 134/134/134 135/135/135 
f 134/134/134 136/136/136 135/135/135 
f 135/135/135 136/136/136 136/136/136 
f 136/136/136 137/137/137 136/136/136 
f 136/136/136 137/137/137 137/137/137 
f 137/137/137 52/52/52 137/137/137 
f 137/137/137 52/52/52 138/138/138 
f 52/52/52 51/51/51 138/138/138 
f 138/138/138 51/51/51 139/139/139 
f 12/12/12 10/10/10 140/140/140 
f 141/141/141 40/40/40 38/38/38 
f 142/142/142 54/54/54 52/52/52 
f 143/143/143 49/49/49 56/56/56 
f 33/33/33 27/27/27 144/144/144 
f 145/145/145 29/29/29 35/35/35 
f 146/146/146 28/28/28 30/30/30 
f 147/147/147 26/26/26 121/121/121 
f 148/148/148 27/27/27 25/25/25 

