mtllib model_0.mtl
o model_0
v -33.84327697753906 28.39772605895996 40.76898193359375 
v -33.8440055847168 27.960195541381836 40.76898193359375 
v -34.02444839477539 28.39811897277832 40.53282165527344 
v -34.025177001953125 27.960588455200195 40.53282165527344 
v -33.8440055847168 27.960195541381836 40.76898193359375 
v -33.84327697753906 28.39772605895996 40.76898193359375 
v -33.730045318603516 27.959999084472656 41.04399871826172 
v -33.729312896728516 28.39752960205078 41.04399871826172 
v -34.261505126953125 27.960981369018555 42.327064514160156 
v -34.260772705078125 28.39851188659668 42.327064514160156 
v -34.53654861450195 27.961570739746094 42.44110870361328 
v -34.53581619262695 28.39890480041504 42.44110870361328 
v -35.40203857421875 27.9631404876709 40.351497650146484 
v -35.401309967041016 28.400671005249023 40.351497650146484 
v -35.12699508666992 27.96255111694336 40.23762512207031 
v -35.12626647949219 28.400081634521484 40.23762512207031 
v -35.12699508666992 27.96255111694336 40.23762512207031 
v -35.12626647949219 28.400081634521484 40.23762512207031 
v -34.83186340332031 27.962160110473633 40.19860076904297 
v -34.83095169067383 28.399494171142578 40.19860076904297 
v -34.261505126953125 27.960981369018555 40.351497650146484 
v -34.260772705078125 28.39851188659668 40.351497650146484 
v -34.025177001953125 27.960588455200195 40.53282165527344 
v -34.02444839477539 28.39811897277832 40.53282165527344 
v -34.53654861450195 27.961570739746094 40.23762512207031 
v -34.53581619262695 28.39890480041504 40.23762512207031 
v -34.261505126953125 27.960981369018555 40.351497650146484 
v -34.260772705078125 28.39851188659668 40.351497650146484 
v -34.83186340332031 27.962160110473633 40.19860076904297 
v -34.83095169067383 28.399494171142578 40.19860076904297 
v -34.684112548828125 27.961767196655273 40.21811294555664 
v -34.53654861450195 27.961570739746094 40.23762512207031 
v -35.81880569458008 28.401260375976562 40.76898193359375 
v -35.81953811645508 27.963729858398438 40.76898193359375 
v -35.932769775390625 28.401456832885742 41.04399871826172 
v -35.93349838256836 27.963926315307617 41.04399871826172 
v -35.63836669921875 27.963533401489258 40.53282165527344 
v -35.63763427734375 28.401063919067383 40.53282165527344 
v -35.40203857421875 27.9631404876709 40.351497650146484 
v -35.401309967041016 28.400671005249023 40.351497650146484 
v -35.81953811645508 27.963729858398438 40.76898193359375 
v -35.81880569458008 28.401260375976562 40.76898193359375 
v -35.63836669921875 27.963533401489258 40.53282165527344 
v -35.63763427734375 28.401063919067383 40.53282165527344 
v -35.932769775390625 28.401456832885742 41.04399871826172 
v -35.93349838256836 27.963926315307617 41.04399871826172 
v -35.9716682434082 28.401653289794922 41.33919906616211 
v -35.9724006652832 27.964122772216797 41.33919906616211 
v -35.9716682434082 28.401653289794922 41.33919906616211 
v -35.9724006652832 27.964122772216797 41.33919906616211 
v -35.932769775390625 28.401456832885742 41.6343994140625 
v -35.93349838256836 27.963926315307617 41.6343994140625 
v -35.932769775390625 28.401456832885742 41.6343994140625 
v -35.93349838256836 27.963926315307617 41.6343994140625 
v -35.81880569458008 28.401260375976562 41.90958023071289 
v -35.81953811645508 27.963729858398438 41.90958023071289 
v -35.81880569458008 28.401260375976562 41.90958023071289 
v -35.81953811645508 27.963729858398438 41.90958023071289 
v -35.63763427734375 28.401063919067383 42.14590835571289 
v -35.63836669921875 27.963533401489258 42.14590835571289 
v -35.63763427734375 28.401063919067383 42.14590835571289 
v -35.63836669921875 27.963533401489258 42.14590835571289 
v -35.401309967041016 28.400671005249023 42.327064514160156 
v -35.40203857421875 27.9631404876709 42.327064514160156 
v -35.401309967041016 28.400671005249023 42.327064514160156 
v -35.40203857421875 27.9631404876709 42.327064514160156 
v -35.12626647949219 28.400081634521484 42.44110870361328 
v -35.12699508666992 27.96255111694336 42.44110870361328 
v -35.12626647949219 28.400081634521484 42.44110870361328 
v -35.12699508666992 27.96255111694336 42.44110870361328 
v -34.83095169067383 28.399494171142578 42.47979736328125 
v -34.83186340332031 27.962160110473633 42.47979736328125 
v -34.83095169067383 28.399494171142578 42.47979736328125 
v -34.83186340332031 27.962160110473633 42.47979736328125 
v -34.53581619262695 28.39890480041504 42.44110870361328 
v -34.53654861450195 27.961570739746094 42.44110870361328 
v -34.025177001953125 27.960588455200195 42.14590835571289 
v -34.02444839477539 28.39811897277832 42.14590835571289 
v -34.261505126953125 27.960981369018555 42.327064514160156 
v -34.260772705078125 28.39851188659668 42.327064514160156 
v -33.8440055847168 27.960195541381836 41.90958023071289 
v -33.84327697753906 28.39772605895996 41.90958023071289 
v -34.025177001953125 27.960588455200195 42.14590835571289 
v -34.02444839477539 28.39811897277832 42.14590835571289 
v -33.730045318603516 27.959999084472656 41.6343994140625 
v -33.729312896728516 28.39752960205078 41.6343994140625 
v -33.8440055847168 27.960195541381836 41.90958023071289 
v -33.84327697753906 28.39772605895996 41.90958023071289 
v -33.69114303588867 27.959999084472656 41.33919906616211 
v -33.69041442871094 28.39752960205078 41.33919906616211 
v -33.730045318603516 27.959999084472656 41.6343994140625 
v -33.729312896728516 28.39752960205078 41.6343994140625 
v -33.69041442871094 28.39752960205078 41.33919906616211 
v -33.69114303588867 27.959999084472656 41.33919906616211 
v -33.729312896728516 28.39752960205078 41.04399871826172 
v -33.730045318603516 27.959999084472656 41.04399871826172 
v -34.53581619262695 28.39890480041504 40.23762512207031 
vn 0.8667527437210083 0 -0.4987381398677826 
vn 0.8667527437210083 0 -0.4987381398677826 
vn 0.7078787684440613 0 -0.7063339352607727 
vn 0.7078787684440613 0 -0.7063339352607727 
vn 0.8667527437210083 0 -0.4987381398677826 
vn 0.8667527437210083 0 -0.4987381398677826 
vn 0.9663954377174377 0 -0.25706008076667786 
vn 0.9663954377174377 0 -0.25706008076667786 
vn 0.5006305575370789 0 0.865661084651947 
vn 0.5006305575370789 0 0.865661084651947 
vn 0.2591707408428192 0 0.9658315181732178 
vn 0.2591707408428192 0 0.9658315181732178 
vn -0.5006305575370789 -1.0354196476993274e-13 -0.865661084651947 
vn -0.5006305575370789 -1.0354196476993274e-13 -0.865661084651947 
vn -0.25914308428764343 0.0037868833169341087 -0.9658315181732178 
vn -0.25914308428764343 0.0037868833169341087 -0.9658315181732178 
vn -0.25914308428764343 0.0037868833169341087 -0.9658315181732178 
vn -0.25914308428764343 0.0037868833169341087 -0.9658315181732178 
vn -2.0682311115474694e-13 0 -1 
vn -2.0682311115474694e-13 0 -1 
vn 0.5006305575370789 0 -0.865661084651947 
vn 0.5006305575370789 0 -0.865661084651947 
vn 0.7078787684440613 0 -0.7063339352607727 
vn 0.7078787684440613 0 -0.7063339352607727 
vn 0.2591707408428192 0 -0.9658315181732178 
vn 0.2591707408428192 0 -0.9658315181732178 
vn 0.5006305575370789 0 -0.865661084651947 
vn 0.5006305575370789 0 -0.865661084651947 
vn -2.0682311115474694e-13 0 -1 
vn -2.0682311115474694e-13 0 -1 
vn 0.13070669770240784 0 -0.991421103477478 
vn 0.2591707408428192 0 -0.9658315181732178 
vn -0.8667445182800293 0.0037766648456454277 -0.4987381398677826 
vn -0.8667445182800293 0.0037766648456454277 -0.4987381398677826 
vn -0.9663954377174377 -1.998729008906644e-13 -0.25706008076667786 
vn -0.9663954377174377 -1.998729008906644e-13 -0.25706008076667786 
vn -0.7078686952590942 0.0037756471429020166 -0.7063339352607727 
vn -0.7078686952590942 0.0037756471429020166 -0.7063339352607727 
vn -0.5006305575370789 -1.0354196476993274e-13 -0.865661084651947 
vn -0.5006305575370789 -1.0354196476993274e-13 -0.865661084651947 
vn -0.8667445182800293 0.0037766648456454277 -0.4987381398677826 
vn -0.8667445182800293 0.0037766648456454277 -0.4987381398677826 
vn -0.7078686952590942 0.0037756471429020166 -0.7063339352607727 
vn -0.7078686952590942 0.0037756471429020166 -0.7063339352607727 
vn -0.9663954377174377 -1.998729008906644e-13 -0.25706008076667786 
vn -0.9663954377174377 -1.998729008906644e-13 -0.25706008076667786 
vn -0.999997615814209 -2.0682260971124217e-13 0.002184694167226553 
vn -0.999997615814209 -2.0682260971124217e-13 0.002184694167226553 
vn -0.999997615814209 -2.0682260971124217e-13 0.002184694167226553 
vn -0.999997615814209 -2.0682260971124217e-13 0.002184694167226553 
vn -0.9663880467414856 0.003771444782614708 0.25706008076667786 
vn -0.9663880467414856 0.003771444782614708 0.25706008076667786 
vn -0.9663880467414856 0.003771444782614708 0.25706008076667786 
vn -0.9663880467414856 0.003771444782614708 0.25706008076667786 
vn -0.8667527437210083 -1.7926449441627718e-13 0.4987381398677826 
vn -0.8667527437210083 -1.7926449441627718e-13 0.4987381398677826 
vn -0.8667527437210083 -1.7926449441627718e-13 0.4987381398677826 
vn -0.8667527437210083 -1.7926449441627718e-13 0.4987381398677826 
vn -0.7078787684440613 -1.4640568759497624e-13 0.7063339352607727 
vn -0.7078787684440613 -1.4640568759497624e-13 0.7063339352607727 
vn -0.7078787684440613 -1.4640568759497624e-13 0.7063339352607727 
vn -0.7078787684440613 -1.4640568759497624e-13 0.7063339352607727 
vn -0.5006305575370789 -1.0354196476993274e-13 0.865661084651947 
vn -0.5006305575370789 -1.0354196476993274e-13 0.865661084651947 
vn -0.5006305575370789 -1.0354196476993274e-13 0.865661084651947 
vn -0.5006305575370789 -1.0354196476993274e-13 0.865661084651947 
vn -0.259143590927124 0.0037519836332648993 0.9658315181732178 
vn -0.259143590927124 0.0037519836332648993 0.9658315181732178 
vn -0.259143590927124 0.0037519836332648993 0.9658315181732178 
vn -0.259143590927124 0.0037519836332648993 0.9658315181732178 
vn 0 0 1 
vn 0 0 1 
vn 0 0 1 
vn 0 0 1 
vn 0.2591707408428192 0 0.9658315181732178 
vn 0.2591707408428192 0 0.9658315181732178 
vn 0.7078787684440613 0 0.7063339352607727 
vn 0.7078787684440613 0 0.7063339352607727 
vn 0.5006305575370789 0 0.865661084651947 
vn 0.5006305575370789 0 0.865661084651947 
vn 0.8667527437210083 0 0.4987381398677826 
vn 0.8667527437210083 0 0.4987381398677826 
vn 0.7078787684440613 0 0.7063339352607727 
vn 0.7078787684440613 0 0.7063339352607727 
vn 0.9663954377174377 0 0.25706008076667786 
vn 0.9663954377174377 0 0.25706008076667786 
vn 0.8667527437210083 0 0.4987381398677826 
vn 0.8667527437210083 0 0.4987381398677826 
vn 0.999997615814209 0 0.002184694167226553 
vn 0.999997615814209 0 0.002184694167226553 
vn 0.9663954377174377 0 0.25706008076667786 
vn 0.9663954377174377 0 0.25706008076667786 
vn 0.999997615814209 0 0.002184694167226553 
vn 0.999997615814209 0 0.002184694167226553 
vn 0.9663954377174377 0 -0.25706008076667786 
vn 0.9663954377174377 0 -0.25706008076667786 
vn 0.2591707408428192 0 -0.9658315181732178 
s on 
f 1//1 2//2 3//3 
f 2//2 4//4 3//3 
f 3//3 4//4 4//4 
f 4//4 5//5 4//4 
f 4//4 5//5 5//5 
f 5//5 6//6 5//5 
f 5//5 6//6 7//7 
f 6//6 8//8 7//7 
f 7//7 8//8 8//8 
f 8//8 9//9 8//8 
f 8//8 9//9 9//9 
f 9//9 10//10 9//9 
f 9//9 10//10 11//11 
f 10//10 12//12 11//11 
f 11//11 12//12 12//12 
f 12//12 13//13 12//12 
f 12//12 13//13 13//13 
f 13//13 14//14 13//13 
f 13//13 14//14 15//15 
f 14//14 16//16 15//15 
f 15//15 16//16 16//16 
f 16//16 17//17 16//16 
f 16//16 17//17 17//17 
f 17//17 18//18 17//17 
f 17//17 18//18 19//19 
f 18//18 20//20 19//19 
f 19//19 20//20 20//20 
f 20//20 21//21 20//20 
f 20//20 21//21 21//21 
f 21//21 22//22 21//21 
f 21//21 22//22 23//23 
f 22//22 24//24 23//23 
f 23//23 24//24 24//24 
f 24//24 25//25 24//24 
f 24//24 25//25 25//25 
f 25//25 26//26 25//25 
f 25//25 26//26 27//27 
f 26//26 28//28 27//27 
f 27//27 28//28 28//28 
f 28//28 29//29 28//28 
f 28//28 29//29 29//29 
f 29//29 30//30 29//29 
f 29//29 30//30 31//31 
f 30//30 32//32 31//31 
f 31//31 32//32 32//32 
f 32//32 33//33 32//32 
f 32//32 33//33 33//33 
f 33//33 34//34 33//33 
f 33//33 34//34 35//35 
f 34//34 36//36 35//35 
f 35//35 36//36 36//36 
f 36//36 37//37 36//36 
f 36//36 37//37 37//37 
f 37//37 38//38 37//37 
f 37//37 38//38 39//39 
f 38//38 40//40 39//39 
f 39//39 40//40 40//40 
f 40//40 41//41 40//40 
f 40//40 41//41 41//41 
f 41//41 42//42 41//41 
f 41//41 42//42 43//43 
f 42//42 44//44 43//43 
f 43//43 44//44 44//44 
f 44//44 45//45 44//44 
f 44//44 45//45 45//45 
f 45//45 46//46 45//45 
f 45//45 46//46 47//47 
f 46//46 48//48 47//47 
f 47//47 48//48 48//48 
f 48//48 49//49 48//48 
f 48//48 49//49 49//49 
f 49//49 50//50 49//49 
f 49//49 50//50 51//51 
f 50//50 52//52 51//51 
f 51//51 52//52 52//52 
f 52//52 53//53 52//52 
f 52//52 53//53 53//53 
f 53//53 54//54 53//53 
f 53//53 54//54 55//55 
f 54//54 56//56 55//55 
f 55//55 56//56 56//56 
f 56//56 57//57 56//56 
f 56//56 57//57 57//57 
f 57//57 58//58 57//57 
f 57//57 58//58 59//59 
f 58//58 60//60 59//59 
f 59//59 60//60 60//60 
f 60//60 61//61 60//60 
f 60//60 61//61 61//61 
f 61//61 62//62 61//61 
f 61//61 62//62 63//63 
f 62//62 64//64 63//63 
f 63//63 64//64 64//64 
f 64//64 65//65 64//64 
f 64//64 65//65 65//65 
f 65//65 66//66 65//65 
f 65//65 66//66 67//67 
f 66//66 68//68 67//67 
f 67//67 68//68 68//68 
f 68//68 69//69 68//68 
f 68//68 69//69 69//69 
f 69//69 70//70 69//69 
f 69//69 70//70 71//71 
f 70//70 72//72 71//71 
f 71//71 72//72 72//72 
f 72//72 73//73 72//72 
f 72//72 73//73 73//73 
f 73//73 74//74 73//73 
f 73//73 74//74 75//75 
f 74//74 76//76 75//75 
f 75//75 76//76 76//76 
f 76//76 77//77 76//76 
f 76//76 77//77 77//77 
f 77//77 78//78 77//77 
f 77//77 78//78 79//79 
f 78//78 80//80 79//79 
f 79//79 80//80 80//80 
f 80//80 81//81 80//80 
f 80//80 81//81 81//81 
f 81//81 82//82 81//81 
f 81//81 82//82 83//83 
f 82//82 84//84 83//83 
f 83//83 84//84 84//84 
f 84//84 85//85 84//84 
f 84//84 85//85 85//85 
f 85//85 86//86 85//85 
f 85//85 86//86 87//87 
f 86//86 88//88 87//87 
f 87//87 88//88 88//88 
f 88//88 89//89 88//88 
f 88//88 89//89 89//89 
f 89//89 90//90 89//89 
f 89//89 90//90 91//91 
f 90//90 92//92 91//91 
f 91//91 92//92 92//92 
f 92//92 93//93 92//92 
f 92//92 93//93 93//93 
f 93//93 94//94 93//93 
f 93//93 94//94 95//95 
f 94//94 96//96 95//95 
f 30//30 97//97 32//32 

