mtllib model_1.mtl
o model_1
v -18.405902862548828 58.37089920043945 44.321624755859375 
v -18.405902862548828 58.37089920043945 34.3216667175293 
v -28.40591812133789 58.388370513916016 44.321624755859375 
v -28.40591812133789 58.388370513916016 34.3216667175293 
vn -1.0341130485562108e-13 0.999997615814209 0.002184694167226553 
vn -1.0341130485562108e-13 0.999997615814209 0.002184694167226553 
vn -1.0341130485562108e-13 0.999997615814209 0.002184694167226553 
vn -1.0341130485562108e-13 0.999997615814209 0.002184694167226553 
vt 0.008652590215206146 0.5543665289878845 
vt 0.008652590215206146 0.001394539955072105 
vt 0.7157924175262451 0.5543665289878845 
vt 0.7157924175262451 0.001394539955072105 
s on 
f 1/1/1 2/2/2 3/3/3 
f 2/2/2 4/4/4 3/3/3 

