mtllib model_2.mtl
o model_2
v -28.86420440673828 27.527299880981445 34.23379898071289 
v -28.86420440673828 27.527299880981445 37.233795166015625 
v -37.864200592041016 27.527299880981445 34.23379898071289 
v -37.864200592041016 27.527299880981445 37.233795166015625 
vn 3.097898456858039e-13 -0.999997615814209 0.002184694167226553 
vn 3.097898456858039e-13 -0.999997615814209 0.002184694167226553 
vn 3.097898456858039e-13 -0.999997615814209 0.002184694167226553 
vn 3.097898456858039e-13 -0.999997615814209 0.002184694167226553 
vt -3.094640016555786 10.059800148010254 
vt -3.094640016555786 10.916299819946289 
vt -3.8928000926971436 10.059800148010254 
vt -3.8928000926971436 10.916299819946289 
s on 
f 1/1/1 2/2/2 3/3/3 
f 2/2/2 4/4/4 3/3/3 

