mtllib model_11.mtl
o model_11
v -8.786323547363281 34.34023666381836 6.984328269958496 
v -4.532093524932861 34.33277893066406 6.984328269958496 
v -8.803125381469727 24.75735855102539 6.984328269958496 
v -4.548712730407715 24.75009536743164 6.984328269958496 
v -38.781986236572266 24.75735855102539 6.984328269958496 
v -43.03639602661133 24.75009536743164 6.984328269958496 
v -38.79878616333008 34.34023666381836 6.984328269958496 
v -43.053016662597656 34.33277893066406 6.984328269958496 
vn -2.0682311115474694e-13 0 -1 
vn -2.0682311115474694e-13 0 -1 
vn -2.0682311115474694e-13 0 -1 
vn -2.0682311115474694e-13 0 -1 
vn -2.0682311115474694e-13 0 -1 
vn -2.0682311115474694e-13 0 -1 
vn -2.0682311115474694e-13 0 -1 
vn -2.0682311115474694e-13 0 -1 
s on 
f 1//1 2//2 3//3 
f 2//2 4//4 3//3 
f 3//3 4//4 4//4 
f 4//4 5//5 4//4 
f 4//4 5//5 5//5 
f 5//5 6//6 5//5 
f 5//5 6//6 7//7 
f 6//6 8//8 7//7 

