mtllib model_3.mtl
o model_3
v -26.215299606323242 27.48310089111328 23.746299743652344 
v -11.215330123901367 27.48310089111328 23.746299743652344 
v -26.215299606323242 27.48310089111328 30.74629783630371 
v -11.215330123901367 27.48310089111328 30.74629783630371 
vn 3.097898456858039e-13 -0.999997615814209 0.002184694167226553 
vn 3.097898456858039e-13 -0.999997615814209 0.002184694167226553 
vn 3.097898456858039e-13 -0.999997615814209 0.002184694167226553 
vn 3.097898456858039e-13 -0.999997615814209 0.002184694167226553 
s on 
f 1//1 2//2 3//3 
f 2//2 4//4 3//3 

